<?xml version="1.0" standalone="no"?>
<!DOCTYPE svg PUBLIC "-//W3C//DTD SVG 1.1//EN" "http://www.w3.org/Graphics/SVG/1.1/DTD/svg11.dtd" >
<svg xmlns="http://www.w3.org/2000/svg" xmlns:xlink="http://www.w3.org/1999/xlink" version="1.1">
<metadata>
Created by FontForge 20170812 at Mon Feb 14 15:36:09 2022
 By www-data
Copyright 2021 The Anek Project Authors (https://github.com/EkType/Anek)
</metadata>
<defs>
<font id="AnekTamil-Medium" horiz-adv-x="0" >
  <font-face 
    font-family="Anek Tamil Medium"
    font-weight="500"
    font-stretch="normal"
    units-per-em="2000"
    panose-1="0 0 0 0 0 0 0 0 0 0"
    ascent="1600"
    descent="-400"
    x-height="978"
    cap-height="1278"
    bbox="-293 -849 4660 1927"
    underline-thickness="50"
    underline-position="-125"
    unicode-range="U+000D-FB02"
  />
<missing-glyph horiz-adv-x="1160" 
d="M185 0v1278h790v-1278h-790zM224 35h712v1208h-712v-1208zM210 0l695 1266h40l-695 -1266h-40zM950 0h-40l-695 1266h40z" />
    <glyph glyph-name="fi" unicode="fi" horiz-adv-x="1198" 
d="M457 1352q76 0 137.5 -13t111.5 -33l19 -152q-47 16 -95.5 26t-108.5 10q-71 0 -113.5 -18t-61 -50.5t-18.5 -77.5v-4q0 -32 9 -61t20 -52l-130 -4v23q-37 23 -63 65.5t-26 102.5v5q0 105 78 169t241 64zM171 0v881h195v-881h-195zM17 782v156l229 -1l80 1h395l-17 -156
h-687zM875 0v978h196v-978h-196zM973 1122q-58 0 -86.5 29.5t-28.5 81.5v4q0 52 28.5 81.5t86.5 29.5t86.5 -29.5t28.5 -81.5v-4q0 -53 -28.5 -82t-86.5 -29z" />
    <glyph glyph-name="fl" unicode="fl" horiz-adv-x="1202" 
d="M457 1352q76 0 137.5 -13t111.5 -33l19 -152q-47 16 -95.5 26t-108.5 10q-71 0 -113.5 -18t-61 -50.5t-18.5 -77.5v-4q0 -32 9 -61t20 -52l-130 -4v23q-37 23 -63 65.5t-26 102.5v5q0 105 78 169t241 64zM171 0v881h195v-881h-195zM17 782v156l229 -1l80 1h395l-17 -156
h-687zM878 0v1324h196v-1324h-196z" />
    <glyph glyph-name="f_f" unicode="ff" horiz-adv-x="1386" 
d="M457 1352q76 0 137.5 -13t111.5 -33l19 -152q-47 16 -95.5 26t-108.5 10q-71 0 -113.5 -18t-61 -50.5t-18.5 -77.5v-4q0 -32 9 -61t20 -52l-130 -4v23q-37 23 -63 65.5t-26 102.5v5q0 105 78 169t241 64zM171 0v881h195v-881h-195zM17 782v156l229 -1l80 1h395l-17 -156
h-687zM1093 1352q76 0 137.5 -13t111.5 -33l19 -152q-47 16 -95.5 26t-108.5 10q-71 0 -113.5 -18t-61 -50.5t-18.5 -77.5v-4q0 -32 9 -61t20 -52l-130 -4v23q-37 23 -63 65.5t-26 102.5v5q0 105 78 169t241 64zM807 0v881h195v-881h-195zM653 782v156l229 -1l80 1h395
l-17 -156h-687z" />
    <glyph glyph-name="f_f_i" unicode="ffi" horiz-adv-x="1834" 
d="M457 1352q76 0 137.5 -13t111.5 -33l19 -152q-47 16 -95.5 26t-108.5 10q-71 0 -113.5 -18t-61 -50.5t-18.5 -77.5v-4q0 -32 9 -61t20 -52l-130 -4v23q-37 23 -63 65.5t-26 102.5v5q0 105 78 169t241 64zM171 0v881h195v-881h-195zM17 782v156l229 -1l80 1h395l-17 -156
h-687zM1093 1352q76 0 137.5 -13t111.5 -33l19 -152q-47 16 -95.5 26t-108.5 10q-71 0 -113.5 -18t-61 -50.5t-18.5 -77.5v-4q0 -32 9 -61t20 -52l-130 -4v23q-37 23 -63 65.5t-26 102.5v5q0 105 78 169t241 64zM807 0v881h195v-881h-195zM653 782v156l229 -1l80 1h395
l-17 -156h-687zM1511 0v978h196v-978h-196zM1609 1122q-58 0 -86.5 29.5t-28.5 81.5v4q0 52 28.5 81.5t86.5 29.5t86.5 -29.5t28.5 -81.5v-4q0 -53 -28.5 -82t-86.5 -29z" />
    <glyph glyph-name="f_f_l" unicode="ffl" horiz-adv-x="1838" 
d="M457 1352q76 0 137.5 -13t111.5 -33l19 -152q-47 16 -95.5 26t-108.5 10q-71 0 -113.5 -18t-61 -50.5t-18.5 -77.5v-4q0 -32 9 -61t20 -52l-130 -4v23q-37 23 -63 65.5t-26 102.5v5q0 105 78 169t241 64zM171 0v881h195v-881h-195zM17 782v156l229 -1l80 1h395l-17 -156
h-687zM1093 1352q76 0 137.5 -13t111.5 -33l19 -152q-47 16 -95.5 26t-108.5 10q-71 0 -113.5 -18t-61 -50.5t-18.5 -77.5v-4q0 -32 9 -61t20 -52l-130 -4v23q-37 23 -63 65.5t-26 102.5v5q0 105 78 169t241 64zM807 0v881h195v-881h-195zM653 782v156l229 -1l80 1h395
l-17 -156h-687zM1514 0v1324h196v-1324h-196z" />
    <glyph glyph-name=".notdef" horiz-adv-x="1160" 
d="M185 0v1278h790v-1278h-790zM224 35h712v1208h-712v-1208zM210 0l695 1266h40l-695 -1266h-40zM950 0h-40l-695 1266h40z" />
    <glyph glyph-name="NULL" horiz-adv-x="330" 
 />
    <glyph glyph-name="CR" unicode="&#xd;" horiz-adv-x="2258" 
 />
    <glyph glyph-name="space" unicode=" " horiz-adv-x="552" 
 />
    <glyph glyph-name="exclam" unicode="!" horiz-adv-x="474" 
d="M319 402h-164l-23 876h210zM237 -21q-60 0 -88.5 32.5t-28.5 90.5v10q0 58 28.5 90t88.5 32q59 0 88 -32t29 -90v-10q0 -58 -29 -90.5t-88 -32.5z" />
    <glyph glyph-name="quotedbl" unicode="&#x22;" horiz-adv-x="716" 
d="M263 831h-154l-19 493h193zM606 831h-154l-19 493h193z" />
    <glyph glyph-name="numbersign" unicode="#" horiz-adv-x="1180" 
d="M204 0l162 1278h159l-162 -1278h-159zM61 319v143h1001v-143h-1001zM660 0l158 1278h160l-158 -1278h-160zM121 819v143h999v-143h-999z" />
    <glyph glyph-name="percent" unicode="%" horiz-adv-x="1516" 
d="M273 0l788 1278h186l-788 -1278h-186zM1151 -26q-138 0 -210.5 75.5t-72.5 211.5v89q0 135 73 210t210 75q138 0 211.5 -74t73.5 -211v-89q0 -136 -73.5 -211.5t-211.5 -75.5zM1151 109q62 0 93 37.5t31 110.5v96q0 73 -31.5 110.5t-92.5 37.5t-92.5 -37.5t-31.5 -110.5
v-96q0 -73 32 -110.5t92 -37.5zM362 644q-138 0 -211 74.5t-73 210.5v90q0 135 73 209.5t211 74.5t211.5 -74.5t73.5 -209.5v-90q0 -135 -73.5 -210t-211.5 -75zM362 778q61 0 92.5 37t31.5 110v97q0 72 -31.5 110t-92.5 38t-92.5 -38t-31.5 -110v-97q0 -73 32 -110t92 -37z
" />
    <glyph glyph-name="ampersand" unicode="&#x26;" horiz-adv-x="1280" 
d="M1067 0q-16 16 -47 46t-66 64.5t-65.5 63.5t-44.5 43l-25 27l-467 437l-29 35q-66 68 -97 128t-31 142v7q0 145 91.5 227t278.5 82q119 0 203 -22.5t140 -51.5l19 -179q-65 32 -147.5 55.5t-177.5 23.5q-108 0 -154.5 -37.5t-46.5 -103.5v-5q0 -52 28.5 -97.5
t86.5 -101.5l426 -406l48 -52q30 -29 60.5 -59t61.5 -60.5t62 -62t62 -63.5l62 -64v-16h-231zM520 -24q-218 0 -326 100t-108 284v32q0 140 54.5 229.5t184.5 158.5l104 -138q-73 -35 -105.5 -90t-32.5 -144v-30q0 -116 62.5 -175.5t184.5 -59.5q103 0 175.5 41.5
t123.5 119.5l52 65q50 88 77.5 195.5t38.5 231.5h192q-18 -166 -59.5 -306t-115.5 -247l-54 -56q-52 -67 -115.5 -114t-145 -72t-187.5 -25z" />
    <glyph glyph-name="quotesingle" unicode="'" horiz-adv-x="373" 
d="M263 831h-154l-19 493h193z" />
    <glyph glyph-name="parenleft" unicode="(" horiz-adv-x="597" 
d="M319 608v-107q0 -148 25 -277.5t78 -245t135 -222.5h-204q-77 100 -126.5 212t-73 242t-23.5 285v118q0 154 24 283.5t74 242t127 212.5h202q-82 -106 -135 -221.5t-78 -244.5t-25 -277z" />
    <glyph glyph-name="parenright" unicode=")" horiz-adv-x="599" 
d="M280 608q0 148 -25 277t-77.5 244.5t-135.5 221.5h202q77 -100 127 -212.5t74 -242t24 -283.5v-118q0 -155 -23.5 -285t-72.5 -242t-127 -212h-204q83 107 135.5 222.5t77.5 245t25 277.5v107z" />
    <glyph glyph-name="asterisk" unicode="*" horiz-adv-x="769" 
d="M244 644l-134 92l169 184l-1 4l-230 46l39 155l230 -89l3 2l-22 240h173l-22 -240l3 -2l230 89l39 -155l-231 -46l-1 -4l169 -184l-133 -92l-139 204h-4z" />
    <glyph glyph-name="plus" unicode="+" horiz-adv-x="1004" 
d="M586 198h-168v846h168v-846zM99 542v158h806v-158h-806z" />
    <glyph glyph-name="comma" unicode="," horiz-adv-x="397" 
d="M295 284q3 -20 6.5 -50.5t3.5 -65.5q0 -122 -35 -226t-118 -201l-137 40q50 83 74.5 175t24.5 204q0 33 -1.5 63t-5.5 61h188z" />
    <glyph glyph-name="hyphen" unicode="-" horiz-adv-x="798" 
d="M114 442v160h570v-160h-570z" />
    <glyph glyph-name="period" unicode="." horiz-adv-x="402" 
d="M201 -21q-60 0 -88.5 32.5t-28.5 90.5v10q0 58 28.5 90t88.5 32q59 0 88 -32t29 -90v-10q0 -58 -29 -90.5t-88 -32.5z" />
    <glyph glyph-name="slash" unicode="/" horiz-adv-x="850" 
d="M21 -242l627 1585h181l-626 -1585h-182z" />
    <glyph glyph-name="zero" unicode="0" horiz-adv-x="1151" 
d="M575 -26q-235 0 -355 130.5t-120 377.5v314q0 247 119.5 377.5t355.5 130.5t356 -130.5t120 -377.5v-314q0 -247 -120 -377.5t-356 -130.5zM575 141q139 0 205.5 85.5t66.5 246.5v331q0 162 -66.5 247.5t-205.5 85.5t-205 -85.5t-66 -247.5v-331q0 -161 66.5 -246.5
t204.5 -85.5z" />
    <glyph glyph-name="one" unicode="1" horiz-adv-x="685" 
d="M346 0v1071h-14l-287 -161l5 194l304 174h192v-1278h-200z" />
    <glyph glyph-name="two" unicode="2" horiz-adv-x="950" 
d="M65 0v187l318 304q88 84 148.5 150.5t92.5 129.5t32 134v10q0 67 -26 114.5t-80.5 73t-141.5 25.5q-98 0 -184 -31t-152 -71l18 179q39 24 92 46t119.5 36t147.5 14q206 0 308.5 -94t102.5 -267v-14q0 -99 -34.5 -179.5t-101 -159.5t-163.5 -172l-245 -236v-43l-82 34
h644v-170h-813z" />
    <glyph glyph-name="three" unicode="3" horiz-adv-x="991" 
d="M446 -23q-82 0 -150.5 12t-120.5 29.5t-87 33.5l-19 194q68 -37 159.5 -65t200.5 -28q100 0 160 24t87 69.5t27 110.5v19q0 67 -25.5 109.5t-83 63.5t-154.5 23l-209 4v159l210 5q94 2 150 24.5t80.5 64t24.5 99.5v14q0 93 -58 141t-198 48q-106 0 -199.5 -28.5
t-163.5 -65.5l17 174q62 35 156.5 62.5t223.5 27.5q218 0 321.5 -86t103.5 -242v-20q0 -75 -24.5 -132.5t-75.5 -94t-132 -50.5v-30l-6 21q131 -25 189.5 -93.5t58.5 -195.5v-34q0 -172 -112.5 -269.5t-350.5 -97.5z" />
    <glyph glyph-name="four" unicode="4" horiz-adv-x="1065" 
d="M680 0v848l7 291h-26l-408 -718v-88l-77 73h858v-168h-980v196l487 844h330v-1278h-191z" />
    <glyph glyph-name="five" unicode="5" horiz-adv-x="1053" 
d="M500 -23q-126 0 -218.5 26.5t-144.5 53.5l-20 191q44 -24 100.5 -45.5t123 -35t141.5 -13.5q103 0 166 27.5t91.5 80t28.5 126.5v55q0 103 -51 160t-161 57q-90 0 -152.5 -38.5t-104.5 -103.5l-176 30v730h806v-170h-612v-279l-3 -168h8q38 71 111.5 117.5t192.5 46.5
q173 0 257.5 -100t84.5 -276v-63q0 -125 -49 -217t-152.5 -142t-266.5 -50z" />
    <glyph glyph-name="six" unicode="6" horiz-adv-x="1096" 
d="M566 -26q-149 0 -254.5 58.5t-161 174t-55.5 287.5v274q0 254 126.5 393.5t371.5 139.5q118 0 202 -24t142 -53l20 -180q-43 24 -91 43t-106.5 30t-133.5 11q-166 0 -249 -92t-83 -274v-291q0 -110 32.5 -183.5t94 -110t149.5 -36.5q124 0 183.5 66t59.5 169v52
q0 72 -22 124.5t-71.5 81t-132.5 28.5q-74 0 -134.5 -27.5t-103.5 -79t-64 -122.5l-14 172h33q21 62 64 111t112 77.5t166 28.5q182 0 273.5 -102.5t91.5 -288.5v-58q0 -181 -112.5 -290t-332.5 -109z" />
    <glyph glyph-name="seven" unicode="7" horiz-adv-x="934" 
d="M199 0l468 1108h-612v170h822v-174l-459 -1104h-219z" />
    <glyph glyph-name="eight" unicode="8" horiz-adv-x="1122" 
d="M560 -27q-127 0 -217 25.5t-147 73t-83.5 112.5t-26.5 144v26q0 88 29 151t83.5 103t129.5 58v10q-75 14 -126 50t-77 92.5t-26 130.5v25q0 152 111.5 241t349.5 89q241 0 352.5 -89t111.5 -241v-25q0 -74 -26 -130.5t-77 -92.5t-126 -50v-10q76 -19 130 -59t83 -102.5
t29 -150.5v-26q0 -77 -25.5 -142t-82 -112.5t-147.5 -74t-222 -26.5zM563 140q143 0 207 58.5t64 149.5v23q0 90 -70.5 146.5t-207.5 71.5q-131 -16 -199 -72.5t-68 -145.5v-23q0 -91 65.5 -149.5t208.5 -58.5zM566 730q110 7 184.5 58t74.5 149v15q0 85 -63 136.5
t-202 51.5q-136 0 -199 -51.5t-63 -136.5v-15q0 -65 34.5 -109.5t94.5 -68.5t139 -29z" />
    <glyph glyph-name="nine" unicode="9" horiz-adv-x="1096" 
d="M531 1304q233 0 351.5 -128.5t118.5 -378.5v-302q0 -250 -130 -385t-388 -135q-111 0 -190 21.5t-134 47.5l-21 189q64 -35 138.5 -59t183.5 -24q175 0 258.5 88t83.5 263v316q0 159 -66.5 239.5t-208.5 80.5q-124 0 -184 -65.5t-60 -169.5v-58q0 -105 55 -168.5
t183 -63.5q71 0 129 27.5t99.5 79t61.5 122.5l14 -172h-33q-20 -62 -62 -111t-108.5 -77.5t-161.5 -28.5q-188 0 -281.5 102t-93.5 284v67q0 182 113 290.5t333 108.5z" />
    <glyph glyph-name="colon" unicode=":" horiz-adv-x="418" 
d="M209 -21q-60 0 -88.5 32.5t-28.5 90.5v10q0 58 28.5 90t88.5 32q59 0 88 -32t29 -90v-10q0 -58 -29 -90.5t-88 -32.5zM209 670q-60 0 -88.5 32.5t-28.5 90.5v10q0 58 28.5 90t88.5 32q59 0 88 -32t29 -90v-10q0 -58 -29 -90.5t-88 -32.5z" />
    <glyph glyph-name="semicolon" unicode=";" horiz-adv-x="416" 
d="M304 284q3 -20 6.5 -50.5t3.5 -65.5q0 -122 -35 -226t-118 -201l-137 40q50 83 74.5 175t24.5 204q0 33 -1.5 63t-5.5 61h188zM209 670q-60 0 -88.5 32.5t-28.5 90.5v10q0 58 28.5 90t88.5 32q59 0 88 -32t29 -90v-10q0 -58 -29 -90.5t-88 -32.5z" />
    <glyph glyph-name="less" unicode="&#x3c;" horiz-adv-x="1029" 
d="M241 629v-18l664 -166v-170l-806 215v260l806 215v-170z" />
    <glyph glyph-name="equal" unicode="=" horiz-adv-x="1031" 
d="M113 337v156h805v-156h-805zM113 749v156h805v-156h-805z" />
    <glyph glyph-name="greater" unicode="&#x3e;" horiz-adv-x="1029" 
d="M788 629l-664 166v170l806 -215v-260l-806 -215v170l664 166v18z" />
    <glyph glyph-name="question" unicode="?" horiz-adv-x="902" 
d="M269 391v172l85 19q97 22 155.5 56.5t85.5 87t27 128.5v65q0 103 -52.5 158t-180.5 55q-96 0 -184 -27.5t-159 -65.5l22 176q36 21 88 40.5t119 32.5t145 13q206 0 303.5 -94.5t97.5 -270.5v-79q0 -131 -49 -217.5t-145.5 -139.5t-241.5 -84zM354 -21q-60 0 -88.5 32.5
t-28.5 90.5v10q0 58 28.5 90t88.5 32q59 0 88 -32t29 -90v-10q0 -58 -29 -90.5t-88 -32.5z" />
    <glyph glyph-name="at" unicode="@" horiz-adv-x="1690" 
d="M734 69q-114 0 -176.5 69.5t-62.5 201.5q0 9 0.5 20t1.5 29.5t4 50.5t9 83q13 121 49 208.5t100.5 134.5t164.5 47q101 0 150.5 -47t62.5 -126h48l-54 -172q1 7 1 13.5v12.5q0 55 -18 92.5t-51.5 57t-80.5 19.5q-87 0 -129 -57.5t-53 -157.5q-6 -51 -9 -82.5t-4 -49.5
t-1.5 -27.5t-0.5 -16.5q0 -74 34.5 -111t101.5 -37q44 0 80.5 19t63.5 53t40 79l22 -132h-43q-19 -51 -50 -90t-79.5 -61.5t-120.5 -22.5zM971 82l29 213l-3 31l41 340l4 28l17 191l1 11h178l-93 -792zM1108 220q19 -1 33.5 -2t39.5 -1q106 0 157 60.5t70 186.5
q9 56 14.5 100.5t8.5 77t4 52.5q8 158 -49.5 270t-179 171.5t-305.5 59.5q-199 0 -329.5 -75.5t-201.5 -214t-92 -328.5q-6 -52 -10 -91t-6.5 -69t-4.5 -54.5t-2.5 -45.5t-0.5 -43q0 -232 141 -355.5t427 -123.5q128 0 235.5 18.5t195 50.5t154.5 72l-25 -156
q-70 -36 -154 -64.5t-187 -44.5t-230 -16q-236 0 -396.5 69.5t-242.5 206t-82 336.5q0 24 0.5 47.5t2 49t4 56t6.5 68t9 83.5q27 246 121.5 416t262 258t411.5 88q226 0 384 -72.5t237.5 -214t70.5 -349.5q-1 -23 -3.5 -54t-8 -75.5t-14.5 -110.5q-18 -131 -69 -215.5
t-144.5 -125.5t-241.5 -43q-39 -1 -75.5 1t-71.5 8z" />
    <glyph glyph-name="bracketleft" unicode="[" horiz-adv-x="618" 
d="M143 -244v1595h420v-148h-238v-1299h238v-148h-420z" />
    <glyph glyph-name="backslash" unicode="\" horiz-adv-x="850" 
d="M829 -242h-182l-626 1585h181z" />
    <glyph glyph-name="bracketright" unicode="]" horiz-adv-x="618" 
d="M475 -244h-420v148h238v1299h-238v148h420v-1595z" />
    <glyph glyph-name="asciicircum" unicode="^" horiz-adv-x="857" 
d="M299 1278h258l252 -666h-170l-204 548h-14l-203 -548h-170z" />
    <glyph glyph-name="underscore" unicode="_" horiz-adv-x="899" 
d="M50 -223v152h799v-152h-799z" />
    <glyph glyph-name="braceleft" unicode="{" horiz-adv-x="678" 
d="M625 1330v-143q-22 7 -49 12t-59 5q-70 0 -101 -33.5t-31 -109.5q0 -34 3.5 -85t7 -103.5t3.5 -91.5q0 -61 -14.5 -107t-51 -74.5t-102.5 -38.5v-19l-8 10q70 -8 108 -37.5t53 -77t15 -109.5q0 -39 -3.5 -92t-7 -104t-3.5 -86q0 -76 31 -110t103 -34q31 0 57.5 5.5
t48.5 12.5v-145q-34 -10 -74 -17t-84 -7q-137 0 -202.5 65.5t-65.5 209.5q0 41 3.5 95.5t7 107.5t3.5 89q0 49 -13.5 82t-46 51t-91.5 22v165q59 4 91.5 21.5t46 50.5t13.5 81q0 37 -3.5 89.5t-7 106.5t-3.5 93q0 144 65.5 209t202.5 65q44 0 84 -6.5t74 -17.5z" />
    <glyph glyph-name="bar" unicode="|" horiz-adv-x="494" 
d="M330 -432h-166v1853h166v-1853z" />
    <glyph glyph-name="braceright" unicode="}" horiz-adv-x="678" 
d="M53 1330q34 11 74.5 17.5t83.5 6.5q137 0 202.5 -65t65.5 -209q0 -39 -3.5 -93t-7 -106.5t-3.5 -89.5q0 -48 13.5 -81t46.5 -50.5t91 -21.5v-165q-58 -4 -91 -22t-46.5 -51t-13.5 -82q0 -36 3.5 -89t7 -107.5t3.5 -95.5q0 -144 -65.5 -209.5t-202.5 -65.5q-43 0 -83.5 7
t-74.5 17v145q22 -7 48.5 -12.5t57.5 -5.5q72 0 103 34t31 110q0 35 -3.5 86t-7 104t-3.5 92q0 62 15 109.5t53.5 77t107.5 37.5l-8 -10v19q-65 10 -102 38.5t-51.5 74.5t-14.5 107q0 39 3.5 91.5t7 103.5t3.5 85q0 76 -30.5 109.5t-101.5 33.5q-31 0 -58.5 -5t-49.5 -12
v143z" />
    <glyph glyph-name="asciitilde" unicode="~" horiz-adv-x="1084" 
d="M747 476q-57 0 -110.5 16.5t-103.5 37.5t-96 37.5t-88 16.5q-48 0 -68 -29.5t-20 -82.5v-16h-144v38q0 118 49.5 186t170.5 68q57 0 110.5 -16.5t103.5 -38t96 -38t87 -16.5q50 0 69 29t19 83v17h145v-39q0 -119 -50 -186t-170 -67z" />
    <glyph glyph-name="ellipsis" unicode="&#x2026;" horiz-adv-x="1190" 
d="M989 -21q-60 0 -88.5 32.5t-28.5 90.5v10q0 58 28.5 90t88.5 32q59 0 88 -32t29 -90v-10q0 -58 -29 -90.5t-88 -32.5zM595 -21q-60 0 -88.5 32.5t-28.5 90.5v10q0 58 28.5 90t88.5 32q59 0 88 -32t29 -90v-10q0 -58 -29 -90.5t-88 -32.5zM201 -21q-60 0 -88.5 32.5
t-28.5 90.5v10q0 58 28.5 90t88.5 32q59 0 88 -32t29 -90v-10q0 -58 -29 -90.5t-88 -32.5z" />
    <glyph glyph-name="endash" unicode="&#x2013;" horiz-adv-x="1026" 
d="M114 442v160h798v-160h-798z" />
    <glyph glyph-name="emdash" unicode="&#x2014;" horiz-adv-x="1806" 
d="M114 442v160h1578v-160h-1578z" />
    <glyph glyph-name="quoteleft" unicode="&#x2018;" horiz-adv-x="407" 
d="M91 829q-3 20 -6 48.5t-3 62.5q0 116 32 214t105 185l139 -38q-44 -76 -66 -161.5t-22 -189.5q0 -31 2 -60t5 -61h-186z" />
    <glyph glyph-name="quoteright" unicode="&#x2019;" horiz-adv-x="407" 
d="M316 1324q3 -19 6 -48t3 -63q0 -115 -32 -213.5t-105 -185.5l-139 38q44 76 66 162t22 189q0 32 -2 60.5t-5 60.5h186z" />
    <glyph glyph-name="divide" unicode="&#xf7;" horiz-adv-x="1004" 
d="M99 541v160h806v-160h-806zM507 159q-54 0 -79.5 29.5t-25.5 81.5v9q0 52 25.5 81t79.5 29q53 0 79 -29t26 -81v-9q0 -52 -26 -81.5t-79 -29.5zM507 854q-54 0 -79.5 29.5t-25.5 81.5v9q0 52 25.5 81t79.5 29q53 0 79 -29t26 -81v-9q0 -52 -26 -81.5t-79 -29.5z" />
    <glyph glyph-name="minus" unicode="&#x2212;" horiz-adv-x="979" 
d="M99 541v160h781v-160h-781z" />
    <glyph glyph-name="multiply" unicode="&#xd7;" horiz-adv-x="958" 
d="M868 331l-113 -103l-660 680l113 102zM90 331l660 679l113 -102l-660 -680z" />
    <glyph glyph-name="dollar" unicode="$" horiz-adv-x="1049" 
d="M607 1195h-174v292h174v-292zM607 -214h-174v327h174v-327zM507 -24q-91 0 -168 14t-137.5 35t-102.5 42l-19 197q77 -44 182.5 -78t228.5 -34q140 0 206 46.5t66 140.5v15q0 61 -26.5 100.5t-89.5 68t-171 54.5q-142 35 -229.5 82.5t-127.5 119t-40 178.5v10
q0 161 107 248t321 87q137 0 234.5 -26.5t160.5 -59.5l18 -183q-73 42 -168 70.5t-214 28.5q-93 0 -149 -20.5t-81 -59t-25 -92.5v-4q0 -56 25 -96t88.5 -70.5t180.5 -60.5q139 -35 224.5 -78.5t125.5 -113t40 -182.5v-20q0 -177 -115 -268t-345 -91z" />
    <glyph glyph-name="A" unicode="A" horiz-adv-x="1179" 
d="M42 0l392 1278h311l392 -1278h-203l-332 1144h-25l-332 -1144h-203zM298 357v166h581v-166h-581z" />
    <glyph glyph-name="B" unicode="B" horiz-adv-x="1173" 
d="M281 0v165h383q122 0 173 50t51 140v31q0 92 -52 141.5t-180 49.5h-376v158h374q115 0 163.5 48.5t48.5 135.5v16q0 85 -47 132t-166 47h-376v164h395q211 0 303 -80.5t92 -230.5v-18q0 -115 -53 -178.5t-164 -78.5v-10q127 -25 184.5 -97t57.5 -203v-38q0 -164 -96 -254
t-311 -90h-404zM142 0v1278h198v-1278h-198z" />
    <glyph glyph-name="C" unicode="C" horiz-adv-x="1021" 
d="M586 -25q-245 0 -366.5 136t-121.5 387v284q0 250 121.5 385.5t366.5 135.5q75 0 137 -13t111 -34t84 -44l16 -184q-59 40 -137 70t-184 30q-154 0 -232.5 -91t-78.5 -258v-274q0 -166 79.5 -258t237.5 -92q104 0 184.5 29.5t140.5 72.5l-16 -189q-35 -23 -85.5 -44.5
t-115 -35t-141.5 -13.5z" />
    <glyph glyph-name="D" unicode="D" horiz-adv-x="1195" 
d="M279 0v169h303q158 0 237.5 86t79.5 246v278q0 161 -79.5 246.5t-237.5 85.5h-304v167h311q254 0 383 -128.5t129 -369.5v-280q0 -241 -129 -370.5t-383 -129.5h-310zM142 0v1278h198v-1278h-198z" />
    <glyph glyph-name="E" unicode="E" horiz-adv-x="1055" 
d="M142 0v1278h198v-1278h-198zM201 0v168h761v-168h-761zM256 568v166h684v-166h-684zM200 1111v167h755v-167h-755z" />
    <glyph glyph-name="F" unicode="F" horiz-adv-x="1009" 
d="M142 0v1278h200v-1278h-200zM256 514v168h660v-168h-660zM200 1110v168h731v-168h-731z" />
    <glyph glyph-name="G" unicode="G" horiz-adv-x="1196" 
d="M540 -26q-146 0 -244.5 59.5t-148 173t-49.5 274.5v289q0 257 134.5 395t395.5 138q90 0 164 -14t132.5 -36t100.5 -47l18 -179q-70 41 -164 72.5t-215 31.5q-184 0 -273 -93.5t-89 -271.5v-284q0 -161 75 -248.5t228 -87.5q75 0 129.5 25t89.5 67t51 92v298l30 -70h-283
v166h449v-524l-199 1q-16 -61 -53.5 -113t-105 -83t-173.5 -31zM884 264h187v-264h-196z" />
    <glyph glyph-name="H" unicode="H" horiz-adv-x="1254" 
d="M343 0h-201v1278h201v-1278zM1112 0h-201v1278h201v-1278zM257 742h732v-168h-732v168z" />
    <glyph glyph-name="I" unicode="I" horiz-adv-x="487" 
d="M344 0h-201v1278h201v-1278z" />
    <glyph glyph-name="J" unicode="J" horiz-adv-x="822" 
d="M307 -17q-64 0 -125.5 10t-111.5 30l-15 178q50 -22 102.5 -33t107.5 -11q127 0 175 58.5t48 178.5v884h201v-896q0 -196 -87.5 -297.5t-294.5 -101.5z" />
    <glyph glyph-name="K" unicode="K" horiz-adv-x="1149" 
d="M883 0l-423 574h-133v159h133l417 545h228l-494 -639l-1 48l508 -687h-235zM142 0v1278h199v-1278h-199z" />
    <glyph glyph-name="L" unicode="L" horiz-adv-x="979" 
d="M343 0h-201v1278h201v-1278zM252 170h670v-170h-670v170z" />
    <glyph glyph-name="M" unicode="M" horiz-adv-x="1509" 
d="M122 0l46 1278h305l275 -876h13l275 876h305l46 -1278h-195l-15 511l-14 556h-16l-292 -919h-201l-292 919h-16l-15 -557l-14 -510h-195z" />
    <glyph glyph-name="N" unicode="N" horiz-adv-x="1254" 
d="M442 1278l471 -1060h12l-8 552v508h195v-1278h-293l-478 1072h-12l8 -575v-497h-195v1278h300z" />
    <glyph glyph-name="O" unicode="O" horiz-adv-x="1214" 
d="M607 -26q-250 0 -379.5 136t-129.5 389v281q0 252 129.5 388t379.5 136t379.5 -136t129.5 -388v-281q0 -253 -129.5 -389t-379.5 -136zM607 141q152 0 228.5 91.5t76.5 258.5v297q0 168 -76.5 258.5t-228.5 90.5t-228.5 -90.5t-76.5 -258.5v-297q0 -167 76.5 -258.5
t228.5 -91.5z" />
    <glyph glyph-name="P" unicode="P" horiz-adv-x="1134" 
d="M274 410v166h353q120 0 174.5 59.5t54.5 165.5v87q0 109 -54 167t-173 58h-356v165h360q220 0 321.5 -101.5t101.5 -283.5v-97q0 -182 -102 -284t-322 -102h-358zM142 0v1278h197v-751l1 -90v-437h-198z" />
    <glyph glyph-name="Q" unicode="Q" horiz-adv-x="1216" 
d="M1218 -42l-544 16q-301 9 -438.5 141.5t-137.5 383.5v281q0 252 129.5 388t379.5 136q167 0 280 -61t171 -178t58 -285v-249q0 -95 -20.5 -165t-58 -117.5t-89.5 -76t-116 -39.5v-10l386 10v-175zM638 142l24 -1q51 11 96.5 36.5t80 67.5t54 103t19.5 143v297
q0 168 -76.5 258.5t-228.5 90.5t-228.5 -90.5t-76.5 -258.5v-297q0 -167 87.5 -254.5t248.5 -94.5z" />
    <glyph glyph-name="R" unicode="R" horiz-adv-x="1163" 
d="M879 0l-34 259q-9 71 -31.5 121.5t-69.5 78.5t-131 28l-333 1v158l354 1q123 0 176 59t53 164v28q0 103 -54 159t-179 56h-354v165h382q213 0 310.5 -91t97.5 -254v-32q0 -121 -55.5 -198t-185.5 -97v-26l-84 29q111 -8 171.5 -48t88.5 -110t43 -170l43 -281h-208zM142 0
v1278h197v-687l1 -75v-516h-198z" />
    <glyph glyph-name="S" unicode="S" horiz-adv-x="1049" 
d="M507 -24q-91 0 -168 14t-137.5 35t-102.5 42l-19 197q77 -44 182.5 -78t228.5 -34q140 0 206 46.5t66 140.5v15q0 61 -26.5 100.5t-89.5 68t-171 54.5q-142 35 -229.5 82.5t-127.5 119t-40 178.5v10q0 161 107 248t321 87q137 0 234.5 -26.5t160.5 -59.5l18 -183
q-73 42 -168 70.5t-214 28.5q-93 0 -149 -20.5t-81 -59t-25 -92.5v-4q0 -56 25 -96t88.5 -70.5t180.5 -60.5q139 -35 224.5 -78.5t125.5 -113t40 -182.5v-20q0 -177 -115 -268t-345 -91z" />
    <glyph glyph-name="T" unicode="T" horiz-adv-x="1076" 
d="M438 0v1243h201v-1243h-201zM62 1110v168h952v-168h-952z" />
    <glyph glyph-name="U" unicode="U" horiz-adv-x="1234" 
d="M617 -26q-249 0 -367 125.5t-118 366.5v812h201v-818q0 -154 66.5 -234.5t217.5 -80.5t217.5 80.5t66.5 234.5v818h201v-812q0 -241 -117.5 -366.5t-367.5 -125.5z" />
    <glyph glyph-name="V" unicode="V" horiz-adv-x="1157" 
d="M422 0l-380 1278h210l315 -1127h23l315 1127h210l-379 -1278h-314z" />
    <glyph glyph-name="W" unicode="W" horiz-adv-x="1653" 
d="M312 0l-254 1278h205l161 -887l42 -223h16l40 223l159 855h292l158 -855l40 -223h17l42 223l161 887h204l-253 -1278h-312l-128 697l-67 383h-16l-67 -383l-127 -697h-313z" />
    <glyph glyph-name="X" unicode="X" horiz-adv-x="1147" 
d="M45 0l385 685v-45l-375 638h218l295 -513h13l294 513h218l-375 -638v45l384 -685h-222l-299 548h-14l-300 -548h-222z" />
    <glyph glyph-name="Y" unicode="Y" horiz-adv-x="1112" 
d="M470 372l-440 906h212l218 -465l90 -211h13l90 211l217 465h212l-439 -906h-173zM458 0v558h197v-558h-197z" />
    <glyph glyph-name="Z" unicode="Z" horiz-adv-x="1044" 
d="M965 169v-169h-885v158l645 953h-639v167h871v-156l-645 -953h653z" />
    <glyph glyph-name="grave" unicode="`" horiz-adv-x="595" 
d="M312 1368l189 -272v-3h-172l-233 272v3h216z" />
    <glyph glyph-name="a" unicode="a" horiz-adv-x="1002" 
d="M699 0l8 232l-7 30v308l1 49q0 113 -57.5 166t-184.5 53q-103 0 -191 -29t-159 -67l18 164q40 23 94 45t122 36t149 14q111 0 188 -26.5t124 -76.5t68.5 -120t21.5 -156v-622h-195zM368 -22q-145 0 -222 71.5t-77 203.5v30q0 140 86.5 207.5t272.5 93.5l294 42l11 -142
l-282 -40q-101 -14 -144 -48.5t-43 -101.5v-14q0 -67 41.5 -103t126.5 -36q78 0 134 26t91 69.5t48 96.5l27 -131h-36q-16 -60 -53 -111t-103.5 -82t-171.5 -31z" />
    <glyph glyph-name="b" unicode="b" horiz-adv-x="1086" 
d="M633 -22q-87 0 -150 27.5t-102.5 78t-57.5 117.5h-65l57 185q4 -82 37 -136.5t90 -81.5t130 -27q112 0 171 65.5t59 195.5v183q0 126 -59.5 191t-172.5 65q-69 0 -122 -26t-87.5 -70.5t-48.5 -101.5l-43 134h56q17 62 53.5 112.5t100.5 80.5t162 30q175 0 266.5 -110
t91.5 -321v-155q0 -213 -93 -324.5t-273 -111.5zM124 0v1324h195v-312l-5 -281l1 -34v-406l-3 -62l8 -229h-196z" />
    <glyph glyph-name="c" unicode="c" horiz-adv-x="873" 
d="M515 -23q-218 0 -323.5 115.5t-105.5 326.5v141q0 212 106 327t323 115q60 0 110.5 -11t91.5 -28.5t70 -36.5l17 -168q-48 34 -111 57.5t-147 23.5q-134 0 -198.5 -72.5t-64.5 -210.5v-132q0 -135 64.5 -208t198.5 -73q85 0 150 23.5t117 57.5l-17 -170
q-46 -29 -117.5 -53t-163.5 -24z" />
    <glyph glyph-name="d" unicode="d" horiz-adv-x="1086" 
d="M445 -22q-175 0 -266.5 110t-91.5 321v155q0 213 92.5 324.5t273.5 111.5q87 0 149.5 -27.5t102 -77.5t56.5 -118h65l-55 -181q-3 80 -35 134.5t-88 82.5t-131 28q-113 0 -173 -65t-60 -193v-187q0 -125 59.5 -190t173.5 -65q69 0 121.5 26t87.5 71t48 101l46 -138h-57
q-16 -61 -53.5 -112t-101.5 -81t-163 -30zM766 0l8 229l-3 62v406l1 38l-5 277v312h195v-1324h-196z" />
    <glyph glyph-name="e" unicode="e" horiz-adv-x="1012" 
d="M553 -23q-234 0 -350.5 111.5t-116.5 321.5v160q0 207 108.5 320.5t316.5 113.5q141 0 235 -51.5t141 -145.5t47 -223v-37q0 -34 -3 -69t-8 -67h-180q2 52 2.5 98t0.5 84q0 81 -26 137t-78 85.5t-131 29.5q-117 0 -174 -66.5t-57 -189.5v-92l1 -23v-87q0 -55 16.5 -100
t53 -77.5t94.5 -50t141 -17.5q94 0 176.5 24t155.5 64l-18 -167q-66 -39 -153.5 -62.5t-193.5 -23.5zM190 411v147h693v-147h-693z" />
    <glyph glyph-name="f" unicode="f" horiz-adv-x="750" 
d="M457 1352q76 0 137.5 -13t111.5 -33l19 -152q-47 16 -95.5 26t-108.5 10q-71 0 -113.5 -18t-61 -50.5t-18.5 -77.5v-4q0 -32 9 -61t20 -52l-130 -4v23q-37 23 -63 65.5t-26 102.5v5q0 105 78 169t241 64zM171 0v881h195v-881h-195zM17 782v156l229 -1l80 1h395l-17 -156
h-687z" />
    <glyph glyph-name="g" unicode="g" horiz-adv-x="1035" 
d="M517 296q-206 0 -316 88t-110 251v16q0 103 43 178.5t137.5 118t247.5 47.5l508 17v-153l-272 12v-11q58 -15 96.5 -46.5t58.5 -78.5t20 -111v-11q0 -154 -104.5 -235.5t-308.5 -81.5zM509 -221h25q85 0 144 12t90.5 38t31.5 69v3q0 51 -36 76.5t-125 33.5l-282 27l49 2
q-48 -8 -84.5 -24.5t-57 -43t-20.5 -65.5v-2q0 -46 31.5 -74t91 -40t142.5 -12zM497 -377q-135 0 -232.5 23.5t-150 75t-52.5 136.5v4q0 57 25.5 96t70 62.5t99.5 31.5v10q-73 15 -108.5 49.5t-35.5 89.5v1q0 38 17 65.5t51.5 44t86.5 21.5v22l206 -50l-75 3
q-59 -1 -81.5 -15t-22.5 -40v-1q0 -30 33.5 -44.5t113.5 -23.5l238 -26q158 -17 231 -77t73 -182v-5q0 -94 -54.5 -154t-156 -88.5t-243.5 -28.5h-33zM514 440q77 0 128.5 22.5t77.5 67.5t26 110v15q0 64 -25.5 108t-76 67t-127.5 23h-5q-83 0 -135 -24.5t-75.5 -69
t-23.5 -105.5v-14q0 -65 26 -110t78.5 -67.5t131.5 -22.5z" />
    <glyph glyph-name="h" unicode="h" horiz-adv-x="1080" 
d="M772 0v604q0 71 -19.5 123t-64 81t-121.5 29q-71 0 -122.5 -26t-83.5 -70t-46 -100l-39 136h49q17 62 56 112.5t104 80.5t159 30q115 0 186 -43.5t104.5 -126.5t33.5 -204v-626h-196zM124 0v1324h195v-312l-5 -282l6 -14v-716h-196z" />
    <glyph glyph-name="i" unicode="i" horiz-adv-x="450" 
d="M127 0v978h196v-978h-196zM225 1122q-58 0 -86.5 29.5t-28.5 81.5v4q0 52 28.5 81.5t86.5 29.5t86.5 -29.5t28.5 -81.5v-4q0 -53 -28.5 -82t-86.5 -29z" />
    <glyph glyph-name="j" unicode="j" horiz-adv-x="475" 
d="M152 170v808h196v-808h-196zM250 1122q-58 0 -86.5 29.5t-28.5 81.5v4q0 52 28.5 81.5t86.5 29.5t86.5 -29.5t28.5 -81.5v-4q0 -53 -28.5 -82t-86.5 -29zM52 -358q-43 0 -81.5 7t-65.5 17l-16 159q26 -11 54.5 -17t59.5 -6q86 0 117.5 46t31.5 131v282h196v-292
q0 -101 -28.5 -174.5t-93.5 -113t-174 -39.5z" />
    <glyph glyph-name="k" unicode="k" horiz-adv-x="1012" 
d="M758 0l-359 441h-97v152h98l344 385h229l-428 -475v43l445 -546h-232zM124 0v1324h195v-1324h-195z" />
    <glyph glyph-name="l" unicode="l" horiz-adv-x="452" 
d="M128 0v1324h196v-1324h-196z" />
    <glyph glyph-name="m" unicode="m" horiz-adv-x="1647" 
d="M1339 0v609q0 69 -17.5 120.5t-58 79.5t-109.5 28q-66 0 -114 -26t-77.5 -70t-42.5 -100l-26 136h23q18 59 55 110t100 82t159 31q108 0 175 -42.5t98 -125t31 -201.5v-631h-196zM124 0v978h196l-8 -229l8 -12v-737h-196zM732 0v609q0 69 -17.5 120.5t-58 79.5t-109.5 28
q-66 0 -114 -26t-77.5 -70t-42.5 -100l-32 136h42q16 62 52.5 112.5t97.5 80.5t150 30q136 0 206 -70t88 -204q5 -19 7.5 -43t2.5 -47v-636h-195z" />
    <glyph glyph-name="n" unicode="n" horiz-adv-x="1080" 
d="M772 0v604q0 71 -19.5 123t-64 81t-121.5 29q-71 0 -123 -26t-84.5 -70t-46.5 -100l-32 136h42q17 62 56 112.5t104 80.5t161 30q115 0 186 -43.5t104.5 -126.5t33.5 -204v-626h-196zM124 0v978h196l-8 -229l8 -12v-737h-196z" />
    <glyph glyph-name="o" unicode="o" horiz-adv-x="1051" 
d="M526 -25q-216 0 -328 115t-112 331v139q0 215 112 329.5t328 114.5t327.5 -114.5t111.5 -329.5v-139q0 -216 -111.5 -331t-327.5 -115zM526 134q119 0 181 71t62 204v163q0 132 -62 202.5t-181 70.5t-181 -70.5t-62 -202.5v-163q0 -133 62 -204t181 -71z" />
    <glyph glyph-name="p" unicode="p" horiz-adv-x="1086" 
d="M633 -22q-87 0 -149.5 27.5t-101.5 78t-57 117.5h-65l55 185q3 -82 35 -136.5t88.5 -81.5t130.5 -27q113 0 173 65.5t60 192.5v187q0 125 -59.5 190t-173.5 65q-68 0 -121 -26t-87.5 -70.5t-48.5 -101.5l-46 134h57q17 62 54 112.5t101.5 80.5t162.5 30q175 0 266.5 -110
t91.5 -321v-155q0 -213 -92 -324.5t-274 -111.5zM124 -344v1322h196l-8 -229l3 -58v-410l-1 -38l5 -277v-310h-195z" />
    <glyph glyph-name="q" unicode="q" horiz-adv-x="1086" 
d="M445 -22q-175 0 -266.5 110t-91.5 321v155q0 213 93 324.5t273 111.5q88 0 150.5 -27.5t102.5 -77.5t57 -118h65l-57 -181q-3 82 -36.5 136.5t-90 81.5t-130.5 27q-112 0 -171 -65.5t-59 -195.5v-183q0 -126 59.5 -191t172.5 -65q69 0 122 26t88 71t48 101l43 -138h-56
q-16 -61 -53 -112t-101 -81t-162 -30zM767 -344v310l5 281l-1 38v406l3 58l-8 229h196v-1322h-195z" />
    <glyph glyph-name="r" unicode="r" horiz-adv-x="754" 
d="M312 591l-42 153h48q31 116 104 182.5t199 66.5q30 0 53.5 -4.5t42.5 -10.5l12 -191q-24 8 -54 12.5t-65 4.5q-107 0 -185 -55t-113 -158zM124 0v978h191l-9 -285l14 -14v-679h-196z" />
    <glyph glyph-name="s" unicode="s" horiz-adv-x="892" 
d="M440 -23q-118 0 -207 24.5t-149 53.5l-18 179q74 -37 163 -64.5t200 -27.5q107 0 158.5 31.5t51.5 93.5v8q0 40 -21 66.5t-74.5 47.5t-151.5 43q-123 28 -194 66t-101.5 93.5t-30.5 133.5v9q0 132 92 200t276 68q116 0 202 -25t142 -57l18 -163q-67 36 -152.5 60.5
t-189.5 24.5q-71 0 -114 -13.5t-62 -38t-19 -58.5v-7q0 -37 20 -64.5t71.5 -49t143.5 -41.5q124 -26 198 -61t107 -89.5t33 -140.5v-15q0 -143 -98 -215t-294 -72z" />
    <glyph glyph-name="t" unicode="t" horiz-adv-x="791" 
d="M488 -20q-117 0 -188 35.5t-103 107t-32 178.5v598h194v-575q0 -90 41 -132t138 -42q58 0 111 12t98 34l-17 -166q-48 -24 -111 -37t-131 -13zM12 810v156h726l-17 -156h-709zM167 949l-1 269l196 23l-8 -292h-187z" />
    <glyph glyph-name="u" unicode="u" horiz-adv-x="1080" 
d="M308 978v-604q0 -70 19.5 -122.5t64.5 -81.5t121 -29q72 0 123.5 26t84.5 70.5t46 99.5l32 -136h-42q-17 -61 -56 -112t-104 -81t-161 -30q-114 0 -185.5 43.5t-105 127t-33.5 203.5v626h196zM956 978v-978h-196l8 229l-8 12v737h196z" />
    <glyph glyph-name="v" unicode="v" horiz-adv-x="1001" 
d="M512 132l249 846h203l-304 -978h-319l-304 978h203l249 -846h23z" />
    <glyph glyph-name="w" unicode="w" horiz-adv-x="1511" 
d="M278 0l-230 978h202l173 -837h17l179 811h274l179 -811h16l175 837h200l-230 -978h-294l-147 677l-28 134h-16l-27 -134l-147 -677h-296z" />
    <glyph glyph-name="x" unicode="x" horiz-adv-x="993" 
d="M42 0l313 537v-55l-306 496h214l227 -384h15l225 384h214l-306 -496v55l313 -537h-214l-232 410h-15l-234 -410h-214z" />
    <glyph glyph-name="y" unicode="y" horiz-adv-x="1002" 
d="M593 173l-104 -45l275 850h201l-445 -1322h-198l155 459l88 -74h-221l-307 937h203l244 -805h109z" />
    <glyph glyph-name="z" unicode="z" horiz-adv-x="912" 
d="M836 162v-162h-760v147l520 670h-517v161h752v-146l-520 -670h525z" />
    <glyph glyph-name="quotesinglbase" unicode="&#x201a;" horiz-adv-x="384" 
d="M295 284q3 -20 6.5 -50.5t3.5 -65.5q0 -122 -35 -226t-118 -201l-137 40q50 83 74.5 175t24.5 204q0 33 -1.5 63t-5.5 61h188z" />
    <glyph glyph-name="quotedblbase" unicode="&#x201e;" horiz-adv-x="738" 
d="M649 284q3 -20 6.5 -50.5t3.5 -65.5q0 -122 -35 -226t-118 -201l-137 40q50 83 74.5 175t24.5 204q0 33 -1.5 63t-5.5 61h188zM295 284q3 -20 6.5 -50.5t3.5 -65.5q0 -122 -35 -226t-118 -201l-137 40q50 83 74.5 175t24.5 204q0 33 -1.5 63t-5.5 61h188z" />
    <glyph glyph-name="circumflex" unicode="&#x2c6;" horiz-adv-x="784" 
d="M287 1368h210l187 -272v-3h-154l-134 168h-8l-134 -168h-154v3z" />
    <glyph glyph-name="guilsinglleft" unicode="&#x2039;" horiz-adv-x="570" 
d="M246 490l283 -402h-192l-272 380v44l272 374h192z" />
    <glyph glyph-name="OE" unicode="&#x152;" horiz-adv-x="1734" 
d="M607 -26q-250 0 -379.5 136t-129.5 389v281q0 252 129.5 388t379.5 136t379.5 -136t129.5 -388v-281q0 -253 -129.5 -389t-379.5 -136zM607 141q152 0 228.5 91.5t76.5 258.5v297q0 168 -76.5 258.5t-228.5 90.5t-228.5 -90.5t-76.5 -258.5v-297q0 -167 76.5 -258.5
t228.5 -91.5zM770 0v168h871v-168h-871zM935 568v166h684v-166h-684zM769 1111v167h865v-167h-865z" />
    <glyph glyph-name="quotedblleft" unicode="&#x201c;" horiz-adv-x="760" 
d="M91 829q-3 20 -6 48.5t-3 62.5q0 116 32 214t105 185l139 -38q-44 -76 -66 -161.5t-22 -189.5q0 -31 2 -60t5 -61h-186zM444 829q-3 20 -6 48.5t-3 62.5q0 116 32 214t105 185l139 -38q-44 -76 -66 -161.5t-22 -189.5q0 -31 2 -60t5 -61h-186z" />
    <glyph glyph-name="quotedblright" unicode="&#x201d;" horiz-adv-x="760" 
d="M669 1324q3 -19 6 -48t3 -63q0 -115 -32 -213.5t-105 -185.5l-139 38q44 76 66 162t22 189q0 32 -2 60.5t-5 60.5h186zM316 1324q3 -19 6 -48t3 -63q0 -115 -32 -213.5t-105 -185.5l-139 38q44 76 66 162t22 189q0 32 -2 60.5t-5 60.5h186z" />
    <glyph glyph-name="bullet" unicode="&#x2022;" horiz-adv-x="589" 
d="M295 420q-100 0 -147.5 53.5t-47.5 150.5v17q0 96 47.5 149t147.5 53q98 0 146 -53t48 -149v-17q0 -97 -48 -150.5t-146 -53.5z" />
    <glyph glyph-name="tilde" unicode="&#x2dc;" horiz-adv-x="775" 
d="M520 1117q-36 0 -70 10.5t-65.5 25t-59.5 25t-52 10.5q-27 0 -38.5 -17t-11.5 -51v-14h-123v34q0 87 35.5 137t120.5 50q37 0 71 -11t65 -25t58.5 -25t51.5 -11q28 0 39 17.5t11 51.5v14h123v-35q0 -88 -35.5 -137t-119.5 -49z" />
    <glyph glyph-name="guilsinglright" unicode="&#x203a;" horiz-adv-x="570" 
d="M324 490l-283 396h192l272 -374v-44l-272 -380h-192z" />
    <glyph glyph-name="oe" unicode="&#x153;" horiz-adv-x="1696" 
d="M498 -25q-196 0 -304 115t-108 331v139q0 215 108 329.5t304 114.5q147 0 235.5 -58t129.5 -163h6q39 105 126 163t220 58q134 0 223.5 -51.5t134.5 -145.5t45 -223v-37q0 -34 -3 -69t-8 -67h-180q2 52 2.5 98t0.5 84q0 81 -26 137t-78 85.5t-131 29.5q-116 0 -173 -66.5
t-57 -189.5v-95v-23v-74q0 -118 73.5 -186.5t233.5 -68.5q92 0 174.5 24t155.5 64l-18 -167q-64 -39 -149 -62.5t-188 -23.5q-144 0 -240 56t-138 167h-6q-38 -109 -128.5 -167t-236.5 -58zM874 411v148h693v-148h-693zM524 134q120 0 182.5 71t62.5 204v163
q0 132 -62.5 202.5t-182.5 70.5q-118 0 -179.5 -70.5t-61.5 -202.5v-163q0 -133 61.5 -204t179.5 -71z" />
    <glyph glyph-name="exclamdown" unicode="&#xa1;" horiz-adv-x="474" 
d="M319 576l23 -876h-210l23 876h164zM237 999q59 0 88 -32t29 -91v-10q0 -58 -29 -90t-88 -32q-60 0 -88.5 32t-28.5 90v10q0 59 28.5 91t88.5 32z" />
    <glyph glyph-name="cent" unicode="&#xa2;" horiz-adv-x="873" 
d="M591 926h-168v262h168v-262zM591 -214h-168v292h168v-292zM515 -23q-218 0 -323.5 115.5t-105.5 326.5v141q0 212 106 327t323 115q60 0 110.5 -11t91.5 -28.5t70 -36.5l17 -168q-48 34 -111 57.5t-147 23.5q-134 0 -198.5 -72.5t-64.5 -210.5v-132q0 -135 64.5 -208
t198.5 -73q85 0 150 23.5t117 57.5l-17 -170q-46 -29 -117.5 -53t-163.5 -24z" />
    <glyph glyph-name="sterling" unicode="&#xa3;" horiz-adv-x="1077" 
d="M78 580l11 152h828l-11 -152h-828zM315 170h699v-170h-930v167l30 8q57 15 91.5 51.5t49.5 93.5t15 134q0 58 -10.5 117.5t-24.5 120.5t-24.5 122t-10.5 122q0 183 105 274.5t327 91.5q83 0 163 -15.5t143 -41.5l16 -169q-68 28 -137 41.5t-140 13.5q-95 0 -154.5 -24.5
t-87 -73t-27.5 -122.5q0 -53 10 -108.5t23.5 -112t23.5 -112t10 -108.5q0 -124 -41 -189.5t-119 -100.5v-10z" />
    <glyph glyph-name="currency" unicode="&#xa4;" horiz-adv-x="1035" 
d="M517 237q-179 0 -273.5 93t-94.5 266v43q0 173 95 265.5t274 92.5t273.5 -92.5t94.5 -265.5v-43q0 -173 -95 -266t-274 -93zM518 385q94 0 143.5 53t49.5 155l-1 49q0 102 -49 154.5t-143 52.5t-144 -52.5t-50 -154.5v-49q0 -102 50 -155t144 -53zM779 424l188 -212
l-111 -94l-186 208zM365 326l-185 -208l-111 94l191 214zM249 815l-180 203l110 95l183 -205zM670 903l186 210l110 -95l-188 -214z" />
    <glyph glyph-name="yen" unicode="&#xa5;" horiz-adv-x="1133" 
d="M646 536l35 146h344l-14 -146h-365zM125 385h900l-14 -145h-900zM448 682l36 -146h-373l14 146h323zM479 372l-440 906h212l218 -465l90 -211h13l90 211l217 465h212l-439 -906h-173zM467 0v558h197v-558h-197z" />
    <glyph glyph-name="brokenbar" unicode="&#xa6;" horiz-adv-x="494" 
d="M330 587h-166v834h166v-834zM330 -432h-166v840h166v-840z" />
    <glyph glyph-name="section" unicode="&#xa7;" horiz-adv-x="953" 
d="M552 422q58 18 87 58t29 88v7q0 52 -21.5 83t-75.5 52t-153 42q-122 26 -192.5 64t-100.5 91.5t-30 123.5v11q0 128 91.5 193.5t273.5 65.5q115 0 200.5 -25t140.5 -57l18 -163q-67 36 -151 60.5t-188 24.5q-106 0 -149 -27t-43 -76v-10q0 -33 20 -56.5t70.5 -43
t141.5 -41.5q123 -29 196.5 -62t106 -83t32.5 -131v-6q0 -82 -47 -137.5t-130 -68.5l1 -33zM394 771q-53 -18 -82.5 -53.5t-29.5 -87.5v-9q0 -49 20.5 -80.5t72 -54.5t145.5 -47q123 -30 196.5 -66t106 -87.5t32.5 -130.5v-16q0 -133 -97.5 -202t-291.5 -69
q-118 0 -206 24.5t-147 53.5l-18 179q73 -37 161.5 -64.5t198.5 -27.5q105 0 156 28.5t51 82.5v10q0 37 -21 61t-74 44.5t-149 44.5q-118 31 -189 67t-102.5 85.5t-31.5 118.5v7q0 83 45.5 133.5t131.5 70.5l-1 31z" />
    <glyph glyph-name="dieresis" unicode="&#xa8;" horiz-adv-x="714" 
d="M199 1122q-49 0 -74 27.5t-25 77.5v7q0 50 25 77t74 27q51 0 75.5 -27t24.5 -77v-7q0 -50 -24.5 -77.5t-75.5 -27.5zM515 1122q-50 0 -74.5 27.5t-24.5 77.5v7q0 50 24.5 77t74.5 27t74.5 -27t24.5 -77v-7q0 -50 -24.5 -77.5t-74.5 -27.5z" />
    <glyph glyph-name="copyright" unicode="&#xa9;" horiz-adv-x="1398" 
d="M699 -26q-191 0 -325.5 69.5t-205 201.5t-70.5 319v156q0 186 70.5 316.5t205 199t325.5 68.5t325.5 -68.5t205 -199t70.5 -316.5v-156q0 -187 -70.5 -319t-205 -201.5t-325.5 -69.5zM739 311q-141 0 -209 75t-68 214v84q0 138 68.5 212.5t208.5 74.5q62 0 109 -16
t75 -36l11 -115q-33 23 -74.5 39t-98.5 16q-85 0 -125 -44.5t-40 -127.5v-87q0 -84 42 -129t127 -45q57 0 99 16t75 39l-10 -116q-30 -21 -77.5 -37.5t-112.5 -16.5zM699 85q217 0 343 122t126 347v176q0 223 -126 343t-343 120t-343 -120t-126 -343v-176q0 -225 126 -347
t343 -122z" />
    <glyph glyph-name="ordfeminine" unicode="&#xaa;" horiz-adv-x="665" 
d="M440 642l6 148l-2 11v200v55q0 58 -32 89t-109 31q-63 0 -117.5 -19.5t-99.5 -44.5l12 120q41 23 98 41.5t130 18.5q72 0 120.5 -18t78 -50t42 -76t12.5 -95v-411h-139zM250 629q-93 0 -142 48.5t-49 138.5v15q0 88 52 133t164 62l186 28l9 -100l-164 -25q-57 -9 -82 -29
t-25 -60v-11q0 -39 24 -61t75 -22q56 0 96 31t53 77l16 -95h-24q-18 -56 -59 -93t-130 -37z" />
    <glyph glyph-name="registered" unicode="&#xae;" horiz-adv-x="833" 
d="M417 535q-170 0 -262.5 90t-92.5 251v80q0 161 92.5 251t262.5 90t262 -90t92 -251v-80q0 -161 -92 -251t-262 -90zM417 610q132 0 199.5 67t67.5 196v87q0 128 -67.5 195t-199.5 67q-133 0 -201 -67t-68 -195v-87q0 -129 68 -196t201 -67zM497 732l-10 65
q-6 38 -21.5 52.5t-48.5 14.5h-81v64h95q32 0 46 14.5t14 42.5v9q0 26 -13.5 41t-45.5 15h-97v65h108q67 0 98 -27.5t31 -82.5v-7q0 -38 -20 -60.5t-63 -27.5v-10l-15 9q48 -4 66.5 -28t26.5 -73l13 -76h-83zM282 732v383h80v-209v-27v-147h-80z" />
    <glyph glyph-name="degree" unicode="&#xb0;" horiz-adv-x="658" 
d="M329 776q-122 0 -188 68.5t-66 189.5v13q0 120 66 188.5t188 68.5t188 -68.5t66 -188.5v-13q0 -121 -66 -189.5t-188 -68.5zM329 904q54 0 81 34t27 95v14q0 61 -27 95t-81 34q-53 0 -80.5 -34t-27.5 -95v-14q0 -61 27.5 -95t80.5 -34z" />
    <glyph glyph-name="plusminus" unicode="&#xb1;" horiz-adv-x="1031" 
d="M113 130v156h805v-156h-805zM599 406h-167v692h167v-692zM113 674v156h805v-156h-805z" />
    <glyph glyph-name="acute" unicode="&#xb4;" horiz-adv-x="595" 
d="M283 1368h216v-3l-233 -272h-172v3z" />
    <glyph glyph-name="paragraph" unicode="&#xb6;" horiz-adv-x="748" 
d="M369 655q-151 0 -222 76t-71 212v48q0 136 71 211.5t222 75.5h91l1 -623h-92zM606 0h-195v1278h195v-1278z" />
    <glyph glyph-name="cedilla" unicode="&#xb8;" horiz-adv-x="588" 
d="M367 21l-22 -156l-82 55q17 1 34 1.5t34 -0.5q100 -4 148.5 -41t48.5 -107v-6q0 -79 -57 -116.5t-164 -37.5q-41 0 -79.5 6t-67.5 13l-22 120q31 -10 67.5 -16t76.5 -6q49 0 75 13t26 38v2q0 30 -34 42.5t-119 17.5q-10 1 -14 1h-4l22 177h133z" />
    <glyph glyph-name="ordmasculine" unicode="&#xba;" horiz-adv-x="694" 
d="M347 629q-139 0 -212 75.5t-73 218.5v77q0 143 73 218t212 75q140 0 212.5 -75t72.5 -218v-77q0 -143 -73 -218.5t-212 -75.5zM347 747q68 0 103.5 43t35.5 126v92q0 82 -35 124.5t-104 42.5t-104 -42.5t-35 -124.5v-92q0 -82 35 -125.5t104 -43.5z" />
    <glyph glyph-name="questiondown" unicode="&#xbf;" horiz-adv-x="902" 
d="M633 587v-172l-85 -19q-96 -21 -155 -56t-86 -87.5t-27 -128.5v-65q0 -103 53 -158t180 -55q96 0 184 28t159 65l-22 -176q-35 -20 -87.5 -40t-119 -33t-145.5 -13q-205 0 -303 94.5t-98 270.5v79q0 132 49 218t146 139t241 84zM548 999q60 0 88.5 -32t28.5 -91v-10
q0 -58 -28.5 -90t-88.5 -32q-59 0 -88 32t-29 90v10q0 59 29 91t88 32z" />
    <glyph glyph-name="Agrave" unicode="&#xc0;" horiz-adv-x="1179" 
d="M42 0l392 1278h311l392 -1278h-203l-332 1144h-25l-332 -1144h-203zM298 357v166h581v-166h-581zM442 1651l236 -253v-2h-186l-275 252v3h225z" />
    <glyph glyph-name="Aacute" unicode="&#xc1;" horiz-adv-x="1179" 
d="M42 0l392 1278h311l392 -1278h-203l-332 1144h-25l-332 -1144h-203zM298 357v166h581v-166h-581zM736 1651h225v-3l-275 -252h-186v2z" />
    <glyph glyph-name="Acircumflex" unicode="&#xc2;" horiz-adv-x="1179" 
d="M42 0l392 1278h311l392 -1278h-203l-332 1144h-25l-332 -1144h-203zM298 357v166h581v-166h-581zM487 1651h206l217 -252v-3h-165l-151 148h-8l-151 -148h-165v3z" />
    <glyph glyph-name="Atilde" unicode="&#xc3;" horiz-adv-x="1179" 
d="M42 0l392 1278h311l392 -1278h-203l-332 1144h-25l-332 -1144h-203zM298 357v166h581v-166h-581zM730 1415q-38 0 -74 9.5t-69 22t-62.5 22t-55.5 9.5q-28 0 -40 -16.5t-12 -48.5v-9h-123v30q0 85 35.5 134t120.5 49q39 0 75.5 -9.5t69 -22.5t62 -22.5t54.5 -9.5
q29 0 40 16.5t11 49.5v9h123v-31q0 -85 -35.5 -133.5t-119.5 -48.5z" />
    <glyph glyph-name="Aring" unicode="&#xc5;" horiz-adv-x="1179" 
d="M42 0l392 1278h311l392 -1278h-203l-332 1144h-25l-332 -1144h-203zM298 357v166h581v-166h-581zM391 1524v4q0 77 49.5 123t149.5 46q99 0 148.5 -46t49.5 -123v-4q0 -75 -49.5 -121.5t-148.5 -46.5q-100 0 -149.5 46.5t-49.5 121.5zM506 1525q0 -35 21.5 -54t62.5 -19
t62 19t21 54v3q0 35 -21 54t-62 19t-62.5 -19t-21.5 -54v-3z" />
    <glyph glyph-name="Adieresis" unicode="&#xc4;" horiz-adv-x="1179" 
d="M42 0l392 1278h311l392 -1278h-203l-332 1144h-25l-332 -1144h-203zM298 357v166h581v-166h-581zM432 1419q-49 0 -74 27.5t-25 77.5v7q0 50 25 77t74 27q51 0 75.5 -27t24.5 -77v-7q0 -50 -24.5 -77.5t-75.5 -27.5zM748 1419q-50 0 -74.5 27.5t-24.5 77.5v7
q0 50 24.5 77t74.5 27t74.5 -27t24.5 -77v-7q0 -50 -24.5 -77.5t-74.5 -27.5z" />
    <glyph glyph-name="AE" unicode="&#xc6;" horiz-adv-x="1769" 
d="M40 0l629 1278h220v-134h-83l-554 -1144h-212zM346 357v166h581v-166h-581zM915 0v168h761v-168h-761zM856 0v1278h198v-1278h-198zM970 568v166h684v-166h-684zM914 1111v167h755v-167h-755z" />
    <glyph glyph-name="Ccedilla" unicode="&#xc7;" horiz-adv-x="1021" 
d="M586 -25q-245 0 -366.5 136t-121.5 387v284q0 250 121.5 385.5t366.5 135.5q75 0 137 -13t111 -34t84 -44l16 -184q-59 40 -137 70t-184 30q-154 0 -232.5 -91t-78.5 -258v-274q0 -166 79.5 -258t237.5 -92q104 0 184.5 29.5t140.5 72.5l-16 -189q-35 -23 -85.5 -44.5
t-115 -35t-141.5 -13.5zM635 18l-22 -156l-82 55q17 1 34 1.5t34 -0.5q100 -4 148.5 -41t48.5 -107v-6q0 -79 -57 -116.5t-164 -37.5q-41 0 -79.5 6t-67.5 13l-22 120q31 -10 67.5 -16t76.5 -6q49 0 75 13t26 38v2q0 30 -34 42.5t-119 17.5q-10 1 -14 1h-4l22 177h133z" />
    <glyph glyph-name="Egrave" unicode="&#xc8;" horiz-adv-x="1055" 
d="M142 0v1278h198v-1278h-198zM201 0v168h761v-168h-761zM256 568v166h684v-166h-684zM200 1111v167h755v-167h-755zM408 1651l236 -253v-2h-186l-275 252v3h225z" />
    <glyph glyph-name="Eacute" unicode="&#xc9;" horiz-adv-x="1055" 
d="M142 0v1278h198v-1278h-198zM201 0v168h761v-168h-761zM256 568v166h684v-166h-684zM200 1111v167h755v-167h-755zM702 1651h225v-3l-275 -252h-186v2z" />
    <glyph glyph-name="Ecircumflex" unicode="&#xca;" horiz-adv-x="1055" 
d="M142 0v1278h198v-1278h-198zM201 0v168h761v-168h-761zM256 568v166h684v-166h-684zM200 1111v167h755v-167h-755zM453 1651h206l217 -252v-3h-165l-151 148h-8l-151 -148h-165v3z" />
    <glyph glyph-name="Edieresis" unicode="&#xcb;" horiz-adv-x="1055" 
d="M142 0v1278h198v-1278h-198zM201 0v168h761v-168h-761zM256 568v166h684v-166h-684zM200 1111v167h755v-167h-755zM398 1419q-49 0 -74 27.5t-25 77.5v7q0 50 25 77t74 27q51 0 75.5 -27t24.5 -77v-7q0 -50 -24.5 -77.5t-75.5 -27.5zM714 1419q-50 0 -74.5 27.5
t-24.5 77.5v7q0 50 24.5 77t74.5 27t74.5 -27t24.5 -77v-7q0 -50 -24.5 -77.5t-74.5 -27.5z" />
    <glyph glyph-name="Igrave" unicode="&#xcc;" horiz-adv-x="487" 
d="M344 0h-201v1278h201v-1278zM95 1651l236 -253v-2h-186l-275 252v3h225z" />
    <glyph glyph-name="Iacute" unicode="&#xcd;" horiz-adv-x="487" 
d="M344 0h-201v1278h201v-1278zM389 1651h225v-3l-275 -252h-186v2z" />
    <glyph glyph-name="Icircumflex" unicode="&#xce;" horiz-adv-x="487" 
d="M344 0h-201v1278h201v-1278zM140 1651h206l217 -252v-3h-165l-151 148h-8l-151 -148h-165v3z" />
    <glyph glyph-name="Idieresis" unicode="&#xcf;" horiz-adv-x="487" 
d="M344 0h-201v1278h201v-1278zM85 1419q-49 0 -74 27.5t-25 77.5v7q0 50 25 77t74 27q51 0 75.5 -27t24.5 -77v-7q0 -50 -24.5 -77.5t-75.5 -27.5zM401 1419q-50 0 -74.5 27.5t-24.5 77.5v7q0 50 24.5 77t74.5 27t74.5 -27t24.5 -77v-7q0 -50 -24.5 -77.5t-74.5 -27.5z" />
    <glyph glyph-name="Eth" unicode="&#xd0;" horiz-adv-x="1195" 
d="M5 581v150h629v-150h-629zM279 0v169h303q158 0 237.5 86t79.5 246v278q0 161 -79.5 246.5t-237.5 85.5h-304v167h311q254 0 383 -128.5t129 -369.5v-280q0 -241 -129 -370.5t-383 -129.5h-310zM142 0v1278h198v-1278h-198z" />
    <glyph glyph-name="Ntilde" unicode="&#xd1;" horiz-adv-x="1254" 
d="M442 1278l471 -1060h12l-8 552v508h195v-1278h-293l-478 1072h-12l8 -575v-497h-195v1278h300zM770 1415q-38 0 -74 9.5t-69 22t-62.5 22t-55.5 9.5q-28 0 -40 -16.5t-12 -48.5v-9h-123v30q0 85 35.5 134t120.5 49q39 0 75.5 -9.5t69 -22.5t62 -22.5t54.5 -9.5
q29 0 40 16.5t11 49.5v9h123v-31q0 -85 -35.5 -133.5t-119.5 -48.5z" />
    <glyph glyph-name="Ograve" unicode="&#xd2;" horiz-adv-x="1214" 
d="M607 -26q-250 0 -379.5 136t-129.5 389v281q0 252 129.5 388t379.5 136t379.5 -136t129.5 -388v-281q0 -253 -129.5 -389t-379.5 -136zM607 141q152 0 228.5 91.5t76.5 258.5v297q0 168 -76.5 258.5t-228.5 90.5t-228.5 -90.5t-76.5 -258.5v-297q0 -167 76.5 -258.5
t228.5 -91.5zM459 1651l236 -253v-2h-186l-275 252v3h225z" />
    <glyph glyph-name="Oacute" unicode="&#xd3;" horiz-adv-x="1214" 
d="M607 -26q-250 0 -379.5 136t-129.5 389v281q0 252 129.5 388t379.5 136t379.5 -136t129.5 -388v-281q0 -253 -129.5 -389t-379.5 -136zM607 141q152 0 228.5 91.5t76.5 258.5v297q0 168 -76.5 258.5t-228.5 90.5t-228.5 -90.5t-76.5 -258.5v-297q0 -167 76.5 -258.5
t228.5 -91.5zM753 1651h225v-3l-275 -252h-186v2z" />
    <glyph glyph-name="Ocircumflex" unicode="&#xd4;" horiz-adv-x="1214" 
d="M607 -26q-250 0 -379.5 136t-129.5 389v281q0 252 129.5 388t379.5 136t379.5 -136t129.5 -388v-281q0 -253 -129.5 -389t-379.5 -136zM607 141q152 0 228.5 91.5t76.5 258.5v297q0 168 -76.5 258.5t-228.5 90.5t-228.5 -90.5t-76.5 -258.5v-297q0 -167 76.5 -258.5
t228.5 -91.5zM504 1651h206l217 -252v-3h-165l-151 148h-8l-151 -148h-165v3z" />
    <glyph glyph-name="Otilde" unicode="&#xd5;" horiz-adv-x="1214" 
d="M607 -26q-250 0 -379.5 136t-129.5 389v281q0 252 129.5 388t379.5 136t379.5 -136t129.5 -388v-281q0 -253 -129.5 -389t-379.5 -136zM607 141q152 0 228.5 91.5t76.5 258.5v297q0 168 -76.5 258.5t-228.5 90.5t-228.5 -90.5t-76.5 -258.5v-297q0 -167 76.5 -258.5
t228.5 -91.5zM747 1415q-38 0 -74 9.5t-69 22t-62.5 22t-55.5 9.5q-28 0 -40 -16.5t-12 -48.5v-9h-123v30q0 85 35.5 134t120.5 49q39 0 75.5 -9.5t69 -22.5t62 -22.5t54.5 -9.5q29 0 40 16.5t11 49.5v9h123v-31q0 -85 -35.5 -133.5t-119.5 -48.5z" />
    <glyph glyph-name="Odieresis" unicode="&#xd6;" horiz-adv-x="1214" 
d="M607 -26q-250 0 -379.5 136t-129.5 389v281q0 252 129.5 388t379.5 136t379.5 -136t129.5 -388v-281q0 -253 -129.5 -389t-379.5 -136zM607 141q152 0 228.5 91.5t76.5 258.5v297q0 168 -76.5 258.5t-228.5 90.5t-228.5 -90.5t-76.5 -258.5v-297q0 -167 76.5 -258.5
t228.5 -91.5zM449 1419q-49 0 -74 27.5t-25 77.5v7q0 50 25 77t74 27q51 0 75.5 -27t24.5 -77v-7q0 -50 -24.5 -77.5t-75.5 -27.5zM765 1419q-50 0 -74.5 27.5t-24.5 77.5v7q0 50 24.5 77t74.5 27t74.5 -27t24.5 -77v-7q0 -50 -24.5 -77.5t-74.5 -27.5z" />
    <glyph glyph-name="Oslash" unicode="&#xd8;" horiz-adv-x="1214" 
d="M607 -26q-162 0 -275.5 63t-173.5 181t-60 281v281q0 252 129.5 388t379.5 136q162 0 275.5 -63t173.5 -180.5t60 -280.5v-281q0 -253 -129.5 -389t-379.5 -136zM106 -69l148 233l45 59l524 946l18 41l86 137h181l-147 -226l-41 -61l-519 -937l-15 -28l-98 -164h-182z
M607 141q152 0 228.5 91.5t76.5 258.5v297q0 168 -73 258.5t-232 90.5q-152 0 -228.5 -90.5t-76.5 -258.5v-297q0 -167 72.5 -258.5t232.5 -91.5z" />
    <glyph glyph-name="Ugrave" unicode="&#xd9;" horiz-adv-x="1234" 
d="M617 -26q-249 0 -367 125.5t-118 366.5v812h201v-818q0 -154 66.5 -234.5t217.5 -80.5t217.5 80.5t66.5 234.5v818h201v-812q0 -241 -117.5 -366.5t-367.5 -125.5zM469 1651l236 -253v-2h-186l-275 252v3h225z" />
    <glyph glyph-name="Uacute" unicode="&#xda;" horiz-adv-x="1234" 
d="M617 -26q-249 0 -367 125.5t-118 366.5v812h201v-818q0 -154 66.5 -234.5t217.5 -80.5t217.5 80.5t66.5 234.5v818h201v-812q0 -241 -117.5 -366.5t-367.5 -125.5zM763 1651h225v-3l-275 -252h-186v2z" />
    <glyph glyph-name="Ucircumflex" unicode="&#xdb;" horiz-adv-x="1234" 
d="M617 -26q-249 0 -367 125.5t-118 366.5v812h201v-818q0 -154 66.5 -234.5t217.5 -80.5t217.5 80.5t66.5 234.5v818h201v-812q0 -241 -117.5 -366.5t-367.5 -125.5zM514 1651h206l217 -252v-3h-165l-151 148h-8l-151 -148h-165v3z" />
    <glyph glyph-name="Udieresis" unicode="&#xdc;" horiz-adv-x="1234" 
d="M617 -26q-249 0 -367 125.5t-118 366.5v812h201v-818q0 -154 66.5 -234.5t217.5 -80.5t217.5 80.5t66.5 234.5v818h201v-812q0 -241 -117.5 -366.5t-367.5 -125.5zM459 1419q-49 0 -74 27.5t-25 77.5v7q0 50 25 77t74 27q51 0 75.5 -27t24.5 -77v-7q0 -50 -24.5 -77.5
t-75.5 -27.5zM775 1419q-50 0 -74.5 27.5t-24.5 77.5v7q0 50 24.5 77t74.5 27t74.5 -27t24.5 -77v-7q0 -50 -24.5 -77.5t-74.5 -27.5z" />
    <glyph glyph-name="Yacute" unicode="&#xdd;" horiz-adv-x="1112" 
d="M470 372l-440 906h212l218 -465l90 -211h13l90 211l217 465h212l-439 -906h-173zM458 0v558h197v-558h-197zM702 1651h225v-3l-275 -252h-186v2z" />
    <glyph glyph-name="Thorn" unicode="&#xde;" horiz-adv-x="1134" 
d="M274 209v166h353q120 0 174.5 59.5t54.5 165.5v87q0 109 -54 167t-173 58h-356v165h360q220 0 321.5 -101.5t101.5 -283.5v-97q0 -182 -102 -284t-322 -102h-358zM142 0v1278h197v-241v-76v-648v-52v-261h-197z" />
    <glyph glyph-name="germandbls" unicode="&#xdf;" horiz-adv-x="1152" 
d="M124 979q0 122 40 205t128 125.5t232 42.5q116 0 201 -31.5t131.5 -92t46.5 -149.5q0 -58 -22.5 -101.5t-56 -78.5t-67 -65t-56 -60.5t-22.5 -66.5v-4q0 -49 35.5 -77t122.5 -61q83 -31 137 -65t80.5 -85t26.5 -132v-15q0 -95 -42.5 -159t-121 -96t-187.5 -32
q-75 0 -133.5 13t-103.5 30l-17 176q56 -24 114 -39.5t121 -15.5q90 0 134 32.5t44 93.5v10q0 39 -15 65.5t-52 48.5t-102 47q-82 33 -134 65t-76 75t-24 108v6q0 56 22.5 99.5t55.5 79t66 67.5t55.5 63.5t22.5 68.5q0 36 -20 63.5t-61 43t-105 15.5q-77 0 -122 -26t-64 -76
t-19 -122v-972h-193v979z" />
    <glyph glyph-name="agrave" unicode="&#xe0;" horiz-adv-x="1002" 
d="M699 0l8 232l-7 30v308l1 49q0 113 -57.5 166t-184.5 53q-103 0 -191 -29t-159 -67l18 164q40 23 94 45t122 36t149 14q111 0 188 -26.5t124 -76.5t68.5 -120t21.5 -156v-622h-195zM368 -22q-145 0 -222 71.5t-77 203.5v30q0 140 86.5 207.5t272.5 93.5l294 42l11 -142
l-282 -40q-101 -14 -144 -48.5t-43 -101.5v-14q0 -67 41.5 -103t126.5 -36q78 0 134 26t91 69.5t48 96.5l27 -131h-36q-16 -60 -53 -111t-103.5 -82t-171.5 -31zM390 1368l189 -272v-3h-172l-233 272v3h216z" />
    <glyph glyph-name="aacute" unicode="&#xe1;" horiz-adv-x="1002" 
d="M699 0l8 232l-7 30v308l1 49q0 113 -57.5 166t-184.5 53q-103 0 -191 -29t-159 -67l18 164q40 23 94 45t122 36t149 14q111 0 188 -26.5t124 -76.5t68.5 -120t21.5 -156v-622h-195zM368 -22q-145 0 -222 71.5t-77 203.5v30q0 140 86.5 207.5t272.5 93.5l294 42l11 -142
l-282 -40q-101 -14 -144 -48.5t-43 -101.5v-14q0 -67 41.5 -103t126.5 -36q78 0 134 26t91 69.5t48 96.5l27 -131h-36q-16 -60 -53 -111t-103.5 -82t-171.5 -31zM598 1368h216v-3l-233 -272h-172v3z" />
    <glyph glyph-name="acircumflex" unicode="&#xe2;" horiz-adv-x="1002" 
d="M699 0l8 232l-7 30v308l1 49q0 113 -57.5 166t-184.5 53q-103 0 -191 -29t-159 -67l18 164q40 23 94 45t122 36t149 14q111 0 188 -26.5t124 -76.5t68.5 -120t21.5 -156v-622h-195zM368 -22q-145 0 -222 71.5t-77 203.5v30q0 140 86.5 207.5t272.5 93.5l294 42l11 -142
l-282 -40q-101 -14 -144 -48.5t-43 -101.5v-14q0 -67 41.5 -103t126.5 -36q78 0 134 26t91 69.5t48 96.5l27 -131h-36q-16 -60 -53 -111t-103.5 -82t-171.5 -31zM389 1368h210l187 -272v-3h-154l-134 168h-8l-134 -168h-154v3z" />
    <glyph glyph-name="atilde" unicode="&#xe3;" horiz-adv-x="1002" 
d="M699 0l8 232l-7 30v308l1 49q0 113 -57.5 166t-184.5 53q-103 0 -191 -29t-159 -67l18 164q40 23 94 45t122 36t149 14q111 0 188 -26.5t124 -76.5t68.5 -120t21.5 -156v-622h-195zM368 -22q-145 0 -222 71.5t-77 203.5v30q0 140 86.5 207.5t272.5 93.5l294 42l11 -142
l-282 -40q-101 -14 -144 -48.5t-43 -101.5v-14q0 -67 41.5 -103t126.5 -36q78 0 134 26t91 69.5t48 96.5l27 -131h-36q-16 -60 -53 -111t-103.5 -82t-171.5 -31zM625 1117q-36 0 -70 10.5t-65.5 25t-59.5 25t-52 10.5q-27 0 -38.5 -17t-11.5 -51v-14h-123v34q0 87 35.5 137
t120.5 50q37 0 71 -11t65 -25t58.5 -25t51.5 -11q28 0 39 17.5t11 51.5v14h123v-35q0 -88 -35.5 -137t-119.5 -49z" />
    <glyph glyph-name="adieresis" unicode="&#xe4;" horiz-adv-x="1002" 
d="M699 0l8 232l-7 30v308l1 49q0 113 -57.5 166t-184.5 53q-103 0 -191 -29t-159 -67l18 164q40 23 94 45t122 36t149 14q111 0 188 -26.5t124 -76.5t68.5 -120t21.5 -156v-622h-195zM368 -22q-145 0 -222 71.5t-77 203.5v30q0 140 86.5 207.5t272.5 93.5l294 42l11 -142
l-282 -40q-101 -14 -144 -48.5t-43 -101.5v-14q0 -67 41.5 -103t126.5 -36q78 0 134 26t91 69.5t48 96.5l27 -131h-36q-16 -60 -53 -111t-103.5 -82t-171.5 -31zM336 1122q-49 0 -74 27.5t-25 77.5v7q0 50 25 77t74 27q51 0 75.5 -27t24.5 -77v-7q0 -50 -24.5 -77.5
t-75.5 -27.5zM652 1122q-50 0 -74.5 27.5t-24.5 77.5v7q0 50 24.5 77t74.5 27t74.5 -27t24.5 -77v-7q0 -50 -24.5 -77.5t-74.5 -27.5z" />
    <glyph glyph-name="aring" unicode="&#xe5;" horiz-adv-x="1002" 
d="M699 0l8 232l-7 30v308l1 49q0 113 -57.5 166t-184.5 53q-103 0 -191 -29t-159 -67l18 164q40 23 94 45t122 36t149 14q111 0 188 -26.5t124 -76.5t68.5 -120t21.5 -156v-622h-195zM368 -22q-145 0 -222 71.5t-77 203.5v30q0 140 86.5 207.5t272.5 93.5l294 42l11 -142
l-282 -40q-101 -14 -144 -48.5t-43 -101.5v-14q0 -67 41.5 -103t126.5 -36q78 0 134 26t91 69.5t48 96.5l27 -131h-36q-16 -60 -53 -111t-103.5 -82t-171.5 -31zM295 1246v4q0 77 49.5 123t149.5 46q99 0 148.5 -46t49.5 -123v-4q0 -75 -49.5 -121.5t-148.5 -46.5
q-100 0 -149.5 46.5t-49.5 121.5zM410 1247q0 -35 21.5 -54t62.5 -19t62 19t21 54v3q0 35 -21 54t-62 19t-62.5 -19t-21.5 -54v-3z" />
    <glyph glyph-name="ae" unicode="&#xe6;" horiz-adv-x="1626" 
d="M1167 -23q-188 0 -298 74.5t-143 208.5l-20 40q-4 56 -5.5 111t-0.5 117l1 91q0 113 -61.5 166t-180.5 53q-104 0 -192 -29t-158 -67l18 164q38 23 89 45t115.5 36t140.5 14q140 0 217 -59t102 -159h6q31 98 119.5 159.5t233.5 61.5q132 0 220.5 -51.5t133 -145.5
t44.5 -223v-37q0 -34 -3 -69t-8 -67h-180q2 52 2.5 97t0.5 85q0 81 -26 137t-77.5 85.5t-129.5 29.5q-117 0 -174.5 -68.5t-57.5 -187.5v-93v-23v-76q0 -57 16.5 -104t53 -80.5t94.5 -52t141 -18.5q94 0 176.5 24t155.5 64l-18 -167q-66 -39 -153.5 -62.5t-193.5 -23.5z
M378 -22q-153 0 -231 72.5t-78 202.5v30q0 140 87.5 207.5t271.5 93.5l294 42l11 -142l-282 -40q-101 -14 -144 -48.5t-43 -101.5v-14q0 -67 41.5 -103t126.5 -36q79 0 135.5 25t92.5 68.5t50 96.5l61 -125h-34q-22 -64 -65 -115.5t-114.5 -82t-179.5 -30.5zM804 411v148
h693v-148h-693z" />
    <glyph glyph-name="ccedilla" unicode="&#xe7;" horiz-adv-x="873" 
d="M515 -23q-218 0 -323.5 115.5t-105.5 326.5v141q0 212 106 327t323 115q60 0 110.5 -11t91.5 -28.5t70 -36.5l17 -168q-48 34 -111 57.5t-147 23.5q-134 0 -198.5 -72.5t-64.5 -210.5v-132q0 -135 64.5 -208t198.5 -73q85 0 150 23.5t117 57.5l-17 -170
q-46 -29 -117.5 -53t-163.5 -24zM559 21l-22 -156l-82 55q17 1 34 1.5t34 -0.5q100 -4 148.5 -41t48.5 -107v-6q0 -79 -57 -116.5t-164 -37.5q-41 0 -79.5 6t-67.5 13l-22 120q31 -10 67.5 -16t76.5 -6q49 0 75 13t26 38v2q0 30 -34 42.5t-119 17.5q-10 1 -14 1h-4l22 177
h133z" />
    <glyph glyph-name="egrave" unicode="&#xe8;" horiz-adv-x="1012" 
d="M553 -23q-234 0 -350.5 111.5t-116.5 321.5v160q0 207 108.5 320.5t316.5 113.5q141 0 235 -51.5t141 -145.5t47 -223v-37q0 -34 -3 -69t-8 -67h-180q2 52 2.5 98t0.5 84q0 81 -26 137t-78 85.5t-131 29.5q-117 0 -174 -66.5t-57 -189.5v-92l1 -23v-87q0 -55 16.5 -100
t53 -77.5t94.5 -50t141 -17.5q94 0 176.5 24t155.5 64l-18 -167q-66 -39 -153.5 -62.5t-193.5 -23.5zM190 411v147h693v-147h-693zM412 1368l189 -272v-3h-172l-233 272v3h216z" />
    <glyph glyph-name="eacute" unicode="&#xe9;" horiz-adv-x="1012" 
d="M553 -23q-234 0 -350.5 111.5t-116.5 321.5v160q0 207 108.5 320.5t316.5 113.5q141 0 235 -51.5t141 -145.5t47 -223v-37q0 -34 -3 -69t-8 -67h-180q2 52 2.5 98t0.5 84q0 81 -26 137t-78 85.5t-131 29.5q-117 0 -174 -66.5t-57 -189.5v-92l1 -23v-87q0 -55 16.5 -100
t53 -77.5t94.5 -50t141 -17.5q94 0 176.5 24t155.5 64l-18 -167q-66 -39 -153.5 -62.5t-193.5 -23.5zM190 411v147h693v-147h-693zM620 1368h216v-3l-233 -272h-172v3z" />
    <glyph glyph-name="ecircumflex" unicode="&#xea;" horiz-adv-x="1012" 
d="M553 -23q-234 0 -350.5 111.5t-116.5 321.5v160q0 207 108.5 320.5t316.5 113.5q141 0 235 -51.5t141 -145.5t47 -223v-37q0 -34 -3 -69t-8 -67h-180q2 52 2.5 98t0.5 84q0 81 -26 137t-78 85.5t-131 29.5q-117 0 -174 -66.5t-57 -189.5v-92l1 -23v-87q0 -55 16.5 -100
t53 -77.5t94.5 -50t141 -17.5q94 0 176.5 24t155.5 64l-18 -167q-66 -39 -153.5 -62.5t-193.5 -23.5zM190 411v147h693v-147h-693zM411 1368h210l187 -272v-3h-154l-134 168h-8l-134 -168h-154v3z" />
    <glyph glyph-name="edieresis" unicode="&#xeb;" horiz-adv-x="1012" 
d="M553 -23q-234 0 -350.5 111.5t-116.5 321.5v160q0 207 108.5 320.5t316.5 113.5q141 0 235 -51.5t141 -145.5t47 -223v-37q0 -34 -3 -69t-8 -67h-180q2 52 2.5 98t0.5 84q0 81 -26 137t-78 85.5t-131 29.5q-117 0 -174 -66.5t-57 -189.5v-92l1 -23v-87q0 -55 16.5 -100
t53 -77.5t94.5 -50t141 -17.5q94 0 176.5 24t155.5 64l-18 -167q-66 -39 -153.5 -62.5t-193.5 -23.5zM190 411v147h693v-147h-693zM358 1122q-49 0 -74 27.5t-25 77.5v7q0 50 25 77t74 27q51 0 75.5 -27t24.5 -77v-7q0 -50 -24.5 -77.5t-75.5 -27.5zM674 1122
q-50 0 -74.5 27.5t-24.5 77.5v7q0 50 24.5 77t74.5 27t74.5 -27t24.5 -77v-7q0 -50 -24.5 -77.5t-74.5 -27.5z" />
    <glyph glyph-name="igrave" unicode="&#xec;" horiz-adv-x="449" 
d="M127 0v978h196v-978h-196zM197 1368l106 -273v-2h-161l-145 273v2h200z" />
    <glyph glyph-name="iacute" unicode="&#xed;" horiz-adv-x="449" 
d="M127 0v978h196v-978h-196zM253 1368h200v-2l-145 -273h-161v2z" />
    <glyph glyph-name="icircumflex" unicode="&#xee;" horiz-adv-x="449" 
d="M127 0v978h196v-978h-196zM123 1368h204l150 -273v-2h-147l-102 166h-7l-101 -166h-147v2z" />
    <glyph glyph-name="idieresis" unicode="&#xef;" horiz-adv-x="449" 
d="M127 0v978h196v-978h-196zM91 1122q-47 0 -70.5 27t-23.5 77v8q0 50 23.5 77t70.5 27t71 -27t24 -77v-8q0 -50 -24 -77t-71 -27zM360 1122q-48 0 -71.5 27t-23.5 77v8q0 50 23.5 77t71.5 27q47 0 70.5 -27t23.5 -77v-8q0 -50 -23.5 -77t-70.5 -27z" />
    <glyph glyph-name="eth" unicode="&#xf0;" horiz-adv-x="1051" 
d="M526 -25q-216 0 -328 115t-112 331v61q0 204 102.5 318.5t276.5 114.5q71 0 122.5 -18t87 -51.5t58.5 -80.5l50 14l-14 -293q0 66 -16 117t-47 85.5t-77 52.5t-107 18q-118 0 -178.5 -70.5t-60.5 -202.5v-77q0 -133 62 -204t181 -71t181 71t62 204v58v65q-1 49 -1 80
t-1 76q-11 76 -50.5 146.5t-107 144.5t-162.5 158t-217 186v1h246q113 -101 203.5 -191t154 -181.5t97.5 -195.5t34 -233v-102q0 -216 -111.5 -331t-327.5 -115zM198 983v126l714 172v-126z" />
    <glyph glyph-name="ntilde" unicode="&#xf1;" horiz-adv-x="1080" 
d="M772 0v604q0 71 -19.5 123t-64 81t-121.5 29q-71 0 -123 -26t-84.5 -70t-46.5 -100l-32 136h42q17 62 56 112.5t104 80.5t161 30q115 0 186 -43.5t104.5 -126.5t33.5 -204v-626h-196zM124 0v978h196l-8 -229l8 -12v-737h-196zM672 1117q-36 0 -70 10.5t-65.5 25t-59.5 25
t-52 10.5q-27 0 -38.5 -17t-11.5 -51v-14h-123v34q0 87 35.5 137t120.5 50q37 0 71 -11t65 -25t58.5 -25t51.5 -11q28 0 39 17.5t11 51.5v14h123v-35q0 -88 -35.5 -137t-119.5 -49z" />
    <glyph glyph-name="ograve" unicode="&#xf2;" horiz-adv-x="1051" 
d="M526 -25q-216 0 -328 115t-112 331v139q0 215 112 329.5t328 114.5t327.5 -114.5t111.5 -329.5v-139q0 -216 -111.5 -331t-327.5 -115zM526 134q119 0 181 71t62 204v163q0 132 -62 202.5t-181 70.5t-181 -70.5t-62 -202.5v-163q0 -133 62 -204t181 -71zM422 1368
l189 -272v-3h-172l-233 272v3h216z" />
    <glyph glyph-name="oacute" unicode="&#xf3;" horiz-adv-x="1051" 
d="M526 -25q-216 0 -328 115t-112 331v139q0 215 112 329.5t328 114.5t327.5 -114.5t111.5 -329.5v-139q0 -216 -111.5 -331t-327.5 -115zM526 134q119 0 181 71t62 204v163q0 132 -62 202.5t-181 70.5t-181 -70.5t-62 -202.5v-163q0 -133 62 -204t181 -71zM630 1368h216v-3
l-233 -272h-172v3z" />
    <glyph glyph-name="ocircumflex" unicode="&#xf4;" horiz-adv-x="1051" 
d="M526 -25q-216 0 -328 115t-112 331v139q0 215 112 329.5t328 114.5t327.5 -114.5t111.5 -329.5v-139q0 -216 -111.5 -331t-327.5 -115zM526 134q119 0 181 71t62 204v163q0 132 -62 202.5t-181 70.5t-181 -70.5t-62 -202.5v-163q0 -133 62 -204t181 -71zM421 1368h210
l187 -272v-3h-154l-134 168h-8l-134 -168h-154v3z" />
    <glyph glyph-name="otilde" unicode="&#xf5;" horiz-adv-x="1051" 
d="M526 -25q-216 0 -328 115t-112 331v139q0 215 112 329.5t328 114.5t327.5 -114.5t111.5 -329.5v-139q0 -216 -111.5 -331t-327.5 -115zM526 134q119 0 181 71t62 204v163q0 132 -62 202.5t-181 70.5t-181 -70.5t-62 -202.5v-163q0 -133 62 -204t181 -71zM657 1117
q-36 0 -70 10.5t-65.5 25t-59.5 25t-52 10.5q-27 0 -38.5 -17t-11.5 -51v-14h-123v34q0 87 35.5 137t120.5 50q37 0 71 -11t65 -25t58.5 -25t51.5 -11q28 0 39 17.5t11 51.5v14h123v-35q0 -88 -35.5 -137t-119.5 -49z" />
    <glyph glyph-name="odieresis" unicode="&#xf6;" horiz-adv-x="1051" 
d="M526 -25q-216 0 -328 115t-112 331v139q0 215 112 329.5t328 114.5t327.5 -114.5t111.5 -329.5v-139q0 -216 -111.5 -331t-327.5 -115zM526 134q119 0 181 71t62 204v163q0 132 -62 202.5t-181 70.5t-181 -70.5t-62 -202.5v-163q0 -133 62 -204t181 -71zM368 1122
q-49 0 -74 27.5t-25 77.5v7q0 50 25 77t74 27q51 0 75.5 -27t24.5 -77v-7q0 -50 -24.5 -77.5t-75.5 -27.5zM684 1122q-50 0 -74.5 27.5t-24.5 77.5v7q0 50 24.5 77t74.5 27t74.5 -27t24.5 -77v-7q0 -50 -24.5 -77.5t-74.5 -27.5z" />
    <glyph glyph-name="oslash" unicode="&#xf8;" horiz-adv-x="1051" 
d="M526 -25q-144 0 -242 51.5t-148 151.5t-50 243v139q0 215 112 329.5t328 114.5q144 0 242 -51t147.5 -150t49.5 -243v-139q0 -216 -111.5 -331t-327.5 -115zM102 -69l130 200l43 57l410 700l26 44l71 115h167l-122 -183l-44 -60l-405 -696l-28 -49l-80 -128h-168z
M526 134q119 0 181 71t62 204v163q0 132 -62 202.5t-181 70.5t-181 -70.5t-62 -202.5v-163q0 -133 62 -204t181 -71z" />
    <glyph glyph-name="ugrave" unicode="&#xf9;" horiz-adv-x="1080" 
d="M308 978v-604q0 -70 19.5 -122.5t64.5 -81.5t121 -29q72 0 123.5 26t84.5 70.5t46 99.5l32 -136h-42q-17 -61 -56 -112t-104 -81t-161 -30q-114 0 -185.5 43.5t-105 127t-33.5 203.5v626h196zM956 978v-978h-196l8 229l-8 12v737h196zM437 1368l189 -272v-3h-172
l-233 272v3h216z" />
    <glyph glyph-name="uacute" unicode="&#xfa;" horiz-adv-x="1080" 
d="M308 978v-604q0 -70 19.5 -122.5t64.5 -81.5t121 -29q72 0 123.5 26t84.5 70.5t46 99.5l32 -136h-42q-17 -61 -56 -112t-104 -81t-161 -30q-114 0 -185.5 43.5t-105 127t-33.5 203.5v626h196zM956 978v-978h-196l8 229l-8 12v737h196zM645 1368h216v-3l-233 -272h-172v3z
" />
    <glyph glyph-name="ucircumflex" unicode="&#xfb;" horiz-adv-x="1080" 
d="M308 978v-604q0 -70 19.5 -122.5t64.5 -81.5t121 -29q72 0 123.5 26t84.5 70.5t46 99.5l32 -136h-42q-17 -61 -56 -112t-104 -81t-161 -30q-114 0 -185.5 43.5t-105 127t-33.5 203.5v626h196zM956 978v-978h-196l8 229l-8 12v737h196zM436 1368h210l187 -272v-3h-154
l-134 168h-8l-134 -168h-154v3z" />
    <glyph glyph-name="udieresis" unicode="&#xfc;" horiz-adv-x="1080" 
d="M308 978v-604q0 -70 19.5 -122.5t64.5 -81.5t121 -29q72 0 123.5 26t84.5 70.5t46 99.5l32 -136h-42q-17 -61 -56 -112t-104 -81t-161 -30q-114 0 -185.5 43.5t-105 127t-33.5 203.5v626h196zM956 978v-978h-196l8 229l-8 12v737h196zM383 1122q-49 0 -74 27.5t-25 77.5
v7q0 50 25 77t74 27q51 0 75.5 -27t24.5 -77v-7q0 -50 -24.5 -77.5t-75.5 -27.5zM699 1122q-50 0 -74.5 27.5t-24.5 77.5v7q0 50 24.5 77t74.5 27t74.5 -27t24.5 -77v-7q0 -50 -24.5 -77.5t-74.5 -27.5z" />
    <glyph glyph-name="yacute" unicode="&#xfd;" horiz-adv-x="1002" 
d="M593 173l-104 -45l275 850h201l-445 -1322h-198l155 459l88 -74h-221l-307 937h203l244 -805h109zM606 1368h216v-3l-233 -272h-172v3z" />
    <glyph glyph-name="thorn" unicode="&#xfe;" horiz-adv-x="1086" 
d="M633 -22q-87 0 -149.5 27.5t-101.5 78t-57 117.5h-65l55 185q3 -82 35 -136.5t88.5 -81.5t130.5 -27q113 0 173 65.5t60 192.5v187q0 125 -59.5 190t-173.5 65q-68 0 -121 -26t-87.5 -70.5t-48.5 -101.5l-46 134h59q17 62 53.5 112.5t100.5 80.5t162 30q175 0 266.5 -110
t91.5 -321v-155q0 -213 -92 -324.5t-274 -111.5zM124 -344v1668h195v-346l-5 -229l1 -64v-402l-1 -40l5 -277v-310h-195z" />
    <glyph glyph-name="ydieresis" unicode="&#xff;" horiz-adv-x="1002" 
d="M593 173l-104 -45l275 850h201l-445 -1322h-198l155 459l88 -74h-221l-307 937h203l244 -805h109zM344 1122q-49 0 -74 27.5t-25 77.5v7q0 50 25 77t74 27q51 0 75.5 -27t24.5 -77v-7q0 -50 -24.5 -77.5t-75.5 -27.5zM660 1122q-50 0 -74.5 27.5t-24.5 77.5v7
q0 50 24.5 77t74.5 27t74.5 -27t24.5 -77v-7q0 -50 -24.5 -77.5t-74.5 -27.5z" />
    <glyph glyph-name="logicalnot" unicode="&#xac;" horiz-adv-x="1018" 
d="M905 198h-166v442h166v-442zM99 543v157h806v-157h-806z" />
    <glyph glyph-name="macron" unicode="&#xaf;" horiz-adv-x="778" 
d="M105 1147v133h568v-133h-568z" />
    <glyph glyph-name="ring" unicode="&#x2da;" horiz-adv-x="597" 
d="M100 1246v4q0 77 49.5 123t149.5 46q99 0 148.5 -46t49.5 -123v-4q0 -75 -49.5 -121.5t-148.5 -46.5q-100 0 -149.5 46.5t-49.5 121.5zM215 1247q0 -35 21.5 -54t62.5 -19t62 19t21 54v3q0 35 -21 54t-62 19t-62.5 -19t-21.5 -54v-3z" />
    <glyph glyph-name="periodcentered" unicode="&#xb7;" horiz-adv-x="387" 
d="M193 420q-55 0 -82 28t-27 79v6q0 50 27 79t82 29q56 0 83 -29t27 -79v-6q0 -51 -27 -79t-83 -28z" />
    <glyph glyph-name="fraction" unicode="&#x2044;" horiz-adv-x="423" 
d="M-293 0l865 1278h156l-863 -1278h-158z" />
    <glyph glyph-name="uni00B9" unicode="&#xb9;" horiz-adv-x="429" 
d="M208 726v531h-8l-173 -95l5 138l183 104h135v-678h-142z" />
    <glyph glyph-name="uni00B2" unicode="&#xb2;" horiz-adv-x="593" 
d="M37 726v124l203 159q46 36 80 67.5t53 62t19 62.5v7q0 42 -30.5 65t-101.5 23q-64 0 -116.5 -16t-98.5 -36l12 124q40 21 101 36t125 15q127 0 193 -51.5t66 -143.5v-11q0 -54 -22 -97.5t-62.5 -84t-98.5 -85.5l-121 -91v-30l-65 23h378v-122h-514z" />
    <glyph glyph-name="uni00B3" unicode="&#xb3;" horiz-adv-x="617" 
d="M280 710q-71 0 -131.5 14t-95.5 29l-13 125q42 -18 99 -32.5t120 -14.5q92 0 124 26.5t32 66.5v5q0 20 -7.5 36t-24 27t-44 17t-68.5 7l-132 3v106l132 3q76 2 108.5 23t32.5 61v6q0 39 -30.5 60.5t-113.5 21.5q-69 0 -126 -15.5t-98 -32.5l13 116q39 20 97.5 35
t133.5 15q137 0 205 -46.5t68 -134.5v-7q0 -59 -32 -96.5t-99 -48.5v-16l-5 11q72 -13 106.5 -52t34.5 -108v-9q0 -58 -30 -103.5t-93.5 -71.5t-162.5 -26z" />
    <glyph glyph-name="onequarter" unicode="&#xbc;" horiz-adv-x="1397" 
d="M208 600v531h-8l-173 -95l5 138l183 104h135v-678h-142zM136 0l865 1278h156l-863 -1278h-158zM1151 0v408l5 171h-14l-222 -342v-48l-67 40h527v-116h-608v128l292 437h223v-678h-136z" />
    <glyph glyph-name="onehalf" unicode="&#xbd;" horiz-adv-x="1460" 
d="M208 600v531h-8l-173 -95l5 138l183 104h135v-678h-142zM136 0l865 1278h156l-863 -1278h-158zM904 0v124l203 159q46 36 80 67.5t53 62t19 62.5v7q0 42 -30.5 65t-101.5 23q-64 0 -116.5 -16t-98.5 -36l12 124q40 21 101 36t125 15q127 0 193 -51.5t66 -143.5v-11
q0 -54 -22 -97.5t-62.5 -84t-98.5 -85.5l-121 -91v-30l-65 23h378v-122h-514z" />
    <glyph glyph-name="threequarters" unicode="&#xbe;" horiz-adv-x="1580" 
d="M280 584q-71 0 -131.5 14t-95.5 29l-13 125q42 -18 99 -32.5t120 -14.5q92 0 124 26.5t32 66.5v5q0 20 -7.5 36t-24 27t-44 17t-68.5 7l-132 3v106l132 3q76 2 108.5 23t32.5 61v6q0 39 -30.5 60.5t-113.5 21.5q-69 0 -126 -15.5t-98 -32.5l13 116q39 20 97.5 35
t133.5 15q137 0 205 -46.5t68 -134.5v-7q0 -59 -32 -96.5t-99 -48.5v-16l-5 11q72 -13 106.5 -52t34.5 -108v-9q0 -58 -30 -103.5t-93.5 -71.5t-162.5 -26zM319 0l865 1278h156l-863 -1278h-158zM1334 0v408l5 171h-14l-222 -342v-48l-67 40h527v-116h-608v128l292 437h223
v-678h-136z" />
    <glyph glyph-name="r_t" horiz-adv-x="1480" 
d="M1169 -20q-116 0 -187 35.5t-103.5 106.5t-32.5 179v598h194v-573q0 -91 43 -133.5t148 -42.5q56 0 108.5 13t96.5 35l-17 -168q-48 -24 -112 -37t-138 -13zM124 0v978h191l-9 -285l14 -14v-679h-196zM312 591l-42 153h48q30 116 103 182.5t193 66.5q29 0 50.5 -4.5
t40.5 -10.5l12 -191q-23 8 -51.5 12.5t-62.5 4.5q-102 0 -179.5 -55t-111.5 -158zM846 810v156h581l-17 -156h-564zM846 949v269l196 23l-7 -292h-189z" />
    <glyph glyph-name="uni1E9E" unicode="&#x1e9e;" horiz-adv-x="1268" 
d="M328 0h-196v812q0 230 115 348t353 118h534v-154l-382 -460l-99 42q41 14 92.5 20.5t86.5 6.5q177 0 264 -83.5t87 -246.5v-65q0 -175 -100.5 -267.5t-308.5 -92.5q-92 0 -162 20.5t-110 39.5l-18 184q53 -29 121.5 -49.5t149.5 -20.5q119 0 173.5 51t54.5 148v46
q0 100 -56 148t-189 48q-43 0 -81 -3.5t-77 -10.5v143l361 442l32 -46h-348q-153 0 -225 -77t-72 -233v-808z" />
    <glyph glyph-name="dotlessi" unicode="&#x131;" horiz-adv-x="449" 
d="M127 0v978h196v-978h-196z" />
    <glyph glyph-name="zero.zero" horiz-adv-x="1151" 
d="M199 379l668 649l66 -133l-670 -650zM575 -26q-235 0 -355 130.5t-120 377.5v314q0 247 119.5 377.5t355.5 130.5t356 -130.5t120 -377.5v-314q0 -247 -120 -377.5t-356 -130.5zM575 141q139 0 205.5 85.5t66.5 246.5v331q0 162 -66.5 247.5t-205.5 85.5t-205 -85.5
t-66 -247.5v-331q0 -161 66.5 -246.5t204.5 -85.5z" />
    <glyph glyph-name="zero.tf" horiz-adv-x="1107" 
d="M558 -26q-235 0 -355 130.5t-120 377.5v314q0 247 119.5 377.5t355.5 130.5t356 -130.5t120 -377.5v-314q0 -247 -120 -377.5t-356 -130.5zM558 141q139 0 205.5 85.5t66.5 246.5v331q0 162 -66.5 247.5t-205.5 85.5t-205 -85.5t-66 -247.5v-331q0 -161 66.5 -246.5
t204.5 -85.5z" />
    <glyph glyph-name="one.tf" horiz-adv-x="1107" 
d="M503 0v1071h-14l-340 -176l5 194l357 189h191l1 -1278h-200zM116 0v170h900v-170h-900z" />
    <glyph glyph-name="two.tf" horiz-adv-x="1107" 
d="M138 0v187l325 304q91 85 154 151.5t96.5 129.5t33.5 134v10q0 67 -26 114t-81 72.5t-142 25.5q-101 0 -190 -31t-157 -71l18 179q40 24 94.5 46t123.5 36t152 14q206 0 309 -94t103 -266v-14q0 -99 -36 -180t-105 -159.5t-169 -172.5l-252 -236v-43l-82 34h663v-170
h-832z" />
    <glyph glyph-name="three.tf" horiz-adv-x="1107" 
d="M504 -23q-83 0 -153 12t-123.5 29.5t-88.5 33.5l-19 194q69 -37 162 -65t205 -28q103 0 164.5 24t89 69.5t27.5 110.5v19q0 67 -26 109.5t-85.5 63.5t-158.5 23l-216 4v159l217 5q97 2 154 24.5t82.5 64t25.5 99.5v14q0 62 -26 104t-83.5 63.5t-153.5 21.5
q-109 0 -204 -28.5t-166 -65.5l17 174q64 35 160 62.5t227 27.5q222 0 327 -86t105 -242v-20q0 -75 -25 -132.5t-78 -94t-136 -50.5v-30l-6 21q135 -25 195 -93.5t60 -195.5v-34q0 -172 -114 -269.5t-356 -97.5z" />
    <glyph glyph-name="four.tf" horiz-adv-x="1107" 
d="M705 0v848l7 291h-26l-408 -718v-88l-77 73h858v-168h-980v196l487 844h330v-1278h-191z" />
    <glyph glyph-name="five.tf" horiz-adv-x="1107" 
d="M540 -23q-126 0 -218.5 26.5t-144.5 53.5l-20 191q44 -24 100.5 -45.5t123 -35t141.5 -13.5q103 0 166 27.5t91.5 80t28.5 126.5v55q0 103 -51 160t-161 57q-90 0 -152.5 -38.5t-104.5 -103.5l-176 30v730h806v-170h-612v-279l-3 -168h8q38 71 111.5 117.5t192.5 46.5
q173 0 257.5 -100t84.5 -276v-63q0 -125 -49 -217t-152.5 -142t-266.5 -50z" />
    <glyph glyph-name="six.tf" horiz-adv-x="1107" 
d="M579 -26q-149 0 -254.5 58.5t-161 174t-55.5 287.5v274q0 254 126.5 393.5t371.5 139.5q118 0 202 -24t142 -53l20 -180q-43 24 -91 43t-106.5 30t-133.5 11q-166 0 -249 -92t-83 -274v-291q0 -110 32.5 -183.5t94 -110t149.5 -36.5q124 0 183.5 66t59.5 169v52
q0 72 -22 124.5t-71.5 81t-132.5 28.5q-74 0 -134.5 -27.5t-103.5 -79t-64 -122.5l-14 172h33q21 62 64 111t112 77.5t166 28.5q182 0 273.5 -102.5t91.5 -288.5v-58q0 -181 -112.5 -290t-332.5 -109z" />
    <glyph glyph-name="seven.tf" horiz-adv-x="1107" 
d="M138 1278h186v-435h-186v435zM352 0l468 1108h-612v170h822v-174l-459 -1104h-219z" />
    <glyph glyph-name="eight.tf" horiz-adv-x="1107" 
d="M555 -27q-127 0 -217 25.5t-147 73t-83.5 112.5t-26.5 144v26q0 88 29 151t83.5 103t129.5 58v10q-75 14 -126 50t-77 92.5t-26 130.5v25q0 152 111.5 241t349.5 89q241 0 352.5 -89t111.5 -241v-25q0 -74 -26 -130.5t-77 -92.5t-126 -50v-10q76 -19 130 -59t83 -102.5
t29 -150.5v-26q0 -77 -25.5 -142t-82 -112.5t-147.5 -74t-222 -26.5zM558 140q143 0 207 58.5t64 149.5v23q0 90 -70.5 146.5t-207.5 71.5q-131 -16 -199 -72.5t-68 -145.5v-23q0 -91 65.5 -149.5t208.5 -58.5zM561 730q110 7 184.5 58t74.5 149v15q0 85 -63 136.5
t-202 51.5q-136 0 -199 -51.5t-63 -136.5v-15q0 -65 34.5 -109.5t94.5 -68.5t139 -29z" />
    <glyph glyph-name="nine.tf" horiz-adv-x="1107" 
d="M540 1304q233 0 351.5 -128.5t118.5 -378.5v-302q0 -250 -130 -385t-388 -135q-111 0 -190 21.5t-134 47.5l-21 189q64 -35 138.5 -59t183.5 -24q175 0 258.5 88t83.5 263v316q0 159 -66.5 239.5t-208.5 80.5q-124 0 -184 -65.5t-60 -169.5v-58q0 -105 55 -168.5
t183 -63.5q71 0 129 27.5t99.5 79t61.5 122.5l14 -172h-33q-20 -62 -62 -111t-108.5 -77.5t-161.5 -28.5q-188 0 -281.5 102t-93.5 284v67q0 182 113 290.5t333 108.5z" />
    <glyph glyph-name="zero.tf.zero" horiz-adv-x="1107" 
d="M182 379l668 649l66 -133l-670 -650zM558 -26q-235 0 -355 130.5t-120 377.5v314q0 247 119.5 377.5t355.5 130.5t356 -130.5t120 -377.5v-314q0 -247 -120 -377.5t-356 -130.5zM558 141q139 0 205.5 85.5t66.5 246.5v331q0 162 -66.5 247.5t-205.5 85.5t-205 -85.5
t-66 -247.5v-331q0 -161 66.5 -246.5t204.5 -85.5z" />
    <glyph glyph-name="zero.dnom" horiz-adv-x="712" 
d="M355 -18q-147 0 -223 78.5t-76 226.5v100q0 147 75.5 226t223.5 79q149 0 225 -79t76 -226v-100q0 -148 -76 -226.5t-225 -78.5zM356 104q76 0 113.5 46t37.5 128v118q0 83 -37.5 128.5t-113.5 45.5q-80 0 -115.5 -48.5t-35.5 -125.5v-118q0 -83 37.5 -128.5t113.5 -45.5
z" />
    <glyph glyph-name="one.dnom" horiz-adv-x="429" 
d="M208 0v531h-8l-173 -95l5 138l183 104h135v-678h-142z" />
    <glyph glyph-name="two.dnom" horiz-adv-x="593" 
d="M37 0v124l203 159q46 36 80 67.5t53 62t19 62.5v7q0 42 -30.5 65t-101.5 23q-64 0 -116.5 -16t-98.5 -36l12 124q40 21 101 36t125 15q127 0 193 -51.5t66 -143.5v-11q0 -54 -22 -97.5t-62.5 -84t-98.5 -85.5l-121 -91v-30l-65 23h378v-122h-514z" />
    <glyph glyph-name="three.dnom" horiz-adv-x="617" 
d="M280 -16q-71 0 -131.5 14t-95.5 29l-13 125q42 -18 99 -32.5t120 -14.5q92 0 124 26.5t32 66.5v5q0 20 -7.5 36t-24 27t-44 17t-68.5 7l-132 3v106l132 3q76 2 108.5 23t32.5 61v6q0 39 -30.5 60.5t-113.5 21.5q-69 0 -126 -15.5t-98 -32.5l13 116q39 20 97.5 35
t133.5 15q137 0 205 -46.5t68 -134.5v-7q0 -59 -32 -96.5t-99 -48.5v-16l-5 11q72 -13 106.5 -52t34.5 -108v-9q0 -58 -30 -103.5t-93.5 -71.5t-162.5 -26z" />
    <glyph glyph-name="four.dnom" horiz-adv-x="655" 
d="M409 0v408l5 171h-14l-222 -342v-48l-67 40h527v-116h-608v128l292 437h223v-678h-136z" />
    <glyph glyph-name="five.dnom" horiz-adv-x="653" 
d="M304 -16q-74 0 -134 15t-92 29l-13 126q42 -19 100.5 -34t128.5 -15q95 0 129.5 31t34.5 82v11q0 47 -25.5 74.5t-89.5 27.5q-47 0 -84 -18.5t-63 -49.5l-127 19v396h508v-118h-373v-120l-2 -89h6q26 43 74 65.5t117 22.5q104 0 155 -55.5t51 -151.5v-19
q0 -70 -31.5 -121.5t-98 -79.5t-171.5 -28z" />
    <glyph glyph-name="six.dnom" horiz-adv-x="678" 
d="M354 -18q-146 0 -223 78.5t-77 226.5v101q0 143 79.5 223.5t237.5 80.5q65 0 117.5 -12t90.5 -28l14 -120q-39 17 -84.5 28.5t-107.5 11.5q-71 0 -115.5 -23t-65 -65t-20.5 -99v-120q0 -75 39.5 -118.5t116.5 -43.5q65 0 98.5 28t33.5 81v12q0 52 -27.5 80t-92.5 28
q-62 0 -104.5 -26t-65.5 -68l-16 84h24q14 32 39.5 58.5t66.5 42.5t99 16q109 0 164.5 -54t55.5 -152v-23q0 -110 -71.5 -169t-205.5 -59z" />
    <glyph glyph-name="seven.dnom" horiz-adv-x="574" 
d="M115 0l275 559h-359v119h511v-121l-268 -557h-159z" />
    <glyph glyph-name="eight.dnom" horiz-adv-x="689" 
d="M344 -20q-106 0 -171 24t-94.5 68t-29.5 105v7q0 46 15.5 79.5t46 56t74.5 33.5v6q-43 8 -71.5 27.5t-42 48t-13.5 61.5v11q0 86 69.5 135.5t216.5 49.5q148 0 217.5 -49t69.5 -136v-10q0 -55 -32.5 -90t-94.5 -48v-6q71 -14 103.5 -57t32.5 -112v-7q0 -58 -28 -102.5
t-92.5 -69.5t-175.5 -25zM346 100q77 0 110 25t33 70v6q0 43 -35.5 68t-112.5 30q-73 -5 -107 -30.5t-34 -67.5v-7q0 -44 34 -69t112 -25zM347 394q68 6 101.5 30t33.5 62v4q0 41 -32.5 63.5t-105.5 22.5t-104.5 -23t-31.5 -63v-4q0 -38 33.5 -62t105.5 -30z" />
    <glyph glyph-name="nine.dnom" horiz-adv-x="677" 
d="M326 692q145 0 221 -78.5t76 -226.5v-101q0 -95 -36.5 -163.5t-109 -104.5t-181.5 -36q-63 0 -113.5 11.5t-87.5 25.5l-16 124q40 -17 86 -29t110 -12q107 0 154.5 51t47.5 136v122q0 74 -38.5 117t-114.5 43q-67 0 -101 -28t-34 -81v-12q0 -52 30 -80t100 -28
q59 0 99 26t61 68l16 -84h-24q-13 -32 -37.5 -58.5t-63 -42.5t-94.5 -16q-114 0 -172 54t-58 151v23q0 109 72 169t208 60z" />
    <glyph glyph-name="uni2080" unicode="&#x2080;" horiz-adv-x="712" 
d="M355 -218q-147 0 -223 78.5t-76 226.5v100q0 147 75.5 226t223.5 79q149 0 225 -79t76 -226v-100q0 -148 -76 -226.5t-225 -78.5zM356 -96q76 0 113.5 46t37.5 128v118q0 83 -37.5 128.5t-113.5 45.5q-80 0 -115.5 -48.5t-35.5 -125.5v-118q0 -83 37.5 -128.5
t113.5 -45.5z" />
    <glyph glyph-name="uni2081" unicode="&#x2081;" horiz-adv-x="429" 
d="M208 -200v531h-8l-173 -95l5 138l183 104h135v-678h-142z" />
    <glyph glyph-name="uni2082" unicode="&#x2082;" horiz-adv-x="593" 
d="M37 -200v124l203 159q46 36 80 67.5t53 62t19 62.5v7q0 42 -30.5 65t-101.5 23q-64 0 -116.5 -16t-98.5 -36l12 124q40 21 101 36t125 15q127 0 193 -51.5t66 -143.5v-11q0 -54 -22 -97.5t-62.5 -84t-98.5 -85.5l-121 -91v-30l-65 23h378v-122h-514z" />
    <glyph glyph-name="uni2083" unicode="&#x2083;" horiz-adv-x="617" 
d="M280 -216q-71 0 -131.5 14t-95.5 29l-13 125q42 -18 99 -32.5t120 -14.5q92 0 124 26.5t32 66.5v5q0 20 -7.5 36t-24 27t-44 17t-68.5 7l-132 3v106l132 3q76 2 108.5 23t32.5 61v6q0 39 -30.5 60.5t-113.5 21.5q-69 0 -126 -15.5t-98 -32.5l13 116q39 20 97.5 35
t133.5 15q137 0 205 -46.5t68 -134.5v-7q0 -59 -32 -96.5t-99 -48.5v-16l-5 11q72 -13 106.5 -52t34.5 -108v-9q0 -58 -30 -103.5t-93.5 -71.5t-162.5 -26z" />
    <glyph glyph-name="uni2084" unicode="&#x2084;" horiz-adv-x="655" 
d="M409 -200v408l5 171h-14l-222 -342v-48l-67 40h527v-116h-608v128l292 437h223v-678h-136z" />
    <glyph glyph-name="uni2085" unicode="&#x2085;" horiz-adv-x="653" 
d="M304 -216q-74 0 -134 15t-92 29l-13 126q42 -19 100.5 -34t128.5 -15q95 0 129.5 31t34.5 82v11q0 47 -25.5 74.5t-89.5 27.5q-47 0 -84 -18.5t-63 -49.5l-127 19v396h508v-118h-373v-120l-2 -89h6q26 43 74 65.5t117 22.5q104 0 155 -55.5t51 -151.5v-19
q0 -70 -31.5 -121.5t-98 -79.5t-171.5 -28z" />
    <glyph glyph-name="uni2086" unicode="&#x2086;" horiz-adv-x="678" 
d="M354 -218q-146 0 -223 78.5t-77 226.5v101q0 143 79.5 223.5t237.5 80.5q65 0 117.5 -12t90.5 -28l14 -120q-39 17 -84.5 28.5t-107.5 11.5q-71 0 -115.5 -23t-65 -65t-20.5 -99v-120q0 -75 39.5 -118.5t116.5 -43.5q65 0 98.5 28t33.5 81v12q0 52 -27.5 80t-92.5 28
q-62 0 -104.5 -26t-65.5 -68l-16 84h24q14 32 39.5 58.5t66.5 42.5t99 16q109 0 164.5 -54t55.5 -152v-23q0 -110 -71.5 -169t-205.5 -59z" />
    <glyph glyph-name="uni2087" unicode="&#x2087;" horiz-adv-x="574" 
d="M115 -200l275 559h-359v119h511v-121l-268 -557h-159z" />
    <glyph glyph-name="uni2088" unicode="&#x2088;" horiz-adv-x="689" 
d="M344 -220q-106 0 -171 24t-94.5 68t-29.5 105v7q0 46 15.5 79.5t46 56t74.5 33.5v6q-43 8 -71.5 27.5t-42 48t-13.5 61.5v11q0 86 69.5 135.5t216.5 49.5q148 0 217.5 -49t69.5 -136v-10q0 -55 -32.5 -90t-94.5 -48v-6q71 -14 103.5 -57t32.5 -112v-7q0 -58 -28 -102.5
t-92.5 -69.5t-175.5 -25zM346 -100q77 0 110 25t33 70v6q0 43 -35.5 68t-112.5 30q-73 -5 -107 -30.5t-34 -67.5v-7q0 -44 34 -69t112 -25zM347 194q68 6 101.5 30t33.5 62v4q0 41 -32.5 63.5t-105.5 22.5t-104.5 -23t-31.5 -63v-4q0 -38 33.5 -62t105.5 -30z" />
    <glyph glyph-name="uni2089" unicode="&#x2089;" horiz-adv-x="677" 
d="M326 492q145 0 221 -78.5t76 -226.5v-101q0 -95 -36.5 -163.5t-109 -104.5t-181.5 -36q-63 0 -113.5 11.5t-87.5 25.5l-16 124q40 -17 86 -29t110 -12q107 0 154.5 51t47.5 136v122q0 74 -38.5 117t-114.5 43q-67 0 -101 -28t-34 -81v-12q0 -52 30 -80t100 -28
q59 0 99 26t61 68l16 -84h-24q-13 -32 -37.5 -58.5t-63 -42.5t-94.5 -16q-114 0 -172 54t-58 151v23q0 109 72 169t208 60z" />
    <glyph glyph-name="zero.numr" horiz-adv-x="712" 
d="M355 582q-147 0 -223 78.5t-76 226.5v100q0 147 75.5 226t223.5 79q149 0 225 -79t76 -226v-100q0 -148 -76 -226.5t-225 -78.5zM356 704q76 0 113.5 46t37.5 128v118q0 83 -37.5 128.5t-113.5 45.5q-80 0 -115.5 -48.5t-35.5 -125.5v-118q0 -83 37.5 -128.5t113.5 -45.5
z" />
    <glyph glyph-name="one.numr" horiz-adv-x="429" 
d="M208 600v531h-8l-173 -95l5 138l183 104h135v-678h-142z" />
    <glyph glyph-name="two.numr" horiz-adv-x="593" 
d="M37 600v124l203 159q46 36 80 67.5t53 62t19 62.5v7q0 42 -30.5 65t-101.5 23q-64 0 -116.5 -16t-98.5 -36l12 124q40 21 101 36t125 15q127 0 193 -51.5t66 -143.5v-11q0 -54 -22 -97.5t-62.5 -84t-98.5 -85.5l-121 -91v-30l-65 23h378v-122h-514z" />
    <glyph glyph-name="three.numr" horiz-adv-x="617" 
d="M280 584q-71 0 -131.5 14t-95.5 29l-13 125q42 -18 99 -32.5t120 -14.5q92 0 124 26.5t32 66.5v5q0 20 -7.5 36t-24 27t-44 17t-68.5 7l-132 3v106l132 3q76 2 108.5 23t32.5 61v6q0 39 -30.5 60.5t-113.5 21.5q-69 0 -126 -15.5t-98 -32.5l13 116q39 20 97.5 35
t133.5 15q137 0 205 -46.5t68 -134.5v-7q0 -59 -32 -96.5t-99 -48.5v-16l-5 11q72 -13 106.5 -52t34.5 -108v-9q0 -58 -30 -103.5t-93.5 -71.5t-162.5 -26z" />
    <glyph glyph-name="four.numr" horiz-adv-x="655" 
d="M409 600v408l5 171h-14l-222 -342v-48l-67 40h527v-116h-608v128l292 437h223v-678h-136z" />
    <glyph glyph-name="five.numr" horiz-adv-x="653" 
d="M304 584q-74 0 -134 15t-92 29l-13 126q42 -19 100.5 -34t128.5 -15q95 0 129.5 31t34.5 82v11q0 47 -25.5 74.5t-89.5 27.5q-47 0 -84 -18.5t-63 -49.5l-127 19v396h508v-118h-373v-120l-2 -89h6q26 43 74 65.5t117 22.5q104 0 155 -55.5t51 -151.5v-19
q0 -70 -31.5 -121.5t-98 -79.5t-171.5 -28z" />
    <glyph glyph-name="six.numr" horiz-adv-x="678" 
d="M354 582q-146 0 -223 78.5t-77 226.5v101q0 143 79.5 223.5t237.5 80.5q65 0 117.5 -12t90.5 -28l14 -120q-39 17 -84.5 28.5t-107.5 11.5q-71 0 -115.5 -23t-65 -65t-20.5 -99v-120q0 -75 39.5 -118.5t116.5 -43.5q65 0 98.5 28t33.5 81v12q0 52 -27.5 80t-92.5 28
q-62 0 -104.5 -26t-65.5 -68l-16 84h24q14 32 39.5 58.5t66.5 42.5t99 16q109 0 164.5 -54t55.5 -152v-23q0 -110 -71.5 -169t-205.5 -59z" />
    <glyph glyph-name="seven.numr" horiz-adv-x="574" 
d="M115 600l275 559h-359v119h511v-121l-268 -557h-159z" />
    <glyph glyph-name="eight.numr" horiz-adv-x="689" 
d="M344 580q-106 0 -171 24t-94.5 68t-29.5 105v7q0 46 15.5 79.5t46 56t74.5 33.5v6q-43 8 -71.5 27.5t-42 48t-13.5 61.5v11q0 86 69.5 135.5t216.5 49.5q148 0 217.5 -49t69.5 -136v-10q0 -55 -32.5 -90t-94.5 -48v-6q71 -14 103.5 -57t32.5 -112v-7q0 -58 -28 -102.5
t-92.5 -69.5t-175.5 -25zM346 700q77 0 110 25t33 70v6q0 43 -35.5 68t-112.5 30q-73 -5 -107 -30.5t-34 -67.5v-7q0 -44 34 -69t112 -25zM347 994q68 6 101.5 30t33.5 62v4q0 41 -32.5 63.5t-105.5 22.5t-104.5 -23t-31.5 -63v-4q0 -38 33.5 -62t105.5 -30z" />
    <glyph glyph-name="nine.numr" horiz-adv-x="677" 
d="M326 1292q145 0 221 -78.5t76 -226.5v-101q0 -95 -36.5 -163.5t-109 -104.5t-181.5 -36q-63 0 -113.5 11.5t-87.5 25.5l-16 124q40 -17 86 -29t110 -12q107 0 154.5 51t47.5 136v122q0 74 -38.5 117t-114.5 43q-67 0 -101 -28t-34 -81v-12q0 -52 30 -80t100 -28
q59 0 99 26t61 68l16 -84h-24q-13 -32 -37.5 -58.5t-63 -42.5t-94.5 -16q-114 0 -172 54t-58 151v23q0 109 72 169t208 60z" />
    <glyph glyph-name="uni2070" unicode="&#x2070;" horiz-adv-x="712" 
d="M355 708q-147 0 -223 78.5t-76 226.5v100q0 147 75.5 226t223.5 79q149 0 225 -79t76 -226v-100q0 -148 -76 -226.5t-225 -78.5zM356 830q76 0 113.5 46t37.5 128v118q0 83 -37.5 128.5t-113.5 45.5q-80 0 -115.5 -48.5t-35.5 -125.5v-118q0 -83 37.5 -128.5t113.5 -45.5
z" />
    <glyph glyph-name="uni2074" unicode="&#x2074;" horiz-adv-x="655" 
d="M409 726v408l5 171h-14l-222 -342v-48l-67 40h527v-116h-608v128l292 437h223v-678h-136z" />
    <glyph glyph-name="uni2075" unicode="&#x2075;" horiz-adv-x="653" 
d="M304 710q-74 0 -134 15t-92 29l-13 126q42 -19 100.5 -34t128.5 -15q95 0 129.5 31t34.5 82v11q0 47 -25.5 74.5t-89.5 27.5q-47 0 -84 -18.5t-63 -49.5l-127 19v396h508v-118h-373v-120l-2 -89h6q26 43 74 65.5t117 22.5q104 0 155 -55.5t51 -151.5v-19
q0 -70 -31.5 -121.5t-98 -79.5t-171.5 -28z" />
    <glyph glyph-name="uni2076" unicode="&#x2076;" horiz-adv-x="678" 
d="M354 708q-146 0 -223 78.5t-77 226.5v101q0 143 79.5 223.5t237.5 80.5q65 0 117.5 -12t90.5 -28l14 -120q-39 17 -84.5 28.5t-107.5 11.5q-71 0 -115.5 -23t-65 -65t-20.5 -99v-120q0 -75 39.5 -118.5t116.5 -43.5q65 0 98.5 28t33.5 81v12q0 52 -27.5 80t-92.5 28
q-62 0 -104.5 -26t-65.5 -68l-16 84h24q14 32 39.5 58.5t66.5 42.5t99 16q109 0 164.5 -54t55.5 -152v-23q0 -110 -71.5 -169t-205.5 -59z" />
    <glyph glyph-name="uni2077" unicode="&#x2077;" horiz-adv-x="574" 
d="M115 726l275 559h-359v119h511v-121l-268 -557h-159z" />
    <glyph glyph-name="uni2078" unicode="&#x2078;" horiz-adv-x="689" 
d="M344 706q-106 0 -171 24t-94.5 68t-29.5 105v7q0 46 15.5 79.5t46 56t74.5 33.5v6q-43 8 -71.5 27.5t-42 48t-13.5 61.5v11q0 86 69.5 135.5t216.5 49.5q148 0 217.5 -49t69.5 -136v-10q0 -55 -32.5 -90t-94.5 -48v-6q71 -14 103.5 -57t32.5 -112v-7q0 -58 -28 -102.5
t-92.5 -69.5t-175.5 -25zM346 826q77 0 110 25t33 70v6q0 43 -35.5 68t-112.5 30q-73 -5 -107 -30.5t-34 -67.5v-7q0 -44 34 -69t112 -25zM347 1120q68 6 101.5 30t33.5 62v4q0 41 -32.5 63.5t-105.5 22.5t-104.5 -23t-31.5 -63v-4q0 -38 33.5 -62t105.5 -30z" />
    <glyph glyph-name="uni2079" unicode="&#x2079;" horiz-adv-x="677" 
d="M326 1418q145 0 221 -78.5t76 -226.5v-101q0 -95 -36.5 -163.5t-109 -104.5t-181.5 -36q-63 0 -113.5 11.5t-87.5 25.5l-16 124q40 -17 86 -29t110 -12q107 0 154.5 51t47.5 136v122q0 74 -38.5 117t-114.5 43q-67 0 -101 -28t-34 -81v-12q0 -52 30 -80t100 -28
q59 0 99 26t61 68l16 -84h-24q-13 -32 -37.5 -58.5t-63 -42.5t-94.5 -16q-114 0 -172 54t-58 151v23q0 109 72 169t208 60z" />
    <glyph glyph-name="uni2007" unicode="&#x2007;" horiz-adv-x="1151" 
 />
    <glyph glyph-name="uni200A" unicode="&#x200a;" horiz-adv-x="286" 
 />
    <glyph glyph-name="uni2008" unicode="&#x2008;" horiz-adv-x="402" 
 />
    <glyph glyph-name="uni00A0" unicode="&#xa0;" horiz-adv-x="552" 
 />
    <glyph glyph-name="uni2009" unicode="&#x2009;" horiz-adv-x="400" 
 />
    <glyph glyph-name="uni200B" unicode="&#x200b;" 
 />
    <glyph glyph-name="question_alt" horiz-adv-x="878" 
d="M231 350v316l121 5q139 10 192.5 65.5t53.5 148.5v60q0 94 -50.5 141t-176.5 47q-93 0 -175 -25t-150 -61l21 167q35 20 86 40t116.5 33t142.5 13q198 0 291.5 -85.5t93.5 -244.5v-78q0 -107 -39 -180t-122 -112.5t-214 -49.5l-104 -6l91 57v-251h-178zM319 -22
q-58 0 -86 32t-28 89v9q0 57 28 88.5t86 31.5q59 0 87.5 -31.5t28.5 -88.5v-9q0 -57 -28.5 -89t-87.5 -32z" />
    <glyph glyph-name="uni00AD" unicode="&#xad;" horiz-adv-x="798" 
d="M114 442v160h570v-160h-570z" />
    <glyph glyph-name="guillemotleft" unicode="&#xab;" horiz-adv-x="999" 
d="M675 490l283 -402h-192l-272 380v44l272 374h192zM246 490l283 -402h-192l-272 380v44l272 374h192z" />
    <glyph glyph-name="guillemotright" unicode="&#xbb;" horiz-adv-x="999" 
d="M324 490l-283 396h192l272 -374v-44l-272 -380h-192zM753 490l-283 396h192l272 -374v-44l-272 -380h-192z" />
    <glyph glyph-name="Euro" unicode="&#x20ac;" horiz-adv-x="1073" 
d="M692 -26q-262 0 -389 134.5t-127 381.5v303q0 245 127 378t384 133q90 0 164.5 -19t120.5 -42l16 -172q-51 25 -120 42t-155 17q-169 0 -250.5 -90t-81.5 -253v-291q0 -163 83.5 -253.5t261.5 -90.5q88 0 156 18.5t114 45.5l-16 -179q-43 -23 -118 -43t-170 -20zM26 418
l14 147h844l-13 -147h-845zM26 733l14 147h844l-13 -147h-845z" />
    <glyph glyph-name="uni20B9" unicode="&#x20b9;" horiz-adv-x="1022" 
d="M957 1278h-879l11 -145h879zM780 8l-222 272q-33 41 -65 75.5t-68 67.5t-81 68l5 49l-259 54v-147l114 -12l342 -435h234v8zM464 1172q63 -56 92 -127t29 -161v-12q0 -140 -73 -209t-240 -69h-182l149 -145l96 2q226 5 334 108.5t108 305.5v13q0 92 -30 166.5t-88 127.5
h-195zM957 943h-879l11 -145h879z" />
    <glyph glyph-name="uni2219" unicode="&#x2219;" horiz-adv-x="402" 
d="M201 381q-60 0 -88.5 32.5t-28.5 90.5v10q0 58 28.5 90t88.5 32q59 0 88 -32t29 -90v-10q0 -58 -29 -90.5t-88 -32.5z" />
    <glyph glyph-name="uni2215" unicode="&#x2215;" horiz-adv-x="850" 
d="M21 -242l627 1585h181l-626 -1585h-182z" />
    <glyph glyph-name="uni00B5" unicode="&#xb5;" horiz-adv-x="1093" 
d="M969 978v-978h-196l8 229l-8 12v737h196zM320 385q0 -57 13 -102t39.5 -76.5t68 -47.5t98.5 -16q66 0 115.5 26t81 70.5t43.5 99.5l32 -143h-41q-14 -66 -44 -115t-78.5 -75.5t-118.5 -26.5q-58 0 -100.5 16.5t-71 48t-45.5 77.5h-8l12 -340v-125h-192v1322h196v-593z
" />
    <glyph glyph-name="uni0308" unicode="&#x308;" 
d="M199 1122q-49 0 -74 27.5t-25 77.5v7q0 50 25 77t74 27q51 0 75.5 -27t24.5 -77v-7q0 -50 -24.5 -77.5t-75.5 -27.5zM515 1122q-50 0 -74.5 27.5t-24.5 77.5v7q0 50 24.5 77t74.5 27t74.5 -27t24.5 -77v-7q0 -50 -24.5 -77.5t-74.5 -27.5z" />
    <glyph glyph-name="uni0307" unicode="&#x307;" 
d="M209 1122q-55 0 -82 28t-27 79v6q0 50 27 79t82 29q56 0 83 -29t27 -79v-6q0 -51 -27 -79t-83 -28z" />
    <glyph glyph-name="gravecomb" unicode="&#x300;" 
d="M312 1368l189 -272v-3h-172l-233 272v3h216z" />
    <glyph glyph-name="acutecomb" unicode="&#x301;" 
d="M283 1368h216v-3l-233 -272h-172v3z" />
    <glyph glyph-name="uni0302" unicode="&#x302;" 
d="M287 1368h210l187 -272v-3h-154l-134 168h-8l-134 -168h-154v3z" />
    <glyph glyph-name="uni030A" unicode="&#x30a;" 
d="M100 1246v4q0 77 49.5 123t149.5 46q99 0 148.5 -46t49.5 -123v-4q0 -75 -49.5 -121.5t-148.5 -46.5q-100 0 -149.5 46.5t-49.5 121.5zM215 1247q0 -35 21.5 -54t62.5 -19t62 19t21 54v3q0 35 -21 54t-62 19t-62.5 -19t-21.5 -54v-3z" />
    <glyph glyph-name="tildecomb" unicode="&#x303;" 
d="M520 1117q-36 0 -70 10.5t-65.5 25t-59.5 25t-52 10.5q-27 0 -38.5 -17t-11.5 -51v-14h-123v34q0 87 35.5 137t120.5 50q37 0 71 -11t65 -25t58.5 -25t51.5 -11q28 0 39 17.5t11 51.5v14h123v-35q0 -88 -35.5 -137t-119.5 -49z" />
    <glyph glyph-name="uni0304" unicode="&#x304;" 
d="M105 1147v133h568v-133h-568z" />
    <glyph glyph-name="uni0327" unicode="&#x327;" 
d="M367 21l-22 -156l-82 55q17 1 34 1.5t34 -0.5q100 -4 148.5 -41t48.5 -107v-6q0 -79 -57 -116.5t-164 -37.5q-41 0 -79.5 6t-67.5 13l-22 120q31 -10 67.5 -16t76.5 -6q49 0 75 13t26 38v2q0 30 -34 42.5t-119 17.5q-10 1 -14 1h-4l22 177h133z" />
    <glyph glyph-name="uni0308.case" 
d="M199 1419q-49 0 -74 27.5t-25 77.5v7q0 50 25 77t74 27q51 0 75.5 -27t24.5 -77v-7q0 -50 -24.5 -77.5t-75.5 -27.5zM515 1419q-50 0 -74.5 27.5t-24.5 77.5v7q0 50 24.5 77t74.5 27t74.5 -27t24.5 -77v-7q0 -50 -24.5 -77.5t-74.5 -27.5z" />
    <glyph glyph-name="gravecomb.case" 
d="M315 1651l236 -253v-2h-186l-275 252v3h225z" />
    <glyph glyph-name="acutecomb.case" 
d="M335 1651h225v-3l-275 -252h-186v2z" />
    <glyph glyph-name="uni0302.case" 
d="M318 1651h206l217 -252v-3h-165l-151 148h-8l-151 -148h-165v3z" />
    <glyph glyph-name="uni030A.case" 
d="M100 1524v4q0 77 49.5 123t149.5 46q99 0 148.5 -46t49.5 -123v-4q0 -75 -49.5 -121.5t-148.5 -46.5q-100 0 -149.5 46.5t-49.5 121.5zM215 1525q0 -35 21.5 -54t62.5 -19t62 19t21 54v3q0 35 -21 54t-62 19t-62.5 -19t-21.5 -54v-3z" />
    <glyph glyph-name="tildecomb.case" 
d="M536 1415q-38 0 -74 9.5t-69 22t-62.5 22t-55.5 9.5q-28 0 -40 -16.5t-12 -48.5v-9h-123v30q0 85 35.5 134t120.5 49q39 0 75.5 -9.5t69 -22.5t62 -22.5t54.5 -9.5q29 0 40 16.5t11 49.5v9h123v-31q0 -85 -35.5 -133.5t-119.5 -48.5z" />
    <glyph glyph-name="uni0304.case" 
d="M105 1444v133h568v-133h-568z" />
    <glyph glyph-name="uni0327.case" 
d="M367 18l-22 -156l-82 55q17 1 34 1.5t34 -0.5q100 -4 148.5 -41t48.5 -107v-6q0 -79 -57 -116.5t-164 -37.5q-41 0 -79.5 6t-67.5 13l-22 120q31 -10 67.5 -16t76.5 -6q49 0 75 13t26 38v2q0 30 -34 42.5t-119 17.5q-10 1 -14 1h-4l22 177h133z" />
    <glyph glyph-name="uni0308.narrow" 
d="M223 1122q-47 0 -70.5 27t-23.5 77v8q0 50 23.5 77t70.5 27t71 -27t24 -77v-8q0 -50 -24 -77t-71 -27zM492 1122q-48 0 -71.5 27t-23.5 77v8q0 50 23.5 77t71.5 27q47 0 70.5 -27t23.5 -77v-8q0 -50 -23.5 -77t-70.5 -27z" />
    <glyph glyph-name="gravecomb.narrow" 
d="M388 1368l106 -273v-2h-161l-145 273v2h200z" />
    <glyph glyph-name="acutecomb.narrow" 
d="M207 1368h200v-2l-145 -273h-161v2z" />
    <glyph glyph-name="uni0302.narrow" 
d="M290 1368h204l150 -273v-2h-147l-102 166h-7l-101 -166h-147v2z" />
    <glyph glyph-name="VowelA.tm" unicode="&#xb85;" horiz-adv-x="2188" 
d="M1041 1192q197 0 320 -63t180.5 -182.5t57.5 -289.5v-92q0 -217 -78 -363.5t-241.5 -220.5t-420.5 -74h-4q-241 0 -416.5 72.5t-270.5 218t-95 363.5v18q0 27 1 52t2 49h496l4 -135h-324q-1 -8 -1 -16.5v-16.5v-5q0 -145 73.5 -246t208.5 -153.5t320 -52.5h2
q197 0 322 55.5t184.5 168t59.5 283.5v100q0 126 -37.5 213t-121 132.5t-222.5 45.5q-126 0 -209.5 -41t-126 -112t-45.5 -161h7v-173q0 -97 41 -149.5t129 -52.5q77 0 113.5 46.5t36.5 132.5v62q0 83 -35.5 125t-110.5 42q-46 0 -83.5 -19.5t-63 -52.5t-36.5 -76l-6 115h13
q19 72 78.5 122t159.5 50q126 0 189 -76t63 -216v-78q0 -145 -75 -231t-238 -86q-172 0 -257 93.5t-85 256.5v108q0 161 62 275t183 174.5t297 60.5zM1024 678l435 -1v-138l-435 1v138zM1481 680h367v-143h-367v143zM1834 1146h186v-1206h-186v1206z" />
    <glyph glyph-name="VowelAa.tm" unicode="&#xb86;" horiz-adv-x="2623" 
d="M2270 618q152 0 217.5 -102t65.5 -299v-96q0 -178 -49.5 -294.5t-159.5 -173t-291 -56.5q-108 0 -203.5 21t-176.5 55l-28 163q86 -37 184 -59.5t202 -22.5q124 0 197.5 39t105.5 120t32 208v79q0 124 -37.5 187.5t-130.5 63.5q-73 0 -123 -48.5t-68 -134.5h-13v151h35
q17 84 77.5 141.5t163.5 57.5zM1041 1192q197 0 320 -63t180.5 -182.5t57.5 -289.5v-92q0 -217 -78 -363.5t-241.5 -220.5t-420.5 -74h-4q-241 0 -416.5 72.5t-270.5 218t-95 363.5v18q0 27 1 52t2 49h496l4 -135h-324q-1 -8 -1 -16.5v-16.5v-5q0 -145 73.5 -246
t208.5 -153.5t320 -52.5h2q197 0 322 55.5t184.5 168t59.5 283.5v100q0 126 -37.5 213t-121 132.5t-222.5 45.5q-126 0 -209.5 -41t-126 -112t-45.5 -161h7v-173q0 -97 41 -149.5t129 -52.5q77 0 113.5 46.5t36.5 132.5v62q0 83 -35.5 125t-110.5 42q-46 0 -83.5 -19.5
t-63 -52.5t-36.5 -76l-6 115h13q19 72 78.5 122t159.5 50q126 0 189 -76t63 -216v-78q0 -145 -75 -231t-238 -86q-172 0 -257 93.5t-85 256.5v108q0 161 62 275t183 174.5t297 60.5zM1024 678l435 -1v-138l-435 1v138zM1481 680h367v-143h-367v143zM1834 1146h186v-1206
h-186v1206z" />
    <glyph glyph-name="VowelI.tm" unicode="&#xb87;" horiz-adv-x="2183" 
d="M1077 1168q192 0 310 -63t172.5 -180t54.5 -281v-24q0 -190 -51 -330t-161 -222l-31 -31q-79 -61 -200.5 -94t-282.5 -33q-243 0 -416.5 67t-266 206.5t-92.5 354.5v23q0 27 1 58l2 62h495l3 -140h-320v-25.5v-22.5v-8q0 -140 70 -234.5t202 -141.5t317 -47
q196 0 317 60.5t177 183t56 308.5v35q0 125 -35.5 210.5t-115.5 129.5t-214 44q-124 0 -205.5 -40t-121.5 -108t-42 -154h7v-167q0 -96 41 -148t126 -52q79 0 115 45.5t36 127.5v67q0 80 -35 121.5t-110 41.5q-45 0 -82.5 -18.5t-63 -51t-36.5 -74.5l-5 108h14
q17 71 74.5 120.5t154.5 49.5q126 0 188 -75t62 -213v-70q0 -145 -74 -230t-234 -85q-169 0 -251 92t-82 253v107q0 152 59.5 261.5t178.5 168t295 58.5zM2076 683q2 -41 3.5 -87.5t1.5 -87.5v-67q0 -182 -45.5 -299t-141.5 -173t-249 -56q-110 0 -206 31t-157 91l95 109
q51 -41 115 -60.5t134 -19.5q146 0 210.5 87t64.5 267v36v43t-1 43h-817v143h993zM1088 1574q296 0 496 -81t301.5 -233t101.5 -367q0 -33 -1.5 -67t-5.5 -68h-179q3 30 4 61t1 59q0 170 -79.5 290t-239 183.5t-399.5 63.5q-237 0 -400 -63t-247 -182t-84 -287v-10
q0 -37 6 -74t19 -67l-184 43q-10 26 -15.5 56t-5.5 60v9q0 211 105 361.5t308 231.5t498 81z" />
    <glyph glyph-name="VowelIi.tm" unicode="&#xb88;" horiz-adv-x="1419" 
d="M853 0v1098h186v-1098h-186zM603 418q-56 0 -80.5 33t-24.5 101v25q0 67 25 99.5t80 32.5q56 0 81.5 -32.5t25.5 -99.5v-25q0 -68 -24 -101t-83 -33zM1273 418q-57 0 -81.5 33t-24.5 101v25q0 67 25 99.5t81 32.5t81 -32.5t25 -99.5v-25q0 -68 -24.5 -101t-81.5 -33z
M1065 1147v-153h-711v-994h-186v1147h897zM946 994v153h349l19 -153h-368z" />
    <glyph glyph-name="VowelU.tm" unicode="&#xb89;" horiz-adv-x="1781" 
d="M694 1210q285 0 418.5 -120t133.5 -339v-17q0 -141 -46 -240t-157.5 -154.5t-306.5 -66.5l-371 -20q-43 -2 -61 -15.5t-18 -41.5q0 -13 3 -28t7 -29h1481l-24 -139h-1582q-20 52 -33 107t-13 100q0 81 44 123t139 49l407 30q138 10 214.5 50.5t107.5 110t31 165.5v22
q0 149 -89.5 230.5t-289.5 81.5q-187 0 -280 -69.5t-97 -181.5h8v-77q0 -64 41 -102.5t122 -38.5q74 0 109.5 32t35.5 90v6q0 60 -34.5 89.5t-103.5 29.5q-45 0 -83 -17t-63.5 -47t-33.5 -69l-6 104h15q18 68 78 113t158 45q116 0 175 -59.5t59 -172.5v-6q0 -84 -33 -144
t-101 -92t-172 -32q-107 0 -182 37t-114 106.5t-39 166.5v14q0 192 139.5 304t406.5 112z" />
    <glyph glyph-name="VowelUu.tm" unicode="&#xb8a;" horiz-adv-x="3172" 
d="M990 0v138h2166l-24 -138h-2142zM2776 1116h166v-846h-166v846zM1920 1174q95 0 165 -20.5t118 -58t76.5 -87.5t41.5 -110h7l-1 251h805l20 -139h-712v-740h-167v384q0 187 -77 284.5t-262 97.5q-170 0 -253 -85.5t-85 -246.5v-1.5v-2.5h5v-139q0 -89 38.5 -138
t123.5 -49q75 0 110 43.5t35 120.5v44q0 154 -141 154q-44 0 -80.5 -18t-60.5 -48t-33 -68l-4 108h14q18 64 74.5 109t149.5 45q121 0 180.5 -70t59.5 -202v-44q0 -134 -71 -214t-229 -80q-112 0 -184 41t-106.5 116.5t-34.5 178.5v105q0 232 123 355.5t355 123.5zM694 1210
q285 0 418.5 -120t133.5 -339v-17q0 -141 -46 -240t-157.5 -154.5t-306.5 -66.5l-371 -20q-43 -2 -61 -15.5t-18 -41.5q0 -13 3 -28t7 -29h1481l-24 -139h-1582q-20 52 -33 107t-13 100q0 81 44 123t139 49l407 30q138 10 214.5 50.5t107.5 110t31 165.5v22
q0 149 -89.5 230.5t-289.5 81.5q-187 0 -280 -69.5t-97 -181.5h8v-77q0 -64 41 -102.5t122 -38.5q74 0 109.5 32t35.5 90v6q0 60 -34.5 89.5t-103.5 29.5q-45 0 -83 -17t-63.5 -47t-33.5 -69l-6 104h15q18 68 78 113t158 45q116 0 175 -59.5t59 -172.5v-6q0 -84 -33 -144
t-101 -92t-172 -32q-107 0 -182 37t-114 106.5t-39 166.5v14q0 192 139.5 304t406.5 112z" />
    <glyph glyph-name="VowelE.tm" unicode="&#xb8e;" horiz-adv-x="1493" 
d="M792 994v153h696l18 -153h-714zM1092 1097h185v-1097h-185v1097zM993 1147v-153h-211q-250 0 -366 -106t-116 -318v-5.5v-5.5h6v-203q0 -109 45 -170t143 -61q88 0 128 53t40 147v80q0 92 -39.5 139.5t-125.5 47.5q-51 0 -92.5 -21.5t-69 -57.5t-38.5 -79l-4 125h14
q18 79 85 135t179 56q137 0 204 -84t67 -243v-89q0 -108 -35.5 -188.5t-111.5 -124.5t-198 -44q-129 0 -211.5 51.5t-121.5 145.5t-39 221v162q0 190 71 321.5t215 200t363 68.5h219z" />
    <glyph glyph-name="VowelEe.tm" unicode="&#xb8f;" horiz-adv-x="1506" 
d="M1104 1100h186v-1362l-718 -100v150l532 86v1226zM802 994v153h699l18 -153h-717zM993 1147v-153h-211q-250 0 -366 -106t-116 -318v-5.5v-5.5h6v-203q0 -109 45 -170t143 -61q88 0 128 53t40 147v80q0 92 -39.5 139.5t-125.5 47.5q-51 0 -92.5 -21.5t-69 -57.5
t-38.5 -79l-4 125h14q18 79 85 135t179 56q137 0 204 -84t67 -243v-89q0 -108 -35.5 -188.5t-111.5 -124.5t-198 -44q-129 0 -211.5 51.5t-121.5 145.5t-39 221v162q0 190 71 321.5t215 200t363 68.5h219z" />
    <glyph glyph-name="VowelAi.tm" unicode="&#xb90;" horiz-adv-x="1912" 
d="M652 1184q148 0 243.5 -42t147 -117.5t66.5 -177.5h4q12 155 91 242t241 87q183 0 263 -105t80 -305v-81q0 -124 -24 -216.5t-80 -155t-151 -97t-238 -42.5l-648 -38q-114 -6 -182 -34t-98 -78t-30 -122v-3q0 -110 71.5 -172.5t223.5 -62.5q98 0 164.5 30t100.5 95.5
t34 172.5v74h183v-87q0 -102 29 -164.5t84.5 -91t134.5 -28.5q122 0 174 69t52 196q0 51 -4.5 101t-12.5 99l177 -9q9 -47 13 -96.5t4 -99.5q0 -133 -38 -225.5t-120 -140.5t-216 -48q-178 0 -267.5 83.5t-100.5 236.5h-5q-12 -154 -111.5 -237.5t-295.5 -83.5
q-230 0 -342.5 102.5t-112.5 283.5v5q0 126 49.5 208t152.5 125t266 53l636 39q133 8 209 48t107.5 115.5t31.5 189.5v90q0 122 -44.5 188t-149.5 66q-63 0 -109 -26.5t-71 -85.5t-25 -157v-312h-179v208q0 126 -35.5 212t-116 129.5t-214.5 43.5q-184 0 -277 -79t-94 -214
h9v-69q0 -87 41.5 -137t129.5 -50q78 0 113.5 39t35.5 109v12q0 66 -35.5 101.5t-110.5 35.5q-45 0 -83 -18t-63.5 -49t-36.5 -71l-7 107h14q17 71 75.5 120.5t164.5 49.5q130 0 191 -71.5t61 -200.5v-12q0 -134 -77 -212t-242 -78q-176 0 -262 97t-86 251v23q0 221 135 343
t392 122z" />
    <glyph glyph-name="VowelO.tm" unicode="&#xb92;" horiz-adv-x="1816" 
d="M907 1242q277 0 447.5 -79t249.5 -223t79 -339v-56q0 -97 -19.5 -168.5t-61 -117.5t-108.5 -66q-36 -16 -78.5 -25t-89.5 -9q-121 0 -194.5 43t-106.5 125.5t-33 200.5q0 66 4.5 128.5t10.5 121.5h170q-7 -66 -9.5 -124.5t-2.5 -125.5q0 -123 40.5 -185t134.5 -62
q89 0 127 57t38 172v80q0 157 -58.5 268t-190 170.5t-352.5 59.5q-303 0 -462.5 -117.5t-163.5 -335.5h6v-174q0 -104 45 -162t140 -58q86 0 124.5 50.5t38.5 139.5v62q0 87 -38.5 133t-121.5 46q-49 0 -90 -20t-68.5 -54t-38.5 -78l-5 125h15q20 76 85 128t173 52
q134 0 200 -81t66 -238v-62q0 -105 -34 -183t-108 -121t-193 -43q-128 0 -209.5 49.5t-120 140.5t-38.5 214v91q0 207 91.5 352.5t270 221.5t439.5 76zM1714 240l-19 -146h-231q-70 0 -94 -33.5t-27 -96.5l-2 -56q-6 -138 -48.5 -229.5t-128.5 -137t-223 -45.5
q-208 0 -313 109.5t-105 320.5q0 15 0.5 29t1.5 25l181 14q-1 -14 -2.5 -32.5t-1.5 -35.5q0 -145 60 -213.5t175 -68.5q113 0 164.5 63.5t58.5 202.5l4 63q6 86 40 127t106 52v12l132 76h272z" />
    <glyph glyph-name="VowelOo.tm" unicode="&#xb93;" horiz-adv-x="1816" 
d="M1714 240l-19 -146h-217q-70 0 -93 -34.5t-27 -99.5l-3 -56q-8 -146 -58 -242t-149 -143.5t-255 -47.5q-233 0 -350.5 93t-117.5 250v8q0 127 78.5 195.5t214.5 68.5q139 0 209.5 -62.5t70.5 -186.5v-8q0 -77 -28.5 -135.5t-98.5 -81.5v-17l-104 -1q29 35 48 90t19 118v4
q0 71 -30 105.5t-91 34.5t-94.5 -33.5t-33.5 -96.5v-5q0 -83 56 -136.5t163 -61.5l67 1v-7q7 -1 11.5 -1h8.5q144 1 213 73t77 232l3 56q5 90 38.5 132.5t103.5 52.5v12l135 76h253zM907 1242q277 0 447.5 -79t249.5 -223t79 -339v-56q0 -97 -19.5 -168.5t-61 -117.5
t-108.5 -66q-36 -16 -78.5 -25t-89.5 -9q-121 0 -194.5 43t-106.5 125.5t-33 200.5q0 66 4.5 128.5t10.5 121.5h170q-7 -66 -9.5 -124.5t-2.5 -125.5q0 -123 40.5 -185t134.5 -62q89 0 127 57t38 172v80q0 157 -58.5 268t-190 170.5t-352.5 59.5q-303 0 -462.5 -117.5
t-163.5 -335.5h6v-139q0 -103 45 -161.5t140 -58.5q86 0 124.5 50.5t38.5 139.5v27q0 87 -38.5 133t-121.5 46q-49 0 -90 -20t-68.5 -54t-38.5 -78l-5 125h12q20 76 86.5 128t174.5 52q134 0 200 -81t66 -238v-27q0 -105 -34 -183t-108 -121t-193 -43q-128 0 -209.5 50
t-120 140.5t-38.5 213.5v56q0 207 91.5 352.5t270 221.5t439.5 76z" />
    <glyph glyph-name="VowelAu.tm" unicode="&#xb94;" horiz-adv-x="3904" 
d="M907 1242q277 0 447.5 -79t249.5 -223t79 -339v-56q0 -97 -19.5 -168.5t-61 -117.5t-108.5 -66q-36 -16 -78.5 -25t-89.5 -9q-121 0 -194.5 43t-106.5 125.5t-33 200.5q0 66 4.5 128.5t10.5 121.5h170q-7 -66 -9.5 -124.5t-2.5 -125.5q0 -123 40.5 -185t134.5 -62
q89 0 127 57t38 172v80q0 157 -58.5 268t-190 170.5t-352.5 59.5q-303 0 -462.5 -117.5t-163.5 -335.5h6v-174q0 -104 45 -162t140 -58q86 0 124.5 50.5t38.5 139.5v62q0 87 -38.5 133t-121.5 46q-49 0 -90 -20t-68.5 -54t-38.5 -78l-5 125h15q20 76 85 128t173 52
q134 0 200 -81t66 -238v-62q0 -105 -34 -183t-108 -121t-193 -43q-128 0 -209.5 49.5t-120 140.5t-38.5 214v91q0 207 91.5 352.5t270 221.5t439.5 76zM1714 240l-19 -146h-231q-70 0 -94 -33.5t-27 -96.5l-2 -56q-6 -138 -48.5 -229.5t-128.5 -137t-223 -45.5
q-208 0 -313 109.5t-105 320.5q0 15 0.5 29t1.5 25l181 14q-1 -14 -2.5 -32.5t-1.5 -35.5q0 -145 60 -213.5t175 -68.5q113 0 164.5 63.5t58.5 202.5l4 63q6 86 40 127t106 52v12l132 76h272zM3502 1101h186v-1101h-186v1101zM2514 1174q111 0 191.5 -25t135 -70
t86.5 -105.5t45 -130.5h7l-2 304h683v-153h-556v-994h-186v547q0 232 -88.5 349.5t-300.5 117.5q-206 0 -306 -109t-102 -320v-12.5v-13.5h6v-203q0 -109 45 -170t143 -61q87 0 127 53t40 147v80q0 92 -39.5 139.5t-125.5 47.5q-51 0 -92.5 -21.5t-68.5 -57.5t-38 -79
l-5 125h15q18 79 85 135t178 56q137 0 204 -84t67 -243v-89q0 -108 -35.5 -188.5t-111.5 -124.5t-197 -44q-129 0 -211.5 51.5t-122 145.5t-39.5 221v177q0 193 63.5 327t190 204.5t315.5 70.5zM3549 994v153h349l19 -153h-368z" />
    <glyph glyph-name="Ka.tm" unicode="&#xb95;" horiz-adv-x="1614" 
d="M939 546v148h224q191 0 274 -76t83 -243v-57q0 -109 -34 -185.5t-107.5 -116.5t-192.5 -40q-71 0 -131 12.5t-99 28.5l-32 158l3 13q44 -26 95.5 -42t121.5 -16q71 0 113 23.5t60 67t18 103.5v43q0 98 -45.5 138.5t-149.5 40.5h-201zM908 690v-143h-482l-123 -17
q-2 -19 -3.5 -44t-2 -50.5t-0.5 -46.5q0 -128 66.5 -193t204.5 -65q131 0 188.5 65t57.5 198v230l7 22v450h169v-450v-22v-229q0 -136 -42 -229.5t-134.5 -141t-243.5 -47.5q-232 0 -341 108.5t-109 311.5q0 37 2 79t5.5 83t9.5 74l195 47l134 10h442zM1097 1147v-148h-180
l-21 9h-400l-8 -380h-167v519h776zM1031 999v148h274l19 -148h-293z" />
    <glyph glyph-name="Nga.tm" unicode="&#xb99;" horiz-adv-x="2109" 
d="M752 1095h186v-1095h-186v1095zM1219 762q139 0 205 -83t66 -238v-39q0 -110 -18 -178t-50 -121l-58 48h469v-151h-627v13q56 64 80 137.5t24 188.5v38q0 105 -40 161t-132 56q-75 0 -128.5 -44t-77.5 -121h-5v127h18q12 57 45.5 103.5t90.5 74.5t138 28zM1755 1147h186
v-1147h-186v1147zM1128 1147v-153h-774v-994h-186v1147h960zM1043 994v153h349l19 -153h-368z" />
    <glyph glyph-name="Ca.tm" unicode="&#xb9a;" horiz-adv-x="1375" 
d="M948 554v150h385l21 -150h-406zM908 690v-143h-482l-123 -17q-2 -19 -3.5 -44t-2 -50.5t-0.5 -46.5q0 -128 66.5 -193t204.5 -65q131 0 188.5 65t57.5 198v230l7 22v450h169v-450v-22v-229q0 -136 -42 -229.5t-134.5 -141t-243.5 -47.5q-232 0 -341 108.5t-109 311.5
q0 37 2 79t5.5 83t9.5 74l195 47l134 10h442zM1097 1147v-148h-180l-21 9h-400l-8 -380h-167v519h776zM970 999v148h274l19 -148h-293z" />
    <glyph glyph-name="Ja.tm" unicode="&#xb9c;" horiz-adv-x="1923" 
d="M652 1184q148 0 243.5 -42t147 -117.5t66.5 -177.5h4q12 155 91 242t241 87q183 0 263 -105t80 -305v-50q0 -121 -25 -208.5t-82 -146.5t-152.5 -95t-237.5 -53l-662 -81q-105 -13 -167 -40.5t-89 -74.5t-27 -121v-9q0 -94 49.5 -147t156.5 -53q64 0 110.5 19t88 51.5
t88.5 72.5l117 100q82 70 158.5 119.5t159 75.5t180.5 26q116 0 189 -34t107.5 -100t34.5 -164v-8q0 -154 -84.5 -232t-265.5 -78q-61 0 -120.5 9.5t-114.5 28.5l-37 158q58 -20 114 -31t116 -11q113 0 162 39t49 117v10q0 68 -36.5 106t-120.5 38q-94 0 -172.5 -34
t-163.5 -109l-119 -105q-71 -63 -132.5 -111.5t-134 -76.5t-178.5 -28q-184 0 -283 90.5t-99 256.5v10q0 123 46 202.5t142 124t244 62.5l659 80q138 17 214.5 56.5t107 111.5t30.5 184v56q0 122 -44.5 188t-149.5 66q-63 0 -109 -26.5t-71 -85.5t-25 -157v-312h-179v208
q0 126 -35.5 212t-116 129.5t-214.5 43.5q-184 0 -277 -79t-94 -214h9v-69q0 -87 41.5 -137t129.5 -50q78 0 113.5 39t35.5 109v12q0 66 -35.5 101.5t-110.5 35.5q-45 0 -83 -18t-63.5 -49t-36.5 -71l-7 107h14q17 71 75.5 120.5t164.5 49.5q130 0 191 -71.5t61 -200.5v-12
q0 -134 -77 -212t-242 -78q-176 0 -262 97t-86 251v23q0 221 135 343t392 122z" />
    <glyph glyph-name="Nya.tm" unicode="&#xb9e;" horiz-adv-x="2522" 
d="M1650 1099h186v-1099h-186v1099zM2113 755q161 0 231.5 -106.5t70.5 -312.5v-33q0 -279 -112 -466.5t-347 -281.5t-603 -94h-6q-406 0 -671.5 119t-395.5 361t-130 610q0 128 7.5 235t21.5 197t32 164h190q-21 -88 -34.5 -177t-20.5 -190t-7 -225q0 -319 106 -525.5
t328.5 -306.5t573.5 -100h6q307 0 499.5 74t283.5 225t91 380v17q0 134 -42 201.5t-145 67.5q-83 0 -138.5 -50t-75.5 -139h-14v153h31q20 88 87.5 145.5t182.5 57.5zM1956 1147v-153h-581v153h581zM1555 1147v-153h-211q-250 0 -366 -106t-116 -318v-5.5v-5.5h6v-203
q0 -109 45 -170t143 -61q88 0 128 53t40 147v80q0 92 -39.5 139.5t-125.5 47.5q-51 0 -92.5 -21.5t-69 -57.5t-38.5 -79l-4 125h14q18 79 85 135t179 56q137 0 204 -84t67 -243v-89q0 -108 -35.5 -188.5t-111.5 -124.5t-198 -44q-129 0 -211.5 51.5t-121.5 145.5t-39 221
v162q0 190 71 321.5t215 200t363 68.5h219zM1882 994v153h349l19 -153h-368z" />
    <glyph glyph-name="Tta.tm" unicode="&#xb9f;" horiz-adv-x="1481" 
d="M356 1147l-1 -992h1122l-21 -155h-1288v1147h188z" />
    <glyph glyph-name="Nna.tm" unicode="&#xba3;" horiz-adv-x="3388" 
d="M1881 1178q197 0 332 -32t220 -81l1 -6q101 -48 163 -124.5t90.5 -178.5t28.5 -225v-130q0 -129 -37 -224.5t-116.5 -147.5t-208.5 -52q-130 0 -212 52.5t-120.5 148t-38.5 223.5v130q0 123 30.5 227.5t100 181t186.5 115.5l80 -99q-80 -34 -126.5 -93.5t-65.5 -140.5
t-19 -182v-135q0 -86 18.5 -146.5t59 -92t105.5 -31.5t104 31.5t57 92t18 146.5v135q0 101 -19 182t-64 140.5t-124 93.5l-10 5q-45 19 -109.5 34t-146 24t-177.5 9q-146 0 -256 -20t-186 -50l-104 110q89 49 223 79.5t323 30.5zM2986 1017l186 -2v-1015h-186v1017z
M3114 1147v-151h-452q-82 0 -149 -4t-126 -12l41 151q50 6 111 11t140 5h435zM935 1180q197 0 332 -31.5t219 -81.5l2 -7q101 -48 163 -124.5t90 -178.5t28 -226v-130q0 -129 -37 -224.5t-116.5 -147.5t-208.5 -52q-130 0 -211.5 52.5t-120 148t-38.5 223.5v130
q0 124 30.5 228.5t100 181.5t185.5 116l81 -99q-80 -34 -126.5 -93.5t-66 -141t-19.5 -183.5v-135q0 -86 19 -146.5t60 -92t106 -31.5q64 0 103 31.5t56.5 92t17.5 146.5v135q0 102 -18.5 183.5t-63 141t-123.5 93.5l-12 4q-65 26 -169.5 44.5t-258.5 18.5q-318 0 -477 -118
t-162 -350v-8v-10h6v-183q0 -109 44.5 -170t142.5 -61q88 0 128 53t40 147v80q0 92 -39.5 139.5t-125.5 47.5q-51 0 -92.5 -21.5t-68.5 -57.5t-38 -79l-5 125h15q18 79 85 135t178 56q137 0 204 -84t67 -243v-89q0 -108 -35.5 -188.5t-111.5 -124.5t-197 -44
q-130 0 -212.5 51.5t-121.5 145.5t-39 221v143q0 207 92 350t272.5 217.5t446.5 74.5zM3033 994v153h349l19 -153h-368z" />
    <glyph glyph-name="Ta.tm" unicode="&#xba4;" horiz-adv-x="1615" 
d="M945 544v150h94q254 0 365 -102.5t111 -331.5v-51q0 -210 -63 -336.5t-208 -183.5t-392 -57h-338l-25 156h351q182 0 289 40t154 132t47 246v48q0 159 -70.5 224.5t-236.5 65.5h-78zM553 -212v-156h-165q-102 0 -175 -12t-129.5 -33.5t-110.5 -52.5l19 177q41 24 90 41
t120.5 26.5t178.5 9.5h172zM917 690v-143h-482l-123 -17q-2 -19 -3.5 -44t-2 -50.5t-0.5 -46.5q0 -128 66.5 -193t204.5 -65q131 0 188.5 65t57.5 198v230l7 22v450h169v-450v-22v-229q0 -136 -42 -229.5t-134.5 -141t-243.5 -47.5q-232 0 -341 108.5t-109 311.5q0 37 2 79
t5.5 83t9.5 74l195 47l134 10h442zM1106 1147v-148h-180l-21 9h-400l-8 -380h-167v519h776zM1047 999v148h274l19 -148h-293z" />
    <glyph glyph-name="Na.tm" unicode="&#xba8;" horiz-adv-x="1622" 
d="M740 1099h186v-1099h-186v1099zM1206 755q163 0 235 -106.5t72 -314.5v-89q0 -221 -65.5 -356t-216.5 -196t-410 -61h-378l-26 156h394q144 0 242.5 23t157.5 75t85.5 138.5t26.5 213.5v77q0 137 -43.5 205t-148.5 68q-82 0 -138 -51.5t-77 -137.5h-14v153h32
q19 88 87.5 145.5t184.5 57.5zM1053 1147v-153h-699v-994h-186v1147h885zM528 -212v-156h-165q-102 0 -175 -12t-129.5 -33.5t-110.5 -52.5l19 177q41 24 90 41t120 26.5t179 9.5h172zM973 994v153h349l19 -153h-368z" />
    <glyph glyph-name="Nnna.tm" unicode="&#xba9;" horiz-adv-x="2442" 
d="M2040 1017l186 -2v-1015h-186v1017zM2171 1147v-151h-456q-82 0 -148.5 -3.5t-126.5 -11.5l41 151q50 6 111.5 10.5t140.5 4.5h438zM934 1180q198 0 332.5 -32t219.5 -82l1 -7q102 -47 164 -123.5t90 -178.5t28 -226v-130q0 -129 -37 -224.5t-116.5 -147.5t-208.5 -52
q-130 0 -211.5 52.5t-120 148t-38.5 223.5v130q0 124 30.5 228.5t100 181t185.5 115.5l80 -99q-80 -34 -126 -93t-65.5 -140.5t-19.5 -183.5v-135q0 -86 19 -146.5t60 -92t106 -31.5q64 0 103 31.5t56.5 92t17.5 146.5v135q0 102 -18.5 183.5t-63.5 140.5t-124 93l-11 4
q-66 27 -170 45.5t-259 18.5q-317 0 -476 -118t-162 -350v-8v-10h6v-183q0 -109 44.5 -170t142.5 -61q88 0 128 53t40 147v80q0 92 -39.5 139.5t-125.5 47.5q-51 0 -92.5 -21.5t-68.5 -57.5t-38 -79l-5 125h15q18 79 85 135t178 56q137 0 204 -84t67 -243v-89
q0 -108 -35.5 -188.5t-111.5 -124.5t-197 -44q-130 0 -212.5 51.5t-121.5 145.5t-39 221v143q0 207 92 350t272.5 217.5t445.5 74.5zM2087 994v153h349l19 -153h-368z" />
    <glyph glyph-name="Pa.tm" unicode="&#xbaa;" horiz-adv-x="1469" 
d="M1111 1147h190v-1147h-635v158h445v989zM357 1147v-989h544v-158h-733v1147h189z" />
    <glyph glyph-name="Ma.tm" unicode="&#xbae;" horiz-adv-x="1686" 
d="M168 1147h186v-994h661q140 0 215.5 35.5t104.5 115.5t29 213v166q0 106 -28.5 175t-97 103t-189.5 34h-97v-949h-186v1101h273q187 0 300 -50.5t163.5 -154t50.5 -261.5v-160q0 -187 -52.5 -301.5t-173 -167t-325.5 -52.5h-834v1147z" />
    <glyph glyph-name="Ya.tm" unicode="&#xbaf;" horiz-adv-x="1973" 
d="M1616 1147h189v-1147h-560v158h371v989zM1388 0h-598l2 222h-9q-16 -112 -87.5 -177.5t-209.5 -65.5q-157 0 -240 94.5t-83 296.5v777h186v-774q0 -123 47.5 -179t134.5 -56q103 0 150.5 67.5t47.5 212.5v729h190v-989h469v-158z" />
    <glyph glyph-name="Ra.tm" unicode="&#xbb0;" horiz-adv-x="1161" 
d="M945 1098v-1337l-823 -106v154l637 90v1199h186zM898 1147v-153h-544v-994h-186v1147h730zM806 994v153h349l19 -153h-368z" />
    <glyph glyph-name="Rra.tm" unicode="&#xbb1;" horiz-adv-x="1661" 
d="M514 1171q144 0 217 -73t86 -208h7q17 136 104 209t246 73q176 0 258.5 -90t82.5 -255v-13q0 -130 -59.5 -209t-183.5 -90v-6q87 -5 147.5 -42.5t91.5 -109t31 -181.5v-36q0 -181 -55.5 -293t-190.5 -163.5t-374 -51.5h-492l-26 156h501q175 0 273 35.5t137.5 115
t39.5 212.5v33q0 130 -58.5 186t-178.5 60l-73 3v148l75 2q116 3 166.5 57.5t50.5 150.5v13q0 101 -47 155.5t-154 54.5q-71 0 -122.5 -26.5t-78.5 -84t-27 -152.5v-751h-186v775q0 125 -43.5 181.5t-141.5 56.5q-90 0 -140 -57t-50 -181v-775h-186v765q0 210 91 308t262 98
zM521 -212v-156h-165q-102 0 -175 -12t-129.5 -33.5t-110.5 -52.5l19 177q41 24 90 41t120 26.5t179 9.5h172z" />
    <glyph glyph-name="La.tm" unicode="&#xbb2;" horiz-adv-x="1977" 
d="M708 1174q197 0 317 -66.5t174.5 -196t54.5 -317.5v-169q0 -146 47.5 -217.5t156.5 -71.5q107 0 152 77t45 225v242q0 108 -22.5 182t-78 112.5t-153.5 38.5q-25 0 -46.5 -2.5t-41.5 -5.5l27 159q21 5 47 7.5t52 2.5q154 0 242 -57t125.5 -166.5t37.5 -265.5v-241
q0 -152 -39 -256t-124 -157.5t-223 -53.5q-205 0 -298 113.5t-93 330.5v169q0 140 -36.5 234.5t-116 142t-209.5 47.5q-202 0 -300 -111t-100 -326v-9v-9h6v-203q0 -109 45 -170t143 -61q87 0 127 53t40 147v80q0 92 -39.5 139.5t-125.5 47.5q-51 0 -92.5 -21.5t-68.5 -57.5
t-38 -79l-5 125h15q18 79 85 135t178 56q137 0 204 -84t67 -243v-89q0 -108 -35.5 -188.5t-111.5 -124.5t-197 -44q-129 0 -211.5 51.5t-122 145.5t-39.5 221v169q0 196 64.5 332t193.5 207t321 71z" />
    <glyph glyph-name="Lla.tm" unicode="&#xbb3;" horiz-adv-x="2088" 
d="M1686 1101h186v-1101h-186v1101zM698 1174q111 0 191.5 -25t135 -70t86.5 -105.5t45 -130.5h7l-2 304h683v-153h-556v-994h-186v547q0 232 -88.5 349.5t-300.5 117.5q-206 0 -306 -109t-102 -320v-12.5v-13.5h6v-203q0 -109 45 -170t143 -61q87 0 127 53t40 147v80
q0 92 -39.5 139.5t-125.5 47.5q-51 0 -92.5 -21.5t-68.5 -57.5t-38 -79l-5 125h15q18 79 85 135t178 56q137 0 204 -84t67 -243v-89q0 -108 -35.5 -188.5t-111.5 -124.5t-197 -44q-129 0 -211.5 51.5t-122 145.5t-39.5 221v177q0 193 63.5 327t190 204.5t315.5 70.5z
M1733 994v153h349l19 -153h-368z" />
    <glyph glyph-name="Llla.tm" unicode="&#xbb4;" horiz-adv-x="1686" 
d="M765 -652q-196 0 -295.5 97t-99.5 275q0 32 2.5 59t4.5 49h180q-2 -23 -4.5 -52t-2.5 -60q0 -111 54.5 -166.5t160.5 -55.5q64 0 104 20.5t65.5 57.5t47.5 84l5 12q10 19 19.5 30t23.5 13v6q-98 6 -155.5 35t-82 86.5t-24.5 147.5v98h182v-87q0 -60 16.5 -96.5t58.5 -53
t119 -16.5h217l-24 -144h-102q-29 0 -41.5 -11.5t-23.5 -35.5l-7 -17q-37 -85 -83 -146.5t-120 -95t-195 -33.5zM168 1147h186v-994h661q140 0 215.5 35.5t104.5 115.5t29 213v166q0 106 -28.5 175t-97 103t-189.5 34h-97v-949h-186v1101h273q187 0 300 -50.5t163.5 -154
t50.5 -261.5v-160q0 -187 -52.5 -301.5t-173 -167t-325.5 -52.5h-834v1147z" />
    <glyph glyph-name="Va.tm" unicode="&#xbb5;" horiz-adv-x="1985" 
d="M1631 1147h186v-1147h-547l-5 153h366v994zM734 1174q206 0 331.5 -68t182.5 -196.5t57 -311.5v-80q0 -103 -14 -183t-43 -144t-73 -119l-17 81h377v-153h-546v13q45 67 73 137.5t41 154.5t13 190v86q0 141 -39 237t-125 145.5t-227 49.5q-211 0 -315 -111t-106 -327
v-7.5v-8.5h6v-203q0 -109 45 -170t143 -61q88 0 128 53t40 147v80q0 92 -39.5 139.5t-125.5 47.5q-51 0 -92.5 -21.5t-69 -57.5t-38.5 -79l-4 125h14q19 74 87 127.5t182 53.5q134 0 200 -81t66 -236v-89q0 -108 -35.5 -188.5t-111.5 -124.5t-198 -44q-129 0 -211.5 51.5
t-121.5 145.5t-39 221v168q0 196 68 332.5t202.5 207.5t334.5 71z" />
    <glyph glyph-name="Sha.tm" unicode="&#xbb6;" horiz-adv-x="2147" 
d="M163 1147h187v-759q0 -133 48 -193t147 -60t146 60t47 193v759h187v-756q0 -138 -38.5 -230t-122.5 -138.5t-219 -46.5t-219.5 46.5t-123.5 139t-39 230.5v755zM1230 1147h187v-759q0 -133 47 -193t143 -60q98 0 144 60.5t46 193.5v758h187v-755q0 -138 -38.5 -230.5
t-121.5 -139t-217 -46.5q-133 0 -216.5 46.5t-122 139t-38.5 230.5v755zM788 1147h1124v-153h-1124v153z" />
    <glyph glyph-name="Ssa.tm" unicode="&#xbb7;" horiz-adv-x="2576" 
d="M734 1174q206 0 331.5 -68t182.5 -196.5t57 -311.5v-80q0 -103 -14 -183t-43 -144t-73 -119l-17 81h377v-153h-546v13q45 67 73 137.5t41 154.5t13 190v86q0 141 -39 237t-125 145.5t-227 49.5q-211 0 -315 -111t-106 -327v-7.5v-8.5h6v-203q0 -109 45 -170t143 -61
q88 0 128 53t40 147v80q0 92 -39.5 139.5t-125.5 47.5q-51 0 -92.5 -21.5t-69 -57.5t-38.5 -79l-4 125h14q19 74 87 127.5t182 53.5q134 0 200 -81t66 -236v-89q0 -108 -35.5 -188.5t-111.5 -124.5t-198 -44q-129 0 -211.5 51.5t-121.5 145.5t-39 221v168q0 196 68 332.5
t202.5 207.5t334.5 71zM1273 153h663l52 -25l48 25h526l-22 -153h-1267v153zM1988 1173q208 0 307.5 -117t99.5 -322v-168q0 -189 -78.5 -315t-273.5 -191l-81 61q93 35 146.5 92t75.5 135.5t22 178.5v194q0 139 -51.5 215t-166.5 76t-166.5 -76t-51.5 -215v-194
q0 -100 22 -178.5t75.5 -135.5t146.5 -92l-82 -61q-195 65 -273 191t-78 315v168q0 205 99.5 322t307.5 117zM2026 -512q-185 0 -269 67.5t-84 205.5v8q0 105 57.5 168.5t159.5 98.5l21 7l111 -32l-27 -13q-68 -32 -104 -75.5t-36 -117.5v-3q0 -74 45.5 -116t158.5 -42
q41 0 77.5 3.5t74 10t83.5 15.5l-28 -158q-56 -13 -115.5 -20t-124.5 -7z" />
    <glyph glyph-name="Sa.tm" unicode="&#xbb8;" horiz-adv-x="2557" 
d="M698 1174q150 0 250 -46.5t154.5 -131t68.5 -199.5h7v26q0 173 80 261.5t240 88.5q169 0 247.5 -99t78.5 -305v-334q0 -154 48.5 -226.5t161.5 -72.5q110 0 155.5 78t45.5 227v249q0 105 -22.5 177t-77 109t-151.5 37q-22 0 -40 -2t-35 -4l28 159q20 3 43.5 5.5t48.5 2.5
q147 0 233.5 -56t124 -163t37.5 -260v-248q0 -229 -92 -349.5t-298 -120.5q-210 0 -303 115t-93 345v327q0 134 -41 192.5t-133 58.5q-88 0 -135 -58t-47 -191v-766h-186v557q0 149 -37 251t-121.5 154t-227.5 52q-205 0 -304 -110.5t-101 -325.5v-9.5v-9.5h6v-203
q0 -109 45 -170t143 -61q87 0 127 53t40 147v80q0 92 -39.5 139.5t-125.5 47.5q-51 0 -92.5 -21.5t-68.5 -57.5t-38 -79l-5 125h15q18 79 85 135t178 56q137 0 204 -84t67 -243v-89q0 -108 -35.5 -188.5t-111.5 -124.5t-197 -44q-129 0 -211.5 51.5t-122 145.5t-39.5 221
v170q0 196 63.5 331.5t190 206.5t315.5 71z" />
    <glyph glyph-name="Ha.tm" unicode="&#xbb9;" horiz-adv-x="3101" 
d="M1357 153h342v-153h-342v153zM1773 -212v-156h-1294l-26 156h1320zM730 1174q206 0 331.5 -68t182.5 -196.5t57 -311.5v-80q0 -103 -14 -183t-43 -144t-73 -119l-17 81h377v-153h-546v13q44 67 72.5 137.5t41.5 154.5t13 190v86q0 141 -39 237t-125.5 145.5t-226.5 49.5
q-212 0 -315.5 -111t-105.5 -327v-7.5v-8.5h6v-203q0 -109 45 -170t143 -61q88 0 128 53t40 147v80q0 92 -39.5 139.5t-125.5 47.5q-52 0 -93 -21.5t-68.5 -57.5t-38.5 -79l-4 125h14q19 74 87 127.5t182 53.5q134 0 200 -81t66 -236v-89q0 -108 -35.5 -188.5t-112 -124.5
t-197.5 -44q-130 0 -212 51.5t-121 145.5t-39 221v168q0 196 68 332.5t202.5 207.5t334.5 71zM579 -212v-156h-165q-102 0 -175 -12t-129.5 -33.5t-110.5 -52.5l19 177q41 24 90 41t120.5 26.5t178.5 9.5h172zM1954 1171q144 0 217 -73t86 -208h7q17 136 104 209t246 73
q176 0 258.5 -90t82.5 -255v-13q0 -130 -59.5 -209t-183.5 -90v-6q87 -5 147.5 -42.5t91.5 -109t31 -181.5v-36q0 -181 -55.5 -293t-190.5 -163.5t-374 -51.5h-849l-26 156h858q175 0 273 35.5t137.5 115t39.5 212.5v33q0 130 -58.5 186t-178.5 60l-73 3v148l75 2
q116 3 166.5 57.5t50.5 150.5v13q0 67 -20.5 114t-65 71.5t-115.5 24.5t-122.5 -26.5t-78.5 -84t-27 -152.5v-751h-186v775q0 125 -43.5 181.5t-141.5 56.5q-90 0 -140 -57t-50 -181v-775h-186v765q0 210 91 308t262 98z" />
    <glyph glyph-name="Kssa.tm" horiz-adv-x="3241" 
d="M916 544v150h168q151 0 215 -57t76 -182h8v11q0 150 84 236.5t241 86.5q161 0 235.5 -83.5t74.5 -241.5v-63q0 -109 -24.5 -177t-63.5 -121l-37 50h452v-153h-612v13q52 65 78.5 139.5t26.5 189.5v70q0 106 -40.5 163t-132.5 57q-59 0 -103.5 -27.5t-68.5 -83.5t-24 -142
v-379h-184v314q0 86 -20 136t-67 72t-129 22h-153zM908 690v-143h-482l-123 -17q-2 -19 -3.5 -44t-2 -50.5t-0.5 -46.5q0 -128 66.5 -193t204.5 -65q131 0 188.5 65t57.5 198v230l7 22v450h169v-450v-22v-229q0 -136 -42 -229.5t-134.5 -141t-243.5 -47.5q-232 0 -341 108.5
t-109 311.5q0 37 2 79t5.5 83t9.5 74l195 47l134 10h442zM1097 1147v-148h-180l-21 9h-400l-8 -380h-167v519h776zM1938 153h663l52 -25l48 25h526l-22 -153h-1267v153zM2653 1173q208 0 307.5 -117t99.5 -322v-168q0 -189 -78.5 -315t-273.5 -191l-81 61q93 35 146.5 92
t75.5 135.5t22 178.5v194q0 139 -51.5 215t-166.5 76t-166.5 -76t-51.5 -215v-194q0 -100 22 -178.5t75.5 -135.5t146.5 -92l-82 -61q-195 65 -273 191t-78 315v168q0 205 99.5 322t307.5 117zM2691 -512q-185 0 -269 67.5t-84 205.5v8q0 105 57.5 168.5t159.5 98.5l21 7
l111 -32l-27 -13q-68 -32 -104 -75.5t-36 -117.5v-3q0 -74 46 -116t158 -42q42 0 78 3.5t73.5 10t83.5 15.5l-28 -158q-55 -13 -115 -20t-125 -7zM1036 999v148h274l19 -148h-293z" />
    <glyph glyph-name="TtaPulli.tm" horiz-adv-x="1481" 
d="M356 1147l-1 -992h1122l-21 -155h-1288v1147h188zM889 1310q-62 0 -91 32.5t-29 91.5v18q0 59 29.5 90t90.5 31q62 0 91 -31t29 -90v-18q0 -59 -28.5 -91.5t-91.5 -32.5z" />
    <glyph glyph-name="RaPulli_Alt.tm" horiz-adv-x="1154" 
d="M752 1098h186v-1098h-186v1098zM901 1147v-153h-547v-994h-186v1147h733zM799 994v153h349l19 -153h-368zM551 1311q-62 0 -91 32.5t-29 91.5v18q0 59 29.5 90t90.5 31q62 0 91 -31t29 -90v-18q0 -59 -28.5 -91.5t-91.5 -32.5z" />
    <glyph glyph-name="KaMatraI.tm" horiz-adv-x="1654" 
d="M939 546v148h224q191 0 274 -76t83 -243v-57q0 -109 -34 -185.5t-107.5 -116.5t-192.5 -40q-71 0 -131 12.5t-99 28.5l-32 158l3 13q44 -26 95.5 -42t121.5 -16q71 0 113 23.5t60 67t18 103.5v43q0 98 -45.5 138.5t-149.5 40.5h-201zM1162 1742q139 0 225 -49
t126.5 -148.5t40.5 -252.5v-531h-181v537q0 149 -48.5 218t-165.5 69q-109 0 -161.5 -62t-52.5 -187v-5q0 -61 12 -109t32 -83h-175q-22 35 -36.5 94.5t-14.5 120.5v6q0 176 101 279t298 103zM908 690v-143h-482l-123 -17q-2 -19 -3.5 -44t-2 -50.5t-0.5 -46.5
q0 -128 66.5 -193t204.5 -65q131 0 188.5 65t57.5 198v230l7 22v450h169v-450v-22v-229q0 -136 -42 -229.5t-134.5 -141t-243.5 -47.5q-232 0 -341 108.5t-109 311.5q0 37 2 79t5.5 83t9.5 74l195 47l134 10h442zM1097 1147v-148h-180l-21 9h-400l-8 -380h-167v519h776z
M957 999v148h274l19 -148h-293z" />
    <glyph glyph-name="NgaMatraI.tm" horiz-adv-x="2739" 
d="M752 1095h186v-1095h-186v1095zM1219 762q139 0 205 -83t66 -238v-39q0 -110 -18 -178t-50 -121l-58 48h569v-151h-727v13q56 64 80 137.5t24 188.5v38q0 105 -40 161t-132 56q-75 0 -128.5 -44t-77.5 -121h-5v127h18q12 57 45.5 103.5t90.5 74.5t138 28zM1853 1147h186
v-1147h-186v1147zM1991 1742q202 0 330 -67.5t189 -201t61 -333.5v-1140h-186v1149q0 148 -39.5 244t-126 142.5t-228.5 46.5q-127 0 -214.5 -43.5t-132 -126.5t-44.5 -202v-24q0 -139 67 -220.5t203 -92.5v-160q-145 10 -246 66t-154 159t-53 254v20q0 167 66 285.5
t194 181.5t314 63zM1128 1147v-153h-774v-994h-186v1147h960zM928 994v153h349l19 -153h-368z" />
    <glyph glyph-name="CaMatraI.tm" horiz-adv-x="1779" 
d="M958 554v150h335l20 -150h-355zM1188 1742q149 0 242.5 -49.5t137 -150.5t43.5 -257v-1285h-186v1291q0 152 -54.5 222.5t-184.5 70.5q-121 0 -181 -64.5t-60 -192.5v-4q0 -60 11.5 -105t32.5 -79h-175q-22 35 -36 90.5t-14 116.5v5q0 181 108 286t316 105zM908 690v-143
h-482l-123 -17q-2 -19 -3.5 -44t-2 -50.5t-0.5 -46.5q0 -128 66.5 -193t204.5 -65q131 0 188.5 65t57.5 198v230l7 22v450h169v-450v-22v-229q0 -136 -42 -229.5t-134.5 -141t-243.5 -47.5q-232 0 -341 108.5t-109 311.5q0 37 2 79t5.5 83t9.5 74l195 47l134 10h442z
M1097 1147v-148h-180l-21 9h-400l-8 -380h-167v519h776zM944 999v148h274l19 -148h-293z" />
    <glyph glyph-name="JaMatraI.tm" horiz-adv-x="2438" 
d="M1812 1742q160 0 261 -54.5t149 -165.5t48 -281v-1241h-186v1246q0 173 -63 254.5t-211 81.5q-136 0 -206 -71t-70 -205v-2q0 -50 9 -91t26 -70h-177q-18 32 -29 81.5t-11 102.5v4q0 125 52.5 217t155 143t252.5 51zM652 1184q148 0 243.5 -42t147 -117.5t66.5 -177.5h4
q12 155 91 242t241 87q183 0 263 -105t80 -305v-50q0 -121 -25 -208.5t-82 -146.5t-152.5 -95t-237.5 -53l-662 -81q-105 -13 -167 -40.5t-89 -74.5t-27 -121v-9q0 -94 49.5 -147t156.5 -53q64 0 110.5 19t88 51.5t88.5 72.5l117 100q82 70 158.5 119.5t159 75.5t180.5 26
q116 0 189 -34t107.5 -100t34.5 -164v-8q0 -154 -84.5 -232t-265.5 -78q-61 0 -120.5 9.5t-114.5 28.5l-37 158q58 -20 114 -31t116 -11q113 0 162 39t49 117v10q0 68 -36.5 106t-120.5 38q-94 0 -172.5 -34t-163.5 -109l-119 -105q-71 -63 -132.5 -111.5t-134 -76.5
t-178.5 -28q-184 0 -283 90.5t-99 256.5v10q0 123 46 202.5t142 124t244 62.5l659 80q138 17 214.5 56.5t107 111.5t30.5 184v56q0 122 -44.5 188t-149.5 66q-63 0 -109 -26.5t-71 -85.5t-25 -157v-312h-179v208q0 126 -35.5 212t-116 129.5t-214.5 43.5q-184 0 -277 -79
t-94 -214h9v-69q0 -87 41.5 -137t129.5 -50q78 0 113.5 39t35.5 109v12q0 66 -35.5 101.5t-110.5 35.5q-45 0 -83 -18t-63.5 -49t-36.5 -71l-7 107h14q17 71 75.5 120.5t164.5 49.5q130 0 191 -71.5t61 -200.5v-12q0 -134 -77 -212t-242 -78q-176 0 -262 97t-86 251v23
q0 221 135 343t392 122z" />
    <glyph glyph-name="NyaMatraI.tm" horiz-adv-x="2550" 
d="M1650 1099h186v-1099h-186v1099zM2113 755q161 0 231.5 -106.5t70.5 -312.5v-33q0 -279 -112 -466.5t-347 -281.5t-603 -94h-6q-406 0 -671.5 119t-395.5 361t-130 610q0 128 7.5 235t21.5 197t32 164h190q-21 -88 -34.5 -177t-20.5 -190t-7 -225q0 -319 106 -525.5
t328.5 -306.5t573.5 -100h6q307 0 499.5 74t283.5 225t91 380v17q0 134 -42 201.5t-145 67.5q-83 0 -138.5 -50t-75.5 -139h-14v153h31q20 88 87.5 145.5t182.5 57.5zM1956 1147v-153h-581v153h581zM2012 1742q139 0 226 -49t127.5 -149t40.5 -254v-456h-181v462
q0 150 -48.5 219.5t-167.5 69.5q-110 0 -164 -63t-54 -188v-3q0 -61 12 -109t32 -83h-175q-22 35 -36.5 94.5t-14.5 120.5v4q0 178 102 281t301 103zM1555 1147v-153h-211q-250 0 -366 -106t-116 -318v-5.5v-5.5h6v-203q0 -109 45 -170t143 -61q88 0 128 53t40 147v80
q0 92 -39.5 139.5t-125.5 47.5q-51 0 -92.5 -21.5t-69 -57.5t-38.5 -79l-4 125h14q18 79 85 135t179 56q137 0 204 -84t67 -243v-89q0 -108 -35.5 -188.5t-111.5 -124.5t-198 -44q-129 0 -211.5 51.5t-121.5 145.5t-39 221v162q0 190 71 321.5t215 200t363 68.5h219z
M1725 994v153h349l19 -153h-368z" />
    <glyph glyph-name="TtaMatraI.tm" horiz-adv-x="1671" 
d="M463 153v-153h-295v1141h188v-988h107zM368 153h663l52 -25l48 25h526l-22 -153h-1267v153zM1083 1173q208 0 307.5 -117t99.5 -322v-168q0 -189 -78.5 -315t-273.5 -191l-81 61q93 35 146 92t75.5 135.5t22.5 178.5v194q0 139 -51.5 215t-166.5 76t-166.5 -76
t-51.5 -215v-194q0 -100 22 -178.5t75.5 -135.5t146.5 -92l-82 -61q-195 65 -273 191t-78 315v168q0 205 99.5 322t307.5 117zM1111 -512q-185 0 -269 67.5t-84 205.5v8q0 105 57.5 168.5t159.5 98.5l21 7l111 -32l-27 -13q-68 -32 -104 -75.5t-36 -117.5v-3q0 -74 46 -116
t158 -42q42 0 78 3.5t73.5 10t83.5 15.5l-28 -158q-55 -13 -115 -20t-125 -7z" />
    <glyph glyph-name="NnaMatraI.tm" horiz-adv-x="3925" 
d="M1881 1178q197 0 332 -32t220 -81l1 -6q101 -48 163 -124.5t90.5 -178.5t28.5 -225v-130q0 -129 -37 -224.5t-116.5 -147.5t-208.5 -52q-130 0 -212 52.5t-120.5 148t-38.5 223.5v130q0 123 30.5 227.5t100 181t186.5 115.5l80 -99q-80 -34 -126.5 -93.5t-65.5 -140.5
t-19 -182v-135q0 -86 18.5 -146.5t59 -92t105.5 -31.5t104 31.5t57 92t18 146.5v135q0 101 -19 182t-64 140.5t-124 93.5l-10 5q-45 19 -109.5 34t-146 24t-177.5 9q-146 0 -256 -20t-186 -50l-104 110q89 49 223 79.5t323 30.5zM2986 1017l186 -2v-1015h-186v1017z
M3114 1147v-151h-452q-82 0 -149 -4t-126 -12l41 151q50 6 111 11t140 5h435zM935 1180q197 0 332 -31.5t219 -81.5l2 -7q101 -48 163 -124.5t90 -178.5t28 -226v-130q0 -129 -37 -224.5t-116.5 -147.5t-208.5 -52q-130 0 -211.5 52.5t-120 148t-38.5 223.5v130
q0 124 30.5 228.5t100 181.5t185.5 116l81 -99q-80 -34 -126.5 -93.5t-66 -141t-19.5 -183.5v-135q0 -86 19 -146.5t60 -92t106 -31.5q64 0 103 31.5t56.5 92t17.5 146.5v135q0 102 -18.5 183.5t-63 141t-123.5 93.5l-12 4q-65 26 -169.5 44.5t-258.5 18.5q-318 0 -477 -118
t-162 -350v-8v-10h6v-183q0 -109 44.5 -170t142.5 -61q88 0 128 53t40 147v80q0 92 -39.5 139.5t-125.5 47.5q-51 0 -92.5 -21.5t-68.5 -57.5t-38 -79l-5 125h15q18 79 85 135t178 56q137 0 204 -84t67 -243v-89q0 -108 -35.5 -188.5t-111.5 -124.5t-197 -44
q-130 0 -212.5 51.5t-121.5 145.5t-39 221v143q0 207 92 350t272.5 217.5t446.5 74.5zM3029 994v153h349l19 -153h-368zM3352 1742q143 0 232.5 -49t131 -148.5t41.5 -253.5v-1291h-186v1297q0 149 -50 218.5t-171 69.5q-113 0 -167.5 -62.5t-54.5 -187.5v-4
q0 -61 11.5 -109t31.5 -83h-175q-21 35 -35.5 94.5t-14.5 120.5v5q0 177 102.5 280t303.5 103z" />
    <glyph glyph-name="TaMatraI.tm" horiz-adv-x="1667" 
d="M930 544v150h94q254 0 365 -102.5t111 -331.5v-51q0 -210 -63 -336.5t-207.5 -183.5t-391.5 -57h-339l-25 156h352q181 0 288 40t154 132t47 246v48q0 159 -70.5 224.5t-236.5 65.5h-78zM1171 1742q139 0 225 -49t126.5 -148.5t40.5 -252.5v-544h-182v550q0 149 -48 218
t-165 69q-109 0 -162 -62t-53 -187v-5q0 -61 12 -109t33 -83h-175q-22 35 -36.5 94.5t-14.5 120.5v6q0 176 100.5 279t298.5 103zM553 -212v-156h-165q-102 0 -175 -12t-129.5 -33.5t-110.5 -52.5l19 177q41 24 90 41t120.5 26.5t178.5 9.5h172zM917 690v-143h-482l-123 -17
q-2 -19 -3.5 -44t-2 -50.5t-0.5 -46.5q0 -128 66.5 -193t204.5 -65q131 0 188.5 65t57.5 198v230l7 22v450h169v-450v-22v-229q0 -136 -42 -229.5t-134.5 -141t-243.5 -47.5q-232 0 -341 108.5t-109 311.5q0 37 2 79t5.5 83t9.5 74l195 47l134 10h442zM1106 1147v-148h-180
l-21 9h-400l-8 -380h-167v519h776zM956 999v148h274l19 -148h-293z" />
    <glyph glyph-name="NaMatraI.tm" horiz-adv-x="1643" 
d="M741 1099h185v-1099h-185v1099zM1206 755q163 0 235 -106.5t72 -314.5v-89q0 -221 -65.5 -356t-216.5 -196t-410 -61h-378l-26 156h394q144 0 242.5 23t157.5 75t85.5 138.5t26.5 213.5v77q0 137 -43.5 205t-148.5 68q-82 0 -138 -51.5t-77 -137.5h-14v153h32
q19 88 87.5 145.5t184.5 57.5zM1053 1147v-153h-699v-994h-186v1147h885zM1101 1742q140 0 227 -49t128 -149t41 -254v-456h-182v462q0 150 -49 219.5t-168 69.5q-110 0 -163.5 -63t-53.5 -188v-3q0 -61 12 -109t32 -83h-175q-21 35 -36 94.5t-15 120.5v4q0 178 101.5 281
t300.5 103zM528 -212v-156h-165q-102 0 -175 -12t-129.5 -33.5t-110.5 -52.5l19 177q41 24 90 41t120 26.5t179 9.5h172zM814 994v153h349l19 -153h-368z" />
    <glyph glyph-name="NnnaMatraI.tm" horiz-adv-x="2979" 
d="M2040 1017l186 -2v-1015h-186v1017zM2171 1147v-151h-456q-82 0 -148.5 -3.5t-126.5 -11.5l41 151q50 6 111.5 10.5t140.5 4.5h438zM934 1180q198 0 332.5 -32t219.5 -82l1 -7q102 -47 164 -123.5t90 -178.5t28 -226v-130q0 -129 -37 -224.5t-116.5 -147.5t-208.5 -52
q-130 0 -211.5 52.5t-120 148t-38.5 223.5v130q0 124 30.5 228.5t100 181t185.5 115.5l80 -99q-80 -34 -126 -93t-65.5 -140.5t-19.5 -183.5v-135q0 -86 19 -146.5t60 -92t106 -31.5q64 0 103 31.5t56.5 92t17.5 146.5v135q0 102 -18.5 183.5t-63.5 140.5t-124 93l-11 4
q-66 27 -170 45.5t-259 18.5q-317 0 -476 -118t-162 -350v-8v-10h6v-183q0 -109 44.5 -170t142.5 -61q88 0 128 53t40 147v80q0 92 -39.5 139.5t-125.5 47.5q-51 0 -92.5 -21.5t-68.5 -57.5t-38 -79l-5 125h15q18 79 85 135t178 56q137 0 204 -84t67 -243v-89
q0 -108 -35.5 -188.5t-111.5 -124.5t-197 -44q-130 0 -212.5 51.5t-121.5 145.5t-39 221v143q0 207 92 350t272.5 217.5t445.5 74.5zM2083 994v153h349l19 -153h-368zM2406 1742q144 0 233 -49t130.5 -148.5t41.5 -253.5v-1291h-186v1297q0 149 -50 218.5t-171 69.5
q-112 0 -167 -62.5t-55 -187.5v-4q0 -61 11.5 -109t31.5 -83h-175q-21 35 -35.5 94.5t-14.5 120.5v5q0 177 102.5 280t303.5 103z" />
    <glyph glyph-name="PaMatraI.tm" horiz-adv-x="2059" 
d="M1171 1147h188v-1147h-630v158h442v989zM357 1147v-989h594v-158h-783v1147h189zM1311 1742q202 0 330 -67.5t189 -201t61 -333.5v-1140h-186v1149q0 148 -39.5 244t-126 142.5t-228.5 46.5q-127 0 -214 -43.5t-131.5 -126.5t-44.5 -202v-24q0 -139 67 -220.5t203 -92.5
l-1 -160q-145 10 -246 66t-153.5 159t-52.5 254v20q0 167 66 285.5t194 181.5t313 63z" />
    <glyph glyph-name="MaMatraI.tm" horiz-adv-x="2210" 
d="M1570 1742q246 0 359 -127.5t113 -396.5v-1218h-186v1224q0 188 -67 273t-222 85q-141 0 -216 -74t-75 -219v-7q0 -58 11.5 -108.5t34.5 -87.5h-176q-25 41 -38 101t-13 120v10q0 130 55 225t161 147.5t259 52.5zM168 1147h186v-994h661q140 0 215.5 35.5t104.5 115.5
t29 213v166q0 106 -28.5 175t-97 103t-189.5 34h-97v-949h-186v1101h273q187 0 300 -50.5t163.5 -154t50.5 -261.5v-160q0 -187 -52.5 -301.5t-173 -167t-325.5 -52.5h-834v1147z" />
    <glyph glyph-name="YaMatraI.tm" horiz-adv-x="2567" 
d="M1678 1147h188v-1147h-559v158h371v989zM1442 0h-652l2 222h-9q-16 -112 -87.5 -177.5t-209.5 -65.5q-157 0 -240 94.5t-83 296.5v777h186v-774q0 -123 47.5 -179t134.5 -56q103 0 150.5 67.5t47.5 212.5v729h190v-989h523v-158zM1818 1742q202 0 330.5 -67.5t189.5 -201
t61 -333.5v-1140h-186v1149q0 148 -39.5 244t-126 142.5t-229.5 46.5q-126 0 -213 -43.5t-132 -126.5t-45 -202v-24q0 -139 67 -220.5t203 -92.5v-160q-145 10 -246 66t-154 159t-53 254v20q0 167 66 285.5t194 181.5t313 63z" />
    <glyph glyph-name="RaMatraI.tm" horiz-adv-x="1691" 
d="M752 1098h186v-1098h-186v1098zM901 1147v-153h-547v-994h-186v1147h733zM795 994v153h349l19 -153h-368zM1118 1742q144 0 233 -49t130.5 -148.5t41.5 -253.5v-1291h-186v1297q0 149 -50 218.5t-171 69.5q-112 0 -167 -62.5t-55 -187.5v-4q0 -61 11.5 -109t31.5 -83
h-175q-21 35 -35.5 94.5t-14.5 120.5v5q0 177 102.5 280t303.5 103z" />
    <glyph glyph-name="RraMatraI.tm" horiz-adv-x="2173" 
d="M1547 1742q240 0 349 -125t109 -388v-1229h-186v1235q0 182 -64 264.5t-210 82.5q-132 0 -202.5 -72.5t-70.5 -215.5v-4q0 -55 11.5 -105.5t32.5 -83.5h-177q-22 37 -34.5 96.5t-12.5 117.5v8q0 128 52.5 222t154 145.5t248.5 51.5zM514 1171q144 0 217 -73t86 -208h7
q17 136 104 209t246 73q176 0 258.5 -90t82.5 -255v-13q0 -130 -59.5 -209t-183.5 -90v-6q87 -5 147.5 -42.5t91.5 -109t31 -181.5v-36q0 -181 -55.5 -293t-190.5 -163.5t-374 -51.5h-492l-26 156h501q175 0 273 35.5t137.5 115t39.5 212.5v33q0 130 -58.5 186t-178.5 60
l-73 3v148l75 2q116 3 166.5 57.5t50.5 150.5v13q0 101 -47 155.5t-154 54.5q-71 0 -122.5 -26.5t-78.5 -84t-27 -152.5v-751h-186v775q0 125 -43.5 181.5t-141.5 56.5q-90 0 -140 -57t-50 -181v-775h-186v765q0 210 91 308t262 98zM521 -212v-156h-165q-102 0 -175 -12
t-129.5 -33.5t-110.5 -52.5l19 177q41 24 90 41t120 26.5t179 9.5h172z" />
    <glyph glyph-name="LaMatraI.tm" horiz-adv-x="2501" 
d="M709 1174q197 0 316.5 -66.5t174 -196t54.5 -317.5v-169q0 -146 47.5 -217.5t156.5 -71.5q107 0 152 77.5t45 225.5v241q0 108 -23 182t-78.5 112.5t-155.5 38.5q-22 0 -41.5 -1.5t-36.5 -5.5q-7 47 -11.5 100t-4.5 105q0 255 130.5 393t385.5 138q266 0 389.5 -142.5
t123.5 -428.5v-1171h-186v1176q0 207 -76 306.5t-254 99.5q-166 0 -249.5 -91.5t-83.5 -267.5q0 -32 2.5 -59t6.5 -52l-136 34q20 9 43.5 13t48.5 4q147 0 233.5 -54.5t124 -161t37.5 -262.5v-241q0 -152 -39 -256t-124 -157.5t-223 -53.5q-205 0 -298 113.5t-93 330.5v169
q0 140 -36.5 234.5t-115.5 142t-209 47.5q-202 0 -300.5 -111t-100.5 -326v-9v-9h6v-203q0 -109 45 -170t143 -61q88 0 127.5 53t39.5 147v80q0 92 -39 139.5t-125 47.5q-52 0 -93.5 -21.5t-68.5 -57.5t-38 -79l-5 125h15q18 79 85.5 135t178.5 56q136 0 203 -84t67 -243
v-89q0 -108 -35.5 -188.5t-111.5 -124.5t-197 -44q-129 0 -211.5 51.5t-122 145.5t-39.5 221v169q0 196 64.5 332t193.5 207t322 71z" />
    <glyph glyph-name="LlaMatraI.tm" horiz-adv-x="2625" 
d="M1686 1101h186v-1101h-186v1101zM698 1174q111 0 191.5 -25t135 -70t86.5 -105.5t45 -130.5h7l-2 304h683v-153h-556v-994h-186v547q0 232 -88.5 349.5t-300.5 117.5q-206 0 -306 -109t-102 -320v-12.5v-13.5h6v-203q0 -109 45 -170t143 -61q87 0 127 53t40 147v80
q0 92 -39.5 139.5t-125.5 47.5q-51 0 -92.5 -21.5t-68.5 -57.5t-38 -79l-5 125h15q18 79 85 135t178 56q137 0 204 -84t67 -243v-89q0 -108 -35.5 -188.5t-111.5 -124.5t-197 -44q-129 0 -211.5 51.5t-122 145.5t-39.5 221v177q0 193 63.5 327t190 204.5t315.5 70.5z
M1729 994v153h349l19 -153h-368zM2052 1742q144 0 233 -49t130.5 -148.5t41.5 -253.5v-1291h-186v1297q0 149 -50 218.5t-171 69.5q-112 0 -167 -62.5t-55 -187.5v-4q0 -61 11.5 -109t31.5 -83h-175q-21 35 -35.5 94.5t-14.5 120.5v5q0 177 102.5 280t303.5 103z" />
    <glyph glyph-name="LllaMatraI.tm" horiz-adv-x="2210" 
d="M765 -652q-196 0 -295.5 97t-99.5 275q0 32 2.5 59t4.5 49h180q-2 -23 -4.5 -52t-2.5 -60q0 -111 54.5 -166.5t160.5 -55.5q64 0 104 20.5t65.5 57.5t47.5 84l5 12q10 19 19.5 30t23.5 13v6q-98 6 -155.5 35t-82 86.5t-24.5 147.5v98h182v-87q0 -60 16.5 -96.5t58.5 -53
t119 -16.5h217l-24 -144h-102q-29 0 -41.5 -11.5t-23.5 -35.5l-7 -17q-37 -85 -83 -146.5t-120 -95t-195 -33.5zM168 1147h186v-994h661q140 0 215.5 35.5t104.5 115.5t29 213v166q0 106 -28.5 175t-97 103t-189.5 34h-97v-949h-186v1101h273q187 0 300 -50.5t163.5 -154
t50.5 -261.5v-160q0 -187 -52.5 -301.5t-173 -167t-325.5 -52.5h-834v1147zM1570 1742q246 0 359 -127.5t113 -396.5v-1218h-186v1224q0 188 -67 273t-222 85q-141 0 -216 -74t-75 -219v-7q0 -58 11.5 -108.5t34.5 -87.5h-176q-25 41 -38 101t-13 120v10q0 130 55 225
t161 147.5t259 52.5z" />
    <glyph glyph-name="VaMatraI.tm" horiz-adv-x="2661" 
d="M1776 1147h185v-1147h-651l-5 153h471v994zM1913 1742q202 0 330 -67.5t189 -201t61 -333.5v-1140h-186v1149q0 148 -39.5 244t-126 142.5t-228.5 46.5q-127 0 -214 -43.5t-132 -126.5t-45 -202v-24q0 -139 67.5 -220.5t203.5 -92.5l-1 -160q-145 10 -246 66t-153.5 159
t-52.5 254v20q0 167 66 285.5t193.5 181.5t313.5 63zM734 1174q206 0 331.5 -68t182.5 -196.5t57 -311.5v-80q0 -103 -14 -183t-43 -144t-73 -119l-17 81h377v-153h-546v13q45 67 73 137.5t41 154.5t13 190v86q0 141 -39 237t-125 145.5t-227 49.5q-211 0 -315 -111
t-106 -327v-7.5v-8.5h6v-203q0 -109 45 -170t143 -61q88 0 128 53t40 147v80q0 92 -39.5 139.5t-125.5 47.5q-51 0 -92.5 -21.5t-69 -57.5t-38.5 -79l-4 125h14q19 74 87 127.5t182 53.5q134 0 200 -81t66 -236v-89q0 -108 -35.5 -188.5t-111.5 -124.5t-198 -44
q-129 0 -211.5 51.5t-121.5 145.5t-39 221v168q0 196 68 332.5t202.5 207.5t334.5 71z" />
    <glyph glyph-name="ShaMatraI.tm" horiz-adv-x="2682" 
d="M2123 1742q206 0 298.5 -103.5t92.5 -321.5v-1317h-185v1323q0 137 -47.5 200t-160.5 63q-104 0 -158.5 -59.5t-54.5 -176.5v-5q0 -65 20 -115t56 -83h-176q-37 35 -58 95.5t-21 130.5v6q0 167 101.5 265t292.5 98zM163 1147h187v-759q0 -133 48 -193t147 -60t146 60
t47 193v759h187v-756q0 -138 -38.5 -230t-122.5 -138.5t-219 -46.5t-219.5 46.5t-123.5 139t-39 230.5v755zM1230 1147h187v-759q0 -133 47 -193t143 -60q98 0 144 60.5t46 193.5v758h187v-755q0 -138 -38.5 -230.5t-121.5 -139t-217 -46.5q-133 0 -216.5 46.5t-122 139
t-38.5 230.5v755zM788 1147h1124v-153h-1124v153z" />
    <glyph glyph-name="SsaMatraI.tm" horiz-adv-x="3093" 
d="M2418 1742q177 0 289 -59t165 -180t53 -309v-1194h-186v1200q0 200 -75 291t-248 91q-154 0 -238.5 -78.5t-84.5 -232.5v0q0 -39 6.5 -73.5t19.5 -62.5l-182 9q-12 32 -18.5 72t-6.5 80v4q0 134 59 233.5t172 154t275 54.5zM734 1174q206 0 331.5 -68t182.5 -196.5
t57 -311.5v-80q0 -103 -14 -183t-43 -144t-73 -119l-17 81h377v-153h-546v13q45 67 73 137.5t41 154.5t13 190v86q0 141 -39 237t-125 145.5t-227 49.5q-211 0 -315 -111t-106 -327v-7.5v-8.5h6v-203q0 -109 45 -170t143 -61q88 0 128 53t40 147v80q0 92 -39.5 139.5
t-125.5 47.5q-51 0 -92.5 -21.5t-69 -57.5t-38.5 -79l-4 125h14q19 74 87 127.5t182 53.5q134 0 200 -81t66 -236v-89q0 -108 -35.5 -188.5t-111.5 -124.5t-198 -44q-129 0 -211.5 51.5t-121.5 145.5t-39 221v168q0 196 68 332.5t202.5 207.5t334.5 71zM1273 153h663l52 -25
l48 25h526l-22 -153h-1267v153zM1988 1173q208 0 307.5 -117t99.5 -322v-168q0 -189 -78.5 -315t-273.5 -191l-81 61q93 35 146.5 92t75.5 135.5t22 178.5v194q0 139 -51.5 215t-166.5 76t-166.5 -76t-51.5 -215v-194q0 -100 22 -178.5t75.5 -135.5t146.5 -92l-82 -61
q-195 65 -273 191t-78 315v168q0 205 99.5 322t307.5 117zM2026 -512q-185 0 -269 67.5t-84 205.5v8q0 105 57.5 168.5t159.5 98.5l21 7l111 -32l-27 -13q-68 -32 -104 -75.5t-36 -117.5v-3q0 -74 45.5 -116t158.5 -42q41 0 77.5 3.5t74 10t83.5 15.5l-28 -158
q-56 -13 -115.5 -20t-124.5 -7z" />
    <glyph glyph-name="SaMatraI.tm" horiz-adv-x="3078" 
d="M698 1174q150 0 250 -46.5t154.5 -131t68.5 -199.5h7v26q0 173 80 261.5t240 88.5q169 0 247.5 -99t78.5 -305v-334q0 -154 48.5 -226.5t161.5 -72.5q110 0 155.5 78t45.5 227v249q0 105 -22.5 177t-77 109t-151.5 37q-19 0 -38.5 -2t-33.5 -4q-7 47 -11.5 102t-4.5 107
q0 253 128.5 389.5t380.5 136.5q262 0 383.5 -140.5t121.5 -423.5v-1178h-186v1183q0 203 -74.5 301t-247.5 98q-163 0 -244.5 -90.5t-81.5 -263.5q0 -34 2.5 -62t6.5 -54l-103 41q14 5 29 7.5t32 2.5q143 0 226.5 -53t119 -157.5t35.5 -257.5v-248q0 -229 -92 -349.5
t-298 -120.5q-210 0 -303 115t-93 345v327q0 134 -41 192.5t-133 58.5q-88 0 -135 -58t-47 -191v-766h-186v557q0 149 -37 251t-121.5 154t-227.5 52q-205 0 -304 -110.5t-101 -325.5v-9.5v-9.5h6v-203q0 -109 45 -170t143 -61q87 0 127 53t40 147v80q0 92 -39.5 139.5
t-125.5 47.5q-51 0 -92.5 -21.5t-68.5 -57.5t-38 -79l-5 125h15q18 79 85 135t178 56q137 0 204 -84t67 -243v-89q0 -108 -35.5 -188.5t-111.5 -124.5t-197 -44q-129 0 -211.5 51.5t-122 145.5t-39.5 221v170q0 196 63.5 331.5t190 206.5t315.5 71z" />
    <glyph glyph-name="HaMatraI.tm" horiz-adv-x="3613" 
d="M2987 1742q240 0 349 -125t109 -388v-1229h-186v1235q0 182 -64 264.5t-210 82.5q-132 0 -202.5 -72.5t-70.5 -215.5v-4q0 -55 11.5 -105.5t32.5 -83.5h-177q-22 37 -35 96.5t-13 117.5v8q0 128 52.5 222t154.5 145.5t249 51.5zM1357 153h342v-153h-342v153zM1773 -212
v-156h-1294l-26 156h1320zM730 1174q206 0 331.5 -68t182.5 -196.5t57 -311.5v-80q0 -103 -14 -183t-43 -144t-73 -119l-17 81h377v-153h-546v13q44 67 72.5 137.5t41.5 154.5t13 190v86q0 141 -39 237t-125.5 145.5t-226.5 49.5q-212 0 -315.5 -111t-105.5 -327v-7.5v-8.5
h6v-203q0 -109 45 -170t143 -61q88 0 128 53t40 147v80q0 92 -39.5 139.5t-125.5 47.5q-52 0 -93 -21.5t-68.5 -57.5t-38.5 -79l-4 125h14q19 74 87 127.5t182 53.5q134 0 200 -81t66 -236v-89q0 -108 -35.5 -188.5t-112 -124.5t-197.5 -44q-130 0 -212 51.5t-121 145.5
t-39 221v168q0 196 68 332.5t202.5 207.5t334.5 71zM579 -212v-156h-165q-102 0 -175 -12t-129.5 -33.5t-110.5 -52.5l19 177q41 24 90 41t120.5 26.5t178.5 9.5h172zM1954 1171q144 0 217 -73t86 -208h7q17 136 104 209t246 73q176 0 258.5 -90t82.5 -255v-13
q0 -130 -59.5 -209t-183.5 -90v-6q87 -5 147.5 -42.5t91.5 -109t31 -181.5v-36q0 -181 -55.5 -293t-190.5 -163.5t-374 -51.5h-849l-26 156h858q175 0 273 35.5t137.5 115t39.5 212.5v33q0 130 -58.5 186t-178.5 60l-73 3v148l75 2q116 3 166.5 57.5t50.5 150.5v13
q0 67 -20.5 114t-65 71.5t-115.5 24.5t-122.5 -26.5t-78.5 -84t-27 -152.5v-751h-186v775q0 125 -43.5 181.5t-141.5 56.5q-90 0 -140 -57t-50 -181v-775h-186v765q0 210 91 308t262 98z" />
    <glyph glyph-name="KssaMatraI.tm" horiz-adv-x="3758" 
d="M3083 1742q177 0 289 -59t165 -180t53 -309v-1194h-186v1200q0 200 -75 291t-248 91q-154 0 -238.5 -78.5t-84.5 -232.5v0q0 -39 6.5 -73.5t19.5 -62.5l-182 9q-12 32 -18.5 72t-6.5 80v4q0 134 59 233.5t172 154t275 54.5zM916 544v150h168q151 0 215 -57t76 -182h8v11
q0 150 84 236.5t241 86.5q161 0 235.5 -83.5t74.5 -241.5v-63q0 -109 -24.5 -177t-63.5 -121l-37 50h452v-153h-612v13q52 65 78.5 139.5t26.5 189.5v70q0 106 -40.5 163t-132.5 57q-59 0 -103.5 -27.5t-68.5 -83.5t-24 -142v-379h-184v314q0 86 -20 136t-67 72t-129 22
h-153zM908 690v-143h-482l-123 -17q-2 -19 -3.5 -44t-2 -50.5t-0.5 -46.5q0 -128 66.5 -193t204.5 -65q131 0 188.5 65t57.5 198v230l7 22v450h169v-450v-22v-229q0 -136 -42 -229.5t-134.5 -141t-243.5 -47.5q-232 0 -341 108.5t-109 311.5q0 37 2 79t5.5 83t9.5 74l195 47
l134 10h442zM1097 1147v-148h-180l-21 9h-400l-8 -380h-167v519h776zM1938 153h663l52 -25l48 25h526l-22 -153h-1267v153zM2653 1173q208 0 307.5 -117t99.5 -322v-168q0 -189 -78.5 -315t-273.5 -191l-81 61q93 35 146.5 92t75.5 135.5t22 178.5v194q0 139 -51.5 215
t-166.5 76t-166.5 -76t-51.5 -215v-194q0 -100 22 -178.5t75.5 -135.5t146.5 -92l-82 -61q-195 65 -273 191t-78 315v168q0 205 99.5 322t307.5 117zM2691 -512q-185 0 -269 67.5t-84 205.5v8q0 105 57.5 168.5t159.5 98.5l21 7l111 -32l-27 -13q-68 -32 -104 -75.5
t-36 -117.5v-3q0 -74 46 -116t158 -42q42 0 78 3.5t73.5 10t83.5 15.5l-28 -158q-55 -13 -115 -20t-125 -7zM1036 999v148h274l19 -148h-293z" />
    <glyph glyph-name="KaMatraIi.tm" horiz-adv-x="1618" 
d="M939 546v148h224q191 0 274 -76t83 -243v-57q0 -109 -34 -185.5t-107.5 -116.5t-192.5 -40q-71 0 -131 12.5t-99 28.5l-32 158l3 13q44 -26 95.5 -42t121.5 -16q71 0 113 23.5t60 67t18 103.5v43q0 98 -45.5 138.5t-149.5 40.5h-201zM908 690v-143h-482l-123 -17
q-2 -19 -3.5 -44t-2 -50.5t-0.5 -46.5q0 -128 66.5 -193t204.5 -65q131 0 188.5 65t57.5 198v230l7 22v450h169v-450v-22v-229q0 -136 -42 -229.5t-134.5 -141t-243.5 -47.5q-232 0 -341 108.5t-109 311.5q0 37 2 79t5.5 83t9.5 74l195 47l134 10h442zM1097 1147v-148h-180
l-21 9h-400l-8 -380h-167v519h776zM1031 999v148h274l19 -148h-293zM1189 1865q203 0 298 -84t95 -230v-6q0 -131 -68.5 -201t-209.5 -70q-145 0 -212.5 67t-67.5 181v10q0 71 31 118.5t84 69.5v12l75 -1q-21 -31 -30.5 -71t-9.5 -90v-18q0 -70 30.5 -109t98.5 -39
q121 0 121 138v8q0 86 -46 131.5t-151 45.5q-23 0 -45 -2t-43 -6v6q-121 -10 -185 -81.5t-64 -202.5v-11q0 -86 28 -163.5t71 -127.5h-178q-37 44 -65.5 126t-28.5 176v12q0 197 117 304.5t355 107.5z" />
    <glyph glyph-name="NgaMatraIi.tm" horiz-adv-x="2210" 
d="M752 1095h186v-1095h-186v1095zM1219 762q139 0 205 -83t66 -238v-39q0 -110 -18 -178t-50 -121l-58 48h569v-151h-727v13q56 64 80 137.5t24 188.5v38q0 105 -40 161t-132 56q-75 0 -128.5 -44t-77.5 -121h-5v127h18q12 57 45.5 103.5t90.5 74.5t138 28zM1857 1147h185
v-1147h-185v1147zM1128 1147v-153h-774v-994h-186v1147h960zM1963 1865q204 0 299 -84t95 -230v-6q0 -131 -69 -201t-209 -70q-145 0 -212.5 67t-67.5 181v10q0 71 30.5 118.5t84.5 69.5v12l74 -1q-21 -31 -30.5 -71t-9.5 -90v-18q0 -71 31 -110t98 -39q122 0 122 138v9
q0 86 -46 131.5t-151 45.5q-23 0 -45.5 -2t-42.5 -6v6q-155 -13 -236.5 -114.5t-81.5 -292.5v-45q0 -167 67.5 -270t202.5 -127v-166q-148 19 -248 88t-151 189.5t-51 291.5v41q0 261 137 403t410 142zM933 994v153h349l19 -153h-368z" />
    <glyph glyph-name="CaMatraIi.tm" horiz-adv-x="1375" 
d="M948 554v150h385l21 -150h-406zM908 690v-143h-482l-123 -17q-2 -19 -3.5 -44t-2 -50.5t-0.5 -46.5q0 -128 66.5 -193t204.5 -65q131 0 188.5 65t57.5 198v230l7 22v450h169v-450v-22v-229q0 -136 -42 -229.5t-134.5 -141t-243.5 -47.5q-232 0 -341 108.5t-109 311.5
q0 37 2 79t5.5 83t9.5 74l195 47l134 10h442zM1097 1147v-148h-180l-21 9h-400l-8 -380h-167v519h776zM970 999v148h274l19 -148h-293zM1189 1865q203 0 298 -84t95 -230v-6q0 -131 -68.5 -201t-209.5 -70q-145 0 -212.5 67t-67.5 181v10q0 71 31 118.5t84 69.5v12l75 -1
q-21 -31 -30.5 -71t-9.5 -90v-18q0 -70 30.5 -109t98.5 -39q121 0 121 138v8q0 86 -46 131.5t-151 45.5q-23 0 -45 -2t-43 -6v6q-121 -10 -185 -81.5t-64 -202.5v-11q0 -86 28 -163.5t71 -127.5h-178q-37 44 -65.5 126t-28.5 176v12q0 197 117 304.5t355 107.5z" />
    <glyph glyph-name="JaMatraIi.tm" horiz-adv-x="1923" 
d="M1750 1865q203 0 298 -84t95 -230v-6q0 -131 -69 -201t-209 -70q-145 0 -212.5 67t-67.5 181v10q0 71 31 118.5t84 69.5v12l74 -1q-21 -31 -30.5 -71t-9.5 -90v-18q0 -70 31 -109t99 -39q121 0 121 138v8q0 86 -46 131.5t-151 45.5q-23 0 -45 -2t-43 -6v6
q-122 -10 -185.5 -81.5t-63.5 -202.5v-11q0 -83 28 -158t71 -124h-178q-37 44 -65.5 123t-28.5 170v12q0 197 117 304.5t355 107.5zM652 1184q148 0 243.5 -42t147 -117.5t66.5 -177.5h4q12 155 91 242t241 87q183 0 263 -105t80 -305v-50q0 -121 -25 -208.5t-82 -146.5
t-152.5 -95t-237.5 -53l-662 -81q-105 -13 -167 -40.5t-89 -74.5t-27 -121v-9q0 -94 49.5 -147t156.5 -53q64 0 110.5 19t88 51.5t88.5 72.5l117 100q82 70 158.5 119.5t159 75.5t180.5 26q116 0 189 -34t107.5 -100t34.5 -164v-8q0 -154 -84.5 -232t-265.5 -78
q-61 0 -120.5 9.5t-114.5 28.5l-37 158q58 -20 114 -31t116 -11q113 0 162 39t49 117v10q0 68 -36.5 106t-120.5 38q-94 0 -172.5 -34t-163.5 -109l-119 -105q-71 -63 -132.5 -111.5t-134 -76.5t-178.5 -28q-184 0 -283 90.5t-99 256.5v10q0 123 46 202.5t142 124t244 62.5
l659 80q138 17 214.5 56.5t107 111.5t30.5 184v56q0 122 -44.5 188t-149.5 66q-63 0 -109 -26.5t-71 -85.5t-25 -157v-312h-179v208q0 126 -35.5 212t-116 129.5t-214.5 43.5q-184 0 -277 -79t-94 -214h9v-69q0 -87 41.5 -137t129.5 -50q78 0 113.5 39t35.5 109v12
q0 66 -35.5 101.5t-110.5 35.5q-45 0 -83 -18t-63.5 -49t-36.5 -71l-7 107h14q17 71 75.5 120.5t164.5 49.5q130 0 191 -71.5t61 -200.5v-12q0 -134 -77 -212t-242 -78q-176 0 -262 97t-86 251v23q0 221 135 343t392 122z" />
    <glyph glyph-name="NyaMatraIi.tm" horiz-adv-x="2522" 
d="M1650 1099h186v-1099h-186v1099zM2113 755q161 0 231.5 -106.5t70.5 -312.5v-33q0 -279 -112 -466.5t-347 -281.5t-603 -94h-6q-406 0 -671.5 119t-395.5 361t-130 610q0 128 7.5 235t21.5 197t32 164h190q-21 -88 -34.5 -177t-20.5 -190t-7 -225q0 -319 106 -525.5
t328.5 -306.5t573.5 -100h6q307 0 499.5 74t283.5 225t91 380v17q0 134 -42 201.5t-145 67.5q-83 0 -138.5 -50t-75.5 -139h-14v153h31q20 88 87.5 145.5t182.5 57.5zM1956 1147v-153h-581v153h581zM1555 1147v-153h-211q-250 0 -366 -106t-116 -318v-5.5v-5.5h6v-203
q0 -109 45 -170t143 -61q88 0 128 53t40 147v80q0 92 -39.5 139.5t-125.5 47.5q-51 0 -92.5 -21.5t-69 -57.5t-38.5 -79l-4 125h14q18 79 85 135t179 56q137 0 204 -84t67 -243v-89q0 -108 -35.5 -188.5t-111.5 -124.5t-198 -44q-129 0 -211.5 51.5t-121.5 145.5t-39 221
v162q0 190 71 321.5t215 200t363 68.5h219zM1882 994v153h349l19 -153h-368zM2006 1865q203 0 298 -84t95 -230v-6q0 -131 -68.5 -201t-209.5 -70q-145 0 -212.5 67t-67.5 181v10q0 71 31 118.5t84 69.5v12l75 -1q-21 -31 -30.5 -71t-9.5 -90v-18q0 -70 30.5 -109t98.5 -39
q121 0 121 138v8q0 86 -46 131.5t-151 45.5q-23 0 -45 -2t-43 -6v6q-121 -10 -185 -81.5t-64 -202.5v-11q0 -86 28 -163.5t71 -127.5h-178q-37 44 -65.5 126t-28.5 176v12q0 197 117 304.5t355 107.5z" />
    <glyph glyph-name="TtaMatraIi.tm" horiz-adv-x="1729" 
d="M356 1147l-1 -992h1360l-21 -155h-1526v1147h188zM1122 909q203 0 298 -84.5t95 -230.5v-6q0 -132 -68.5 -202.5t-209.5 -70.5q-145 0 -212.5 67.5t-67.5 182.5v10q0 71 31 119t84 70v12l75 -1q-21 -31 -30.5 -71.5t-9.5 -90.5v-18q0 -72 30.5 -111t98.5 -39
q121 0 121 140v8q0 86 -45.5 132t-151.5 46q-23 0 -45 -2t-43 -6v6q-127 -11 -193 -87.5t-66 -213.5v-11q0 -93 28 -175t71 -135h-177q-37 47 -66 134t-29 187v11q0 206 120 318t362 112z" />
    <glyph glyph-name="NnaMatraIi.tm" horiz-adv-x="3388" 
d="M1881 1178q197 0 332 -32t220 -81l1 -6q101 -48 163 -124.5t90.5 -178.5t28.5 -225v-130q0 -129 -37 -224.5t-116.5 -147.5t-208.5 -52q-130 0 -212 52.5t-120.5 148t-38.5 223.5v130q0 123 30.5 227.5t100 181t186.5 115.5l80 -99q-80 -34 -126.5 -93.5t-65.5 -140.5
t-19 -182v-135q0 -86 18.5 -146.5t59 -92t105.5 -31.5t104 31.5t57 92t18 146.5v135q0 101 -19 182t-64 140.5t-124 93.5l-10 5q-45 19 -109.5 34t-146 24t-177.5 9q-146 0 -256 -20t-186 -50l-104 110q89 49 223 79.5t323 30.5zM2986 1017l186 -2v-1015h-186v1017z
M3114 1147v-151h-452q-82 0 -149 -4t-126 -12l41 151q50 6 111 11t140 5h435zM935 1180q197 0 332 -31.5t219 -81.5l2 -7q101 -48 163 -124.5t90 -178.5t28 -226v-130q0 -129 -37 -224.5t-116.5 -147.5t-208.5 -52q-130 0 -211.5 52.5t-120 148t-38.5 223.5v130
q0 124 30.5 228.5t100 181.5t185.5 116l81 -99q-80 -34 -126.5 -93.5t-66 -141t-19.5 -183.5v-135q0 -86 19 -146.5t60 -92t106 -31.5q64 0 103 31.5t56.5 92t17.5 146.5v135q0 102 -18.5 183.5t-63 141t-123.5 93.5l-12 4q-65 26 -169.5 44.5t-258.5 18.5q-318 0 -477 -118
t-162 -350v-8v-10h6v-183q0 -109 44.5 -170t142.5 -61q88 0 128 53t40 147v80q0 92 -39.5 139.5t-125.5 47.5q-51 0 -92.5 -21.5t-68.5 -57.5t-38 -79l-5 125h15q18 79 85 135t178 56q137 0 204 -84t67 -243v-89q0 -108 -35.5 -188.5t-111.5 -124.5t-197 -44
q-130 0 -212.5 51.5t-121.5 145.5t-39 221v143q0 207 92 350t272.5 217.5t446.5 74.5zM3033 994v153h349l19 -153h-368zM3362 1865q203 0 298 -84t95 -230v-6q0 -131 -68.5 -201t-209.5 -70q-145 0 -212.5 67t-67.5 181v10q0 71 31 118.5t84 69.5v12l75 -1
q-21 -31 -30.5 -71t-9.5 -90v-18q0 -70 30.5 -109t98.5 -39q121 0 121 138v8q0 86 -46 131.5t-151 45.5q-23 0 -45 -2t-43 -6v6q-121 -10 -185 -81.5t-64 -202.5v-11q0 -86 28 -163.5t71 -127.5h-178q-37 44 -65.5 126t-28.5 176v12q0 197 117 304.5t355 107.5z" />
    <glyph glyph-name="TaMatraIi.tm" horiz-adv-x="1615" 
d="M945 544v150h94q254 0 365 -102.5t111 -331.5v-51q0 -210 -63 -336.5t-208 -183.5t-392 -57h-338l-25 156h351q182 0 289 40t154 132t47 246v48q0 159 -70.5 224.5t-236.5 65.5h-78zM553 -212v-156h-165q-102 0 -175 -12t-129.5 -33.5t-110.5 -52.5l19 177q41 24 90 41
t120.5 26.5t178.5 9.5h172zM917 690v-143h-482l-123 -17q-2 -19 -3.5 -44t-2 -50.5t-0.5 -46.5q0 -128 66.5 -193t204.5 -65q131 0 188.5 65t57.5 198v230l7 22v450h169v-450v-22v-229q0 -136 -42 -229.5t-134.5 -141t-243.5 -47.5q-232 0 -341 108.5t-109 311.5q0 37 2 79
t5.5 83t9.5 74l195 47l134 10h442zM1106 1147v-148h-180l-21 9h-400l-8 -380h-167v519h776zM1047 999v148h274l19 -148h-293zM1189 1865q203 0 298 -84t95 -230v-6q0 -131 -68.5 -201t-209.5 -70q-145 0 -212.5 67t-67.5 181v10q0 71 31 118.5t84 69.5v12l75 -1
q-21 -31 -30.5 -71t-9.5 -90v-18q0 -70 30.5 -109t98.5 -39q121 0 121 138v8q0 86 -46 131.5t-151 45.5q-23 0 -45 -2t-43 -6v6q-121 -10 -185 -81.5t-64 -202.5v-11q0 -86 28 -163.5t71 -127.5h-178q-37 44 -65.5 126t-28.5 176v12q0 197 117 304.5t355 107.5z" />
    <glyph glyph-name="NaMatraIi.tm" horiz-adv-x="1622" 
d="M740 1099h186v-1099h-186v1099zM1206 755q163 0 235 -106.5t72 -314.5v-89q0 -221 -65.5 -356t-216.5 -196t-410 -61h-378l-26 156h394q144 0 242.5 23t157.5 75t85.5 138.5t26.5 213.5v77q0 137 -43.5 205t-148.5 68q-82 0 -138 -51.5t-77 -137.5h-14v153h32
q19 88 87.5 145.5t184.5 57.5zM1053 1147v-153h-699v-994h-186v1147h885zM528 -212v-156h-165q-102 0 -175 -12t-129.5 -33.5t-110.5 -52.5l19 177q41 24 90 41t120 26.5t179 9.5h172zM973 994v153h349l19 -153h-368zM1116 1865q203 0 298 -84t95 -230v-6q0 -131 -68.5 -201
t-209.5 -70q-145 0 -212.5 67t-67.5 181v10q0 71 31 118.5t84 69.5v12l75 -1q-21 -31 -30.5 -71t-9.5 -90v-18q0 -70 30.5 -109t98.5 -39q121 0 121 138v8q0 86 -46 131.5t-151 45.5q-23 0 -45 -2t-43 -6v6q-121 -10 -185 -81.5t-64 -202.5v-11q0 -86 28 -163.5t71 -127.5
h-178q-37 44 -65.5 126t-28.5 176v12q0 197 117 304.5t355 107.5z" />
    <glyph glyph-name="NnnaMatraIi.tm" horiz-adv-x="2442" 
d="M2040 1017l186 -2v-1015h-186v1017zM2171 1147v-151h-456q-82 0 -148.5 -3.5t-126.5 -11.5l41 151q50 6 111.5 10.5t140.5 4.5h438zM934 1180q198 0 332.5 -32t219.5 -82l1 -7q102 -47 164 -123.5t90 -178.5t28 -226v-130q0 -129 -37 -224.5t-116.5 -147.5t-208.5 -52
q-130 0 -211.5 52.5t-120 148t-38.5 223.5v130q0 124 30.5 228.5t100 181t185.5 115.5l80 -99q-80 -34 -126 -93t-65.5 -140.5t-19.5 -183.5v-135q0 -86 19 -146.5t60 -92t106 -31.5q64 0 103 31.5t56.5 92t17.5 146.5v135q0 102 -18.5 183.5t-63.5 140.5t-124 93l-11 4
q-66 27 -170 45.5t-259 18.5q-317 0 -476 -118t-162 -350v-8v-10h6v-183q0 -109 44.5 -170t142.5 -61q88 0 128 53t40 147v80q0 92 -39.5 139.5t-125.5 47.5q-51 0 -92.5 -21.5t-68.5 -57.5t-38 -79l-5 125h15q18 79 85 135t178 56q137 0 204 -84t67 -243v-89
q0 -108 -35.5 -188.5t-111.5 -124.5t-197 -44q-130 0 -212.5 51.5t-121.5 145.5t-39 221v143q0 207 92 350t272.5 217.5t445.5 74.5zM2087 994v153h349l19 -153h-368zM2414 1865q203 0 298 -84t95 -230v-6q0 -131 -68.5 -201t-209.5 -70q-145 0 -212.5 67t-67.5 181v10
q0 71 31 118.5t84 69.5v12l75 -1q-21 -31 -30.5 -71t-9.5 -90v-18q0 -70 30.5 -109t98.5 -39q121 0 121 138v8q0 86 -46 131.5t-151 45.5q-23 0 -45 -2t-43 -6v6q-121 -10 -185 -81.5t-64 -202.5v-11q0 -86 28 -163.5t71 -127.5h-178q-37 44 -65.5 126t-28.5 176v12
q0 197 117 304.5t355 107.5z" />
    <glyph glyph-name="PaMatraIi.tm" horiz-adv-x="1523" 
d="M357 1147v-989h599v-158h-788v1147h189zM1166 1147h189v-1147h-635v158h446v989zM1276 1865q204 0 299 -84t95 -230v-6q0 -131 -69 -201t-209 -70q-145 0 -212.5 67t-67.5 181v10q0 71 30.5 118.5t84.5 69.5v12l74 -1q-21 -31 -30.5 -71t-9.5 -90v-18q0 -71 31 -110
t98 -39q122 0 122 138v9q0 86 -46 131.5t-151 45.5q-23 0 -45.5 -2t-42.5 -6v6q-155 -13 -236.5 -114.5t-81.5 -292.5v-45q0 -167 67.5 -270t202.5 -127v-166q-148 19 -248 88t-151 189.5t-51 291.5v41q0 261 137 403t410 142z" />
    <glyph glyph-name="MaMatraIi.tm" horiz-adv-x="1686" 
d="M1409 1865q204 0 299 -84t95 -230v-6q0 -131 -69 -201t-210 -70q-144 0 -211.5 67t-67.5 181v10q0 71 30.5 118.5t84.5 69.5v12l74 -1q-21 -31 -30.5 -71t-9.5 -90v-18q0 -70 31 -109t98 -39q122 0 122 138v8q0 86 -46 131.5t-151 45.5q-23 0 -45.5 -2t-42.5 -6v6
q-122 -10 -185.5 -81.5t-63.5 -202.5v-11q0 -92 33.5 -175t82.5 -136h-177q-46 47 -79 134.5t-33 187.5v12q0 197 117 304.5t354 107.5zM168 1147h186v-994h661q140 0 215.5 35.5t104.5 115.5t29 213v166q0 106 -28.5 175t-97 103t-189.5 34h-97v-949h-186v1101h273
q187 0 300 -50.5t163.5 -154t50.5 -261.5v-160q0 -187 -52.5 -301.5t-173 -167t-325.5 -52.5h-834v1147z" />
    <glyph glyph-name="YaMatraIi.tm" horiz-adv-x="2026" 
d="M1672 1147h189v-1147h-577v158h388v989zM1429 0h-639l2 222h-9q-16 -112 -88 -177.5t-209 -65.5q-157 0 -240 94.5t-83 296.5v777h186v-774q0 -123 47.5 -179t134.5 -56q102 0 150 67.5t48 212.5v729h189v-989h511v-158zM1779 1865q204 0 299 -84t95 -230v-6
q0 -131 -69 -201t-209 -70q-145 0 -212.5 67t-67.5 181v10q0 71 30.5 118.5t84.5 69.5v12l74 -1q-21 -31 -30.5 -71t-9.5 -90v-18q0 -71 31 -110t98 -39q122 0 122 138v9q0 86 -46 131.5t-151 45.5q-23 0 -45.5 -2t-42.5 -6v6q-155 -13 -236.5 -114.5t-81.5 -292.5v-45
q0 -167 67.5 -270t202.5 -127v-166q-148 19 -248 88t-151 189.5t-51 291.5v41q0 261 137 403t410 142z" />
    <glyph glyph-name="RaMatraIi.tm" horiz-adv-x="1154" 
d="M752 1098h186v-1098h-186v1098zM901 1147v-153h-547v-994h-186v1147h733zM799 994v153h349l19 -153h-368zM1128 1865q203 0 298 -84t95 -230v-6q0 -131 -68.5 -201t-209.5 -70q-145 0 -212.5 67t-67.5 181v10q0 71 31 118.5t84 69.5v12l75 -1q-21 -31 -30.5 -71t-9.5 -90
v-18q0 -70 30.5 -109t98.5 -39q121 0 121 138v8q0 86 -46 131.5t-151 45.5q-23 0 -45 -2t-43 -6v6q-121 -10 -185 -81.5t-64 -202.5v-11q0 -86 28 -163.5t71 -127.5h-178q-37 44 -65.5 126t-28.5 176v12q0 197 117 304.5t355 107.5z" />
    <glyph glyph-name="RraMatraIi.tm" horiz-adv-x="1661" 
d="M1497 1865q203 0 298 -84t95 -230v-6q0 -131 -69 -201t-209 -70q-145 0 -212.5 67t-67.5 181v10q0 71 31 118.5t84 69.5v12l74 -1q-21 -31 -30.5 -71t-9.5 -90v-18q0 -70 31 -109t99 -39q121 0 121 138v8q0 86 -46 131.5t-151 45.5q-23 0 -45 -2t-43 -6v6
q-121 -10 -185 -81.5t-64 -202.5v-11q0 -86 29.5 -163.5t73.5 -127.5h-177q-39 44 -69 126t-30 176v12q0 197 117 304.5t355 107.5zM514 1171q144 0 217 -73t86 -208h7q17 136 104 209t246 73q176 0 258.5 -90t82.5 -255v-13q0 -130 -59.5 -209t-183.5 -90v-6
q87 -5 147.5 -42.5t91.5 -109t31 -181.5v-36q0 -181 -55.5 -293t-190.5 -163.5t-374 -51.5h-492l-26 156h501q175 0 273 35.5t137.5 115t39.5 212.5v33q0 130 -58.5 186t-178.5 60l-73 3v148l75 2q116 3 166.5 57.5t50.5 150.5v13q0 101 -47 155.5t-154 54.5
q-71 0 -122.5 -26.5t-78.5 -84t-27 -152.5v-751h-186v775q0 125 -43.5 181.5t-141.5 56.5q-90 0 -140 -57t-50 -181v-775h-186v765q0 210 91 308t262 98zM521 -212v-156h-165q-102 0 -175 -12t-129.5 -33.5t-110.5 -52.5l19 177q41 24 90 41t120 26.5t179 9.5h172z" />
    <glyph glyph-name="LaMatraIi.tm" horiz-adv-x="1977" 
d="M1388 1409v-11q0 -76 20.5 -153t52.5 -124l-114 25q26 8 56.5 12.5t64.5 4.5q140 0 222 -54.5t118 -161t36 -262.5v-241q0 -152 -39 -256t-124 -157.5t-223 -53.5q-205 0 -298 113.5t-93 330.5v169q0 140 -36.5 234.5t-116 142t-209.5 47.5q-202 0 -300 -111t-100 -326
v-19v-19h6v-183q0 -109 45 -170t143 -61q87 0 127 53t40 147v80q0 92 -39.5 139.5t-125.5 47.5q-51 0 -92.5 -21.5t-68.5 -57.5t-38 -79l-5 105h12q19 83 87.5 142t183.5 59q134 0 200 -81t66 -236v-89q0 -108 -35.5 -188.5t-111.5 -124.5t-197 -44q-129 0 -211.5 51.5
t-122 145.5t-39.5 221v169q0 196 64.5 332t193.5 207t321 71q197 0 317 -66.5t174.5 -196t54.5 -317.5v-169q0 -146 47.5 -217.5t156.5 -71.5q107 0 152 77t45 225v242q0 108 -23 182t-79 112.5t-156 38.5q-20 0 -41.5 -2t-39.5 -5q-42 68 -72.5 175t-30.5 228v11
q0 212 116.5 328.5t360.5 116.5q203 0 298.5 -84t95.5 -230v-6q0 -131 -69 -201t-210 -70q-145 0 -212.5 67t-67.5 181v10q0 71 31 118.5t84 69.5v12l75 -1q-21 -31 -30.5 -71t-9.5 -90v-18q0 -70 30.5 -109t98.5 -39q121 0 121 138v8q0 86 -45.5 131.5t-150.5 45.5
q-23 0 -45.5 -2t-43.5 -6v6q-127 -11 -189.5 -88.5t-62.5 -227.5z" />
    <glyph glyph-name="LlaMatraIi.tm" horiz-adv-x="2088" 
d="M1686 1101h186v-1101h-186v1101zM698 1174q111 0 191.5 -25t135 -70t86.5 -105.5t45 -130.5h7l-2 304h683v-153h-556v-994h-186v547q0 232 -88.5 349.5t-300.5 117.5q-206 0 -306 -109t-102 -320v-12.5v-13.5h6v-203q0 -109 45 -170t143 -61q87 0 127 53t40 147v80
q0 92 -39.5 139.5t-125.5 47.5q-51 0 -92.5 -21.5t-68.5 -57.5t-38 -79l-5 125h15q18 79 85 135t178 56q137 0 204 -84t67 -243v-89q0 -108 -35.5 -188.5t-111.5 -124.5t-197 -44q-129 0 -211.5 51.5t-122 145.5t-39.5 221v177q0 193 63.5 327t190 204.5t315.5 70.5z
M1733 994v153h349l19 -153h-368zM2062 1865q203 0 298 -84t95 -230v-6q0 -131 -68.5 -201t-209.5 -70q-145 0 -212.5 67t-67.5 181v10q0 71 31 118.5t84 69.5v12l75 -1q-21 -31 -30.5 -71t-9.5 -90v-18q0 -70 30.5 -109t98.5 -39q121 0 121 138v8q0 86 -46 131.5t-151 45.5
q-23 0 -45 -2t-43 -6v6q-121 -10 -185 -81.5t-64 -202.5v-11q0 -86 28 -163.5t71 -127.5h-178q-37 44 -65.5 126t-28.5 176v12q0 197 117 304.5t355 107.5z" />
    <glyph glyph-name="LllaMatraIi.tm" horiz-adv-x="1686" 
d="M765 -652q-196 0 -295.5 97t-99.5 275q0 32 2.5 59t4.5 49h180q-2 -23 -4.5 -52t-2.5 -60q0 -111 54.5 -166.5t160.5 -55.5q64 0 104 20.5t65.5 57.5t47.5 84l5 12q10 19 19.5 30t23.5 13v6q-98 6 -155.5 35t-82 86.5t-24.5 147.5v98h182v-87q0 -60 16.5 -96.5t58.5 -53
t119 -16.5h217l-24 -144h-102q-29 0 -41.5 -11.5t-23.5 -35.5l-7 -17q-37 -85 -83 -146.5t-120 -95t-195 -33.5zM168 1147h186v-994h661q140 0 215.5 35.5t104.5 115.5t29 213v166q0 106 -28.5 175t-97 103t-189.5 34h-97v-949h-186v1101h273q187 0 300 -50.5t163.5 -154
t50.5 -261.5v-160q0 -187 -52.5 -301.5t-173 -167t-325.5 -52.5h-834v1147zM1409 1865q204 0 299 -84t95 -230v-6q0 -131 -69 -201t-210 -70q-144 0 -211.5 67t-67.5 181v10q0 71 30.5 118.5t84.5 69.5v12l74 -1q-21 -31 -30.5 -71t-9.5 -90v-18q0 -70 31 -109t98 -39
q122 0 122 138v8q0 86 -46 131.5t-151 45.5q-23 0 -45.5 -2t-42.5 -6v6q-122 -10 -185.5 -81.5t-63.5 -202.5v-11q0 -92 33.5 -175t82.5 -136h-177q-46 47 -79 134.5t-33 187.5v12q0 197 117 304.5t354 107.5z" />
    <glyph glyph-name="VaMatraIi.tm" horiz-adv-x="2126" 
d="M1775 1147h186v-1147h-663l-4 154h481v993zM1879 1865q204 0 299 -84t95 -230v-6q0 -131 -69 -201t-209 -70q-145 0 -212.5 67t-67.5 181v10q0 71 30.5 118.5t84.5 69.5v12l74 -1q-21 -31 -30.5 -71t-9.5 -90v-18q0 -71 31 -110t98 -39q122 0 122 138v9q0 86 -46 131.5
t-151 45.5q-23 0 -45.5 -2t-42.5 -6v6q-155 -13 -236.5 -114.5t-81.5 -292.5v-45q0 -167 67.5 -270t202.5 -127v-166q-148 19 -248 88t-151 189.5t-51 291.5v41q0 261 137 403t410 142zM734 1174q206 0 331.5 -68t182.5 -196.5t57 -311.5v-80q0 -103 -14 -183t-43 -144
t-73 -119l-17 81h377v-153h-546v13q45 67 73 137.5t41 154.5t13 190v86q0 141 -39 237t-125 145.5t-227 49.5q-211 0 -315 -111t-106 -327v-7.5v-8.5h6v-203q0 -109 45 -170t143 -61q88 0 128 53t40 147v80q0 92 -39.5 139.5t-125.5 47.5q-51 0 -92.5 -21.5t-69 -57.5
t-38.5 -79l-4 125h14q19 74 87 127.5t182 53.5q134 0 200 -81t66 -236v-89q0 -108 -35.5 -188.5t-111.5 -124.5t-198 -44q-129 0 -211.5 51.5t-121.5 145.5t-39 221v168q0 196 68 332.5t202.5 207.5t334.5 71z" />
    <glyph glyph-name="ShaMatraIi.tm" horiz-adv-x="2157" 
d="M1885 1444v-11q0 -85 28 -161t71 -125h-177q-37 44 -66 124.5t-29 172.5v12q0 195 117.5 302t354.5 107q203 0 298.5 -84t95.5 -230v-6q0 -131 -69 -201t-210 -70q-145 0 -212.5 67t-67.5 181v10q0 71 31 118.5t84 69.5v12l75 -1q-21 -31 -30.5 -71t-9.5 -90v-18
q0 -70 30.5 -109t98.5 -39q121 0 121 138v8q0 86 -45.5 131.5t-150.5 45.5q-24 0 -46 -2t-43 -6v6q-121 -10 -185 -81t-64 -200zM163 1147h187v-759q0 -133 48 -193t147 -60t146 60t47 193v759h187v-756q0 -138 -38.5 -230t-122.5 -138.5t-219 -46.5t-219.5 46.5t-123.5 139
t-39 230.5v755zM1230 1147h187v-759q0 -133 47 -193t143 -60q98 0 144 60.5t46 193.5v758h187v-755q0 -138 -38.5 -230.5t-121.5 -139t-217 -46.5q-133 0 -216.5 46.5t-122 139t-38.5 230.5v755zM788 1147h1124v-153h-1124v153z" />
    <glyph glyph-name="SsaMatraIi.tm" horiz-adv-x="2576" 
d="M2302 1865q204 0 299 -84t95 -230v-6q0 -131 -69 -201t-210 -70q-144 0 -211.5 67t-67.5 181v10q0 71 30.5 118.5t84.5 69.5v12l74 -1q-21 -31 -30.5 -71t-9.5 -90v-18q0 -70 31 -109t98 -39q122 0 122 138v8q0 86 -46 131.5t-151 45.5q-23 0 -45.5 -2t-42.5 -6v6
q-122 -10 -185.5 -81.5t-63.5 -202.5v-11q0 -86 29.5 -163.5t73.5 -127.5h-177q-39 44 -69 126t-30 176v12q0 197 117 304.5t354 107.5zM734 1174q206 0 331.5 -68t182.5 -196.5t57 -311.5v-80q0 -103 -14 -183t-43 -144t-73 -119l-17 81h377v-153h-546v13q45 67 73 137.5
t41 154.5t13 190v86q0 141 -39 237t-125 145.5t-227 49.5q-211 0 -315 -111t-106 -327v-7.5v-8.5h6v-203q0 -109 45 -170t143 -61q88 0 128 53t40 147v80q0 92 -39.5 139.5t-125.5 47.5q-51 0 -92.5 -21.5t-69 -57.5t-38.5 -79l-4 125h14q19 74 87 127.5t182 53.5
q134 0 200 -81t66 -236v-89q0 -108 -35.5 -188.5t-111.5 -124.5t-198 -44q-129 0 -211.5 51.5t-121.5 145.5t-39 221v168q0 196 68 332.5t202.5 207.5t334.5 71zM1273 153h663l52 -25l48 25h526l-22 -153h-1267v153zM1988 1173q208 0 307.5 -117t99.5 -322v-168
q0 -189 -78.5 -315t-273.5 -191l-81 61q93 35 146.5 92t75.5 135.5t22 178.5v194q0 139 -51.5 215t-166.5 76t-166.5 -76t-51.5 -215v-194q0 -100 22 -178.5t75.5 -135.5t146.5 -92l-82 -61q-195 65 -273 191t-78 315v168q0 205 99.5 322t307.5 117zM2026 -512
q-185 0 -269 67.5t-84 205.5v8q0 105 57.5 168.5t159.5 98.5l21 7l111 -32l-27 -13q-68 -32 -104 -75.5t-36 -117.5v-3q0 -74 45.5 -116t158.5 -42q41 0 77.5 3.5t74 10t83.5 15.5l-28 -158q-56 -13 -115.5 -20t-124.5 -7z" />
    <glyph glyph-name="SaMatraIi.tm" horiz-adv-x="2557" 
d="M1992 1409v-11q0 -52 9.5 -106t26 -101t37.5 -79l-121 30q23 9 56 15t65 6q135 0 213.5 -52.5t112 -153t33.5 -244.5v-266q0 -229 -92 -349.5t-298 -120.5q-210 0 -303 115t-93 345v327q0 134 -41 192.5t-133 58.5q-88 0 -135 -58t-47 -191v-766h-186v557q0 149 -37 251
t-121.5 154t-227.5 52q-205 0 -304 -110.5t-101 -325.5v-19.5v-19.5h6v-183q0 -109 45 -170t143 -61q87 0 127 53t40 147v80q0 92 -39.5 139.5t-125.5 47.5q-51 0 -92.5 -21.5t-68.5 -57.5t-38 -79l-5 105h12q19 83 87.5 142t183.5 59q134 0 200 -81t66 -236v-89
q0 -108 -35.5 -188.5t-111.5 -124.5t-197 -44q-129 0 -211.5 51.5t-122 145.5t-39.5 221v170q0 196 63.5 331.5t190 206.5t315.5 71q151 0 251 -46.5t154.5 -131t68.5 -199.5h5v26q0 173 80.5 261.5t240.5 88.5q169 0 247.5 -99t78.5 -305v-334q0 -154 48.5 -226.5
t161.5 -72.5q110 0 155.5 78t45.5 227v257q0 103 -22 174t-77.5 108t-154.5 37q-16 0 -32.5 -2t-29.5 -4q-41 68 -71.5 173.5t-30.5 224.5v11q0 212 116.5 328.5t360.5 116.5q204 0 299 -84t95 -230v-6q0 -131 -69 -201t-210 -70q-144 0 -211.5 67t-67.5 181v10
q0 71 30.5 118.5t84.5 69.5v12l74 -1q-21 -31 -30.5 -71t-9.5 -90v-18q0 -70 31 -109t98 -39q122 0 122 138v8q0 86 -46 131.5t-151 45.5q-23 0 -45.5 -2t-42.5 -6v6q-127 -11 -190 -88.5t-63 -227.5z" />
    <glyph glyph-name="HaMatraIi.tm" horiz-adv-x="3101" 
d="M2937 1865q203 0 298 -84t95 -230v-6q0 -131 -69 -201t-209 -70q-145 0 -212.5 67t-67.5 181v10q0 71 31 118.5t84 69.5v12l74 -1q-21 -31 -30.5 -71t-9.5 -90v-18q0 -70 31 -109t99 -39q121 0 121 138v8q0 86 -46 131.5t-151 45.5q-23 0 -45 -2t-43 -6v6
q-121 -10 -185 -81.5t-64 -202.5v-11q0 -86 29.5 -163.5t73.5 -127.5h-177q-39 44 -69 126t-30 176v12q0 197 117 304.5t355 107.5zM1357 153h342v-153h-342v153zM1773 -212v-156h-1294l-26 156h1320zM730 1174q206 0 331.5 -68t182.5 -196.5t57 -311.5v-80q0 -103 -14 -183
t-43 -144t-73 -119l-17 81h377v-153h-546v13q44 67 72.5 137.5t41.5 154.5t13 190v86q0 141 -39 237t-125.5 145.5t-226.5 49.5q-212 0 -315.5 -111t-105.5 -327v-7.5v-8.5h6v-203q0 -109 45 -170t143 -61q88 0 128 53t40 147v80q0 92 -39.5 139.5t-125.5 47.5
q-52 0 -93 -21.5t-68.5 -57.5t-38.5 -79l-4 125h14q19 74 87 127.5t182 53.5q134 0 200 -81t66 -236v-89q0 -108 -35.5 -188.5t-112 -124.5t-197.5 -44q-130 0 -212 51.5t-121 145.5t-39 221v168q0 196 68 332.5t202.5 207.5t334.5 71zM579 -212v-156h-165q-102 0 -175 -12
t-129.5 -33.5t-110.5 -52.5l19 177q41 24 90 41t120.5 26.5t178.5 9.5h172zM1954 1171q144 0 217 -73t86 -208h7q17 136 104 209t246 73q176 0 258.5 -90t82.5 -255v-13q0 -130 -59.5 -209t-183.5 -90v-6q87 -5 147.5 -42.5t91.5 -109t31 -181.5v-36q0 -181 -55.5 -293
t-190.5 -163.5t-374 -51.5h-849l-26 156h858q175 0 273 35.5t137.5 115t39.5 212.5v33q0 130 -58.5 186t-178.5 60l-73 3v148l75 2q116 3 166.5 57.5t50.5 150.5v13q0 67 -20.5 114t-65 71.5t-115.5 24.5t-122.5 -26.5t-78.5 -84t-27 -152.5v-751h-186v775
q0 125 -43.5 181.5t-141.5 56.5q-90 0 -140 -57t-50 -181v-775h-186v765q0 210 91 308t262 98z" />
    <glyph glyph-name="KssaMatraIi.tm" horiz-adv-x="3241" 
d="M2967 1865q204 0 299 -84t95 -230v-6q0 -131 -69 -201t-210 -70q-144 0 -211.5 67t-67.5 181v10q0 71 30.5 118.5t84.5 69.5v12l74 -1q-21 -31 -30.5 -71t-9.5 -90v-18q0 -70 31 -109t98 -39q122 0 122 138v8q0 86 -46 131.5t-151 45.5q-23 0 -45.5 -2t-42.5 -6v6
q-122 -10 -185.5 -81.5t-63.5 -202.5v-11q0 -86 29.5 -163.5t73.5 -127.5h-177q-39 44 -69 126t-30 176v12q0 197 117 304.5t354 107.5zM916 544v150h168q151 0 215 -57t76 -182h8v11q0 150 84 236.5t241 86.5q161 0 235.5 -83.5t74.5 -241.5v-63q0 -109 -24.5 -177
t-63.5 -121l-37 50h452v-153h-612v13q52 65 78.5 139.5t26.5 189.5v70q0 106 -40.5 163t-132.5 57q-59 0 -103.5 -27.5t-68.5 -83.5t-24 -142v-379h-184v314q0 86 -20 136t-67 72t-129 22h-153zM908 690v-143h-482l-123 -17q-2 -19 -3.5 -44t-2 -50.5t-0.5 -46.5
q0 -128 66.5 -193t204.5 -65q131 0 188.5 65t57.5 198v230l7 22v450h169v-450v-22v-229q0 -136 -42 -229.5t-134.5 -141t-243.5 -47.5q-232 0 -341 108.5t-109 311.5q0 37 2 79t5.5 83t9.5 74l195 47l134 10h442zM1097 1147v-148h-180l-21 9h-400l-8 -380h-167v519h776z
M1938 153h663l52 -25l48 25h526l-22 -153h-1267v153zM2653 1173q208 0 307.5 -117t99.5 -322v-168q0 -189 -78.5 -315t-273.5 -191l-81 61q93 35 146.5 92t75.5 135.5t22 178.5v194q0 139 -51.5 215t-166.5 76t-166.5 -76t-51.5 -215v-194q0 -100 22 -178.5t75.5 -135.5
t146.5 -92l-82 -61q-195 65 -273 191t-78 315v168q0 205 99.5 322t307.5 117zM2691 -512q-185 0 -269 67.5t-84 205.5v8q0 105 57.5 168.5t159.5 98.5l21 7l111 -32l-27 -13q-68 -32 -104 -75.5t-36 -117.5v-3q0 -74 46 -116t158 -42q42 0 78 3.5t73.5 10t83.5 15.5
l-28 -158q-55 -13 -115 -20t-125 -7zM1036 999v148h274l19 -148h-293z" />
    <glyph glyph-name="KaMatraU.tm" horiz-adv-x="2133" 
d="M1449 546v148h120q168 0 270 -48t148.5 -144.5t46.5 -244.5v-21q0 -225 -92 -385t-284.5 -244.5t-495.5 -84.5h-5q-343 0 -568.5 107.5t-336 317.5t-110.5 517q0 154 17 282t43.5 229t53.5 172h193q-25 -66 -46.5 -139.5t-37.5 -157.5t-25 -179t-9 -203q0 -256 88 -431
t270.5 -264t467.5 -89h4q246 0 397 64.5t220.5 187t69.5 297.5v22q0 154 -67 222.5t-223 68.5h-109zM1454 690v-143h-482l-123 -17q-2 -19 -3.5 -44t-2 -50.5t-0.5 -46.5q0 -128 66.5 -193t204.5 -65q131 0 188.5 65t57.5 198v230l7 22v450h169v-450v-22v-229
q0 -136 -42 -229.5t-134.5 -141t-243.5 -47.5q-232 0 -341 108.5t-109 311.5q0 37 2 79t5.5 83t9.5 74l195 47l134 10h442zM1643 1147v-148h-180l-21 9h-400l-8 -380h-167v519h776zM1575 999v148h274l19 -148h-293z" />
    <glyph glyph-name="NgaMatraU.tm" horiz-adv-x="2109" 
d="M1756 186h185v-552h-185v552zM752 1095h186v-1095h-186v1095zM1219 762q139 0 205 -83t66 -238v-39q0 -110 -18 -178t-50 -121l-58 48h469v-151h-627v13q56 64 80 137.5t24 188.5v38q0 105 -40 161t-132 56q-75 0 -128.5 -44t-77.5 -121h-5v127h18q12 57 45.5 103.5
t90.5 74.5t138 28zM1755 1147h186v-1147h-186v1147zM1128 1147v-153h-774v-994h-186v1147h960zM1043 994v153h349l19 -153h-368z" />
    <glyph glyph-name="CaMatraU.tm" horiz-adv-x="1707" 
d="M922 544v150h734l21 -150h-755zM1277 592h185v-592h-185v592zM908 690v-143h-482l-123 -17q-2 -19 -3.5 -44t-2 -50.5t-0.5 -46.5q0 -128 66.5 -193t204.5 -65q131 0 188.5 65t57.5 198v230l7 22v450h169v-450v-22v-229q0 -136 -42 -229.5t-134.5 -141t-243.5 -47.5
q-232 0 -341 108.5t-109 311.5q0 37 2 79t5.5 83t9.5 74l195 47l134 10h442zM1097 1147v-148h-180l-21 9h-400l-8 -380h-167v519h776zM1014 999v148h274l19 -148h-293z" />
    <glyph glyph-name="JaMatraU.tm" horiz-adv-x="2785" 
d="M1822 1147v-153h-253l-17 153h270zM652 1184q148 0 243.5 -42t147 -117.5t66.5 -177.5h4q12 155 91 242t241 87q86 0 144.5 -23t95.5 -67l3 -31q53 -46 76.5 -122t23.5 -170v-47q0 -121 -25 -208.5t-82 -146.5t-152.5 -95t-237.5 -53l-662 -81q-105 -13 -167 -40.5
t-89 -74.5t-27 -121v-9q0 -94 49.5 -147t156.5 -53q64 0 110.5 19t88 51.5t88.5 72.5l117 100q82 70 158.5 119.5t159 75.5t180.5 26q116 0 189 -34t107.5 -100t34.5 -164v-8q0 -154 -84.5 -232t-265.5 -78q-61 0 -120.5 9.5t-114.5 28.5l-37 158q58 -20 114 -31t116 -11
q113 0 162 39t49 117v10q0 68 -36.5 106t-120.5 38q-94 0 -172.5 -34t-163.5 -109l-119 -105q-71 -63 -132.5 -111.5t-134 -76.5t-178.5 -28q-184 0 -283 90.5t-99 256.5v10q0 123 46 202.5t142 124t244 62.5l659 80q138 17 214.5 56.5t107 111.5t30.5 184v56
q0 81 -19.5 137.5t-62 86.5t-112.5 30q-63 0 -109 -26.5t-71 -85.5t-25 -157v-312h-179v208q0 126 -35.5 212t-116 129.5t-214.5 43.5q-184 0 -277 -79t-94 -214h9v-69q0 -87 41.5 -137t129.5 -50q78 0 113.5 39t35.5 109v12q0 66 -35.5 101.5t-110.5 35.5q-45 0 -83 -18
t-63.5 -49t-36.5 -71l-7 107h14q17 71 75.5 120.5t164.5 49.5q130 0 191 -71.5t61 -200.5v-12q0 -134 -77 -212t-242 -78q-176 0 -262 97t-86 251v23q0 221 135 343t392 122zM1700 994v153h574q230 0 331.5 -101t101.5 -286v-51q0 -167 -81 -259.5t-251 -92.5
q-117 0 -192 44.5t-111 124.5t-36 186v61q0 57 5.5 102t14.5 74l165 48l20 1q-16 -39 -24 -90t-8 -118v-70q0 -103 40 -160.5t125 -57.5q80 0 118.5 52t38.5 152v58q0 114 -53.5 172t-179.5 58h-598z" />
    <glyph glyph-name="NyaMatraU.tm" horiz-adv-x="2526" 
d="M1093 1099h186v-1099h-186v1099zM1552 755q167 0 236 -116t69 -342v-124q0 -94 -4 -174t-11 -144t-16 -111l-2 -28q-23 -111 -83.5 -205t-164 -163t-254.5 -107.5t-355 -38.5q-219 0 -384 43t-277.5 123.5t-173 193.5t-69.5 252h2295v-150h-2071q15 -58 60 -113
t126 -99.5t203.5 -71t290.5 -26.5q162 0 280.5 28.5t198 79t125.5 117.5t62 144l4 35q9 42 16.5 105.5t12 141.5t4.5 163v112q0 154 -41 231t-151 77q-80 0 -135 -49t-74 -135h-15v153h33q18 86 85.5 142t179.5 56zM2172 1146h186v-1444h-186v1444zM967 1147h398v-153h-398
v153zM993 1147v-153h-211q-250 0 -366 -106t-116 -318v-5.5v-5.5h6v-203q0 -109 45 -170t143 -61q88 0 128 53t40 147v80q0 92 -39.5 139.5t-125.5 47.5q-51 0 -92.5 -21.5t-69 -57.5t-38.5 -79l-4 125h14q18 79 85 135t179 56q137 0 204 -84t67 -243v-89
q0 -108 -35.5 -188.5t-111.5 -124.5t-198 -44q-129 0 -211.5 51.5t-121.5 145.5t-39 221v162q0 190 71 321.5t215 200t363 68.5h219zM1325 994v153h349l19 -153h-368z" />
    <glyph glyph-name="TtaMatraU.tm" horiz-adv-x="1657" 
d="M748 1147h186v-1147h-186v1147zM1530 915q0 -19 -0.5 -39t-1.5 -37h-188q1 19 1.5 37t0.5 37q0 289 -111.5 429.5t-353.5 140.5q-185 0 -303 -77.5t-174.5 -236t-56.5 -401.5v-362q0 -367 124.5 -541.5t395.5 -174.5q235 0 341.5 132t106.5 407v94q0 133 -42 201.5
t-141 68.5q-79 0 -132 -53t-72 -148h-15v153h32q18 92 84 153.5t177 61.5q158 0 227.5 -108t69.5 -313v-107q0 -352 -154 -527.5t-482 -175.5q-358 0 -533 215.5t-175 667.5v349q0 451 179 667.5t543 216.5q337 0 495 -184t158 -546z" />
    <glyph glyph-name="NnaMatraU.tm" horiz-adv-x="4015" 
d="M1881 1178q197 0 331.5 -32t219.5 -81l2 -6q101 -48 163 -124.5t90.5 -178.5t28.5 -225v-130q0 -129 -37 -224.5t-117 -147.5t-209 -52q-130 0 -211.5 52.5t-120 148t-38.5 223.5v130q0 124 30.5 228.5t100 181t186.5 115.5l81 -99q-81 -34 -127 -93.5t-65.5 -141
t-19.5 -182.5v-135q0 -86 18.5 -146.5t59 -92t105.5 -31.5t104 31.5t57 92t18 146.5v135q0 101 -19 182t-64 140.5t-124 93.5l-10 5q-45 19 -109.5 34t-146 24t-177.5 9q-146 0 -256 -20t-186 -50l-105 110q89 49 223.5 79.5t323.5 30.5zM2802 1179q180 0 292.5 -41.5
t165 -123t52.5 -200.5v-2q0 -133 -57.5 -212t-181.5 -90v-5q85 -5 143 -44.5t88.5 -117t30.5 -198.5v-16q0 -125 -15 -225.5t-38 -163.5l-5 -49q-52 -119 -171 -218t-308.5 -171t-453 -111.5t-605.5 -39.5q-402 0 -702 47.5t-505 135t-319 209.5t-144 271h3778v-150h-3500
q38 -67 142.5 -131.5t277 -116.5t415 -82.5t557.5 -30.5q296 0 526.5 30.5t397.5 86t272 132t152 167.5l6 33q24 56 39.5 158t15.5 217v13q0 152 -57.5 217.5t-177.5 69.5l-65 2v147l73 2q115 4 164 61t49 158v2q0 76 -35 128.5t-110 80t-196 27.5t-221 -18t-179 -48
l-100 108q86 44 214.5 73t294.5 29zM3661 1147h186v-1445h-186v1445zM935 1180q197 0 332 -31.5t219 -81.5l2 -7q101 -48 163 -124.5t90 -178.5t28 -226v-130q0 -129 -37 -224.5t-116.5 -147.5t-208.5 -52q-130 0 -211.5 52.5t-120 148t-38.5 223.5v130q0 124 30.5 228.5
t100 181.5t185.5 116l81 -99q-80 -34 -126.5 -93.5t-66 -141t-19.5 -183.5v-135q0 -86 19 -146.5t60 -92t106 -31.5q64 0 103 31.5t56.5 92t17.5 146.5v135q0 102 -18.5 183.5t-63 141t-123.5 93.5l-12 4q-65 26 -169.5 44.5t-258.5 18.5q-318 0 -477 -118t-162 -350v-3.5
v-4.5h6v-193q0 -109 44.5 -170t142.5 -61q88 0 128 53t40 147v80q0 92 -39.5 139.5t-125.5 47.5q-51 0 -92.5 -21.5t-68.5 -57.5t-38 -79l-5 125h15q18 79 85 135t178 56q137 0 204 -84t67 -243v-89q0 -108 -35.5 -188.5t-111.5 -124.5t-197 -44q-130 0 -212.5 51.5
t-121.5 145.5t-39 221v143q0 207 92 350t272.5 217.5t446.5 74.5z" />
    <glyph glyph-name="TaMatraU.tm" horiz-adv-x="2156" 
d="M1802 1147h186v-1442h-186v1442zM940 554v150h74q257 0 371 -123t114 -398v-74q0 -81 -3.5 -148.5t-9 -121.5t-13.5 -94l-7 -42q-28 -129 -109.5 -229.5t-226 -157.5t-363.5 -57q-243 0 -405 67.5t-246.5 192.5t-96.5 295h1969v-150h-1748q11 -51 46.5 -96.5t99 -80.5
t158 -55.5t223.5 -20.5q159 0 265 38.5t166 106.5t80 157l8 46q8 35 14 89t9.5 119.5t3.5 136.5v65q0 142 -33 226.5t-103.5 121.5t-184.5 37h-52zM917 690v-143h-482l-123 -17q-2 -19 -3.5 -44t-2 -50.5t-0.5 -46.5q0 -128 66.5 -193t204.5 -65q131 0 188.5 65t57.5 198
v230l7 22v450h169v-450v-22v-229q0 -136 -42 -229.5t-134.5 -141t-243.5 -47.5q-232 0 -341 108.5t-109 311.5q0 37 2 79t5.5 83t9.5 74l195 47l134 10h442zM1106 1147v-148h-180l-21 9h-400l-8 -380h-167v519h776zM1042 999v148h274l19 -148h-293z" />
    <glyph glyph-name="NaMatraU.tm" horiz-adv-x="2165" 
d="M740 1099h186v-1099h-186v1099zM1198 755q169 0 237.5 -116.5t68.5 -346.5v-114q0 -95 -3.5 -176t-10 -146t-15.5 -112l-4 -41q-25 -130 -106.5 -231t-226.5 -159t-363 -58q-179 0 -312.5 39t-223.5 112t-138.5 176t-59.5 232h1956v-150h-1736q13 -51 48 -97.5t96 -82.5
t152.5 -56.5t217.5 -20.5q159 0 264.5 39t164.5 108t78 160l5 40q9 44 15.5 108.5t10.5 144t4 166.5v102q0 158 -41 235.5t-151 77.5q-76 0 -132.5 -48.5t-76.5 -135.5h-15v153h33q13 57 48 102t90 70.5t126 25.5zM1810 1147h187v-1445h-187v1445zM1038 1147v-153h-684v-994
h-186v1147h870zM970 994v153h349l19 -153h-368z" />
    <glyph glyph-name="NnnaMatraU.tm" horiz-adv-x="3059" 
d="M1858 1179q179 0 291 -41.5t164.5 -123t52.5 -200.5v-2q0 -133 -57.5 -212t-181.5 -90v-5q85 -5 143 -44.5t88.5 -117t30.5 -198.5v-16q0 -83 -5 -156t-13 -132t-18 -102l-3 -38q-43 -154 -176 -271t-365.5 -182t-574.5 -65q-283 0 -494.5 44.5t-354 127t-220.5 199
t-96 260.5h2822v-150h-2580q23 -61 88 -119.5t177.5 -105.5t275.5 -74.5t382 -27.5q215 0 376.5 28.5t274.5 79.5t180.5 121t94.5 152l3 33q17 57 28 159t11 217v13q0 152 -57.5 217.5t-177.5 69.5l-65 2v147l73 2q114 4 163 61t49 158v2q0 76 -34.5 128.5t-109.5 80
t-195 27.5q-124 0 -223 -18.5t-179 -47.5l-100 107q87 44 215 73.5t297 29.5zM2705 1147h186v-1445h-186v1445zM935 1180q197 0 331.5 -32t219.5 -82l1 -7q102 -47 164 -123.5t90 -178.5t28 -226v-130q0 -129 -37 -224.5t-116.5 -147.5t-208.5 -52q-130 0 -211.5 52.5
t-120 148t-38.5 223.5v130q0 124 30.5 229t100 181t185.5 115l81 -99q-80 -34 -126.5 -93t-66 -140.5t-19.5 -183.5v-135q0 -86 19 -146.5t60 -92t106 -31.5q64 0 103 31.5t56.5 92t17.5 146.5v135q0 102 -18.5 183.5t-63.5 140.5t-124 93l-11 4q-66 27 -170 45.5t-258 18.5
q-318 0 -477 -118t-162 -350v-3.5v-4.5h6v-193q0 -109 44.5 -170t142.5 -61q88 0 128 53t40 147v80q0 92 -39.5 139.5t-125.5 47.5q-51 0 -92.5 -21.5t-68.5 -57.5t-38 -79l-5 125h15q18 79 85 135t178 56q137 0 204 -84t67 -243v-89q0 -108 -35.5 -188.5t-111.5 -124.5
t-197 -44q-130 0 -212.5 51.5t-121.5 145.5t-39 221v143q0 207 92 350t272.5 217.5t446.5 74.5z" />
    <glyph glyph-name="PaMatraU.tm" horiz-adv-x="1469" 
d="M1115 186h186v-552h-186v552zM1111 1147h190v-1147h-635v158h445v989zM357 1147v-989h544v-158h-733v1147h189z" />
    <glyph glyph-name="MaMatraU.tm" horiz-adv-x="2291" 
d="M252 1147h191q-24 -76 -44 -163.5t-34.5 -187t-22.5 -212t-8 -238.5q0 -228 56.5 -387t179 -242t319.5 -83h4q244 0 357 104.5t119 304.5l2 57l187 -2l-2 -60q-5 -181 -78 -307t-217.5 -191.5t-366.5 -65.5h-5q-255 0 -420 101t-244.5 297t-79.5 480q0 131 8.5 247
t24 216t34.5 183.5t40 148.5zM773 1147h186v-994h661q140 0 215.5 35.5t104.5 115.5t29 213v166q0 106 -28.5 175t-97 103t-189.5 34h-97v-949h-186v1101h273q187 0 300 -50.5t163.5 -154t50.5 -261.5v-160q0 -187 -52.5 -301.5t-173 -167t-325.5 -52.5h-834v1147z" />
    <glyph glyph-name="YaMatraU.tm" horiz-adv-x="1973" 
d="M1619 186h186v-552h-186v552zM1616 1147h189v-1147h-560v158h371v989zM1388 0h-598l2 222h-9q-16 -112 -87.5 -177.5t-209.5 -65.5q-157 0 -240 94.5t-83 296.5v777h186v-774q0 -123 47.5 -179t134.5 -56q103 0 150.5 67.5t47.5 212.5v729h190v-989h469v-158z" />
    <glyph glyph-name="RaMatraU.tm" horiz-adv-x="2182" 
d="M1312 1098h186v-1097h-186v1097zM1774 755q161 0 231 -106.5t70 -312.5v-42q0 -261 -95.5 -438t-295.5 -267t-514 -90h-8q-343 0 -568.5 106.5t-337 323t-111.5 546.5q0 111 8.5 210t23 184t31.5 155t35 123h191q-22 -64 -40 -137.5t-31.5 -157t-21 -177.5t-7.5 -200
q0 -276 87 -456.5t270 -269t471 -88.5h8q251 0 409.5 70t233 210.5t74.5 350.5v27q0 134 -42 201.5t-145 67.5q-82 0 -137.5 -50t-75.5 -139h-14v153h31q20 88 87.5 145.5t182.5 57.5zM1610 1147v-153h-685v-994h-185v1147h870zM1541 994v153h349l19 -153h-368z" />
    <glyph glyph-name="RraMatraU.tm" horiz-adv-x="2209" 
d="M1855 1147h186v-1445h-186v1445zM1174 1172q176 0 258.5 -89.5t82.5 -253.5v-12q0 -132 -58.5 -209.5t-184.5 -88.5v-5q88 -6 147.5 -49t90 -126t30.5 -210v-44q0 -74 -3 -139.5t-7.5 -118.5t-11.5 -91l-1 -31q-24 -136 -107.5 -240.5t-234 -164t-376.5 -59.5
q-248 0 -412.5 68.5t-250.5 197t-99 307.5h2004v-150h-1786q11 -53 47 -101.5t101 -86.5t163 -60t233 -22q167 0 278 40t173 111.5t80 165.5l3 42q6 33 10.5 85.5t7.5 116t3 128.5v47q0 161 -57 231.5t-179 73.5l-73 2v148l75 2q117 3 167 56.5t50 150.5v13
q0 66 -20.5 112.5t-65 70.5t-115.5 24t-122.5 -26.5t-78.5 -84t-27 -152.5v-751h-186v775q0 125 -43.5 181.5t-141.5 56.5q-90 0 -140 -57t-50 -181v-775h-186v765q0 210 91 308t262 98q144 0 217 -73t86 -208h7q17 136 104 209t246 73z" />
    <glyph glyph-name="LaMatraU.tm" horiz-adv-x="2513" 
d="M2159 1147h186v-1445h-186v1445zM816 -762q-185 0 -323 39.5t-230.5 114.5t-142 181.5t-57.5 240.5h2282v-150h-2061q10 -53 45 -102.5t98.5 -88t160 -61t228.5 -22.5q172 0 284.5 41.5t173 114.5t75.5 166l6 44q4 29 8 70.5t7 90.5t3 97h188q0 -51 -3.5 -101.5t-7.5 -94
t-9 -75.5l-2 -38q-21 -139 -105 -244t-236.5 -164t-381.5 -59zM708 1174q197 0 317 -66.5t174.5 -196t54.5 -317.5v-169q0 -146 47.5 -217.5t156.5 -71.5q107 0 152 77t45 225v242q0 108 -22.5 182t-78 112.5t-153.5 38.5q-25 0 -46.5 -2.5t-41.5 -5.5l27 159q21 5 47 7.5
t52 2.5q154 0 242 -57t125.5 -166.5t37.5 -265.5v-241q0 -152 -39 -256t-124 -157.5t-223 -53.5q-205 0 -298 113.5t-93 330.5v169q0 140 -36.5 234.5t-116 142t-209.5 47.5q-202 0 -300 -111t-100 -326v-9v-9h6v-203q0 -109 45 -170t143 -61q87 0 127 53t40 147v80
q0 92 -39.5 139.5t-125.5 47.5q-51 0 -92.5 -21.5t-68.5 -57.5t-38 -79l-5 125h15q18 79 85 135t178 56q137 0 204 -84t67 -243v-89q0 -108 -35.5 -188.5t-111.5 -124.5t-197 -44q-129 0 -211.5 51.5t-122 145.5t-39.5 221v169q0 196 64.5 332t193.5 207t321 71z" />
    <glyph glyph-name="LlaMatraU.tm" horiz-adv-x="3112" 
d="M2703 755q161 0 231.5 -106.5t70.5 -312.5v-23q0 -298 -136 -496t-427.5 -296t-756.5 -98h-31q-389 0 -673 70.5t-468 212t-273.5 357t-89.5 504.5q0 118 7.5 222.5t21.5 194.5t32 163h191q-32 -129 -47.5 -267t-15.5 -310q0 -252 74.5 -438t232 -307.5t406.5 -181
t597 -59.5h36q305 0 520 44t350.5 134t198.5 227t63 323v7q0 134 -42 201.5t-145 67.5q-83 0 -138.5 -50t-75.5 -139h-14v153h31q20 88 87.5 145.5t182.5 57.5zM2239 1101h186v-1101h-186v1101zM1264 1174q110 0 189.5 -25t133 -70t85.5 -105.5t45 -130.5h7l-2 304h751v-153
h-624v-994h-186v547q0 232 -87.5 349.5t-297.5 117.5q-205 0 -304.5 -109t-101.5 -320v-12.5v-13.5h6v-203q0 -109 45 -170t143 -61q87 0 127.5 53t40.5 147v80q0 92 -39.5 139.5t-125.5 47.5q-52 0 -93.5 -21.5t-68.5 -57.5t-38 -79l-5 125h15q18 79 85 135t178 56
q137 0 204 -84t67 -243v-89q0 -108 -35.5 -188.5t-111.5 -124.5t-197 -44q-129 0 -211.5 51.5t-122 145.5t-39.5 221v177q0 193 63.5 327t190 204.5t314.5 70.5zM2453 994v153h349l19 -153h-368z" />
    <glyph glyph-name="LllaMatraU.tm" horiz-adv-x="2295" 
d="M256 1147h191q-24 -76 -44 -163.5t-34 -186.5t-22 -211.5t-8 -239.5q0 -255 72 -430.5t232 -266.5t423 -91q168 0 285.5 41t193.5 99l12 9q15 11 29 18t27 11v4q-86 7 -138 38t-75 85t-23 130v91h181v-81q0 -64 16 -103t57.5 -56.5t116.5 -17.5h221l-24 -144h-101
q-29 0 -48.5 -9.5t-41.5 -28.5l-15 -13q-78 -65 -174 -118t-219 -84t-282 -31q-318 0 -520 108.5t-298 321t-96 524.5q0 131 8.5 247t23.5 216t34 183.5t40 148.5zM777 1147h186v-994h661q140 0 215.5 35.5t104.5 115.5t29 213v166q0 106 -28.5 175t-97 103t-189.5 34h-97
v-949h-186v1101h273q187 0 300 -50.5t163.5 -154t50.5 -261.5v-160q0 -187 -52.5 -301.5t-173 -167t-325.5 -52.5h-834v1147z" />
    <glyph glyph-name="VaMatraU.tm" horiz-adv-x="1985" 
d="M1632 186h185v-552h-185v552zM1631 1147h186v-1147h-547l-5 153h366v994zM734 1174q206 0 331.5 -68t182.5 -196.5t57 -311.5v-80q0 -103 -14 -183t-43 -144t-73 -119l-17 81h377v-153h-546v13q45 67 73 137.5t41 154.5t13 190v86q0 141 -39 237t-125 145.5t-227 49.5
q-211 0 -315 -111t-106 -327v-7.5v-8.5h6v-203q0 -109 45 -170t143 -61q88 0 128 53t40 147v80q0 92 -39.5 139.5t-125.5 47.5q-51 0 -92.5 -21.5t-69 -57.5t-38.5 -79l-4 125h14q19 74 87 127.5t182 53.5q134 0 200 -81t66 -236v-89q0 -108 -35.5 -188.5t-111.5 -124.5
t-198 -44q-129 0 -211.5 51.5t-121.5 145.5t-39 221v168q0 196 68 332.5t202.5 207.5t334.5 71z" />
    <glyph glyph-name="ShaMatraU.tm" horiz-adv-x="3000" 
d="M2055 1147v-153h-249l-17 153h266zM163 1147h187v-759q0 -133 48 -193t147 -60t146 60t47 193v759h187v-756q0 -138 -38.5 -230t-122.5 -138.5t-219 -46.5t-219.5 46.5t-123.5 139t-39 230.5v755zM1230 1147h187v-759q0 -133 47 -193t143 -60q98 0 144 60.5t46 193.5v758
h187v-755q0 -138 -38.5 -230.5t-121.5 -139t-217 -46.5q-133 0 -216.5 46.5t-122 139t-38.5 230.5v755zM788 1147h1124v-153h-1124v153zM1915 994v153h574q230 0 331.5 -101t101.5 -286v-51q0 -167 -81 -259.5t-251 -92.5q-117 0 -192 44.5t-111 124.5t-36 186v61
q0 57 5.5 102t14.5 74l165 48l20 1q-16 -39 -24 -90t-8 -118v-70q0 -103 40 -160.5t125 -57.5q80 0 118.5 52t38.5 152v58q0 114 -53.5 172t-179.5 58h-598z" />
    <glyph glyph-name="SsaMatraU.tm" horiz-adv-x="3394" 
d="M1257 153h678l52 -29l49 29h525l-21 -153h-1283v153zM1987 1173q95 0 162.5 -23t111.5 -69l-1 -31q72 -46 103.5 -127t31.5 -193v-164q0 -189 -78.5 -315t-274.5 -191l-81 61q94 35 147 92t75 135.5t22 178.5v194q0 139 -51.5 215t-166.5 76q-114 0 -165.5 -76
t-51.5 -215v-194q0 -100 22 -178.5t75 -135.5t146 -92l-81 -61q-195 65 -273.5 191t-78.5 315v168q0 205 100 322t307 117zM2461 1147v-153h-307l-27 153h334zM734 1174q206 0 331.5 -68t182.5 -196.5t57 -311.5v-80q0 -103 -14 -183t-43 -144t-73 -119l-17 81h377v-153
h-546v13q45 67 73 137.5t41 154.5t13 190v86q0 141 -39 237t-125 145.5t-227 49.5q-211 0 -315 -111t-106 -327v-7.5v-8.5h6v-203q0 -109 45 -170t143 -61q88 0 128 53t40 147v80q0 92 -39.5 139.5t-125.5 47.5q-51 0 -92.5 -21.5t-69 -57.5t-38.5 -79l-4 125h14
q19 74 87 127.5t182 53.5q134 0 200 -81t66 -236v-89q0 -108 -35.5 -188.5t-111.5 -124.5t-198 -44q-129 0 -211.5 51.5t-121.5 145.5t-39 221v168q0 196 68 332.5t202.5 207.5t334.5 71zM2026 -512q-185 0 -269 67.5t-84 205.5v8q0 105 57.5 168.5t159.5 98.5l21 7l111 -32
l-27 -13q-68 -32 -104 -75.5t-36 -117.5v-3q0 -74 45.5 -116t158.5 -42q41 0 77.5 3.5t74 10t83.5 15.5l-28 -158q-56 -13 -115.5 -20t-124.5 -7zM2309 994v153h574q230 0 331.5 -101t101.5 -286v-51q0 -167 -81 -259.5t-251 -92.5q-117 0 -192 44.5t-111 124.5t-36 186v61
q0 57 5.5 102t14.5 74l165 48l20 1q-16 -39 -24 -90t-8 -118v-70q0 -103 40 -160.5t125 -57.5q80 0 118.5 52t38.5 152v58q0 114 -53.5 172t-179.5 58h-598z" />
    <glyph glyph-name="SaMatraU.tm" horiz-adv-x="3420" 
d="M2477 1147v-153h-295l-18 153h313zM698 1174q150 0 250 -46.5t154.5 -131t68.5 -199.5h7v26q0 173 80 261.5t240 88.5q169 0 247.5 -99t78.5 -305v-334q0 -154 48.5 -226.5t161.5 -72.5q110 0 155.5 78t45.5 227v249q0 105 -21.5 177t-75.5 109t-154 37q-22 0 -40 -2
t-35 -4l28 159q20 3 43.5 5.5t48.5 2.5q86 0 147.5 -21.5t102.5 -63.5l8 -38q78 -52 107.5 -141.5t29.5 -214.5v-248q0 -229 -92 -349.5t-298 -120.5q-210 0 -303 115t-93 345v327q0 134 -41 192.5t-133 58.5q-88 0 -135 -58t-47 -191v-766h-186v557q0 149 -37 251
t-121.5 154t-227.5 52q-205 0 -304 -110.5t-101 -325.5v-9.5v-9.5h6v-203q0 -109 45 -170t143 -61q87 0 127 53t40 147v80q0 92 -39.5 139.5t-125.5 47.5q-51 0 -92.5 -21.5t-68.5 -57.5t-38 -79l-5 125h15q18 79 85 135t178 56q137 0 204 -84t67 -243v-89
q0 -108 -35.5 -188.5t-111.5 -124.5t-197 -44q-129 0 -211.5 51.5t-122 145.5t-39.5 221v170q0 196 63.5 331.5t190 206.5t315.5 71zM2335 994v153h574q230 0 331.5 -101t101.5 -286v-51q0 -167 -81 -259.5t-251 -92.5q-117 0 -192 44.5t-111 124.5t-36 186v61q0 57 5.5 102
t14.5 74l165 48l20 1q-16 -39 -24 -90t-8 -118v-70q0 -103 40 -160.5t125 -57.5q80 0 118.5 52t38.5 152v58q0 114 -53.5 172t-179.5 58h-598z" />
    <glyph glyph-name="HaMatraU.tm" horiz-adv-x="3947" 
d="M1362 153h343v-153h-343v153zM1954 1171q144 0 217 -73t86 -208h7q17 136 104 209t246 73q88 0 148.5 -21.5t98.5 -64.5l5 -37q47 -34 68 -92.5t21 -130.5v-12q0 -130 -59.5 -209t-183.5 -90v-6q87 -5 147.5 -42.5t91.5 -109t31 -181.5v-36q0 -181 -55.5 -293
t-190.5 -163.5t-374 -51.5h-1846l-25 156h1854q175 0 273 35.5t137.5 115t39.5 212.5v33q0 130 -58.5 185.5t-178.5 60.5l-73 3v148l75 2q116 3 166.5 57.5t50.5 150.5v13q0 67 -20.5 114t-65 71.5t-115.5 24.5t-122.5 -26.5t-78.5 -84t-27 -152.5v-751h-186v775
q0 125 -43.5 181.5t-141.5 56.5q-90 0 -140 -57t-50 -181v-775h-186v765q0 210 91 308t262 98zM3013 1147v-153h-275l-22 153h297zM730 1174q206 0 331.5 -68t182.5 -196.5t57 -311.5v-80q0 -103 -14 -183t-43 -144t-73 -119l-17 81h377v-153h-546v13q44 67 72.5 137.5
t41.5 154.5t13 190v86q0 141 -39 237t-125.5 145.5t-226.5 49.5q-212 0 -315.5 -111t-105.5 -327v-7.5v-8.5h6v-203q0 -109 45 -170t143 -61q88 0 128 53t40 147v80q0 92 -39.5 139.5t-125.5 47.5q-52 0 -93 -21.5t-68.5 -57.5t-38.5 -79l-4 125h14q19 74 87 127.5t182 53.5
q134 0 200 -81t66 -236v-89q0 -108 -35.5 -188.5t-112 -124.5t-197.5 -44q-130 0 -212 51.5t-121 145.5t-39 221v168q0 196 68 332.5t202.5 207.5t334.5 71zM579 -212v-156h-165q-102 0 -175 -12t-129.5 -33.5t-110.5 -52.5l19 177q41 24 90 41t120.5 26.5t178.5 9.5h172z
M2862 994v153h574q230 0 331.5 -101t101.5 -286v-51q0 -167 -81 -259.5t-251 -92.5q-117 0 -192 44.5t-111 124.5t-36 186v61q0 57 5.5 102t14.5 74l165 48l20 1q-16 -39 -24 -90t-8 -118v-70q0 -103 40 -160.5t125 -57.5q80 0 118.5 52t38.5 152v58q0 114 -53.5 172
t-179.5 58h-598z" />
    <glyph glyph-name="KssaMatraU.tm" horiz-adv-x="4060" 
d="M911 544v150h173q151 0 215 -57t76 -182h8v11q0 150 84 236.5t241 86.5q161 0 235.5 -83.5t74.5 -241.5v-63q0 -109 -24.5 -177t-63.5 -121l-37 50h452v-153h-612v13q52 65 78.5 139.5t26.5 189.5v70q0 106 -40.5 163t-132.5 57q-59 0 -103.5 -27.5t-68.5 -83.5t-24 -142
v-379h-184v314q0 86 -20 136t-67 72t-129 22h-158zM1950 153h651l52 -25l48 25h526l-22 -153h-1255v153zM2653 1173q95 0 162.5 -23t111.5 -69l-2 -31q72 -46 103.5 -127t31.5 -193v-164q0 -189 -78.5 -315t-273.5 -191l-81 61q93 35 146.5 92t75.5 135.5t22 178.5v194
q0 139 -51.5 215t-166.5 76t-166.5 -76t-51.5 -215v-194q0 -100 22 -178.5t75.5 -135.5t146.5 -92l-82 -61q-195 65 -273 191t-78 315v168q0 205 99.5 322t307.5 117zM3122 1147v-153h-308l-26 153h334zM908 690v-143h-482l-123 -17q-2 -19 -3.5 -44t-2 -50.5t-0.5 -46.5
q0 -128 66.5 -193t204.5 -65q131 0 188.5 65t57.5 198v230l7 22v450h169v-450v-22v-229q0 -136 -42 -229.5t-134.5 -141t-243.5 -47.5q-232 0 -341 108.5t-109 311.5q0 37 2 79t5.5 83t9.5 74l195 47l134 10h442zM1097 1147v-148h-180l-21 9h-400l-8 -380h-167v519h776z
M1037 999v148h274l19 -148h-293zM2691 -512q-185 0 -269 67.5t-84 205.5v8q0 105 57.5 168.5t159.5 98.5l21 7l111 -32l-27 -13q-68 -32 -104 -75.5t-36 -117.5v-3q0 -74 46 -116t158 -42q42 0 78 3.5t73.5 10t83.5 15.5l-28 -158q-55 -13 -115 -20t-125 -7zM2975 994v153
h574q230 0 331.5 -101t101.5 -286v-51q0 -167 -81 -259.5t-251 -92.5q-117 0 -192 44.5t-111 124.5t-36 186v61q0 57 5.5 102t14.5 74l165 48l20 1q-16 -39 -24 -90t-8 -118v-70q0 -103 40 -160.5t125 -57.5q80 0 118.5 52t38.5 152v58q0 114 -53.5 172t-179.5 58h-598z" />
    <glyph glyph-name="KaMatraUu.tm" horiz-adv-x="2407" 
d="M931 544v150h153q151 0 215 -57t76 -182h8v11q0 150 84 236.5t241 86.5q161 0 235.5 -83.5t74.5 -241.5v-63q0 -109 -24.5 -177t-63.5 -121l-37 51h498l-22 -154h-636v13q52 65 78.5 139.5t26.5 189.5v70q0 107 -40.5 163.5t-132.5 56.5q-59 0 -103.5 -27t-68.5 -83
t-24 -143v-379h-184v315q0 86 -20 136t-67 71.5t-129 21.5h-138zM908 690v-143h-482l-123 -17q-2 -19 -3.5 -44t-2 -50.5t-0.5 -46.5q0 -128 66.5 -193t204.5 -65q131 0 188.5 65t57.5 198v230l7 22v450h169v-450v-22v-229q0 -136 -42 -229.5t-134.5 -141t-243.5 -47.5
q-232 0 -341 108.5t-109 311.5q0 37 2 79t5.5 83t9.5 74l195 47l134 10h442zM1097 1147v-148h-180l-21 9h-400l-8 -380h-167v519h776zM1036 999v148h274l19 -148h-293z" />
    <glyph glyph-name="NgaMatraUu.tm" horiz-adv-x="2467" 
d="M1756 237h185v-529h-185v529zM2191 305q143 0 205.5 -90.5t62.5 -263.5v-28q0 -243 -130.5 -406t-398 -245.5t-679.5 -82.5q-265 0 -481.5 31.5t-372 91t-239 145.5t-83.5 195q0 131 96 186t268 55q115 0 223 -16t201.5 -41.5t162.5 -55.5l20 -162q-90 36 -190.5 65
t-204.5 45.5t-205 16.5q-87 0 -137.5 -24.5t-50.5 -84.5q0 -50 48 -94t137 -80.5t212 -63t274 -41t322 -14.5q347 0 573.5 62.5t337.5 189.5t111 322v17q0 103 -35.5 156t-122.5 53q-71 0 -119 -44.5t-66 -121.5h-13v142h31q17 78 78.5 132t164.5 54zM752 1095h186v-1095
h-186v1095zM1219 762q139 0 205 -83t66 -238v-39q0 -110 -18 -178t-50 -121l-58 48h469v-151h-627v13q56 64 80 137.5t24 188.5v38q0 105 -40 161t-132 56q-75 0 -128.5 -44t-77.5 -121h-5v127h18q12 57 45.5 103.5t90.5 74.5t138 28zM1755 1147h186v-1147h-186v1147z
M1128 1147v-153h-774v-994h-186v1147h960zM1043 994v153h349l19 -153h-368z" />
    <glyph glyph-name="CaMatraUu.tm" horiz-adv-x="2553" 
d="M1485 544v150h827l20 -143h-410l-52 -7h-385zM1807 583h185v-583h-185v583zM258 1147h192q-33 -88 -60 -191t-42.5 -225.5t-15.5 -267.5q0 -288 113.5 -480t354.5 -288.5t622 -96.5h11q293 0 488 57t292.5 166t97.5 265v2q0 89 -34.5 136.5t-114.5 47.5
q-69 0 -115.5 -41.5t-65.5 -110.5h-14v133h31q17 73 78 124t164 51q134 0 195.5 -84t61.5 -242v-10q0 -209 -119 -355.5t-355.5 -223.5t-589.5 -77h-11q-438 0 -721 114.5t-420 342.5t-137 566q0 155 17 284t43 230.5t54 173.5zM1455 690v-143h-482l-123 -17
q-2 -19 -3.5 -44t-2 -50.5t-0.5 -46.5q0 -128 66.5 -193t204.5 -65q131 0 188.5 65t57.5 198v230l7 22v450h169v-450v-22v-229q0 -136 -42 -229.5t-134.5 -141t-243.5 -47.5q-232 0 -341 108.5t-109 311.5q0 37 2 79t5.5 83t9.5 74l195 47l134 10h442zM1644 1147v-148h-180
l-21 9h-400l-8 -380h-167v519h776zM1589 999v148h274l19 -148h-293z" />
    <glyph glyph-name="JaMatraUu.tm" horiz-adv-x="3260" 
d="M1822 1147v-153h-253l-17 153h270zM652 1184q148 0 243.5 -42t147 -117.5t66.5 -177.5h4q12 155 91 242t241 87q86 0 144.5 -23t95.5 -67l3 -31q53 -46 76.5 -122t23.5 -170v-47q0 -121 -25 -208.5t-82 -146.5t-152.5 -95t-237.5 -53l-662 -81q-105 -13 -167 -40.5
t-89 -74.5t-27 -121v-9q0 -94 49.5 -147t156.5 -53q64 0 110.5 19t88 51.5t88.5 72.5l117 100q82 70 158.5 119.5t159 75.5t180.5 26q116 0 189 -34t107.5 -100t34.5 -164v-8q0 -154 -84.5 -232t-265.5 -78q-61 0 -120.5 9.5t-114.5 28.5l-37 158q58 -20 114 -31t116 -11
q113 0 162 39t49 117v10q0 68 -36.5 106t-120.5 38q-94 0 -172.5 -34t-163.5 -109l-119 -105q-71 -63 -132.5 -111.5t-134 -76.5t-178.5 -28q-184 0 -283 90.5t-99 256.5v10q0 123 46 202.5t142 124t244 62.5l659 80q138 17 214.5 56.5t107 111.5t30.5 184v56
q0 81 -19.5 137.5t-62 86.5t-112.5 30q-63 0 -109 -26.5t-71 -85.5t-25 -157v-312h-179v208q0 126 -35.5 212t-116 129.5t-214.5 43.5q-184 0 -277 -79t-94 -214h9v-69q0 -87 41.5 -137t129.5 -50q78 0 113.5 39t35.5 109v12q0 66 -35.5 101.5t-110.5 35.5q-45 0 -83 -18
t-63.5 -49t-36.5 -71l-7 107h14q17 71 75.5 120.5t164.5 49.5q130 0 191 -71.5t61 -200.5v-12q0 -134 -77 -212t-242 -78q-176 0 -262 97t-86 251v23q0 221 135 343t392 122zM1686 1147h454l56 -7h127q202 0 292 -93t90 -269v-71q0 -157 -77 -244t-240 -87
q-123 0 -198.5 46.5t-110.5 136t-35 218.5q0 65 3.5 125.5t10.5 111.5l174 -12q-8 -52 -10.5 -111t-2.5 -122q0 -128 38.5 -189t126.5 -61q77 0 112 46.5t35 137.5v78q0 106 -49 159.5t-165 53.5h-631v153zM2619 1527q194 0 314.5 -76t176 -220.5t55.5 -352.5
q0 -149 -11 -291.5t-33 -276.5l-189 -1q23 137 35 279t12 295q0 157 -36.5 265.5t-117.5 164.5t-216 56q-112 0 -188.5 -35t-120 -99.5t-58.5 -154.5l-174 9q20 132 87.5 230.5t183.5 153t280 54.5z" />
    <glyph glyph-name="NyaMatraUu.tm" horiz-adv-x="3158" 
d="M2756 1098h186v-1098h-186v1098zM2905 1147v-153h-547v-994h-186v1147h733zM2803 994v153h349l19 -153h-368zM1093 1099h186v-1099h-186v1099zM1552 755q167 0 236 -116t69 -342v-124q0 -94 -4 -174t-11 -144t-16 -111l-2 -28q-23 -111 -83.5 -205t-164 -163
t-254.5 -107.5t-355 -38.5q-219 0 -384 43t-277.5 123.5t-173 193.5t-69.5 252h2295v-150h-2071q15 -58 60 -113t126 -99.5t203.5 -71t290.5 -26.5q162 0 280.5 28.5t198 79t125.5 117.5t62 144l4 35q9 42 16.5 105.5t12 141.5t4.5 163v112q0 154 -41 231t-151 77
q-80 0 -135 -49t-74 -135h-15v153h33q18 86 85.5 142t179.5 56zM2172 1146h186v-1444h-186v1444zM967 1147h398v-153h-398v153zM993 1147v-153h-211q-250 0 -366 -106t-116 -318v-5.5v-5.5h6v-203q0 -109 45 -170t143 -61q88 0 128 53t40 147v80q0 92 -39.5 139.5
t-125.5 47.5q-51 0 -92.5 -21.5t-69 -57.5t-38.5 -79l-4 125h14q18 79 85 135t179 56q137 0 204 -84t67 -243v-89q0 -108 -35.5 -188.5t-111.5 -124.5t-198 -44q-129 0 -211.5 51.5t-121.5 145.5t-39 221v162q0 190 71 321.5t215 200t363 68.5h219zM1325 994v153h349
l19 -153h-368z" />
    <glyph glyph-name="TtaMatraUu.tm" horiz-adv-x="1762" 
d="M742 1147h186v-1147h-186v1147zM1198 725q156 0 225.5 -108t69.5 -315v-79q0 -355 -153 -529t-475 -174q-362 0 -538.5 224.5t-176.5 699.5v342q0 532 217 792.5t653 260.5q235 0 396.5 -77t245.5 -218.5t84 -334.5v-36q0 -118 -35.5 -199.5t-107.5 -124t-180 -42.5
q-111 0 -181.5 39t-104 110t-33.5 168v21q0 141 65 219t198 78q89 0 140.5 -46.5t69.5 -111.5h17v-111h-7q-20 53 -62.5 88.5t-104.5 35.5q-77 0 -113 -43.5t-36 -124.5v-11q0 -78 38.5 -122t114.5 -44q80 0 120 50.5t40 148.5v33v32l1 47q-5 123 -71 216.5t-189 145.5
t-300 52q-351 0 -519 -216t-168 -668v-355q0 -261 55.5 -428.5t172 -247.5t299.5 -80q228 0 334 129.5t106 408.5v66q0 134 -41.5 203.5t-138.5 69.5q-80 0 -134 -53t-73 -148h-14v152h31q19 93 85.5 154t177.5 61z" />
    <glyph glyph-name="NnaMatraUu.tm" horiz-adv-x="4647" 
d="M4245 1098h186v-1098h-186v1098zM4394 1147v-153h-547v-994h-186v1147h733zM4292 994v153h349l19 -153h-368zM1881 1178q197 0 331.5 -32t219.5 -81l2 -6q101 -48 163 -124.5t90.5 -178.5t28.5 -225v-130q0 -129 -37 -224.5t-117 -147.5t-209 -52q-130 0 -211.5 52.5
t-120 148t-38.5 223.5v130q0 124 30.5 228.5t100 181t186.5 115.5l81 -99q-81 -34 -127 -93.5t-65.5 -141t-19.5 -182.5v-135q0 -86 18.5 -146.5t59 -92t105.5 -31.5t104 31.5t57 92t18 146.5v135q0 101 -19 182t-64 140.5t-124 93.5l-10 5q-45 19 -109.5 34t-146 24
t-177.5 9q-146 0 -256 -20t-186 -50l-105 110q89 49 223.5 79.5t323.5 30.5zM2802 1179q180 0 292.5 -41.5t165 -123t52.5 -200.5v-2q0 -133 -57.5 -212t-181.5 -90v-5q85 -5 143 -44.5t88.5 -117t30.5 -198.5v-16q0 -125 -15 -225.5t-38 -163.5l-5 -49q-52 -119 -171 -218
t-308.5 -171t-453 -111.5t-605.5 -39.5q-402 0 -702 47.5t-505 135t-319 209.5t-144 271h3778v-150h-3500q38 -67 142.5 -131.5t277 -116.5t415 -82.5t557.5 -30.5q296 0 526.5 30.5t397.5 86t272 132t152 167.5l6 33q24 56 39.5 158t15.5 217v13q0 152 -57.5 217.5
t-177.5 69.5l-65 2v147l73 2q115 4 164 61t49 158v2q0 76 -35 128.5t-110 80t-196 27.5t-221 -18t-179 -48l-100 108q86 44 214.5 73t294.5 29zM3661 1147h186v-1445h-186v1445zM935 1180q197 0 332 -31.5t219 -81.5l2 -7q101 -48 163 -124.5t90 -178.5t28 -226v-130
q0 -129 -37 -224.5t-116.5 -147.5t-208.5 -52q-130 0 -211.5 52.5t-120 148t-38.5 223.5v130q0 124 30.5 228.5t100 181.5t185.5 116l81 -99q-80 -34 -126.5 -93.5t-66 -141t-19.5 -183.5v-135q0 -86 19 -146.5t60 -92t106 -31.5q64 0 103 31.5t56.5 92t17.5 146.5v135
q0 102 -18.5 183.5t-63 141t-123.5 93.5l-12 4q-65 26 -169.5 44.5t-258.5 18.5q-318 0 -477 -118t-162 -350v-3.5v-4.5h6v-193q0 -109 44.5 -170t142.5 -61q88 0 128 53t40 147v80q0 92 -39.5 139.5t-125.5 47.5q-51 0 -92.5 -21.5t-68.5 -57.5t-38 -79l-5 125h15
q18 79 85 135t178 56q137 0 204 -84t67 -243v-89q0 -108 -35.5 -188.5t-111.5 -124.5t-197 -44q-130 0 -212.5 51.5t-121.5 145.5t-39 221v143q0 207 92 350t272.5 217.5t446.5 74.5z" />
    <glyph glyph-name="TaMatraUu.tm" horiz-adv-x="2788" 
d="M1802 1147h186v-1442h-186v1442zM940 554v150h74q257 0 371 -123t114 -398v-74q0 -81 -3.5 -148.5t-9 -121.5t-13.5 -94l-7 -42q-28 -129 -109.5 -229.5t-226 -157.5t-363.5 -57q-243 0 -405 67.5t-246.5 192.5t-96.5 295h1969v-150h-1748q11 -51 46.5 -96.5t99 -80.5
t158 -55.5t223.5 -20.5q159 0 265 38.5t166 106.5t80 157l8 46q8 35 14 89t9.5 119.5t3.5 136.5v65q0 142 -33 226.5t-103.5 121.5t-184.5 37h-52zM917 690v-143h-482l-123 -17q-2 -19 -3.5 -44t-2 -50.5t-0.5 -46.5q0 -128 66.5 -193t204.5 -65q131 0 188.5 65t57.5 198
v230l7 22v450h169v-450v-22v-229q0 -136 -42 -229.5t-134.5 -141t-243.5 -47.5q-232 0 -341 108.5t-109 311.5q0 37 2 79t5.5 83t9.5 74l195 47l134 10h442zM1106 1147v-148h-180l-21 9h-400l-8 -380h-167v519h776zM1042 999v148h274l19 -148h-293zM2386 1098h186v-1098
h-186v1098zM2535 1147v-153h-547v-994h-186v1147h733zM2433 994v153h349l19 -153h-368z" />
    <glyph glyph-name="NaMatraUu.tm" horiz-adv-x="2797" 
d="M740 1099h186v-1099h-186v1099zM1198 755q169 0 237.5 -116.5t68.5 -346.5v-114q0 -95 -3.5 -176t-10 -146t-15.5 -112l-4 -41q-25 -130 -106.5 -231t-226.5 -159t-363 -58q-179 0 -312.5 39t-223.5 112t-138.5 176t-59.5 232h1956v-150h-1736q13 -51 48 -97.5t96 -82.5
t152.5 -56.5t217.5 -20.5q159 0 264.5 39t164.5 108t78 160l5 40q9 44 15.5 108.5t10.5 144t4 166.5v102q0 158 -41 235.5t-151 77.5q-76 0 -132.5 -48.5t-76.5 -135.5h-15v153h33q13 57 48 102t90 70.5t126 25.5zM1810 1147h187v-1445h-187v1445zM1038 1147v-153h-684v-994
h-186v1147h870zM970 994v153h349l19 -153h-368zM2395 1098h186v-1098h-186v1098zM2544 1147v-153h-547v-994h-186v1147h733zM2442 994v153h349l19 -153h-368z" />
    <glyph glyph-name="NnnaMatraUu.tm" horiz-adv-x="3691" 
d="M3289 1098h186v-1098h-186v1098zM3438 1147v-153h-547v-994h-186v1147h733zM3336 994v153h349l19 -153h-368zM1858 1179q179 0 291 -41.5t164.5 -123t52.5 -200.5v-2q0 -133 -57.5 -212t-181.5 -90v-5q85 -5 143 -44.5t88.5 -117t30.5 -198.5v-16q0 -83 -5 -156t-13 -132
t-18 -102l-3 -38q-43 -154 -176 -271t-365.5 -182t-574.5 -65q-283 0 -494.5 44.5t-354 127t-220.5 199t-96 260.5h2822v-150h-2580q23 -61 88 -119.5t177.5 -105.5t275.5 -74.5t382 -27.5q215 0 376.5 28.5t274.5 79.5t180.5 121t94.5 152l3 33q17 57 28 159t11 217v13
q0 152 -57.5 217.5t-177.5 69.5l-65 2v147l73 2q114 4 163 61t49 158v2q0 76 -34.5 128.5t-109.5 80t-195 27.5q-124 0 -223 -18.5t-179 -47.5l-100 107q87 44 215 73.5t297 29.5zM2705 1147h186v-1445h-186v1445zM935 1180q197 0 331.5 -32t219.5 -82l1 -7
q102 -47 164 -123.5t90 -178.5t28 -226v-130q0 -129 -37 -224.5t-116.5 -147.5t-208.5 -52q-130 0 -211.5 52.5t-120 148t-38.5 223.5v130q0 124 30.5 229t100 181t185.5 115l81 -99q-80 -34 -126.5 -93t-66 -140.5t-19.5 -183.5v-135q0 -86 19 -146.5t60 -92t106 -31.5
q64 0 103 31.5t56.5 92t17.5 146.5v135q0 102 -18.5 183.5t-63.5 140.5t-124 93l-11 4q-66 27 -170 45.5t-258 18.5q-318 0 -477 -118t-162 -350v-3.5v-4.5h6v-193q0 -109 44.5 -170t142.5 -61q88 0 128 53t40 147v80q0 92 -39.5 139.5t-125.5 47.5q-51 0 -92.5 -21.5
t-68.5 -57.5t-38 -79l-5 125h15q18 79 85 135t178 56q137 0 204 -84t67 -243v-89q0 -108 -35.5 -188.5t-111.5 -124.5t-197 -44q-130 0 -212.5 51.5t-121.5 145.5t-39 221v143q0 207 92 350t272.5 217.5t446.5 74.5z" />
    </font>
</defs>
</svg>
