<?xml version="1.0" standalone="no"?>
<!DOCTYPE svg PUBLIC "-//W3C//DTD SVG 1.1//EN" "http://www.w3.org/Graphics/SVG/1.1/DTD/svg11.dtd" >
<svg xmlns="http://www.w3.org/2000/svg" xmlns:xlink="http://www.w3.org/1999/xlink" version="1.1">
<metadata>
Created by FontForge 20170812 at Mon Feb 14 15:36:09 2022
 By www-data
Copyright 2021 The Anek Project Authors (https://github.com/EkType/Anek)
</metadata>
<defs>
<font id="AnekTamil-ExtraLight" horiz-adv-x="0" >
  <font-face 
    font-family="Anek Tamil ExtraLight"
    font-weight="250"
    font-stretch="normal"
    units-per-em="2000"
    panose-1="0 0 0 0 0 0 0 0 0 0"
    ascent="1600"
    descent="-400"
    x-height="973"
    cap-height="1278"
    bbox="-239 -800 4436 1881"
    underline-thickness="50"
    underline-position="-125"
    unicode-range="U+000D-FB02"
  />
<missing-glyph horiz-adv-x="1160" 
d="M185 0v1278h790v-1278h-790zM224 35h712v1208h-712v-1208zM210 0l695 1266h40l-695 -1266h-40zM950 0h-40l-695 1266h40z" />
    <glyph glyph-name="fi" unicode="fi" horiz-adv-x="1139" 
d="M467 1351q73 0 128.5 -13.5t105.5 -34.5l9 -66q-55 20 -107.5 33t-118.5 13q-85 0 -137.5 -23.5t-75.5 -67t-23 -104.5v-5q0 -44 9.5 -82.5t20.5 -69.5l-58 -4v11q-18 28 -34 71.5t-16 94.5v5q0 111 71 176.5t226 65.5zM203 0v910h78v-910h-78zM25 876v65h208h30h440
l-9 -65h-669zM905 0v973h79v-973h-79zM945 1171q-31 0 -46.5 18t-15.5 52v8q0 33 15.5 51t46.5 18q30 0 45.5 -18t15.5 -51v-8q0 -35 -15.5 -52.5t-45.5 -17.5z" />
    <glyph glyph-name="fl" unicode="fl" horiz-adv-x="1146" 
d="M467 1351q73 0 128.5 -13.5t105.5 -34.5l9 -66q-55 20 -107.5 33t-118.5 13q-85 0 -137.5 -23.5t-75.5 -67t-23 -104.5v-5q0 -44 9.5 -82.5t20.5 -69.5l-58 -4v11q-18 28 -34 71.5t-16 94.5v5q0 111 71 176.5t226 65.5zM203 0v910h78v-910h-78zM25 876v65h208h30h440
l-9 -65h-669zM909 0v1328h80v-1328h-80z" />
    <glyph glyph-name="f_f" unicode="ff" horiz-adv-x="1401" 
d="M467 1351q73 0 128.5 -13.5t105.5 -34.5l9 -66q-55 20 -107.5 33t-118.5 13q-85 0 -137.5 -23.5t-75.5 -67t-23 -104.5v-5q0 -44 9.5 -82.5t20.5 -69.5l-58 -4v11q-18 28 -34 71.5t-16 94.5v5q0 111 71 176.5t226 65.5zM203 0v910h78v-910h-78zM25 876v65h208h30h440
l-9 -65h-669zM1115 1351q73 0 128.5 -13.5t105.5 -34.5l9 -66q-55 20 -107.5 33t-118.5 13q-85 0 -137.5 -23.5t-75.5 -67t-23 -104.5v-5q0 -44 9.5 -82.5t20.5 -69.5l-58 -4v11q-18 28 -34 71.5t-16 94.5v5q0 111 71 176.5t226 65.5zM851 0v910h78v-910h-78zM673 876v65
h208h30h440l-9 -65h-669z" />
    <glyph glyph-name="f_f_i" unicode="ffi" horiz-adv-x="1788" 
d="M467 1351q73 0 128.5 -13.5t105.5 -34.5l9 -66q-55 20 -107.5 33t-118.5 13q-85 0 -137.5 -23.5t-75.5 -67t-23 -104.5v-5q0 -44 9.5 -82.5t20.5 -69.5l-58 -4v11q-18 28 -34 71.5t-16 94.5v5q0 111 71 176.5t226 65.5zM203 0v910h78v-910h-78zM25 876v65h208h30h440
l-9 -65h-669zM1115 1351q73 0 128.5 -13.5t105.5 -34.5l9 -66q-55 20 -107.5 33t-118.5 13q-85 0 -137.5 -23.5t-75.5 -67t-23 -104.5v-5q0 -44 9.5 -82.5t20.5 -69.5l-58 -4v11q-18 28 -34 71.5t-16 94.5v5q0 111 71 176.5t226 65.5zM851 0v910h78v-910h-78zM673 876v65
h208h30h440l-9 -65h-669zM1553 0v973h79v-973h-79zM1593 1171q-31 0 -46.5 18t-15.5 52v8q0 33 15.5 51t46.5 18q30 0 45.5 -18t15.5 -51v-8q0 -35 -15.5 -52.5t-45.5 -17.5z" />
    <glyph glyph-name="f_f_l" unicode="ffl" horiz-adv-x="1795" 
d="M467 1351q73 0 128.5 -13.5t105.5 -34.5l9 -66q-55 20 -107.5 33t-118.5 13q-85 0 -137.5 -23.5t-75.5 -67t-23 -104.5v-5q0 -44 9.5 -82.5t20.5 -69.5l-58 -4v11q-18 28 -34 71.5t-16 94.5v5q0 111 71 176.5t226 65.5zM203 0v910h78v-910h-78zM25 876v65h208h30h440
l-9 -65h-669zM1115 1351q73 0 128.5 -13.5t105.5 -34.5l9 -66q-55 20 -107.5 33t-118.5 13q-85 0 -137.5 -23.5t-75.5 -67t-23 -104.5v-5q0 -44 9.5 -82.5t20.5 -69.5l-58 -4v11q-18 28 -34 71.5t-16 94.5v5q0 111 71 176.5t226 65.5zM851 0v910h78v-910h-78zM673 876v65
h208h30h440l-9 -65h-669zM1558 0v1328h80v-1328h-80z" />
    <glyph glyph-name=".notdef" horiz-adv-x="1160" 
d="M185 0v1278h790v-1278h-790zM224 35h712v1208h-712v-1208zM210 0l695 1266h40l-695 -1266h-40zM950 0h-40l-695 1266h40z" />
    <glyph glyph-name="NULL" horiz-adv-x="564" 
 />
    <glyph glyph-name="CR" unicode="&#xd;" horiz-adv-x="1863" 
 />
    <glyph glyph-name="space" unicode=" " horiz-adv-x="564" 
 />
    <glyph glyph-name="exclam" unicode="!" horiz-adv-x="437" 
d="M251 373h-65l-11 905h86zM218 -14q-31 0 -47 19t-16 55v10q0 36 16 54.5t47 18.5q32 0 48 -18.5t16 -54.5v-10q0 -36 -16 -55t-48 -19z" />
    <glyph glyph-name="quotedbl" unicode="&#x22;" horiz-adv-x="625" 
d="M193 860h-63l-9 468h80zM496 860h-63l-9 468h80z" />
    <glyph glyph-name="numbersign" unicode="#" horiz-adv-x="1182" 
d="M255 0l155 1278h69l-155 -1278h-69zM77 367v61h970v-61h-970zM706 0l152 1278h69l-151 -1278h-70zM138 859v61h967v-61h-967z" />
    <glyph glyph-name="percent" unicode="%" horiz-adv-x="1399" 
d="M288 0l747 1278h77l-746 -1278h-78zM1051 -20q-117 0 -179.5 71.5t-62.5 192.5v99q0 121 63 192t179 71q117 0 179.5 -70.5t62.5 -192.5v-99q0 -121 -62.5 -192.5t-179.5 -71.5zM1051 39q84 0 128.5 53t44.5 150v102q0 97 -44.5 150t-128.5 53t-129 -53t-45 -150v-102
q0 -97 45.5 -150t128.5 -53zM349 672q-118 0 -180 71t-62 193v98q0 122 62 193t180 71q117 0 179 -71t62 -193v-98q0 -121 -62.5 -192.5t-178.5 -71.5zM349 731q84 0 128.5 53t44.5 150v102q0 97 -44.5 150t-128.5 53q-85 0 -129.5 -53t-44.5 -150v-102q0 -97 45 -150
t129 -53z" />
    <glyph glyph-name="ampersand" unicode="&#x26;" horiz-adv-x="1198" 
d="M1101 0l-53 53l-62 62l-60.5 60.5l-48.5 48.5l-13 15l-525 496l-12 14q-64 64 -96 124t-32 139v8q0 126 80 201.5t256 75.5q117 0 199.5 -28t130.5 -62l10 -78q-60 39 -141.5 67t-190.5 28q-139 0 -199.5 -56t-60.5 -149v-7q0 -67 31.5 -121.5t89.5 -110.5l506 -481
l20 -21l50.5 -50.5l54 -54t56 -56.5t56 -56.5t53.5 -54.5v-6h-99zM502 -20q-194 0 -294.5 96.5t-100.5 278.5v47q0 131 50.5 224t177.5 154l45 -58q-102 -45 -145.5 -120.5t-43.5 -192.5v-49q0 -152 81.5 -230.5t235.5 -78.5q125 0 212 57t150 161l20 29q49 95 80 217.5
t46 270.5h80q-18 -168 -54.5 -304.5t-95.5 -238.5l-18 -21q-49 -76 -110.5 -130t-139 -83t-176.5 -29z" />
    <glyph glyph-name="quotesingle" unicode="'" horiz-adv-x="322" 
d="M193 860h-63l-9 468h80z" />
    <glyph glyph-name="parenleft" unicode="(" horiz-adv-x="551" 
d="M241 634v-156q0 -152 25.5 -277t77.5 -232t131 -207h-87q-76 96 -126 201t-74.5 230.5t-24.5 280.5v164q0 156 25 281t75 230t125 201h87q-79 -99 -131 -206.5t-77.5 -231.5t-25.5 -278z" />
    <glyph glyph-name="parenright" unicode=")" horiz-adv-x="552" 
d="M311 634q0 154 -25.5 278t-77 231.5t-131.5 206.5h87q75 -96 125 -201t75 -230t25 -281v-164q0 -155 -24.5 -280.5t-74.5 -230.5t-126 -201h-87q80 100 131.5 207t77 232t25.5 277v156z" />
    <glyph glyph-name="asterisk" unicode="*" horiz-adv-x="754" 
d="M210 703l-57 42l184 222l2 -6l-267 68l16 67l266 -86l-4 -6l-9 274h73l-9 -274l-5 6l265 86l18 -67l-268 -68l2 6l184 -222l-58 -42l-168 232h4z" />
    <glyph glyph-name="plus" unicode="+" horiz-adv-x="995" 
d="M534 208h-72v833h72v-833zM114 591v66h767v-66h-767z" />
    <glyph glyph-name="comma" unicode="," horiz-adv-x="326" 
d="M206 239q2 -15 5.5 -45.5t3.5 -66.5q0 -115 -30 -212t-104 -189l-54 27q58 83 84 172.5t26 198.5q0 30 -2 59t-7 56h78z" />
    <glyph glyph-name="hyphen" unicode="-" horiz-adv-x="852" 
d="M144 497v68h565v-68h-565z" />
    <glyph glyph-name="period" unicode="." horiz-adv-x="333" 
d="M166 -14q-32 0 -47.5 19t-15.5 55v10q0 36 15.5 54.5t47.5 18.5t48 -18.5t16 -54.5v-10q0 -36 -16 -55t-48 -19z" />
    <glyph glyph-name="slash" unicode="/" horiz-adv-x="788" 
d="M58 -234l594 1571h78l-594 -1571h-78z" />
    <glyph glyph-name="zero" unicode="0" horiz-adv-x="1086" 
d="M543 -20q-209 0 -314.5 122t-105.5 349v374q0 228 105.5 350.5t314.5 122.5t314.5 -122.5t105.5 -350.5v-374q0 -227 -105.5 -349t-314.5 -122zM543 51q170 0 253.5 103t83.5 294v381q0 192 -83.5 295t-253.5 103t-253.5 -103t-83.5 -295v-381q0 -191 83.5 -294
t253.5 -103z" />
    <glyph glyph-name="one" unicode="1" horiz-adv-x="640" 
d="M388 0v1198h-12l-316 -212l2 85l309 207h99v-1278h-82z" />
    <glyph glyph-name="two" unicode="2" horiz-adv-x="913" 
d="M80 0v86l323 338q95 100 165.5 182t109.5 161.5t39 170.5v12q0 88 -32 149.5t-96 93t-162 31.5q-104 0 -190 -34t-153 -82l9 79q36 26 86 51t115 42t145 17q179 0 270 -87.5t91 -253.5v-13q0 -104 -41 -191t-114.5 -174t-173.5 -192l-294 -308v-28l-34 22h679v-72h-742z
" />
    <glyph glyph-name="three" unicode="3" horiz-adv-x="963" 
d="M450 -19q-80 0 -148.5 14t-120 34.5t-83.5 38.5l-10 85q64 -40 157.5 -69.5t200.5 -29.5q114 0 186 33.5t106.5 95.5t34.5 148v35q0 85 -29.5 142t-95.5 86.5t-176 29.5l-216 2v65l222 3q106 1 168 32t89 86.5t27 128.5v26q0 125 -70.5 191.5t-231.5 66.5
q-116 0 -207 -30.5t-158 -72.5l9 76q53 37 146.5 68t219.5 31q196 0 285.5 -85t89.5 -237v-26q0 -80 -28 -142.5t-89.5 -100.5t-162.5 -44l-5 -5l2 11q157 -11 225.5 -88.5t68.5 -211.5v-41q0 -160 -98.5 -253t-307.5 -93z" />
    <glyph glyph-name="four" unicode="4" horiz-adv-x="992" 
d="M696 0v955l3 262h-30l-527 -865v-48l-32 36h850v-70h-899v91l559 917h155v-1278h-79z" />
    <glyph glyph-name="five" unicode="5" horiz-adv-x="1016" 
d="M505 -19q-125 0 -211.5 29t-134.5 59l-10 83q42 -26 95 -48t117 -36t139 -14q110 0 182 35.5t108 103.5t36 165v82q0 137 -68.5 215t-211.5 78q-111 0 -191.5 -45.5t-134.5 -132.5l-69 15v708h730v-70h-651v-372l-3 -218l-4 3q46 78 130.5 129.5t212.5 51.5
q171 0 256.5 -94.5t85.5 -263.5v-87q0 -117 -44.5 -201t-133.5 -129.5t-225 -45.5z" />
    <glyph glyph-name="six" unicode="6" horiz-adv-x="1043" 
d="M544 -20q-134 0 -229.5 52t-145.5 155t-50 253v379q0 228 109.5 353t327.5 125q117 0 193 -27t128 -58l9 -78q-43 26 -89 46.5t-102 32t-130 11.5q-186 0 -275 -105t-89 -301v-384q0 -127 41 -212t118 -128t185 -43q158 0 234.5 85.5t76.5 219.5v80q0 93 -31.5 160.5
t-95.5 104t-164 36.5q-98 0 -172 -36.5t-123 -102t-74 -153.5l-19 66h17q20 82 68.5 148.5t129 106t192.5 39.5q175 0 264 -97t89 -270v-83q0 -167 -98.5 -271t-294.5 -104z" />
    <glyph glyph-name="seven" unicode="7" horiz-adv-x="886" 
d="M240 0l497 1208h-670v70h755v-70l-492 -1208h-90z" />
    <glyph glyph-name="eight" unicode="8" horiz-adv-x="1084" 
d="M542 -24q-109 0 -190 23t-134 67t-79.5 108t-26.5 146v30q0 95 37.5 161.5t106 105t161.5 48.5v-2q-88 6 -152.5 41.5t-100 97.5t-35.5 148v29q0 154 102.5 237.5t310.5 83.5t311 -83.5t103 -237.5v-29q0 -86 -35.5 -148t-100 -97.5t-153.5 -41.5v2q94 -10 162.5 -48.5
t105.5 -105t37 -161.5v-30q0 -81 -26 -145t-79.5 -108.5t-134 -67.5t-190.5 -23zM542 47q174 0 260.5 72.5t86.5 203.5v33q0 128 -86 198.5t-262 74.5q-176 -5 -261 -75t-85 -198v-33q0 -131 87 -203.5t260 -72.5zM543 692q165 2 248 67t83 187v29q0 123 -82 189t-250 66
q-167 0 -249 -66t-82 -189v-29q0 -81 37 -137.5t111 -86t184 -30.5z" />
    <glyph glyph-name="nine" unicode="9" horiz-adv-x="1040" 
d="M503 1297q207 0 312 -118t105 -342v-381q0 -229 -109.5 -352.5t-337.5 -123.5q-113 0 -188 24t-125 51l-10 82q64 -35 138 -59.5t179 -24.5q193 0 282.5 104t89.5 301v383q0 190 -84 288t-253 98q-160 0 -237.5 -86.5t-77.5 -220.5v-75q0 -141 72 -223.5t231 -82.5
q92 0 162.5 35t119 98.5t72.5 147.5l19 -65h-17q-19 -79 -67 -143.5t-125 -102.5t-183 -38q-185 0 -275 98.5t-90 271.5v79q0 168 99.5 272.5t297.5 104.5z" />
    <glyph glyph-name="colon" unicode=":" horiz-adv-x="356" 
d="M179 -14q-32 0 -47.5 19t-15.5 55v10q0 36 15.5 54.5t47.5 18.5t48 -18.5t16 -54.5v-10q0 -36 -16 -55t-48 -19zM179 743q-32 0 -47.5 19t-15.5 55v10q0 36 15.5 54.5t47.5 18.5t48 -18.5t16 -54.5v-10q0 -36 -16 -55t-48 -19z" />
    <glyph glyph-name="semicolon" unicode=";" horiz-adv-x="356" 
d="M220 239q2 -15 5.5 -45.5t3.5 -66.5q0 -115 -30 -212t-104 -189l-54 27q58 83 84 172.5t26 198.5q0 30 -2 59t-7 56h78zM179 743q-32 0 -47.5 19t-15.5 55v10q0 36 15.5 54.5t47.5 18.5t48 -18.5t16 -54.5v-10q0 -36 -16 -55t-48 -19z" />
    <glyph glyph-name="less" unicode="&#x3c;" horiz-adv-x="1038" 
d="M178 634v-20l703 -221v-73l-767 244v120l767 244v-73z" />
    <glyph glyph-name="equal" unicode="=" horiz-adv-x="1033" 
d="M134 386v66h766v-66h-766zM134 796v66h766v-66h-766z" />
    <glyph glyph-name="greater" unicode="&#x3e;" horiz-adv-x="1038" 
d="M860 634l-703 221v73l766 -244v-120l-766 -244v73l703 221v20z" />
    <glyph glyph-name="question" unicode="?" horiz-adv-x="871" 
d="M298 385v73l67 17q107 29 177 73.5t105 112.5t35 166v107q0 141 -63 216t-213 75q-101 0 -189 -32.5t-150 -74.5l11 77q33 24 83 47t115 38.5t139 15.5q184 0 266 -92t82 -265v-111q0 -119 -42 -200.5t-126.5 -134.5t-212.5 -87zM340 -14q-31 0 -47 19t-16 55v10
q0 36 16 54.5t47 18.5q33 0 48.5 -18.5t15.5 -54.5v-10q0 -36 -15.5 -55t-48.5 -19z" />
    <glyph glyph-name="at" unicode="@" horiz-adv-x="1622" 
d="M748 76q-114 0 -176.5 66.5t-62.5 188.5q0 14 1 33t3.5 44t5.5 59t8 80q11 115 47 195.5t99 121.5t158 41q112 0 172.5 -63.5t57.5 -174.5h21l-31 -70v13v12q0 73 -27 121.5t-73 73.5t-105 25q-114 0 -171 -75.5t-71 -211.5q-5 -45 -8.5 -79.5t-5.5 -59t-3 -42.5t-1 -31
q0 -99 49 -150.5t143 -51.5q62 0 112 27.5t85 77t52 114.5l15 -66h-19q-15 -65 -51 -113.5t-92 -76.5t-132 -28zM995 90l26 209l-1 17l36 349l3 19l18 202v3h74l-84 -792zM1046 149q16 -3 31 -4t40 -1q135 0 207.5 75.5t92.5 259.5q6 51 10.5 95t7.5 77t4 50
q14 180 -50.5 305t-196.5 191t-322 66q-209 0 -346.5 -78t-211 -225t-91.5 -357q-4 -38 -7.5 -75t-6.5 -71.5t-6 -67t-5 -62t-4 -56.5q-14 -265 142 -410t451 -145q128 0 233.5 21.5t189.5 59.5t146 88l-12 -76q-65 -48 -149 -83t-187 -53.5t-227 -18.5q-214 0 -364.5 71.5
t-226 209t-66.5 336.5q2 27 4 58t5 64t5.5 67t6 68.5t6.5 68.5q22 235 104.5 397t235.5 245.5t385 83.5q207 0 353.5 -71.5t220 -210.5t60.5 -340q-1 -19 -4 -51.5t-7 -76t-10 -96.5q-15 -139 -60.5 -226t-125 -128t-198.5 -41q-35 0 -58 2t-50 6z" />
    <glyph glyph-name="bracketleft" unicode="[" horiz-adv-x="597" 
d="M175 -238v1588h364v-63h-289v-1462h289v-63h-364z" />
    <glyph glyph-name="backslash" unicode="\" horiz-adv-x="788" 
d="M730 -234h-78l-594 1571h78z" />
    <glyph glyph-name="bracketright" unicode="]" horiz-adv-x="597" 
d="M423 -238h-364v63h288v1462h-288v63h364v-1588z" />
    <glyph glyph-name="asciicircum" unicode="^" horiz-adv-x="809" 
d="M346 1278h117l271 -662h-75l-246 606h-17l-246 -606h-75z" />
    <glyph glyph-name="underscore" unicode="_" horiz-adv-x="924" 
d="M70 -167v64h784v-64h-784z" />
    <glyph glyph-name="braceleft" unicode="{" horiz-adv-x="668" 
d="M604 1326v-63q-25 10 -58.5 17t-74.5 7q-85 0 -122.5 -42t-37.5 -138q0 -43 3.5 -100.5t7.5 -117t4 -108.5q0 -62 -16.5 -108.5t-55.5 -74.5t-108 -36v-13l-3 10q71 -8 110.5 -36.5t56 -76t16.5 -111.5q0 -50 -4 -110t-7.5 -118t-3.5 -101q0 -97 37.5 -139.5t122.5 -42.5
q42 0 75 8t58 17v-63q-29 -11 -66.5 -18.5t-80.5 -7.5q-115 0 -169 57.5t-54 180.5q0 50 3.5 110.5t7.5 119t4 102.5q0 59 -14.5 99.5t-52 64t-107.5 29.5v73q70 6 107.5 29t52 63t14.5 96q0 45 -4 103.5t-7.5 118t-3.5 107.5q0 123 53.5 181t169.5 58q43 0 80.5 -7.5
t66.5 -18.5z" />
    <glyph glyph-name="bar" unicode="|" horiz-adv-x="468" 
d="M269 -446h-70v1867h70v-1867z" />
    <glyph glyph-name="braceright" unicode="}" horiz-adv-x="668" 
d="M64 1326q30 11 67.5 18.5t80.5 7.5q115 0 169 -58t54 -181q0 -48 -4 -107.5t-8 -118t-4 -103.5q0 -56 15 -96t52.5 -63t106.5 -29v-73q-69 -6 -106.5 -29.5t-52.5 -64t-15 -99.5q0 -44 4 -102.5t8 -119t4 -110.5q0 -123 -54 -180.5t-169 -57.5q-43 0 -80.5 7.5
t-67.5 18.5v63q25 -9 58.5 -17t74.5 -8q85 0 123 42.5t38 139.5q0 43 -4 101t-7.5 118t-3.5 110q0 64 16.5 111.5t56.5 76t110 36.5l-4 -10v13q-68 8 -107 36t-55.5 74.5t-16.5 108.5q0 49 3.5 108.5t7.5 117t4 100.5q0 96 -37.5 138t-122.5 42q-42 0 -75.5 -7t-58.5 -17v63
z" />
    <glyph glyph-name="asciitilde" unicode="~" horiz-adv-x="1070" 
d="M746 488q-57 0 -111 21t-106.5 48.5t-102.5 48.5t-99 21q-61 0 -90 -36t-29 -108v-19h-62v26q0 101 42.5 153t136.5 52q55 0 109.5 -21t106.5 -48.5t102.5 -48.5t99.5 -21q62 0 90 35.5t28 108.5v18h63v-26q0 -101 -42.5 -152.5t-135.5 -51.5z" />
    <glyph glyph-name="ellipsis" unicode="&#x2026;" horiz-adv-x="1064" 
d="M897 -14q-32 0 -47.5 19t-15.5 55v10q0 36 15.5 54.5t47.5 18.5t48 -18.5t16 -54.5v-10q0 -36 -16 -55t-48 -19zM531 -14q-32 0 -47.5 19t-15.5 55v10q0 36 15.5 54.5t47.5 18.5t48 -18.5t16 -54.5v-10q0 -36 -16 -55t-48 -19zM166 -14q-32 0 -47.5 19t-15.5 55v10
q0 36 15.5 54.5t47.5 18.5t48 -18.5t16 -54.5v-10q0 -36 -16 -55t-48 -19z" />
    <glyph glyph-name="endash" unicode="&#x2013;" horiz-adv-x="1072" 
d="M144 497v68h783v-68h-783z" />
    <glyph glyph-name="emdash" unicode="&#x2014;" horiz-adv-x="1849" 
d="M144 497v68h1562v-68h-1562z" />
    <glyph glyph-name="quoteleft" unicode="&#x2018;" horiz-adv-x="351" 
d="M115 852q-3 18 -6 47.5t-3 65.5q0 108 27.5 198.5t94.5 171.5l54 -24q-52 -74 -75.5 -157t-23.5 -185q0 -30 2.5 -58.5t6.5 -58.5h-77z" />
    <glyph glyph-name="quoteright" unicode="&#x2019;" horiz-adv-x="351" 
d="M236 1328q3 -19 6 -48t3 -66q0 -107 -27.5 -197.5t-94.5 -172.5l-54 25q52 74 75.5 157.5t23.5 183.5q0 31 -2.5 60t-6.5 58h77z" />
    <glyph glyph-name="divide" unicode="&#xf7;" horiz-adv-x="995" 
d="M114 591v67h767v-67h-767zM500 209q-29 0 -44 18.5t-15 52.5v10q0 34 15 52t44 18q31 0 46 -18t15 -52v-10q0 -34 -15 -52.5t-46 -18.5zM500 889q-29 0 -44 18.5t-15 53.5v9q0 35 15 52.5t44 17.5q31 0 46 -17.5t15 -52.5v-9q0 -35 -15 -53.5t-46 -18.5z" />
    <glyph glyph-name="minus" unicode="&#x2212;" horiz-adv-x="974" 
d="M114 590v68h745v-68h-745z" />
    <glyph glyph-name="multiply" unicode="&#xd7;" horiz-adv-x="966" 
d="M833 301l-49 -44l-645 689l49 43zM133 301l645 688l49 -43l-645 -689z" />
    <glyph glyph-name="dollar" unicode="$" horiz-adv-x="1025" 
d="M543 1256h-73v241h73v-241zM543 -224h-73v254h73v-254zM506 -20q-93 0 -169 17t-134 42t-95 50l-10 85q75 -50 177 -85t228 -35q164 0 247.5 67t83.5 196v22q0 86 -31 140.5t-105.5 89t-203.5 59.5q-149 32 -234 76t-120 110t-35 162v7q0 149 94.5 231.5t292.5 82.5
q134 0 229 -31.5t150 -68.5l9 -79q-68 44 -161.5 75.5t-220.5 31.5q-109 0 -177.5 -29t-101 -83.5t-32.5 -131.5v-5q0 -77 29.5 -129.5t104 -88.5t211.5 -65q146 -31 229.5 -73t119.5 -109t36 -171v-24q0 -164 -104 -250t-307 -86z" />
    <glyph glyph-name="A" unicode="A" horiz-adv-x="1119" 
d="M67 0l420 1278h143l422 -1278h-84l-396 1219h-27l-394 -1219h-84zM266 427v70h586v-70h-586z" />
    <glyph glyph-name="B" unicode="B" horiz-adv-x="1136" 
d="M224 0v69h447q150 0 212.5 69.5t62.5 187.5v45q0 119 -64.5 187.5t-225.5 68.5h-428v67h427q143 0 204 66.5t61 180.5v23q0 113 -59 179t-207 66h-431v69h436q186 0 264.5 -82.5t78.5 -223.5v-22q0 -124 -62.5 -198t-199.5 -84l-4 5q156 -10 224.5 -88.5t68.5 -212.5v-49
q0 -147 -82 -235t-271 -88h-452zM174 0v1278h81v-1278h-81z" />
    <glyph glyph-name="C" unicode="C" horiz-adv-x="1002" 
d="M560 -20q-220 0 -330.5 127t-110.5 358v349q0 232 109.5 358t324.5 126q78 0 142 -16.5t112 -42.5t80 -52l9 -81q-60 47 -142.5 83t-193.5 36q-177 0 -267.5 -107t-90.5 -304v-347q0 -197 92 -304.5t275 -107.5q111 0 193.5 35t143.5 85l-8 -83q-32 -26 -81 -52
t-113.5 -43t-143.5 -17z" />
    <glyph glyph-name="D" unicode="D" horiz-adv-x="1152" 
d="M225 0v71h328q196 0 297 108t101 310v301q0 203 -101 310.5t-297 107.5h-330v70h332q234 0 356 -126t122 -361v-303q0 -235 -122 -361.5t-356 -126.5h-330zM174 0v1278h81v-1278h-81z" />
    <glyph glyph-name="E" unicode="E" horiz-adv-x="1025" 
d="M174 0v1278h81v-1278h-81zM199 0v70h716v-70h-716zM219 619v70h676v-70h-676zM197 1208v70h712v-70h-712z" />
    <glyph glyph-name="F" unicode="F" horiz-adv-x="983" 
d="M174 0v1278h81v-1278h-81zM219 586v70h657v-70h-657zM197 1208v70h694v-70h-694z" />
    <glyph glyph-name="G" unicode="G" horiz-adv-x="1142" 
d="M552 -20q-141 0 -237.5 56t-146 164t-49.5 263v333q0 241 117.5 371.5t344.5 130.5q90 0 162 -17.5t126 -44t90 -54.5l9 -79q-66 50 -159 86.5t-219 36.5q-192 0 -290 -111.5t-98 -319.5v-331q0 -198 93.5 -305t276.5 -107q97 0 166 34t112.5 90t60.5 124v356l20 -33
h-342v69h403v-457l-76 1q-16 -64 -59 -123t-118 -96t-187 -37zM916 265h76v-265h-81z" />
    <glyph glyph-name="H" unicode="H" horiz-adv-x="1206" 
d="M256 0h-82v1278h82v-1278zM1033 0h-82v1278h82v-1278zM220 697h768v-70h-768v70z" />
    <glyph glyph-name="I" unicode="I" horiz-adv-x="434" 
d="M258 0h-82v1278h82v-1278z" />
    <glyph glyph-name="J" unicode="J" horiz-adv-x="828" 
d="M322 -14q-66 0 -128 13t-112 35l-8 77q57 -26 116.5 -39t120.5 -13q152 0 211 70t59 212v937h82v-941q0 -172 -76.5 -261.5t-264.5 -89.5z" />
    <glyph glyph-name="K" unicode="K" horiz-adv-x="1095" 
d="M932 0l-510 619h-176v68h176l501 591h97l-537 -634l-1 28l551 -672h-101zM174 0v1278h81v-1278h-81z" />
    <glyph glyph-name="L" unicode="L" horiz-adv-x="962" 
d="M256 0h-82v1278h82v-1278zM212 71h683v-71h-683v71z" />
    <glyph glyph-name="M" unicode="M" horiz-adv-x="1453" 
d="M148 0l57 1278h143l371 -1041h16l370 1041h143l57 -1278h-80l-25 607l-25 591h-21l-374 -1052h-107l-374 1052h-21l-24 -592l-25 -606h-81z" />
    <glyph glyph-name="N" unicode="N" horiz-adv-x="1206" 
d="M308 1278l634 -1196h14l-4 571v625h81v-1278h-133l-636 1200h-14l4 -608v-592h-80v1278h134z" />
    <glyph glyph-name="O" unicode="O" horiz-adv-x="1154" 
d="M577 -20q-223 0 -340.5 128t-117.5 366v330q0 238 117.5 366t340.5 128t340.5 -128t117.5 -366v-330q0 -238 -117.5 -366t-340.5 -128zM577 51q185 0 280 109.5t95 311.5v335q0 202 -95 311t-280 109q-184 0 -279.5 -109t-95.5 -311v-335q0 -202 95.5 -311.5
t279.5 -109.5z" />
    <glyph glyph-name="P" unicode="P" horiz-adv-x="1089" 
d="M223 461v70h386q159 0 228 80t69 217v88q0 136 -68.5 214.5t-226.5 78.5h-389v69h392q196 0 285 -97.5t89 -261.5v-94q0 -165 -89.5 -264.5t-287.5 -99.5h-388zM174 0v1278h80v-767l1 -36v-475h-81z" />
    <glyph glyph-name="Q" unicode="Q" horiz-adv-x="1156" 
d="M1152 -30l-531 11q-255 6 -378.5 132t-123.5 361v330q0 239 117 366.5t341 127.5q149 0 251 -57t154.5 -167.5t52.5 -269.5v-323q0 -107 -25.5 -185.5t-71 -131.5t-104.5 -83t-127 -39h-13l458 4v-76zM612 51h17q67 12 126 41t103 78.5t69 123.5t25 176v337
q0 203 -95 311.5t-280 108.5q-184 0 -279.5 -108.5t-95.5 -311.5v-335q0 -201 106.5 -310t303.5 -111z" />
    <glyph glyph-name="R" unicode="R" horiz-adv-x="1122" 
d="M936 0l-41 270q-12 81 -38.5 145.5t-83.5 102t-162 37.5l-383 1v66l414 1q150 0 213 77t63 203v36q0 126 -65 198t-217 72h-414v69h423q187 0 271.5 -89t84.5 -240v-38q0 -133 -67 -219.5t-221 -95.5l-2 -6l-38 15q110 -7 170 -49t88.5 -112t43.5 -164l45 -280h-84z
M174 0v1278h80v-675l1 -32v-571h-81z" />
    <glyph glyph-name="S" unicode="S" horiz-adv-x="1025" 
d="M506 -20q-93 0 -169 17t-134 42t-95 50l-10 85q75 -50 177 -85t228 -35q164 0 247.5 67t83.5 196v22q0 86 -31 140.5t-105.5 89t-203.5 59.5q-149 32 -234 76t-120 110t-35 162v7q0 149 94.5 231.5t292.5 82.5q134 0 229 -31.5t150 -68.5l9 -79q-68 44 -161.5 75.5
t-220.5 31.5q-109 0 -177.5 -29t-101 -83.5t-32.5 -131.5v-5q0 -77 29.5 -129.5t104 -88.5t211.5 -65q146 -31 229.5 -73t119.5 -109t36 -171v-24q0 -164 -104 -250t-307 -86z" />
    <glyph glyph-name="T" unicode="T" horiz-adv-x="1027" 
d="M473 0v1269h81v-1269h-81zM72 1208v70h882v-70h-882z" />
    <glyph glyph-name="U" unicode="U" horiz-adv-x="1187" 
d="M593 -20q-218 0 -324 120t-106 343v835h82v-836q0 -187 84.5 -288.5t263.5 -101.5q181 0 265 101.5t84 288.5v836h82v-835q0 -223 -106.5 -343t-324.5 -120z" />
    <glyph glyph-name="V" unicode="V" horiz-adv-x="1100" 
d="M478 0l-412 1278h85l387 -1214h24l386 1214h86l-411 -1278h-145z" />
    <glyph glyph-name="W" unicode="W" horiz-adv-x="1591" 
d="M371 0l-288 1278h84l247 -1119l19 -89h22l18 89l257 1083h131l258 -1083l17 -89h23l18 89l247 1119h84l-288 -1278h-141l-197 829l-79 345h-16l-78 -345l-195 -829h-143z" />
    <glyph glyph-name="X" unicode="X" horiz-adv-x="1097" 
d="M72 0l419 671v-22l-412 629h90l375 -573h11l373 573h91l-412 -629v22l418 -671h-91l-379 610h-12l-379 -610h-92z" />
    <glyph glyph-name="Y" unicode="Y" horiz-adv-x="1058" 
d="M494 412l-438 866h88l274 -547l106 -215h11l106 215l273 547h88l-437 -866h-71zM489 0v494h81v-494h-81z" />
    <glyph glyph-name="Z" unicode="Z" horiz-adv-x="1015" 
d="M914 71v-71h-813v65l712 1144h-708v69h803v-63l-712 -1144h718z" />
    <glyph glyph-name="grave" unicode="`" horiz-adv-x="505" 
d="M198 1362l206 -254v-2h-74l-224 254v2h92z" />
    <glyph glyph-name="a" unicode="a" horiz-adv-x="955" 
d="M739 0l5 250l-4 13v317l1 76q0 133 -67 201t-209 68q-108 0 -194.5 -34t-148.5 -77l9 74q33 24 82.5 48.5t114.5 40.5t146 16q90 0 155.5 -23t107.5 -66.5t62 -105.5t20 -141v-657h-80zM392 -20q-145 0 -223.5 68.5t-78.5 199.5v25q0 122 76 186.5t250 89.5l343 51l4 -62
l-336 -49q-137 -20 -197.5 -69t-60.5 -143v-21q0 -102 62 -155t181 -53q97 0 166.5 36.5t112 99t55.5 140.5l21 -62h-18q-10 -74 -52 -138.5t-118 -104t-187 -39.5z" />
    <glyph glyph-name="b" unicode="b" horiz-adv-x="1044" 
d="M565 -20q-97 0 -172 37.5t-120 105.5t-51 159h-26l32 73q5 -102 49.5 -170.5t115.5 -102.5t157 -34q147 0 226 88.5t79 258.5v184q0 169 -78.5 258t-229.5 89q-86 0 -153.5 -35.5t-111 -98.5t-58.5 -147l-25 63h23q12 79 55 143.5t116.5 103t175.5 38.5
q178 0 271.5 -107.5t93.5 -310.5v-177q0 -204 -94.5 -311t-274.5 -107zM152 0v1328h79v-333l-4 -278l1 -23v-414l-3 -27l6 -253h-79z" />
    <glyph glyph-name="c" unicode="c" horiz-adv-x="858" 
d="M490 -20q-190 0 -285 108.5t-95 310.5v176q0 202 95 310t285 108q67 0 119.5 -14t91.5 -34.5t65 -41.5l8 -76q-47 41 -114 69.5t-163 28.5q-153 0 -230.5 -90t-77.5 -261v-173q0 -169 77.5 -260t233.5 -91q99 0 167 29t115 69l-9 -77q-41 -33 -110 -62t-173 -29z" />
    <glyph glyph-name="d" unicode="d" horiz-adv-x="1044" 
d="M475 -20q-177 0 -271 107.5t-94 310.5v177q0 203 94.5 310.5t274.5 107.5q97 0 172.5 -37.5t120 -105t49.5 -159.5h26l-30 -72q-6 102 -50 170t-114.5 102.5t-157.5 34.5q-148 0 -227 -88t-79 -258v-185q0 -170 79 -258.5t229 -88.5q87 0 154.5 35.5t111.5 99t57 146.5
l26 -64h-23q-11 -79 -55 -143.5t-117.5 -103t-175.5 -38.5zM813 0l6 253l-2 27v414l1 24l-5 277v333h79v-1328h-79z" />
    <glyph glyph-name="e" unicode="e" horiz-adv-x="966" 
d="M516 -20q-196 0 -301 102.5t-105 291.5v207q0 202 97 309t283 107q124 0 208.5 -48.5t128 -139t43.5 -218.5v-35q0 -25 -1 -50.5t-4 -54.5h-73q1 40 1 75.5v65.5q0 109 -34.5 184t-102 114.5t-166.5 39.5q-148 0 -225 -88t-77 -256v-96v-12v-109q0 -75 22 -134
t64.5 -100.5t105.5 -63.5t146 -22q94 0 175 28t152 80l-9 -77q-61 -46 -144.5 -73t-183.5 -27zM150 451v64h695v-64h-695z" />
    <glyph glyph-name="f" unicode="f" horiz-adv-x="752" 
d="M467 1351q73 0 128.5 -13.5t105.5 -34.5l9 -66q-55 20 -107.5 33t-118.5 13q-85 0 -137.5 -23.5t-75.5 -67t-23 -104.5v-5q0 -44 9.5 -82.5t20.5 -69.5l-58 -4v11q-18 28 -34 71.5t-16 94.5v5q0 111 71 176.5t226 65.5zM203 0v910h78v-910h-78zM25 876v65h208h30h440
l-9 -65h-669z" />
    <glyph glyph-name="g" unicode="g" horiz-adv-x="1000" 
d="M502 281q-184 0 -283 84.5t-99 246.5v44q0 97 38 171t121 116.5t216 45.5l472 11v-66l-347 6v1q95 -12 151.5 -51.5t81 -100.5t24.5 -139v-46q0 -160 -95.5 -241.5t-279.5 -81.5zM496 -306h19q102 0 178.5 16.5t120 53t43.5 98.5v4q0 69 -50.5 108.5t-169.5 48.5l-262 22
l37 2q-75 -10 -132 -30.5t-89 -57t-32 -92.5v-3q0 -65 42.5 -102t118.5 -52.5t176 -15.5zM493 -372q-123 0 -215 21t-143.5 69.5t-51.5 131.5v4q0 67 35.5 110t94.5 65.5t129 29.5l-2 -2q-105 10 -152 43.5t-47 90.5v1q0 36 17.5 62t56.5 41t101 16v15l136 -38l-77 1
q-90 -1 -125 -21.5t-35 -60.5v-1q0 -43 45.5 -66t157.5 -33l233 -22q150 -14 216 -68.5t66 -149.5v-5q0 -84 -52.5 -135.5t-146.5 -75t-220 -23.5h-21zM501 344q99 0 165.5 30t100.5 90t34 147v48q0 85 -33 145t-98.5 91.5t-162.5 31.5h-8q-107 0 -174 -34.5t-97.5 -95.5
t-30.5 -140v-43q0 -89 34 -149t101.5 -90.5t168.5 -30.5z" />
    <glyph glyph-name="h" unicode="h" horiz-adv-x="1033" 
d="M816 0v616q0 96 -26 165t-85 106.5t-158 37.5q-92 0 -159.5 -36t-108 -98t-54.5 -143l-27 64h24q11 76 53.5 140t116 102.5t177.5 38.5q119 0 190.5 -44.5t103.5 -127t32 -198.5v-623h-79zM152 0v1328h79v-331l-4 -279l4 -8v-710h-79z" />
    <glyph glyph-name="i" unicode="i" horiz-adv-x="390" 
d="M156 0v973h79v-973h-79zM196 1171q-31 0 -46.5 18t-15.5 52v8q0 33 15.5 51t46.5 18q30 0 45.5 -18t15.5 -51v-8q0 -35 -15.5 -52.5t-45.5 -17.5z" />
    <glyph glyph-name="j" unicode="j" horiz-adv-x="426" 
d="M191 45v928h79v-928h-79zM231 1171q-31 0 -46.5 18t-15.5 52v8q0 33 15.5 51t46.5 18t46 -18t15 -51v-8q0 -35 -15 -52.5t-46 -17.5zM24 -355q-41 0 -79 8.5t-64 20.5l-9 72q33 -17 68.5 -25t73.5 -8q99 0 138 54.5t39 160.5v373h79v-377q0 -89 -24 -151.5t-78 -95
t-144 -32.5z" />
    <glyph glyph-name="k" unicode="k" horiz-adv-x="934" 
d="M787 0l-454 488h-116v65h116l433 420h100l-478 -464v29l498 -538h-99zM152 0v1328h79v-1328h-79z" />
    <glyph glyph-name="l" unicode="l" horiz-adv-x="394" 
d="M157 0v1328h80v-1328h-80z" />
    <glyph glyph-name="m" unicode="m" horiz-adv-x="1596" 
d="M1379 0v617q0 96 -23.5 165t-77.5 106t-144 37q-83 0 -145 -35t-100.5 -95.5t-50.5 -137.5l-23 66h14q11 70 52 132t109.5 100t165.5 38q110 0 176.5 -44t96.5 -126.5t30 -198.5v-624h-80zM152 0v973h79l-5 -249l5 -3v-721h-79zM766 0v616q0 97 -24 166t-77 106t-143 37
q-85 0 -147.5 -36t-100 -98.5t-50.5 -142.5l-24 64h22q10 76 49.5 140t107.5 102.5t165 38.5q133 0 204.5 -69t89.5 -205q4 -22 5.5 -44t1.5 -45v-630h-79z" />
    <glyph glyph-name="n" unicode="n" horiz-adv-x="1033" 
d="M816 0v616q0 96 -26 165t-85 106.5t-158 37.5q-91 0 -159 -36t-109 -98.5t-55 -142.5l-22 64h20q11 76 53 140t116 102.5t178 38.5q119 0 190.5 -44.5t103.5 -127t32 -198.5v-623h-79zM152 0v973h79l-5 -248l5 -3v-722h-79z" />
    <glyph glyph-name="o" unicode="o" horiz-adv-x="1012" 
d="M506 -24q-195 0 -295.5 110t-100.5 316v171q0 206 101 315t295 109t295.5 -109t101.5 -315v-171q0 -206 -101.5 -316t-295.5 -110zM506 43q154 0 235.5 91.5t81.5 264.5v177q0 172 -81 263t-236 91t-236 -91t-81 -263v-177q0 -173 81 -264.5t236 -91.5z" />
    <glyph glyph-name="p" unicode="p" horiz-adv-x="1044" 
d="M565 -20q-97 0 -172 37.5t-120 105.5t-50 159h-26l31 73q5 -102 49 -170.5t115 -102.5t157 -34q148 0 227 88.5t79 257.5v185q0 169 -78.5 258t-229.5 89q-86 0 -153.5 -35.5t-111 -98.5t-58.5 -147l-26 63h24q11 79 54.5 143.5t117 103t175.5 38.5q178 0 271.5 -107.5
t93.5 -310.5v-177q0 -204 -94.5 -311t-274.5 -107zM152 -344v1317h79l-5 -251l2 -30v-415l-2 -21l5 -265v-335h-79z" />
    <glyph glyph-name="q" unicode="q" horiz-adv-x="1044" 
d="M475 -20q-177 0 -271 107.5t-94 310.5v177q0 203 94.5 310.5t274.5 107.5q97 0 172.5 -37.5t120.5 -105t50 -159.5h26l-31 -72q-6 102 -50.5 170.5t-115 102.5t-157.5 34q-147 0 -226 -88t-79 -259v-184q0 -170 79 -258.5t229 -88.5q87 0 154.5 35.5t111.5 99t57 146.5
l25 -64h-23q-11 -79 -54.5 -143.5t-117 -103t-175.5 -38.5zM813 -344v335l5 270l-1 17v414l1 30l-5 251h79v-1317h-79z" />
    <glyph glyph-name="r" unicode="r" horiz-adv-x="728" 
d="M225 610l-26 58l21 7q33 144 123 228t226 84q39 0 69 -6.5t51 -14.5l5 -78q-25 11 -58 17t-72 6q-119 0 -209 -76t-130 -225zM152 0v973h78l-6 -297l7 -7v-669h-79z" />
    <glyph glyph-name="s" unicode="s" horiz-adv-x="858" 
d="M429 -20q-117 0 -202 28.5t-139 61.5l-10 79q72 -42 156 -71t194 -29q129 0 200 48t71 141v16q0 60 -24 99.5t-86 67.5t-177 51q-123 24 -194 57t-101 84.5t-30 129.5v9q0 116 82 178t247 62q113 0 194 -27.5t131 -62.5l9 -74q-63 42 -143.5 69.5t-186.5 27.5
q-88 0 -144 -21t-83 -59.5t-27 -92.5v-9q0 -62 24.5 -100.5t86 -63t168.5 -46.5q127 -24 199.5 -58t102.5 -86.5t30 -131.5v-20q0 -126 -90.5 -191.5t-257.5 -65.5z" />
    <glyph glyph-name="t" unicode="t" horiz-adv-x="791" 
d="M484 -19q-103 0 -166.5 30.5t-93.5 93t-30 156.5v657h79v-649q0 -111 51.5 -164t173.5 -53q61 0 119.5 14.5t111.5 44.5l-9 -74q-46 -25 -108.5 -40.5t-127.5 -15.5zM19 886v65h698l-8 -65h-690zM195 939v286l80 17l-4 -303h-76z" />
    <glyph glyph-name="u" unicode="u" horiz-adv-x="1033" 
d="M217 973v-616q0 -96 26 -165t85 -106.5t158 -37.5q92 0 159.5 36t109 98.5t54.5 142.5l22 -64h-20q-11 -75 -53 -139.5t-115.5 -103t-178.5 -38.5q-118 0 -190 44.5t-104 127t-32 198.5v623h79zM881 973v-973h-79l5 247l-5 4v722h79z" />
    <glyph glyph-name="v" unicode="v" horiz-adv-x="955" 
d="M490 59l321 914h84l-347 -973h-140l-347 973h83l322 -914h24z" />
    <glyph glyph-name="w" unicode="w" horiz-adv-x="1462" 
d="M340 0l-266 973h84l239 -911h22l252 883h120l252 -883h21l240 911h83l-265 -973h-134l-208 736l-43 149h-13l-42 -150l-208 -735h-134z" />
    <glyph glyph-name="x" unicode="x" horiz-adv-x="931" 
d="M71 0l339 516v-24l-332 481h89l294 -430h11l293 430h89l-332 -481v25l338 -517h-89l-299 459h-11l-300 -459h-90z" />
    <glyph glyph-name="y" unicode="y" horiz-adv-x="956" 
d="M520 98l-41 -19l333 894h83l-492 -1317h-82l153 413l31 -30h-96l-348 934h83l321 -875h55z" />
    <glyph glyph-name="z" unicode="z" horiz-adv-x="881" 
d="M789 67v-67h-698v62l599 845h-596v66h691v-61l-598 -845h602z" />
    <glyph glyph-name="quotesinglbase" unicode="&#x201a;" horiz-adv-x="320" 
d="M206 239q2 -15 5.5 -45.5t3.5 -66.5q0 -115 -30 -212t-104 -189l-54 27q58 83 84 172.5t26 198.5q0 30 -2 59t-7 56h78z" />
    <glyph glyph-name="quotedblbase" unicode="&#x201e;" horiz-adv-x="618" 
d="M504 239q2 -15 5.5 -45.5t3.5 -66.5q0 -115 -30 -212t-104 -189l-54 27q58 83 84 172.5t26 198.5q0 30 -2 59t-7 56h78zM206 239q2 -15 5.5 -45.5t3.5 -66.5q0 -115 -30 -212t-104 -189l-54 27q58 83 84 172.5t26 198.5q0 30 -2 59t-7 56h78z" />
    <glyph glyph-name="circumflex" unicode="&#x2c6;" horiz-adv-x="699" 
d="M303 1362h93l199 -254v-2h-69l-173 204h-7l-173 -204h-69v2z" />
    <glyph glyph-name="guilsinglleft" unicode="&#x2039;" horiz-adv-x="555" 
d="M167 486l316 -388h-84l-303 368v39l303 367h84z" />
    <glyph glyph-name="OE" unicode="&#x152;" horiz-adv-x="1655" 
d="M577 -20q-223 0 -340.5 128t-117.5 366v330q0 238 117.5 366t340.5 128t340.5 -128t117.5 -366v-330q0 -238 -117.5 -366t-340.5 -128zM577 51q185 0 280 109.5t95 311.5v335q0 202 -95 311t-280 109q-184 0 -279.5 -109t-95.5 -311v-335q0 -202 95.5 -311.5
t279.5 -109.5zM724 0v70h821v-70h-821zM973 619v70h552v-70h-552zM722 1208v70h817v-70h-817z" />
    <glyph glyph-name="quotedblleft" unicode="&#x201c;" horiz-adv-x="647" 
d="M115 852q-3 18 -6 47.5t-3 65.5q0 108 27.5 198.5t94.5 171.5l54 -24q-52 -74 -75.5 -157t-23.5 -185q0 -30 2.5 -58.5t6.5 -58.5h-77zM411 852q-3 18 -6 47.5t-3 65.5q0 108 27.5 198.5t93.5 171.5l55 -24q-52 -74 -75.5 -157t-23.5 -185q0 -30 2.5 -58.5t5.5 -58.5h-76
z" />
    <glyph glyph-name="quotedblright" unicode="&#x201d;" horiz-adv-x="648" 
d="M532 1328q3 -19 6 -48t3 -66q0 -107 -27.5 -197.5t-94.5 -172.5l-54 25q52 74 75.5 157.5t23.5 183.5q0 31 -2.5 60t-6.5 58h77zM236 1328q3 -19 6 -48t3 -66q0 -107 -27.5 -197.5t-94.5 -172.5l-54 25q52 74 75.5 157.5t23.5 183.5q0 31 -2.5 60t-6.5 58h77z" />
    <glyph glyph-name="bullet" unicode="&#x2022;" horiz-adv-x="457" 
d="M227 475q-56 0 -84 34.5t-28 100.5v19q0 64 28 97.5t84 33.5q59 0 87.5 -33.5t28.5 -97.5v-19q0 -66 -28.5 -100.5t-87.5 -34.5z" />
    <glyph glyph-name="tilde" unicode="&#x2dc;" horiz-adv-x="704" 
d="M484 1142q-37 0 -70 15.5t-64.5 36t-60.5 36t-58 15.5q-34 0 -49 -21t-15 -67v-25h-55v31q0 70 27 106.5t88 36.5q36 0 69 -15.5t64 -36t61 -36t58 -15.5q34 0 48.5 21.5t14.5 67.5v23h57v-30q0 -71 -27.5 -107t-87.5 -36z" />
    <glyph glyph-name="guilsinglright" unicode="&#x203a;" horiz-adv-x="555" 
d="M388 486l-316 386h85l302 -367v-39l-302 -368h-85z" />
    <glyph glyph-name="oe" unicode="&#x153;" horiz-adv-x="1681" 
d="M497 -24q-188 0 -287.5 110t-99.5 316v171q0 206 99.5 315t287.5 109q153 0 245 -72t121 -206h-1q25 134 115.5 206t233.5 72q122 0 205 -48.5t125.5 -139t42.5 -218.5v-35q0 -25 -1 -50.5t-4 -54.5h-73q1 40 1 75.5v65.5q0 109 -34.5 184t-101 114.5t-165.5 39.5
q-149 0 -226 -88t-77 -256v-102v-12v-83q0 -164 86 -252t255 -88q92 0 172.5 28t150.5 80l-9 -77q-60 -46 -142 -73t-179 -27q-156 0 -251 70t-125 207h3q-30 -137 -122 -209t-245 -72zM864 451v64h695v-64h-695zM504 43q155 0 237 91.5t82 264.5v176q0 172 -82 263.5
t-237 91.5q-154 0 -234.5 -91t-80.5 -263v-177q0 -173 80.5 -264.5t234.5 -91.5z" />
    <glyph glyph-name="exclamdown" unicode="&#xa1;" horiz-adv-x="437" 
d="M251 600l10 -905h-86l11 905h65zM218 987q32 0 48 -18.5t16 -55.5v-10q0 -36 -16 -54.5t-48 -18.5q-31 0 -47 18.5t-16 54.5v10q0 37 16 55.5t47 18.5z" />
    <glyph glyph-name="cent" unicode="&#xa2;" horiz-adv-x="858" 
d="M518 959h-70v234h70v-234zM518 -224h-70v245h70v-245zM490 -20q-190 0 -285 108.5t-95 310.5v176q0 202 95 310t285 108q67 0 119.5 -14t91.5 -34.5t65 -41.5l8 -76q-47 41 -114 69.5t-163 28.5q-153 0 -230.5 -90t-77.5 -261v-173q0 -169 77.5 -260t233.5 -91
q99 0 167 29t115 69l-9 -77q-41 -33 -110 -62t-173 -29z" />
    <glyph glyph-name="sterling" unicode="&#xa3;" horiz-adv-x="1067" 
d="M91 620l8 65h787l-7 -65h-788zM207 71h783v-71h-894v66l28 8q60 18 99 57.5t58.5 103t19.5 150.5q0 72 -11 140t-25.5 135.5t-26 137.5t-11.5 147q0 177 96.5 265t292.5 88q83 0 162 -17t138 -43l8 -75q-72 32 -146 47.5t-152 15.5q-103 0 -173 -31.5t-106 -95
t-36 -160.5q0 -72 11 -139.5t25.5 -134.5t25.5 -134.5t11 -139.5q0 -130 -43.5 -206.5t-126.5 -116.5z" />
    <glyph glyph-name="currency" unicode="&#xa4;" horiz-adv-x="962" 
d="M481 261q-158 0 -243 86t-85 247v57q0 161 85.5 246t243.5 85t243 -85t85 -246v-57q0 -161 -85.5 -247t-243.5 -86zM482 325q122 0 188 68.5t66 199.5v59q0 130 -66 198t-188 68q-123 0 -189 -68t-66 -198v-59q0 -131 66 -199.5t189 -68.5zM712 379l166 -196l-48 -41
l-167 194zM299 337l-165 -195l-50 41l169 198zM248 866l-164 192l49 41l164 -193zM663 903l167 196l48 -41l-165 -197z" />
    <glyph glyph-name="yen" unicode="&#xa5;" horiz-adv-x="1095" 
d="M640 591l22 63h308l-9 -63h-321zM135 339h835l-9 -63h-835zM429 654l23 -63h-326l9 63h294zM508 412l-437 866h88l274 -547l105 -215h12l105 215l274 547h88l-437 -866h-72zM504 0v494h81v-494h-81z" />
    <glyph glyph-name="brokenbar" unicode="&#xa6;" horiz-adv-x="468" 
d="M269 593h-70v828h70v-828zM269 -446h-70v831h70v-831z" />
    <glyph glyph-name="section" unicode="&#xa7;" horiz-adv-x="936" 
d="M556 371q91 20 135 79.5t44 126.5v6q0 60 -24 100.5t-86 69t-178 51.5q-123 25 -193.5 59t-100 82t-29.5 113v8q0 114 82 172.5t245 58.5q113 0 194 -28t130 -63l9 -74q-62 42 -142 69.5t-186 27.5q-131 0 -192.5 -42.5t-61.5 -121.5v-8q0 -50 25 -84.5t85.5 -60
t167.5 -48.5q127 -26 199 -60t102.5 -84t30.5 -126v-7q0 -81 -50 -144.5t-140 -83.5v-22zM378 832q-89 -21 -133.5 -79t-44.5 -126v-7q0 -61 25 -102.5t86 -69.5t170 -50q127 -26 199 -59.5t102 -83.5t30 -126v-9q0 -122 -90 -185t-257 -63q-118 0 -203 28.5t-139 60.5
l-9 79q71 -42 155.5 -70.5t193.5 -28.5q130 0 200 45t70 135v7q0 56 -24 94t-85.5 65.5t-176.5 50.5q-121 26 -192 60.5t-101 85.5t-30 123v7q0 81 49 143.5t139 84.5v19z" />
    <glyph glyph-name="dieresis" unicode="&#xa8;" horiz-adv-x="604" 
d="M162 1166q-29 0 -43.5 17.5t-14.5 50.5v7q0 32 14.5 49t43.5 17q30 0 44 -17t14 -49v-7q0 -33 -14 -50.5t-44 -17.5zM442 1166q-29 0 -43.5 17.5t-14.5 50.5v7q0 32 14.5 49t43.5 17t43 -17t14 -49v-7q0 -33 -14 -50.5t-43 -17.5z" />
    <glyph glyph-name="copyright" unicode="&#xa9;" horiz-adv-x="1369" 
d="M684 -20q-180 0 -306.5 67t-192.5 194t-66 305v187q0 179 66 305t192.5 193t306.5 67t306.5 -67t192.5 -193t66 -305v-187q0 -178 -66 -305t-192.5 -194t-306.5 -67zM715 312q-128 0 -191.5 73.5t-63.5 210.5v89q0 137 64 210t192 73q69 0 115.5 -20t72.5 -42l6 -60
q-33 27 -78.5 47t-110.5 20q-100 0 -149.5 -58.5t-49.5 -167.5v-91q0 -109 50 -168.5t152 -59.5q67 0 112.5 20.5t78.5 47.5l-6 -60q-28 -24 -75 -44t-119 -20zM684 34q240 0 371.5 134t131.5 376v193q0 241 -131.5 374t-371.5 133q-239 0 -371 -133t-132 -374v-193
q0 -242 132 -376t371 -134z" />
    <glyph glyph-name="ordfeminine" unicode="&#xaa;" horiz-adv-x="664" 
d="M486 643l4 154l-3 5v210v56q0 82 -39 126t-126 44q-67 0 -123 -22t-95 -50l6 58q33 24 88.5 46t131.5 22q58 0 99.5 -15t68 -44t39 -71t12.5 -94v-425h-63zM276 631q-93 0 -143 45.5t-50 131.5v15q0 79 47.5 123.5t162.5 61.5l206 33l4 -50l-198 -30q-89 -14 -124 -46
t-35 -89v-13q0 -59 37 -93t111 -34q84 0 134.5 46.5t61.5 111.5l17 -44h-13q-10 -69 -63.5 -119t-154.5 -50z" />
    <glyph glyph-name="registered" unicode="&#xae;" horiz-adv-x="825" 
d="M413 562q-156 0 -241.5 84t-85.5 240v85q0 156 85.5 240t241.5 84t241 -84t85 -240v-85q0 -156 -85 -240t-241 -84zM413 605q135 0 206.5 70.5t71.5 209.5v87q0 139 -71.5 209t-206.5 70q-136 0 -208 -70t-72 -209v-87q0 -139 72 -209.5t208 -70.5zM515 739l-12 74
q-7 46 -25.5 63t-56.5 17h-97v39h113q38 0 55.5 18.5t17.5 52.5v12q0 31 -16.5 50.5t-57.5 19.5h-113v38h117q60 0 88 -26.5t28 -77.5v-11q0 -38 -20.5 -63t-67.5 -28l-3 -6l-11 8q48 -3 66.5 -28t27.5 -73l14 -79h-47zM293 739v384h45v-204v-16v-164h-45z" />
    <glyph glyph-name="degree" unicode="&#xb0;" horiz-adv-x="646" 
d="M322 811q-105 0 -163 64.5t-58 174.5v10q0 111 58 174.5t163 63.5q107 0 165 -63.5t58 -174.5v-10q0 -110 -58 -174.5t-165 -64.5zM322 869q76 0 116.5 48.5t40.5 131.5v12q0 84 -40.5 131.5t-116.5 47.5q-75 0 -115.5 -47.5t-40.5 -131.5v-12q0 -83 40.5 -131.5
t115.5 -48.5z" />
    <glyph glyph-name="plusminus" unicode="&#xb1;" horiz-adv-x="1033" 
d="M134 184v65h766v-65h-766zM552 399h-71v682h71v-682zM134 707v66h766v-66h-766z" />
    <glyph glyph-name="acute" unicode="&#xb4;" horiz-adv-x="505" 
d="M307 1362h93v-2l-224 -254h-75v2z" />
    <glyph glyph-name="paragraph" unicode="&#xb6;" horiz-adv-x="674" 
d="M360 670q-132 0 -195.5 74.5t-63.5 199.5v62q0 125 63.5 198.5t194.5 73.5h86l1 -608h-86zM500 0h-80v1278h80v-1278z" />
    <glyph glyph-name="cedilla" unicode="&#xb8;" horiz-adv-x="549" 
d="M307 7l-18 -141l-38 29q9 0 24 -0.5t27 -1.5q100 -6 146 -38.5t46 -98.5v-4q0 -65 -48.5 -98.5t-139.5 -33.5q-40 0 -77.5 7.5t-63.5 15.5l-12 59q31 -12 68 -19t78 -7q66 0 98.5 20t32.5 59v3q0 48 -37.5 67.5t-127.5 26.5q-9 1 -18 1.5t-18 0.5l18 153h60z" />
    <glyph glyph-name="ordmasculine" unicode="&#xba;" horiz-adv-x="689" 
d="M345 631q-126 0 -192.5 72t-66.5 210v100q0 138 66.5 209.5t192.5 71.5t192 -71.5t66 -209.5v-100q0 -138 -66 -210t-192 -72zM345 686q94 0 143.5 57.5t49.5 166.5v106q0 109 -49 166t-144 57t-144.5 -57t-49.5 -166v-106q0 -108 49.5 -166t144.5 -58z" />
    <glyph glyph-name="questiondown" unicode="&#xbf;" horiz-adv-x="871" 
d="M573 588v-73l-67 -18q-106 -28 -176.5 -72.5t-105.5 -112t-35 -166.5v-107q0 -141 63 -216t213 -75q101 0 189 32.5t150 74.5l-10 -77q-32 -23 -83 -46.5t-115.5 -39t-139.5 -15.5q-183 0 -265.5 92t-82.5 265v111q0 119 42 200.5t127 135t212 85.5zM531 987
q31 0 47 -18.5t16 -55.5v-10q0 -36 -16 -54.5t-47 -18.5q-32 0 -48 18.5t-16 54.5v10q0 37 16 55.5t48 18.5z" />
    <glyph glyph-name="Agrave" unicode="&#xc0;" horiz-adv-x="1119" 
d="M67 0l420 1278h143l422 -1278h-84l-396 1219h-27l-394 -1219h-84zM266 427v70h586v-70h-586zM347 1648l253 -235v-1h-82l-269 234v2h98z" />
    <glyph glyph-name="Aacute" unicode="&#xc1;" horiz-adv-x="1119" 
d="M67 0l420 1278h143l422 -1278h-84l-396 1219h-27l-394 -1219h-84zM266 427v70h586v-70h-586zM776 1648h98v-2l-269 -234h-82v1z" />
    <glyph glyph-name="Acircumflex" unicode="&#xc2;" horiz-adv-x="1119" 
d="M67 0l420 1278h143l422 -1278h-84l-396 1219h-27l-394 -1219h-84zM266 427v70h586v-70h-586zM515 1648h90l234 -234v-2h-75l-201 185h-6l-201 -185h-75v2z" />
    <glyph glyph-name="Atilde" unicode="&#xc3;" horiz-adv-x="1119" 
d="M67 0l420 1278h143l422 -1278h-84l-396 1219h-27l-394 -1219h-84zM266 427v70h586v-70h-586zM701 1439q-41 0 -77 15t-70 34.5t-66.5 34.5t-64.5 15q-36 0 -50.5 -21t-14.5 -62v-25h-57v31q0 62 26 100t91 38q41 0 77 -15t69.5 -34.5t66.5 -34.5t65 -15q36 0 50.5 21.5
t14.5 62.5v24h56v-32q0 -60 -25.5 -98.5t-90.5 -38.5z" />
    <glyph glyph-name="Aring" unicode="&#xc5;" horiz-adv-x="1119" 
d="M67 0l420 1278h143l422 -1278h-84l-396 1219h-27l-394 -1219h-84zM266 427v70h586v-70h-586zM395 1529v3q0 70 43.5 111t121.5 41q77 0 120 -41t43 -111v-3q0 -69 -43 -110t-120 -41q-78 0 -121.5 41t-43.5 110zM450 1529q0 -49 28.5 -76t81.5 -27q52 0 80.5 27t28.5 76
v3q0 49 -28.5 76.5t-80.5 27.5q-53 0 -81.5 -27.5t-28.5 -76.5v-3z" />
    <glyph glyph-name="Adieresis" unicode="&#xc4;" horiz-adv-x="1119" 
d="M67 0l420 1278h143l422 -1278h-84l-396 1219h-27l-394 -1219h-84zM266 427v70h586v-70h-586zM420 1462q-29 0 -43.5 17.5t-14.5 50.5v7q0 32 14.5 49t43.5 17q30 0 44 -17t14 -49v-7q0 -33 -14 -50.5t-44 -17.5zM700 1462q-29 0 -43.5 17.5t-14.5 50.5v7q0 32 14.5 49
t43.5 17t43 -17t14 -49v-7q0 -33 -14 -50.5t-43 -17.5z" />
    <glyph glyph-name="AE" unicode="&#xc6;" horiz-adv-x="1696" 
d="M65 0l664 1278h133v-59h-77l-632 -1219h-88zM345 427v70h528v-70h-528zM870 0v70h716v-70h-716zM845 0v1278h81v-1278h-81zM890 619v70h677v-70h-677zM868 1208v70h713v-70h-713z" />
    <glyph glyph-name="Ccedilla" unicode="&#xc7;" horiz-adv-x="1002" 
d="M560 -20q-220 0 -330.5 127t-110.5 358v349q0 232 109.5 358t324.5 126q78 0 142 -16.5t112 -42.5t80 -52l9 -81q-60 47 -142.5 83t-193.5 36q-177 0 -267.5 -107t-90.5 -304v-347q0 -197 92 -304.5t275 -107.5q111 0 193.5 35t143.5 85l-8 -83q-32 -26 -81 -52
t-113.5 -43t-143.5 -17zM563 6l-18 -141l-38 29q9 0 24 -0.5t27 -1.5q100 -6 146 -38.5t46 -98.5v-4q0 -65 -48.5 -98.5t-139.5 -33.5q-40 0 -77.5 7.5t-63.5 15.5l-12 59q31 -12 68 -19t78 -7q66 0 98.5 20t32.5 59v3q0 48 -37.5 67.5t-127.5 26.5q-9 1 -18 1.5t-18 0.5
l18 153h60z" />
    <glyph glyph-name="Egrave" unicode="&#xc8;" horiz-adv-x="1025" 
d="M174 0v1278h81v-1278h-81zM199 0v70h716v-70h-716zM219 619v70h676v-70h-676zM197 1208v70h712v-70h-712zM337 1648l253 -235v-1h-82l-269 234v2h98z" />
    <glyph glyph-name="Eacute" unicode="&#xc9;" horiz-adv-x="1025" 
d="M174 0v1278h81v-1278h-81zM199 0v70h716v-70h-716zM219 619v70h676v-70h-676zM197 1208v70h712v-70h-712zM766 1648h98v-2l-269 -234h-82v1z" />
    <glyph glyph-name="Ecircumflex" unicode="&#xca;" horiz-adv-x="1025" 
d="M174 0v1278h81v-1278h-81zM199 0v70h716v-70h-716zM219 619v70h676v-70h-676zM197 1208v70h712v-70h-712zM505 1648h90l234 -234v-2h-75l-201 185h-6l-201 -185h-75v2z" />
    <glyph glyph-name="Edieresis" unicode="&#xcb;" horiz-adv-x="1025" 
d="M174 0v1278h81v-1278h-81zM199 0v70h716v-70h-716zM219 619v70h676v-70h-676zM197 1208v70h712v-70h-712zM410 1462q-29 0 -43.5 17.5t-14.5 50.5v7q0 32 14.5 49t43.5 17q30 0 44 -17t14 -49v-7q0 -33 -14 -50.5t-44 -17.5zM690 1462q-29 0 -43.5 17.5t-14.5 50.5v7
q0 32 14.5 49t43.5 17t43 -17t14 -49v-7q0 -33 -14 -50.5t-43 -17.5z" />
    <glyph glyph-name="Igrave" unicode="&#xcc;" horiz-adv-x="434" 
d="M258 0h-82v1278h82v-1278zM4 1648l253 -235v-1h-82l-269 234v2h98z" />
    <glyph glyph-name="Iacute" unicode="&#xcd;" horiz-adv-x="434" 
d="M258 0h-82v1278h82v-1278zM433 1648h98v-2l-269 -234h-82v1z" />
    <glyph glyph-name="Icircumflex" unicode="&#xce;" horiz-adv-x="434" 
d="M258 0h-82v1278h82v-1278zM172 1648h90l234 -234v-2h-75l-201 185h-6l-201 -185h-75v2z" />
    <glyph glyph-name="Idieresis" unicode="&#xcf;" horiz-adv-x="434" 
d="M258 0h-82v1278h82v-1278zM77 1462q-29 0 -43.5 17.5t-14.5 50.5v7q0 32 14.5 49t43.5 17q30 0 44 -17t14 -49v-7q0 -33 -14 -50.5t-44 -17.5zM357 1462q-29 0 -43.5 17.5t-14.5 50.5v7q0 32 14.5 49t43.5 17t43 -17t14 -49v-7q0 -33 -14 -50.5t-43 -17.5z" />
    <glyph glyph-name="Eth" unicode="&#xd0;" horiz-adv-x="1152" 
d="M12 630v65h604v-65h-604zM225 0v71h328q196 0 297 108t101 310v301q0 203 -101 310.5t-297 107.5h-330v70h332q234 0 356 -126t122 -361v-303q0 -235 -122 -361.5t-356 -126.5h-330zM174 0v1278h81v-1278h-81z" />
    <glyph glyph-name="Ntilde" unicode="&#xd1;" horiz-adv-x="1206" 
d="M308 1278l634 -1196h14l-4 571v625h81v-1278h-133l-636 1200h-14l4 -608v-592h-80v1278h134zM745 1439q-41 0 -77 15t-70 34.5t-66.5 34.5t-64.5 15q-36 0 -50.5 -21t-14.5 -62v-25h-57v31q0 62 26 100t91 38q41 0 77 -15t69.5 -34.5t66.5 -34.5t65 -15q36 0 50.5 21.5
t14.5 62.5v24h56v-32q0 -60 -25.5 -98.5t-90.5 -38.5z" />
    <glyph glyph-name="Ograve" unicode="&#xd2;" horiz-adv-x="1154" 
d="M577 -20q-223 0 -340.5 128t-117.5 366v330q0 238 117.5 366t340.5 128t340.5 -128t117.5 -366v-330q0 -238 -117.5 -366t-340.5 -128zM577 51q185 0 280 109.5t95 311.5v335q0 202 -95 311t-280 109q-184 0 -279.5 -109t-95.5 -311v-335q0 -202 95.5 -311.5
t279.5 -109.5zM365 1648l253 -235v-1h-82l-269 234v2h98z" />
    <glyph glyph-name="Oacute" unicode="&#xd3;" horiz-adv-x="1154" 
d="M577 -20q-223 0 -340.5 128t-117.5 366v330q0 238 117.5 366t340.5 128t340.5 -128t117.5 -366v-330q0 -238 -117.5 -366t-340.5 -128zM577 51q185 0 280 109.5t95 311.5v335q0 202 -95 311t-280 109q-184 0 -279.5 -109t-95.5 -311v-335q0 -202 95.5 -311.5
t279.5 -109.5zM794 1648h98v-2l-269 -234h-82v1z" />
    <glyph glyph-name="Ocircumflex" unicode="&#xd4;" horiz-adv-x="1154" 
d="M577 -20q-223 0 -340.5 128t-117.5 366v330q0 238 117.5 366t340.5 128t340.5 -128t117.5 -366v-330q0 -238 -117.5 -366t-340.5 -128zM577 51q185 0 280 109.5t95 311.5v335q0 202 -95 311t-280 109q-184 0 -279.5 -109t-95.5 -311v-335q0 -202 95.5 -311.5
t279.5 -109.5zM533 1648h90l234 -234v-2h-75l-201 185h-6l-201 -185h-75v2z" />
    <glyph glyph-name="Otilde" unicode="&#xd5;" horiz-adv-x="1154" 
d="M577 -20q-223 0 -340.5 128t-117.5 366v330q0 238 117.5 366t340.5 128t340.5 -128t117.5 -366v-330q0 -238 -117.5 -366t-340.5 -128zM577 51q185 0 280 109.5t95 311.5v335q0 202 -95 311t-280 109q-184 0 -279.5 -109t-95.5 -311v-335q0 -202 95.5 -311.5
t279.5 -109.5zM719 1439q-41 0 -77 15t-70 34.5t-66.5 34.5t-64.5 15q-36 0 -50.5 -21t-14.5 -62v-25h-57v31q0 62 26 100t91 38q41 0 77 -15t69.5 -34.5t66.5 -34.5t65 -15q36 0 50.5 21.5t14.5 62.5v24h56v-32q0 -60 -25.5 -98.5t-90.5 -38.5z" />
    <glyph glyph-name="Odieresis" unicode="&#xd6;" horiz-adv-x="1154" 
d="M577 -20q-223 0 -340.5 128t-117.5 366v330q0 238 117.5 366t340.5 128t340.5 -128t117.5 -366v-330q0 -238 -117.5 -366t-340.5 -128zM577 51q185 0 280 109.5t95 311.5v335q0 202 -95 311t-280 109q-184 0 -279.5 -109t-95.5 -311v-335q0 -202 95.5 -311.5
t279.5 -109.5zM438 1462q-29 0 -43.5 17.5t-14.5 50.5v7q0 32 14.5 49t43.5 17q30 0 44 -17t14 -49v-7q0 -33 -14 -50.5t-44 -17.5zM718 1462q-29 0 -43.5 17.5t-14.5 50.5v7q0 32 14.5 49t43.5 17t43 -17t14 -49v-7q0 -33 -14 -50.5t-43 -17.5z" />
    <glyph glyph-name="Oslash" unicode="&#xd8;" horiz-adv-x="1154" 
d="M577 -20q-147 0 -249.5 58t-155.5 169t-53 267v330q0 238 117.5 366t340.5 128q147 0 249 -58t155.5 -168.5t53.5 -267.5v-330q0 -238 -117.5 -366t-340.5 -128zM143 -66l111 191l17 25l567 1027l12 24l81 142h80l-110 -187l-17 -28l-565 -1024l-10 -19l-86 -151h-80z
M577 51q185 0 280 109.5t95 311.5v335q0 202 -94 311t-281 109q-184 0 -279.5 -109t-95.5 -311v-335q0 -202 94 -311.5t281 -109.5z" />
    <glyph glyph-name="Ugrave" unicode="&#xd9;" horiz-adv-x="1187" 
d="M593 -20q-218 0 -324 120t-106 343v835h82v-836q0 -187 84.5 -288.5t263.5 -101.5q181 0 265 101.5t84 288.5v836h82v-835q0 -223 -106.5 -343t-324.5 -120zM380 1648l253 -235v-1h-82l-269 234v2h98z" />
    <glyph glyph-name="Uacute" unicode="&#xda;" horiz-adv-x="1187" 
d="M593 -20q-218 0 -324 120t-106 343v835h82v-836q0 -187 84.5 -288.5t263.5 -101.5q181 0 265 101.5t84 288.5v836h82v-835q0 -223 -106.5 -343t-324.5 -120zM810 1648h98v-2l-269 -234h-82v1z" />
    <glyph glyph-name="Ucircumflex" unicode="&#xdb;" horiz-adv-x="1187" 
d="M593 -20q-218 0 -324 120t-106 343v835h82v-836q0 -187 84.5 -288.5t263.5 -101.5q181 0 265 101.5t84 288.5v836h82v-835q0 -223 -106.5 -343t-324.5 -120zM549 1648h90l234 -234v-2h-75l-201 185h-6l-201 -185h-75v2z" />
    <glyph glyph-name="Udieresis" unicode="&#xdc;" horiz-adv-x="1187" 
d="M593 -20q-218 0 -324 120t-106 343v835h82v-836q0 -187 84.5 -288.5t263.5 -101.5q181 0 265 101.5t84 288.5v836h82v-835q0 -223 -106.5 -343t-324.5 -120zM454 1462q-29 0 -43.5 17.5t-14.5 50.5v7q0 32 14.5 49t43.5 17q30 0 44 -17t14 -49v-7q0 -33 -14 -50.5
t-44 -17.5zM734 1462q-29 0 -43.5 17.5t-14.5 50.5v7q0 32 14.5 49t43.5 17t43 -17t14 -49v-7q0 -33 -14 -50.5t-43 -17.5z" />
    <glyph glyph-name="Yacute" unicode="&#xdd;" horiz-adv-x="1058" 
d="M494 412l-438 866h88l274 -547l106 -215h11l106 215l273 547h88l-437 -866h-71zM489 0v494h81v-494h-81zM746 1648h98v-2l-269 -234h-82v1z" />
    <glyph glyph-name="Thorn" unicode="&#xde;" horiz-adv-x="1089" 
d="M223 233v70h386q159 0 228 80t69 217v88q0 136 -68.5 214.5t-226.5 78.5h-389v69h392q196 0 285 -97.5t89 -261.5v-94q0 -166 -89.5 -265t-287.5 -99h-388zM174 0v1278h80v-246v-31v-721v-24v-256h-80z" />
    <glyph glyph-name="germandbls" unicode="&#xdf;" horiz-adv-x="1095" 
d="M152 1001q0 110 34 188.5t110.5 120t202.5 41.5q106 0 178 -30.5t109 -84.5t37 -126q0 -60 -27 -104t-66.5 -80t-79.5 -68.5t-67 -70t-27 -85.5v-6q0 -69 45 -103t155 -71q88 -28 141.5 -62t78 -83.5t24.5 -126.5v-14q0 -82 -34.5 -139t-99.5 -86.5t-160 -29.5
q-82 0 -139.5 16t-102.5 36l-9 77q59 -27 115.5 -43.5t130.5 -16.5q110 0 165.5 48t55.5 138v13q0 59 -18.5 97.5t-63.5 66t-122 52.5q-87 28 -140 57t-76 69.5t-23 101.5v6q0 58 26.5 101t66.5 78t79 69t66 72.5t27 89.5q0 50 -26 89.5t-80 62.5t-140 23
q-101 0 -159.5 -33.5t-83.5 -97.5t-25 -155v-998h-78v1001z" />
    <glyph glyph-name="agrave" unicode="&#xe0;" horiz-adv-x="955" 
d="M739 0l5 250l-4 13v317l1 76q0 133 -67 201t-209 68q-108 0 -194.5 -34t-148.5 -77l9 74q33 24 82.5 48.5t114.5 40.5t146 16q90 0 155.5 -23t107.5 -66.5t62 -105.5t20 -141v-657h-80zM392 -20q-145 0 -223.5 68.5t-78.5 199.5v25q0 122 76 186.5t250 89.5l343 51l4 -62
l-336 -49q-137 -20 -197.5 -69t-60.5 -143v-21q0 -102 62 -155t181 -53q97 0 166.5 36.5t112 99t55.5 140.5l21 -62h-18q-10 -74 -52 -138.5t-118 -104t-187 -39.5zM297 1362l206 -254v-2h-74l-224 254v2h92z" />
    <glyph glyph-name="aacute" unicode="&#xe1;" horiz-adv-x="955" 
d="M739 0l5 250l-4 13v317l1 76q0 133 -67 201t-209 68q-108 0 -194.5 -34t-148.5 -77l9 74q33 24 82.5 48.5t114.5 40.5t146 16q90 0 155.5 -23t107.5 -66.5t62 -105.5t20 -141v-657h-80zM392 -20q-145 0 -223.5 68.5t-78.5 199.5v25q0 122 76 186.5t250 89.5l343 51l4 -62
l-336 -49q-137 -20 -197.5 -69t-60.5 -143v-21q0 -102 62 -155t181 -53q97 0 166.5 36.5t112 99t55.5 140.5l21 -62h-18q-10 -74 -52 -138.5t-118 -104t-187 -39.5zM637 1362h93v-2l-224 -254h-75v2z" />
    <glyph glyph-name="acircumflex" unicode="&#xe2;" horiz-adv-x="955" 
d="M739 0l5 250l-4 13v317l1 76q0 133 -67 201t-209 68q-108 0 -194.5 -34t-148.5 -77l9 74q33 24 82.5 48.5t114.5 40.5t146 16q90 0 155.5 -23t107.5 -66.5t62 -105.5t20 -141v-657h-80zM392 -20q-145 0 -223.5 68.5t-78.5 199.5v25q0 122 76 186.5t250 89.5l343 51l4 -62
l-336 -49q-137 -20 -197.5 -69t-60.5 -143v-21q0 -102 62 -155t181 -53q97 0 166.5 36.5t112 99t55.5 140.5l21 -62h-18q-10 -74 -52 -138.5t-118 -104t-187 -39.5zM420 1362h93l199 -254v-2h-69l-173 204h-7l-173 -204h-69v2z" />
    <glyph glyph-name="atilde" unicode="&#xe3;" horiz-adv-x="955" 
d="M739 0l5 250l-4 13v317l1 76q0 133 -67 201t-209 68q-108 0 -194.5 -34t-148.5 -77l9 74q33 24 82.5 48.5t114.5 40.5t146 16q90 0 155.5 -23t107.5 -66.5t62 -105.5t20 -141v-657h-80zM392 -20q-145 0 -223.5 68.5t-78.5 199.5v25q0 122 76 186.5t250 89.5l343 51l4 -62
l-336 -49q-137 -20 -197.5 -69t-60.5 -143v-21q0 -102 62 -155t181 -53q97 0 166.5 36.5t112 99t55.5 140.5l21 -62h-18q-10 -74 -52 -138.5t-118 -104t-187 -39.5zM599 1142q-37 0 -70 15.5t-64.5 36t-60.5 36t-58 15.5q-34 0 -49 -21t-15 -67v-25h-55v31q0 70 27 106.5
t88 36.5q36 0 69 -15.5t64 -36t61 -36t58 -15.5q34 0 48.5 21.5t14.5 67.5v23h57v-30q0 -71 -27.5 -107t-87.5 -36z" />
    <glyph glyph-name="adieresis" unicode="&#xe4;" horiz-adv-x="955" 
d="M739 0l5 250l-4 13v317l1 76q0 133 -67 201t-209 68q-108 0 -194.5 -34t-148.5 -77l9 74q33 24 82.5 48.5t114.5 40.5t146 16q90 0 155.5 -23t107.5 -66.5t62 -105.5t20 -141v-657h-80zM392 -20q-145 0 -223.5 68.5t-78.5 199.5v25q0 122 76 186.5t250 89.5l343 51l4 -62
l-336 -49q-137 -20 -197.5 -69t-60.5 -143v-21q0 -102 62 -155t181 -53q97 0 166.5 36.5t112 99t55.5 140.5l21 -62h-18q-10 -74 -52 -138.5t-118 -104t-187 -39.5zM327 1166q-29 0 -43.5 17.5t-14.5 50.5v7q0 32 14.5 49t43.5 17q30 0 44 -17t14 -49v-7q0 -33 -14 -50.5
t-44 -17.5zM607 1166q-29 0 -43.5 17.5t-14.5 50.5v7q0 32 14.5 49t43.5 17t43 -17t14 -49v-7q0 -33 -14 -50.5t-43 -17.5z" />
    <glyph glyph-name="aring" unicode="&#xe5;" horiz-adv-x="955" 
d="M739 0l5 250l-4 13v317l1 76q0 133 -67 201t-209 68q-108 0 -194.5 -34t-148.5 -77l9 74q33 24 82.5 48.5t114.5 40.5t146 16q90 0 155.5 -23t107.5 -66.5t62 -105.5t20 -141v-657h-80zM392 -20q-145 0 -223.5 68.5t-78.5 199.5v25q0 122 76 186.5t250 89.5l343 51l4 -62
l-336 -49q-137 -20 -197.5 -69t-60.5 -143v-21q0 -102 62 -155t181 -53q97 0 166.5 36.5t112 99t55.5 140.5l21 -62h-18q-10 -74 -52 -138.5t-118 -104t-187 -39.5zM303 1251v3q0 70 43.5 111t121.5 41q77 0 120 -41t43 -111v-3q0 -69 -43 -110t-120 -41q-78 0 -121.5 41
t-43.5 110zM358 1251q0 -49 28.5 -76t81.5 -27q52 0 80.5 27t28.5 76v3q0 49 -28.5 76.5t-80.5 27.5q-53 0 -81.5 -27.5t-28.5 -76.5v-3z" />
    <glyph glyph-name="ae" unicode="&#xe6;" horiz-adv-x="1597" 
d="M1147 -20q-168 0 -267.5 76.5t-125.5 210.5l-8 17q-4 38 -5 74.5t-1 73.5l1 197q0 146 -68.5 221t-209.5 75q-107 0 -193 -34t-148 -77l9 74q33 24 81 48.5t112 40.5t143 16q146 0 223.5 -72.5t93.5 -201.5h-6q24 132 114.5 205t236.5 73q121 0 204 -48.5t125.5 -139
t42.5 -218.5v-35q0 -25 -1 -50.5t-4 -54.5h-73q1 40 1 75.5v65.5q0 109 -34.5 184t-101 114.5t-165.5 39.5q-149 0 -226.5 -88.5t-77.5 -256.5v-101v-12v-101q0 -75 22 -134.5t64.5 -101t105.5 -64t146 -22.5q94 0 175 28t151 80l-8 -77q-61 -46 -144.5 -73t-183.5 -27z
M396 -20q-148 0 -227 69t-79 199v25q0 122 76.5 186.5t249.5 89.5l343 51l4 -62l-336 -49q-137 -20 -197.5 -69t-60.5 -143v-21q0 -102 62.5 -155t182.5 -53q97 0 166.5 36t112.5 99t56 141l33 -61h-17q-15 -78 -59.5 -142t-121 -102.5t-188.5 -38.5zM780 451v64h695v-64
h-695z" />
    <glyph glyph-name="ccedilla" unicode="&#xe7;" horiz-adv-x="858" 
d="M490 -20q-190 0 -285 108.5t-95 310.5v176q0 202 95 310t285 108q67 0 119.5 -14t91.5 -34.5t65 -41.5l8 -76q-47 41 -114 69.5t-163 28.5q-153 0 -230.5 -90t-77.5 -261v-173q0 -169 77.5 -260t233.5 -91q99 0 167 29t115 69l-9 -77q-41 -33 -110 -62t-173 -29zM504 7
l-18 -141l-38 29q9 0 24 -0.5t27 -1.5q100 -6 146 -38.5t46 -98.5v-4q0 -65 -48.5 -98.5t-139.5 -33.5q-40 0 -77.5 7.5t-63.5 15.5l-12 59q31 -12 68 -19t78 -7q66 0 98.5 20t32.5 59v3q0 48 -37.5 67.5t-127.5 26.5q-9 1 -18 1.5t-18 0.5l18 153h60z" />
    <glyph glyph-name="egrave" unicode="&#xe8;" horiz-adv-x="966" 
d="M516 -20q-196 0 -301 102.5t-105 291.5v207q0 202 97 309t283 107q124 0 208.5 -48.5t128 -139t43.5 -218.5v-35q0 -25 -1 -50.5t-4 -54.5h-73q1 40 1 75.5v65.5q0 109 -34.5 184t-102 114.5t-166.5 39.5q-148 0 -225 -88t-77 -256v-96v-12v-109q0 -75 22 -134
t64.5 -100.5t105.5 -63.5t146 -22q94 0 175 28t152 80l-9 -77q-61 -46 -144.5 -73t-183.5 -27zM150 451v64h695v-64h-695zM321 1362l206 -254v-2h-74l-224 254v2h92z" />
    <glyph glyph-name="eacute" unicode="&#xe9;" horiz-adv-x="966" 
d="M516 -20q-196 0 -301 102.5t-105 291.5v207q0 202 97 309t283 107q124 0 208.5 -48.5t128 -139t43.5 -218.5v-35q0 -25 -1 -50.5t-4 -54.5h-73q1 40 1 75.5v65.5q0 109 -34.5 184t-102 114.5t-166.5 39.5q-148 0 -225 -88t-77 -256v-96v-12v-109q0 -75 22 -134
t64.5 -100.5t105.5 -63.5t146 -22q94 0 175 28t152 80l-9 -77q-61 -46 -144.5 -73t-183.5 -27zM150 451v64h695v-64h-695zM662 1362h93v-2l-224 -254h-75v2z" />
    <glyph glyph-name="ecircumflex" unicode="&#xea;" horiz-adv-x="966" 
d="M516 -20q-196 0 -301 102.5t-105 291.5v207q0 202 97 309t283 107q124 0 208.5 -48.5t128 -139t43.5 -218.5v-35q0 -25 -1 -50.5t-4 -54.5h-73q1 40 1 75.5v65.5q0 109 -34.5 184t-102 114.5t-166.5 39.5q-148 0 -225 -88t-77 -256v-96v-12v-109q0 -75 22 -134
t64.5 -100.5t105.5 -63.5t146 -22q94 0 175 28t152 80l-9 -77q-61 -46 -144.5 -73t-183.5 -27zM150 451v64h695v-64h-695zM445 1362h93l199 -254v-2h-69l-173 204h-7l-173 -204h-69v2z" />
    <glyph glyph-name="edieresis" unicode="&#xeb;" horiz-adv-x="966" 
d="M516 -20q-196 0 -301 102.5t-105 291.5v207q0 202 97 309t283 107q124 0 208.5 -48.5t128 -139t43.5 -218.5v-35q0 -25 -1 -50.5t-4 -54.5h-73q1 40 1 75.5v65.5q0 109 -34.5 184t-102 114.5t-166.5 39.5q-148 0 -225 -88t-77 -256v-96v-12v-109q0 -75 22 -134
t64.5 -100.5t105.5 -63.5t146 -22q94 0 175 28t152 80l-9 -77q-61 -46 -144.5 -73t-183.5 -27zM150 451v64h695v-64h-695zM351 1166q-29 0 -43.5 17.5t-14.5 50.5v7q0 32 14.5 49t43.5 17q30 0 44 -17t14 -49v-7q0 -33 -14 -50.5t-44 -17.5zM631 1166q-29 0 -43.5 17.5
t-14.5 50.5v7q0 32 14.5 49t43.5 17t43 -17t14 -49v-7q0 -33 -14 -50.5t-43 -17.5z" />
    <glyph glyph-name="igrave" unicode="&#xec;" horiz-adv-x="392" 
d="M156 0v973h80v-973h-80zM103 1362l123 -255v-1h-67l-140 256v0h84z" />
    <glyph glyph-name="iacute" unicode="&#xed;" horiz-adv-x="392" 
d="M156 0v973h80v-973h-80zM290 1362h84v0l-140 -256h-67v1z" />
    <glyph glyph-name="icircumflex" unicode="&#xee;" horiz-adv-x="392" 
d="M156 0v973h80v-973h-80zM152 1362h89l160 -255v-1h-66l-136 204h-6l-135 -204h-66v1z" />
    <glyph glyph-name="idieresis" unicode="&#xef;" horiz-adv-x="392" 
d="M156 0v973h80v-973h-80zM83 1166q-28 0 -42 17t-14 51v7q0 32 14 49t42 17t42.5 -17t14.5 -49v-7q0 -34 -14.5 -51t-42.5 -17zM310 1166q-29 0 -43 17t-14 51v7q0 32 14 49t43 17q28 0 42 -17t14 -49v-7q0 -34 -14 -51t-42 -17z" />
    <glyph glyph-name="eth" unicode="&#xf0;" horiz-adv-x="1012" 
d="M506 -24q-195 0 -295.5 110t-100.5 316v105q0 201 98 310t276 109q93 0 166.5 -35.5t118 -100.5t50.5 -154l23 -1l-19 -97q-3 80 -29 140.5t-70 100.5t-101 60.5t-123 20.5q-152 0 -231.5 -91t-79.5 -262v-108q0 -173 81 -264.5t236 -91.5q154 0 235.5 91.5t81.5 264.5
v103v105q-1 18 -1 31.5t1 30.5q-12 95 -52 173.5t-109.5 153t-170 154.5t-233.5 177v1h107q134 -103 235 -188t168 -169.5t101 -185.5t34 -235v-147q0 -207 -101.5 -317t-295.5 -110zM216 1026v59l637 181v-60z" />
    <glyph glyph-name="ntilde" unicode="&#xf1;" horiz-adv-x="1033" 
d="M816 0v616q0 96 -26 165t-85 106.5t-158 37.5q-91 0 -159 -36t-109 -98.5t-55 -142.5l-22 64h20q11 76 53 140t116 102.5t178 38.5q119 0 190.5 -44.5t103.5 -127t32 -198.5v-623h-79zM152 0v973h79l-5 -248l5 -3v-722h-79zM649 1142q-37 0 -70 15.5t-64.5 36t-60.5 36
t-58 15.5q-34 0 -49 -21t-15 -67v-25h-55v31q0 70 27 106.5t88 36.5q36 0 69 -15.5t64 -36t61 -36t58 -15.5q34 0 48.5 21.5t14.5 67.5v23h57v-30q0 -71 -27.5 -107t-87.5 -36z" />
    <glyph glyph-name="ograve" unicode="&#xf2;" horiz-adv-x="1012" 
d="M506 -24q-195 0 -295.5 110t-100.5 316v171q0 206 101 315t295 109t295.5 -109t101.5 -315v-171q0 -206 -101.5 -316t-295.5 -110zM506 43q154 0 235.5 91.5t81.5 264.5v177q0 172 -81 263t-236 91t-236 -91t-81 -263v-177q0 -173 81 -264.5t236 -91.5zM336 1362
l206 -254v-2h-74l-224 254v2h92z" />
    <glyph glyph-name="oacute" unicode="&#xf3;" horiz-adv-x="1012" 
d="M506 -24q-195 0 -295.5 110t-100.5 316v171q0 206 101 315t295 109t295.5 -109t101.5 -315v-171q0 -206 -101.5 -316t-295.5 -110zM506 43q154 0 235.5 91.5t81.5 264.5v177q0 172 -81 263t-236 91t-236 -91t-81 -263v-177q0 -173 81 -264.5t236 -91.5zM677 1362h93v-2
l-224 -254h-75v2z" />
    <glyph glyph-name="ocircumflex" unicode="&#xf4;" horiz-adv-x="1012" 
d="M506 -24q-195 0 -295.5 110t-100.5 316v171q0 206 101 315t295 109t295.5 -109t101.5 -315v-171q0 -206 -101.5 -316t-295.5 -110zM506 43q154 0 235.5 91.5t81.5 264.5v177q0 172 -81 263t-236 91t-236 -91t-81 -263v-177q0 -173 81 -264.5t236 -91.5zM460 1362h93
l199 -254v-2h-69l-173 204h-7l-173 -204h-69v2z" />
    <glyph glyph-name="otilde" unicode="&#xf5;" horiz-adv-x="1012" 
d="M506 -24q-195 0 -295.5 110t-100.5 316v171q0 206 101 315t295 109t295.5 -109t101.5 -315v-171q0 -206 -101.5 -316t-295.5 -110zM506 43q154 0 235.5 91.5t81.5 264.5v177q0 172 -81 263t-236 91t-236 -91t-81 -263v-177q0 -173 81 -264.5t236 -91.5zM638 1142
q-37 0 -70 15.5t-64.5 36t-60.5 36t-58 15.5q-34 0 -49 -21t-15 -67v-25h-55v31q0 70 27 106.5t88 36.5q36 0 69 -15.5t64 -36t61 -36t58 -15.5q34 0 48.5 21.5t14.5 67.5v23h57v-30q0 -71 -27.5 -107t-87.5 -36z" />
    <glyph glyph-name="odieresis" unicode="&#xf6;" horiz-adv-x="1012" 
d="M506 -24q-195 0 -295.5 110t-100.5 316v171q0 206 101 315t295 109t295.5 -109t101.5 -315v-171q0 -206 -101.5 -316t-295.5 -110zM506 43q154 0 235.5 91.5t81.5 264.5v177q0 172 -81 263t-236 91t-236 -91t-81 -263v-177q0 -173 81 -264.5t236 -91.5zM366 1166
q-29 0 -43.5 17.5t-14.5 50.5v7q0 32 14.5 49t43.5 17q30 0 44 -17t14 -49v-7q0 -33 -14 -50.5t-44 -17.5zM646 1166q-29 0 -43.5 17.5t-14.5 50.5v7q0 32 14.5 49t43.5 17t43 -17t14 -49v-7q0 -33 -14 -50.5t-43 -17.5z" />
    <glyph glyph-name="oslash" unicode="&#xf8;" horiz-adv-x="1012" 
d="M506 -24q-129 0 -217.5 49.5t-133.5 145t-45 231.5v171q0 206 101 315t295 109q129 0 217.5 -49t134 -143t45.5 -232v-171q0 -206 -101.5 -316t-295.5 -110zM140 -66l96 157l18 26l462 784l12 20l70 118h74l-94 -151l-17 -27l-460 -782l-14 -25l-72 -120h-75zM506 43
q154 0 235.5 91.5t81.5 264.5v177q0 172 -81 263t-236 91t-236 -91t-81 -263v-177q0 -173 81 -264.5t236 -91.5z" />
    <glyph glyph-name="ugrave" unicode="&#xf9;" horiz-adv-x="1033" 
d="M217 973v-616q0 -96 26 -165t85 -106.5t158 -37.5q92 0 159.5 36t109 98.5t54.5 142.5l22 -64h-20q-11 -75 -53 -139.5t-115.5 -103t-178.5 -38.5q-118 0 -190 44.5t-104 127t-32 198.5v623h79zM881 973v-973h-79l5 247l-5 4v722h79zM343 1362l206 -254v-2h-74l-224 254
v2h92z" />
    <glyph glyph-name="uacute" unicode="&#xfa;" horiz-adv-x="1033" 
d="M217 973v-616q0 -96 26 -165t85 -106.5t158 -37.5q92 0 159.5 36t109 98.5t54.5 142.5l22 -64h-20q-11 -75 -53 -139.5t-115.5 -103t-178.5 -38.5q-118 0 -190 44.5t-104 127t-32 198.5v623h79zM881 973v-973h-79l5 247l-5 4v722h79zM684 1362h93v-2l-224 -254h-75v2z
" />
    <glyph glyph-name="ucircumflex" unicode="&#xfb;" horiz-adv-x="1033" 
d="M217 973v-616q0 -96 26 -165t85 -106.5t158 -37.5q92 0 159.5 36t109 98.5t54.5 142.5l22 -64h-20q-11 -75 -53 -139.5t-115.5 -103t-178.5 -38.5q-118 0 -190 44.5t-104 127t-32 198.5v623h79zM881 973v-973h-79l5 247l-5 4v722h79zM467 1362h93l199 -254v-2h-69
l-173 204h-7l-173 -204h-69v2z" />
    <glyph glyph-name="udieresis" unicode="&#xfc;" horiz-adv-x="1033" 
d="M217 973v-616q0 -96 26 -165t85 -106.5t158 -37.5q92 0 159.5 36t109 98.5t54.5 142.5l22 -64h-20q-11 -75 -53 -139.5t-115.5 -103t-178.5 -38.5q-118 0 -190 44.5t-104 127t-32 198.5v623h79zM881 973v-973h-79l5 247l-5 4v722h79zM373 1166q-29 0 -43.5 17.5
t-14.5 50.5v7q0 32 14.5 49t43.5 17q30 0 44 -17t14 -49v-7q0 -33 -14 -50.5t-44 -17.5zM653 1166q-29 0 -43.5 17.5t-14.5 50.5v7q0 32 14.5 49t43.5 17t43 -17t14 -49v-7q0 -33 -14 -50.5t-43 -17.5z" />
    <glyph glyph-name="yacute" unicode="&#xfd;" horiz-adv-x="956" 
d="M520 98l-41 -19l333 894h83l-492 -1317h-82l153 413l31 -30h-96l-348 934h83l321 -875h55zM648 1362h93v-2l-224 -254h-75v2z" />
    <glyph glyph-name="thorn" unicode="&#xfe;" horiz-adv-x="1044" 
d="M565 -20q-97 0 -172 37.5t-120 105.5t-50 159h-26l31 73q5 -102 49 -170.5t115 -102.5t157 -34q148 0 227 88.5t79 257.5v185q0 169 -78.5 258t-229.5 89q-86 0 -153.5 -35.5t-111 -98.5t-58.5 -147l-26 63h24q12 79 55 143.5t116.5 103t175.5 38.5q178 0 271.5 -107.5
t93.5 -310.5v-177q0 -204 -94.5 -311t-274.5 -107zM152 -344v1672h79v-340l-4 -266l1 -31v-413l-2 -22l5 -265v-335h-79z" />
    <glyph glyph-name="ydieresis" unicode="&#xff;" horiz-adv-x="956" 
d="M520 98l-41 -19l333 894h83l-492 -1317h-82l153 413l31 -30h-96l-348 934h83l321 -875h55zM338 1166q-29 0 -43.5 17.5t-14.5 50.5v7q0 32 14.5 49t43.5 17q30 0 44 -17t14 -49v-7q0 -33 -14 -50.5t-44 -17.5zM618 1166q-29 0 -43.5 17.5t-14.5 50.5v7q0 32 14.5 49
t43.5 17t43 -17t14 -49v-7q0 -33 -14 -50.5t-43 -17.5z" />
    <glyph glyph-name="logicalnot" unicode="&#xac;" horiz-adv-x="1022" 
d="M881 208h-70v420h70v-420zM114 591v66h767v-66h-767z" />
    <glyph glyph-name="macron" unicode="&#xaf;" horiz-adv-x="743" 
d="M120 1195v59h503v-59h-503z" />
    <glyph glyph-name="ring" unicode="&#x2da;" horiz-adv-x="544" 
d="M108 1251v3q0 70 43.5 111t121.5 41q77 0 120 -41t43 -111v-3q0 -69 -43 -110t-120 -41q-78 0 -121.5 41t-43.5 110zM163 1251q0 -49 28.5 -76t81.5 -27q52 0 80.5 27t28.5 76v3q0 49 -28.5 76.5t-80.5 27.5q-53 0 -81.5 -27.5t-28.5 -76.5v-3z" />
    <glyph glyph-name="periodcentered" unicode="&#xb7;" horiz-adv-x="328" 
d="M164 461q-30 0 -45.5 17.5t-15.5 51.5v6q0 32 15.5 49.5t45.5 17.5q31 0 46 -17.5t15 -49.5v-6q0 -34 -15 -51.5t-46 -17.5z" />
    <glyph glyph-name="fraction" unicode="&#x2044;" horiz-adv-x="422" 
d="M-239 0l839 1278h71l-838 -1278h-72z" />
    <glyph glyph-name="uni00B9" unicode="&#xb9;" horiz-adv-x="413" 
d="M246 725v615h-6l-202 -127l2 64l198 126h71v-678h-63z" />
    <glyph glyph-name="uni00B2" unicode="&#xb2;" horiz-adv-x="587" 
d="M50 725v63l210 168q63 50 105 89.5t63.5 79t21.5 87.5v7q0 70 -43 104.5t-126 34.5q-62 0 -118.5 -18.5t-106.5 -48.5l6 59q38 24 98 44.5t127 20.5q111 0 170 -49.5t59 -142.5v-9q0 -56 -25.5 -103t-72.5 -92.5t-113 -97.5l-174 -136v-17l-27 13h426v-56h-480z" />
    <glyph glyph-name="uni00B3" unicode="&#xb3;" horiz-adv-x="613" 
d="M287 714q-79 0 -137 16.5t-89 31.5l-6 59q39 -19 99 -35.5t129 -16.5q106 0 151.5 39.5t45.5 100.5v11q0 32 -10 55.5t-32 39.5t-56.5 24t-82.5 9l-137 1v50l134 1q95 1 136.5 35t41.5 89v11q0 58 -43.5 91t-141.5 33q-75 0 -132 -17t-98 -39l7 57q34 20 92 37t138 17
q126 0 185 -45t59 -128v-12q0 -57 -37.5 -102t-127.5 -49l-5 -5l4 6q92 -7 132 -49.5t40 -112.5v-13q0 -52 -26 -95.5t-83 -69t-150 -25.5z" />
    <glyph glyph-name="onequarter" unicode="&#xbc;" horiz-adv-x="1324" 
d="M246 600v615h-6l-202 -127l2 64l198 126h71v-678h-63zM174 0l839 1278h71l-838 -1278h-72zM1133 0v482l2 149h-20l-308 -437v-29l-30 23h527v-53h-563v64l339 479h114v-678h-61z" />
    <glyph glyph-name="onehalf" unicode="&#xbd;" horiz-adv-x="1434" 
d="M246 600v615h-6l-202 -127l2 64l198 126h71v-678h-63zM174 0l839 1278h71l-838 -1278h-72zM896 0v63l210 168q63 50 105 89.5t63.5 79t21.5 87.5v7q0 70 -43 104.5t-126 34.5q-62 0 -118.5 -18.5t-106.5 -48.5l6 59q38 24 98 44.5t127 20.5q111 0 170 -49.5t59 -142.5v-9
q0 -56 -25.5 -103t-72.5 -92.5t-113 -97.5l-174 -136v-17l-27 13h426v-56h-480z" />
    <glyph glyph-name="threequarters" unicode="&#xbe;" horiz-adv-x="1516" 
d="M287 589q-79 0 -137 16.5t-89 31.5l-6 59q39 -19 99 -35.5t129 -16.5q106 0 151.5 39.5t45.5 100.5v11q0 32 -10 55.5t-32 39.5t-56.5 24t-82.5 9l-137 1v50l134 1q95 1 136.5 35t41.5 89v11q0 58 -43.5 91t-141.5 33q-75 0 -132 -17t-98 -39l7 57q34 20 92 37t138 17
q126 0 185 -45t59 -128v-12q0 -57 -37.5 -102t-127.5 -49l-5 -5l4 6q92 -7 132 -49.5t40 -112.5v-13q0 -52 -26 -95.5t-83 -69t-150 -25.5zM366 0l839 1278h71l-838 -1278h-72zM1325 0v482l2 149h-20l-308 -437v-29l-30 23h527v-53h-563v64l339 479h114v-678h-61z" />
    <glyph glyph-name="r_t" horiz-adv-x="1408" 
d="M1098 -19q-102 0 -165.5 30.5t-93.5 93t-30 156.5v657h79v-649q0 -110 51.5 -163.5t176.5 -53.5q60 0 118.5 15t111.5 44l-9 -74q-46 -25 -109 -40.5t-130 -15.5zM152 0v973h78l-6 -297l7 -7v-669h-79zM225 610l-26 58l21 7q32 144 119 228t217 84q39 0 69 -6.5t51 -14.5
l6 -78q-26 11 -58.5 17t-72.5 6q-114 0 -200.5 -76t-125.5 -225zM809 886v65h525l-9 -65h-516zM809 939v286l81 17l-4 -303h-77z" />
    <glyph glyph-name="uni1E9E" unicode="&#x1e9e;" horiz-adv-x="1229" 
d="M243 0h-80v847q0 210 104.5 320.5t326.5 110.5h483v-64l-443 -535l-31 18q34 10 77.5 14.5t82.5 4.5q181 0 268.5 -83.5t87.5 -250.5v-48q0 -170 -92 -261.5t-279 -91.5q-104 0 -179 23t-116 46l-9 82q56 -33 131 -55.5t170 -22.5q147 0 219.5 73t72.5 210v44
q0 140 -72.5 206t-230.5 66q-41 0 -84 -3t-86 -11v65l429 524l11 -17h-403q-189 0 -273.5 -93.5t-84.5 -272.5v-845z" />
    <glyph glyph-name="dotlessi" unicode="&#x131;" horiz-adv-x="392" 
d="M156 0v973h80v-973h-80z" />
    <glyph glyph-name="zero.zero" horiz-adv-x="1086" 
d="M172 300l710 738l27 -61l-712 -739zM543 -20q-209 0 -314.5 122t-105.5 349v374q0 228 105.5 350.5t314.5 122.5t314.5 -122.5t105.5 -350.5v-374q0 -227 -105.5 -349t-314.5 -122zM543 51q170 0 253.5 103t83.5 294v381q0 192 -83.5 295t-253.5 103t-253.5 -103
t-83.5 -295v-381q0 -191 83.5 -294t253.5 -103z" />
    <glyph glyph-name="zero.tf" horiz-adv-x="1040" 
d="M528 -20q-209 0 -314.5 122t-105.5 349v374q0 228 105.5 350.5t314.5 122.5t314.5 -122.5t105.5 -350.5v-374q0 -227 -105.5 -349t-314.5 -122zM528 51q170 0 253.5 103t83.5 294v381q0 192 -83.5 295t-253.5 103t-253.5 -103t-83.5 -295v-381q0 -191 83.5 -294
t253.5 -103z" />
    <glyph glyph-name="one.tf" horiz-adv-x="1040" 
d="M527 0v1198h-13l-361 -232l2 83l355 229h98v-1278h-81zM118 0v72h825v-72h-825z" />
    <glyph glyph-name="two.tf" horiz-adv-x="1040" 
d="M142 0v86l335 338q98 99 169 181t109.5 162t38.5 171v12q0 88 -32 149.5t-97 93t-163 31.5q-107 0 -194.5 -34t-157.5 -82l9 79q38 26 89 51t117.5 42t147.5 17q181 0 272.5 -87.5t91.5 -253.5v-13q0 -104 -40.5 -191.5t-114.5 -174.5t-177 -191l-307 -308v-28l-34 22
h698v-72h-760z" />
    <glyph glyph-name="three.tf" horiz-adv-x="1040" 
d="M490 -19q-81 0 -151 14t-122.5 34.5t-84.5 38.5l-10 85q66 -40 160 -69.5t204 -29.5q115 0 188.5 33.5t108 95.5t34.5 148v38q0 85 -29.5 142t-96 86.5t-176.5 29.5l-225 2v65l231 3q107 1 169 32t89.5 86.5t27.5 128.5v23q0 83 -31.5 140.5t-99 87.5t-177.5 30
q-117 0 -210 -30.5t-160 -72.5l9 76q55 37 149 68t222 31q199 0 289.5 -85t90.5 -237v-23q0 -80 -28 -142.5t-90 -100.5t-164 -44l-4 -5l1 11q159 -11 228 -88.5t69 -211.5v-44q0 -160 -100 -253t-311 -93z" />
    <glyph glyph-name="four.tf" horiz-adv-x="1040" 
d="M717 0v955l3 262h-30l-527 -865v-48l-32 36h850v-70h-899v91l559 917h155v-1278h-79z" />
    <glyph glyph-name="five.tf" horiz-adv-x="1040" 
d="M533 -19q-125 0 -211.5 29t-134.5 59l-10 83q42 -26 95 -48t117 -36t139 -14q110 0 182 35.5t108 103.5t36 165v82q0 137 -68.5 215t-211.5 78q-111 0 -191.5 -45.5t-134.5 -132.5l-69 15v708h730v-70h-651v-372l-3 -218l-4 3q46 78 130.5 129.5t212.5 51.5
q171 0 256.5 -94.5t85.5 -263.5v-87q0 -117 -44.5 -201t-133.5 -129.5t-225 -45.5z" />
    <glyph glyph-name="six.tf" horiz-adv-x="1040" 
d="M549 -20q-134 0 -229.5 52t-145.5 155t-50 253v379q0 228 109.5 353t327.5 125q117 0 193 -27t128 -58l9 -78q-43 26 -89 46.5t-102 32t-130 11.5q-186 0 -275 -105t-89 -301v-384q0 -127 41 -212t118 -128t185 -43q158 0 234.5 85.5t76.5 219.5v80q0 93 -31.5 160.5
t-95.5 104t-164 36.5q-98 0 -172 -36.5t-123 -102t-74 -153.5l-19 66h17q20 82 68.5 148.5t129 106t192.5 39.5q175 0 264 -97t89 -270v-83q0 -167 -98.5 -271t-294.5 -104z" />
    <glyph glyph-name="seven.tf" horiz-adv-x="1040" 
d="M163 1278h76v-367h-76v367zM378 0l497 1208h-669v70h754v-70l-492 -1208h-90z" />
    <glyph glyph-name="eight.tf" horiz-adv-x="1040" 
d="M522 -24q-109 0 -190 23t-134 67t-79.5 108t-26.5 146v30q0 95 37.5 161.5t106 105t161.5 48.5v-2q-88 6 -152.5 41.5t-100 97.5t-35.5 148v29q0 154 102.5 237.5t310.5 83.5t311 -83.5t103 -237.5v-29q0 -86 -35.5 -148t-100 -97.5t-153.5 -41.5v2q94 -10 162.5 -48.5
t105.5 -105t37 -161.5v-30q0 -81 -26 -145t-79.5 -108.5t-134 -67.5t-190.5 -23zM522 47q174 0 260.5 72.5t86.5 203.5v33q0 128 -86 198.5t-262 74.5q-176 -5 -261 -75t-85 -198v-33q0 -131 87 -203.5t260 -72.5zM523 692q165 2 248 67t83 187v29q0 123 -82 189t-250 66
q-167 0 -249 -66t-82 -189v-29q0 -81 37 -137.5t111 -86t184 -30.5z" />
    <glyph glyph-name="nine.tf" horiz-adv-x="1040" 
d="M510 1297q207 0 312 -118t105 -342v-381q0 -229 -109.5 -352.5t-337.5 -123.5q-113 0 -188 24t-125 51l-10 82q64 -35 138 -59.5t179 -24.5q193 0 282.5 104t89.5 301v383q0 190 -84 288t-253 98q-160 0 -237.5 -86.5t-77.5 -220.5v-75q0 -141 72 -223.5t231 -82.5
q92 0 162.5 35t119 98.5t72.5 147.5l19 -65h-17q-19 -79 -67 -143.5t-125 -102.5t-183 -38q-185 0 -275 98.5t-90 271.5v79q0 168 99.5 272.5t297.5 104.5z" />
    <glyph glyph-name="zero.tf.zero" horiz-adv-x="1040" 
d="M157 300l710 738l27 -61l-712 -739zM528 -20q-209 0 -314.5 122t-105.5 349v374q0 228 105.5 350.5t314.5 122.5t314.5 -122.5t105.5 -350.5v-374q0 -227 -105.5 -349t-314.5 -122zM528 51q170 0 253.5 103t83.5 294v381q0 192 -83.5 295t-253.5 103t-253.5 -103
t-83.5 -295v-381q0 -191 83.5 -294t253.5 -103z" />
    <glyph glyph-name="zero.dnom" horiz-adv-x="693" 
d="M345 -13q-133 0 -201.5 76.5t-68.5 213.5v123q0 136 68.5 212.5t201.5 76.5q135 0 204 -76.5t69 -212.5v-123q0 -137 -69 -213.5t-204 -76.5zM346 43q103 0 154.5 61t51.5 171v127q0 111 -51.5 171t-154.5 60q-104 0 -154.5 -61t-50.5 -170v-127q0 -111 51 -171.5
t154 -60.5z" />
    <glyph glyph-name="one.dnom" horiz-adv-x="413" 
d="M246 0v615h-6l-202 -127l2 64l198 126h71v-678h-63z" />
    <glyph glyph-name="two.dnom" horiz-adv-x="587" 
d="M50 0v63l210 168q63 50 105 89.5t63.5 79t21.5 87.5v7q0 70 -43 104.5t-126 34.5q-62 0 -118.5 -18.5t-106.5 -48.5l6 59q38 24 98 44.5t127 20.5q111 0 170 -49.5t59 -142.5v-9q0 -56 -25.5 -103t-72.5 -92.5t-113 -97.5l-174 -136v-17l-27 13h426v-56h-480z" />
    <glyph glyph-name="three.dnom" horiz-adv-x="613" 
d="M287 -11q-79 0 -137 16.5t-89 31.5l-6 59q39 -19 99 -35.5t129 -16.5q106 0 151.5 39.5t45.5 100.5v11q0 32 -10 55.5t-32 39.5t-56.5 24t-82.5 9l-137 1v50l134 1q95 1 136.5 35t41.5 89v11q0 58 -43.5 91t-141.5 33q-75 0 -132 -17t-98 -39l7 57q34 20 92 37t138 17
q126 0 185 -45t59 -128v-12q0 -57 -37.5 -102t-127.5 -49l-5 -5l4 6q92 -7 132 -49.5t40 -112.5v-13q0 -52 -26 -95.5t-83 -69t-150 -25.5z" />
    <glyph glyph-name="four.dnom" horiz-adv-x="621" 
d="M430 0v482l2 149h-20l-308 -437v-29l-30 23h527v-53h-563v64l339 479h114v-678h-61z" />
    <glyph glyph-name="five.dnom" horiz-adv-x="642" 
d="M316 -11q-81 0 -137.5 17.5t-86.5 32.5l-7 60q39 -20 98 -37.5t131 -17.5q104 0 150 44.5t46 117.5v17q0 74 -39 114.5t-124 40.5q-69 0 -118.5 -25t-82.5 -68l-56 9v384h464v-55h-404v-178l-2 -116l-1 2q28 40 82.5 69t134.5 29q104 0 158 -53.5t54 -150.5v-21
q0 -63 -27 -111.5t-84 -76t-149 -27.5z" />
    <glyph glyph-name="six.dnom" horiz-adv-x="663" 
d="M350 -13q-138 0 -207.5 76t-69.5 211v135q0 125 70.5 202.5t210.5 77.5q72 0 121.5 -15t82.5 -31l8 -59q-40 21 -86.5 35t-115.5 14q-77 0 -127.5 -28.5t-74.5 -79t-24 -117.5v-140q0 -106 52 -165.5t161 -59.5q87 0 135.5 44t48.5 119v14q0 78 -43.5 117.5t-130.5 39.5
q-88 0 -142.5 -42t-84.5 -112l-14 43h13q14 42 45 79t81 60t118 23q108 0 165 -52t57 -153v-17q0 -101 -66 -160t-183 -59z" />
    <glyph glyph-name="seven.dnom" horiz-adv-x="566" 
d="M152 0l306 623h-416v55h484v-55l-302 -623h-72z" />
    <glyph glyph-name="eight.dnom" horiz-adv-x="683" 
d="M342 -15q-93 0 -153.5 22t-90 64t-29.5 101v12q0 50 20.5 85t58.5 55.5t88 27.5v1q-52 6 -87.5 27t-52.5 53t-17 71v9q0 85 65.5 131.5t197.5 46.5t197.5 -46t65.5 -132v-9q0 -68 -42.5 -105t-115.5 -46v-1q83 -10 125 -54.5t42 -113.5v-12q0 -58 -28.5 -100t-88.5 -64.5
t-155 -22.5zM342 39q104 0 155 36t51 102v12q0 66 -52 100.5t-155 36.5q-102 -2 -154 -37t-52 -100v-12q0 -66 51 -102t156 -36zM343 373q97 2 146.5 34t49.5 92v10q0 63 -49 96t-148 33q-102 0 -150 -34.5t-48 -94.5v-10q0 -60 49.5 -92t149.5 -34z" />
    <glyph glyph-name="nine.dnom" horiz-adv-x="664" 
d="M319 689q137 0 204 -75.5t67 -210.5v-138q0 -83 -32 -145.5t-95 -97t-159 -34.5q-71 0 -121 14t-84 29l-8 60q41 -19 88.5 -33.5t116.5 -14.5q119 0 174.5 62.5t55.5 160.5v145q0 105 -50 164t-157 59q-91 0 -141 -43.5t-50 -117.5v-14q0 -78 45.5 -118.5t135.5 -40.5
q87 0 139.5 40t79.5 109l17 -44h-15q-13 -41 -42.5 -77t-78 -58t-116.5 -22q-110 0 -169.5 53t-59.5 155v17q0 99 67.5 157.5t187.5 58.5z" />
    <glyph glyph-name="uni2080" unicode="&#x2080;" horiz-adv-x="693" 
d="M345 -213q-133 0 -201.5 76.5t-68.5 213.5v123q0 136 68.5 212.5t201.5 76.5q135 0 204 -76.5t69 -212.5v-123q0 -137 -69 -213.5t-204 -76.5zM346 -157q103 0 154.5 61t51.5 171v127q0 111 -51.5 171t-154.5 60q-104 0 -154.5 -61t-50.5 -170v-127q0 -111 51 -171.5
t154 -60.5z" />
    <glyph glyph-name="uni2081" unicode="&#x2081;" horiz-adv-x="413" 
d="M246 -200v615h-6l-202 -127l2 64l198 126h71v-678h-63z" />
    <glyph glyph-name="uni2082" unicode="&#x2082;" horiz-adv-x="587" 
d="M50 -200v63l210 168q63 50 105 89.5t63.5 79t21.5 87.5v7q0 70 -43 104.5t-126 34.5q-62 0 -118.5 -18.5t-106.5 -48.5l6 59q38 24 98 44.5t127 20.5q111 0 170 -49.5t59 -142.5v-9q0 -56 -25.5 -103t-72.5 -92.5t-113 -97.5l-174 -136v-17l-27 13h426v-56h-480z" />
    <glyph glyph-name="uni2083" unicode="&#x2083;" horiz-adv-x="613" 
d="M287 -211q-79 0 -137 16.5t-89 31.5l-6 59q39 -19 99 -35.5t129 -16.5q106 0 151.5 39.5t45.5 100.5v11q0 32 -10 55.5t-32 39.5t-56.5 24t-82.5 9l-137 1v50l134 1q95 1 136.5 35t41.5 89v11q0 58 -43.5 91t-141.5 33q-75 0 -132 -17t-98 -39l7 57q34 20 92 37t138 17
q126 0 185 -45t59 -128v-12q0 -57 -37.5 -102t-127.5 -49l-5 -5l4 6q92 -7 132 -49.5t40 -112.5v-13q0 -52 -26 -95.5t-83 -69t-150 -25.5z" />
    <glyph glyph-name="uni2084" unicode="&#x2084;" horiz-adv-x="621" 
d="M430 -200v482l2 149h-20l-308 -437v-29l-30 23h527v-53h-563v64l339 479h114v-678h-61z" />
    <glyph glyph-name="uni2085" unicode="&#x2085;" horiz-adv-x="642" 
d="M316 -211q-81 0 -137.5 17.5t-86.5 32.5l-7 60q39 -20 98 -37.5t131 -17.5q104 0 150 44.5t46 117.5v17q0 74 -39 114.5t-124 40.5q-69 0 -118.5 -25t-82.5 -68l-56 9v384h464v-55h-404v-178l-2 -116l-1 2q28 40 82.5 69t134.5 29q104 0 158 -53.5t54 -150.5v-21
q0 -63 -27 -111.5t-84 -76t-149 -27.5z" />
    <glyph glyph-name="uni2086" unicode="&#x2086;" horiz-adv-x="663" 
d="M350 -213q-138 0 -207.5 76t-69.5 211v135q0 125 70.5 202.5t210.5 77.5q72 0 121.5 -15t82.5 -31l8 -59q-40 21 -86.5 35t-115.5 14q-77 0 -127.5 -28.5t-74.5 -79t-24 -117.5v-140q0 -106 52 -165.5t161 -59.5q87 0 135.5 44t48.5 119v14q0 78 -43.5 117.5t-130.5 39.5
q-88 0 -142.5 -42t-84.5 -112l-14 43h13q14 42 45 79t81 60t118 23q108 0 165 -52t57 -153v-17q0 -101 -66 -160t-183 -59z" />
    <glyph glyph-name="uni2087" unicode="&#x2087;" horiz-adv-x="566" 
d="M152 -200l306 623h-416v55h484v-55l-302 -623h-72z" />
    <glyph glyph-name="uni2088" unicode="&#x2088;" horiz-adv-x="683" 
d="M342 -215q-93 0 -153.5 22t-90 64t-29.5 101v12q0 50 20.5 85t58.5 55.5t88 27.5v1q-52 6 -87.5 27t-52.5 53t-17 71v9q0 85 65.5 131.5t197.5 46.5t197.5 -46t65.5 -132v-9q0 -68 -42.5 -105t-115.5 -46v-1q83 -10 125 -54.5t42 -113.5v-12q0 -58 -28.5 -100
t-88.5 -64.5t-155 -22.5zM342 -161q104 0 155 36t51 102v12q0 66 -52 100.5t-155 36.5q-102 -2 -154 -37t-52 -100v-12q0 -66 51 -102t156 -36zM343 173q97 2 146.5 34t49.5 92v10q0 63 -49 96t-148 33q-102 0 -150 -34.5t-48 -94.5v-10q0 -60 49.5 -92t149.5 -34z" />
    <glyph glyph-name="uni2089" unicode="&#x2089;" horiz-adv-x="664" 
d="M319 489q137 0 204 -75.5t67 -210.5v-138q0 -83 -32 -145.5t-95 -97t-159 -34.5q-71 0 -121 14t-84 29l-8 60q41 -19 88.5 -33.5t116.5 -14.5q119 0 174.5 62.5t55.5 160.5v145q0 105 -50 164t-157 59q-91 0 -141 -43.5t-50 -117.5v-14q0 -78 45.5 -118.5t135.5 -40.5
q87 0 139.5 40t79.5 109l17 -44h-15q-13 -41 -42.5 -77t-78 -58t-116.5 -22q-110 0 -169.5 53t-59.5 155v17q0 99 67.5 157.5t187.5 58.5z" />
    <glyph glyph-name="zero.numr" horiz-adv-x="693" 
d="M345 587q-133 0 -201.5 76.5t-68.5 213.5v123q0 136 68.5 212.5t201.5 76.5q135 0 204 -76.5t69 -212.5v-123q0 -137 -69 -213.5t-204 -76.5zM346 643q103 0 154.5 61t51.5 171v127q0 111 -51.5 171t-154.5 60q-104 0 -154.5 -61t-50.5 -170v-127q0 -111 51 -171.5
t154 -60.5z" />
    <glyph glyph-name="one.numr" horiz-adv-x="413" 
d="M246 600v615h-6l-202 -127l2 64l198 126h71v-678h-63z" />
    <glyph glyph-name="two.numr" horiz-adv-x="587" 
d="M50 600v63l210 168q63 50 105 89.5t63.5 79t21.5 87.5v7q0 70 -43 104.5t-126 34.5q-62 0 -118.5 -18.5t-106.5 -48.5l6 59q38 24 98 44.5t127 20.5q111 0 170 -49.5t59 -142.5v-9q0 -56 -25.5 -103t-72.5 -92.5t-113 -97.5l-174 -136v-17l-27 13h426v-56h-480z" />
    <glyph glyph-name="three.numr" horiz-adv-x="613" 
d="M287 589q-79 0 -137 16.5t-89 31.5l-6 59q39 -19 99 -35.5t129 -16.5q106 0 151.5 39.5t45.5 100.5v11q0 32 -10 55.5t-32 39.5t-56.5 24t-82.5 9l-137 1v50l134 1q95 1 136.5 35t41.5 89v11q0 58 -43.5 91t-141.5 33q-75 0 -132 -17t-98 -39l7 57q34 20 92 37t138 17
q126 0 185 -45t59 -128v-12q0 -57 -37.5 -102t-127.5 -49l-5 -5l4 6q92 -7 132 -49.5t40 -112.5v-13q0 -52 -26 -95.5t-83 -69t-150 -25.5z" />
    <glyph glyph-name="four.numr" horiz-adv-x="621" 
d="M430 600v482l2 149h-20l-308 -437v-29l-30 23h527v-53h-563v64l339 479h114v-678h-61z" />
    <glyph glyph-name="five.numr" horiz-adv-x="642" 
d="M316 589q-81 0 -137.5 17.5t-86.5 32.5l-7 60q39 -20 98 -37.5t131 -17.5q104 0 150 44.5t46 117.5v17q0 74 -39 114.5t-124 40.5q-69 0 -118.5 -25t-82.5 -68l-56 9v384h464v-55h-404v-178l-2 -116l-1 2q28 40 82.5 69t134.5 29q104 0 158 -53.5t54 -150.5v-21
q0 -63 -27 -111.5t-84 -76t-149 -27.5z" />
    <glyph glyph-name="six.numr" horiz-adv-x="663" 
d="M350 587q-138 0 -207.5 76t-69.5 211v135q0 125 70.5 202.5t210.5 77.5q72 0 121.5 -15t82.5 -31l8 -59q-40 21 -86.5 35t-115.5 14q-77 0 -127.5 -28.5t-74.5 -79t-24 -117.5v-140q0 -106 52 -165.5t161 -59.5q87 0 135.5 44t48.5 119v14q0 78 -43.5 117.5t-130.5 39.5
q-88 0 -142.5 -42t-84.5 -112l-14 43h13q14 42 45 79t81 60t118 23q108 0 165 -52t57 -153v-17q0 -101 -66 -160t-183 -59z" />
    <glyph glyph-name="seven.numr" horiz-adv-x="566" 
d="M152 600l306 623h-416v55h484v-55l-302 -623h-72z" />
    <glyph glyph-name="eight.numr" horiz-adv-x="683" 
d="M342 585q-93 0 -153.5 22t-90 64t-29.5 101v12q0 50 20.5 85t58.5 55.5t88 27.5v1q-52 6 -87.5 27t-52.5 53t-17 71v9q0 85 65.5 131.5t197.5 46.5t197.5 -46t65.5 -132v-9q0 -68 -42.5 -105t-115.5 -46v-1q83 -10 125 -54.5t42 -113.5v-12q0 -58 -28.5 -100t-88.5 -64.5
t-155 -22.5zM342 639q104 0 155 36t51 102v12q0 66 -52 100.5t-155 36.5q-102 -2 -154 -37t-52 -100v-12q0 -66 51 -102t156 -36zM343 973q97 2 146.5 34t49.5 92v10q0 63 -49 96t-148 33q-102 0 -150 -34.5t-48 -94.5v-10q0 -60 49.5 -92t149.5 -34z" />
    <glyph glyph-name="nine.numr" horiz-adv-x="664" 
d="M319 1289q137 0 204 -75.5t67 -210.5v-138q0 -83 -32 -145.5t-95 -97t-159 -34.5q-71 0 -121 14t-84 29l-8 60q41 -19 88.5 -33.5t116.5 -14.5q119 0 174.5 62.5t55.5 160.5v145q0 105 -50 164t-157 59q-91 0 -141 -43.5t-50 -117.5v-14q0 -78 45.5 -118.5t135.5 -40.5
q87 0 139.5 40t79.5 109l17 -44h-15q-13 -41 -42.5 -77t-78 -58t-116.5 -22q-110 0 -169.5 53t-59.5 155v17q0 99 67.5 157.5t187.5 58.5z" />
    <glyph glyph-name="uni2070" unicode="&#x2070;" horiz-adv-x="693" 
d="M345 712q-133 0 -201.5 76.5t-68.5 213.5v123q0 136 68.5 212.5t201.5 76.5q135 0 204 -76.5t69 -212.5v-123q0 -137 -69 -213.5t-204 -76.5zM346 768q103 0 154.5 61t51.5 171v127q0 111 -51.5 171t-154.5 60q-104 0 -154.5 -61t-50.5 -170v-127q0 -111 51 -171.5
t154 -60.5z" />
    <glyph glyph-name="uni2074" unicode="&#x2074;" horiz-adv-x="621" 
d="M430 725v482l2 149h-20l-308 -437v-29l-30 23h527v-53h-563v64l339 479h114v-678h-61z" />
    <glyph glyph-name="uni2075" unicode="&#x2075;" horiz-adv-x="642" 
d="M316 714q-81 0 -137.5 17.5t-86.5 32.5l-7 60q39 -20 98 -37.5t131 -17.5q104 0 150 44.5t46 117.5v17q0 74 -39 114.5t-124 40.5q-69 0 -118.5 -25t-82.5 -68l-56 9v384h464v-55h-404v-178l-2 -116l-1 2q28 40 82.5 69t134.5 29q104 0 158 -53.5t54 -150.5v-21
q0 -63 -27 -111.5t-84 -76t-149 -27.5z" />
    <glyph glyph-name="uni2076" unicode="&#x2076;" horiz-adv-x="663" 
d="M350 712q-138 0 -207.5 76t-69.5 211v135q0 125 70.5 202.5t210.5 77.5q72 0 121.5 -15t82.5 -31l8 -59q-40 21 -86.5 35t-115.5 14q-77 0 -127.5 -28.5t-74.5 -79t-24 -117.5v-140q0 -106 52 -165.5t161 -59.5q87 0 135.5 44t48.5 119v14q0 78 -43.5 117.5t-130.5 39.5
q-88 0 -142.5 -42t-84.5 -112l-14 43h13q14 42 45 79t81 60t118 23q108 0 165 -52t57 -153v-17q0 -101 -66 -160t-183 -59z" />
    <glyph glyph-name="uni2077" unicode="&#x2077;" horiz-adv-x="566" 
d="M152 725l306 623h-416v55h484v-55l-302 -623h-72z" />
    <glyph glyph-name="uni2078" unicode="&#x2078;" horiz-adv-x="683" 
d="M342 710q-93 0 -153.5 22t-90 64t-29.5 101v12q0 50 20.5 85t58.5 55.5t88 27.5v1q-52 6 -87.5 27t-52.5 53t-17 71v9q0 85 65.5 131.5t197.5 46.5t197.5 -46t65.5 -132v-9q0 -68 -42.5 -105t-115.5 -46v-1q83 -10 125 -54.5t42 -113.5v-12q0 -58 -28.5 -100t-88.5 -64.5
t-155 -22.5zM342 764q104 0 155 36t51 102v12q0 66 -52 100.5t-155 36.5q-102 -2 -154 -37t-52 -100v-12q0 -66 51 -102t156 -36zM343 1098q97 2 146.5 34t49.5 92v10q0 63 -49 96t-148 33q-102 0 -150 -34.5t-48 -94.5v-10q0 -60 49.5 -92t149.5 -34z" />
    <glyph glyph-name="uni2079" unicode="&#x2079;" horiz-adv-x="664" 
d="M319 1414q137 0 204 -75.5t67 -210.5v-138q0 -83 -32 -145.5t-95 -97t-159 -34.5q-71 0 -121 14t-84 29l-8 60q41 -19 88.5 -33.5t116.5 -14.5q119 0 174.5 62.5t55.5 160.5v145q0 105 -50 164t-157 59q-91 0 -141 -43.5t-50 -117.5v-14q0 -78 45.5 -118.5t135.5 -40.5
q87 0 139.5 40t79.5 109l17 -44h-15q-13 -41 -42.5 -77t-78 -58t-116.5 -22q-110 0 -169.5 53t-59.5 155v17q0 99 67.5 157.5t187.5 58.5z" />
    <glyph glyph-name="uni2007" unicode="&#x2007;" horiz-adv-x="1086" 
 />
    <glyph glyph-name="uni200A" unicode="&#x200a;" horiz-adv-x="295" 
 />
    <glyph glyph-name="uni2008" unicode="&#x2008;" horiz-adv-x="333" 
 />
    <glyph glyph-name="uni00A0" unicode="&#xa0;" horiz-adv-x="564" 
 />
    <glyph glyph-name="uni2009" unicode="&#x2009;" horiz-adv-x="409" 
 />
    <glyph glyph-name="uni200B" unicode="&#x200b;" horiz-adv-x="9" 
 />
    <glyph glyph-name="question_alt" horiz-adv-x="881" 
d="M282 315v286l108 7q164 18 233.5 89t69.5 196v84q0 122 -64 185.5t-218 63.5q-106 0 -193 -32t-151 -74l10 74q34 24 84 47t116.5 39t144.5 16q185 0 268 -80.5t83 -230.5v-89q0 -102 -36 -173.5t-115 -114t-209 -57.5l-102 -8l44 34v-262h-73zM318 -15q-31 0 -46.5 19.5
t-15.5 54.5v10q0 36 15.5 54t46.5 18q32 0 47.5 -18t15.5 -54v-10q0 -35 -15.5 -54.5t-47.5 -19.5z" />
    <glyph glyph-name="uni00AD" unicode="&#xad;" horiz-adv-x="852" 
d="M144 497v68h565v-68h-565z" />
    <glyph glyph-name="guillemotleft" unicode="&#xab;" horiz-adv-x="969" 
d="M581 486l316 -388h-84l-303 368v39l303 367h84zM167 486l316 -388h-84l-303 368v39l303 367h84z" />
    <glyph glyph-name="guillemotright" unicode="&#xbb;" horiz-adv-x="969" 
d="M388 486l-316 386h85l302 -367v-39l-302 -368h-85zM802 486l-317 386h85l303 -367v-39l-303 -368h-85z" />
    <glyph glyph-name="Euro" unicode="&#x20ac;" horiz-adv-x="1067" 
d="M660 -20q-230 0 -344.5 126.5t-114.5 356.5v354q0 231 114 356t337 125q104 0 182 -26.5t122 -54.5l8 -78q-53 35 -129.5 61t-175.5 26q-187 0 -281 -107t-94 -303v-352q0 -196 96 -303t289 -107q100 0 174.5 25.5t127.5 62.5l-8 -80q-43 -29 -120 -55.5t-183 -26.5z
M37 455l9 63h823l-8 -63h-824zM37 775l9 63h823l-8 -63h-824z" />
    <glyph glyph-name="uni20B9" unicode="&#x20b9;" horiz-adv-x="1010" 
d="M933 1278h-836l7 -62h837zM725 4l-288 341q-26 30 -51.5 59t-54.5 59t-62 62l9 18l-168 19v-62l103 -6l416 -494h96v4zM510 1235q65 -53 97 -128.5t32 -177.5v-47q0 -163 -86.5 -241.5t-270.5 -78.5h-172l89 -62h99q211 2 314.5 94t103.5 286v47q0 103 -32.5 181
t-89.5 127h-84zM933 929h-836l7 -61h837z" />
    <glyph glyph-name="uni2219" unicode="&#x2219;" horiz-adv-x="333" 
d="M166 431q-32 0 -47.5 19t-15.5 55v10q0 36 15.5 54.5t47.5 18.5t48 -18.5t16 -54.5v-10q0 -36 -16 -55t-48 -19z" />
    <glyph glyph-name="uni2215" unicode="&#x2215;" horiz-adv-x="788" 
d="M58 -234l594 1571h78l-594 -1571h-78z" />
    <glyph glyph-name="uni00B5" unicode="&#xb5;" horiz-adv-x="1047" 
d="M896 973v-973h-80l5 247l-5 4v722h80zM231 353q0 -71 18 -127t53.5 -96t89 -61t125.5 -21q85 0 149 36t104.5 99t52.5 143l22 -66h-19q-10 -77 -49.5 -140.5t-106 -101.5t-157.5 -38t-150 29.5t-92.5 77.5t-48.5 102v0l8 -291v-242h-78v1317h79v-620z" />
    <glyph glyph-name="uni0308" unicode="&#x308;" 
d="M162 1166q-29 0 -43.5 17.5t-14.5 50.5v7q0 32 14.5 49t43.5 17q30 0 44 -17t14 -49v-7q0 -33 -14 -50.5t-44 -17.5zM442 1166q-29 0 -43.5 17.5t-14.5 50.5v7q0 32 14.5 49t43.5 17t43 -17t14 -49v-7q0 -33 -14 -50.5t-43 -17.5z" />
    <glyph glyph-name="uni0307" unicode="&#x307;" 
d="M165 1166q-30 0 -45.5 17.5t-15.5 51.5v6q0 32 15.5 49.5t45.5 17.5q31 0 46 -17.5t15 -49.5v-6q0 -34 -15 -51.5t-46 -17.5z" />
    <glyph glyph-name="gravecomb" unicode="&#x300;" 
d="M198 1362l206 -254v-2h-74l-224 254v2h92z" />
    <glyph glyph-name="acutecomb" unicode="&#x301;" 
d="M307 1362h93v-2l-224 -254h-75v2z" />
    <glyph glyph-name="uni0302" unicode="&#x302;" 
d="M303 1362h93l199 -254v-2h-69l-173 204h-7l-173 -204h-69v2z" />
    <glyph glyph-name="uni030A" unicode="&#x30a;" 
d="M108 1251v3q0 70 43.5 111t121.5 41q77 0 120 -41t43 -111v-3q0 -69 -43 -110t-120 -41q-78 0 -121.5 41t-43.5 110zM163 1251q0 -49 28.5 -76t81.5 -27q52 0 80.5 27t28.5 76v3q0 49 -28.5 76.5t-80.5 27.5q-53 0 -81.5 -27.5t-28.5 -76.5v-3z" />
    <glyph glyph-name="tildecomb" unicode="&#x303;" 
d="M484 1142q-37 0 -70 15.5t-64.5 36t-60.5 36t-58 15.5q-34 0 -49 -21t-15 -67v-25h-55v31q0 70 27 106.5t88 36.5q36 0 69 -15.5t64 -36t61 -36t58 -15.5q34 0 48.5 21.5t14.5 67.5v23h57v-30q0 -71 -27.5 -107t-87.5 -36z" />
    <glyph glyph-name="uni0304" unicode="&#x304;" 
d="M120 1195v59h503v-59h-503z" />
    <glyph glyph-name="uni0327" unicode="&#x327;" 
d="M307 7l-18 -141l-38 29q9 0 24 -0.5t27 -1.5q100 -6 146 -38.5t46 -98.5v-4q0 -65 -48.5 -98.5t-139.5 -33.5q-40 0 -77.5 7.5t-63.5 15.5l-12 59q31 -12 68 -19t78 -7q66 0 98.5 20t32.5 59v3q0 48 -37.5 67.5t-127.5 26.5q-9 1 -18 1.5t-18 0.5l18 153h60z" />
    <glyph glyph-name="uni0308.case" 
d="M162 1462q-29 0 -43.5 17.5t-14.5 50.5v7q0 32 14.5 49t43.5 17q30 0 44 -17t14 -49v-7q0 -33 -14 -50.5t-44 -17.5zM442 1462q-29 0 -43.5 17.5t-14.5 50.5v7q0 32 14.5 49t43.5 17t43 -17t14 -49v-7q0 -33 -14 -50.5t-43 -17.5z" />
    <glyph glyph-name="gravecomb.case" 
d="M211 1648l253 -235v-1h-82l-269 234v2h98z" />
    <glyph glyph-name="acutecomb.case" 
d="M353 1648h98v-2l-269 -234h-82v1z" />
    <glyph glyph-name="uni0302.case" 
d="M338 1648h90l234 -234v-2h-75l-201 185h-6l-201 -185h-75v2z" />
    <glyph glyph-name="uni030A.case" 
d="M108 1529v3q0 70 43.5 111t121.5 41q77 0 120 -41t43 -111v-3q0 -69 -43 -110t-120 -41q-78 0 -121.5 41t-43.5 110zM163 1529q0 -49 28.5 -76t81.5 -27q52 0 80.5 27t28.5 76v3q0 49 -28.5 76.5t-80.5 27.5q-53 0 -81.5 -27.5t-28.5 -76.5v-3z" />
    <glyph glyph-name="tildecomb.case" 
d="M504 1439q-41 0 -77 15t-70 34.5t-66.5 34.5t-64.5 15q-36 0 -50.5 -21t-14.5 -62v-25h-57v31q0 62 26 100t91 38q41 0 77 -15t69.5 -34.5t66.5 -34.5t65 -15q36 0 50.5 21.5t14.5 62.5v24h56v-32q0 -60 -25.5 -98.5t-90.5 -38.5z" />
    <glyph glyph-name="uni0304.case" 
d="M120 1494v59h503v-59h-503z" />
    <glyph glyph-name="uni0327.case" 
d="M307 6l-18 -141l-38 29q9 0 24 -0.5t27 -1.5q100 -6 146 -38.5t46 -98.5v-4q0 -65 -48.5 -98.5t-139.5 -33.5q-40 0 -77.5 7.5t-63.5 15.5l-12 59q31 -12 68 -19t78 -7q66 0 98.5 20t32.5 59v3q0 48 -37.5 67.5t-127.5 26.5q-9 1 -18 1.5t-18 0.5l18 153h60z" />
    <glyph glyph-name="uni0308.narrow" 
d="M189 1166q-28 0 -42 17t-14 51v7q0 32 14 49t42 17t42.5 -17t14.5 -49v-7q0 -34 -14.5 -51t-42.5 -17zM416 1166q-29 0 -43 17t-14 51v7q0 32 14 49t43 17q28 0 42 -17t14 -49v-7q0 -34 -14 -51t-42 -17z" />
    <glyph glyph-name="gravecomb.narrow" 
d="M275 1362l123 -255v-1h-67l-140 256v0h84z" />
    <glyph glyph-name="acutecomb.narrow" 
d="M230 1362h84v0l-140 -256h-67v1z" />
    <glyph glyph-name="uni0302.narrow" 
d="M305 1362h89l160 -255v-1h-66l-136 204h-6l-135 -204h-66v1z" />
    <glyph glyph-name="VowelA.tm" unicode="&#xb85;" horiz-adv-x="2066" 
d="M990 1171q174 0 282 -59.5t158.5 -173t50.5 -276.5v-97q0 -203 -68 -343t-215 -212t-385 -72h-2q-225 0 -386 68t-246.5 203t-85.5 337v11q0 27 0.5 51.5t1.5 42.5h434l1 -59h-362q-1 -14 -1 -27v-27v-7q0 -174 76 -291.5t220 -177.5t347 -60h2q212 0 343.5 63.5t192 189
t60.5 309.5v98q0 143 -41.5 243t-133.5 152t-244 52q-135 0 -228 -46.5t-142 -132.5t-52 -205h3v-158q0 -126 54.5 -193t165.5 -67q102 0 149.5 61t47.5 173v79q0 106 -46 161.5t-142 55.5q-62 0 -111 -27t-82 -73t-45 -105l-2 93h9q25 72 88.5 123t160.5 51
q120 0 180.5 -71.5t60.5 -204.5v-83q0 -137 -65 -216t-201 -79q-147 0 -219.5 86t-72.5 242v128q0 151 57.5 255.5t167 159.5t265.5 55zM1009 651l425 -1v-60l-425 1v60zM1436 651h375v-62h-375v62zM1795 1135h76v-1175h-76v1175z" />
    <glyph glyph-name="VowelAa.tm" unicode="&#xb86;" horiz-adv-x="2467" 
d="M2119 603q141 0 202 -94t61 -273v-111q0 -158 -43.5 -262t-140 -155t-254.5 -51q-109 0 -206 27t-169 68l-16 76q82 -46 181 -75t204 -29q135 0 215.5 43.5t116.5 132.5t36 225v104q0 147 -46 226t-161 79q-92 0 -153 -62.5t-83 -174.5h-7v109h17q22 82 84 139.5
t162 57.5zM990 1171q174 0 282 -59.5t158.5 -173t50.5 -276.5v-97q0 -203 -68 -343t-215 -212t-385 -72h-2q-225 0 -386 68t-246.5 203t-85.5 337v11q0 27 0.5 51.5t1.5 42.5h434l1 -59h-362q-1 -14 -1 -27v-27v-7q0 -174 76 -291.5t220 -177.5t347 -60h2q212 0 343.5 63.5
t192 189t60.5 309.5v98q0 143 -41.5 243t-133.5 152t-244 52q-135 0 -228 -46.5t-142 -132.5t-52 -205h3v-158q0 -126 54.5 -193t165.5 -67q102 0 149.5 61t47.5 173v79q0 106 -46 161.5t-142 55.5q-62 0 -111 -27t-82 -73t-45 -105l-2 93h9q25 72 88.5 123t160.5 51
q120 0 180.5 -71.5t60.5 -204.5v-83q0 -137 -65 -216t-201 -79q-147 0 -219.5 86t-72.5 242v128q0 151 57.5 255.5t167 159.5t265.5 55zM1009 651l425 -1v-60l-425 1v60zM1436 651h375v-62h-375v62zM1795 1135h76v-1175h-76v1175z" />
    <glyph glyph-name="VowelI.tm" unicode="&#xb87;" horiz-adv-x="2115" 
d="M1037 1144q172 0 278 -57t154.5 -164.5t48.5 -263.5v-32q0 -205 -56.5 -348t-177.5 -223l-14 -12q-74 -49 -177.5 -75.5t-237.5 -26.5q-224 0 -382.5 60.5t-241.5 187.5t-83 324v20q0 26 0.5 56.5t1.5 57.5h435l-1 -61h-361q-1 -22 -1 -40.5v-36.5v-11q0 -167 74 -276.5
t215 -162.5t343 -53q210 0 339.5 70.5t189.5 208.5t60 341v31q0 139 -40 233.5t-129.5 143.5t-238.5 49q-135 0 -226 -45.5t-136.5 -127.5t-47.5 -193h3v-155q0 -126 53.5 -192.5t164.5 -66.5q102 0 149.5 58t47.5 167v90q0 102 -46 155t-142 53q-61 0 -110 -25.5t-82 -70
t-45 -101.5l-2 88h11q23 70 86 120t160 50q119 0 179 -69t60 -198v-91q0 -135 -64.5 -211t-200.5 -76q-146 0 -217 85t-71 241v129q0 141 54 241t161 152.5t263 52.5zM1969 648q2 -35 3.5 -74t1.5 -73v-83q0 -163 -42.5 -268.5t-133 -156.5t-234.5 -51q-98 0 -187 26
t-146 77l45 42q54 -41 128 -60.5t154 -19.5q182 0 262 98.5t80 307.5v74q0 24 -0.5 50t-1.5 50h-825v61h896zM1043 1524q271 0 453 -71.5t273.5 -207t91.5 -328.5q0 -43 -2 -92t-8 -95h-74q5 45 7 92.5t2 90.5q0 172 -82 294t-246.5 186t-414.5 64q-249 0 -418 -64
t-255 -184t-86 -291v-12q0 -53 10 -103.5t31 -92.5l-79 17q-17 37 -27 85.5t-10 97.5v16q0 189 95 322.5t281 204.5t458 71z" />
    <glyph glyph-name="VowelIi.tm" unicode="&#xb88;" horiz-adv-x="1321" 
d="M846 0v1106h75v-1106h-75zM558 491q-33 0 -48.5 21t-15.5 64v30q0 41 16.5 61t47.5 20q32 0 48.5 -20t16.5 -61v-30q0 -43 -15 -64t-50 -21zM1183 491q-33 0 -49 21t-16 64v30q0 41 16.5 61t48.5 20q33 0 48.5 -20t15.5 -61v-30q0 -43 -15 -64t-49 -21zM948 1135v-65
h-677v-1070h-76v1135h753zM895 1070v65h292l12 -65h-304z" />
    <glyph glyph-name="VowelU.tm" unicode="&#xb89;" horiz-adv-x="1678" 
d="M648 1178q249 0 362.5 -111.5t113.5 -318.5v-39q0 -136 -40 -228t-137.5 -142.5t-269.5 -64.5l-350 -28q-67 -5 -94.5 -28.5t-27.5 -70.5q0 -23 5 -45t13 -41h1448l-13 -61h-1487q-13 31 -24 71t-11 79q0 69 39 107.5t130 45.5l361 30q151 13 234.5 56.5t116.5 123
t33 197.5v40q0 176 -94.5 271t-309.5 95q-207 0 -311 -87.5t-105 -244.5h4v-82q0 -98 51 -156t156 -58q101 0 146 52.5t45 146.5v13q0 92 -44 138t-134 46q-58 0 -106 -24t-80.5 -66t-43.5 -97l-2 87h10q24 68 87 113t155 45q110 0 168.5 -60t58.5 -177v-15q0 -82 -27 -140
t-84.5 -89t-148.5 -31q-93 0 -155.5 34t-93.5 98t-31 153v59q0 194 124.5 299t362.5 105z" />
    <glyph glyph-name="VowelUu.tm" unicode="&#xb8a;" horiz-adv-x="3075" 
d="M905 0v60h2147l-13 -60h-2134zM2733 1117h71v-894h-71v894zM1841 1156q98 0 168 -23.5t116.5 -65t73 -96t37.5 -116.5h3l-4 281h805l11 -61h-760v-852h-71v426q0 217 -84.5 332t-291.5 115q-195 0 -292 -106.5t-97 -306.5v-10.5v-10.5h2v-147q0 -119 54.5 -186t168.5 -67
q103 0 152.5 60t49.5 167v67q0 212 -193 212q-62 0 -112 -25.5t-83 -69t-46 -97.5l-1 88h10q24 67 89 115t161 48q122 0 183 -69t61 -199v-68q0 -132 -66 -208.5t-204 -76.5q-99 0 -164 38.5t-96 111.5t-31 174v151q0 233 115 354t336 121zM648 1178q249 0 362.5 -111.5
t113.5 -318.5v-39q0 -136 -40 -228t-137.5 -142.5t-269.5 -64.5l-350 -28q-67 -5 -94.5 -28.5t-27.5 -70.5q0 -23 5 -45t13 -41h1448l-13 -61h-1487q-13 31 -24 71t-11 79q0 69 39 107.5t130 45.5l361 30q151 13 234.5 56.5t116.5 123t33 197.5v40q0 176 -94.5 271
t-309.5 95q-207 0 -311 -87.5t-105 -244.5h4v-82q0 -98 51 -156t156 -58q101 0 146 52.5t45 146.5v13q0 92 -44 138t-134 46q-58 0 -106 -24t-80.5 -66t-43.5 -97l-2 87h10q24 68 87 113t155 45q110 0 168.5 -60t58.5 -177v-15q0 -82 -27 -140t-84.5 -89t-148.5 -31
q-93 0 -155.5 34t-93.5 98t-31 153v59q0 194 124.5 299t362.5 105z" />
    <glyph glyph-name="VowelE.tm" unicode="&#xb8e;" horiz-adv-x="1425" 
d="M784 1070v65h637l12 -65h-649zM1102 1104h76v-1104h-76v1104zM983 1135v-65h-200q-287 0 -421.5 -124t-134.5 -373v-17.5v-17.5h3v-190q0 -142 60 -223.5t187 -81.5q115 0 169.5 69.5t54.5 194.5v110q0 120 -52.5 183t-162.5 63q-69 0 -124.5 -29t-91.5 -79.5t-50 -113.5
l-1 97h10q25 80 97.5 136.5t182.5 56.5q133 0 199.5 -79.5t66.5 -228.5v-114q0 -102 -32 -176t-97.5 -114t-167.5 -40q-111 0 -182.5 46.5t-106.5 133.5t-35 207v204q0 186 67.5 311.5t206.5 189.5t352 64h203z" />
    <glyph glyph-name="VowelEe.tm" unicode="&#xb8f;" horiz-adv-x="1442" 
d="M1119 1110h75v-1338l-644 -90v64l569 85v1279zM795 1070v65h643l11 -65h-654zM983 1135v-65h-200q-287 0 -421.5 -124t-134.5 -373v-17.5v-17.5h3v-190q0 -142 60 -223.5t187 -81.5q115 0 169.5 69.5t54.5 194.5v110q0 120 -52.5 183t-162.5 63q-69 0 -124.5 -29
t-91.5 -79.5t-50 -113.5l-1 97h10q25 80 97.5 136.5t182.5 56.5q133 0 199.5 -79.5t66.5 -228.5v-114q0 -102 -32 -176t-97.5 -114t-167.5 -40q-111 0 -182.5 46.5t-106.5 133.5t-35 207v204q0 186 67.5 311.5t206.5 189.5t352 64h203z" />
    <glyph glyph-name="VowelAi.tm" unicode="&#xb90;" horiz-adv-x="1811" 
d="M620 1169q134 0 223.5 -39.5t139 -114t61.5 -180.5h3q7 155 80.5 240.5t219.5 85.5q166 0 237.5 -97t71.5 -274v-126q0 -103 -21 -182t-72.5 -133.5t-139 -86t-219.5 -40.5l-592 -41q-133 -9 -211.5 -43.5t-112 -95t-33.5 -147.5v-3q0 -138 79 -214t248 -76q105 0 180 34
t114.5 112t39.5 209v114h75v-124q0 -126 35.5 -201.5t102.5 -109t160 -33.5q145 0 206.5 82.5t61.5 233.5q0 58 -5 116t-17 116l74 -9q12 -53 16.5 -109.5t4.5 -114.5q0 -122 -34 -207t-107.5 -129.5t-191.5 -44.5q-167 0 -252 85t-90 244h-3q-6 -160 -101 -245t-276 -85
q-201 0 -298 93.5t-97 261.5v3q0 110 42.5 184t135 115t245.5 51l588 42q151 11 236.5 55t120 123.5t34.5 197.5v128q0 144 -55.5 224.5t-188.5 80.5q-77 0 -133 -32.5t-87 -104t-31 -189.5v-353h-73v271q0 137 -38.5 230t-124.5 140t-228 47q-195 0 -297.5 -93.5
t-104.5 -259.5h4v-98q0 -116 53 -182.5t169 -66.5q108 0 157 59.5t49 164.5v33q0 94 -47.5 146.5t-144.5 52.5q-62 0 -113 -25.5t-85.5 -70t-47.5 -101.5l-2 90h10q24 71 90.5 120t166.5 49q122 0 183 -68t61 -192v-34q0 -136 -67 -210.5t-210 -74.5q-151 0 -223.5 85
t-72.5 234v74q0 205 119.5 319t349.5 114z" />
    <glyph glyph-name="VowelO.tm" unicode="&#xb92;" horiz-adv-x="1726" 
d="M869 1215q253 0 408.5 -76.5t227 -212.5t71.5 -315v-91q0 -93 -21 -163t-64.5 -114t-113.5 -58q-22 -7 -47 -12t-51 -5q-107 0 -173.5 42t-97.5 121.5t-31 192.5q0 68 4 129t9 122h72q-6 -64 -8.5 -123.5t-2.5 -126.5q0 -150 54.5 -227t176.5 -77q115 0 167 74t52 216v97
q0 163 -62 284.5t-201 189t-370 67.5q-322 0 -490 -134.5t-175 -383.5h2v-161q0 -134 60.5 -210.5t181.5 -76.5q109 0 161.5 66.5t52.5 185.5v79q0 112 -50.5 172.5t-155.5 60.5q-66 0 -120 -27.5t-89.5 -74t-49.5 -106.5l-1 95h10q26 75 96 127t175 52q129 0 194 -75.5
t65 -219.5v-81q0 -97 -31 -168.5t-94 -109.5t-162 -38q-106 0 -176.5 44t-105.5 126.5t-35 197.5v118q0 195 85 330.5t249.5 206.5t403.5 71zM1599 203l-12 -63h-199q-81 0 -107.5 -41t-30.5 -112l-3 -81q-5 -131 -43.5 -216t-114 -127t-191.5 -42q-177 0 -270.5 98
t-93.5 297q0 19 0.5 36.5t1.5 31.5l75 11q-1 -14 -2 -36.5t-1 -41.5q0 -171 74.5 -251.5t214.5 -80.5q137 0 202.5 77.5t72.5 247.5l4 81q6 78 31 119t79 56v5l71 32h242z" />
    <glyph glyph-name="VowelOo.tm" unicode="&#xb93;" horiz-adv-x="1726" 
d="M1599 203l-12 -63h-185q-81 0 -107 -41.5t-30 -112.5l-4 -74q-7 -139 -51 -230.5t-129 -135.5t-217 -44q-211 0 -316 85t-105 241v6q0 112 66 177t177 65q114 0 173.5 -59.5t59.5 -181.5v-20q0 -78 -21 -145.5t-59 -106.5v-15l-56 3q28 43 47 110.5t19 144.5v20
q0 97 -41 143t-123 46t-128 -48t-46 -135v-4q0 -121 77 -188.5t225 -75.5l26 1v-3q9 -1 15.5 -1h11.5q159 0 237.5 85t85.5 271l3 72q4 80 30 121t79 56v6l68 31h230zM869 1215q253 0 408.5 -76.5t227 -212.5t71.5 -315v-91q0 -93 -21 -163t-64.5 -114t-113.5 -58
q-22 -7 -47 -12t-51 -5q-107 0 -173.5 42t-97.5 121.5t-31 192.5q0 68 4 129t9 122h72q-6 -64 -8.5 -123.5t-2.5 -126.5q0 -150 54.5 -227t176.5 -77q115 0 167 74t52 216v97q0 163 -62 284.5t-201 189t-370 67.5q-322 0 -490 -134.5t-175 -383.5h2v-134q0 -133 60.5 -209.5
t181.5 -76.5q109 0 161.5 66t52.5 185v52q0 112 -50.5 172.5t-155.5 60.5q-66 0 -120 -27.5t-89.5 -74t-49.5 -106.5l-1 95h9q27 75 97.5 127t174.5 52q129 0 194 -75.5t65 -219.5v-53q0 -98 -31 -169t-94 -109t-162 -38q-106 0 -176.5 44.5t-105.5 127t-35 197.5v89
q0 195 85 330.5t249.5 206.5t403.5 71z" />
    <glyph glyph-name="VowelAu.tm" unicode="&#xb94;" horiz-adv-x="3737" 
d="M869 1215q253 0 408.5 -76.5t227 -212.5t71.5 -315v-91q0 -93 -21 -163t-64.5 -114t-113.5 -58q-22 -7 -47 -12t-51 -5q-107 0 -173.5 42t-97.5 121.5t-31 192.5q0 68 4 129t9 122h72q-6 -64 -8.5 -123.5t-2.5 -126.5q0 -150 54.5 -227t176.5 -77q115 0 167 74t52 216v97
q0 163 -62 284.5t-201 189t-370 67.5q-322 0 -490 -134.5t-175 -383.5h2v-161q0 -134 60.5 -210.5t181.5 -76.5q109 0 161.5 66.5t52.5 185.5v79q0 112 -50.5 172.5t-155.5 60.5q-66 0 -120 -27.5t-89.5 -74t-49.5 -106.5l-1 95h10q26 75 96 127t175 52q129 0 194 -75.5
t65 -219.5v-81q0 -97 -31 -168.5t-94 -109.5t-162 -38q-106 0 -176.5 44t-105.5 126.5t-35 197.5v118q0 195 85 330.5t249.5 206.5t403.5 71zM1599 203l-12 -63h-199q-81 0 -107.5 -41t-30.5 -112l-3 -81q-5 -131 -43.5 -216t-114 -127t-191.5 -42q-177 0 -270.5 98
t-93.5 297q0 19 0.5 36.5t1.5 31.5l75 11q-1 -14 -2 -36.5t-1 -41.5q0 -171 74.5 -251.5t214.5 -80.5q137 0 202.5 77.5t72.5 247.5l4 81q6 78 31 119t79 56v5l71 32h242zM3414 1111h76v-1111h-76v1111zM2403 1156q114 0 193.5 -28t131.5 -78t80.5 -115.5t37.5 -139.5h3
l-3 340h632v-65h-574v-1070h-75v571q0 254 -95 385.5t-327 131.5q-224 0 -336 -124.5t-113 -364.5v-30.5v-30.5h3v-190q0 -142 60 -223.5t187 -81.5q115 0 169.5 69.5t54.5 194.5v110q0 120 -52.5 183t-162.5 63q-70 0 -125 -29t-90.5 -79.5t-49.5 -113.5l-2 97h10
q25 80 97.5 136.5t181.5 56.5q134 0 200.5 -79.5t66.5 -228.5v-114q0 -102 -32 -176t-97.5 -114t-167.5 -40q-111 0 -182.5 46.5t-106.5 133.5t-35 207v230q0 182 58.5 307t174 189t285.5 64zM3441 1070v65h292l12 -65h-304z" />
    <glyph glyph-name="Ka.tm" unicode="&#xb95;" horiz-adv-x="1553" 
d="M900 603v63h223q161 0 236 -68t75 -224v-74q0 -100 -31 -172t-100 -111t-184 -39q-88 0 -154 17.5t-106 39.5l-18 72l3 8q53 -32 116 -51t149 -19q92 0 146.5 31.5t78.5 89.5t24 136v68q0 127 -57.5 180t-185.5 53h-215zM886 665v-61h-481l-168 -31q-4 -27 -6 -63.5
t-3 -73.5t-1 -69q0 -160 82 -240.5t244 -80.5q153 0 222.5 79t69.5 248v261l2 11v463h71v-463v-11v-261q0 -132 -38 -219.5t-118.5 -131t-207.5 -43.5q-201 0 -301 100t-100 289q0 39 1.5 84t5 89.5t9.5 78.5l195 39l52 6h470zM1026 1135v-63h-138l-18 3h-442l-2 -435
l-70 -8v503h670zM954 1072v63h276l12 -63h-288z" />
    <glyph glyph-name="Nga.tm" unicode="&#xb99;" horiz-adv-x="2011" 
d="M781 1107h75v-1107h-75v1107zM1137 741q134 0 198.5 -79.5t64.5 -230.5v-49q0 -130 -29 -208.5t-81 -135.5l-19 26h505v-64h-578v9q68 69 97.5 149t29.5 208v48q0 124 -50.5 190.5t-160.5 66.5q-97 0 -163.5 -57t-97.5 -159h-4v80h9q17 58 54.5 104.5t94 74t130.5 27.5z
M1740 1135h76v-1135h-76v1135zM1124 1135v-65h-853v-1070h-76v1135h929zM1036 1070v65h293l11 -65h-304z" />
    <glyph glyph-name="Ca.tm" unicode="&#xb9a;" horiz-adv-x="1331" 
d="M896 605v64h399l12 -64h-411zM886 665v-61h-481l-168 -31q-4 -27 -6 -63.5t-3 -73.5t-1 -69q0 -160 82 -240.5t244 -80.5q153 0 222.5 79t69.5 248v261l2 11v463h71v-463v-11v-261q0 -132 -38 -219.5t-118.5 -131t-207.5 -43.5q-201 0 -301 100t-100 289q0 39 1.5 84
t5 89.5t9.5 78.5l195 39l52 6h470zM1026 1135v-63h-138l-18 3h-442l-2 -435l-70 -8v503h670zM919 1072v63h276l11 -63h-287z" />
    <glyph glyph-name="Ja.tm" unicode="&#xb9c;" horiz-adv-x="1814" 
d="M620 1169q134 0 223.5 -39.5t139 -114t61.5 -180.5h3q7 155 80.5 240.5t219.5 85.5q166 0 237.5 -97t71.5 -273v-101q0 -99 -23 -174.5t-75.5 -128.5t-141 -86.5t-220.5 -48.5l-583 -68q-133 -15 -211 -51t-111.5 -96.5t-33.5 -150.5v-9q0 -117 58 -181.5t178 -64.5
q75 0 130.5 25.5t104.5 69.5t104 99l130 131q66 65 127.5 111t130 70.5t150.5 24.5q99 0 161 -33t92 -94.5t30 -149.5v-17q0 -148 -76 -225t-234 -77q-67 0 -131.5 13.5t-122.5 36.5l-17 72q64 -28 129 -42t130 -14q129 0 188 59t59 177v16q0 99 -50 156t-160 57
q-103 0 -182 -46t-165 -132l-132 -134q-62 -62 -117.5 -112t-121 -78.5t-159.5 -28.5q-151 0 -229.5 81.5t-78.5 225.5v12q0 111 41.5 185t133.5 117t242 60l583 68q154 18 240.5 62.5t122.5 121t36 190.5v102q0 144 -55.5 224t-188.5 80q-77 0 -133 -32.5t-87 -104
t-31 -189.5v-353h-73v271q0 137 -38.5 230t-124.5 140t-228 47q-195 0 -297.5 -93.5t-104.5 -259.5h4v-98q0 -116 53 -182.5t169 -66.5q108 0 157 59.5t49 164.5v33q0 94 -47.5 146.5t-144.5 52.5q-62 0 -113 -25.5t-85.5 -70t-47.5 -101.5l-2 90h10q25 71 91 120t166 49
q122 0 183 -68t61 -192v-34q0 -136 -67 -210.5t-210 -74.5q-151 0 -223.5 85t-72.5 234v74q0 205 119.5 319t349.5 114z" />
    <glyph glyph-name="Nya.tm" unicode="&#xb9e;" horiz-adv-x="2404" 
d="M1620 1108h76v-1108h-76v1108zM1982 740q155 0 222.5 -100t67.5 -292v-34q0 -278 -105 -461t-323.5 -274t-555.5 -91h-3q-368 0 -614.5 110.5t-370.5 338t-124 580.5q0 125 8 235.5t23.5 206.5t36.5 176h78q-24 -89 -39 -184.5t-22.5 -201.5t-7.5 -229q0 -334 114.5 -547
t343.5 -315t574 -102h3q312 0 513 82t297.5 250t96.5 427v27q0 160 -52.5 244t-182.5 84q-107 0 -176.5 -65t-94.5 -182h-9v108h17q25 91 96.5 150t188.5 59zM1858 1135v-65h-523v65h523zM1507 1135v-65h-200q-287 0 -421.5 -124t-134.5 -373v-17.5v-17.5h2v-190
q0 -142 60 -223.5t188 -81.5q115 0 169.5 69.5t54.5 194.5v110q0 120 -52.5 183t-162.5 63q-70 0 -125 -29t-91 -79.5t-50 -113.5l-1 97h10q25 80 97.5 136.5t181.5 56.5q134 0 200.5 -79.5t66.5 -228.5v-114q0 -102 -32 -176t-97.5 -114t-167.5 -40q-111 0 -183 46.5
t-106.5 133.5t-34.5 207v204q0 186 67.5 311.5t206.5 189.5t352 64h203zM1806 1070v65h293l11 -65h-304z" />
    <glyph glyph-name="Tta.tm" unicode="&#xb9f;" horiz-adv-x="1427" 
d="M271 1135v-1069h1149l-13 -66h-1212v1135h76z" />
    <glyph glyph-name="Nna.tm" unicode="&#xba3;" horiz-adv-x="3201" 
d="M1780 1162q167 0 287.5 -25t198.5 -65l1 -2q99 -47 158 -126t85.5 -184.5t26.5 -231.5v-146q0 -123 -32.5 -214t-101 -140t-177.5 -49q-111 0 -181.5 49.5t-103.5 140t-33 213.5v146q0 127 27.5 233t91 185.5t171.5 124.5l47 -39q-99 -44 -156.5 -117.5t-80.5 -171
t-23 -214.5v-145q0 -105 24.5 -181t78 -116t138.5 -40q84 0 135.5 40t75 116t23.5 181v145q0 118 -22.5 215.5t-78 170.5t-155.5 117l-8 5q-44 16 -105 30t-139 22.5t-172 8.5q-142 0 -249.5 -18.5t-176.5 -48.5l-49 44q83 41 200 64t275 23zM2877 1084l76 -1v-1083h-76
v1084zM2931 1135v-64h-415q-89 0 -152.5 -7t-113.5 -22l19 66q38 11 98.5 19t150.5 8h413zM903 1162q164 0 282.5 -24t194.5 -63l1 -3q98 -46 157.5 -125.5t85.5 -185.5t26 -233v-146q0 -123 -32.5 -214t-100.5 -140t-178 -49q-111 0 -181 49.5t-103 140t-33 213.5v146
q0 128 27.5 234.5t91.5 186.5t170 126l48 -40q-99 -44 -156 -117.5t-80.5 -172t-23.5 -216.5v-145q0 -105 24.5 -181t78 -116t137.5 -40t135.5 40t75.5 116t24 181v145q0 119 -22.5 217t-78 171.5t-154.5 117.5l-10 5q-62 24 -162.5 40t-242.5 16q-332 0 -504 -138
t-173 -408v-8.5v-8.5h3v-185q0 -142 59.5 -223.5t187.5 -81.5q115 0 169.5 69.5t54.5 194.5v110q0 120 -52.5 183t-162.5 63q-70 0 -125 -29t-90.5 -79.5t-49.5 -113.5l-2 97h10q25 80 97.5 136.5t181.5 56.5q134 0 200.5 -79.5t66.5 -228.5v-114q0 -102 -32 -176
t-97.5 -114t-167.5 -40q-111 0 -183 46.5t-106.5 133.5t-34.5 207v179q0 203 86 340t253 207t410 70zM2904 1070v65h292l12 -65h-304z" />
    <glyph glyph-name="Ta.tm" unicode="&#xba4;" horiz-adv-x="1554" 
d="M899 603v63h81q238 0 343 -93.5t105 -311.5v-54q0 -199 -59 -317t-195 -169.5t-365 -51.5h-349l-12 65h356q206 0 325.5 44.5t171 148t51.5 279.5v53q0 190 -87.5 267t-292.5 77h-73zM522 -266v-65h-157q-105 0 -172.5 -12.5t-113.5 -35t-91 -55.5l8 81q36 26 80 45.5
t111.5 30.5t173.5 11h161zM888 665v-61h-480l-169 -31q-3 -27 -5.5 -63.5t-3 -73.5t-0.5 -69q0 -160 81.5 -240.5t244.5 -80.5q153 0 222 79t69 248v261l3 11v463h70v-463v-11v-261q0 -132 -38 -219.5t-118 -131t-208 -43.5q-200 0 -300.5 100t-100.5 289q0 39 2 84
t5.5 89.5t8.5 78.5l196 39l51 6h470zM1028 1135v-63h-137l-19 3h-441l-2 -435l-71 -8v503h670zM961 1072v63h276l12 -63h-288z" />
    <glyph glyph-name="Na.tm" unicode="&#xba8;" horiz-adv-x="1562" 
d="M769 1108h75v-1108h-75v1108zM1130 740q157 0 227 -100.5t70 -295.5v-85q0 -217 -64 -346.5t-213 -186.5t-405 -57h-329l-14 65h338q172 0 290 26.5t188 86.5t100.5 161t30.5 251v77q0 165 -54 249.5t-187 84.5q-105 0 -174.5 -65.5t-96.5 -181.5h-8v108h18
q24 90 96 149.5t187 59.5zM1005 1135v-65h-734v-1070h-76v1135h810zM505 -266v-65h-157q-105 0 -172.5 -12.5t-113.5 -35t-91 -55.5l8 81q36 26 80 45.5t111.5 30.5t173.5 11h161zM962 1070v65h292l12 -65h-304z" />
    <glyph glyph-name="Nnna.tm" unicode="&#xba9;" horiz-adv-x="2314" 
d="M1991 1084l76 -1v-1083h-76v1084zM2044 1135v-64h-415q-88 0 -151 -6.5t-114 -20.5l17 66q38 10 99.5 17.5t151.5 7.5h412zM902 1162q165 0 283 -24.5t194 -64.5l1 -2q99 -46 158.5 -125t85.5 -184.5t26 -233.5v-146q0 -123 -32.5 -214t-100.5 -140t-178 -49
q-111 0 -181 49.5t-103 140t-33 213.5v146q0 128 27.5 234.5t91.5 185.5t170 125l46 -40q-98 -42 -154.5 -115.5t-80 -171.5t-23.5 -217v-145q0 -105 24.5 -181t78 -116t137.5 -40t135.5 40t75.5 116t24 181v145q0 119 -22.5 217t-78 171.5t-155.5 115.5l-9 5
q-63 24 -163.5 41t-242.5 17q-331 0 -503 -138t-173 -408v-8.5v-8.5h3v-185q0 -142 59.5 -223.5t187.5 -81.5q115 0 169.5 69.5t54.5 194.5v110q0 120 -52.5 183t-162.5 63q-70 0 -125 -29t-90.5 -79.5t-49.5 -113.5l-2 97h10q25 80 97.5 136.5t181.5 56.5
q134 0 200.5 -79.5t66.5 -228.5v-114q0 -102 -32 -176t-97.5 -114t-167.5 -40q-111 0 -183 46.5t-106.5 133.5t-34.5 207v179q0 203 86 340t252.5 207t409.5 70zM2017 1070v65h293l11 -65h-304z" />
    <glyph glyph-name="Pa.tm" unicode="&#xbaa;" horiz-adv-x="1437" 
d="M1165 1135h77v-1135h-550v67h473v1068zM272 1135v-1068h678v-67h-755v1135h77z" />
    <glyph glyph-name="Ma.tm" unicode="&#xbae;" horiz-adv-x="1628" 
d="M195 1135h76v-1070h691q167 0 258 42t127 137.5t36 254.5v202q0 125 -34.5 206.5t-117 122.5t-225.5 41h-141v-1045h-75v1109h215q166 0 265.5 -47.5t144.5 -144t45 -242.5v-201q0 -181 -46 -291t-155 -159.5t-299 -49.5h-765v1135z" />
    <glyph glyph-name="Ya.tm" unicode="&#xbaf;" horiz-adv-x="1918" 
d="M1646 1135h77v-1135h-486v67h409v1068zM1389 0h-634l4 238h-4q-14 -117 -81 -187.5t-200 -70.5q-137 0 -210.5 86.5t-73.5 265.5v803h76v-801q0 -148 56.5 -217t163.5 -69q130 0 190 86.5t60 266.5v734h77v-1068h576v-67z" />
    <glyph glyph-name="Ra.tm" unicode="&#xbb0;" horiz-adv-x="1111" 
d="M863 1106v-1301l-714 -98v65l639 91v1243h75zM849 1135v-65h-578v-1070h-76v1135h654zM814 1070v65h292l12 -65h-304z" />
    <glyph glyph-name="Rra.tm" unicode="&#xbb1;" horiz-adv-x="1588" 
d="M500 1156q139 0 205.5 -75t77.5 -214h3q12 138 93.5 213.5t226.5 75.5q158 0 232 -85.5t74 -235.5v-20q0 -132 -64.5 -205.5t-183.5 -82.5v-3q83 -3 146 -37.5t98 -106.5t35 -189v-30q0 -178 -55 -286.5t-186 -157t-359 -48.5h-444l-14 65h450q204 0 319.5 41t163.5 136
t48 255v27q0 160 -74.5 229t-216.5 70l-83 2v62l87 1q138 3 198.5 69.5t60.5 182.5v19q0 122 -56.5 191t-187.5 69q-84 0 -146 -32.5t-95.5 -104.5t-33.5 -191v-760h-76v783q0 158 -55.5 231.5t-181.5 73.5q-117 0 -180 -73.5t-63 -231.5v-783h-76v782q0 191 81.5 282.5
t231.5 91.5zM497 -266v-65h-156q-106 0 -173 -12.5t-113.5 -35t-91.5 -55.5l9 81q36 26 79.5 45.5t111 30.5t174.5 11h160z" />
    <glyph glyph-name="La.tm" unicode="&#xbb2;" horiz-adv-x="1895" 
d="M670 1156q168 0 271.5 -63t151 -185t47.5 -297v-215q0 -177 62 -263t196 -86t193 93t59 272v277q0 125 -27 214.5t-94 137t-188 47.5q-27 0 -52 -2.5t-48 -6.5l15 69q20 3 45 5.5t50 2.5q143 0 224.5 -55.5t116.5 -159.5t35 -251v-277q0 -142 -34.5 -238t-107 -145.5
t-187.5 -49.5q-171 0 -253 104t-82 308v216q0 155 -38.5 262t-125 162.5t-230.5 55.5q-220 0 -328 -127.5t-109 -375.5v-23v-24h3v-190q0 -142 60 -223.5t187 -81.5q115 0 169.5 69.5t54.5 194.5v110q0 120 -52.5 183t-162.5 63q-70 0 -125 -29t-90.5 -79.5t-49.5 -113.5
l-2 97h10q25 80 97.5 136.5t181.5 56.5q134 0 200.5 -79.5t66.5 -228.5v-114q0 -102 -32 -176t-97.5 -114t-167.5 -40q-111 0 -182.5 46.5t-106.5 133.5t-35 207v216q0 188 57 315.5t171 193t283 65.5z" />
    <glyph glyph-name="Lla.tm" unicode="&#xbb3;" horiz-adv-x="2012" 
d="M1688 1111h76v-1111h-76v1111zM677 1156q114 0 193.5 -28t131.5 -78t80.5 -115.5t37.5 -139.5h3l-3 340h632v-65h-574v-1070h-75v571q0 254 -95 385.5t-327 131.5q-224 0 -336 -124.5t-113 -364.5v-30.5v-30.5h3v-190q0 -142 60 -223.5t187 -81.5q115 0 169.5 69.5
t54.5 194.5v110q0 120 -52.5 183t-162.5 63q-70 0 -125 -29t-90.5 -79.5t-49.5 -113.5l-2 97h10q25 80 97.5 136.5t181.5 56.5q134 0 200.5 -79.5t66.5 -228.5v-114q0 -102 -32 -176t-97.5 -114t-167.5 -40q-111 0 -182.5 46.5t-106.5 133.5t-35 207v230q0 182 58.5 307
t174 189t285.5 64zM1715 1070v65h292l12 -65h-304z" />
    <glyph glyph-name="Llla.tm" unicode="&#xbb4;" horiz-adv-x="1628" 
d="M728 -602q-164 0 -253.5 83.5t-89.5 249.5q0 34 3 62t6 47h74q-3 -20 -5.5 -49t-2.5 -61q0 -136 68.5 -202.5t199.5 -66.5q83 0 134 27.5t83.5 76t60.5 109.5l5 15q9 19 19 30t25 12v3q-99 3 -156.5 27.5t-83 77.5t-25.5 140v50h75v-46q0 -72 20 -116t71.5 -64.5
t146.5 -20.5h172l-14 -62h-119q-26 0 -36.5 -10.5t-19.5 -32.5l-8 -19q-34 -80 -75 -138.5t-106 -90t-169 -31.5zM195 1135h76v-1070h691q167 0 258 42t127 137.5t36 254.5v202q0 125 -34.5 206.5t-117 122.5t-225.5 41h-141v-1045h-75v1109h215q166 0 265.5 -47.5
t144.5 -144t45 -242.5v-201q0 -181 -46 -291t-155 -159.5t-299 -49.5h-765v1135z" />
    <glyph glyph-name="Va.tm" unicode="&#xbb5;" horiz-adv-x="1881" 
d="M1610 1135h75v-1135h-472l-2 65h399v1070zM699 1157q179 0 289.5 -64t162 -183t51.5 -287v-107q0 -113 -16 -201t-46.5 -157.5t-74.5 -128.5l-4 36h412v-65h-491v9q49 67 80.5 140t47 161t15.5 200v108q0 149 -43 253.5t-137 161t-249 56.5q-231 0 -347 -128.5
t-117 -376.5v-22.5v-23.5h2v-190q0 -142 60 -223.5t188 -81.5q115 0 169.5 69.5t54.5 194.5v110q0 120 -52.5 183t-162.5 63q-70 0 -125 -29t-91 -79.5t-50 -113.5l-1 97h10q25 79 97.5 134.5t183.5 55.5q132 0 198.5 -78.5t66.5 -226.5v-114q0 -102 -32 -176t-97.5 -114
t-167.5 -40q-111 0 -183 46.5t-106.5 133.5t-34.5 207v215q0 188 61 316t181.5 194t297.5 66z" />
    <glyph glyph-name="Sha.tm" unicode="&#xbb6;" horiz-adv-x="2066" 
d="M190 1135h76v-764q0 -169 63.5 -246.5t190.5 -77.5t189.5 77.5t62.5 246.5v764h76v-767q0 -131 -34.5 -217t-107 -129t-186.5 -43t-187.5 43t-108 129.5t-34.5 217.5v766zM1229 1135h76v-764q0 -169 62 -246.5t186 -77.5q125 0 186 77.5t61 246.5v764h76v-767
q0 -131 -34 -217t-105.5 -129t-183.5 -43t-184 43t-106 129.5t-34 217.5v766zM802 1135h1046v-65h-1046v65z" />
    <glyph glyph-name="Ssa.tm" unicode="&#xbb7;" horiz-adv-x="2465" 
d="M699 1157q179 0 289.5 -64t162 -183t51.5 -287v-107q0 -113 -16 -201t-46.5 -157.5t-74.5 -128.5l-4 36h412v-65h-491v9q49 67 80.5 140t47 161t15.5 200v108q0 149 -43 253.5t-137 161t-249 56.5q-231 0 -347 -128.5t-117 -376.5v-22.5v-23.5h2v-190q0 -142 60 -223.5
t188 -81.5q115 0 169.5 69.5t54.5 194.5v110q0 120 -52.5 183t-162.5 63q-70 0 -125 -29t-91 -79.5t-50 -113.5l-1 97h10q25 79 97.5 134.5t183.5 55.5q132 0 198.5 -78.5t66.5 -226.5v-114q0 -102 -32 -176t-97.5 -114t-167.5 -40q-111 0 -183 46.5t-106.5 133.5t-34.5 207
v215q0 188 61 316t181.5 194t297.5 66zM1210 65h661l30 -13l28 13h506l-13 -65h-1212v65zM1901 1156q180 0 268.5 -110t88.5 -307v-208q0 -187 -73 -313.5t-255 -194.5l-49 25q115 45 180.5 111.5t92.5 156.5t27 204v215q0 168 -68.5 260.5t-211.5 92.5q-144 0 -212.5 -92.5
t-68.5 -260.5v-215q0 -114 27 -204t92.5 -156.5t179.5 -111.5l-49 -25q-182 68 -254.5 194.5t-72.5 313.5v208q0 197 88.5 307t269.5 110zM1943 -511q-162 0 -236 65t-74 186v5q0 107 59 171t158 100l23 9l54 -17l-30 -13q-93 -40 -140.5 -94t-47.5 -146v-4q0 -90 55.5 -143
t188.5 -53q40 0 75 3t71.5 9t78.5 14l-16 -69q-50 -11 -104 -17t-115 -6z" />
    <glyph glyph-name="Sa.tm" unicode="&#xbb8;" horiz-adv-x="2470" 
d="M674 1156q145 0 239.5 -49.5t144.5 -138.5t61 -208h3v42q0 182 75.5 268t218.5 86q147 0 218.5 -91t71.5 -285v-371q0 -187 62 -274.5t201 -87.5q137 0 196.5 94t59.5 275v286q-4 122 -31.5 208t-93.5 132t-187 46q-26 0 -48 -2t-43 -5l14 68q20 3 42 5t47 2
q141 0 222 -54t116 -155t39 -244v-286q0 -214 -80 -325.5t-253 -111.5q-177 0 -258 105t-81 321v370q0 167 -53.5 239.5t-169.5 72.5q-113 0 -175.5 -71.5t-62.5 -238.5v-778h-76v567q0 166 -38 282.5t-129 177.5t-248 61q-223 0 -334 -127.5t-112 -373.5v-24v-25h3v-190
q0 -142 60 -223.5t187 -81.5q115 0 169.5 69.5t54.5 194.5v110q0 120 -52.5 183t-162.5 63q-70 0 -125 -29t-90.5 -79.5t-49.5 -113.5l-2 97h10q25 80 97.5 136.5t181.5 56.5q134 0 200.5 -79.5t66.5 -228.5v-114q0 -102 -32 -176t-97.5 -114t-167.5 -40q-111 0 -182.5 46.5
t-106.5 133.5t-35 207v218q0 187 58 314t173 192.5t284 65.5z" />
    <glyph glyph-name="Ha.tm" unicode="&#xbb9;" horiz-adv-x="2965" 
d="M1275 65h334v-65h-334v65zM1651 -266v-65h-1207l-15 65h1222zM698 1157q178 0 289 -64t162.5 -183t51.5 -287v-107q0 -113 -16 -201t-46.5 -157.5t-74.5 -128.5l-4 36h411v-65h-490v9q49 67 80.5 140t47 161t15.5 200v108q0 149 -43 253.5t-137 161t-249 56.5
q-232 0 -348 -128.5t-116 -376.5v-22.5v-23.5h2v-190q0 -142 60 -223.5t188 -81.5q115 0 169.5 69.5t54.5 194.5v110q0 120 -52.5 183t-162.5 63q-70 0 -125 -29t-91 -79.5t-50 -113.5l-1 97h10q25 79 97.5 134.5t183.5 55.5q132 0 198.5 -78.5t66.5 -226.5v-114
q0 -102 -32 -176t-98 -114t-167 -40q-111 0 -183 46.5t-106.5 133.5t-34.5 207v215q0 188 61 316t181 194t298 66zM550 -266v-65h-157q-105 0 -172 -12.5t-113.5 -35t-91.5 -55.5l9 81q35 26 79 45.5t111.5 30.5t173.5 11h161zM1877 1156q139 0 205.5 -75t77.5 -214h3
q12 138 93.5 213.5t225.5 75.5q159 0 233 -85.5t74 -235.5v-20q0 -132 -64.5 -205.5t-183.5 -82.5v-3q82 -3 145 -37.5t98.5 -106.5t35.5 -189v-30q0 -178 -55 -286.5t-186 -157t-360 -48.5h-757l-14 65h764q204 0 319.5 41t163.5 136t48 255v27q0 160 -74.5 229t-216.5 70
l-83 2v62l87 1q138 3 198.5 69.5t60.5 182.5v19q0 81 -25 139.5t-78.5 89.5t-140.5 31q-84 0 -146.5 -32.5t-95.5 -104.5t-33 -191v-760h-76v783q0 158 -55.5 231.5t-181.5 73.5q-117 0 -180 -73.5t-63 -231.5v-783h-76v782q0 191 81.5 282.5t231.5 91.5z" />
    <glyph glyph-name="Kssa.tm" horiz-adv-x="3118" 
d="M885 603v63h157q153 0 215 -58t69 -179h3v19q0 161 80 248t221 87q143 0 211.5 -80.5t68.5 -231.5v-91q0 -128 -33 -206.5t-82 -135.5l-13 27h486v-65h-561v9q62 70 95 149t33 208v90q0 124 -52.5 192.5t-166.5 68.5q-73 0 -129.5 -33.5t-88 -102.5t-31.5 -178v-403h-75
v342q0 95 -24 152t-80 83t-151 26h-152zM886 665v-61h-481l-168 -31q-4 -27 -6 -63.5t-3 -73.5t-1 -69q0 -160 82 -240.5t244 -80.5q153 0 222.5 79t69.5 248v261l2 11v463h71v-463v-11v-261q0 -132 -38 -219.5t-118.5 -131t-207.5 -43.5q-201 0 -301 100t-100 289
q0 39 1.5 84t5 89.5t9.5 78.5l195 39l52 6h470zM1026 1135v-63h-138l-18 3h-442l-2 -435l-70 -8v503h670zM1863 65h662l29 -13l28 13h506l-12 -65h-1213v65zM2554 1156q181 0 269.5 -110t88.5 -307v-208q0 -187 -73.5 -313.5t-255.5 -194.5l-49 25q115 45 180.5 111.5
t92.5 156.5t27 204v215q0 168 -68.5 260.5t-211.5 92.5q-144 0 -212.5 -92.5t-68.5 -260.5v-215q0 -114 27 -204t92.5 -156.5t179.5 -111.5l-48 -25q-182 68 -255 194.5t-73 313.5v208q0 197 89 307t269 110zM2596 -511q-161 0 -235 65t-74 186v5q0 107 58.5 171t157.5 100
l23 9l54 -17l-30 -13q-93 -40 -140.5 -94t-47.5 -146v-4q0 -90 56 -143t188 -53q41 0 76 3t71 9t78 14l-15 -69q-50 -11 -104 -17t-116 -6zM963 1072v63h276l12 -63h-288z" />
    <glyph glyph-name="TtaPulli.tm" horiz-adv-x="1427" 
d="M271 1135v-1069h1149l-13 -66h-1212v1135h76zM774 1335q-37 0 -54 21t-17 59v23q0 39 18 58t53 19q36 0 53.5 -19t17.5 -58v-23q0 -38 -16.5 -59t-54.5 -21z" />
    <glyph glyph-name="RaPulli_Alt.tm" horiz-adv-x="1104" 
d="M781 1106h75v-1106h-75v1106zM842 1135v-65h-571v-1070h-76v1135h647zM807 1070v65h292l12 -65h-304zM525 1335q-37 0 -54 21t-17 59v23q0 39 18 58t53 19q36 0 53.5 -19t17.5 -58v-23q0 -38 -16.5 -59t-54.5 -21z" />
    <glyph glyph-name="KaMatraI.tm" horiz-adv-x="1603" 
d="M900 603v63h223q161 0 236 -68t75 -224v-74q0 -100 -31 -172t-100 -111t-184 -39q-88 0 -154 17.5t-106 39.5l-18 72l3 7q53 -32 116 -50.5t149 -18.5q92 0 146.5 31.5t78.5 89.5t24 136v68q0 127 -57.5 180t-185.5 53h-215zM1123 1710q117 0 191 -43.5t109 -131
t35 -222.5v-576h-74v574q0 171 -60.5 251t-201.5 80q-132 0 -197.5 -73t-65.5 -218v-6q0 -69 15.5 -121.5t41.5 -91.5h-74q-24 35 -41 93t-17 126v8q0 167 85.5 259t253.5 92zM886 665v-61h-481l-168 -31q-4 -27 -6 -63.5t-3 -73.5t-1 -69q0 -160 82 -240.5t244 -80.5
q153 0 222.5 79t69.5 248v261l2 11v463h71v-463v-11v-261q0 -132 -38 -219.5t-118.5 -131t-207.5 -43.5q-201 0 -301 100t-100 289q0 39 1.5 84t5 89.5t9.5 78.5l195 39l52 6h470zM1026 1135v-63h-138l-18 3h-442l-2 -435l-70 -8v503h670zM934 1072v63h276l12 -63h-288z" />
    <glyph glyph-name="NgaMatraI.tm" horiz-adv-x="2540" 
d="M781 1107h75v-1107h-75v1107zM1137 767q134 0 198.5 -79.5t64.5 -230.5v-75q0 -130 -29 -208.5t-81 -135.5l-19 26h531v-64h-604v9q68 69 97.5 149t29.5 208v73q0 125 -50.5 191.5t-160.5 66.5q-97 0 -163.5 -57.5t-97.5 -159.5h-4v81h9q17 58 54.5 104.5t94 74
t130.5 27.5zM1777 1135h75v-1135h-75v1135zM1865 1710q166 0 271.5 -59t157 -176t51.5 -290v-1185h-76v1184q0 154 -41.5 255.5t-130 152t-232.5 50.5q-131 0 -221 -49t-136.5 -142t-46.5 -223v-33q0 -166 80.5 -260t241.5 -112v-67q-126 12 -215 64.5t-136 147t-47 228.5
v33q0 151 55.5 258.5t162.5 165t262 57.5zM1124 1135v-65h-853v-1070h-76v1135h929zM925 1070v65h292l12 -65h-304z" />
    <glyph glyph-name="CaMatraI.tm" horiz-adv-x="1684" 
d="M898 605v64h365l12 -64h-377zM1138 1710q123 0 200.5 -43.5t114 -131t36.5 -222.5v-1313h-76v1311q0 171 -63 251t-213 80q-139 0 -208 -75t-69 -220v-4q0 -72 15 -122t42 -89h-74q-25 35 -41.5 90.5t-16.5 126.5v6q0 168 89 261.5t264 93.5zM886 665v-61h-481l-168 -31
q-4 -27 -6 -63.5t-3 -73.5t-1 -69q0 -160 82 -240.5t244 -80.5q153 0 222.5 79t69.5 248v261l2 11v463h71v-463v-11v-261q0 -132 -38 -219.5t-118.5 -131t-207.5 -43.5q-201 0 -301 100t-100 289q0 39 1.5 84t5 89.5t9.5 78.5l195 39l52 6h470zM1026 1135v-63h-138l-18 3
h-442l-2 -435l-70 -8v503h670zM890 1072v63h277l11 -63h-288z" />
    <glyph glyph-name="JaMatraI.tm" horiz-adv-x="2276" 
d="M1694 1710q134 0 219.5 -47.5t126.5 -143t41 -240.5v-1279h-76v1276q0 187 -72.5 276.5t-239.5 89.5q-156 0 -235 -81.5t-79 -230.5v-3q0 -61 11.5 -106t31.5 -79h-75q-19 32 -31 81.5t-12 109.5v5q0 115 44.5 198t131 128.5t214.5 45.5zM620 1169q134 0 223.5 -39.5
t139 -114t61.5 -180.5h3q7 155 80.5 240.5t219.5 85.5q166 0 237.5 -97t71.5 -273v-101q0 -99 -23 -174.5t-75.5 -128.5t-141 -86.5t-220.5 -48.5l-583 -68q-133 -15 -211 -51t-111.5 -96.5t-33.5 -150.5v-9q0 -117 58 -181.5t178 -64.5q75 0 130.5 25.5t104.5 69.5t104 99
l130 131q66 65 127.5 111t130 70.5t150.5 24.5q99 0 161 -33t92 -94.5t30 -149.5v-17q0 -148 -76 -225t-234 -77q-67 0 -131.5 13.5t-122.5 36.5l-17 72q64 -28 129 -42t130 -14q129 0 188 59t59 177v16q0 99 -50 156t-160 57q-103 0 -182 -46t-165 -132l-132 -134
q-62 -62 -117.5 -112t-121 -78.5t-159.5 -28.5q-151 0 -229.5 81.5t-78.5 225.5v12q0 111 41.5 185t133.5 117t242 60l583 68q154 18 240.5 62.5t122.5 121t36 190.5v102q0 144 -55.5 224t-188.5 80q-77 0 -133 -32.5t-87 -104t-31 -189.5v-353h-73v271q0 137 -38.5 230
t-124.5 140t-228 47q-195 0 -297.5 -93.5t-104.5 -259.5h4v-98q0 -116 53 -182.5t169 -66.5q108 0 157 59.5t49 164.5v33q0 94 -47.5 146.5t-144.5 52.5q-62 0 -113 -25.5t-85.5 -70t-47.5 -101.5l-2 90h10q25 71 91 120t166 49q122 0 183 -68t61 -192v-34
q0 -136 -67 -210.5t-210 -74.5q-151 0 -223.5 85t-72.5 234v74q0 205 119.5 319t349.5 114z" />
    <glyph glyph-name="NyaMatraI.tm" horiz-adv-x="2433" 
d="M1620 1108h76v-1108h-76v1108zM1982 740q155 0 222.5 -100t67.5 -292v-34q0 -278 -105 -461t-323.5 -274t-555.5 -91h-3q-368 0 -614.5 110.5t-370.5 338t-124 580.5q0 125 8 235.5t23.5 206.5t36.5 176h78q-24 -89 -39 -184.5t-22.5 -201.5t-7.5 -229q0 -334 114.5 -547
t343.5 -315t574 -102h3q312 0 513 82t297.5 250t96.5 427v27q0 160 -52.5 244t-182.5 84q-107 0 -176.5 -65t-94.5 -182h-9v108h17q25 91 96.5 150t188.5 59zM1858 1135v-65h-523v65h523zM1907 1710q118 0 193 -43.5t111 -132.5t36 -224v-491h-75v489q0 173 -61.5 253.5
t-204.5 80.5q-136 0 -202.5 -74.5t-66.5 -220.5v-2q0 -69 15 -121.5t41 -91.5h-74q-23 35 -40 93t-17 126v5q0 169 87.5 261.5t257.5 92.5zM1507 1135v-65h-200q-287 0 -421.5 -124t-134.5 -373v-17.5v-17.5h2v-190q0 -142 60 -223.5t188 -81.5q115 0 169.5 69.5t54.5 194.5
v110q0 120 -52.5 183t-162.5 63q-70 0 -125 -29t-91 -79.5t-50 -113.5l-1 97h10q25 80 97.5 136.5t181.5 56.5q134 0 200.5 -79.5t66.5 -228.5v-114q0 -102 -32 -176t-97.5 -114t-167.5 -40q-111 0 -183 46.5t-106.5 133.5t-34.5 207v204q0 186 67.5 311.5t206.5 189.5
t352 64h203zM1690 1070v65h293l12 -65h-305z" />
    <glyph glyph-name="TtaMatraI.tm" horiz-adv-x="1584" 
d="M387 65v-65h-192v1125h76v-1060h116zM329 65h662l29 -13l28 13h506l-12 -65h-1213v65zM1020 1156q181 0 269.5 -110t88.5 -307v-208q0 -187 -73.5 -313.5t-255.5 -194.5l-49 25q115 45 180.5 111.5t92.5 156.5t27 204v215q0 168 -68.5 260.5t-211.5 92.5
q-144 0 -212.5 -92.5t-68.5 -260.5v-215q0 -114 27 -204t92.5 -156.5t179.5 -111.5l-48 -25q-182 68 -255 194.5t-73 313.5v208q0 197 89 307t269 110zM1045 -511q-162 0 -236 65t-74 186v5q0 107 58.5 171t157.5 100l24 9l54 -17l-30 -13q-93 -40 -140.5 -94t-47.5 -146v-4
q0 -90 55.5 -143t188.5 -53q41 0 75.5 3t70.5 9t79 14l-16 -69q-50 -11 -104 -17t-115 -6z" />
    <glyph glyph-name="NnaMatraI.tm" horiz-adv-x="3718" 
d="M1780 1162q167 0 287.5 -25t198.5 -65l1 -2q99 -47 158 -126t85.5 -184.5t26.5 -231.5v-146q0 -123 -32.5 -214t-101 -140t-177.5 -49q-111 0 -181.5 49.5t-103.5 140t-33 213.5v146q0 127 27.5 233t91 185.5t171.5 124.5l47 -39q-99 -44 -156.5 -117.5t-80.5 -171
t-23 -214.5v-145q0 -105 24.5 -181t78 -116t138.5 -40q84 0 135.5 40t75 116t23.5 181v145q0 118 -22.5 215.5t-78 170.5t-155.5 117l-8 5q-44 16 -105 30t-139 22.5t-172 8.5q-142 0 -249.5 -18.5t-176.5 -48.5l-49 44q83 41 200 64t275 23zM2877 1084l76 -1v-1083h-76
v1084zM2931 1135v-64h-415q-89 0 -152.5 -7t-113.5 -22l19 66q38 11 98.5 19t150.5 8h413zM903 1162q164 0 282.5 -24t194.5 -63l1 -3q98 -46 157.5 -125.5t85.5 -185.5t26 -233v-146q0 -123 -32.5 -214t-100.5 -140t-178 -49q-111 0 -181 49.5t-103 140t-33 213.5v146
q0 128 27.5 234.5t91.5 186.5t170 126l48 -40q-99 -44 -156 -117.5t-80.5 -172t-23.5 -216.5v-145q0 -105 24.5 -181t78 -116t137.5 -40t135.5 40t75.5 116t24 181v145q0 119 -22.5 217t-78 171.5t-154.5 117.5l-10 5q-62 24 -162.5 40t-242.5 16q-332 0 -504 -138
t-173 -408v-8.5v-8.5h3v-185q0 -142 59.5 -223.5t187.5 -81.5q115 0 169.5 69.5t54.5 194.5v110q0 120 -52.5 183t-162.5 63q-70 0 -125 -29t-90.5 -79.5t-49.5 -113.5l-2 97h10q25 80 97.5 136.5t181.5 56.5q134 0 200.5 -79.5t66.5 -228.5v-114q0 -102 -32 -176
t-97.5 -114t-167.5 -40q-111 0 -183 46.5t-106.5 133.5t-34.5 207v179q0 203 86 340t253 207t410 70zM2906 1070v65h292l12 -65h-304zM3171 1710q123 0 200.5 -43.5t114.5 -132t37 -222.5v-1312h-76v1309q0 172 -64 252.5t-212 80.5q-139 0 -207.5 -74t-68.5 -218v-5
q0 -69 15 -121.5t41 -91.5h-75q-22 35 -39 93t-17 126v7q0 167 88.5 259.5t262.5 92.5z" />
    <glyph glyph-name="TaMatraI.tm" horiz-adv-x="1613" 
d="M895 603v63h81q238 0 343 -93.5t105 -311.5v-54q0 -199 -59 -317t-195 -169.5t-365 -51.5h-349l-12 65h356q206 0 325.5 44.5t171 148t51.5 279.5v53q0 190 -87.5 267t-292.5 77h-73zM1125 1710q117 0 191 -43.5t109 -131t35 -222.5v-597h-75v595q0 171 -60 251t-200 80
q-133 0 -198.5 -73t-65.5 -218v-6q0 -69 15.5 -121.5t42.5 -91.5h-75q-24 35 -40.5 93t-16.5 126v8q0 167 85.5 259t252.5 92zM522 -266v-65h-157q-105 0 -172.5 -12.5t-113.5 -35t-91 -55.5l8 81q36 26 80 45.5t111.5 30.5t173.5 11h161zM888 665v-61h-480l-169 -31
q-3 -27 -5.5 -63.5t-3 -73.5t-0.5 -69q0 -160 81.5 -240.5t244.5 -80.5q153 0 222 79t69 248v261l3 11v463h70v-463v-11v-261q0 -132 -38 -219.5t-118 -131t-208 -43.5q-200 0 -300.5 100t-100.5 289q0 39 2 84t5.5 89.5t8.5 78.5l196 39l51 6h470zM1028 1135v-63h-137
l-19 3h-441l-2 -435l-71 -8v503h670zM919 1072v63h276l12 -63h-288z" />
    <glyph glyph-name="NaMatraI.tm" horiz-adv-x="1586" 
d="M769 1108h75v-1108h-75v1108zM1130 740q157 0 227 -100.5t70 -295.5v-85q0 -217 -64 -346.5t-213 -186.5t-405 -57h-329l-14 65h338q172 0 290 26.5t188 86.5t100.5 161t30.5 251v77q0 165 -54 249.5t-187 84.5q-105 0 -174.5 -65.5t-96.5 -181.5h-8v108h18
q24 90 96 149.5t187 59.5zM1005 1135v-65h-734v-1070h-76v1135h810zM1054 1710q119 0 194.5 -43.5t111.5 -132.5t36 -224v-491h-75v489q0 173 -61.5 253.5t-206.5 80.5q-135 0 -201.5 -74.5t-66.5 -220.5v-2q0 -69 15.5 -121.5t41.5 -91.5h-74q-23 35 -40.5 93t-17.5 126v5
q0 169 87 261.5t257 92.5zM505 -266v-65h-157q-105 0 -172.5 -12.5t-113.5 -35t-91 -55.5l8 81q36 26 80 45.5t111.5 30.5t173.5 11h161zM838 1070v65h293l11 -65h-304z" />
    <glyph glyph-name="NnnaMatraI.tm" horiz-adv-x="2831" 
d="M1991 1084l76 -1v-1083h-76v1084zM2044 1135v-64h-415q-88 0 -151 -6.5t-114 -20.5l17 66q38 10 99.5 17.5t151.5 7.5h412zM902 1162q165 0 283 -24.5t194 -64.5l1 -2q99 -46 158.5 -125t85.5 -184.5t26 -233.5v-146q0 -123 -32.5 -214t-100.5 -140t-178 -49
q-111 0 -181 49.5t-103 140t-33 213.5v146q0 128 27.5 234.5t91.5 185.5t170 125l46 -40q-98 -42 -154.5 -115.5t-80 -171.5t-23.5 -217v-145q0 -105 24.5 -181t78 -116t137.5 -40t135.5 40t75.5 116t24 181v145q0 119 -22.5 217t-78 171.5t-155.5 115.5l-9 5
q-63 24 -163.5 41t-242.5 17q-331 0 -503 -138t-173 -408v-8.5v-8.5h3v-185q0 -142 59.5 -223.5t187.5 -81.5q115 0 169.5 69.5t54.5 194.5v110q0 120 -52.5 183t-162.5 63q-70 0 -125 -29t-90.5 -79.5t-49.5 -113.5l-2 97h10q25 80 97.5 136.5t181.5 56.5
q134 0 200.5 -79.5t66.5 -228.5v-114q0 -102 -32 -176t-97.5 -114t-167.5 -40q-111 0 -183 46.5t-106.5 133.5t-34.5 207v179q0 203 86 340t252.5 207t409.5 70zM2019 1070v65h292l12 -65h-304zM2285 1710q123 0 200.5 -43.5t114 -132t36.5 -222.5v-1312h-76v1309
q0 172 -64 252.5t-212 80.5q-138 0 -206.5 -74t-68.5 -218v-5q0 -69 14.5 -121.5t40.5 -91.5h-74q-23 35 -40 93t-17 126v7q0 167 88.5 259.5t263.5 92.5z" />
    <glyph glyph-name="PaMatraI.tm" horiz-adv-x="1952" 
d="M1189 1135h76v-1135h-477v67h401v1068zM272 1135v-1068h698v-67h-775v1135h77zM1277 1710q166 0 272.5 -59t157 -176t50.5 -290v-1185h-76v1184q0 154 -41 255.5t-130 152t-233 50.5q-130 0 -220 -49t-136.5 -142t-46.5 -223v-33q0 -166 80.5 -260t241.5 -112l-1 -67
q-126 12 -214.5 64.5t-135.5 147t-47 228.5v33q0 151 56 258.5t163 165t260 57.5z" />
    <glyph glyph-name="MaMatraI.tm" horiz-adv-x="2096" 
d="M1485 1710q214 0 315 -114.5t101 -358.5v-1237h-76v1234q0 215 -80 311.5t-261 96.5q-166 0 -255.5 -84t-89.5 -248v-11q0 -60 12 -109t34 -88h-73q-22 40 -34.5 92t-12.5 112v14q0 123 49.5 209.5t143.5 133.5t227 47zM195 1135h76v-1070h691q167 0 258 42t127 137.5
t36 254.5v202q0 125 -34.5 206.5t-117 122.5t-225.5 41h-141v-1045h-75v1109h215q166 0 265.5 -47.5t144.5 -144t45 -242.5v-201q0 -181 -46 -291t-155 -159.5t-299 -49.5h-765v1135z" />
    <glyph glyph-name="YaMatraI.tm" horiz-adv-x="2434" 
d="M1670 1135h76v-1135h-414v67h338v1068zM1482 0h-727l4 238h-4q-14 -117 -81 -187.5t-200 -70.5q-137 0 -210.5 86.5t-73.5 265.5v803h76v-801q0 -148 56.5 -217t163.5 -69q130 0 190 86.5t60 266.5v734h77v-1068h669v-67zM1758 1710q166 0 272.5 -59t157.5 -176t51 -290
v-1185h-76v1184q0 154 -41.5 255.5t-130 152t-233.5 50.5q-129 0 -219.5 -49t-137 -142t-46.5 -223v-33q0 -166 80.5 -260t241.5 -112v-67q-126 12 -215 64.5t-135.5 147t-46.5 228.5v33q0 151 55.5 258.5t162.5 165t260 57.5z" />
    <glyph glyph-name="RaMatraI.tm" horiz-adv-x="1621" 
d="M781 1106h75v-1106h-75v1106zM842 1135v-65h-571v-1070h-76v1135h647zM809 1070v65h292l12 -65h-304zM1075 1710q123 0 200.5 -43.5t114 -132t36.5 -222.5v-1312h-76v1309q0 172 -64 252.5t-212 80.5q-138 0 -207 -74t-69 -218v-5q0 -69 15 -121.5t41 -91.5h-74
q-23 35 -40 93t-17 126v7q0 167 88.5 259.5t263.5 92.5z" />
    <glyph glyph-name="RraMatraI.tm" horiz-adv-x="2053" 
d="M1460 1710q206 0 302 -110.5t96 -346.5v-1253h-76v1250q0 207 -76.5 299.5t-245.5 92.5q-153 0 -236 -82.5t-83 -242.5v-8q0 -55 12 -102t31 -79h-74q-19 33 -30.5 83t-11.5 105v11q0 121 46 206t134 131t212 46zM500 1156q139 0 205.5 -75t77.5 -214h3
q12 138 93.5 213.5t226.5 75.5q158 0 232 -85.5t74 -235.5v-20q0 -132 -64.5 -205.5t-183.5 -82.5v-3q83 -3 146 -37.5t98 -106.5t35 -189v-30q0 -178 -55 -286.5t-186 -157t-359 -48.5h-444l-14 65h450q204 0 319.5 41t163.5 136t48 255v27q0 160 -74.5 229t-216.5 70
l-83 2v62l87 1q138 3 198.5 69.5t60.5 182.5v19q0 122 -56.5 191t-187.5 69q-84 0 -146 -32.5t-95.5 -104.5t-33.5 -191v-760h-76v783q0 158 -55.5 231.5t-181.5 73.5q-117 0 -180 -73.5t-63 -231.5v-783h-76v782q0 191 81.5 282.5t231.5 91.5zM497 -266v-65h-156
q-106 0 -173 -12.5t-113.5 -35t-91.5 -55.5l9 81q36 26 79.5 45.5t111 30.5t174.5 11h160z" />
    <glyph glyph-name="LaMatraI.tm" horiz-adv-x="2371" 
d="M671 1156q168 0 271.5 -63t150.5 -185t47 -297v-215q0 -177 62 -263t196 -86t193 93.5t59 272.5v277q0 124 -27 213.5t-94 137.5t-188 48q-21 0 -42.5 -2t-38.5 -6q-4 34 -7 70t-3 72q0 231 116 359t350 128q239 0 349.5 -134t110.5 -400v-1176h-76v1173q0 235 -89 352
t-296 117q-197 0 -293.5 -109t-96.5 -309q0 -26 2 -50t4 -45l-47 15q14 4 34 6.5t38 2.5q140 0 221 -54.5t115.5 -158t34.5 -249.5v-277q0 -142 -34.5 -238.5t-107 -146t-187.5 -49.5q-171 0 -253 104t-82 308v216q0 155 -38 262t-124.5 162.5t-230.5 55.5
q-220 0 -328.5 -127.5t-109.5 -375.5v-23v-24h3v-190q0 -142 60 -223.5t188 -81.5q115 0 169 69.5t54 194.5v110q0 120 -52 183t-162 63q-70 0 -125 -29t-91 -79.5t-50 -113.5l-2 97h10q26 80 98.5 136.5t181.5 56.5q133 0 199.5 -79.5t66.5 -228.5v-114q0 -102 -32 -176
t-97 -114t-167 -40q-111 0 -183 46.5t-107 133.5t-35 207v216q0 188 57 315.5t171 193t284 65.5z" />
    <glyph glyph-name="LlaMatraI.tm" horiz-adv-x="2529" 
d="M1688 1111h76v-1111h-76v1111zM677 1156q114 0 193.5 -28t131.5 -78t80.5 -115.5t37.5 -139.5h3l-3 340h632v-65h-574v-1070h-75v571q0 254 -95 385.5t-327 131.5q-224 0 -336 -124.5t-113 -364.5v-30.5v-30.5h3v-190q0 -142 60 -223.5t187 -81.5q115 0 169.5 69.5
t54.5 194.5v110q0 120 -52.5 183t-162.5 63q-70 0 -125 -29t-90.5 -79.5t-49.5 -113.5l-2 97h10q25 80 97.5 136.5t181.5 56.5q134 0 200.5 -79.5t66.5 -228.5v-114q0 -102 -32 -176t-97.5 -114t-167.5 -40q-111 0 -182.5 46.5t-106.5 133.5t-35 207v230q0 182 58.5 307
t174 189t285.5 64zM1714 1070v65h292l12 -65h-304zM1982 1710q124 0 201 -43.5t114 -132t37 -222.5v-1312h-76v1309q0 172 -64 252.5t-212 80.5q-139 0 -207.5 -74t-68.5 -218v-5q0 -69 15 -121.5t40 -91.5h-74q-22 35 -39 93t-17 126v7q0 167 88.5 259.5t262.5 92.5z" />
    <glyph glyph-name="LllaMatraI.tm" horiz-adv-x="2096" 
d="M728 -602q-164 0 -253.5 83.5t-89.5 249.5q0 34 3 62t6 47h74q-3 -20 -5.5 -49t-2.5 -61q0 -136 68.5 -202.5t199.5 -66.5q83 0 134 27.5t83.5 76t60.5 109.5l5 15q9 19 19 30t25 12v3q-99 3 -156.5 27.5t-83 77.5t-25.5 140v50h75v-46q0 -72 20 -116t71.5 -64.5
t146.5 -20.5h172l-14 -62h-119q-26 0 -36.5 -10.5t-19.5 -32.5l-8 -19q-34 -80 -75 -138.5t-106 -90t-169 -31.5zM195 1135h76v-1070h691q167 0 258 42t127 137.5t36 254.5v202q0 125 -34.5 206.5t-117 122.5t-225.5 41h-141v-1045h-75v1109h215q166 0 265.5 -47.5
t144.5 -144t45 -242.5v-201q0 -181 -46 -291t-155 -159.5t-299 -49.5h-765v1135zM1485 1710q214 0 315 -114.5t101 -358.5v-1237h-76v1234q0 215 -80 311.5t-261 96.5q-166 0 -255.5 -84t-89.5 -248v-11q0 -60 12 -109t34 -88h-73q-22 40 -34.5 92t-12.5 112v14
q0 123 49.5 209.5t143.5 133.5t227 47z" />
    <glyph glyph-name="VaMatraI.tm" horiz-adv-x="2437" 
d="M1675 1135h75v-1135h-512l-1 65h438v1070zM1762 1710q166 0 272 -59t157 -176t51 -290v-1185h-76v1184q0 154 -41.5 255.5t-130 152t-232.5 50.5q-131 0 -221 -49t-136.5 -142t-46.5 -223v-33q0 -166 81 -260t242 -112l-1 -67q-126 12 -215 64.5t-135.5 147t-46.5 228.5
v33q0 151 55 258.5t162 165t262 57.5zM699 1157q179 0 289.5 -64t162 -183t51.5 -287v-107q0 -113 -16 -201t-46.5 -157.5t-74.5 -128.5l-4 36h412v-65h-491v9q49 67 80.5 140t47 161t15.5 200v108q0 149 -43 253.5t-137 161t-249 56.5q-231 0 -347 -128.5t-117 -376.5
v-22.5v-23.5h2v-190q0 -142 60 -223.5t188 -81.5q115 0 169.5 69.5t54.5 194.5v110q0 120 -52.5 183t-162.5 63q-70 0 -125 -29t-91 -79.5t-50 -113.5l-1 97h10q25 79 97.5 134.5t183.5 55.5q132 0 198.5 -78.5t66.5 -226.5v-114q0 -102 -32 -176t-97.5 -114t-167.5 -40
q-111 0 -183 46.5t-106.5 133.5t-34.5 207v215q0 188 61 316t181.5 194t297.5 66z" />
    <glyph glyph-name="ShaMatraI.tm" horiz-adv-x="2564" 
d="M2039 1710q171 0 250 -88t79 -276v-1346h-75v1344q0 156 -59 227.5t-195 71.5q-127 0 -195 -68.5t-68 -204.5v-7q0 -78 26 -134t74 -94h-79q-41 35 -67.5 95t-26.5 141v8q0 159 87.5 245t248.5 86zM190 1135h76v-764q0 -169 63.5 -246.5t190.5 -77.5t189.5 77.5
t62.5 246.5v764h76v-767q0 -131 -34.5 -217t-107 -129t-186.5 -43t-187.5 43t-108 129.5t-34.5 217.5v766zM1229 1135h76v-764q0 -169 62 -246.5t186 -77.5q125 0 186 77.5t61 246.5v764h76v-767q0 -131 -34 -217t-105.5 -129t-183.5 -43t-184 43t-106 129.5t-34 217.5v766z
M802 1135h1046v-65h-1046v65z" />
    <glyph glyph-name="SsaMatraI.tm" horiz-adv-x="2917" 
d="M2284 1710q151 0 247.5 -53.5t143 -163.5t46.5 -282v-1211h-75v1208q0 228 -85.5 331t-276.5 103q-170 0 -266 -88.5t-96 -258.5v-1q0 -47 8 -87t23 -69l-75 2q-13 30 -21 72.5t-8 88.5v4q0 126 52 216.5t149.5 139.5t233.5 49zM699 1157q179 0 289.5 -64t162 -183
t51.5 -287v-107q0 -113 -16 -201t-46.5 -157.5t-74.5 -128.5l-4 36h412v-65h-491v9q49 67 80.5 140t47 161t15.5 200v108q0 149 -43 253.5t-137 161t-249 56.5q-231 0 -347 -128.5t-117 -376.5v-22.5v-23.5h2v-190q0 -142 60 -223.5t188 -81.5q115 0 169.5 69.5t54.5 194.5
v110q0 120 -52.5 183t-162.5 63q-70 0 -125 -29t-91 -79.5t-50 -113.5l-1 97h10q25 79 97.5 134.5t183.5 55.5q132 0 198.5 -78.5t66.5 -226.5v-114q0 -102 -32 -176t-97.5 -114t-167.5 -40q-111 0 -183 46.5t-106.5 133.5t-34.5 207v215q0 188 61 316t181.5 194t297.5 66z
M1210 65h661l30 -13l28 13h506l-13 -65h-1212v65zM1901 1156q180 0 268.5 -110t88.5 -307v-208q0 -187 -73 -313.5t-255 -194.5l-49 25q115 45 180.5 111.5t92.5 156.5t27 204v215q0 168 -68.5 260.5t-211.5 92.5q-144 0 -212.5 -92.5t-68.5 -260.5v-215q0 -114 27 -204
t92.5 -156.5t179.5 -111.5l-49 -25q-182 68 -254.5 194.5t-72.5 313.5v208q0 197 88.5 307t269.5 110zM1943 -511q-162 0 -236 65t-74 186v5q0 107 59 171t158 100l23 9l54 -17l-30 -13q-93 -40 -140.5 -94t-47.5 -146v-4q0 -90 55.5 -143t188.5 -53q40 0 75 3t71.5 9
t78.5 14l-16 -69q-50 -11 -104 -17t-115 -6z" />
    <glyph glyph-name="SaMatraI.tm" horiz-adv-x="2943" 
d="M674 1156q145 0 239.5 -49.5t144.5 -138.5t61 -208h3v42q0 182 75.5 268t218.5 86q147 0 218.5 -91t71.5 -285v-371q0 -187 62 -274.5t201 -87.5q137 0 196.5 94t59.5 275v298q0 118 -27.5 202t-94 128.5t-186.5 44.5q-20 0 -41.5 -2t-37.5 -6q-5 34 -7.5 70.5t-2.5 73.5
q0 229 115 357t348 128q238 0 347.5 -133.5t109.5 -398.5v-1178h-75v1175q0 234 -88.5 350.5t-294.5 116.5q-197 0 -292.5 -108.5t-95.5 -307.5q0 -28 1.5 -52t4.5 -45l-38 17q12 3 30 5t35 2q138 0 218 -51.5t114.5 -149.5t34.5 -236v-299q0 -214 -80 -325.5t-253 -111.5
q-177 0 -258 105t-81 321v370q0 167 -53.5 239.5t-169.5 72.5q-113 0 -175.5 -71.5t-62.5 -238.5v-778h-76v567q0 166 -38 282.5t-129 177.5t-248 61q-223 0 -334 -127.5t-112 -373.5v-24v-25h3v-190q0 -142 60 -223.5t187 -81.5q115 0 169.5 69.5t54.5 194.5v110
q0 120 -52.5 183t-162.5 63q-70 0 -125 -29t-90.5 -79.5t-49.5 -113.5l-2 97h10q25 80 97.5 136.5t181.5 56.5q134 0 200.5 -79.5t66.5 -228.5v-114q0 -102 -32 -176t-97.5 -114t-167.5 -40q-111 0 -182.5 46.5t-106.5 133.5t-35 207v218q0 187 58 314t173 192.5t284 65.5z
" />
    <glyph glyph-name="HaMatraI.tm" horiz-adv-x="3430" 
d="M2837 1710q206 0 302 -110.5t96 -346.5v-1253h-76v1250q0 207 -76.5 299.5t-245.5 92.5q-153 0 -236 -82.5t-83 -242.5v-8q0 -55 12 -102t30 -79h-74q-18 33 -30 83t-12 105v11q0 121 46.5 206t134.5 131t212 46zM1275 65h334v-65h-334v65zM1651 -266v-65h-1207l-15 65
h1222zM698 1157q178 0 289 -64t162.5 -183t51.5 -287v-107q0 -113 -16 -201t-46.5 -157.5t-74.5 -128.5l-4 36h411v-65h-490v9q49 67 80.5 140t47 161t15.5 200v108q0 149 -43 253.5t-137 161t-249 56.5q-232 0 -348 -128.5t-116 -376.5v-22.5v-23.5h2v-190
q0 -142 60 -223.5t188 -81.5q115 0 169.5 69.5t54.5 194.5v110q0 120 -52.5 183t-162.5 63q-70 0 -125 -29t-91 -79.5t-50 -113.5l-1 97h10q25 79 97.5 134.5t183.5 55.5q132 0 198.5 -78.5t66.5 -226.5v-114q0 -102 -32 -176t-98 -114t-167 -40q-111 0 -183 46.5
t-106.5 133.5t-34.5 207v215q0 188 61 316t181 194t298 66zM550 -266v-65h-157q-105 0 -172 -12.5t-113.5 -35t-91.5 -55.5l9 81q35 26 79 45.5t111.5 30.5t173.5 11h161zM1877 1156q139 0 205.5 -75t77.5 -214h3q12 138 93.5 213.5t225.5 75.5q159 0 233 -85.5t74 -235.5
v-20q0 -132 -64.5 -205.5t-183.5 -82.5v-3q82 -3 145 -37.5t98.5 -106.5t35.5 -189v-30q0 -178 -55 -286.5t-186 -157t-360 -48.5h-757l-14 65h764q204 0 319.5 41t163.5 136t48 255v27q0 160 -74.5 229t-216.5 70l-83 2v62l87 1q138 3 198.5 69.5t60.5 182.5v19
q0 81 -25 139.5t-78.5 89.5t-140.5 31q-84 0 -146.5 -32.5t-95.5 -104.5t-33 -191v-760h-76v783q0 158 -55.5 231.5t-181.5 73.5q-117 0 -180 -73.5t-63 -231.5v-783h-76v782q0 191 81.5 282.5t231.5 91.5z" />
    <glyph glyph-name="KssaMatraI.tm" horiz-adv-x="3570" 
d="M2937 1710q151 0 247.5 -53.5t143.5 -163.5t47 -282v-1211h-76v1208q0 228 -85.5 331t-276.5 103q-170 0 -265.5 -88.5t-95.5 -258.5v-1q0 -47 8 -87t22 -69l-75 2q-13 30 -21 72.5t-8 88.5v4q0 126 52 216.5t149.5 139.5t233.5 49zM885 603v63h157q153 0 215 -58
t69 -179h3v19q0 161 80 248t221 87q143 0 211.5 -80.5t68.5 -231.5v-91q0 -128 -33 -206.5t-82 -135.5l-13 27h486v-65h-561v9q62 70 95 149t33 208v90q0 124 -52.5 192.5t-166.5 68.5q-73 0 -129.5 -33.5t-88 -102.5t-31.5 -178v-403h-75v342q0 95 -24 152t-80 83t-151 26
h-152zM886 665v-61h-481l-168 -31q-4 -27 -6 -63.5t-3 -73.5t-1 -69q0 -160 82 -240.5t244 -80.5q153 0 222.5 79t69.5 248v261l2 11v463h71v-463v-11v-261q0 -132 -38 -219.5t-118.5 -131t-207.5 -43.5q-201 0 -301 100t-100 289q0 39 1.5 84t5 89.5t9.5 78.5l195 39l52 6
h470zM1026 1135v-63h-138l-18 3h-442l-2 -435l-70 -8v503h670zM1863 65h662l29 -13l28 13h506l-12 -65h-1213v65zM2554 1156q181 0 269.5 -110t88.5 -307v-208q0 -187 -73.5 -313.5t-255.5 -194.5l-49 25q115 45 180.5 111.5t92.5 156.5t27 204v215q0 168 -68.5 260.5
t-211.5 92.5q-144 0 -212.5 -92.5t-68.5 -260.5v-215q0 -114 27 -204t92.5 -156.5t179.5 -111.5l-48 -25q-182 68 -255 194.5t-73 313.5v208q0 197 89 307t269 110zM2596 -511q-161 0 -235 65t-74 186v5q0 107 58.5 171t157.5 100l23 9l54 -17l-30 -13q-93 -40 -140.5 -94
t-47.5 -146v-4q0 -90 56 -143t188 -53q41 0 76 3t71 9t78 14l-15 -69q-50 -11 -104 -17t-116 -6zM963 1072v63h276l12 -63h-288z" />
    <glyph glyph-name="KaMatraIi.tm" horiz-adv-x="1554" 
d="M900 603v63h223q161 0 236 -68t75 -224v-74q0 -100 -31 -172t-100 -111t-184 -39q-88 0 -154 17.5t-106 39.5l-18 72l3 8q53 -32 116 -51t149 -19q92 0 146.5 31.5t78.5 89.5t24 136v68q0 127 -57.5 180t-185.5 53h-215zM886 665v-61h-481l-168 -31q-4 -27 -6 -63.5
t-3 -73.5t-1 -69q0 -160 82 -240.5t244 -80.5q153 0 222.5 79t69.5 248v261l2 11v463h71v-463v-11v-261q0 -132 -38 -219.5t-118.5 -131t-207.5 -43.5q-201 0 -301 100t-100 289q0 39 1.5 84t5 89.5t9.5 78.5l195 39l52 6h470zM1026 1135v-63h-138l-18 3h-442l-2 -435
l-70 -8v503h670zM954 1072v63h276l12 -63h-288zM1133 1807q168 0 246 -71t78 -198v-8q0 -115 -56 -175.5t-172 -60.5q-121 0 -179.5 64t-58.5 173v15q0 67 19.5 116.5t51.5 78.5v10l47 -1q-27 -35 -39 -83.5t-12 -107.5v-17q0 -89 40.5 -139t129.5 -50q162 0 162 177v6
q0 104 -58.5 157t-187.5 53q-21 0 -41 -1t-41 -5v2q-124 -15 -188 -92t-64 -210v-11q0 -95 29.5 -171t76.5 -126h-77q-40 43 -70.5 122t-30.5 177v14q0 175 99.5 268.5t295.5 93.5z" />
    <glyph glyph-name="NgaMatraIi.tm" horiz-adv-x="2051" 
d="M781 1107h75v-1107h-75v1107zM1137 741q134 0 198.5 -79.5t64.5 -230.5v-49q0 -130 -29 -208.5t-81 -135.5l-19 26h531v-64h-604v9q68 69 97.5 149t29.5 208v48q0 124 -50.5 190.5t-160.5 66.5q-97 0 -163.5 -57t-97.5 -159h-4v80h9q17 58 54.5 104.5t94 74t130.5 27.5z
M1780 1135h75v-1135h-75v1135zM1124 1135v-65h-853v-1070h-76v1135h929zM1878 1807q168 0 246.5 -71t78.5 -198v-8q0 -115 -56.5 -175.5t-172.5 -60.5q-121 0 -179 64t-58 173v15q0 67 19 116.5t51 78.5v10l46 -1q-26 -35 -38.5 -83.5t-12.5 -107.5v-17q0 -90 41 -140
t130 -50q162 0 162 178v6q0 104 -58.5 157t-186.5 53q-22 0 -42.5 -1t-40.5 -5v2q-166 -18 -253 -128t-87 -312v-44q0 -191 80 -301.5t237 -133.5v-68q-126 15 -213.5 76.5t-132.5 168.5t-45 260v44q0 245 123.5 374t361.5 129zM926 1070v65h293l11 -65h-304z" />
    <glyph glyph-name="CaMatraIi.tm" horiz-adv-x="1331" 
d="M896 605v64h399l12 -64h-411zM886 665v-61h-481l-168 -31q-4 -27 -6 -63.5t-3 -73.5t-1 -69q0 -160 82 -240.5t244 -80.5q153 0 222.5 79t69.5 248v261l2 11v463h71v-463v-11v-261q0 -132 -38 -219.5t-118.5 -131t-207.5 -43.5q-201 0 -301 100t-100 289q0 39 1.5 84
t5 89.5t9.5 78.5l195 39l52 6h470zM1026 1135v-63h-138l-18 3h-442l-2 -435l-70 -8v503h670zM919 1072v63h276l11 -63h-287zM1133 1807q168 0 246 -71t78 -198v-8q0 -115 -56 -175.5t-172 -60.5q-121 0 -179.5 64t-58.5 173v15q0 67 19.5 116.5t51.5 78.5v10l47 -1
q-27 -35 -39 -83.5t-12 -107.5v-17q0 -89 40.5 -139t129.5 -50q162 0 162 177v6q0 104 -58.5 157t-187.5 53q-21 0 -41 -1t-41 -5v2q-124 -15 -188 -92t-64 -210v-11q0 -95 29.5 -171t76.5 -126h-77q-40 43 -70.5 122t-30.5 177v14q0 175 99.5 268.5t295.5 93.5z" />
    <glyph glyph-name="JaMatraIi.tm" horiz-adv-x="1814" 
d="M1638 1807q167 0 245.5 -71t78.5 -198v-8q0 -115 -56.5 -175.5t-172.5 -60.5q-120 0 -178.5 64t-58.5 173v15q0 67 19.5 116.5t51.5 78.5v10l46 -1q-26 -35 -38.5 -83.5t-12.5 -107.5v-17q0 -89 41 -139t129 -50q163 0 163 177v6q0 104 -58.5 157t-187.5 53
q-21 0 -41.5 -1t-40.5 -5v2q-124 -15 -188 -92t-64 -210v-11q0 -90 27.5 -162t71.5 -120h-77q-38 42 -66 116.5t-28 167.5v14q0 175 99 268.5t296 93.5zM620 1169q134 0 223.5 -39.5t139 -114t61.5 -180.5h3q7 155 80.5 240.5t219.5 85.5q166 0 237.5 -97t71.5 -273v-101
q0 -99 -23 -174.5t-75.5 -128.5t-141 -86.5t-220.5 -48.5l-583 -68q-133 -15 -211 -51t-111.5 -96.5t-33.5 -150.5v-9q0 -117 58 -181.5t178 -64.5q75 0 130.5 25.5t104.5 69.5t104 99l130 131q66 65 127.5 111t130 70.5t150.5 24.5q99 0 161 -33t92 -94.5t30 -149.5v-17
q0 -148 -76 -225t-234 -77q-67 0 -131.5 13.5t-122.5 36.5l-17 72q64 -28 129 -42t130 -14q129 0 188 59t59 177v16q0 99 -50 156t-160 57q-103 0 -182 -46t-165 -132l-132 -134q-62 -62 -117.5 -112t-121 -78.5t-159.5 -28.5q-151 0 -229.5 81.5t-78.5 225.5v12
q0 111 41.5 185t133.5 117t242 60l583 68q154 18 240.5 62.5t122.5 121t36 190.5v102q0 144 -55.5 224t-188.5 80q-77 0 -133 -32.5t-87 -104t-31 -189.5v-353h-73v271q0 137 -38.5 230t-124.5 140t-228 47q-195 0 -297.5 -93.5t-104.5 -259.5h4v-98q0 -116 53 -182.5
t169 -66.5q108 0 157 59.5t49 164.5v33q0 94 -47.5 146.5t-144.5 52.5q-62 0 -113 -25.5t-85.5 -70t-47.5 -101.5l-2 90h10q25 71 91 120t166 49q122 0 183 -68t61 -192v-34q0 -136 -67 -210.5t-210 -74.5q-151 0 -223.5 85t-72.5 234v74q0 205 119.5 319t349.5 114z" />
    <glyph glyph-name="NyaMatraIi.tm" horiz-adv-x="2404" 
d="M1620 1108h76v-1108h-76v1108zM1982 740q155 0 222.5 -100t67.5 -292v-34q0 -278 -105 -461t-323.5 -274t-555.5 -91h-3q-368 0 -614.5 110.5t-370.5 338t-124 580.5q0 125 8 235.5t23.5 206.5t36.5 176h78q-24 -89 -39 -184.5t-22.5 -201.5t-7.5 -229q0 -334 114.5 -547
t343.5 -315t574 -102h3q312 0 513 82t297.5 250t96.5 427v27q0 160 -52.5 244t-182.5 84q-107 0 -176.5 -65t-94.5 -182h-9v108h17q25 91 96.5 150t188.5 59zM1858 1135v-65h-523v65h523zM1507 1135v-65h-200q-287 0 -421.5 -124t-134.5 -373v-17.5v-17.5h2v-190
q0 -142 60 -223.5t188 -81.5q115 0 169.5 69.5t54.5 194.5v110q0 120 -52.5 183t-162.5 63q-70 0 -125 -29t-91 -79.5t-50 -113.5l-1 97h10q25 80 97.5 136.5t181.5 56.5q134 0 200.5 -79.5t66.5 -228.5v-114q0 -102 -32 -176t-97.5 -114t-167.5 -40q-111 0 -183 46.5
t-106.5 133.5t-34.5 207v204q0 186 67.5 311.5t206.5 189.5t352 64h203zM1806 1070v65h293l11 -65h-304zM1903 1807q168 0 246 -71t78 -198v-8q0 -115 -56 -175.5t-172 -60.5q-121 0 -179.5 64t-58.5 173v15q0 67 19.5 116.5t51.5 78.5v10l47 -1q-27 -35 -39 -83.5
t-12 -107.5v-17q0 -89 40.5 -139t129.5 -50q162 0 162 177v6q0 104 -58.5 157t-187.5 53q-21 0 -41 -1t-41 -5v2q-124 -15 -188 -92t-64 -210v-11q0 -95 29.5 -171t76.5 -126h-77q-40 43 -70.5 122t-30.5 177v14q0 175 99.5 268.5t295.5 93.5z" />
    <glyph glyph-name="TtaMatraIi.tm" horiz-adv-x="1623" 
d="M271 1135v-1069h1322l-12 -66h-1386v1135h76zM1037 800q167 0 245.5 -71t78.5 -200v-8q0 -116 -56 -177t-172 -61q-121 0 -179.5 64.5t-58.5 174.5v16q0 67 19.5 117t51.5 79v10l46 -1q-26 -34 -38.5 -83.5t-12.5 -108.5v-17q0 -92 41 -142.5t130 -50.5q162 0 162 181v6
q0 103 -58.5 157t-187.5 54q-21 0 -41.5 -1t-40.5 -4v1q-133 -16 -201 -101t-68 -231v-11q0 -106 29 -190t76 -140h-76q-40 48 -70.5 136t-30.5 197v13q0 190 104 291t308 101z" />
    <glyph glyph-name="NnaMatraIi.tm" horiz-adv-x="3201" 
d="M1780 1162q167 0 287.5 -25t198.5 -65l1 -2q99 -47 158 -126t85.5 -184.5t26.5 -231.5v-146q0 -123 -32.5 -214t-101 -140t-177.5 -49q-111 0 -181.5 49.5t-103.5 140t-33 213.5v146q0 127 27.5 233t91 185.5t171.5 124.5l47 -39q-99 -44 -156.5 -117.5t-80.5 -171
t-23 -214.5v-145q0 -105 24.5 -181t78 -116t138.5 -40q84 0 135.5 40t75 116t23.5 181v145q0 118 -22.5 215.5t-78 170.5t-155.5 117l-8 5q-44 16 -105 30t-139 22.5t-172 8.5q-142 0 -249.5 -18.5t-176.5 -48.5l-49 44q83 41 200 64t275 23zM2877 1084l76 -1v-1083h-76
v1084zM2931 1135v-64h-415q-89 0 -152.5 -7t-113.5 -22l19 66q38 11 98.5 19t150.5 8h413zM903 1162q164 0 282.5 -24t194.5 -63l1 -3q98 -46 157.5 -125.5t85.5 -185.5t26 -233v-146q0 -123 -32.5 -214t-100.5 -140t-178 -49q-111 0 -181 49.5t-103 140t-33 213.5v146
q0 128 27.5 234.5t91.5 186.5t170 126l48 -40q-99 -44 -156 -117.5t-80.5 -172t-23.5 -216.5v-145q0 -105 24.5 -181t78 -116t137.5 -40t135.5 40t75.5 116t24 181v145q0 119 -22.5 217t-78 171.5t-154.5 117.5l-10 5q-62 24 -162.5 40t-242.5 16q-332 0 -504 -138
t-173 -408v-8.5v-8.5h3v-185q0 -142 59.5 -223.5t187.5 -81.5q115 0 169.5 69.5t54.5 194.5v110q0 120 -52.5 183t-162.5 63q-70 0 -125 -29t-90.5 -79.5t-49.5 -113.5l-2 97h10q25 80 97.5 136.5t181.5 56.5q134 0 200.5 -79.5t66.5 -228.5v-114q0 -102 -32 -176
t-97.5 -114t-167.5 -40q-111 0 -183 46.5t-106.5 133.5t-34.5 207v179q0 203 86 340t253 207t410 70zM2904 1070v65h292l12 -65h-304zM3166 1807q168 0 246 -71t78 -198v-8q0 -115 -56 -175.5t-172 -60.5q-121 0 -179.5 64t-58.5 173v15q0 67 19.5 116.5t51.5 78.5v10l47 -1
q-27 -35 -39 -83.5t-12 -107.5v-17q0 -89 40.5 -139t129.5 -50q162 0 162 177v6q0 104 -58.5 157t-187.5 53q-21 0 -41 -1t-41 -5v2q-124 -15 -188 -92t-64 -210v-11q0 -95 29.5 -171t76.5 -126h-77q-40 43 -70.5 122t-30.5 177v14q0 175 99.5 268.5t295.5 93.5z" />
    <glyph glyph-name="TaMatraIi.tm" horiz-adv-x="1554" 
d="M899 603v63h81q238 0 343 -93.5t105 -311.5v-54q0 -199 -59 -317t-195 -169.5t-365 -51.5h-349l-12 65h356q206 0 325.5 44.5t171 148t51.5 279.5v53q0 190 -87.5 267t-292.5 77h-73zM522 -266v-65h-157q-105 0 -172.5 -12.5t-113.5 -35t-91 -55.5l8 81q36 26 80 45.5
t111.5 30.5t173.5 11h161zM888 665v-61h-480l-169 -31q-3 -27 -5.5 -63.5t-3 -73.5t-0.5 -69q0 -160 81.5 -240.5t244.5 -80.5q153 0 222 79t69 248v261l3 11v463h70v-463v-11v-261q0 -132 -38 -219.5t-118 -131t-208 -43.5q-200 0 -300.5 100t-100.5 289q0 39 2 84
t5.5 89.5t8.5 78.5l196 39l51 6h470zM1028 1135v-63h-137l-19 3h-441l-2 -435l-71 -8v503h670zM961 1072v63h276l12 -63h-288zM1133 1807q168 0 246 -71t78 -198v-8q0 -115 -56 -175.5t-172 -60.5q-121 0 -179.5 64t-58.5 173v15q0 67 19.5 116.5t51.5 78.5v10l47 -1
q-27 -35 -39 -83.5t-12 -107.5v-17q0 -89 40.5 -139t129.5 -50q162 0 162 177v6q0 104 -58.5 157t-187.5 53q-21 0 -41 -1t-41 -5v2q-124 -15 -188 -92t-64 -210v-11q0 -95 29.5 -171t76.5 -126h-77q-40 43 -70.5 122t-30.5 177v14q0 175 99.5 268.5t295.5 93.5z" />
    <glyph glyph-name="NaMatraIi.tm" horiz-adv-x="1562" 
d="M769 1108h75v-1108h-75v1108zM1130 740q157 0 227 -100.5t70 -295.5v-85q0 -217 -64 -346.5t-213 -186.5t-405 -57h-329l-14 65h338q172 0 290 26.5t188 86.5t100.5 161t30.5 251v77q0 165 -54 249.5t-187 84.5q-105 0 -174.5 -65.5t-96.5 -181.5h-8v108h18
q24 90 96 149.5t187 59.5zM1005 1135v-65h-734v-1070h-76v1135h810zM505 -266v-65h-157q-105 0 -172.5 -12.5t-113.5 -35t-91 -55.5l8 81q36 26 80 45.5t111.5 30.5t173.5 11h161zM962 1070v65h292l12 -65h-304zM1057 1807q168 0 246 -71t78 -198v-8q0 -115 -56 -175.5
t-172 -60.5q-121 0 -179.5 64t-58.5 173v15q0 67 19.5 116.5t51.5 78.5v10l47 -1q-27 -35 -39 -83.5t-12 -107.5v-17q0 -89 40.5 -139t129.5 -50q162 0 162 177v6q0 104 -58.5 157t-187.5 53q-21 0 -41 -1t-41 -5v2q-124 -15 -188 -92t-64 -210v-11q0 -95 29.5 -171
t76.5 -126h-77q-40 43 -70.5 122t-30.5 177v14q0 175 99.5 268.5t295.5 93.5z" />
    <glyph glyph-name="NnnaMatraIi.tm" horiz-adv-x="2314" 
d="M1991 1084l76 -1v-1083h-76v1084zM2044 1135v-64h-415q-88 0 -151 -6.5t-114 -20.5l17 66q38 10 99.5 17.5t151.5 7.5h412zM902 1162q165 0 283 -24.5t194 -64.5l1 -2q99 -46 158.5 -125t85.5 -184.5t26 -233.5v-146q0 -123 -32.5 -214t-100.5 -140t-178 -49
q-111 0 -181 49.5t-103 140t-33 213.5v146q0 128 27.5 234.5t91.5 185.5t170 125l46 -40q-98 -42 -154.5 -115.5t-80 -171.5t-23.5 -217v-145q0 -105 24.5 -181t78 -116t137.5 -40t135.5 40t75.5 116t24 181v145q0 119 -22.5 217t-78 171.5t-155.5 115.5l-9 5
q-63 24 -163.5 41t-242.5 17q-331 0 -503 -138t-173 -408v-8.5v-8.5h3v-185q0 -142 59.5 -223.5t187.5 -81.5q115 0 169.5 69.5t54.5 194.5v110q0 120 -52.5 183t-162.5 63q-70 0 -125 -29t-90.5 -79.5t-49.5 -113.5l-2 97h10q25 80 97.5 136.5t181.5 56.5
q134 0 200.5 -79.5t66.5 -228.5v-114q0 -102 -32 -176t-97.5 -114t-167.5 -40q-111 0 -183 46.5t-106.5 133.5t-34.5 207v179q0 203 86 340t252.5 207t409.5 70zM2017 1070v65h293l11 -65h-304zM2279 1807q168 0 246 -71t78 -198v-8q0 -115 -56 -175.5t-172 -60.5
q-121 0 -179.5 64t-58.5 173v15q0 67 19.5 116.5t51.5 78.5v10l47 -1q-27 -35 -39 -83.5t-12 -107.5v-17q0 -89 40.5 -139t129.5 -50q162 0 162 177v6q0 104 -58.5 157t-187.5 53q-21 0 -41 -1t-41 -5v2q-124 -15 -188 -92t-64 -210v-11q0 -95 29.5 -171t76.5 -126h-77
q-40 43 -70.5 122t-30.5 177v14q0 175 99.5 268.5t295.5 93.5z" />
    <glyph glyph-name="PaMatraIi.tm" horiz-adv-x="1459" 
d="M272 1135v-1068h700v-67h-777v1135h77zM1187 1135h77v-1135h-471v67h394v1068zM1286 1807q168 0 246.5 -71t78.5 -198v-8q0 -115 -56.5 -175.5t-172.5 -60.5q-120 0 -178.5 64t-58.5 173v15q0 67 19 116.5t52 78.5v10l46 -1q-26 -35 -38.5 -83.5t-12.5 -107.5v-17
q0 -90 41 -140t129 -50q163 0 163 178v6q0 104 -58.5 157t-187.5 53q-21 0 -41.5 -1t-40.5 -5v2q-167 -18 -253.5 -128t-86.5 -312v-44q0 -191 79.5 -301.5t237.5 -133.5v-68q-126 15 -213.5 76.5t-132.5 168.5t-45 260v44q0 245 123.5 374t360.5 129z" />
    <glyph glyph-name="MaMatraIi.tm" horiz-adv-x="1628" 
d="M1336 1807q167 0 245.5 -71t78.5 -198v-8q0 -115 -56.5 -175.5t-172.5 -60.5q-120 0 -178.5 64t-58.5 173v15q0 67 19.5 116.5t51.5 78.5v10l46 -1q-26 -35 -38.5 -83.5t-12.5 -107.5v-17q0 -89 41 -139t129 -50q163 0 163 177v6q0 104 -58.5 157t-187.5 53
q-21 0 -41.5 -1t-40.5 -5v2q-124 -15 -188 -92t-64 -210v-11q0 -99 32 -178.5t82 -131.5h-77q-44 45 -76.5 127.5t-32.5 184.5v14q0 175 99.5 268.5t295.5 93.5zM195 1135h76v-1070h691q167 0 258 42t127 137.5t36 254.5v202q0 125 -34.5 206.5t-117 122.5t-225.5 41h-141
v-1045h-75v1109h215q166 0 265.5 -47.5t144.5 -144t45 -242.5v-201q0 -181 -46 -291t-155 -159.5t-299 -49.5h-765v1135z" />
    <glyph glyph-name="YaMatraIi.tm" horiz-adv-x="1933" 
d="M1661 1135h77v-1135h-445v67h368v1068zM1460 0h-705l4 238h-4q-14 -117 -81 -187.5t-200 -70.5q-137 0 -210.5 86.5t-73.5 265.5v803h76v-801q0 -148 56.5 -217t163.5 -69q130 0 190 86.5t60 266.5v734h77v-1068h647v-67zM1760 1807q168 0 246.5 -71t78.5 -198v-8
q0 -115 -56.5 -175.5t-172.5 -60.5q-121 0 -179 64t-58 173v15q0 67 19 116.5t52 78.5v10l46 -1q-26 -35 -38.5 -83.5t-12.5 -107.5v-17q0 -90 40.5 -140t129.5 -50q162 0 162 178v6q0 104 -58.5 157t-186.5 53q-22 0 -42 -1t-40 -5v2q-167 -18 -253.5 -128t-86.5 -312v-44
q0 -191 79.5 -301.5t237.5 -133.5v-68q-126 15 -213.5 76.5t-133 168.5t-45.5 260v44q0 245 123.5 374t361.5 129z" />
    <glyph glyph-name="RaMatraIi.tm" horiz-adv-x="1104" 
d="M781 1106h75v-1106h-75v1106zM842 1135v-65h-571v-1070h-76v1135h647zM807 1070v65h292l12 -65h-304zM1069 1807q168 0 246 -71t78 -198v-8q0 -115 -56 -175.5t-172 -60.5q-121 0 -179.5 64t-58.5 173v15q0 67 19.5 116.5t51.5 78.5v10l47 -1q-27 -35 -39 -83.5
t-12 -107.5v-17q0 -89 40.5 -139t129.5 -50q162 0 162 177v6q0 104 -58.5 157t-187.5 53q-21 0 -41 -1t-41 -5v2q-124 -15 -188 -92t-64 -210v-11q0 -95 29.5 -171t76.5 -126h-77q-40 43 -70.5 122t-30.5 177v14q0 175 99.5 268.5t295.5 93.5z" />
    <glyph glyph-name="RraMatraIi.tm" horiz-adv-x="1596" 
d="M1410 1807q168 0 246.5 -71t78.5 -198v-8q0 -115 -56.5 -175.5t-172.5 -60.5q-121 0 -179 64t-58 173v15q0 67 19 116.5t52 78.5v10l46 -1q-26 -35 -38.5 -83.5t-12.5 -107.5v-17q0 -89 41 -139t129 -50q162 0 162 177v6q0 104 -58.5 157t-186.5 53q-22 0 -42 -1t-40 -5
v2q-124 -15 -188 -92t-64 -210v-11q0 -95 29.5 -171t76.5 -126h-77q-40 43 -71 122t-31 177v14q0 175 99.5 268.5t295.5 93.5zM500 1156q139 0 205.5 -75t77.5 -214h3q12 138 93.5 213.5t226.5 75.5q158 0 232 -85.5t74 -235.5v-20q0 -132 -64.5 -205.5t-183.5 -82.5v-3
q83 -3 146 -37.5t98 -106.5t35 -189v-30q0 -178 -55 -286.5t-186 -157t-359 -48.5h-444l-14 65h450q204 0 319.5 41t163.5 136t48 255v27q0 160 -74.5 229t-216.5 70l-83 2v62l87 1q138 3 198.5 69.5t60.5 182.5v19q0 122 -56.5 191t-187.5 69q-84 0 -146 -32.5
t-95.5 -104.5t-33.5 -191v-760h-76v783q0 158 -55.5 231.5t-181.5 73.5q-117 0 -180 -73.5t-63 -231.5v-783h-76v782q0 191 81.5 282.5t231.5 91.5zM497 -266v-65h-156q-106 0 -173 -12.5t-113.5 -35t-91.5 -55.5l9 81q36 26 79.5 45.5t111 30.5t174.5 11h160z" />
    <glyph glyph-name="LaMatraIi.tm" horiz-adv-x="1895" 
d="M1227 1424v-11q0 -91 24.5 -166t53.5 -118l-35 14q18 4 42.5 7t48.5 3q137 0 217.5 -54.5t114.5 -158t34 -249.5v-278q0 -142 -34.5 -238t-107 -145.5t-187.5 -49.5q-171 0 -253 104t-82 308v216q0 155 -38.5 262t-125 162.5t-230.5 55.5q-220 0 -328 -127.5t-109 -375.5
v-26v-26h3v-185q0 -142 60 -223.5t187 -81.5q115 0 169.5 69.5t54.5 194.5v110q0 120 -52.5 183t-162.5 63q-70 0 -125 -29t-90.5 -79.5t-49.5 -113.5l-2 92h9q26 81 98.5 138t183.5 57q132 0 198.5 -78.5t66.5 -226.5v-114q0 -102 -32 -176t-97.5 -114t-167.5 -40
q-111 0 -182.5 46.5t-106.5 133.5t-35 207v216q0 188 57 315.5t171 193t283 65.5q168 0 271.5 -63t151 -185t47.5 -297v-215q0 -177 62 -263t196 -86t193 93t59 272v278q0 124 -27 213.5t-94.5 137.5t-188.5 48q-23 0 -48 -2.5t-44 -6.5q-35 53 -64.5 139.5t-29.5 196.5v13
q0 182 99.5 280t296.5 98q168 0 246.5 -71t78.5 -198v-8q0 -115 -56.5 -175.5t-172.5 -60.5q-121 0 -179 64t-58 173v15q0 67 19 116.5t52 78.5v10l46 -1q-26 -35 -38.5 -83.5t-12.5 -107.5v-17q0 -89 41 -139t129 -50q162 0 162 177v6q0 104 -58 157t-187 53
q-21 0 -41.5 -1t-40.5 -5v2q-126 -16 -189.5 -96t-63.5 -222z" />
    <glyph glyph-name="LlaMatraIi.tm" horiz-adv-x="2012" 
d="M1688 1111h76v-1111h-76v1111zM677 1156q114 0 193.5 -28t131.5 -78t80.5 -115.5t37.5 -139.5h3l-3 340h632v-65h-574v-1070h-75v571q0 254 -95 385.5t-327 131.5q-224 0 -336 -124.5t-113 -364.5v-30.5v-30.5h3v-190q0 -142 60 -223.5t187 -81.5q115 0 169.5 69.5
t54.5 194.5v110q0 120 -52.5 183t-162.5 63q-70 0 -125 -29t-90.5 -79.5t-49.5 -113.5l-2 97h10q25 80 97.5 136.5t181.5 56.5q134 0 200.5 -79.5t66.5 -228.5v-114q0 -102 -32 -176t-97.5 -114t-167.5 -40q-111 0 -182.5 46.5t-106.5 133.5t-35 207v230q0 182 58.5 307
t174 189t285.5 64zM1715 1070v65h292l12 -65h-304zM1977 1807q168 0 246 -71t78 -198v-8q0 -115 -56 -175.5t-172 -60.5q-121 0 -179.5 64t-58.5 173v15q0 67 19.5 116.5t51.5 78.5v10l47 -1q-27 -35 -39 -83.5t-12 -107.5v-17q0 -89 40.5 -139t129.5 -50q162 0 162 177v6
q0 104 -58.5 157t-187.5 53q-21 0 -41 -1t-41 -5v2q-124 -15 -188 -92t-64 -210v-11q0 -95 29.5 -171t76.5 -126h-77q-40 43 -70.5 122t-30.5 177v14q0 175 99.5 268.5t295.5 93.5z" />
    <glyph glyph-name="LllaMatraIi.tm" horiz-adv-x="1628" 
d="M728 -602q-164 0 -253.5 83.5t-89.5 249.5q0 34 3 62t6 47h74q-3 -20 -5.5 -49t-2.5 -61q0 -136 68.5 -202.5t199.5 -66.5q83 0 134 27.5t83.5 76t60.5 109.5l5 15q9 19 19 30t25 12v3q-99 3 -156.5 27.5t-83 77.5t-25.5 140v50h75v-46q0 -72 20 -116t71.5 -64.5
t146.5 -20.5h172l-14 -62h-119q-26 0 -36.5 -10.5t-19.5 -32.5l-8 -19q-34 -80 -75 -138.5t-106 -90t-169 -31.5zM195 1135h76v-1070h691q167 0 258 42t127 137.5t36 254.5v202q0 125 -34.5 206.5t-117 122.5t-225.5 41h-141v-1045h-75v1109h215q166 0 265.5 -47.5
t144.5 -144t45 -242.5v-201q0 -181 -46 -291t-155 -159.5t-299 -49.5h-765v1135zM1336 1807q167 0 245.5 -71t78.5 -198v-8q0 -115 -56.5 -175.5t-172.5 -60.5q-120 0 -178.5 64t-58.5 173v15q0 67 19.5 116.5t51.5 78.5v10l46 -1q-26 -35 -38.5 -83.5t-12.5 -107.5v-17
q0 -89 41 -139t129 -50q163 0 163 177v6q0 104 -58.5 157t-187.5 53q-21 0 -41.5 -1t-40.5 -5v2q-124 -15 -188 -92t-64 -210v-11q0 -99 32 -178.5t82 -131.5h-77q-44 45 -76.5 127.5t-32.5 184.5v14q0 175 99.5 268.5t295.5 93.5z" />
    <glyph glyph-name="VaMatraIi.tm" horiz-adv-x="1944" 
d="M1674 1135h76v-1135h-512l-1 64h437v1071zM1772 1807q168 0 246.5 -71t78.5 -198v-8q0 -115 -56.5 -175.5t-172.5 -60.5q-121 0 -179.5 64t-58.5 173v15q0 67 19.5 116.5t51.5 78.5v10l46 -1q-26 -35 -38.5 -83.5t-12.5 -107.5v-17q0 -90 41 -140t130 -50q162 0 162 178
v6q0 104 -58.5 157t-187.5 53q-21 0 -41.5 -1t-40.5 -5v2q-166 -18 -253 -128t-87 -312v-44q0 -191 80 -301.5t237 -133.5v-68q-126 15 -213.5 76.5t-132.5 168.5t-45 260v44q0 245 123.5 374t361.5 129zM699 1157q179 0 289.5 -64t162 -183t51.5 -287v-107q0 -113 -16 -201
t-46.5 -157.5t-74.5 -128.5l-4 36h412v-65h-491v9q49 67 80.5 140t47 161t15.5 200v108q0 149 -43 253.5t-137 161t-249 56.5q-231 0 -347 -128.5t-117 -376.5v-22.5v-23.5h2v-190q0 -142 60 -223.5t188 -81.5q115 0 169.5 69.5t54.5 194.5v110q0 120 -52.5 183t-162.5 63
q-70 0 -125 -29t-91 -79.5t-50 -113.5l-1 97h10q25 79 97.5 134.5t183.5 55.5q132 0 198.5 -78.5t66.5 -226.5v-114q0 -102 -32 -176t-97.5 -114t-167.5 -40q-111 0 -183 46.5t-106.5 133.5t-34.5 207v215q0 188 61 316t181.5 194t297.5 66z" />
    <glyph glyph-name="ShaMatraIi.tm" horiz-adv-x="2069" 
d="M1770 1441v-12q0 -93 29.5 -168.5t76.5 -125.5h-77q-40 44 -70.5 122t-30.5 175v14q0 174 99.5 267.5t295.5 93.5q168 0 246.5 -71t78.5 -198v-8q0 -115 -56.5 -175.5t-172.5 -60.5q-121 0 -179.5 64t-58.5 173v15q0 67 19.5 116.5t51.5 78.5v10l47 -1q-27 -35 -39 -83.5
t-12 -107.5v-17q0 -89 40.5 -139t129.5 -50q162 0 162 177v6q0 104 -58.5 157t-186.5 53q-22 0 -42 -1t-41 -5v2q-124 -15 -188 -91.5t-64 -209.5zM190 1135h76v-764q0 -169 63.5 -246.5t190.5 -77.5t189.5 77.5t62.5 246.5v764h76v-767q0 -131 -34.5 -217t-107 -129
t-186.5 -43t-187.5 43t-108 129.5t-34.5 217.5v766zM1229 1135h76v-764q0 -169 62 -246.5t186 -77.5q125 0 186 77.5t61 246.5v764h76v-767q0 -131 -34 -217t-105.5 -129t-183.5 -43t-184 43t-106 129.5t-34 217.5v766zM802 1135h1046v-65h-1046v65z" />
    <glyph glyph-name="SsaMatraIi.tm" horiz-adv-x="2465" 
d="M2191 1807q168 0 246.5 -71t78.5 -198v-8q0 -115 -56.5 -175.5t-172.5 -60.5q-121 0 -179 64t-58 173v15q0 67 19 116.5t52 78.5v10l46 -1q-26 -35 -38.5 -83.5t-12.5 -107.5v-17q0 -89 41 -139t129 -50q162 0 162 177v6q0 104 -58.5 157t-186.5 53q-22 0 -42 -1t-40 -5
v2q-125 -15 -188.5 -92t-63.5 -210v-11q0 -95 29.5 -171t76.5 -126h-77q-40 43 -71 122t-31 177v14q0 175 99.5 268.5t295.5 93.5zM699 1157q179 0 289.5 -64t162 -183t51.5 -287v-107q0 -113 -16 -201t-46.5 -157.5t-74.5 -128.5l-4 36h412v-65h-491v9q49 67 80.5 140
t47 161t15.5 200v108q0 149 -43 253.5t-137 161t-249 56.5q-231 0 -347 -128.5t-117 -376.5v-22.5v-23.5h2v-190q0 -142 60 -223.5t188 -81.5q115 0 169.5 69.5t54.5 194.5v110q0 120 -52.5 183t-162.5 63q-70 0 -125 -29t-91 -79.5t-50 -113.5l-1 97h10q25 79 97.5 134.5
t183.5 55.5q132 0 198.5 -78.5t66.5 -226.5v-114q0 -102 -32 -176t-97.5 -114t-167.5 -40q-111 0 -183 46.5t-106.5 133.5t-34.5 207v215q0 188 61 316t181.5 194t297.5 66zM1210 65h661l30 -13l28 13h506l-13 -65h-1212v65zM1901 1156q180 0 268.5 -110t88.5 -307v-208
q0 -187 -73 -313.5t-255 -194.5l-49 25q115 45 180.5 111.5t92.5 156.5t27 204v215q0 168 -68.5 260.5t-211.5 92.5q-144 0 -212.5 -92.5t-68.5 -260.5v-215q0 -114 27 -204t92.5 -156.5t179.5 -111.5l-49 -25q-182 68 -254.5 194.5t-72.5 313.5v208q0 197 88.5 307
t269.5 110zM1943 -511q-162 0 -236 65t-74 186v5q0 107 59 171t158 100l23 9l54 -17l-30 -13q-93 -40 -140.5 -94t-47.5 -146v-4q0 -90 55.5 -143t188.5 -53q40 0 75 3t71.5 9t78.5 14l-16 -69q-50 -11 -104 -17t-115 -6z" />
    <glyph glyph-name="SaMatraIi.tm" horiz-adv-x="2470" 
d="M1808 1424v-11q0 -60 11.5 -115t29.5 -98.5t37 -72.5l-37 15q17 5 42.5 8t48.5 3q137 0 216 -51.5t112.5 -148.5t33.5 -233v-303q0 -214 -80 -325.5t-253 -111.5q-177 0 -258 105t-81 321v370q0 167 -53.5 239.5t-169.5 72.5q-113 0 -175.5 -71.5t-62.5 -238.5v-778h-76
v567q0 166 -38 282.5t-129 177.5t-248 61q-223 0 -334 -127.5t-112 -373.5v-26.5v-27.5h3v-185q0 -142 60 -223.5t187 -81.5q115 0 169.5 69.5t54.5 194.5v110q0 120 -52.5 183t-162.5 63q-70 0 -125 -29t-90.5 -79.5t-49.5 -113.5l-2 92h9q26 81 98.5 138t183.5 57
q132 0 198.5 -78.5t66.5 -226.5v-114q0 -102 -32 -176t-97.5 -114t-167.5 -40q-111 0 -182.5 46.5t-106.5 133.5t-35 207v218q0 187 58 314t173 192.5t284 65.5q146 0 240.5 -49.5t144.5 -138.5t60 -208h3v42q0 182 75.5 268t218.5 86q147 0 218.5 -91t71.5 -285v-371
q0 -187 62 -274.5t201 -87.5q137 0 196.5 94t59.5 275v300q0 118 -27 201.5t-94 128t-188 44.5q-22 0 -45.5 -2.5t-41.5 -5.5q-35 52 -64.5 139t-29.5 195v13q0 182 99.5 280t297.5 98q168 0 246 -71t78 -198v-8q0 -115 -56.5 -175.5t-172.5 -60.5q-120 0 -178.5 64
t-58.5 173v15q0 67 19.5 116.5t51.5 78.5v10l46 -1q-26 -35 -38.5 -83.5t-12.5 -107.5v-17q0 -89 41 -139t129 -50q163 0 163 177v6q0 104 -58.5 157t-187.5 53q-21 0 -41.5 -1t-40.5 -5v2q-125 -16 -189 -96t-64 -222z" />
    <glyph glyph-name="HaMatraIi.tm" horiz-adv-x="2972" 
d="M2787 1807q168 0 246.5 -71t78.5 -198v-8q0 -115 -56.5 -175.5t-172.5 -60.5q-121 0 -179 64t-58 173v15q0 67 19 116.5t51 78.5v10l47 -1q-27 -35 -39 -83.5t-12 -107.5v-17q0 -89 40.5 -139t129.5 -50q162 0 162 177v6q0 104 -58.5 157t-186.5 53q-22 0 -42 -1t-41 -5
v2q-123 -15 -187 -92t-64 -210v-11q0 -95 29.5 -171t76.5 -126h-77q-40 43 -71 122t-31 177v14q0 175 99.5 268.5t295.5 93.5zM1275 65h334v-65h-334v65zM1651 -266v-65h-1207l-15 65h1222zM698 1157q178 0 289 -64t162.5 -183t51.5 -287v-107q0 -113 -16 -201t-46.5 -157.5
t-74.5 -128.5l-4 36h411v-65h-490v9q49 67 80.5 140t47 161t15.5 200v108q0 149 -43 253.5t-137 161t-249 56.5q-232 0 -348 -128.5t-116 -376.5v-22.5v-23.5h2v-190q0 -142 60 -223.5t188 -81.5q115 0 169.5 69.5t54.5 194.5v110q0 120 -52.5 183t-162.5 63q-70 0 -125 -29
t-91 -79.5t-50 -113.5l-1 97h10q25 79 97.5 134.5t183.5 55.5q132 0 198.5 -78.5t66.5 -226.5v-114q0 -102 -32 -176t-98 -114t-167 -40q-111 0 -183 46.5t-106.5 133.5t-34.5 207v215q0 188 61 316t181 194t298 66zM550 -266v-65h-157q-105 0 -172 -12.5t-113.5 -35
t-91.5 -55.5l9 81q35 26 79 45.5t111.5 30.5t173.5 11h161zM1877 1156q139 0 205.5 -75t77.5 -214h3q12 138 93.5 213.5t225.5 75.5q159 0 233 -85.5t74 -235.5v-20q0 -132 -64.5 -205.5t-183.5 -82.5v-3q82 -3 145 -37.5t98.5 -106.5t35.5 -189v-30q0 -178 -55 -286.5
t-186 -157t-360 -48.5h-757l-14 65h764q204 0 319.5 41t163.5 136t48 255v27q0 160 -74.5 229t-216.5 70l-83 2v62l87 1q138 3 198.5 69.5t60.5 182.5v19q0 81 -25 139.5t-78.5 89.5t-140.5 31q-84 0 -146.5 -32.5t-95.5 -104.5t-33 -191v-760h-76v783q0 158 -55.5 231.5
t-181.5 73.5q-117 0 -180 -73.5t-63 -231.5v-783h-76v782q0 191 81.5 282.5t231.5 91.5z" />
    <glyph glyph-name="KssaMatraIi.tm" horiz-adv-x="3118" 
d="M2844 1807q168 0 246.5 -71t78.5 -198v-8q0 -115 -56.5 -175.5t-172.5 -60.5q-120 0 -178.5 64t-58.5 173v15q0 67 19 116.5t52 78.5v10l46 -1q-26 -35 -38.5 -83.5t-12.5 -107.5v-17q0 -89 41 -139t129 -50q163 0 163 177v6q0 104 -58.5 157t-187.5 53q-21 0 -41.5 -1
t-40.5 -5v2q-124 -15 -188 -92t-64 -210v-11q0 -95 29.5 -171t77.5 -126h-77q-41 43 -71.5 122t-30.5 177v14q0 175 99 268.5t295 93.5zM885 603v63h157q153 0 215 -58t69 -179h3v19q0 161 80 248t221 87q143 0 211.5 -80.5t68.5 -231.5v-91q0 -128 -33 -206.5t-82 -135.5
l-13 27h486v-65h-561v9q62 70 95 149t33 208v90q0 124 -52.5 192.5t-166.5 68.5q-73 0 -129.5 -33.5t-88 -102.5t-31.5 -178v-403h-75v342q0 95 -24 152t-80 83t-151 26h-152zM886 665v-61h-481l-168 -31q-4 -27 -6 -63.5t-3 -73.5t-1 -69q0 -160 82 -240.5t244 -80.5
q153 0 222.5 79t69.5 248v261l2 11v463h71v-463v-11v-261q0 -132 -38 -219.5t-118.5 -131t-207.5 -43.5q-201 0 -301 100t-100 289q0 39 1.5 84t5 89.5t9.5 78.5l195 39l52 6h470zM1026 1135v-63h-138l-18 3h-442l-2 -435l-70 -8v503h670zM1863 65h662l29 -13l28 13h506
l-12 -65h-1213v65zM2554 1156q181 0 269.5 -110t88.5 -307v-208q0 -187 -73.5 -313.5t-255.5 -194.5l-49 25q115 45 180.5 111.5t92.5 156.5t27 204v215q0 168 -68.5 260.5t-211.5 92.5q-144 0 -212.5 -92.5t-68.5 -260.5v-215q0 -114 27 -204t92.5 -156.5t179.5 -111.5
l-48 -25q-182 68 -255 194.5t-73 313.5v208q0 197 89 307t269 110zM2596 -511q-161 0 -235 65t-74 186v5q0 107 58.5 171t157.5 100l23 9l54 -17l-30 -13q-93 -40 -140.5 -94t-47.5 -146v-4q0 -90 56 -143t188 -53q41 0 76 3t71 9t78 14l-15 -69q-50 -11 -104 -17t-116 -6z
M963 1072v63h276l12 -63h-288z" />
    <glyph glyph-name="KaMatraU.tm" horiz-adv-x="2052" 
d="M1403 603v63h82q158 0 255 -44.5t142 -137.5t45 -238v-30q0 -212 -86 -360t-266.5 -226t-466.5 -78h-2q-316 0 -523.5 100.5t-309.5 297.5t-102 485q0 159 18.5 292t47 236.5t56.5 171.5h80q-25 -58 -47 -132t-39.5 -162t-27.5 -189.5t-10 -215.5q0 -267 92.5 -448.5
t283 -274t481.5 -92.5h2q262 0 425.5 69t240 202t76.5 323v30q0 191 -85.5 274.5t-285.5 83.5h-76zM1405 665v-61h-481l-168 -31q-4 -27 -6 -63.5t-3 -73.5t-1 -69q0 -160 82 -240.5t244 -80.5q153 0 222.5 79t69.5 248v261l2 11v463h71v-463v-11v-261q0 -132 -38 -219.5
t-118.5 -131t-207.5 -43.5q-201 0 -301 100t-100 289q0 39 1.5 84t5 89.5t8.5 78.5l196 39l52 6h470zM1545 1135v-63h-138l-19 3h-441l-2 -435l-71 -8v503h671zM1475 1072v63h276l12 -63h-288z" />
    <glyph glyph-name="NgaMatraU.tm" horiz-adv-x="2011" 
d="M1741 177h75v-533h-75v533zM781 1107h75v-1107h-75v1107zM1137 741q134 0 198.5 -79.5t64.5 -230.5v-49q0 -130 -29 -208.5t-81 -135.5l-19 26h505v-64h-578v9q68 69 97.5 149t29.5 208v48q0 124 -50.5 190.5t-160.5 66.5q-97 0 -163.5 -57t-97.5 -159h-4v80h9
q17 58 54.5 104.5t94 74t130.5 27.5zM1740 1135h76v-1135h-76v1135zM1124 1135v-65h-853v-1070h-76v1135h929zM1036 1070v65h293l11 -65h-304z" />
    <glyph glyph-name="CaMatraU.tm" horiz-adv-x="1630" 
d="M890 603v63h690l12 -63h-702zM1280 624h75v-624h-75v624zM886 665v-61h-481l-168 -31q-4 -27 -6 -63.5t-3 -73.5t-1 -69q0 -160 82 -240.5t244 -80.5q153 0 222.5 79t69.5 248v261l2 11v463h71v-463v-11v-261q0 -132 -38 -219.5t-118.5 -131t-207.5 -43.5
q-201 0 -301 100t-100 289q0 39 1.5 84t5 89.5t9.5 78.5l195 39l52 6h470zM1026 1135v-63h-138l-18 3h-442l-2 -435l-70 -8v503h670zM950 1072v63h276l12 -63h-288z" />
    <glyph glyph-name="JaMatraU.tm" horiz-adv-x="2637" 
d="M1718 1135v-65h-231l-29 65h260zM620 1169q134 0 223.5 -39.5t139 -114t61.5 -180.5h3q7 155 80.5 240.5t219.5 85.5q63 0 109.5 -14t78.5 -40l5 -13q62 -43 89 -121.5t27 -182.5v-100q0 -99 -23 -174.5t-75.5 -128.5t-141 -86.5t-220.5 -48.5l-583 -68
q-133 -15 -211 -51t-111.5 -96.5t-33.5 -150.5v-9q0 -117 58 -181.5t178 -64.5q75 0 131 25.5t104.5 69.5t103.5 99l130 131q65 65 127 111t130.5 70.5t150.5 24.5q99 0 161 -33t92 -94.5t30 -149.5v-17q0 -148 -76 -225t-234 -77q-67 0 -131.5 13.5t-122.5 36.5l-17 72
q64 -28 129 -42t130 -14q129 0 188 59t59 177v16q0 99 -50 156t-160 57q-103 0 -182.5 -46t-164.5 -132l-132 -134q-62 -62 -117.5 -112t-121 -78.5t-159.5 -28.5q-151 0 -229.5 81.5t-78.5 225.5v12q0 111 41.5 185t133.5 117t242 60l583 68q154 18 240.5 62.5t122.5 121
t36 190.5v102q0 96 -24 164t-77.5 104t-142.5 36q-77 0 -133 -32.5t-87 -104t-31 -189.5v-353h-73v271q0 137 -38.5 230t-124.5 140t-228 47q-195 0 -297.5 -93.5t-104.5 -259.5h4v-98q0 -116 53 -182.5t169 -66.5q108 0 157 59.5t49 164.5v33q0 94 -47.5 146.5t-144.5 52.5
q-62 0 -113 -25.5t-85.5 -70t-47.5 -101.5l-2 90h10q25 71 91 120t166 49q122 0 183 -68t61 -192v-34q0 -136 -67 -210.5t-210 -74.5q-151 0 -223.5 85t-72.5 234v74q0 205 119.5 319t349.5 114zM1602 1070v65h562q195 0 286 -90.5t91 -263.5v-46q0 -156 -71 -240t-213 -84
q-101 0 -166.5 42t-97.5 118.5t-32 179.5v61q0 82 10 142.5t25 96.5l74 22h8q-21 -46 -33 -109.5t-12 -147.5v-62q0 -130 55 -204.5t168 -74.5q105 0 158.5 65.5t53.5 194.5v44q0 145 -70 218t-228 73h-568z" />
    <glyph glyph-name="NyaMatraU.tm" horiz-adv-x="2407" 
d="M1103 1108h75v-1108h-75v1108zM1462 740q159 0 226 -110.5t67 -324.5v-139q0 -95 -5.5 -181t-13.5 -154t-18 -109l-1 -11q-24 -96 -81.5 -179t-153.5 -145.5t-236 -98t-329 -35.5q-206 0 -358.5 37.5t-255.5 105.5t-159 159t-69 199h2137v-64h-2045q16 -68 64 -134
t136.5 -119.5t224 -85.5t325.5 -32q175 0 302 31.5t212.5 86.5t136 126.5t71.5 150.5l2 13q9 40 18 108t14.5 153t5.5 177v133q0 183 -51.5 277.5t-188.5 94.5q-106 0 -175 -64.5t-93 -181.5h-9v109h18q23 89 94 148t188 59zM2136 1135h76v-1429h-76v1429zM957 1135h356v-65
h-356v65zM983 1135v-65h-200q-287 0 -421.5 -124t-134.5 -373v-17.5v-17.5h3v-190q0 -142 60 -223.5t187 -81.5q115 0 169.5 69.5t54.5 194.5v110q0 120 -52.5 183t-162.5 63q-69 0 -124.5 -29t-91.5 -79.5t-50 -113.5l-1 97h10q25 80 97.5 136.5t182.5 56.5
q133 0 199.5 -79.5t66.5 -228.5v-114q0 -102 -32 -176t-97.5 -114t-167.5 -40q-111 0 -182.5 46.5t-106.5 133.5t-35 207v204q0 186 67.5 311.5t206.5 189.5t352 64h203zM1289 1070v65h292l12 -65h-304z" />
    <glyph glyph-name="TtaMatraU.tm" horiz-adv-x="1602" 
d="M774 1135h75v-1135h-75v1135zM1443 900v-39t-1 -38h-77q1 20 1.5 39t0.5 37q0 323 -128.5 480.5t-397.5 157.5q-197 0 -325.5 -85t-191.5 -256.5t-63 -431.5v-358q0 -394 140 -584t433 -190q257 0 378 147t121 456v100q0 161 -52.5 248.5t-178.5 87.5q-102 0 -168.5 -70
t-91.5 -198h-8v109h17q23 99 92 164t180 65q152 0 219 -103.5t67 -295.5v-106q0 -338 -139 -505t-436 -167q-330 0 -490 208.5t-160 635.5v354q0 424 162.5 633.5t494.5 209.5q310 0 456 -177t146 -528z" />
    <glyph glyph-name="NnaMatraU.tm" horiz-adv-x="3791" 
d="M1780 1162q167 0 287.5 -25t198.5 -65l1 -2q99 -47 158 -126t85.5 -184.5t26.5 -231.5v-146q0 -123 -32.5 -214t-101 -140t-177.5 -49q-111 0 -181.5 49.5t-103.5 140t-33 213.5v146q0 127 27.5 233.5t91 186t171.5 126.5l48 -40q-100 -44 -157 -118t-80.5 -172
t-23.5 -215v-145q0 -105 24.5 -181t78 -116t138.5 -40q84 0 135.5 40t75 116t23.5 181v145q0 118 -22.5 215.5t-78 170.5t-155.5 117l-8 5q-44 16 -105 30t-139 22.5t-172 8.5q-142 0 -249.5 -18.5t-176.5 -48.5l-49 44q83 41 200 64t275 23zM2626 1162q165 0 268.5 -40
t152.5 -116.5t49 -187.5v-5q0 -140 -61.5 -215.5t-179.5 -84.5v-2q81 -4 141.5 -42t94.5 -117t34 -211v-22q0 -125 -17 -233.5t-39 -162.5l-2 -17q-51 -111 -160.5 -203.5t-285 -160.5t-423 -105t-573.5 -37q-371 0 -647.5 41.5t-465.5 116.5t-296 176t-140 220h3520v-64
h-3408q38 -79 138 -155t273 -137t427.5 -97t598.5 -36q310 0 544.5 34.5t400.5 96t269 143.5t149 176l1 14q24 53 41.5 161.5t17.5 229.5v19q0 183 -72 260.5t-212 78.5l-78 2v61l83 2q136 2 194.5 71.5t58.5 195.5v3q0 90 -40 154t-128 98.5t-231 34.5q-115 0 -212.5 -18.5
t-160.5 -44.5l-47 44q75 35 183 58t240 23zM3520 1135h76v-1429h-76v1429zM903 1162q164 0 282.5 -24t194.5 -63l1 -3q98 -46 157.5 -125.5t85.5 -185.5t26 -233v-146q0 -123 -32.5 -214t-100.5 -140t-178 -49q-111 0 -181 49.5t-103 140t-33 213.5v146q0 128 27.5 234.5
t91.5 186.5t170 126l48 -40q-99 -44 -156 -117.5t-80.5 -172t-23.5 -216.5v-145q0 -105 24.5 -181t78 -116t137.5 -40t135.5 40t75.5 116t24 181v145q0 119 -22.5 217t-78 171.5t-154.5 117.5l-10 5q-62 24 -162.5 40t-242.5 16q-332 0 -504 -138t-173 -408v-7.5v-6.5h3
v-188q0 -142 59.5 -223.5t187.5 -81.5q115 0 169.5 69.5t54.5 194.5v110q0 120 -52.5 183t-162.5 63q-70 0 -125 -29t-90.5 -79.5t-49.5 -113.5l-2 97h10q25 80 97.5 136.5t181.5 56.5q134 0 200.5 -79.5t66.5 -228.5v-114q0 -102 -32 -176t-97.5 -114t-167.5 -40
q-111 0 -183 46.5t-106.5 133.5t-34.5 207v179q0 203 86 340t253 207t410 70z" />
    <glyph glyph-name="TaMatraU.tm" horiz-adv-x="2051" 
d="M1780 1135h76v-1428h-76v1428zM896 605v64h47q246 0 358.5 -121t112.5 -397v-49q0 -79 -4 -151.5t-11 -131t-16 -95.5l-2 -16q-29 -113 -105.5 -201.5t-209 -139t-331.5 -50.5q-220 0 -364.5 55.5t-219.5 154t-89 227.5h1794v-64h-1703q11 -59 48.5 -114t107 -98.5
t174.5 -69t252 -25.5q176 0 292.5 43t183 117t91.5 168l4 17q9 35 16.5 93.5t11.5 130.5t4 148v45q0 170 -42 271t-131.5 145t-232.5 44h-36zM888 665v-61h-480l-169 -31q-3 -27 -5.5 -63.5t-3 -73.5t-0.5 -69q0 -160 81.5 -240.5t244.5 -80.5q153 0 222 79t69 248v261l3 11
v463h70v-463v-11v-261q0 -132 -38 -219.5t-118 -131t-208 -43.5q-200 0 -300.5 100t-100.5 289q0 39 2 84t5.5 89.5t8.5 78.5l196 39l51 6h470zM1028 1135v-63h-137l-19 3h-441l-2 -435l-71 -8v503h670zM960 1072v63h277l11 -63h-288z" />
    <glyph glyph-name="NaMatraU.tm" horiz-adv-x="2071" 
d="M769 1108h75v-1108h-75v1108zM1125 740q163 0 229.5 -111.5t66.5 -331.5v-108q0 -99 -4.5 -188.5t-12 -160.5t-16.5 -117l-2 -14q-27 -114 -104.5 -203t-212.5 -140.5t-337 -51.5q-168 0 -290.5 32t-205 90.5t-128 139t-58.5 178.5h1826v-64h-1735q14 -60 52.5 -115.5
t108 -100t176 -70t254.5 -25.5q181 0 299 44t185 119.5t92 170.5l2 15q10 44 17.5 115t12.5 160t5 185v102q0 189 -51.5 284.5t-189.5 95.5q-98 0 -169.5 -64t-97.5 -182h-9v109h19q15 60 53.5 106.5t96 73.5t128.5 27zM1800 1135h76v-1429h-76v1429zM998 1135v-65h-727
v-1070h-76v1135h803zM960 1070v65h293l12 -65h-305z" />
    <glyph glyph-name="NnnaMatraU.tm" horiz-adv-x="2902" 
d="M1743 1162q164 0 267 -40t151 -116.5t48 -187.5v-5q0 -140 -61.5 -215.5t-178.5 -84.5v-2q81 -4 141.5 -42t94 -117t33.5 -211v-22q0 -83 -5 -160t-14 -138.5t-18 -99.5l-2 -13q-41 -140 -164.5 -249t-340 -170t-539.5 -61q-263 0 -457 39t-325 109.5t-203.5 166.5
t-93.5 211h2631v-64h-2531q23 -75 88 -146t181.5 -127.5t291.5 -89.5t418 -33q228 0 396.5 32t284.5 89t186 133.5t99 164.5l1 13q15 54 27.5 163t12.5 231v19q0 183 -72 260.5t-213 78.5l-78 2v61l83 2q136 2 195 71.5t59 195.5v3q0 90 -40 154t-127 98.5t-229 34.5
q-120 0 -216.5 -19t-161.5 -44l-48 43q77 36 184.5 59t244.5 23zM2631 1135h76v-1429h-76v1429zM903 1162q164 0 282 -24.5t194 -64.5l1 -2q99 -46 158.5 -125t85.5 -184.5t26 -233.5v-146q0 -123 -32.5 -214t-100.5 -140t-178 -49q-111 0 -181 49.5t-103 140t-33 213.5v146
q0 128 27.5 234.5t91.5 186t170 125.5l47 -41q-99 -42 -155.5 -115.5t-80 -171.5t-23.5 -217v-145q0 -105 24.5 -181t78 -116t137.5 -40t135.5 40t75.5 116t24 181v145q0 119 -22.5 217t-78 171.5t-155.5 115.5l-9 5q-63 24 -163 41t-242 17q-332 0 -504 -138t-173 -408
v-7.5v-6.5h3v-188q0 -142 59.5 -223.5t187.5 -81.5q115 0 169.5 69.5t54.5 194.5v110q0 120 -52.5 183t-162.5 63q-70 0 -125 -29t-90.5 -79.5t-49.5 -113.5l-2 97h10q25 80 97.5 136.5t181.5 56.5q134 0 200.5 -79.5t66.5 -228.5v-114q0 -102 -32 -176t-97.5 -114
t-167.5 -40q-111 0 -183 46.5t-106.5 133.5t-34.5 207v179q0 203 86 340t253 207t410 70z" />
    <glyph glyph-name="PaMatraU.tm" horiz-adv-x="1437" 
d="M1166 177h76v-533h-76v533zM1165 1135h77v-1135h-550v67h473v1068zM272 1135v-1068h678v-67h-755v1135h77z" />
    <glyph glyph-name="MaMatraU.tm" horiz-adv-x="2222" 
d="M285 1135h78q-23 -72 -43.5 -160.5t-36 -192t-23.5 -220t-8 -245.5q0 -236 62 -405.5t194.5 -260t343.5 -90.5h5q265 0 392 115t134 341v29h77l-1 -32q-5 -167 -70.5 -283.5t-197 -176.5t-334.5 -60h-5q-235 0 -385 98.5t-221.5 283.5t-71.5 443q0 133 9.5 252.5
t25.5 223.5t35.5 189.5t40.5 150.5zM789 1135h76v-1070h691q167 0 258 42t127 137.5t36 254.5v202q0 125 -34.5 206.5t-117 122.5t-225.5 41h-141v-1045h-76v1109h216q166 0 265.5 -47.5t144.5 -144t45 -242.5v-201q0 -181 -46 -291t-155 -159.5t-299 -49.5h-765v1135z" />
    <glyph glyph-name="YaMatraU.tm" horiz-adv-x="1918" 
d="M1647 177h76v-533h-76v533zM1646 1135h77v-1135h-486v67h409v1068zM1389 0h-634l4 238h-4q-14 -117 -81 -187.5t-200 -70.5q-137 0 -210.5 86.5t-73.5 265.5v803h76v-801q0 -148 56.5 -217t163.5 -69q130 0 190 86.5t60 266.5v734h77v-1068h576v-67z" />
    <glyph glyph-name="RaMatraU.tm" horiz-adv-x="2108" 
d="M1324 1106h76v-1105h-76v1105zM1686 740q154 0 222.5 -100t68.5 -292v-50q0 -253 -90 -424t-276.5 -257.5t-475.5 -86.5h-8q-321 0 -532.5 103.5t-316 310.5t-104.5 517q0 113 9.5 213t25 185.5t33.5 155t36 120.5h79q-21 -58 -40 -129.5t-33.5 -156.5t-23 -182
t-8.5 -206q0 -289 94.5 -480.5t288.5 -286.5t492 -95h8q262 0 431 77t251 232.5t82 389.5v44q0 160 -52.5 244t-182.5 84q-106 0 -175.5 -65t-95.5 -182h-9v108h18q24 91 95.5 150t188.5 59zM1551 1135v-65h-724v-1070h-76v1135h800zM1509 1070v65h293l11 -65h-304z" />
    <glyph glyph-name="RraMatraU.tm" horiz-adv-x="2105" 
d="M1834 1135h76v-1429h-76v1429zM1106 1156q158 0 232 -85.5t74 -234.5v-20q0 -135 -63 -207t-185 -80v-3q85 -4 147.5 -45t96.5 -126.5t34 -224.5v-55q0 -69 -3 -137.5t-8 -125t-12 -90.5l-1 -14q-26 -119 -105 -210.5t-219 -143.5t-350 -52q-228 0 -377.5 56.5
t-228 158.5t-94.5 237h1866v-64h-1776q12 -62 51.5 -119.5t112 -103.5t182.5 -72.5t264 -26.5q187 0 310 43.5t192.5 121t93.5 178.5l2 17q7 33 12 89t8.5 123.5t3.5 135.5v55q0 194 -72 277.5t-219 85.5l-83 1v62l87 1q141 3 200 68t59 184v18q0 82 -24.5 140t-78.5 89
t-141 31q-84 0 -146 -32.5t-95.5 -104.5t-33.5 -191v-760h-76v783q0 158 -55.5 231.5t-181.5 73.5q-117 0 -180 -73.5t-63 -231.5v-783h-76v782q0 191 81.5 282.5t231.5 91.5q139 0 205.5 -75t77.5 -214h3q12 138 93.5 213.5t226.5 75.5z" />
    <glyph glyph-name="LaMatraU.tm" horiz-adv-x="2378" 
d="M2107 1135h76v-1429h-76v1429zM763 -699q-170 0 -294 32.5t-206.5 92.5t-128 143.5t-56.5 184.5h2105v-64h-2013q12 -62 49.5 -120.5t107.5 -104t177.5 -72.5t258.5 -27q190 0 312.5 45t189 123t88.5 178l2 16q5 25 9.5 69.5t8 96.5t3.5 100h76q0 -48 -3.5 -100.5
t-8 -97.5t-9.5 -73l-1 -15q-24 -119 -101 -211t-216 -144t-350 -52zM670 1156q168 0 271.5 -63t151 -185t47.5 -297v-215q0 -177 62 -263t196 -86t193 93t59 272v277q0 125 -27 214.5t-94 137t-188 47.5q-27 0 -52 -2.5t-48 -6.5l15 69q20 3 45 5.5t50 2.5
q143 0 224.5 -55.5t116.5 -159.5t35 -251v-277q0 -142 -34.5 -238t-107 -145.5t-187.5 -49.5q-171 0 -253 104t-82 308v216q0 155 -38.5 262t-125 162.5t-230.5 55.5q-220 0 -328 -127.5t-109 -375.5v-23v-24h3v-190q0 -142 60 -223.5t187 -81.5q115 0 169.5 69.5
t54.5 194.5v110q0 120 -52.5 183t-162.5 63q-70 0 -125 -29t-90.5 -79.5t-49.5 -113.5l-2 97h10q25 80 97.5 136.5t181.5 56.5q134 0 200.5 -79.5t66.5 -228.5v-114q0 -102 -32 -176t-97.5 -114t-167.5 -40q-111 0 -182.5 46.5t-106.5 133.5t-35 207v216q0 188 57 315.5
t171 193t283 65.5z" />
    <glyph glyph-name="LlaMatraU.tm" horiz-adv-x="2988" 
d="M2566 740q155 0 223 -100t68 -292v-17q0 -302 -132 -498.5t-408.5 -292t-710.5 -95.5h-22q-355 0 -619.5 65.5t-439.5 200.5t-262 340.5t-87 486.5q0 115 8 222t23.5 202t36.5 173h78q-36 -129 -52.5 -277.5t-16.5 -319.5q0 -264 81 -458t245 -319.5t414.5 -186.5
t589.5 -61h23q308 0 530 48.5t364.5 149t211 255t68.5 367.5v9q0 160 -53 244t-183 84q-107 0 -176 -65t-95 -182h-9v108h18q24 91 95.5 150t188.5 59zM2204 1111h75v-1111h-75v1111zM1203 1156q112 0 191 -28t130.5 -78t79.5 -115.5t37 -139.5h4l-4 340h743v-65h-684v-1070
h-76v571q0 254 -94 385.5t-323 131.5q-223 0 -334 -124.5t-112 -364.5v-30.5v-30.5h2v-190q0 -142 60.5 -223.5t187.5 -81.5q115 0 169.5 69.5t54.5 194.5v110q0 120 -52.5 183t-162.5 63q-70 0 -125 -29t-91 -79.5t-50 -113.5l-1 97h10q25 80 97.5 136.5t181.5 56.5
q133 0 200 -79.5t67 -228.5v-114q0 -102 -32 -176t-97.5 -114t-167.5 -40q-111 0 -183 46.5t-106.5 133.5t-34.5 207v230q0 182 58 307t172.5 189t284.5 64zM2360 1070v65h292l12 -65h-304z" />
    <glyph glyph-name="LllaMatraU.tm" horiz-adv-x="2224" 
d="M288 1135h78q-23 -72 -43.5 -160.5t-35.5 -191.5t-23.5 -220t-8.5 -246q0 -254 78 -432t247 -271.5t441 -93.5q189 0 319 50.5t217 123.5l15 12q15 13 26.5 20.5t26.5 10.5v3q-88 3 -140.5 28.5t-75.5 77.5t-23 135v48h74v-44q0 -73 19 -118t69.5 -66t142.5 -21h179
l-14 -61h-116q-30 0 -48.5 -9.5t-39.5 -28.5l-15 -13q-72 -62 -161 -111t-201.5 -77t-253.5 -28q-296 0 -482.5 101.5t-273.5 295.5t-87 470q0 133 9 252.5t25 223.5t35.5 189.5t40.5 150.5zM791 1135h76v-1070h691q166 0 257.5 42t127.5 137.5t36 254.5v202
q0 125 -35 206.5t-117.5 122.5t-224.5 41h-141v-1045h-76v1109h216q166 0 265.5 -47.5t144.5 -144t45 -242.5v-201q0 -181 -46 -291t-155.5 -159.5t-298.5 -49.5h-765v1135z" />
    <glyph glyph-name="VaMatraU.tm" horiz-adv-x="1881" 
d="M1611 177h74v-533h-74v533zM1610 1135h75v-1135h-472l-2 65h399v1070zM699 1157q179 0 289.5 -64t162 -183t51.5 -287v-107q0 -113 -16 -201t-46.5 -157.5t-74.5 -128.5l-4 36h412v-65h-491v9q49 67 80.5 140t47 161t15.5 200v108q0 149 -43 253.5t-137 161t-249 56.5
q-231 0 -347 -128.5t-117 -376.5v-22.5v-23.5h2v-190q0 -142 60 -223.5t188 -81.5q115 0 169.5 69.5t54.5 194.5v110q0 120 -52.5 183t-162.5 63q-70 0 -125 -29t-91 -79.5t-50 -113.5l-1 97h10q25 79 97.5 134.5t183.5 55.5q132 0 198.5 -78.5t66.5 -226.5v-114
q0 -102 -32 -176t-97.5 -114t-167.5 -40q-111 0 -183 46.5t-106.5 133.5t-34.5 207v215q0 188 61 316t181.5 194t297.5 66z" />
    <glyph glyph-name="ShaMatraU.tm" horiz-adv-x="2875" 
d="M1915 1135v-65h-213l-29 65h242zM190 1135h76v-764q0 -169 63.5 -246.5t190.5 -77.5t189.5 77.5t62.5 246.5v764h76v-767q0 -131 -34.5 -217t-107 -129t-186.5 -43t-187.5 43t-108 129.5t-34.5 217.5v766zM1229 1135h76v-764q0 -169 62 -246.5t186 -77.5q125 0 186 77.5
t61 246.5v764h76v-767q0 -131 -34 -217t-105.5 -129t-183.5 -43t-184 43t-106 129.5t-34 217.5v766zM802 1135h1046v-65h-1046v65zM1839 1070v65h563q195 0 286 -90.5t91 -263.5v-46q0 -156 -71 -240t-214 -84q-100 0 -165.5 42t-97.5 118.5t-32 179.5v61q0 82 10 142.5
t25 96.5l74 22h8q-22 -46 -33.5 -109.5t-11.5 -147.5v-62q0 -130 55 -204.5t168 -74.5q105 0 158.5 65.5t53.5 194.5v44q0 145 -70 218t-228 73h-569z" />
    <glyph glyph-name="SsaMatraU.tm" horiz-adv-x="3233" 
d="M1184 65h687l29 -15l29 15h506l-13 -65h-1238v65zM1900 1156q62 0 111 -12.5t85 -36.5l5 -13q81 -44 119 -136t38 -220v-207q0 -187 -73 -313.5t-255 -194.5l-49 25q115 45 180 111.5t92.5 156.5t27.5 204v215q0 168 -68.5 260.5t-212.5 92.5q-143 0 -211.5 -92.5
t-68.5 -260.5v-215q0 -114 27 -204t92.5 -156.5t179.5 -111.5l-49 -25q-182 68 -254.5 194.5t-72.5 313.5v208q0 197 88.5 307t268.5 110zM2360 1135v-65h-286l-46 65h332zM699 1157q179 0 289.5 -64t162 -183t51.5 -287v-107q0 -113 -16 -201t-46.5 -157.5t-74.5 -128.5
l-4 36h412v-65h-491v9q49 67 80.5 140t47 161t15.5 200v108q0 149 -43 253.5t-137 161t-249 56.5q-231 0 -347 -128.5t-117 -376.5v-22.5v-23.5h2v-190q0 -142 60 -223.5t188 -81.5q115 0 169.5 69.5t54.5 194.5v110q0 120 -52.5 183t-162.5 63q-70 0 -125 -29t-91 -79.5
t-50 -113.5l-1 97h10q25 79 97.5 134.5t183.5 55.5q132 0 198.5 -78.5t66.5 -226.5v-114q0 -102 -32 -176t-97.5 -114t-167.5 -40q-111 0 -183 46.5t-106.5 133.5t-34.5 207v215q0 188 61 316t181.5 194t297.5 66zM1943 -511q-162 0 -236 65t-74 186v5q0 107 59 171t158 100
l23 9l54 -17l-30 -13q-93 -40 -140.5 -94t-47.5 -146v-4q0 -90 55.5 -143t188.5 -53q40 0 75 3t71.5 9t78.5 14l-16 -69q-50 -11 -104 -17t-115 -6zM2197 1070v65h563q195 0 286 -90.5t91 -263.5v-46q0 -156 -71 -240t-214 -84q-100 0 -165.5 42t-97.5 118.5t-32 179.5v61
q0 82 10 142.5t25 96.5l74 22h8q-22 -46 -33.5 -109.5t-11.5 -147.5v-62q0 -130 55 -204.5t168 -74.5q105 0 158.5 65.5t53.5 194.5v44q0 145 -70 218t-228 73h-569z" />
    <glyph glyph-name="SaMatraU.tm" horiz-adv-x="3277" 
d="M2387 1135v-65h-292l-31 65h323zM674 1156q145 0 239.5 -49.5t144.5 -138.5t61 -208h3v42q0 182 75.5 268t218.5 86q147 0 218.5 -91t71.5 -285v-371q0 -187 62 -274.5t201 -87.5q137 0 196.5 94t59.5 275v286q0 122 -26 208t-93.5 132t-192.5 46q-26 0 -48 -2t-43 -5
l14 68q20 3 42 5t47 2q63 0 112 -11.5t87 -34.5l12 -17q95 -48 130.5 -147.5t35.5 -242.5v-286q0 -214 -80 -325.5t-253 -111.5q-177 0 -258 105t-81 321v370q0 167 -53.5 239.5t-169.5 72.5q-113 0 -175.5 -71.5t-62.5 -238.5v-778h-76v567q0 166 -38 282.5t-129 177.5
t-248 61q-223 0 -334 -127.5t-112 -373.5v-24v-25h3v-190q0 -142 60 -223.5t187 -81.5q115 0 169.5 69.5t54.5 194.5v110q0 120 -52.5 183t-162.5 63q-70 0 -125 -29t-90.5 -79.5t-49.5 -113.5l-2 97h10q25 80 97.5 136.5t181.5 56.5q134 0 200.5 -79.5t66.5 -228.5v-114
q0 -102 -32 -176t-97.5 -114t-167.5 -40q-111 0 -182.5 46.5t-106.5 133.5t-35 207v218q0 187 58 314t173 192.5t284 65.5zM2241 1070v65h563q195 0 285.5 -90.5t90.5 -263.5v-46q0 -156 -70.5 -240t-213.5 -84q-101 0 -166.5 42t-97.5 118.5t-32 179.5v61q0 82 10 142.5
t26 96.5l74 22h7q-21 -46 -32.5 -109.5t-11.5 -147.5v-62q0 -130 55 -204.5t168 -74.5q105 0 158 65.5t53 194.5v44q0 145 -69.5 218t-227.5 73h-569z" />
    <glyph glyph-name="HaMatraU.tm" horiz-adv-x="3756" 
d="M1277 64h335v-64h-335v64zM1877 1156q139 0 205.5 -75t77.5 -214h3q12 138 93.5 213.5t225.5 75.5q59 0 104.5 -11.5t78.5 -35.5l9 -16q60 -35 87.5 -103t27.5 -155v-20q0 -134 -63 -206.5t-185 -81.5v-3q85 -3 147.5 -37.5t97 -106.5t34.5 -189v-30q0 -178 -55 -286.5
t-186 -157t-360 -48.5h-1749l-13 65h1755q204 0 319.5 41t163.5 136t48 255v27q0 160 -72.5 228.5t-218.5 70.5l-83 2v62l87 1q141 3 200 68.5t59 183.5v19q0 81 -25 139.5t-78.5 89.5t-140.5 31q-84 0 -146.5 -32.5t-95.5 -104.5t-33 -191v-760h-76v783q0 158 -55.5 231.5
t-181.5 73.5q-117 0 -180 -73.5t-63 -231.5v-783h-76v782q0 191 81.5 282.5t231.5 91.5zM2866 1135v-65h-248l-38 65h286zM698 1157q178 0 289 -64t162.5 -183t51.5 -287v-107q0 -113 -16 -201t-46.5 -157.5t-74.5 -128.5l-4 36h411v-65h-490v9q49 67 80.5 140t47 161
t15.5 200v108q0 149 -43 253.5t-137 161t-249 56.5q-232 0 -348 -128.5t-116 -376.5v-22.5v-23.5h2v-190q0 -142 60 -223.5t188 -81.5q115 0 169.5 69.5t54.5 194.5v110q0 120 -52.5 183t-162.5 63q-70 0 -125 -29t-91 -79.5t-50 -113.5l-1 97h10q25 79 97.5 134.5
t183.5 55.5q132 0 198.5 -78.5t66.5 -226.5v-114q0 -102 -32 -176t-98 -114t-167 -40q-111 0 -183 46.5t-106.5 133.5t-34.5 207v215q0 188 61 316t181 194t298 66zM550 -266v-65h-157q-105 0 -172 -12.5t-113.5 -35t-91.5 -55.5l9 81q35 26 79 45.5t111.5 30.5t173.5 11
h161zM2720 1070v65h563q195 0 286 -90.5t91 -263.5v-46q0 -156 -71 -240t-214 -84q-101 0 -166 42t-97 118.5t-32 179.5v61q0 82 9.5 142.5t25.5 96.5l74 22h7q-21 -46 -32.5 -109.5t-11.5 -147.5v-62q0 -130 55 -204.5t168 -74.5q105 0 158 65.5t53 194.5v44
q0 145 -69.5 218t-227.5 73h-569z" />
    <glyph glyph-name="KssaMatraU.tm" horiz-adv-x="3887" 
d="M876 603v63h166q153 0 215 -58t69 -179h3v19q0 161 80 248t221 87q143 0 211.5 -80.5t68.5 -231.5v-91q0 -128 -33 -206.5t-82 -135.5l-13 27h486v-65h-561v9q62 70 95 149t33 208v90q0 124 -52.5 192.5t-166.5 68.5q-73 0 -129.5 -33.5t-88 -102.5t-31.5 -178v-403h-75
v342q0 95 -24 152t-80 83t-151 26h-161zM1885 65h640l29 -15l28 15h506l-12 -65h-1191v65zM2554 1156q62 0 110.5 -12.5t85.5 -36.5l4 -13q81 -44 119.5 -136t38.5 -220v-207q0 -187 -73.5 -313.5t-255.5 -194.5l-49 25q115 45 180.5 111.5t92.5 156.5t27 204v215
q0 168 -68.5 260.5t-211.5 92.5q-144 0 -212.5 -92.5t-68.5 -260.5v-215q0 -114 27 -204t92.5 -156.5t179.5 -111.5l-48 -25q-182 68 -255 194.5t-73 313.5v208q0 197 89 307t269 110zM3006 1135v-65h-288l-45 65h333zM886 665v-61h-481l-168 -31q-4 -27 -6 -63.5t-3 -73.5
t-1 -69q0 -160 82 -240.5t244 -80.5q153 0 222.5 79t69.5 248v261l2 11v463h71v-463v-11v-261q0 -132 -38 -219.5t-118.5 -131t-207.5 -43.5q-201 0 -301 100t-100 289q0 39 1.5 84t5 89.5t9.5 78.5l195 39l52 6h470zM1026 1135v-63h-138l-18 3h-442l-2 -435l-70 -8v503h670
zM964 1072v63h276l12 -63h-288zM2597 -511q-162 0 -236 65t-74 186v5q0 107 58.5 171t158.5 100l23 9l54 -17l-30 -13q-93 -40 -140.5 -94t-47.5 -146v-4q0 -90 56 -143t188 -53q41 0 75.5 3t71 9t78.5 14l-16 -69q-50 -11 -104 -17t-115 -6zM2851 1070v65h563
q194 0 285 -90.5t91 -263.5v-46q0 -156 -70.5 -240t-213.5 -84q-101 0 -166.5 42t-97.5 118.5t-32 179.5v61q0 82 10 142.5t26 96.5l74 22h7q-21 -46 -32.5 -109.5t-11.5 -147.5v-62q0 -130 55 -204.5t168 -74.5q105 0 158 65.5t53 194.5v44q0 145 -69.5 218t-228.5 73h-568
z" />
    <glyph glyph-name="KaMatraUu.tm" horiz-adv-x="2304" 
d="M894 603v63h148q153 0 215 -58t69 -178h3v19q0 161 80 247.5t221 86.5q143 0 211.5 -80.5t68.5 -231.5v-91q0 -128 -33 -206.5t-82 -135.5l-13 27h494l-12 -65h-557v9q62 70 95 149t33 208v90q0 125 -52.5 193t-166.5 68q-73 0 -129.5 -33t-88 -101.5t-31.5 -178.5v-404
h-75v343q0 95 -24 152t-80 82.5t-151 25.5h-143zM886 665v-61h-481l-168 -31q-4 -27 -6 -63.5t-3 -73.5t-1 -69q0 -160 82 -240.5t244 -80.5q153 0 222.5 79t69.5 248v261l2 11v463h71v-463v-11v-261q0 -132 -38 -219.5t-118.5 -131t-207.5 -43.5q-201 0 -301 100t-100 289
q0 39 1.5 84t5 89.5t9.5 78.5l195 39l52 6h470zM1026 1135v-63h-138l-18 3h-442l-2 -435l-70 -8v503h670zM963 1072v63h276l12 -63h-288z" />
    <glyph glyph-name="NgaMatraUu.tm" horiz-adv-x="2334" 
d="M1741 199h75v-506h-75v506zM2056 259q135 0 193.5 -80t58.5 -230v-24q0 -219 -117 -369t-362.5 -226t-631.5 -76q-256 0 -458 28.5t-343.5 82t-215.5 128.5t-74 168q0 109 85 156t227 47q115 0 216 -17.5t184.5 -44.5t144.5 -57l10 -73q-73 35 -160 64t-185.5 46.5
t-205.5 17.5t-174 -32t-67 -111q0 -60 45.5 -111.5t132.5 -93.5t211 -71.5t282 -45.5t345 -16q361 0 589.5 68.5t336.5 203.5t108 333v18q0 121 -43.5 185.5t-151.5 64.5q-90 0 -148 -57t-79 -159h-7v106h16q21 72 81 124.5t157 52.5zM781 1107h75v-1107h-75v1107zM1137 741
q134 0 198.5 -79.5t64.5 -230.5v-49q0 -130 -29 -208.5t-81 -135.5l-19 26h505v-64h-578v9q68 69 97.5 149t29.5 208v48q0 124 -50.5 190.5t-160.5 66.5q-97 0 -163.5 -57t-97.5 -159h-4v80h9q17 58 54.5 104.5t94 74t130.5 27.5zM1740 1135h76v-1135h-76v1135zM1124 1135
v-65h-853v-1070h-76v1135h929zM1036 1070v65h293l11 -65h-304z" />
    <glyph glyph-name="CaMatraUu.tm" horiz-adv-x="2424" 
d="M1414 603v63h782l12 -61h-373l-23 -2h-398zM1785 623h75v-623h-75v623zM293 1135h79q-33 -78 -61.5 -183.5t-46 -235t-17.5 -281.5q0 -297 119 -499t363 -304t618 -102h6q308 0 512.5 67.5t306.5 199.5t102 324v4q0 114 -45 178.5t-147 64.5q-89 0 -147.5 -55.5
t-81.5 -149.5h-9v95h18q21 70 83 122.5t160 52.5q126 0 185.5 -79.5t59.5 -222.5v-10q0 -212 -111.5 -359t-332.5 -223.5t-553 -76.5h-6q-398 0 -659 110t-389.5 326.5t-128.5 535.5q0 159 18.5 292.5t47 237t57.5 171.5zM1404 665v-61h-481l-169 -31q-3 -27 -5 -63.5
t-3 -73.5t-1 -69q0 -160 82 -240.5t244 -80.5q153 0 222 79t69 248v261l3 11v463h71v-463v-11v-261q0 -132 -38 -219.5t-118.5 -131t-208.5 -43.5q-200 0 -300 100t-100 289q0 39 1.5 84t5 89.5t8.5 78.5l196 39l52 6h470zM1543 1135v-63h-137l-19 3h-441l-2 -435l-71 -8
v503h670zM1482 1072v63h277l11 -63h-288z" />
    <glyph glyph-name="JaMatraUu.tm" horiz-adv-x="3073" 
d="M1718 1135v-65h-231l-29 65h260zM620 1169q134 0 223.5 -39.5t139 -114t61.5 -180.5h3q7 155 80.5 240.5t219.5 85.5q63 0 109.5 -14t78.5 -40l5 -13q62 -43 89 -121.5t27 -182.5v-100q0 -99 -23 -174.5t-75.5 -128.5t-141 -86.5t-220.5 -48.5l-583 -68
q-133 -15 -211 -51t-111.5 -96.5t-33.5 -150.5v-9q0 -117 58 -181.5t178 -64.5q75 0 131 25.5t104.5 69.5t103.5 99l130 131q65 65 127 111t130.5 70.5t150.5 24.5q99 0 161 -33t92 -94.5t30 -149.5v-17q0 -148 -76 -225t-234 -77q-67 0 -131.5 13.5t-122.5 36.5l-17 72
q64 -28 129 -42t130 -14q129 0 188 59t59 177v16q0 99 -50 156t-160 57q-103 0 -182.5 -46t-164.5 -132l-132 -134q-62 -62 -117.5 -112t-121 -78.5t-159.5 -28.5q-151 0 -229.5 81.5t-78.5 225.5v12q0 111 41.5 185t133.5 117t242 60l583 68q154 18 240.5 62.5t122.5 121
t36 190.5v102q0 96 -24 164t-77.5 104t-142.5 36q-77 0 -133 -32.5t-87 -104t-31 -189.5v-353h-73v271q0 137 -38.5 230t-124.5 140t-228 47q-195 0 -297.5 -93.5t-104.5 -259.5h4v-98q0 -116 53 -182.5t169 -66.5q108 0 157 59.5t49 164.5v33q0 94 -47.5 146.5t-144.5 52.5
q-62 0 -113 -25.5t-85.5 -70t-47.5 -101.5l-2 90h10q25 71 91 120t166 49q122 0 183 -68t61 -192v-34q0 -136 -67 -210.5t-210 -74.5q-151 0 -223.5 85t-72.5 234v74q0 205 119.5 319t349.5 114zM1588 1135h432l22 -2h150q178 0 259.5 -86.5t81.5 -249.5v-59
q0 -146 -65 -223.5t-200 -77.5q-105 0 -171 43t-97 129.5t-31 216.5q0 72 4.5 137.5t12.5 119.5l73 -5q-10 -55 -13 -120t-3 -134q0 -169 53 -247t170 -78q99 0 146.5 60t47.5 179v56q0 138 -63 207t-207 69h-602v65zM2480 1503q170 0 275.5 -66.5t155.5 -195.5t50 -315
q0 -157 -13.5 -302t-39.5 -277l-80 -1q29 133 42.5 278t13.5 303q0 164 -40 278t-129.5 172.5t-237.5 58.5q-128 0 -214 -41.5t-134.5 -116.5t-66.5 -175l-73 3q20 119 79 208t161 139t251 50z" />
    <glyph glyph-name="NyaMatraUu.tm" horiz-adv-x="3045" 
d="M2722 1106h75v-1106h-75v1106zM2783 1135v-65h-571v-1070h-76v1135h647zM2748 1070v65h292l12 -65h-304zM1103 1108h75v-1108h-75v1108zM1462 740q159 0 226 -110.5t67 -324.5v-139q0 -95 -5.5 -181t-13.5 -154t-18 -109l-1 -11q-24 -96 -81.5 -179t-153.5 -145.5
t-236 -98t-329 -35.5q-206 0 -358.5 37.5t-255.5 105.5t-159 159t-69 199h2137v-64h-2045q16 -68 64 -134t136.5 -119.5t224 -85.5t325.5 -32q175 0 302 31.5t212.5 86.5t136 126.5t71.5 150.5l2 13q9 40 18 108t14.5 153t5.5 177v133q0 183 -51.5 277.5t-188.5 94.5
q-106 0 -175 -64.5t-93 -181.5h-9v109h18q23 89 94 148t188 59zM2136 1135h76v-1429h-76v1429zM957 1135h356v-65h-356v65zM983 1135v-65h-200q-287 0 -421.5 -124t-134.5 -373v-17.5v-17.5h3v-190q0 -142 60 -223.5t187 -81.5q115 0 169.5 69.5t54.5 194.5v110
q0 120 -52.5 183t-162.5 63q-69 0 -124.5 -29t-91.5 -79.5t-50 -113.5l-1 97h10q25 80 97.5 136.5t182.5 56.5q133 0 199.5 -79.5t66.5 -228.5v-114q0 -102 -32 -176t-97.5 -114t-167.5 -40q-111 0 -182.5 46.5t-106.5 133.5t-35 207v204q0 186 67.5 311.5t206.5 189.5
t352 64h203zM1289 1070v65h292l12 -65h-304z" />
    <glyph glyph-name="TtaMatraUu.tm" horiz-adv-x="1648" 
d="M771 1135h76v-1135h-76v1135zM1125 718q148 0 215 -103.5t67 -296.5v-91q0 -341 -137 -509.5t-431 -168.5q-335 0 -495.5 218.5t-160.5 675.5v359q0 500 195 744t589 244q210 0 354.5 -68.5t218.5 -195t74 -302.5v-52q0 -106 -31.5 -177t-93 -106.5t-150.5 -35.5
q-88 0 -148.5 32t-91 94t-30.5 149v22q0 129 61.5 201t186.5 72q93 0 149 -48t78 -106h10v-61h-6q-27 66 -81 109.5t-134 43.5q-99 0 -146.5 -57t-47.5 -159v-18q0 -101 51.5 -156.5t148.5 -55.5q100 0 153.5 63t53.5 189v31.5v30.5v24q-3 143 -70 248.5t-194.5 163
t-313.5 57.5q-359 0 -533.5 -225.5t-174.5 -692.5v-362q0 -285 62.5 -467.5t191 -270t325.5 -87.5q252 0 371.5 148.5t119.5 460.5v86q0 161 -52 248.5t-175 87.5q-104 0 -171.5 -69.5t-91.5 -197.5h-8v108h17q23 99 93.5 164t182.5 65z" />
    <glyph glyph-name="NnaMatraUu.tm" horiz-adv-x="4429" 
d="M4106 1106h75v-1106h-75v1106zM4167 1135v-65h-571v-1070h-76v1135h647zM4132 1070v65h292l12 -65h-304zM1780 1162q167 0 287.5 -25t198.5 -65l1 -2q99 -47 158 -126t85.5 -184.5t26.5 -231.5v-146q0 -123 -32.5 -214t-101 -140t-177.5 -49q-111 0 -181.5 49.5
t-103.5 140t-33 213.5v146q0 127 27.5 233.5t91 186t171.5 126.5l48 -40q-100 -44 -157 -118t-80.5 -172t-23.5 -215v-145q0 -105 24.5 -181t78 -116t138.5 -40q84 0 135.5 40t75 116t23.5 181v145q0 118 -22.5 215.5t-78 170.5t-155.5 117l-8 5q-44 16 -105 30t-139 22.5
t-172 8.5q-142 0 -249.5 -18.5t-176.5 -48.5l-49 44q83 41 200 64t275 23zM2626 1162q165 0 268.5 -40t152.5 -116.5t49 -187.5v-5q0 -140 -61.5 -215.5t-179.5 -84.5v-2q81 -4 141.5 -42t94.5 -117t34 -211v-22q0 -125 -17 -233.5t-39 -162.5l-2 -17
q-51 -111 -160.5 -203.5t-285 -160.5t-423 -105t-573.5 -37q-371 0 -647.5 41.5t-465.5 116.5t-296 176t-140 220h3520v-64h-3408q38 -79 138 -155t273 -137t427.5 -97t598.5 -36q310 0 544.5 34.5t400.5 96t269 143.5t149 176l1 14q24 53 41.5 161.5t17.5 229.5v19
q0 183 -72 260.5t-212 78.5l-78 2v61l83 2q136 2 194.5 71.5t58.5 195.5v3q0 90 -40 154t-128 98.5t-231 34.5q-115 0 -212.5 -18.5t-160.5 -44.5l-47 44q75 35 183 58t240 23zM3520 1135h76v-1429h-76v1429zM903 1162q164 0 282.5 -24t194.5 -63l1 -3q98 -46 157.5 -125.5
t85.5 -185.5t26 -233v-146q0 -123 -32.5 -214t-100.5 -140t-178 -49q-111 0 -181 49.5t-103 140t-33 213.5v146q0 128 27.5 234.5t91.5 186.5t170 126l48 -40q-99 -44 -156 -117.5t-80.5 -172t-23.5 -216.5v-145q0 -105 24.5 -181t78 -116t137.5 -40t135.5 40t75.5 116
t24 181v145q0 119 -22.5 217t-78 171.5t-154.5 117.5l-10 5q-62 24 -162.5 40t-242.5 16q-332 0 -504 -138t-173 -408v-7.5v-6.5h3v-188q0 -142 59.5 -223.5t187.5 -81.5q115 0 169.5 69.5t54.5 194.5v110q0 120 -52.5 183t-162.5 63q-70 0 -125 -29t-90.5 -79.5
t-49.5 -113.5l-2 97h10q25 80 97.5 136.5t181.5 56.5q134 0 200.5 -79.5t66.5 -228.5v-114q0 -102 -32 -176t-97.5 -114t-167.5 -40q-111 0 -183 46.5t-106.5 133.5t-34.5 207v179q0 203 86 340t253 207t410 70z" />
    <glyph glyph-name="TaMatraUu.tm" horiz-adv-x="2689" 
d="M1780 1135h76v-1428h-76v1428zM896 605v64h47q246 0 358.5 -121t112.5 -397v-49q0 -79 -4 -151.5t-11 -131t-16 -95.5l-2 -16q-29 -113 -105.5 -201.5t-209 -139t-331.5 -50.5q-220 0 -364.5 55.5t-219.5 154t-89 227.5h1794v-64h-1703q11 -59 48.5 -114t107 -98.5
t174.5 -69t252 -25.5q176 0 292.5 43t183 117t91.5 168l4 17q9 35 16.5 93.5t11.5 130.5t4 148v45q0 170 -42 271t-131.5 145t-232.5 44h-36zM888 665v-61h-480l-169 -31q-3 -27 -5.5 -63.5t-3 -73.5t-0.5 -69q0 -160 81.5 -240.5t244.5 -80.5q153 0 222 79t69 248v261l3 11
v463h70v-463v-11v-261q0 -132 -38 -219.5t-118 -131t-208 -43.5q-200 0 -300.5 100t-100.5 289q0 39 2 84t5.5 89.5t8.5 78.5l196 39l51 6h470zM1028 1135v-63h-137l-19 3h-441l-2 -435l-71 -8v503h670zM960 1072v63h277l11 -63h-288zM2366 1106h75v-1106h-75v1106z
M2427 1135v-65h-571v-1070h-76v1135h647zM2392 1070v65h292l12 -65h-304z" />
    <glyph glyph-name="NaMatraUu.tm" horiz-adv-x="2709" 
d="M769 1108h75v-1108h-75v1108zM1125 740q163 0 229.5 -111.5t66.5 -331.5v-108q0 -99 -4.5 -188.5t-12 -160.5t-16.5 -117l-2 -14q-27 -114 -104.5 -203t-212.5 -140.5t-337 -51.5q-168 0 -290.5 32t-205 90.5t-128 139t-58.5 178.5h1826v-64h-1735q14 -60 52.5 -115.5
t108 -100t176 -70t254.5 -25.5q181 0 299 44t185 119.5t92 170.5l2 15q10 44 17.5 115t12.5 160t5 185v102q0 189 -51.5 284.5t-189.5 95.5q-98 0 -169.5 -64t-97.5 -182h-9v109h19q15 60 53.5 106.5t96 73.5t128.5 27zM1800 1135h76v-1429h-76v1429zM998 1135v-65h-727
v-1070h-76v1135h803zM960 1070v65h293l12 -65h-305zM2386 1106h75v-1106h-75v1106zM2447 1135v-65h-571v-1070h-76v1135h647zM2412 1070v65h292l12 -65h-304z" />
    <glyph glyph-name="NnnaMatraUu.tm" horiz-adv-x="3540" 
d="M3217 1106h75v-1106h-75v1106zM3278 1135v-65h-571v-1070h-76v1135h647zM3243 1070v65h292l12 -65h-304zM1743 1162q164 0 267 -40t151 -116.5t48 -187.5v-5q0 -140 -61.5 -215.5t-178.5 -84.5v-2q81 -4 141.5 -42t94 -117t33.5 -211v-22q0 -83 -5 -160t-14 -138.5
t-18 -99.5l-2 -13q-41 -140 -164.5 -249t-340 -170t-539.5 -61q-263 0 -457 39t-325 109.5t-203.5 166.5t-93.5 211h2631v-64h-2531q23 -75 88 -146t181.5 -127.5t291.5 -89.5t418 -33q228 0 396.5 32t284.5 89t186 133.5t99 164.5l1 13q15 54 27.5 163t12.5 231v19
q0 183 -72 260.5t-213 78.5l-78 2v61l83 2q136 2 195 71.5t59 195.5v3q0 90 -40 154t-127 98.5t-229 34.5q-120 0 -216.5 -19t-161.5 -44l-48 43q77 36 184.5 59t244.5 23zM2631 1135h76v-1429h-76v1429zM903 1162q164 0 282 -24.5t194 -64.5l1 -2q99 -46 158.5 -125
t85.5 -184.5t26 -233.5v-146q0 -123 -32.5 -214t-100.5 -140t-178 -49q-111 0 -181 49.5t-103 140t-33 213.5v146q0 128 27.5 234.5t91.5 186t170 125.5l47 -41q-99 -42 -155.5 -115.5t-80 -171.5t-23.5 -217v-145q0 -105 24.5 -181t78 -116t137.5 -40t135.5 40t75.5 116
t24 181v145q0 119 -22.5 217t-78 171.5t-155.5 115.5l-9 5q-63 24 -163 41t-242 17q-332 0 -504 -138t-173 -408v-7.5v-6.5h3v-188q0 -142 59.5 -223.5t187.5 -81.5q115 0 169.5 69.5t54.5 194.5v110q0 120 -52.5 183t-162.5 63q-70 0 -125 -29t-90.5 -79.5t-49.5 -113.5
l-2 97h10q25 80 97.5 136.5t181.5 56.5q134 0 200.5 -79.5t66.5 -228.5v-114q0 -102 -32 -176t-97.5 -114t-167.5 -40q-111 0 -183 46.5t-106.5 133.5t-34.5 207v179q0 203 86 340t253 207t410 70z" />
    <glyph glyph-name="PaMatraUu.tm" horiz-adv-x="1758" 
d="M1166 199h76v-509h-76v509zM1482 259q134 0 192 -83.5t58 -240.5v-31q0 -204 -91 -343t-275 -209.5t-465 -70.5q-185 0 -332.5 27.5t-250 78.5t-157 121.5t-54.5 155.5q0 103 75.5 150t198.5 47q70 0 132 -9.5t112 -24t85 -29.5l11 -70q-63 26 -150.5 47.5t-183.5 21.5
q-59 0 -105.5 -13t-73.5 -43t-27 -80q0 -68 50 -125t143.5 -99.5t226.5 -65.5t300 -23q256 0 423 62.5t249.5 186.5t82.5 307v26q0 125 -43.5 193t-151.5 68q-89 0 -147 -56.5t-80 -158.5h-7v105h17q20 72 80.5 125t157.5 53zM1165 1135h77v-1135h-550v67h473v1068z
M272 1135v-1068h678v-67h-755v1135h77z" />
    </font>
</defs>
</svg>
