<?xml version="1.0" standalone="no"?>
<!DOCTYPE svg PUBLIC "-//W3C//DTD SVG 1.1//EN" "http://www.w3.org/Graphics/SVG/1.1/DTD/svg11.dtd" >
<svg xmlns="http://www.w3.org/2000/svg" xmlns:xlink="http://www.w3.org/1999/xlink" version="1.1">
<metadata>
Created by FontForge 20170812 at Mon Feb 14 15:36:09 2022
 By www-data
Copyright 2021 The Anek Project Authors (https://github.com/EkType/Anek)
</metadata>
<defs>
<font id="AnekTamil-ExtraBold" horiz-adv-x="0" >
  <font-face 
    font-family="Anek Tamil ExtraBold"
    font-weight="800"
    font-stretch="normal"
    units-per-em="2000"
    panose-1="0 0 0 0 0 0 0 0 0 0"
    ascent="1600"
    descent="-400"
    x-height="985"
    cap-height="1278"
    bbox="-375 -914 4950 1989"
    underline-thickness="50"
    underline-position="-125"
    unicode-range="U+000D-FB02"
  />
<missing-glyph horiz-adv-x="1160" 
d="M185 0v1278h790v-1278h-790zM224 35h712v1208h-712v-1208zM210 0l695 1266h40l-695 -1266h-40zM950 0h-40l-695 1266h40z" />
    <glyph glyph-name="fi" unicode="fi" horiz-adv-x="1312" 
d="M456 1354q83 0 156 -12.5t125 -29.5l30 -258q-38 9 -81 15.5t-93 6.5q-60 0 -92 -11t-43.5 -31t-11.5 -47v-2q0 -20 6.5 -35t16.5 -29l-227 -8v34q-59 19 -100.5 62.5t-41.5 115.5v5q0 108 86.5 166t269.5 58zM134 0v841h352v-841h-352zM11 662v278l279 -3l132 3h345
l-29 -278h-727zM867 0v985h354v-985h-354zM1044 1056q-97 0 -141 43.5t-44 117.5v8q0 74 44 117.5t141 43.5q96 0 140.5 -43.5t44.5 -117.5v-8q0 -75 -44.5 -118t-140.5 -43z" />
    <glyph glyph-name="fl" unicode="fl" horiz-adv-x="1313" 
d="M456 1354q83 0 156 -12.5t125 -29.5l30 -258q-38 9 -81 15.5t-93 6.5q-60 0 -92 -11t-43.5 -31t-11.5 -47v-2q0 -20 6.5 -35t16.5 -29l-227 -8v34q-59 19 -100.5 62.5t-41.5 115.5v5q0 108 86.5 166t269.5 58zM134 0v841h352v-841h-352zM11 662v278l279 -3l132 3h345
l-29 -278h-727zM867 0v1319h354v-1319h-354z" />
    <glyph glyph-name="f_f" unicode="ff" horiz-adv-x="1426" 
d="M456 1354q83 0 156 -12.5t125 -29.5l30 -258q-38 9 -81 15.5t-93 6.5q-60 0 -92 -11t-43.5 -31t-11.5 -47v-2q0 -20 6.5 -35t16.5 -29l-227 -8v34q-59 19 -100.5 62.5t-41.5 115.5v5q0 108 86.5 166t269.5 58zM134 0v841h352v-841h-352zM11 662v278l279 -3l132 3h345
l-29 -278h-727zM1107 1354q83 0 156 -12.5t125 -29.5l30 -258q-38 9 -81 15.5t-93 6.5q-60 0 -92 -11t-43.5 -31t-11.5 -47v-2q0 -20 6.5 -35t16.5 -29l-227 -8v34q-59 19 -100.5 62.5t-41.5 115.5v5q0 108 86.5 166t269.5 58zM785 0v841h352v-841h-352zM662 662v278l279 -3
l132 3h345l-29 -278h-727z" />
    <glyph glyph-name="f_f_i" unicode="ffi" horiz-adv-x="1963" 
d="M456 1354q83 0 156 -12.5t125 -29.5l30 -258q-38 9 -81 15.5t-93 6.5q-60 0 -92 -11t-43.5 -31t-11.5 -47v-2q0 -20 6.5 -35t16.5 -29l-227 -8v34q-59 19 -100.5 62.5t-41.5 115.5v5q0 108 86.5 166t269.5 58zM134 0v841h352v-841h-352zM11 662v278l279 -3l132 3h345
l-29 -278h-727zM1107 1354q83 0 156 -12.5t125 -29.5l30 -258q-38 9 -81 15.5t-93 6.5q-60 0 -92 -11t-43.5 -31t-11.5 -47v-2q0 -20 6.5 -35t16.5 -29l-227 -8v34q-59 19 -100.5 62.5t-41.5 115.5v5q0 108 86.5 166t269.5 58zM785 0v841h352v-841h-352zM662 662v278l279 -3
l132 3h345l-29 -278h-727zM1518 0v985h354v-985h-354zM1695 1056q-97 0 -141 43.5t-44 117.5v8q0 74 44 117.5t141 43.5q96 0 140.5 -43.5t44.5 -117.5v-8q0 -75 -44.5 -118t-140.5 -43z" />
    <glyph glyph-name="f_f_l" unicode="ffl" horiz-adv-x="1964" 
d="M456 1354q83 0 156 -12.5t125 -29.5l30 -258q-38 9 -81 15.5t-93 6.5q-60 0 -92 -11t-43.5 -31t-11.5 -47v-2q0 -20 6.5 -35t16.5 -29l-227 -8v34q-59 19 -100.5 62.5t-41.5 115.5v5q0 108 86.5 166t269.5 58zM134 0v841h352v-841h-352zM11 662v278l279 -3l132 3h345
l-29 -278h-727zM1107 1354q83 0 156 -12.5t125 -29.5l30 -258q-38 9 -81 15.5t-93 6.5q-60 0 -92 -11t-43.5 -31t-11.5 -47v-2q0 -20 6.5 -35t16.5 -29l-227 -8v34q-59 19 -100.5 62.5t-41.5 115.5v5q0 108 86.5 166t269.5 58zM785 0v841h352v-841h-352zM662 662v278l279 -3
l132 3h345l-29 -278h-727zM1518 0v1319h354v-1319h-354z" />
    <glyph glyph-name=".notdef" horiz-adv-x="1160" 
d="M185 0v1278h790v-1278h-790zM224 35h712v1208h-712v-1208zM210 0l695 1266h40l-695 -1266h-40zM950 0h-40l-695 1266h40z" />
    <glyph glyph-name="NULL" horiz-adv-x="24" 
 />
    <glyph glyph-name="CR" unicode="&#xd;" horiz-adv-x="2783" 
 />
    <glyph glyph-name="space" unicode=" " horiz-adv-x="531" 
 />
    <glyph glyph-name="exclam" unicode="!" horiz-adv-x="536" 
d="M417 432h-297l-42 846h380zM270 -30q-95 0 -140 49t-45 135v11q0 86 45 135t140 49t140.5 -49t45.5 -135v-11q0 -86 -45.5 -135t-140.5 -49z" />
    <glyph glyph-name="quotedbl" unicode="&#x22;" horiz-adv-x="861" 
d="M352 791h-265l-34 528h335zM772 791h-265l-34 528h335z" />
    <glyph glyph-name="numbersign" unicode="#" horiz-adv-x="1188" 
d="M144 0l173 1278h272l-173 -1278h-272zM42 258v247h1045v-247h-1045zM607 0l168 1278h273l-167 -1278h-274zM103 769v247h1043v-247h-1043z" />
    <glyph glyph-name="percent" unicode="%" horiz-adv-x="1595" 
d="M262 0l793 1278h278l-789 -1278h-282zM1226 -35q-152 0 -233 80t-81 234v62q0 153 81 233t233 80t233 -80t81 -233v-62q0 -152 -81 -233t-233 -81zM1226 156q42 0 62.5 27t20.5 81v91q0 54 -20.5 81t-62.5 27t-62.5 -27t-20.5 -81v-91q0 -54 20.5 -81t62.5 -27zM369 622
q-152 0 -233 80t-81 234v62q0 153 81 233t233 80t233 -80t81 -233v-62q0 -152 -81 -233t-233 -81zM369 813q42 0 62.5 27t20.5 81v91q0 54 -20.5 81t-62.5 27t-62.5 -27t-20.5 -81v-91q0 -54 20.5 -81t62.5 -27z" />
    <glyph glyph-name="ampersand" unicode="&#x26;" horiz-adv-x="1377" 
d="M1033 1q-20 20 -46 47.5t-54 56.5t-53 55.5t-42 44.5l-51 60l-412 384l-61 61q-70 68 -103 131.5t-33 143.5v9q0 143 104 228t306 85q123 0 214.5 -18t158.5 -44l32 -280q-70 24 -155.5 40t-165.5 16q-66 0 -92.5 -19t-26.5 -53v-3q0 -28 20.5 -54.5t61.5 -66.5l347 -336
l84 -88q38 -39 72.5 -75.5t67.5 -71.5t66.5 -70.5t67.5 -73.5t71 -81v-28h-378zM542 -31q-247 0 -365.5 110t-118.5 305v16q0 132 57.5 225t185.5 160l193 -198q-47 -22 -68 -58t-21 -101v-12q0 -77 44.5 -119t134.5 -42q73 0 124.5 23.5t88.5 61.5l97 113q44 80 67.5 170
t32.5 187h341q-19 -157 -71 -292t-154 -254l-117 -111q-54 -57 -118.5 -98.5t-145.5 -63.5t-187 -22z" />
    <glyph glyph-name="quotesingle" unicode="'" horiz-adv-x="441" 
d="M352 791h-265l-34 528h335z" />
    <glyph glyph-name="parenleft" unicode="(" horiz-adv-x="675" 
d="M428 569v-39q0 -157 27 -291t81 -254t135 -237h-351q-70 98 -121.5 213t-79.5 252.5t-28 302.5v67q0 166 28 303t80 252t124 213h348q-81 -116 -135 -236.5t-81 -254.5t-27 -291z" />
    <glyph glyph-name="parenright" unicode=")" horiz-adv-x="675" 
d="M247 569q0 157 -27 291t-81 254.5t-135 236.5h348q72 -98 124 -213t80 -252t28 -303v-67q0 -165 -28 -302.5t-79 -252.5t-122 -213h-351q81 117 135 237t81 254t27 291v39z" />
    <glyph glyph-name="asterisk" unicode="*" horiz-adv-x="803" 
d="M288 572l-216 150l154 146l-2 7l-196 25l63 257l197 -86l5 4l-34 203h285l-34 -203l4 -4l198 86l63 -257l-196 -25l-1 -7l153 -146l-215 -150l-111 187h-7z" />
    <glyph glyph-name="plus" unicode="+" horiz-adv-x="1028" 
d="M663 184h-297v868h297v-868zM84 478v280h860v-280h-860z" />
    <glyph glyph-name="comma" unicode="," horiz-adv-x="490" 
d="M406 345q4 -27 7 -57.5t3 -65.5q0 -131 -41 -243.5t-133 -213.5l-241 53q42 83 65 178t23 213q0 36 -1.5 67.5t-4.5 68.5h323z" />
    <glyph glyph-name="hyphen" unicode="-" horiz-adv-x="735" 
d="M79 368v280h577v-280h-577z" />
    <glyph glyph-name="period" unicode="." horiz-adv-x="507" 
d="M254 -30q-97 0 -143 49.5t-46 137.5v11q0 87 46 137.5t143 50.5q95 0 141.5 -50.5t46.5 -137.5v-11q0 -88 -46.5 -137.5t-141.5 -49.5z" />
    <glyph glyph-name="slash" unicode="/" horiz-adv-x="945" 
d="M-24 -252l685 1603h308l-685 -1603h-308z" />
    <glyph glyph-name="zero" unicode="0" horiz-adv-x="1249" 
d="M624 -29q-271 0 -410.5 141.5t-139.5 416.5v221q0 273 139 414.5t411 141.5t411.5 -141.5t139.5 -414.5v-221q0 -275 -139.5 -416.5t-411.5 -141.5zM624 269q96 0 139 61.5t43 182.5v251q0 122 -43 183t-139 61t-138.5 -61.5t-42.5 -182.5v-251q0 -121 43.5 -182.5
t137.5 -61.5z" />
    <glyph glyph-name="one" unicode="1" horiz-adv-x="757" 
d="M295 0v916h-13l-252 -102l10 337l304 127h310v-1278h-359z" />
    <glyph glyph-name="two" unicode="2" horiz-adv-x="1012" 
d="M50 0v323l311 258q75 63 123 108.5t71.5 85.5t23.5 84v9q0 38 -18 66.5t-60.5 45t-115.5 16.5q-93 0 -176.5 -26t-147.5 -56l31 310q44 22 102 40.5t130 30t157 11.5q231 0 349 -103t118 -286v-14q0 -92 -27 -164.5t-85 -139.5t-151 -145l-165 -138v-64l-157 52h596v-304
h-909z" />
    <glyph glyph-name="three" unicode="3" horiz-adv-x="1040" 
d="M458 -29q-80 0 -151 9.5t-129 24t-100 29.5l-30 308q74 -28 164 -48t192 -20q85 0 130.5 12.5t63 37.5t17.5 61v8q0 36 -16.5 59t-54 34.5t-101.5 12.5l-241 6v280l240 7q63 2 100.5 13.5t54 34t16.5 57.5v6q0 53 -41 78.5t-154 25.5q-104 0 -198 -21t-162 -44l30 291
q73 30 171.5 51.5t228.5 21.5q247 0 369 -88t122 -252v-20q0 -83 -27.5 -140t-84.5 -90t-148 -45v-48l-22 40q161 -20 225.5 -93t64.5 -203v-23q0 -172 -130 -272.5t-399 -100.5z" />
    <glyph glyph-name="four" unicode="4" horiz-adv-x="1176" 
d="M664 0v681l15 350h-24l-258 -520v-139l-138 122h882v-292h-1091v329l394 747h563v-1278h-343z" />
    <glyph glyph-name="five" unicode="5" horiz-adv-x="1114" 
d="M512 -29q-131 0 -235 23t-163 48l-30 318q47 -20 109.5 -39t135 -31.5t148.5 -12.5q92 0 142 18.5t69.5 52.5t19.5 81v17q0 63 -31 94.5t-102 31.5q-67 0 -110 -30t-69 -72l-306 47v761h918v-296h-588v-168l-3 -161h11q29 87 99.5 139t203.5 52q169 0 247 -102t78 -287
v-33q0 -138 -51 -239.5t-169.5 -156.5t-323.5 -55z" />
    <glyph glyph-name="six" unicode="6" horiz-adv-x="1187" 
d="M611 -27q-175 0 -296.5 61.5t-184 180.5t-62.5 291v203q0 287 148 442t440 155q120 0 215.5 -20t161.5 -48l34 -297q-45 19 -97 33.5t-111 23.5t-127 9q-157 0 -231.5 -74t-74.5 -233v-199q0 -79 20.5 -130t63.5 -76t109 -25q83 0 120 37t37 109v12q0 46 -14 78
t-47.5 49.5t-92.5 17.5q-46 0 -85.5 -13.5t-69 -37.5t-46.5 -57l-42 157h57q16 61 55 110t107 78t169 29q182 0 270.5 -104.5t88.5 -298.5v-23q0 -215 -130 -327.5t-385 -112.5z" />
    <glyph glyph-name="seven" unicode="7" horiz-adv-x="1007" 
d="M151 0l425 976h-532v302h910v-310l-414 -968h-389z" />
    <glyph glyph-name="eight" unicode="8" horiz-adv-x="1186" 
d="M591 -36q-151 0 -254 26.5t-165 75.5t-89.5 117.5t-27.5 151.5v24q0 86 29 148t86.5 100.5t144.5 55.5v11q-80 14 -135 48t-83 89.5t-28 133.5v23q0 158 124 249.5t398 91.5q278 0 402 -91.5t124 -249.5v-23q0 -80 -28.5 -135t-84 -88t-137.5 -48v-11q89 -18 147.5 -56
t87.5 -99t29 -149v-24q0 -79 -25 -146.5t-85.5 -118t-165.5 -78.5t-264 -28zM596 245q104 0 141.5 34t37.5 92v5q0 62 -42.5 95t-149.5 52q-97 -19 -134.5 -55.5t-37.5 -91.5v-5q0 -59 39.5 -92.5t145.5 -33.5zM602 774q87 13 127.5 49.5t40.5 91.5v6q0 56 -40.5 88
t-138.5 32q-94 0 -134.5 -31.5t-40.5 -86.5v-6q0 -37 17 -65.5t57.5 -48t111.5 -29.5z" />
    <glyph glyph-name="nine" unicode="9" horiz-adv-x="1187" 
d="M578 1304q266 0 403.5 -141t137.5 -416v-210q0 -272 -155.5 -419t-464.5 -147q-116 0 -201.5 17t-138.5 40l-35 308q59 -26 135 -46t170 -20q172 0 252 68.5t80 214.5v228q0 116 -45 171t-141 55q-85 0 -124.5 -40t-39.5 -110v-9q0 -72 40 -108t125 -36q42 0 78 12
t64 35.5t47 55.5l81 -152h-95q-16 -67 -56 -115.5t-106 -75t-163 -26.5q-179 0 -272 101t-93 281v45q0 212 132 325.5t385 113.5z" />
    <glyph glyph-name="colon" unicode=":" horiz-adv-x="517" 
d="M259 -30q-97 0 -143 49.5t-46 137.5v11q0 87 46 137.5t143 50.5q95 0 141.5 -50.5t46.5 -137.5v-11q0 -88 -46.5 -137.5t-141.5 -49.5zM259 571q-97 0 -143 49.5t-46 137.5v11q0 87 46 137.5t143 50.5q95 0 141.5 -50.5t46.5 -137.5v-11q0 -88 -46.5 -137.5t-141.5 -49.5
z" />
    <glyph glyph-name="semicolon" unicode=";" horiz-adv-x="517" 
d="M421 345q4 -27 7 -57.5t3 -65.5q0 -131 -41 -243.5t-133 -213.5l-241 53q42 83 65 178t23 213q0 36 -1.5 67.5t-4.5 68.5h323zM259 571q-97 0 -143 49.5t-46 137.5v11q0 87 46 137.5t143 50.5q95 0 141.5 -50.5t46.5 -137.5v-11q0 -88 -46.5 -137.5t-141.5 -49.5z" />
    <glyph glyph-name="less" unicode="&#x3c;" horiz-adv-x="1028" 
d="M318 625v-20l625 -96v-294l-859 174v451l859 174v-294z" />
    <glyph glyph-name="equal" unicode="=" horiz-adv-x="1039" 
d="M90 274v274h859v-274h-859zM90 689v274h859v-274h-859z" />
    <glyph glyph-name="greater" unicode="&#x3e;" horiz-adv-x="1028" 
d="M710 625l-625 95v294l859 -174v-451l-859 -174v294l625 96v20z" />
    <glyph glyph-name="question" unicode="?" horiz-adv-x="934" 
d="M227 413v300l101 18q77 14 118.5 34.5t58 49.5t16.5 65v8q0 59 -40 88.5t-136 29.5q-80 0 -160 -16.5t-160 -44.5l38 296q39 16 94.5 31t122.5 24.5t140 9.5q233 0 348.5 -100t115.5 -290v-24q0 -139 -57 -230.5t-169.5 -144.5t-279.5 -80zM360 -30q-95 0 -140 49
t-45 135v11q0 86 45 135t140 49t140.5 -49t45.5 -135v-11q0 -86 -45.5 -135t-140.5 -49z" />
    <glyph glyph-name="at" unicode="@" horiz-adv-x="1722" 
d="M697 60q-110 0 -169 72t-59 211q0 11 0.5 25.5t2 34.5t4.5 47.5t7 63.5q14 120 46.5 211.5t93.5 143t160 51.5q101 0 141.5 -53t49.5 -141h79l-86 -169q1 8 1 15.5v12.5q0 28 -7 48t-24 31.5t-47 11.5q-48 0 -67.5 -36.5t-27.5 -98.5q-4 -36 -7 -61t-4 -41t-1.5 -27.5
t-0.5 -20.5q0 -37 17.5 -57.5t51.5 -20.5q21 0 39.5 8t33 24.5t24.5 40.5l53 -129h-73q-14 -55 -40.5 -100t-72 -71t-118.5 -26zM920 70l22 222l-3 41l40 332l3 39l17 195v0h296l-84 -786zM1146 306q21 -5 36 -6.5t41 -1.5q74 0 114.5 51.5t53.5 151.5q7 55 11.5 95t7 69.5
t3.5 50.5q5 123 -47 214.5t-162.5 142t-282.5 50.5q-189 0 -304 -62.5t-174.5 -165.5t-83.5 -225q-8 -40 -13.5 -78.5t-9.5 -73.5t-6.5 -64.5t-4 -52.5t-2.5 -38q-15 -246 117.5 -365t424.5 -119q129 0 235 15.5t194.5 40.5t161.5 54l-43 -238q-72 -25 -153.5 -46.5
t-182 -35t-231.5 -13.5q-267 0 -447.5 75t-268 229t-75.5 390q1 17 3 43.5t4.5 58.5t6 67.5t7.5 72.5t9 73q29 212 129.5 364.5t279.5 234t441 81.5q239 0 407.5 -73t255.5 -213.5t80 -344.5q-1 -25 -3 -59.5t-6 -76.5t-10 -92q-17 -146 -78.5 -239t-177.5 -137.5
t-299 -47.5q-42 -1 -91 0.5t-93 7.5z" />
    <glyph glyph-name="bracketleft" unicode="[" horiz-adv-x="650" 
d="M106 -252v1603h496v-253h-170v-1097h170v-253h-496z" />
    <glyph glyph-name="backslash" unicode="\" horiz-adv-x="945" 
d="M969 -252h-308l-685 1603h308z" />
    <glyph glyph-name="bracketright" unicode="]" horiz-adv-x="650" 
d="M544 -252h-496v253h170v1097h-170v253h496v-1603z" />
    <glyph glyph-name="asciicircum" unicode="^" horiz-adv-x="934" 
d="M240 1278h454l223 -671h-296l-146 485h-14l-147 -485h-297z" />
    <glyph glyph-name="underscore" unicode="_" horiz-adv-x="876" 
d="M29 -299v273h818v-273h-818z" />
    <glyph glyph-name="braceleft" unicode="{" horiz-adv-x="703" 
d="M657 1335v-245q-14 3 -32 5.5t-38 2.5q-55 0 -78 -24.5t-23 -79.5q0 -22 3.5 -64t6.5 -84.5t3 -68.5q0 -61 -16.5 -107t-55 -74.5t-106.5 -39.5v-17l-14 7q74 -9 116 -38.5t59 -76t17 -109.5q0 -25 -3 -68t-6.5 -84.5t-3.5 -64.5q0 -55 24 -79.5t81 -24.5q19 0 36 2.5
t30 5.5v-247q-39 -10 -83 -16t-89 -6q-166 0 -247 75.5t-81 250.5q0 29 3.5 75.5t6.5 92t3 69.5q0 35 -12 58t-38 35t-70 14v279q44 2 70 14t38 35.5t12 58.5q0 25 -3 70t-6.5 91.5t-3.5 74.5q0 173 81 248.5t247 75.5q45 0 89.5 -6.5t82.5 -15.5z" />
    <glyph glyph-name="bar" unicode="|" horiz-adv-x="537" 
d="M415 -413h-293v1834h293v-1834z" />
    <glyph glyph-name="braceright" unicode="}" horiz-adv-x="703" 
d="M46 1335q38 9 82.5 15.5t89.5 6.5q166 0 247 -75.5t81 -248.5q0 -28 -3 -74.5t-6.5 -91.5t-3.5 -70q0 -35 12 -58.5t38.5 -35.5t69.5 -14v-279q-43 -2 -69.5 -14t-38.5 -35t-12 -58q0 -24 3.5 -69.5t6.5 -92t3 -75.5q0 -175 -81 -250.5t-247 -75.5q-45 0 -89 6t-83 16
v247q14 -3 30.5 -5.5t35.5 -2.5q57 0 81 24.5t24 79.5q0 23 -3 64.5t-6.5 84.5t-3.5 68q0 63 17 109.5t59 76t116 38.5l-14 -7v17q-67 11 -106 39.5t-55.5 74.5t-16.5 107q0 26 3.5 68.5t6.5 84.5t3 64q0 55 -23 79.5t-78 24.5q-20 0 -38 -2.5t-32 -5.5v245z" />
    <glyph glyph-name="asciitilde" unicode="~" horiz-adv-x="1114" 
d="M753 460q-53 0 -101 10.5t-91 24.5t-81 24.5t-71 10.5q-44 0 -59.5 -22.5t-17.5 -69.5v-9h-248v68q0 154 64 237.5t212 83.5q55 0 103.5 -10.5t91 -25t80 -25t70.5 -10.5q44 0 59.5 24t17.5 73v4h248v-67q0 -151 -64 -236t-213 -85z" />
    <glyph glyph-name="ellipsis" unicode="&#x2026;" horiz-adv-x="1481" 
d="M1228 -30q-97 0 -143 49.5t-46 137.5v11q0 87 46 137.5t143 50.5q95 0 141.5 -50.5t46.5 -137.5v-11q0 -88 -46.5 -137.5t-141.5 -49.5zM741 -30q-97 0 -143 49.5t-46 137.5v11q0 87 46 137.5t143 50.5q95 0 141.5 -50.5t46.5 -137.5v-11q0 -88 -46.5 -137.5
t-141.5 -49.5zM254 -30q-97 0 -143 49.5t-46 137.5v11q0 87 46 137.5t143 50.5q95 0 141.5 -50.5t46.5 -137.5v-11q0 -88 -46.5 -137.5t-141.5 -49.5z" />
    <glyph glyph-name="endash" unicode="&#x2013;" horiz-adv-x="976" 
d="M79 368v280h818v-280h-818z" />
    <glyph glyph-name="emdash" unicode="&#x2014;" horiz-adv-x="1758" 
d="M79 368v280h1600v-280h-1600z" />
    <glyph glyph-name="quoteleft" unicode="&#x2018;" horiz-adv-x="477" 
d="M61 797q-4 21 -6.5 49t-2.5 60q0 125 38.5 232t120.5 201l241 -52q-34 -79 -54 -168t-20 -195q0 -33 1.5 -62t4.5 -65h-323z" />
    <glyph glyph-name="quoteright" unicode="&#x2019;" horiz-adv-x="477" 
d="M416 1319q4 -21 6.5 -49t2.5 -60q0 -124 -38 -231.5t-121 -201.5l-241 52q35 79 54.5 168t19.5 195q0 33 -1.5 62t-4.5 65h323z" />
    <glyph glyph-name="divide" unicode="&#xf7;" horiz-adv-x="1028" 
d="M84 478v280h860v-280h-860zM510 117q-78 0 -114.5 40t-36.5 110v8q0 70 36.5 110.5t114.5 40.5q77 0 114 -40.5t37 -110.5v-8q0 -70 -37 -110t-114 -40zM510 810q-78 0 -114.5 40t-36.5 110v8q0 70 36.5 110.5t114.5 40.5q77 0 114 -40.5t37 -110.5v-8q0 -70 -37 -110
t-114 -40z" />
    <glyph glyph-name="minus" unicode="&#x2212;" horiz-adv-x="998" 
d="M84 478v280h830v-280h-830z" />
    <glyph glyph-name="multiply" unicode="&#xd7;" horiz-adv-x="971" 
d="M925 369l-200 -179l-676 666l201 179zM46 369l675 666l200 -179l-675 -666z" />
    <glyph glyph-name="dollar" unicode="$" horiz-adv-x="1093" 
d="M688 1123h-297v351h297v-351zM688 -200h-297v362h297v-362zM516 -29q-88 0 -166 11t-143 28.5t-115 36.5l-31 328q80 -34 189 -64.5t229 -30.5q107 0 149.5 22t42.5 71v4q0 33 -20.5 54.5t-68.5 41t-129 45.5q-131 42 -221 91.5t-136 124t-46 190.5v15q0 179 123.5 273.5
t360.5 94.5q139 0 240.5 -23t175.5 -56l31 -306q-80 36 -178 59.5t-206 23.5q-71 0 -110.5 -9.5t-54.5 -28t-15 -45.5v-3q0 -28 18.5 -49.5t67.5 -43.5t140 -51q130 -41 218.5 -86t133.5 -115.5t45 -190.5v-14q0 -199 -129 -298.5t-395 -99.5z" />
    <glyph glyph-name="A" unicode="A" horiz-adv-x="1275" 
d="M15 0l355 1278h539l351 -1278h-365l-244 1041h-23l-248 -1041h-365zM350 277v276h573v-276h-573z" />
    <glyph glyph-name="B" unicode="B" horiz-adv-x="1240" 
d="M364 0v282h317q77 0 109.5 27.5t32.5 85.5v11q0 58 -32.5 85.5t-109.5 27.5h-324v259h313q74 0 104.5 28t30.5 83v7q0 55 -30.5 81.5t-104.5 26.5h-313v274h353q240 0 345.5 -76t105.5 -228v-14q0 -113 -62.5 -175.5t-197.5 -68.5v-11q148 -16 216.5 -94t68.5 -217v-23
q0 -187 -110 -279t-349 -92h-363zM104 0v1278h345v-1278h-345z" />
    <glyph glyph-name="C" unicode="C" horiz-adv-x="1052" 
d="M631 -29q-286 0 -424.5 148t-138.5 423v202q0 270 139.5 416.5t419.5 146.5q72 0 132.5 -10t110.5 -27.5t89 -40.5l26 -305q-58 28 -125.5 48.5t-154.5 20.5q-139 0 -203 -70t-64 -195v-171q0 -124 65 -194.5t216 -70.5q84 0 151 21.5t125 51.5l-26 -311
q-38 -23 -89.5 -42t-113.5 -30t-135 -11z" />
    <glyph glyph-name="D" unicode="D" horiz-adv-x="1265" 
d="M359 0v302h269q104 0 155 56t51 160v246q0 104 -51 159.5t-155 55.5h-269v299h282q281 0 419.5 -132.5t138.5 -381.5v-247q0 -250 -138 -383.5t-420 -133.5h-282zM104 0v1278h357v-1278h-357z" />
    <glyph glyph-name="E" unicode="E" horiz-adv-x="1108" 
d="M104 0v1278h353v-1278h-353zM209 0v301h823v-301h-823zM312 504v287h695v-287h-695zM209 980v298h814v-298h-814z" />
    <glyph glyph-name="F" unicode="F" horiz-adv-x="1056" 
d="M104 0v1278h360v-1278h-360zM312 415v304h664v-304h-664zM209 973v305h783v-305h-783z" />
    <glyph glyph-name="G" unicode="G" horiz-adv-x="1282" 
d="M508 -29q-146 0 -244 64.5t-147 186.5t-49 293v198q0 293 160 443.5t467 150.5q90 0 168.5 -11.5t144 -30.5t115.5 -43l30 -301q-78 31 -171.5 55t-213.5 24q-173 0 -252 -73t-79 -238v-178q0 -111 52.5 -172t167.5 -61q48 0 83.5 12.5t60 33.5t40.5 46v220l45 -101
l-229 -2v275h529v-544h-353q-15 -72 -49.5 -127.5t-100 -87.5t-175.5 -32zM846 262h340v-262h-350z" />
    <glyph glyph-name="H" unicode="H" horiz-adv-x="1329" 
d="M467 0h-363v1278h363v-1278zM1225 0h-363v1278h363v-1278zM313 803h684v-302h-684v302z" />
    <glyph glyph-name="I" unicode="I" horiz-adv-x="571" 
d="M467 0h-363v1278h363v-1278z" />
    <glyph glyph-name="J" unicode="J" horiz-adv-x="838" 
d="M295 -21q-61 0 -123 9.5t-112 28.5l-26 302q44 -13 87 -21.5t88 -8.5q102 0 136 43t34 132v814h363v-836q0 -229 -102.5 -346t-344.5 -117z" />
    <glyph glyph-name="K" unicode="K" horiz-adv-x="1234" 
d="M821 0l-342 554h-55v200h55l338 524h409l-435 -644v80l449 -714h-419zM104 0v1278h359v-1278h-359z" />
    <glyph glyph-name="L" unicode="L" horiz-adv-x="1029" 
d="M467 0h-363v1278h363v-1278zM312 304h667v-304h-667v304z" />
    <glyph glyph-name="M" unicode="M" horiz-adv-x="1626" 
d="M93 0l37 1278h494l183 -712h13l183 712h493l37 -1278h-350l-6 379l-7 490h-15l-186 -718h-312l-187 718h-16l-6 -491l-5 -378h-350z" />
    <glyph glyph-name="N" unicode="N" horiz-adv-x="1329" 
d="M593 1279l292 -884h14l-16 534v350h342v-1279h-474l-306 910h-14l16 -542v-368h-343v1279h489z" />
    <glyph glyph-name="O" unicode="O" horiz-adv-x="1294" 
d="M647 -33q-291 0 -435 141.5t-144 409.5v226q0 269 145 416t434 147t434 -147t145 -416v-226q0 -268 -144 -409.5t-435 -141.5zM647 265q107 0 158.5 61.5t51.5 173.5v263q0 120 -51.5 184t-158.5 64t-158.5 -64t-51.5 -184v-263q0 -112 51.5 -173.5t158.5 -61.5z" />
    <glyph glyph-name="P" unicode="P" horiz-adv-x="1203" 
d="M348 343v291h282q89 0 127.5 36t38.5 115v51q0 79 -38.5 115.5t-127.5 36.5h-282v290h314q254 0 373 -110.5t119 -320.5v-74q0 -211 -119 -320.5t-371 -109.5h-316zM104 0v1278h354v-725l2 -165v-388h-356z" />
    <glyph glyph-name="Q" unicode="Q" horiz-adv-x="1294" 
d="M1284 -59l-559 25q-352 16 -504.5 154.5t-152.5 414.5v210q0 269 145 415.5t434 146.5q192 0 320.5 -65.5t193 -190.5t64.5 -304v-140q0 -79 -19 -141t-55 -106.5t-88 -72t-117 -38.5v-13l338 13v-308zM674 268l37 -1q33 12 59.5 35t46 56.5t30 79t10.5 102.5v221
q0 120 -51.5 184t-158.5 64t-158.5 -64t-51.5 -184v-241q0 -121 65 -185t172 -67z" />
    <glyph glyph-name="R" unicode="R" horiz-adv-x="1230" 
d="M814 0l-20 233q-5 61 -23 97t-53 52t-92 16l-270 1v274l278 1q87 0 126 36.5t39 113.5v17q0 77 -38 113.5t-127 36.5h-279v287h332q245 0 358 -91t113 -266v-23q0 -133 -70.5 -202.5t-207.5 -74.5v-52l-56 48q119 -8 184.5 -47.5t97 -112t44.5 -181.5l34 -276h-370z
M104 0v1278h351v-704l2 -134v-440h-353z" />
    <glyph glyph-name="S" unicode="S" horiz-adv-x="1093" 
d="M516 -29q-88 0 -166 11t-143 28.5t-115 36.5l-31 328q80 -34 189 -64.5t229 -30.5q107 0 149.5 22t42.5 71v4q0 33 -20.5 54.5t-68.5 41t-129 45.5q-131 42 -221 91.5t-136 124t-46 190.5v15q0 179 123.5 273.5t360.5 94.5q139 0 240.5 -23t175.5 -56l31 -306
q-80 36 -178 59.5t-206 23.5q-71 0 -110.5 -9.5t-54.5 -28t-15 -45.5v-3q0 -28 18.5 -49.5t67.5 -43.5t140 -51q130 -41 218.5 -86t133.5 -115.5t45 -190.5v-14q0 -199 -129 -298.5t-395 -99.5z" />
    <glyph glyph-name="T" unicode="T" horiz-adv-x="1142" 
d="M390 0v1207h363v-1207h-363zM47 977v301h1048v-301h-1048z" />
    <glyph glyph-name="U" unicode="U" horiz-adv-x="1309" 
d="M655 -33q-286 0 -423 135.5t-137 397.5v778h363v-783q0 -112 48 -168t149 -56t148.5 56t47.5 168v783h363v-778q0 -262 -136.5 -397.5t-422.5 -135.5z" />
    <glyph glyph-name="V" unicode="V" horiz-adv-x="1246" 
d="M352 0l-337 1278h373l223 -1010h24l224 1010h372l-336 -1278h-543z" />
    <glyph glyph-name="W" unicode="W" horiz-adv-x="1749" 
d="M241 0l-211 1278h366l104 -872l12 -104h18l15 104l119 845h422l118 -845l15 -104h18l13 103l106 873h363l-209 -1278h-503l-104 797l-20 156h-16l-21 -156l-102 -797h-503z" />
    <glyph glyph-name="X" unicode="X" horiz-adv-x="1227" 
d="M14 0l336 703v-75l-322 650h382l194 -429h18l195 429h382l-323 -650v75l337 -703h-390l-201 460h-18l-200 -460h-390z" />
    <glyph glyph-name="Y" unicode="Y" horiz-adv-x="1197" 
d="M436 318l-436 960h377l138 -350l75 -208h17l75 208l137 350h377l-434 -960h-326zM421 0v640h356v-640h-356z" />
    <glyph glyph-name="Z" unicode="Z" horiz-adv-x="1093" 
d="M1038 302v-302h-984v284l552 693h-542v301h963v-282l-554 -694h565z" />
    <glyph glyph-name="grave" unicode="`" horiz-adv-x="729" 
d="M475 1376l169 -298v-3h-287l-244 297v4h362z" />
    <glyph glyph-name="a" unicode="a" horiz-adv-x="1077" 
d="M650 0l10 252l-7 9v306l-3 36q0 69 -44.5 101.5t-151.5 32.5q-97 0 -186.5 -23t-171.5 -53l29 269q50 22 111 40.5t133 29.5t153 11q137 0 228.5 -31.5t145.5 -89t77.5 -136.5t23.5 -174v-580h-347zM345 -24q-148 0 -223.5 75.5t-75.5 214.5v25q0 148 90.5 218t289.5 95
l251 32l21 -202l-213 -31q-58 -8 -80.5 -27.5t-22.5 -57.5v-4q0 -35 23.5 -57t78.5 -22q46 0 79.5 12.5t56 33.5t35.5 46l50 -120h-57q-15 -67 -47.5 -119t-93.5 -82t-162 -30z" />
    <glyph glyph-name="b" unicode="b" horiz-adv-x="1152" 
d="M734 -24q-89 0 -148 30t-93 84.5t-48 127.5h-85l80 215q1 -51 18.5 -88t51 -57t81.5 -20q71 0 107 42.5t36 127.5v120q0 86 -35 127.5t-106 41.5q-38 0 -70 -14t-55 -37.5t-34 -52.5l-81 144h97q14 68 47 123t93.5 87t154.5 32q170 0 257.5 -114t87.5 -344v-105
q0 -233 -87.5 -351.5t-268.5 -118.5zM92 0v1319h352v-285l-5 -330l1 -24v-364l-6 -59l10 -257h-352z" />
    <glyph glyph-name="c" unicode="c" horiz-adv-x="903" 
d="M531 -27q-241 0 -357 126t-116 355v85q0 222 116 348t356 126q59 0 112 -7.5t98 -21t80 -30.5l28 -289q-49 25 -106 41.5t-127 16.5q-108 0 -154.5 -49t-46.5 -141v-65q0 -96 51 -147.5t160 -51.5q68 0 123.5 15t109.5 40l-27 -290q-55 -27 -133 -44t-167 -17z" />
    <glyph glyph-name="d" unicode="d" horiz-adv-x="1152" 
d="M407 -24q-170 0 -257.5 114.5t-87.5 343.5v105q0 233 87.5 351.5t267.5 118.5q88 0 146 -30t91.5 -84t46.5 -128h91l-80 -205q-1 52 -18.5 88.5t-50 56.5t-80.5 20q-71 0 -108 -42t-37 -126v-121q0 -85 37.5 -127.5t112.5 -42.5q37 0 66.5 13t50.5 36t33 53l87 -152h-98
q-14 -68 -48 -123t-95 -87t-157 -32zM708 0l10 257l-6 49v394v45l-4 289v285h352v-1319h-352z" />
    <glyph glyph-name="e" unicode="e" horiz-adv-x="1081" 
d="M606 -26q-283 0 -415.5 123t-132.5 360v77q0 235 124.5 358t363.5 123q159 0 265 -52.5t159.5 -151t53.5 -237.5v-31q0 -40 -3.5 -81.5t-10.5 -76.5h-317q4 61 5.5 115t1.5 97q0 52 -16 87.5t-50 54t-88 18.5q-81 0 -117.5 -42t-36.5 -119v-89l2 -38v-62q0 -31 11 -60
t40.5 -51.5t84 -35.5t141.5 -13q89 0 174 14.5t164 40.5l-28 -257q-69 -34 -164.5 -52.5t-210.5 -18.5zM245 385v208h694v-208h-694z" />
    <glyph glyph-name="f" unicode="f" horiz-adv-x="775" 
d="M456 1354q83 0 156 -12.5t125 -29.5l30 -258q-38 9 -81 15.5t-93 6.5q-60 0 -92 -11t-43.5 -31t-11.5 -47v-2q0 -20 6.5 -35t16.5 -29l-227 -8v34q-59 19 -100.5 62.5t-41.5 115.5v5q0 108 86.5 166t269.5 58zM134 0v841h352v-841h-352zM11 662v278l279 -3l132 3h345
l-29 -278h-727z" />
    <glyph glyph-name="g" unicode="g" horiz-adv-x="1074" 
d="M545 310q-250 0 -372.5 88.5t-122.5 245.5v12q0 110 50.5 184t154.5 114.5t264 48.5l532 28v-244l-256 5v-10q71 -9 117 -33t68 -65t22 -101v-6q0 -130 -110 -198.5t-347 -68.5zM527 -132h33q66 0 104 7.5t54.5 22t16.5 34.5v2q0 28 -26.5 38.5t-72.5 14.5l-294 29l75 5
q-21 -4 -36.5 -13.5t-24 -24t-8.5 -34.5v-2q0 -24 17.5 -42t57 -27.5t104.5 -9.5zM511 -385q-154 0 -261 23t-162 74t-55 134v4q0 57 25 96t73 60.5t115 25.5v10q-79 14 -123.5 49t-44.5 101v2q0 48 22.5 80t65 49t102.5 18v39l235 -60h-63q-24 0 -35 -7t-11 -21v-1
q0 -19 19 -26t60 -12l231 -28q176 -21 263 -86.5t87 -204.5v-7q0 -106 -58.5 -175t-170.5 -103t-273 -34h-41zM532 543q52 0 85 12.5t49.5 36.5t16.5 58v6q0 34 -16.5 58t-49.5 36.5t-85 12.5v0q-51 0 -84.5 -12.5t-50 -36t-16.5 -58.5v-6q0 -34 16.5 -58t50 -36.5
t84.5 -12.5z" />
    <glyph glyph-name="h" unicode="h" horiz-adv-x="1156" 
d="M717 0v566q0 47 -11.5 81t-39 52t-76.5 18q-37 0 -66 -13t-49 -34.5t-32 -48.5l-72 146h80q15 69 49.5 123.5t97 86.5t159.5 32q108 0 177.5 -42t103 -126.5t33.5 -213.5v-627h-354zM92 0v1319h352v-286l-5 -342l7 -28v-663h-354z" />
    <glyph glyph-name="i" unicode="i" horiz-adv-x="537" 
d="M92 0v985h354v-985h-354zM269 1056q-97 0 -141 43.5t-44 117.5v8q0 74 44 117.5t141 43.5q96 0 140.5 -43.5t44.5 -117.5v-8q0 -75 -44.5 -118t-140.5 -43z" />
    <glyph glyph-name="j" unicode="j" horiz-adv-x="550" 
d="M105 162v823h354v-823h-354zM282 1056q-97 0 -141 43.5t-44 117.5v8q0 74 44 117.5t141 43.5q96 0 140.5 -43.5t44.5 -117.5v-8q0 -75 -44.5 -118t-140.5 -43zM96 -362q-45 0 -84 4.5t-68 12.5l-25 279q18 -5 36.5 -8t37.5 -3q69 0 90.5 36t21.5 97v150h354v-175
q0 -118 -34.5 -206t-113.5 -137.5t-215 -49.5z" />
    <glyph glyph-name="k" unicode="k" horiz-adv-x="1119" 
d="M715 0l-260 417h-72v192h72l255 376h403l-350 -494v65l363 -556h-411zM92 0v1319h352v-1319h-352z" />
    <glyph glyph-name="l" unicode="l" horiz-adv-x="538" 
d="M92 0v1319h354v-1319h-354z" />
    <glyph glyph-name="m" unicode="m" horiz-adv-x="1731" 
d="M1292 0v576q0 44 -10.5 75.5t-35.5 48.5t-69 17q-35 0 -61.5 -13t-45 -34.5t-28.5 -48.5l-31 146h30q15 69 49 123.5t95.5 86.5t158.5 32q104 0 170.5 -41t99 -123.5t32.5 -207.5v-637h-354zM92 0v985h352l-11 -280l13 -9v-696h-354zM692 0v576q0 44 -10.5 75.5
t-35.5 48.5t-69 17q-35 0 -61.5 -13t-45 -34.5t-28.5 -48.5l-54 146h57q15 69 48.5 123.5t94.5 86.5t156 32q137 0 206.5 -71t86.5 -205q2 -20 5.5 -51t3.5 -54v-628h-354z" />
    <glyph glyph-name="n" unicode="n" horiz-adv-x="1156" 
d="M717 0v566q0 47 -11.5 81t-39.5 52t-76 18q-37 0 -66 -13t-49.5 -34.5t-32.5 -48.5l-54 146h57q15 69 50.5 123.5t99 86.5t162.5 32q108 0 177.5 -42t103 -126.5t33.5 -213.5v-627h-354zM92 0v985h352l-11 -253l13 -36v-696h-354z" />
    <glyph glyph-name="o" unicode="o" horiz-adv-x="1112" 
d="M556 -30q-247 0 -372.5 120.5t-125.5 334.5v125q0 219 126 342t372 123q247 0 372.5 -123t125.5 -342v-125q0 -214 -125 -334.5t-373 -120.5zM556 248q71 0 107.5 42.5t36.5 121.5v152q0 85 -36.5 129t-107.5 44q-70 0 -107 -44t-37 -129v-152q0 -79 37 -121.5t107 -42.5
z" />
    <glyph glyph-name="p" unicode="p" horiz-adv-x="1152" 
d="M734 -24q-89 0 -148 30t-93 84.5t-48 127.5h-85l80 215q1 -51 18.5 -88t51 -57t81.5 -20q71 0 107 42.5t36 127.5v120q0 86 -35 127.5t-106 41.5q-38 0 -70 -14t-55 -37.5t-34 -52.5l-81 144h92q14 68 48 123t95 87t157 32q170 0 257.5 -114t87.5 -344v-105
q0 -233 -87.5 -351.5t-268.5 -118.5zM92 -344v1329h352l-12 -281l8 -24v-364l-6 -59l10 -257v-344h-352z" />
    <glyph glyph-name="q" unicode="q" horiz-adv-x="1152" 
d="M407 -24q-170 0 -257.5 114.5t-87.5 343.5v105q0 233 87.5 351.5t267.5 118.5q90 0 149 -30t93 -84t48 -128h91l-86 -205q-1 52 -18.5 88.5t-50 56.5t-80.5 20q-71 0 -108 -42t-37 -126v-121q0 -85 37.5 -127.5t112.5 -42.5q37 0 66.5 13t50.5 36t33 53l87 -152h-98
q-14 -68 -48 -123t-95 -87t-157 -32zM708 -344v344l10 257l-6 49v394l6 45l-10 240h352v-1329h-352z" />
    <glyph glyph-name="r" unicode="r" horiz-adv-x="810" 
d="M441 535l-102 200h83q20 125 88 195.5t195 70.5q19 0 35.5 -2t32.5 -5l17 -360q-20 4 -47.5 6t-53.5 2q-94 0 -156 -28.5t-92 -78.5zM92 0v985h330l-14 -326h38v-659h-354z" />
    <glyph glyph-name="s" unicode="s" horiz-adv-x="950" 
d="M457 -25q-117 0 -213 19t-166 45l-29 291q78 -30 173.5 -54.5t203.5 -24.5q79 0 108.5 13t29.5 42v2q0 22 -17 35t-59.5 24.5t-117.5 28.5q-123 29 -195 69.5t-103 98.5t-31 138v8q0 152 109.5 226.5t319.5 74.5q113 0 206.5 -19.5t157.5 -47.5l29 -271q-73 29 -163 48.5
t-184 19.5q-54 0 -83.5 -5.5t-40.5 -16.5t-11 -27v-2q0 -18 14 -30.5t53 -24.5t114 -30q123 -28 200 -62t113 -88.5t36 -147.5v-6q0 -166 -111 -246t-343 -80z" />
    <glyph glyph-name="t" unicode="t" horiz-adv-x="819" 
d="M498 -23q-137 0 -217.5 41.5t-115 123.5t-34.5 202v528h351v-468q0 -64 29 -93.5t114 -29.5q46 0 91.5 10.5t82.5 24.5l-30 -290q-52 -22 -120 -35.5t-151 -13.5zM8 708v277h781l-30 -277h-751zM136 961l-1 247l349 31l-12 -278h-336z" />
    <glyph glyph-name="u" unicode="u" horiz-adv-x="1156" 
d="M439 985v-566q0 -47 11.5 -81t39.5 -52t76 -18q38 0 66.5 13t49 35t32.5 48l54 -146h-57q-15 -68 -50.5 -123t-98.5 -87t-163 -32q-107 0 -177 42t-103.5 126.5t-33.5 213.5v627h354zM1064 985v-985h-352l11 253l-13 36v696h354z" />
    <glyph glyph-name="v" unicode="v" horiz-adv-x="1074" 
d="M552 230l149 755h362l-242 -985h-565l-245 985h366l151 -755h24z" />
    <glyph glyph-name="w" unicode="w" horiz-adv-x="1589" 
d="M199 0l-182 985h357l99 -736h19l94 713h418l97 -713h17l101 736h353l-182 -985h-497l-78 604l-12 100h-14l-13 -100l-79 -604h-498z" />
    <glyph glyph-name="x" unicode="x" horiz-adv-x="1091" 
d="M10 0l272 560v-95l-264 520h379l139 -326h20l139 326h378l-263 -520v95l271 -560h-379l-146 340h-20l-147 -340h-379z" />
    <glyph glyph-name="y" unicode="y" horiz-adv-x="1075" 
d="M695 276l-190 -82l197 791h362l-382 -1329h-353l153 518l168 -131h-390l-249 942h364l138 -709h182z" />
    <glyph glyph-name="z" unicode="z" horiz-adv-x="966" 
d="M905 290v-290h-844v263l411 433h-407v289h834v-262l-413 -433h419z" />
    <glyph glyph-name="quotesinglbase" unicode="&#x201a;" horiz-adv-x="482" 
d="M406 345q4 -27 7 -57.5t3 -65.5q0 -131 -41 -243.5t-133 -213.5l-241 53q42 83 65 178t23 213q0 36 -1.5 67.5t-4.5 68.5h323z" />
    <glyph glyph-name="quotedblbase" unicode="&#x201e;" horiz-adv-x="912" 
d="M836 345q4 -27 7 -57.5t3 -65.5q0 -131 -41 -243.5t-133 -213.5l-241 53q42 83 65 178t23 213q0 36 -1.5 67.5t-4.5 68.5h323zM406 345q4 -27 7 -57.5t3 -65.5q0 -131 -41 -243.5t-133 -213.5l-241 53q42 83 65 178t23 213q0 36 -1.5 67.5t-4.5 68.5h323z" />
    <glyph glyph-name="circumflex" unicode="&#x2c6;" horiz-adv-x="911" 
d="M273 1376h365l173 -297v-4h-257l-94 134h-9l-94 -134h-257v4z" />
    <glyph glyph-name="guilsinglleft" unicode="&#x2039;" horiz-adv-x="602" 
d="M342 489l255 -415h-325l-244 396v51l244 384h325z" />
    <glyph glyph-name="OE" unicode="&#x152;" horiz-adv-x="1859" 
d="M643 -38q-284 0 -429.5 144.5t-145.5 420.5v220q0 272 145.5 418.5t429.5 146.5q290 0 435.5 -150.5t145.5 -414.5v-220q0 -268 -145.5 -416.5t-435.5 -148.5zM647 260q107 0 158.5 65t51.5 187v250q0 122 -51.5 187t-158.5 65t-158.5 -65t-51.5 -187v-250
q0 -122 51.5 -187t158.5 -65zM842 0v301h941v-301h-941zM1065 504v287h693v-287h-693zM842 980v298h932v-298h-932z" />
    <glyph glyph-name="quotedblleft" unicode="&#x201c;" horiz-adv-x="912" 
d="M61 797q-4 21 -6.5 49t-2.5 60q0 125 38.5 232t120.5 201l241 -52q-34 -79 -54 -168t-20 -195q0 -33 1.5 -62t4.5 -65h-323zM496 797q-4 21 -6.5 49t-2.5 60q0 125 38.5 232t120.5 201l241 -52q-34 -79 -54 -168t-20 -195q0 -33 1.5 -62t4.5 -65h-323z" />
    <glyph glyph-name="quotedblright" unicode="&#x201d;" horiz-adv-x="911" 
d="M850 1319q4 -21 6.5 -49t2.5 -60q0 -124 -38 -231.5t-121 -201.5l-241 52q35 79 54.5 168t19.5 195q0 33 -1.5 62t-4.5 65h323zM416 1319q4 -21 6.5 -49t2.5 -60q0 -124 -38 -231.5t-121 -201.5l-241 52q35 79 54.5 168t19.5 195q0 33 -1.5 62t-4.5 65h323z" />
    <glyph glyph-name="bullet" unicode="&#x2022;" horiz-adv-x="685" 
d="M343 349q-136 0 -199.5 69.5t-63.5 191.5v15q0 122 63.5 192t199.5 70q133 0 197.5 -70t64.5 -192v-15q0 -122 -64.5 -191.5t-197.5 -69.5z" />
    <glyph glyph-name="tilde" unicode="&#x2dc;" horiz-adv-x="894" 
d="M583 1082q-36 0 -69.5 7.5t-63.5 18t-57 18t-50 7.5q-29 0 -40 -15.5t-12 -47.5v-1h-191v40q0 107 46.5 176.5t164.5 69.5q40 0 74 -7.5t63 -18t55 -18t49 -7.5q28 0 38.5 16t11.5 47v1h192v-43q0 -107 -47 -175t-164 -68z" />
    <glyph glyph-name="guilsinglright" unicode="&#x203a;" horiz-adv-x="602" 
d="M260 489l-255 416h325l244 -384v-51l-244 -396h-325z" />
    <glyph glyph-name="oe" unicode="&#x153;" horiz-adv-x="1723" 
d="M507 -30q-220 0 -334.5 122t-114.5 355v93q0 234 114.5 355.5t333.5 121.5q129 0 217 -49.5t134 -132.5h11q51 89 139 135.5t217 46.5q145 0 243.5 -52.5t148.5 -151t50 -238.5v-31q0 -40 -3.5 -81.5t-10.5 -76.5h-317q4 65 5.5 120t1.5 92q0 53 -16 88.5t-50 54
t-88 18.5q-81 0 -117.5 -46t-36.5 -116v-89l2 -38v-62q0 -69 61 -115.5t226 -46.5q86 0 168.5 14.5t159.5 40.5l-28 -257q-64 -34 -151.5 -52.5t-193.5 -18.5q-150 0 -249.5 45.5t-158.5 133.5h-11q-49 -85 -135 -133.5t-217 -48.5zM887 386v208h694v-208h-694zM553 248
q71 0 109 44.5t38 130.5v141q0 86 -38 130.5t-109 44.5q-69 0 -105 -44.5t-36 -130.5v-141q0 -86 36 -130.5t105 -44.5z" />
    <glyph glyph-name="exclamdown" unicode="&#xa1;" horiz-adv-x="536" 
d="M417 553l41 -846h-380l42 846h297zM270 1015q95 0 140.5 -49t45.5 -135v-11q0 -85 -45.5 -134.5t-140.5 -49.5t-140 49.5t-45 134.5v11q0 86 45 135t140 49z" />
    <glyph glyph-name="cent" unicode="&#xa2;" horiz-adv-x="903" 
d="M685 830h-296v351h296v-351zM685 -200h-296v362h296v-362zM531 -27q-241 0 -357 126t-116 355v85q0 222 116 348t356 126q59 0 112 -7.5t98 -21t80 -30.5l28 -289q-49 25 -106 41.5t-127 16.5q-108 0 -154.5 -49t-46.5 -141v-65q0 -96 51 -147.5t160 -51.5q68 0 123.5 15
t109.5 40l-27 -290q-55 -27 -133 -44t-167 -17z" />
    <glyph glyph-name="sterling" unicode="&#xa3;" horiz-adv-x="1102" 
d="M65 545l16 229h883l-16 -229h-883zM393 304h659v-304h-980v289l57 22q36 14 58 37t32 57t10 81t-9 101t-20.5 111.5t-20.5 115t-9 110.5q0 191 115 287t370 96q84 0 168 -9.5t152 -27.5l26 -298q-62 14 -121.5 22t-123.5 8q-86 0 -131 -17.5t-61 -50.5t-16 -81
q0 -40 8 -82.5t18.5 -84.5t18.5 -82t8 -77q0 -95 -47 -142.5t-161 -69.5v-11z" />
    <glyph glyph-name="currency" unicode="&#xa4;" horiz-adv-x="1146" 
d="M572 205q-208 0 -316 102.5t-108 291.5v24q0 188 108 290.5t316 102.5q209 0 316.5 -102.5t107.5 -290.5v-24q0 -189 -107.5 -291.5t-316.5 -102.5zM572 466q56 0 83.5 32t26.5 94l-1 37q-1 62 -27 94t-82 32q-55 0 -82.5 -31.5t-27.5 -94.5v-37q0 -62 27.5 -94t82.5 -32
zM876 485l217 -233l-195 -168l-213 227zM461 311l-213 -227l-194 168l221 235zM257 745l-203 218l194 168l208 -221zM685 903l213 228l194 -168l-220 -237z" />
    <glyph glyph-name="yen" unicode="&#xa5;" horiz-adv-x="1196" 
d="M659 502l52 190h390l-15 -190h-427zM115 403h986l-15 -190h-987zM480 692l54 -190h-435l16 190h365zM436 318l-436 960h377l138 -350l75 -208h17l75 208l137 350h377l-434 -960h-326zM421 0v640h356v-640h-356z" />
    <glyph glyph-name="brokenbar" unicode="&#xa6;" horiz-adv-x="541" 
d="M419 579h-297v842h297v-842zM419 -413h-297v854h297v-854z" />
    <glyph glyph-name="section" unicode="&#xa7;" horiz-adv-x="994" 
d="M544 486q35 14 50.5 33.5t15.5 50.5v4q0 34 -19.5 54t-65 35t-124.5 33q-124 29 -197.5 68t-105.5 97t-32 142v8q0 151 108 223.5t316 72.5q111 0 202.5 -20t155.5 -49l29 -267q-72 29 -160.5 48.5t-180.5 19.5q-80 0 -105 -11.5t-25 -32.5v-1q0 -16 13 -28t58.5 -26
t140.5 -37q102 -24 170.5 -52t102.5 -73t34 -120v-10q0 -79 -50.5 -130t-136.5 -63l1 -72zM445 710q-37 -13 -53.5 -35t-16.5 -50v-4q0 -31 17.5 -54t63 -41.5t130.5 -37.5q119 -26 194 -59t110 -89t35 -150v-6q0 -157 -111 -238.5t-344 -81.5q-115 0 -207.5 20.5
t-160.5 48.5l-29 288q77 -31 171 -56t198 -25q77 0 106.5 11.5t29.5 37.5v2q0 20 -16 32t-58.5 24.5t-123.5 33.5q-110 29 -179 60.5t-101.5 77.5t-32.5 117v11q0 77 49 126.5t125 62.5l-1 54z" />
    <glyph glyph-name="dieresis" unicode="&#xa8;" horiz-adv-x="876" 
d="M255 1062q-78 0 -116.5 40.5t-38.5 113.5v8q0 74 38.5 115t116.5 41q80 0 118.5 -41t38.5 -115v-8q0 -73 -38.5 -113.5t-118.5 -40.5zM620 1062q-79 0 -117 40.5t-38 113.5v8q0 74 38 115t117 41q78 0 117 -41t39 -115v-8q0 -73 -39 -113.5t-117 -40.5z" />
    <glyph glyph-name="copyright" unicode="&#xa9;" horiz-adv-x="1435" 
d="M717 -33q-211 0 -355.5 72t-219 209.5t-74.5 331.5v125q0 191 74.5 325.5t219 205.5t355.5 71t356 -71t219.5 -205.5t74.5 -325.5v-125q0 -194 -74.5 -331.5t-219.5 -209.5t-356 -72zM760 305q-157 0 -231.5 83t-74.5 232v38q0 147 75 229t230 82q56 0 102.5 -10.5
t79.5 -27.5l18 -189q-31 16 -66 26.5t-78 10.5q-69 0 -99 -32.5t-30 -91.5v-28q0 -61 33 -94t102 -33q42 0 77 10t67 26l-17 -192q-34 -17 -83 -28t-105 -11zM717 157q206 0 315 109.5t109 307.5v138q0 193 -109 299t-315 106q-205 0 -314 -106t-109 -299v-138
q0 -198 109 -307.5t314 -109.5z" />
    <glyph glyph-name="ordfeminine" unicode="&#xaa;" horiz-adv-x="678" 
d="M391 639l7 152l-5 6v208v24q0 41 -22.5 60.5t-85.5 19.5q-59 0 -115 -14.5t-106 -34.5l20 179q45 21 107.5 36.5t137.5 15.5q85 0 142 -20t91 -57.5t48.5 -88t14.5 -112.5v-374h-234zM215 624q-90 0 -136.5 48.5t-46.5 138.5v17q0 95 57 140t181 63l138 20l14 -134
l-95 -16q-35 -6 -49 -18.5t-14 -37.5v-3q0 -23 12 -37.5t42 -14.5q31 0 50 15t26 35l32 -78h-36q-12 -60 -51.5 -99t-123.5 -39z" />
    <glyph glyph-name="registered" unicode="&#xae;" horiz-adv-x="848" 
d="M424 501q-187 0 -288.5 96.5t-101.5 267.5v69q0 171 101.5 268t288.5 97t288.5 -97t101.5 -268v-69q0 -171 -101.5 -267.5t-288.5 -96.5zM424 615q128 0 191.5 63t63.5 182v81q0 119 -63.5 181t-191.5 62t-191.5 -62t-63.5 -181v-81q0 -119 63.5 -182t191.5 -63zM477 723
l-6 57q-3 30 -14 41t-38 12l-66 1v90h77q23 0 33 10t10 29v7q0 20 -10 29.5t-33 9.5h-77v94h96q75 0 110 -28t35 -80v-5q0 -40 -22 -62.5t-67 -24.5v-17l-17 15q54 -5 75 -28t28 -73l11 -77h-125zM271 723v380h119v-211l1 -38v-131h-120z" />
    <glyph glyph-name="degree" unicode="&#xb0;" horiz-adv-x="687" 
d="M344 725q-144 0 -221 76t-77 210v15q0 134 77 210t221 76t220.5 -76t76.5 -210v-15q0 -134 -76.5 -210t-220.5 -76zM344 901q43 0 65.5 28t22.5 80v20q0 51 -22.5 79t-65.5 28t-65.5 -28t-22.5 -79v-20q0 -52 22.5 -80t65.5 -28z" />
    <glyph glyph-name="plusminus" unicode="&#xb1;" horiz-adv-x="1039" 
d="M90 53v278h859v-278h-859zM668 415h-297v708h297v-708zM90 629v280h859v-280h-859z" />
    <glyph glyph-name="acute" unicode="&#xb4;" horiz-adv-x="729" 
d="M254 1376h362v-4l-244 -297h-287v3z" />
    <glyph glyph-name="paragraph" unicode="&#xb6;" horiz-adv-x="867" 
d="M394 634q-178 0 -258 80t-80 232v20q0 152 80.5 232t258.5 80h100v-644h-101zM763 0h-351v1278h351v-1278z" />
    <glyph glyph-name="cedilla" unicode="&#xb8;" horiz-adv-x="653" 
d="M440 37l-27 -174l-133 68q24 2 47 2.5t46 0.5q113 0 165 -39.5t52 -113.5v-6q0 -90 -66 -132.5t-195 -42.5q-46 0 -87.5 5t-74.5 12l-29 168q30 -6 63 -9.5t62 -3.5q50 0 72.5 6t22.5 24v2q0 19 -30 27.5t-124 11.5h-2h-2l25 194h215z" />
    <glyph glyph-name="ordmasculine" unicode="&#xba;" horiz-adv-x="712" 
d="M355 622q-156 0 -237.5 79.5t-81.5 228.5v56q0 149 81.5 228.5t237.5 79.5q158 0 239.5 -80t81.5 -228v-56q0 -149 -81.5 -228.5t-239.5 -79.5zM356 814q40 0 59 26t19 74v89q0 47 -19 73t-59 26t-59 -26t-19 -73v-89q0 -48 19 -74t59 -26z" />
    <glyph glyph-name="questiondown" unicode="&#xbf;" horiz-adv-x="934" 
d="M707 571v-300l-101 -18q-76 -13 -118 -34t-58.5 -49.5t-16.5 -65.5v-8q0 -59 40 -88.5t136 -29.5q80 0 160 16.5t160 44.5l-38 -296q-39 -16 -94.5 -31t-122 -24.5t-140.5 -9.5q-232 0 -348 100t-116 290v24q0 140 57 231t169.5 144.5t279.5 79.5zM574 1014q95 0 140 -49
t45 -135v-11q0 -85 -45 -134.5t-140 -49.5q-94 0 -140 49.5t-46 134.5v11q0 86 46 135t140 49z" />
    <glyph glyph-name="Agrave" unicode="&#xc0;" horiz-adv-x="1275" 
d="M15 0l355 1278h539l351 -1278h-365l-244 1041h-23l-248 -1041h-365zM350 277v276h573v-276h-573zM600 1654l214 -278v-3h-306l-281 278v3h373z" />
    <glyph glyph-name="Aacute" unicode="&#xc1;" horiz-adv-x="1275" 
d="M15 0l355 1278h539l351 -1278h-365l-244 1041h-23l-248 -1041h-365zM350 277v276h573v-276h-573zM675 1654h373v-3l-281 -278h-306v3z" />
    <glyph glyph-name="Acircumflex" unicode="&#xc2;" horiz-adv-x="1275" 
d="M15 0l355 1278h539l351 -1278h-365l-244 1041h-23l-248 -1041h-365zM350 277v276h573v-276h-573zM462 1654h353l200 -276v-5h-268l-104 117h-9l-104 -117h-268v5z" />
    <glyph glyph-name="Atilde" unicode="&#xc3;" horiz-adv-x="1275" 
d="M15 0l355 1278h539l351 -1278h-365l-244 1041h-23l-248 -1041h-365zM350 277v276h573v-276h-573zM774 1380q-36 0 -69.5 7.5t-63.5 17t-57 17t-50 7.5q-29 0 -40 -15t-12 -46v-1h-191v39q0 102 47.5 169t165.5 67q38 0 71.5 -7.5t62.5 -17t55 -17t49 -7.5q29 0 39.5 15
t11.5 46v1h192v-34q0 -106 -47 -173.5t-164 -67.5z" />
    <glyph glyph-name="Aring" unicode="&#xc5;" horiz-adv-x="1275" 
d="M15 0l355 1278h539l351 -1278h-365l-244 1041h-23l-248 -1041h-365zM350 277v276h573v-276h-573zM399 1522v7q0 82 56 134.5t183 52.5t183 -52.5t56 -134.5v-7q0 -81 -56 -134t-183 -53t-183 53t-56 134zM563 1524q0 -28 19 -44t56 -16q36 0 55 16t19 44v4q0 28 -19 43
t-55 15q-37 0 -56 -15t-19 -43v-4z" />
    <glyph glyph-name="Adieresis" unicode="&#xc4;" horiz-adv-x="1275" 
d="M15 0l355 1278h539l351 -1278h-365l-244 1041h-23l-248 -1041h-365zM350 277v276h573v-276h-573zM455 1361q-78 0 -116.5 40.5t-38.5 113.5v8q0 74 38.5 115t116.5 41q80 0 118.5 -41t38.5 -115v-8q0 -73 -38.5 -113.5t-118.5 -40.5zM820 1361q-79 0 -117 40.5t-38 113.5
v8q0 74 38 115t117 41q78 0 117 -41t39 -115v-8q0 -73 -39 -113.5t-117 -40.5z" />
    <glyph glyph-name="AE" unicode="&#xc6;" horiz-adv-x="1877" 
d="M8 0l578 1278h357l-2 -237h-104l-444 -1041h-385zM343 277v276h573v-276h-573zM978 0v301h823v-301h-823zM873 0v1278h353v-1278h-353zM1081 504v287h695v-287h-695zM978 980v298h814v-298h-814z" />
    <glyph glyph-name="Ccedilla" unicode="&#xc7;" horiz-adv-x="1052" 
d="M631 -29q-286 0 -424.5 148t-138.5 423v202q0 270 139.5 416.5t419.5 146.5q72 0 132.5 -10t110.5 -27.5t89 -40.5l26 -305q-58 28 -125.5 48.5t-154.5 20.5q-139 0 -203 -70t-64 -195v-171q0 -124 65 -194.5t216 -70.5q84 0 151 21.5t125 51.5l-26 -311
q-38 -23 -89.5 -42t-113.5 -30t-135 -11zM679 32l-27 -174l-133 68q24 2 47 2.5t46 0.5q113 0 165 -39.5t52 -113.5v-6q0 -90 -66 -132.5t-195 -42.5q-46 0 -87.5 5t-74.5 12l-29 168q30 -6 63 -9.5t62 -3.5q50 0 72.5 6t22.5 24v2q0 19 -30 27.5t-124 11.5h-2h-2l25 194
h215z" />
    <glyph glyph-name="Egrave" unicode="&#xc8;" horiz-adv-x="1108" 
d="M104 0v1278h353v-1278h-353zM209 0v301h823v-301h-823zM312 504v287h695v-287h-695zM209 980v298h814v-298h-814zM532 1654l214 -278v-3h-306l-281 278v3h373z" />
    <glyph glyph-name="Eacute" unicode="&#xc9;" horiz-adv-x="1108" 
d="M104 0v1278h353v-1278h-353zM209 0v301h823v-301h-823zM312 504v287h695v-287h-695zM209 980v298h814v-298h-814zM607 1654h373v-3l-281 -278h-306v3z" />
    <glyph glyph-name="Ecircumflex" unicode="&#xca;" horiz-adv-x="1108" 
d="M104 0v1278h353v-1278h-353zM209 0v301h823v-301h-823zM312 504v287h695v-287h-695zM209 980v298h814v-298h-814zM394 1654h353l200 -276v-5h-268l-104 117h-9l-104 -117h-268v5z" />
    <glyph glyph-name="Edieresis" unicode="&#xcb;" horiz-adv-x="1108" 
d="M104 0v1278h353v-1278h-353zM209 0v301h823v-301h-823zM312 504v287h695v-287h-695zM209 980v298h814v-298h-814zM387 1361q-78 0 -116.5 40.5t-38.5 113.5v8q0 74 38.5 115t116.5 41q80 0 118.5 -41t38.5 -115v-8q0 -73 -38.5 -113.5t-118.5 -40.5zM752 1361
q-79 0 -117 40.5t-38 113.5v8q0 74 38 115t117 41q78 0 117 -41t39 -115v-8q0 -73 -39 -113.5t-117 -40.5z" />
    <glyph glyph-name="Igrave" unicode="&#xcc;" horiz-adv-x="571" 
d="M467 0h-363v1278h363v-1278zM249 1654l214 -278v-3h-306l-281 278v3h373z" />
    <glyph glyph-name="Iacute" unicode="&#xcd;" horiz-adv-x="571" 
d="M467 0h-363v1278h363v-1278zM324 1654h373v-3l-281 -278h-306v3z" />
    <glyph glyph-name="Icircumflex" unicode="&#xce;" horiz-adv-x="571" 
d="M467 0h-363v1278h363v-1278zM111 1654h353l200 -276v-5h-268l-104 117h-9l-104 -117h-268v5z" />
    <glyph glyph-name="Idieresis" unicode="&#xcf;" horiz-adv-x="571" 
d="M467 0h-363v1278h363v-1278zM104 1361q-78 0 -116.5 40.5t-38.5 113.5v8q0 74 38.5 115t116.5 41q80 0 118.5 -41t38.5 -115v-8q0 -73 -38.5 -113.5t-118.5 -40.5zM469 1361q-79 0 -117 40.5t-38 113.5v8q0 74 38 115t117 41q78 0 117 -41t39 -115v-8q0 -73 -39 -113.5
t-117 -40.5z" />
    <glyph glyph-name="Eth" unicode="&#xd0;" horiz-adv-x="1265" 
d="M2 552v190l663 -1v-190zM359 0v302h269q104 0 155 56t51 160v246q0 104 -51 159.5t-155 55.5h-269v299h282q281 0 419.5 -132.5t138.5 -381.5v-247q0 -250 -138 -383.5t-420 -133.5h-282zM104 0v1278h357v-1278h-357z" />
    <glyph glyph-name="Ntilde" unicode="&#xd1;" horiz-adv-x="1329" 
d="M593 1279l292 -884h14l-16 534v350h342v-1279h-474l-306 910h-14l16 -542v-368h-343v1279h489zM806 1380q-36 0 -69.5 7.5t-63.5 17t-57 17t-50 7.5q-29 0 -40 -15t-12 -46v-1h-191v39q0 102 47.5 169t165.5 67q38 0 71.5 -7.5t62.5 -17t55 -17t49 -7.5q29 0 39.5 15
t11.5 46v1h192v-34q0 -106 -47 -173.5t-164 -67.5z" />
    <glyph glyph-name="Ograve" unicode="&#xd2;" horiz-adv-x="1294" 
d="M647 -33q-291 0 -435 141.5t-144 409.5v226q0 269 145 416t434 147t434 -147t145 -416v-226q0 -268 -144 -409.5t-435 -141.5zM647 265q107 0 158.5 61.5t51.5 173.5v263q0 120 -51.5 184t-158.5 64t-158.5 -64t-51.5 -184v-263q0 -112 51.5 -173.5t158.5 -61.5z
M609 1654l214 -278v-3h-306l-281 278v3h373z" />
    <glyph glyph-name="Oacute" unicode="&#xd3;" horiz-adv-x="1294" 
d="M647 -33q-291 0 -435 141.5t-144 409.5v226q0 269 145 416t434 147t434 -147t145 -416v-226q0 -268 -144 -409.5t-435 -141.5zM647 265q107 0 158.5 61.5t51.5 173.5v263q0 120 -51.5 184t-158.5 64t-158.5 -64t-51.5 -184v-263q0 -112 51.5 -173.5t158.5 -61.5z
M684 1654h373v-3l-281 -278h-306v3z" />
    <glyph glyph-name="Ocircumflex" unicode="&#xd4;" horiz-adv-x="1294" 
d="M647 -33q-291 0 -435 141.5t-144 409.5v226q0 269 145 416t434 147t434 -147t145 -416v-226q0 -268 -144 -409.5t-435 -141.5zM647 265q107 0 158.5 61.5t51.5 173.5v263q0 120 -51.5 184t-158.5 64t-158.5 -64t-51.5 -184v-263q0 -112 51.5 -173.5t158.5 -61.5z
M471 1654h353l200 -276v-5h-268l-104 117h-9l-104 -117h-268v5z" />
    <glyph glyph-name="Otilde" unicode="&#xd5;" horiz-adv-x="1294" 
d="M647 -33q-291 0 -435 141.5t-144 409.5v226q0 269 145 416t434 147t434 -147t145 -416v-226q0 -268 -144 -409.5t-435 -141.5zM647 265q107 0 158.5 61.5t51.5 173.5v263q0 120 -51.5 184t-158.5 64t-158.5 -64t-51.5 -184v-263q0 -112 51.5 -173.5t158.5 -61.5z
M783 1380q-36 0 -69.5 7.5t-63.5 17t-57 17t-50 7.5q-29 0 -40 -15t-12 -46v-1h-191v39q0 102 47.5 169t165.5 67q38 0 71.5 -7.5t62.5 -17t55 -17t49 -7.5q29 0 39.5 15t11.5 46v1h192v-34q0 -106 -47 -173.5t-164 -67.5z" />
    <glyph glyph-name="Odieresis" unicode="&#xd6;" horiz-adv-x="1294" 
d="M647 -33q-291 0 -435 141.5t-144 409.5v226q0 269 145 416t434 147t434 -147t145 -416v-226q0 -268 -144 -409.5t-435 -141.5zM647 265q107 0 158.5 61.5t51.5 173.5v263q0 120 -51.5 184t-158.5 64t-158.5 -64t-51.5 -184v-263q0 -112 51.5 -173.5t158.5 -61.5z
M464 1361q-78 0 -116.5 40.5t-38.5 113.5v8q0 74 38.5 115t116.5 41q80 0 118.5 -41t38.5 -115v-8q0 -73 -38.5 -113.5t-118.5 -40.5zM829 1361q-79 0 -117 40.5t-38 113.5v8q0 74 38 115t117 41q78 0 117 -41t39 -115v-8q0 -73 -39 -113.5t-117 -40.5z" />
    <glyph glyph-name="Oslash" unicode="&#xd8;" horiz-adv-x="1294" 
d="M652 -35q-184 0 -314.5 66.5t-200 192t-69.5 303.5v220q0 270 145.5 416t428.5 146q184 0 314.5 -67.5t200 -193.5t69.5 -301v-220q0 -274 -145 -418t-429 -144zM90 -73l207 293l75 105l465 754l64 99l117 174h186l-196 -292l-74 -99l-468 -767l-55 -76l-135 -191h-186z
M647 260q107 0 159.5 65t52.5 187v260q0 115 -48.5 178.5t-163.5 63.5q-108 0 -160 -65t-52 -187v-260q0 -122 52 -182t160 -60z" />
    <glyph glyph-name="Ugrave" unicode="&#xd9;" horiz-adv-x="1309" 
d="M655 -33q-286 0 -423 135.5t-137 397.5v778h363v-783q0 -112 48 -168t149 -56t148.5 56t47.5 168v783h363v-778q0 -262 -136.5 -397.5t-422.5 -135.5zM617 1654l214 -278v-3h-306l-281 278v3h373z" />
    <glyph glyph-name="Uacute" unicode="&#xda;" horiz-adv-x="1309" 
d="M655 -33q-286 0 -423 135.5t-137 397.5v778h363v-783q0 -112 48 -168t149 -56t148.5 56t47.5 168v783h363v-778q0 -262 -136.5 -397.5t-422.5 -135.5zM692 1654h373v-3l-281 -278h-306v3z" />
    <glyph glyph-name="Ucircumflex" unicode="&#xdb;" horiz-adv-x="1309" 
d="M655 -33q-286 0 -423 135.5t-137 397.5v778h363v-783q0 -112 48 -168t149 -56t148.5 56t47.5 168v783h363v-778q0 -262 -136.5 -397.5t-422.5 -135.5zM479 1654h353l200 -276v-5h-268l-104 117h-9l-104 -117h-268v5z" />
    <glyph glyph-name="Udieresis" unicode="&#xdc;" horiz-adv-x="1309" 
d="M655 -33q-286 0 -423 135.5t-137 397.5v778h363v-783q0 -112 48 -168t149 -56t148.5 56t47.5 168v783h363v-778q0 -262 -136.5 -397.5t-422.5 -135.5zM472 1361q-78 0 -116.5 40.5t-38.5 113.5v8q0 74 38.5 115t116.5 41q80 0 118.5 -41t38.5 -115v-8q0 -73 -38.5 -113.5
t-118.5 -40.5zM837 1361q-79 0 -117 40.5t-38 113.5v8q0 74 38 115t117 41q78 0 117 -41t39 -115v-8q0 -73 -39 -113.5t-117 -40.5z" />
    <glyph glyph-name="Yacute" unicode="&#xdd;" horiz-adv-x="1197" 
d="M436 318l-436 960h377l138 -350l75 -208h17l75 208l137 350h377l-434 -960h-326zM421 0v640h356v-640h-356zM635 1654h373v-3l-281 -278h-306v3z" />
    <glyph glyph-name="Thorn" unicode="&#xde;" horiz-adv-x="1203" 
d="M348 176v291h282q89 0 127.5 36t38.5 115v51q0 79 -38.5 115.5t-127.5 36.5h-282v290h314q254 0 373 -110.5t119 -320.5v-74q0 -211 -119 -320.5t-371 -109.5h-316zM104 0v1278h356v-233l-2 -138v-520l2 -165v-222h-356z" />
    <glyph glyph-name="germandbls" unicode="&#xdf;" horiz-adv-x="1240" 
d="M92 973q0 127 47 211.5t150.5 126.5t272.5 42q132 0 234.5 -32.5t161.5 -100.5t59 -175q0 -57 -18 -98t-44 -71.5t-52 -54.5t-44 -46.5t-18 -47.5v-2q0 -33 28.5 -53t120.5 -62q63 -28 109.5 -62.5t72 -89.5t25.5 -147v-9q0 -108 -51.5 -179t-143.5 -105.5t-215 -34.5
q-70 0 -134 9.5t-114 25.5l-29 282q50 -16 104 -28.5t120 -12.5q59 0 87.5 17.5t28.5 47.5v2q0 21 -11.5 35.5t-37.5 28.5t-71 33q-82 35 -132 67t-73 75t-23 111v3q0 53 17 93t42.5 70.5t51 56t42.5 49.5t17 51q0 26 -12.5 43.5t-37 26.5t-61.5 9q-45 0 -71.5 -14.5
t-37.5 -41t-11 -63.5v-959h-349v973z" />
    <glyph glyph-name="agrave" unicode="&#xe0;" horiz-adv-x="1077" 
d="M650 0l10 252l-7 9v306l-3 36q0 69 -44.5 101.5t-151.5 32.5q-97 0 -186.5 -23t-171.5 -53l29 269q50 22 111 40.5t133 29.5t153 11q137 0 228.5 -31.5t145.5 -89t77.5 -136.5t23.5 -174v-580h-347zM345 -24q-148 0 -223.5 75.5t-75.5 214.5v25q0 148 90.5 218t289.5 95
l251 32l21 -202l-213 -31q-58 -8 -80.5 -27.5t-22.5 -57.5v-4q0 -35 23.5 -57t78.5 -22q46 0 79.5 12.5t56 33.5t35.5 46l50 -120h-57q-15 -67 -47.5 -119t-93.5 -82t-162 -30zM525 1376l169 -298v-3h-287l-244 297v4h362z" />
    <glyph glyph-name="aacute" unicode="&#xe1;" horiz-adv-x="1077" 
d="M650 0l10 252l-7 9v306l-3 36q0 69 -44.5 101.5t-151.5 32.5q-97 0 -186.5 -23t-171.5 -53l29 269q50 22 111 40.5t133 29.5t153 11q137 0 228.5 -31.5t145.5 -89t77.5 -136.5t23.5 -174v-580h-347zM345 -24q-148 0 -223.5 75.5t-75.5 214.5v25q0 148 90.5 218t289.5 95
l251 32l21 -202l-213 -31q-58 -8 -80.5 -27.5t-22.5 -57.5v-4q0 -35 23.5 -57t78.5 -22q46 0 79.5 12.5t56 33.5t35.5 46l50 -120h-57q-15 -67 -47.5 -119t-93.5 -82t-162 -30zM548 1376h362v-4l-244 -297h-287v3z" />
    <glyph glyph-name="acircumflex" unicode="&#xe2;" horiz-adv-x="1077" 
d="M650 0l10 252l-7 9v306l-3 36q0 69 -44.5 101.5t-151.5 32.5q-97 0 -186.5 -23t-171.5 -53l29 269q50 22 111 40.5t133 29.5t153 11q137 0 228.5 -31.5t145.5 -89t77.5 -136.5t23.5 -174v-580h-347zM345 -24q-148 0 -223.5 75.5t-75.5 214.5v25q0 148 90.5 218t289.5 95
l251 32l21 -202l-213 -31q-58 -8 -80.5 -27.5t-22.5 -57.5v-4q0 -35 23.5 -57t78.5 -22q46 0 79.5 12.5t56 33.5t35.5 46l50 -120h-57q-15 -67 -47.5 -119t-93.5 -82t-162 -30zM354 1376h365l173 -297v-4h-257l-94 134h-9l-94 -134h-257v4z" />
    <glyph glyph-name="atilde" unicode="&#xe3;" horiz-adv-x="1077" 
d="M650 0l10 252l-7 9v306l-3 36q0 69 -44.5 101.5t-151.5 32.5q-97 0 -186.5 -23t-171.5 -53l29 269q50 22 111 40.5t133 29.5t153 11q137 0 228.5 -31.5t145.5 -89t77.5 -136.5t23.5 -174v-580h-347zM345 -24q-148 0 -223.5 75.5t-75.5 214.5v25q0 148 90.5 218t289.5 95
l251 32l21 -202l-213 -31q-58 -8 -80.5 -27.5t-22.5 -57.5v-4q0 -35 23.5 -57t78.5 -22q46 0 79.5 12.5t56 33.5t35.5 46l50 -120h-57q-15 -67 -47.5 -119t-93.5 -82t-162 -30zM673 1082q-36 0 -69.5 7.5t-63.5 18t-57 18t-50 7.5q-29 0 -40 -15.5t-12 -47.5v-1h-191v40
q0 107 46.5 176.5t164.5 69.5q40 0 74 -7.5t63 -18t55 -18t49 -7.5q28 0 38.5 16t11.5 47v1h192v-43q0 -107 -47 -175t-164 -68z" />
    <glyph glyph-name="adieresis" unicode="&#xe4;" horiz-adv-x="1077" 
d="M650 0l10 252l-7 9v306l-3 36q0 69 -44.5 101.5t-151.5 32.5q-97 0 -186.5 -23t-171.5 -53l29 269q50 22 111 40.5t133 29.5t153 11q137 0 228.5 -31.5t145.5 -89t77.5 -136.5t23.5 -174v-580h-347zM345 -24q-148 0 -223.5 75.5t-75.5 214.5v25q0 148 90.5 218t289.5 95
l251 32l21 -202l-213 -31q-58 -8 -80.5 -27.5t-22.5 -57.5v-4q0 -35 23.5 -57t78.5 -22q46 0 79.5 12.5t56 33.5t35.5 46l50 -120h-57q-15 -67 -47.5 -119t-93.5 -82t-162 -30zM354 1062q-78 0 -116.5 40.5t-38.5 113.5v8q0 74 38.5 115t116.5 41q80 0 118.5 -41t38.5 -115
v-8q0 -73 -38.5 -113.5t-118.5 -40.5zM719 1062q-79 0 -117 40.5t-38 113.5v8q0 74 38 115t117 41q78 0 117 -41t39 -115v-8q0 -73 -39 -113.5t-117 -40.5z" />
    <glyph glyph-name="aring" unicode="&#xe5;" horiz-adv-x="1077" 
d="M650 0l10 252l-7 9v306l-3 36q0 69 -44.5 101.5t-151.5 32.5q-97 0 -186.5 -23t-171.5 -53l29 269q50 22 111 40.5t133 29.5t153 11q137 0 228.5 -31.5t145.5 -89t77.5 -136.5t23.5 -174v-580h-347zM345 -24q-148 0 -223.5 75.5t-75.5 214.5v25q0 148 90.5 218t289.5 95
l251 32l21 -202l-213 -31q-58 -8 -80.5 -27.5t-22.5 -57.5v-4q0 -35 23.5 -57t78.5 -22q46 0 79.5 12.5t56 33.5t35.5 46l50 -120h-57q-15 -67 -47.5 -119t-93.5 -82t-162 -30zM298 1245v7q0 82 56 134.5t183 52.5t183 -52.5t56 -134.5v-7q0 -81 -56 -134t-183 -53t-183 53
t-56 134zM462 1247q0 -28 19 -44t56 -16q36 0 55 16t19 44v4q0 28 -19 43t-55 15q-37 0 -56 -15t-19 -43v-4z" />
    <glyph glyph-name="ae" unicode="&#xe6;" horiz-adv-x="1676" 
d="M1217 -27q-223 0 -351 69t-172 187l-19 60q-13 50 -16 95.5t-3 86.5l-6 132q0 69 -44.5 101.5t-151.5 32.5q-97 0 -186.5 -23t-171.5 -53l29 270q45 22 100 40.5t119 29.5t136 11q134 0 212.5 -50t116.5 -127h12q51 89 139 135.5t216 46.5q146 0 244.5 -52.5t148.5 -151
t50 -238.5v-31q0 -40 -3.5 -81.5t-10.5 -76.5h-317q4 61 5.5 115t1.5 97q0 53 -16 88.5t-50 54t-88 18.5q-81 0 -117.5 -46t-36.5 -118v-86l2 -36v-65q0 -32 13 -61t44.5 -52t87.5 -36t142 -13t168.5 14.5t159.5 40.5l-28 -257q-64 -34 -155.5 -52.5t-203.5 -18.5zM359 -24
q-160 0 -236.5 76t-76.5 214v25q0 148 90.5 218t289.5 95l251 32l21 -202l-213 -31q-58 -8 -80.5 -27.5t-22.5 -57.5v-4q0 -35 23.5 -57t78.5 -22q52 0 89 13.5t62.5 36t39.5 48.5l99 -167h-59q-31 -52 -73 -95t-109 -69t-174 -26zM840 386v208h694v-208h-694z" />
    <glyph glyph-name="ccedilla" unicode="&#xe7;" horiz-adv-x="903" 
d="M531 -27q-241 0 -357 126t-116 355v85q0 222 116 348t356 126q59 0 112 -7.5t98 -21t80 -30.5l28 -289q-49 25 -106 41.5t-127 16.5q-108 0 -154.5 -49t-46.5 -141v-65q0 -96 51 -147.5t160 -51.5q68 0 123.5 15t109.5 40l-27 -290q-55 -27 -133 -44t-167 -17zM607 37
l-27 -174l-133 68q24 2 47 2.5t46 0.5q113 0 165 -39.5t52 -113.5v-6q0 -90 -66 -132.5t-195 -42.5q-46 0 -87.5 5t-74.5 12l-29 168q30 -6 63 -9.5t62 -3.5q50 0 72.5 6t22.5 24v2q0 19 -30 27.5t-124 11.5h-2h-2l25 194h215z" />
    <glyph glyph-name="egrave" unicode="&#xe8;" horiz-adv-x="1081" 
d="M606 -26q-283 0 -415.5 123t-132.5 360v77q0 235 124.5 358t363.5 123q159 0 265 -52.5t159.5 -151t53.5 -237.5v-31q0 -40 -3.5 -81.5t-10.5 -76.5h-317q4 61 5.5 115t1.5 97q0 52 -16 87.5t-50 54t-88 18.5q-81 0 -117.5 -42t-36.5 -119v-89l2 -38v-62q0 -31 11 -60
t40.5 -51.5t84 -35.5t141.5 -13q89 0 174 14.5t164 40.5l-28 -257q-69 -34 -164.5 -52.5t-210.5 -18.5zM245 385v208h694v-208h-694zM542 1376l169 -298v-3h-287l-244 297v4h362z" />
    <glyph glyph-name="eacute" unicode="&#xe9;" horiz-adv-x="1081" 
d="M606 -26q-283 0 -415.5 123t-132.5 360v77q0 235 124.5 358t363.5 123q159 0 265 -52.5t159.5 -151t53.5 -237.5v-31q0 -40 -3.5 -81.5t-10.5 -76.5h-317q4 61 5.5 115t1.5 97q0 52 -16 87.5t-50 54t-88 18.5q-81 0 -117.5 -42t-36.5 -119v-89l2 -38v-62q0 -31 11 -60
t40.5 -51.5t84 -35.5t141.5 -13q89 0 174 14.5t164 40.5l-28 -257q-69 -34 -164.5 -52.5t-210.5 -18.5zM245 385v208h694v-208h-694zM565 1376h362v-4l-244 -297h-287v3z" />
    <glyph glyph-name="ecircumflex" unicode="&#xea;" horiz-adv-x="1081" 
d="M606 -26q-283 0 -415.5 123t-132.5 360v77q0 235 124.5 358t363.5 123q159 0 265 -52.5t159.5 -151t53.5 -237.5v-31q0 -40 -3.5 -81.5t-10.5 -76.5h-317q4 61 5.5 115t1.5 97q0 52 -16 87.5t-50 54t-88 18.5q-81 0 -117.5 -42t-36.5 -119v-89l2 -38v-62q0 -31 11 -60
t40.5 -51.5t84 -35.5t141.5 -13q89 0 174 14.5t164 40.5l-28 -257q-69 -34 -164.5 -52.5t-210.5 -18.5zM245 385v208h694v-208h-694zM371 1376h365l173 -297v-4h-257l-94 134h-9l-94 -134h-257v4z" />
    <glyph glyph-name="edieresis" unicode="&#xeb;" horiz-adv-x="1081" 
d="M606 -26q-283 0 -415.5 123t-132.5 360v77q0 235 124.5 358t363.5 123q159 0 265 -52.5t159.5 -151t53.5 -237.5v-31q0 -40 -3.5 -81.5t-10.5 -76.5h-317q4 61 5.5 115t1.5 97q0 52 -16 87.5t-50 54t-88 18.5q-81 0 -117.5 -42t-36.5 -119v-89l2 -38v-62q0 -31 11 -60
t40.5 -51.5t84 -35.5t141.5 -13q89 0 174 14.5t164 40.5l-28 -257q-69 -34 -164.5 -52.5t-210.5 -18.5zM245 385v208h694v-208h-694zM371 1062q-78 0 -116.5 40.5t-38.5 113.5v8q0 74 38.5 115t116.5 41q80 0 118.5 -41t38.5 -115v-8q0 -73 -38.5 -113.5t-118.5 -40.5z
M736 1062q-79 0 -117 40.5t-38 113.5v8q0 74 38 115t117 41q78 0 117 -41t39 -115v-8q0 -73 -39 -113.5t-117 -40.5z" />
    <glyph glyph-name="igrave" unicode="&#xec;" horiz-adv-x="538" 
d="M92 0v985h354v-985h-354zM315 1376l91 -298v-3h-275l-160 297v4h344z" />
    <glyph glyph-name="iacute" unicode="&#xed;" horiz-adv-x="538" 
d="M92 0v985h354v-985h-354zM222 1376h344v-4l-160 -297h-275v3z" />
    <glyph glyph-name="icircumflex" unicode="&#xee;" horiz-adv-x="538" 
d="M92 0v985h354v-985h-354zM97 1376h343l146 -297v-4h-244l-70 131h-7l-70 -131h-244v4z" />
    <glyph glyph-name="idieresis" unicode="&#xef;" horiz-adv-x="538" 
d="M92 0v985h354v-985h-354zM106 1062q-73 0 -109.5 40.5t-36.5 113.5v9q0 73 36.5 114t109.5 41q74 0 110.5 -41t36.5 -114v-9q0 -73 -36.5 -113.5t-110.5 -40.5zM432 1062q-74 0 -110 40.5t-36 113.5v9q0 73 36.5 114t109.5 41q72 0 109 -41t37 -114v-9q0 -73 -37 -113.5
t-109 -40.5z" />
    <glyph glyph-name="eth" unicode="&#xf0;" horiz-adv-x="1112" 
d="M556 -30q-244 0 -371 119.5t-127 347.5v33q0 206 98 317.5t264 111.5q71 0 120 -21t80.5 -56.5t49.5 -79.5h109l-80 -278q0 43 -9.5 75.5t-28 54.5t-46 33.5t-63.5 11.5q-69 0 -105 -44.5t-36 -130.5v-41q0 -87 37 -131t107 -44q71 0 107.5 44t36.5 131v73.5v89.5
q-2 26 -5 53t-5 53q-4 69 -38.5 133.5t-96.5 135t-150 157.5t-199 201v0h415q105 -103 186 -194t136 -180.5t83.5 -186t28.5 -210.5v-101q0 -233 -126.5 -355t-371.5 -122zM185 958v163l820 152v-161z" />
    <glyph glyph-name="ntilde" unicode="&#xf1;" horiz-adv-x="1156" 
d="M717 0v566q0 47 -11.5 81t-39.5 52t-76 18q-37 0 -66 -13t-49.5 -34.5t-32.5 -48.5l-54 146h57q15 69 50.5 123.5t99 86.5t162.5 32q108 0 177.5 -42t103 -126.5t33.5 -213.5v-627h-354zM92 0v985h352l-11 -253l13 -36v-696h-354zM715 1082q-36 0 -69.5 7.5t-63.5 18
t-57 18t-50 7.5q-29 0 -40 -15.5t-12 -47.5v-1h-191v40q0 107 46.5 176.5t164.5 69.5q40 0 74 -7.5t63 -18t55 -18t49 -7.5q28 0 38.5 16t11.5 47v1h192v-43q0 -107 -47 -175t-164 -68z" />
    <glyph glyph-name="ograve" unicode="&#xf2;" horiz-adv-x="1112" 
d="M556 -30q-247 0 -372.5 120.5t-125.5 334.5v125q0 219 126 342t372 123q247 0 372.5 -123t125.5 -342v-125q0 -214 -125 -334.5t-373 -120.5zM556 248q71 0 107.5 42.5t36.5 121.5v152q0 85 -36.5 129t-107.5 44q-70 0 -107 -44t-37 -129v-152q0 -79 37 -121.5t107 -42.5
zM545 1376l169 -298v-3h-287l-244 297v4h362z" />
    <glyph glyph-name="oacute" unicode="&#xf3;" horiz-adv-x="1112" 
d="M556 -30q-247 0 -372.5 120.5t-125.5 334.5v125q0 219 126 342t372 123q247 0 372.5 -123t125.5 -342v-125q0 -214 -125 -334.5t-373 -120.5zM556 248q71 0 107.5 42.5t36.5 121.5v152q0 85 -36.5 129t-107.5 44q-70 0 -107 -44t-37 -129v-152q0 -79 37 -121.5t107 -42.5
zM568 1376h362v-4l-244 -297h-287v3z" />
    <glyph glyph-name="ocircumflex" unicode="&#xf4;" horiz-adv-x="1112" 
d="M556 -30q-247 0 -372.5 120.5t-125.5 334.5v125q0 219 126 342t372 123q247 0 372.5 -123t125.5 -342v-125q0 -214 -125 -334.5t-373 -120.5zM556 248q71 0 107.5 42.5t36.5 121.5v152q0 85 -36.5 129t-107.5 44q-70 0 -107 -44t-37 -129v-152q0 -79 37 -121.5t107 -42.5
zM374 1376h365l173 -297v-4h-257l-94 134h-9l-94 -134h-257v4z" />
    <glyph glyph-name="otilde" unicode="&#xf5;" horiz-adv-x="1112" 
d="M556 -30q-247 0 -372.5 120.5t-125.5 334.5v125q0 219 126 342t372 123q247 0 372.5 -123t125.5 -342v-125q0 -214 -125 -334.5t-373 -120.5zM556 248q71 0 107.5 42.5t36.5 121.5v152q0 85 -36.5 129t-107.5 44q-70 0 -107 -44t-37 -129v-152q0 -79 37 -121.5t107 -42.5
zM693 1082q-36 0 -69.5 7.5t-63.5 18t-57 18t-50 7.5q-29 0 -40 -15.5t-12 -47.5v-1h-191v40q0 107 46.5 176.5t164.5 69.5q40 0 74 -7.5t63 -18t55 -18t49 -7.5q28 0 38.5 16t11.5 47v1h192v-43q0 -107 -47 -175t-164 -68z" />
    <glyph glyph-name="odieresis" unicode="&#xf6;" horiz-adv-x="1112" 
d="M556 -30q-247 0 -372.5 120.5t-125.5 334.5v125q0 219 126 342t372 123q247 0 372.5 -123t125.5 -342v-125q0 -214 -125 -334.5t-373 -120.5zM556 248q71 0 107.5 42.5t36.5 121.5v152q0 85 -36.5 129t-107.5 44q-70 0 -107 -44t-37 -129v-152q0 -79 37 -121.5t107 -42.5
zM374 1062q-78 0 -116.5 40.5t-38.5 113.5v8q0 74 38.5 115t116.5 41q80 0 118.5 -41t38.5 -115v-8q0 -73 -38.5 -113.5t-118.5 -40.5zM739 1062q-79 0 -117 40.5t-38 113.5v8q0 74 38 115t117 41q78 0 117 -41t39 -115v-8q0 -73 -39 -113.5t-117 -40.5z" />
    <glyph glyph-name="oslash" unicode="&#xf8;" horiz-adv-x="1116" 
d="M558 -28q-153 0 -265 57.5t-173.5 160t-61.5 237.5v113q0 233 128 354t372 121q154 0 266 -57.5t173 -160t61 -237.5v-113q0 -232 -127.5 -353.5t-372.5 -121.5zM107 -73l164 236l78 103l348 550l57 97l103 145h152l-164 -238l-69 -96l-348 -550l-58 -90l-111 -157h-152z
M558 246q80 0 120 46t40 134v155q0 73 -37 116.5t-123 43.5q-79 0 -119.5 -46t-40.5 -134v-155q0 -73 37.5 -116.5t122.5 -43.5z" />
    <glyph glyph-name="ugrave" unicode="&#xf9;" horiz-adv-x="1156" 
d="M439 985v-566q0 -47 11.5 -81t39.5 -52t76 -18q38 0 66.5 13t49 35t32.5 48l54 -146h-57q-15 -68 -50.5 -123t-98.5 -87t-163 -32q-107 0 -177 42t-103.5 126.5t-33.5 213.5v627h354zM1064 985v-985h-352l11 253l-13 36v696h354zM567 1376l169 -298v-3h-287l-244 297v4
h362z" />
    <glyph glyph-name="uacute" unicode="&#xfa;" horiz-adv-x="1156" 
d="M439 985v-566q0 -47 11.5 -81t39.5 -52t76 -18q38 0 66.5 13t49 35t32.5 48l54 -146h-57q-15 -68 -50.5 -123t-98.5 -87t-163 -32q-107 0 -177 42t-103.5 126.5t-33.5 213.5v627h354zM1064 985v-985h-352l11 253l-13 36v696h354zM590 1376h362v-4l-244 -297h-287v3z" />
    <glyph glyph-name="ucircumflex" unicode="&#xfb;" horiz-adv-x="1156" 
d="M439 985v-566q0 -47 11.5 -81t39.5 -52t76 -18q38 0 66.5 13t49 35t32.5 48l54 -146h-57q-15 -68 -50.5 -123t-98.5 -87t-163 -32q-107 0 -177 42t-103.5 126.5t-33.5 213.5v627h354zM1064 985v-985h-352l11 253l-13 36v696h354zM396 1376h365l173 -297v-4h-257l-94 134
h-9l-94 -134h-257v4z" />
    <glyph glyph-name="udieresis" unicode="&#xfc;" horiz-adv-x="1156" 
d="M439 985v-566q0 -47 11.5 -81t39.5 -52t76 -18q38 0 66.5 13t49 35t32.5 48l54 -146h-57q-15 -68 -50.5 -123t-98.5 -87t-163 -32q-107 0 -177 42t-103.5 126.5t-33.5 213.5v627h354zM1064 985v-985h-352l11 253l-13 36v696h354zM396 1062q-78 0 -116.5 40.5t-38.5 113.5
v8q0 74 38.5 115t116.5 41q80 0 118.5 -41t38.5 -115v-8q0 -73 -38.5 -113.5t-118.5 -40.5zM761 1062q-79 0 -117 40.5t-38 113.5v8q0 74 38 115t117 41q78 0 117 -41t39 -115v-8q0 -73 -39 -113.5t-117 -40.5z" />
    <glyph glyph-name="yacute" unicode="&#xfd;" horiz-adv-x="1075" 
d="M695 276l-190 -82l197 791h362l-382 -1329h-353l153 518l168 -131h-390l-249 942h364l138 -709h182zM549 1376h362v-4l-244 -297h-287v3z" />
    <glyph glyph-name="thorn" unicode="&#xfe;" horiz-adv-x="1152" 
d="M734 -24q-89 0 -148 30t-93 84.5t-48 127.5h-85l80 215q1 -51 18.5 -88t51 -57t81.5 -20q71 0 107 42.5t36 127.5v118q0 86 -35 127.5t-106 41.5q-38 0 -70 -13.5t-55 -36.5t-34 -52l-74 144h91q14 68 47 123t93 87t154 32q167 0 256 -114t89 -344v-105
q0 -233 -89.5 -351.5t-266.5 -118.5zM92 -344v1663h352v-287l-5 -309l1 -43v-364l-6 -59l10 -257v-344h-352z" />
    <glyph glyph-name="ydieresis" unicode="&#xff;" horiz-adv-x="1075" 
d="M695 276l-190 -82l197 791h362l-382 -1329h-353l153 518l168 -131h-390l-249 942h364l138 -709h182zM355 1062q-78 0 -116.5 40.5t-38.5 113.5v8q0 74 38.5 115t116.5 41q80 0 118.5 -41t38.5 -115v-8q0 -73 -38.5 -113.5t-118.5 -40.5zM720 1062q-79 0 -117 40.5
t-38 113.5v8q0 74 38 115t117 41q78 0 117 -41t39 -115v-8q0 -73 -39 -113.5t-117 -40.5z" />
    <glyph glyph-name="logicalnot" unicode="&#xac;" horiz-adv-x="1023" 
d="M944 184h-297v472h297v-472zM84 478v280h860v-280h-860z" />
    <glyph glyph-name="macron" unicode="&#xaf;" horiz-adv-x="837" 
d="M90 1094v209h657v-209h-657z" />
    <glyph glyph-name="ring" unicode="&#x2da;" horiz-adv-x="678" 
d="M100 1245v7q0 82 56 134.5t183 52.5t183 -52.5t56 -134.5v-7q0 -81 -56 -134t-183 -53t-183 53t-56 134zM264 1247q0 -28 19 -44t56 -16q36 0 55 16t19 44v4q0 28 -19 43t-55 15q-37 0 -56 -15t-19 -43v-4z" />
    <glyph glyph-name="periodcentered" unicode="&#xb7;" horiz-adv-x="480" 
d="M239 360q-88 0 -131 43t-43 116v7q0 74 43 118t131 44q89 0 132.5 -44t43.5 -118v-7q0 -73 -43.5 -116t-132.5 -43z" />
    <glyph glyph-name="fraction" unicode="&#x2044;" horiz-adv-x="401" 
d="M-375 0l901 1278h270l-898 -1278h-273z" />
    <glyph glyph-name="uni00B9" unicode="&#xb9;" horiz-adv-x="453" 
d="M172 726v452h-10l-144 -61l8 213l178 75h196v-679h-228z" />
    <glyph glyph-name="uni00B2" unicode="&#xb2;" horiz-adv-x="607" 
d="M27 726v193l183 129q36 26 63.5 45t43.5 37.5t16 40.5v2q0 26 -21 41.5t-80 15.5q-52 0 -107 -13.5t-94 -28.5l21 188q40 20 102 34t135 14q140 0 212 -57.5t72 -155.5v-7q0 -48 -16 -86t-49.5 -71t-87.5 -68l-92 -59v-34l-111 28h362v-188h-552z" />
    <glyph glyph-name="uni00B3" unicode="&#xb3;" horiz-adv-x="627" 
d="M274 706q-70 0 -130 9.5t-98 22.5l-20 186q44 -13 97.5 -22.5t111.5 -9.5q67 0 90 12t23 33v3q0 10 -4 17.5t-13 12.5t-24.5 8t-39.5 4l-149 4v162l140 4q49 2 69.5 11.5t20.5 31.5v2q0 21 -22.5 31t-77.5 10q-65 0 -122 -10.5t-95 -20.5l20 178q45 17 106 28t133 11
q153 0 229.5 -47t76.5 -136v-9q0 -61 -35 -100t-112 -49v-28l-17 23q92 -10 130 -51.5t38 -109.5v-10q0 -62 -35.5 -107.5t-108 -69.5t-182.5 -24z" />
    <glyph glyph-name="onequarter" unicode="&#xbc;" horiz-adv-x="1474" 
d="M172 599v452h-10l-144 -61l8 213l178 75h196v-679h-228zM78 0l901 1278h270l-898 -1278h-273zM1167 0v344l6 180h-12l-136 -244v-69l-98 62h531v-178h-658v189l235 395h347v-679h-215z" />
    <glyph glyph-name="onehalf" unicode="&#xbd;" horiz-adv-x="1481" 
d="M172 599v452h-10l-144 -61l8 213l178 75h196v-679h-228zM78 0l901 1278h270l-898 -1278h-273zM901 0v193l183 129q36 26 63.5 45t43.5 37.5t16 40.5v2q0 26 -21 41.5t-80 15.5q-52 0 -107 -13.5t-94 -28.5l21 188q40 20 102 34t135 14q140 0 212 -57.5t72 -155.5v-7
q0 -48 -16 -86t-49.5 -71t-87.5 -68l-92 -59v-34l-111 28h362v-188h-552z" />
    <glyph glyph-name="threequarters" unicode="&#xbe;" horiz-adv-x="1648" 
d="M274 579q-70 0 -130 9.5t-98 22.5l-20 186q44 -13 97.5 -22.5t111.5 -9.5q67 0 90 12t23 33v3q0 10 -4 17.5t-13 12.5t-24.5 8t-39.5 4l-149 4v162l140 4q49 2 69.5 11.5t20.5 31.5v2q0 21 -22.5 31t-77.5 10q-65 0 -122 -10.5t-95 -20.5l20 178q45 17 106 28t133 11
q153 0 229.5 -47t76.5 -136v-9q0 -61 -35 -100t-112 -49v-28l-17 23q92 -10 130 -51.5t38 -109.5v-10q0 -62 -35.5 -107.5t-108 -69.5t-182.5 -24zM252 0l901 1278h270l-898 -1278h-273zM1341 0v344l6 180h-12l-136 -244v-69l-98 62h531v-178h-658v189l235 395h347v-679
h-215z" />
    <glyph glyph-name="r_t" horiz-adv-x="1544" 
d="M1223 -24q-137 0 -217.5 41.5t-115 123.5t-34.5 202v529h351v-469q0 -64 29 -93.5t114 -29.5q46 0 91.5 10.5t82.5 24.5l-30 -290q-52 -22 -120 -35.5t-151 -13.5zM92 0v985h330l-14 -326h38v-659h-354zM441 535l-102 200h83q19 125 83 195.5t185 70.5q17 0 33 -2t30 -5
l17 -360q-19 4 -45 6t-51 2q-89 0 -147 -28.5t-86 -78.5zM856 708v277h658l-30 -277h-628zM856 961v247l349 31l-12 -278h-337z" />
    <glyph glyph-name="uni1E9E" unicode="&#x1e9e;" horiz-adv-x="1332" 
d="M446 0h-351v754q0 265 133.5 394.5t414.5 129.5h580v-272l-329 -365l-169 54q52 21 109.5 31t110.5 10q163 0 246.5 -84t83.5 -247v-29q0 -191 -113.5 -295.5t-341.5 -104.5q-73 0 -134 10t-104 23l-30 301q38 -12 89 -21t106 -9q93 0 129.5 32t36.5 92v9q0 60 -38.5 89
t-127.5 29q-38 0 -71.5 -3.5t-66.5 -8.5v223l306 335l25 -84h-246q-130 0 -189 -56.5t-59 -190.5v-746z" />
    <glyph glyph-name="dotlessi" unicode="&#x131;" horiz-adv-x="538" 
d="M92 0v985h354v-985h-354z" />
    <glyph glyph-name="zero.zero" horiz-adv-x="1249" 
d="M238 400l626 585l108 -142l-626 -591zM624 -29q-271 0 -410.5 141.5t-139.5 416.5v221q0 273 139 414.5t411 141.5t411.5 -141.5t139.5 -414.5v-221q0 -275 -139.5 -416.5t-411.5 -141.5zM624 269q96 0 139 61.5t43 182.5v251q0 122 -43 183t-139 61t-138.5 -61.5
t-42.5 -182.5v-251q0 -121 43.5 -182.5t137.5 -61.5z" />
    <glyph glyph-name="zero.tf" horiz-adv-x="1210" 
d="M605 -29q-271 0 -410.5 141.5t-139.5 416.5v221q0 273 139 414.5t411 141.5t411.5 -141.5t139.5 -414.5v-221q0 -275 -139.5 -416.5t-411.5 -141.5zM605 269q96 0 139 61.5t43 182.5v251q0 122 -43 183t-139 61t-138.5 -61.5t-42.5 -182.5v-251q0 -121 43.5 -182.5
t137.5 -61.5z" />
    <glyph glyph-name="one.tf" horiz-adv-x="1210" 
d="M478 0v916h-13l-320 -131l10 337l372 157l310 -1l1 -1278h-360zM118 0v303h1003v-303h-1003z" />
    <glyph glyph-name="two.tf" horiz-adv-x="1210" 
d="M139 0v323l319 258q77 63 128 108.5t76.5 85t25.5 83.5v9q0 38 -18.5 66.5t-62 45t-119.5 16.5q-95 0 -181.5 -26t-151.5 -56l31 310q45 22 104.5 40.5t132.5 30t161 11.5q234 0 353.5 -103t119.5 -286v-14q0 -92 -29 -164.5t-90 -140t-156 -143.5l-173 -138v-64l-157 52
h616v-304h-929z" />
    <glyph glyph-name="three.tf" horiz-adv-x="1210" 
d="M542 -27q-82 0 -155 9.5t-132.5 24t-102.5 29.5l-30 308q77 -28 169 -48t197 -20q88 0 135 12.5t65.5 37.5t18.5 61v8q0 36 -17 58.5t-56.5 34t-106.5 12.5l-251 6v280l250 7q66 2 105 13.5t56.5 34t17.5 57.5v6q0 35 -18.5 58t-62.5 34t-122 11q-107 0 -203 -21
t-167 -44l30 291q74 30 175.5 51.5t234.5 21.5q251 0 375 -87.5t124 -251.5v-20q0 -83 -27.5 -140t-84.5 -90t-148 -45v-48l-22 40q161 -20 225.5 -93t64.5 -202v-23q0 -172 -132 -272.5t-405 -100.5z" />
    <glyph glyph-name="four.tf" horiz-adv-x="1210" 
d="M694 0v681l15 350h-24l-258 -520v-139l-138 122h882v-292h-1091v329l394 747h563v-1278h-343z" />
    <glyph glyph-name="five.tf" horiz-adv-x="1210" 
d="M567 -29q-131 0 -235 23t-163 48l-30 318q47 -20 109.5 -39t135 -31.5t148.5 -12.5q92 0 142 18.5t69.5 52.5t19.5 81v17q0 63 -31 94.5t-102 31.5q-67 0 -110 -30t-69 -72l-306 47v761h918v-296h-588v-168l-3 -161h11q29 87 99.5 139t203.5 52q169 0 247 -102t78 -287
v-33q0 -138 -51 -239.5t-169.5 -156.5t-323.5 -55z" />
    <glyph glyph-name="six.tf" horiz-adv-x="1210" 
d="M634 -27q-175 0 -296.5 61.5t-184 180.5t-62.5 291v203q0 287 148 442t440 155q120 0 215.5 -20t161.5 -48l34 -297q-45 19 -97 33.5t-111 23.5t-127 9q-157 0 -231.5 -74t-74.5 -233v-199q0 -79 20.5 -130t63.5 -76t109 -25q83 0 120 37t37 109v12q0 46 -14 78
t-47.5 49.5t-92.5 17.5q-46 0 -85.5 -13.5t-69 -37.5t-46.5 -57l-42 157h57q16 61 55 110t107 78t169 29q182 0 270.5 -104.5t88.5 -298.5v-23q0 -215 -130 -327.5t-385 -112.5z" />
    <glyph glyph-name="seven.tf" horiz-adv-x="1210" 
d="M100 1278h337v-510h-337v510zM324 0l425 976h-532v302h910v-310l-414 -968h-389z" />
    <glyph glyph-name="eight.tf" horiz-adv-x="1210" 
d="M606 -36q-151 0 -254 26.5t-165 75.5t-89.5 117.5t-27.5 151.5v24q0 86 29 148t86.5 100.5t144.5 55.5v11q-80 14 -135 48t-83 89.5t-28 133.5v23q0 158 124 249.5t398 91.5q278 0 402 -91.5t124 -249.5v-23q0 -80 -28.5 -135t-84 -88t-137.5 -48v-11q89 -18 147.5 -56
t87.5 -99t29 -149v-24q0 -79 -25 -146.5t-85.5 -118t-165.5 -78.5t-264 -28zM611 245q104 0 141.5 34t37.5 92v5q0 62 -42.5 95t-149.5 52q-97 -19 -134.5 -55.5t-37.5 -91.5v-5q0 -59 39.5 -92.5t145.5 -33.5zM617 774q87 13 127.5 49.5t40.5 91.5v6q0 56 -40.5 88
t-138.5 32q-94 0 -134.5 -31.5t-40.5 -86.5v-6q0 -37 17 -65.5t57.5 -48t111.5 -29.5z" />
    <glyph glyph-name="nine.tf" horiz-adv-x="1210" 
d="M589 1304q266 0 403.5 -141t137.5 -416v-210q0 -272 -155.5 -419t-464.5 -147q-116 0 -201.5 17t-138.5 40l-35 308q59 -26 135 -46t170 -20q172 0 252 68.5t80 214.5v228q0 116 -45 171t-141 55q-85 0 -124.5 -40t-39.5 -110v-9q0 -72 40 -108t125 -36q42 0 78 12
t64 35.5t47 55.5l81 -152h-95q-16 -67 -56 -115.5t-106 -75t-163 -26.5q-179 0 -272 101t-93 281v45q0 212 132 325.5t385 113.5z" />
    <glyph glyph-name="zero.tf.zero" horiz-adv-x="1210" 
d="M219 400l626 585l108 -142l-626 -591zM605 -29q-271 0 -410.5 141.5t-139.5 416.5v221q0 273 139 414.5t411 141.5t411.5 -141.5t139.5 -414.5v-221q0 -275 -139.5 -416.5t-411.5 -141.5zM605 269q96 0 139 61.5t43 182.5v251q0 122 -43 183t-139 61t-138.5 -61.5
t-42.5 -182.5v-251q0 -121 43.5 -182.5t137.5 -61.5z" />
    <glyph glyph-name="zero.dnom" horiz-adv-x="739" 
d="M369 -23q-163 0 -247 83.5t-84 240.5v72q0 156 84 240t247 84q164 0 248 -84t84 -240v-72q0 -157 -84 -240.5t-248 -83.5zM369 168q50 0 72.5 31t22.5 89v97q0 58 -22.5 89t-72.5 31q-49 0 -71.5 -31t-22.5 -89v-97q0 -58 22.5 -89t71.5 -31z" />
    <glyph glyph-name="one.dnom" horiz-adv-x="453" 
d="M172 0v452h-10l-144 -61l8 213l178 75h196v-679h-228z" />
    <glyph glyph-name="two.dnom" horiz-adv-x="607" 
d="M27 0v193l183 129q36 26 63.5 45t43.5 37.5t16 40.5v2q0 26 -21 41.5t-80 15.5q-52 0 -107 -13.5t-94 -28.5l21 188q40 20 102 34t135 14q140 0 212 -57.5t72 -155.5v-7q0 -48 -16 -86t-49.5 -71t-87.5 -68l-92 -59v-34l-111 28h362v-188h-552z" />
    <glyph glyph-name="three.dnom" horiz-adv-x="627" 
d="M274 -20q-70 0 -130 9.5t-98 22.5l-20 186q44 -13 97.5 -22.5t111.5 -9.5q67 0 90 12t23 33v3q0 10 -4 17.5t-13 12.5t-24.5 8t-39.5 4l-149 4v162l140 4q49 2 69.5 11.5t20.5 31.5v2q0 21 -22.5 31t-77.5 10q-65 0 -122 -10.5t-95 -20.5l20 178q45 17 106 28t133 11
q153 0 229.5 -47t76.5 -136v-9q0 -61 -35 -100t-112 -49v-28l-17 23q92 -10 130 -51.5t38 -109.5v-10q0 -62 -35.5 -107.5t-108 -69.5t-182.5 -24z" />
    <glyph glyph-name="four.dnom" horiz-adv-x="700" 
d="M393 0v344l6 180h-12l-136 -244v-69l-98 62h531v-178h-658v189l235 395h347v-679h-215z" />
    <glyph glyph-name="five.dnom" horiz-adv-x="670" 
d="M298 -20q-70 0 -134.5 12t-101.5 25l-18 188q41 -15 104 -27.5t127 -12.5q76 0 104 18t28 46v3q0 27 -16 41t-51 14q-31 0 -55 -12.5t-42 -33.5l-197 26v412h564v-183h-354v-56l-2 -82h5q24 43 69 66t117 23q98 0 146.5 -54t48.5 -158v-9q0 -79 -34 -134t-109 -83.5
t-199 -28.5z" />
    <glyph glyph-name="six.dnom" horiz-adv-x="703" 
d="M361 -23q-159 0 -242.5 78t-83.5 231v86q0 156 91 240t265 84q62 0 117 -9.5t97 -23.5l23 -183q-40 13 -85.5 22t-104.5 9q-58 0 -96 -15.5t-56.5 -48t-18.5 -83.5v-87q0 -58 23.5 -85.5t75.5 -27.5q44 0 62.5 16.5t18.5 46.5v3q0 26 -17.5 43.5t-61.5 17.5
q-38 0 -65.5 -14t-41.5 -38l-23 97h34q11 33 35 57t62 37t87 13q108 0 161.5 -55.5t53.5 -161.5v-9q0 -118 -78.5 -179t-231.5 -61z" />
    <glyph glyph-name="seven.dnom" horiz-adv-x="595" 
d="M79 0l245 486h-301v193h545v-196l-233 -483h-256z" />
    <glyph glyph-name="eight.dnom" horiz-adv-x="702" 
d="M351 -22q-117 0 -187.5 24.5t-102.5 70t-32 107.5v12q0 40 16 72t48 54t81 32v7q-44 10 -74.5 29t-46 48.5t-15.5 67.5v14q0 82 74.5 132.5t238.5 50.5q165 0 239 -50.5t74 -132.5v-11q0 -59 -34.5 -96.5t-100.5 -51.5v-7q74 -16 109.5 -57.5t35.5 -100.5v-12
q0 -59 -30 -105t-100.5 -71.5t-192.5 -25.5zM354 152q49 0 66.5 16t17.5 41v5q0 27 -21.5 42.5t-70.5 22.5q-43 -6 -62 -23t-19 -43v-4q0 -26 19 -41.5t70 -15.5zM355 418q36 3 56.5 19t20.5 41v4q0 25 -18 39t-63 14q-43 0 -61.5 -13.5t-18.5 -38.5v-5q0 -24 19 -40t65 -20
z" />
    <glyph glyph-name="nine.dnom" horiz-adv-x="702" 
d="M336 697q161 0 246 -78t85 -233v-88q0 -102 -41.5 -173.5t-123 -109t-201.5 -37.5q-68 0 -118 9t-88 23l-24 186q37 -13 80.5 -22.5t102.5 -9.5q93 0 137 35t44 109v95q0 56 -23 83t-73 27q-45 0 -64.5 -16.5t-19.5 -46.5v-3q0 -26 18 -43.5t61 -17.5q38 0 66 14t41 38
l23 -99h-34q-10 -33 -34.5 -57t-61 -37t-84.5 -13q-111 0 -165 54t-54 159v9q0 117 78 180t227 63z" />
    <glyph glyph-name="uni2080" unicode="&#x2080;" horiz-adv-x="739" 
d="M369 -224q-163 0 -247 83.5t-84 240.5v72q0 156 84 240t247 84q164 0 248 -84t84 -240v-72q0 -157 -84 -240.5t-248 -83.5zM369 -33q50 0 72.5 31t22.5 89v97q0 58 -22.5 89t-72.5 31q-49 0 -71.5 -31t-22.5 -89v-97q0 -58 22.5 -89t71.5 -31z" />
    <glyph glyph-name="uni2081" unicode="&#x2081;" horiz-adv-x="453" 
d="M172 -201v452h-10l-144 -61l8 213l178 75h196v-679h-228z" />
    <glyph glyph-name="uni2082" unicode="&#x2082;" horiz-adv-x="607" 
d="M27 -201v193l183 129q36 26 63.5 45t43.5 37.5t16 40.5v2q0 26 -21 41.5t-80 15.5q-52 0 -107 -13.5t-94 -28.5l21 188q40 20 102 34t135 14q140 0 212 -57.5t72 -155.5v-7q0 -48 -16 -86t-49.5 -71t-87.5 -68l-92 -59v-34l-111 28h362v-188h-552z" />
    <glyph glyph-name="uni2083" unicode="&#x2083;" horiz-adv-x="627" 
d="M274 -221q-70 0 -130 9.5t-98 22.5l-20 186q44 -13 97.5 -22.5t111.5 -9.5q67 0 90 12t23 33v3q0 10 -4 17.5t-13 12.5t-24.5 8t-39.5 4l-149 4v162l140 4q49 2 69.5 11.5t20.5 31.5v2q0 21 -22.5 31t-77.5 10q-65 0 -122 -10.5t-95 -20.5l20 178q45 17 106 28t133 11
q153 0 229.5 -47t76.5 -136v-9q0 -61 -35 -100t-112 -49v-28l-17 23q92 -10 130 -51.5t38 -109.5v-10q0 -62 -35.5 -107.5t-108 -69.5t-182.5 -24z" />
    <glyph glyph-name="uni2084" unicode="&#x2084;" horiz-adv-x="700" 
d="M393 -201v344l6 180h-12l-136 -244v-69l-98 62h531v-178h-658v189l235 395h347v-679h-215z" />
    <glyph glyph-name="uni2085" unicode="&#x2085;" horiz-adv-x="670" 
d="M298 -221q-70 0 -134.5 12t-101.5 25l-18 188q41 -15 104 -27.5t127 -12.5q76 0 104 18t28 46v3q0 27 -16 41t-51 14q-31 0 -55 -12.5t-42 -33.5l-197 26v412h564v-183h-354v-56l-2 -82h5q24 43 69 66t117 23q98 0 146.5 -54t48.5 -158v-9q0 -79 -34 -134t-109 -83.5
t-199 -28.5z" />
    <glyph glyph-name="uni2086" unicode="&#x2086;" horiz-adv-x="703" 
d="M361 -224q-159 0 -242.5 78t-83.5 231v86q0 156 91 240t265 84q62 0 117 -9.5t97 -23.5l23 -183q-40 13 -85.5 22t-104.5 9q-58 0 -96 -15.5t-56.5 -48t-18.5 -83.5v-87q0 -58 23.5 -85.5t75.5 -27.5q44 0 62.5 16.5t18.5 46.5v3q0 26 -17.5 43.5t-61.5 17.5
q-38 0 -65.5 -14t-41.5 -38l-23 97h34q11 33 35 57t62 37t87 13q108 0 161.5 -55.5t53.5 -161.5v-9q0 -118 -78.5 -179t-231.5 -61z" />
    <glyph glyph-name="uni2087" unicode="&#x2087;" horiz-adv-x="595" 
d="M79 -201l245 486h-301v193h545v-196l-233 -483h-256z" />
    <glyph glyph-name="uni2088" unicode="&#x2088;" horiz-adv-x="702" 
d="M351 -223q-117 0 -187.5 24.5t-102.5 70t-32 107.5v12q0 40 16 72t48 54t81 32v7q-44 10 -74.5 29t-46 48.5t-15.5 67.5v14q0 82 74.5 132.5t238.5 50.5q165 0 239 -50.5t74 -132.5v-11q0 -59 -34.5 -96.5t-100.5 -51.5v-7q74 -16 109.5 -57.5t35.5 -100.5v-12
q0 -59 -30 -105t-100.5 -71.5t-192.5 -25.5zM354 -49q49 0 66.5 16t17.5 41v5q0 27 -21.5 42.5t-70.5 22.5q-43 -6 -62 -23t-19 -43v-4q0 -26 19 -41.5t70 -15.5zM355 217q36 3 56.5 19t20.5 41v4q0 25 -18 39t-63 14q-43 0 -61.5 -13.5t-18.5 -38.5v-5q0 -24 19 -40t65 -20
z" />
    <glyph glyph-name="uni2089" unicode="&#x2089;" horiz-adv-x="702" 
d="M336 496q161 0 246 -78t85 -233v-88q0 -102 -41.5 -173.5t-123 -109t-201.5 -37.5q-68 0 -118 9t-88 23l-24 186q37 -13 80.5 -22.5t102.5 -9.5q93 0 137 35t44 109v95q0 56 -23 83t-73 27q-45 0 -64.5 -16.5t-19.5 -46.5v-3q0 -26 18 -43.5t61 -17.5q38 0 66 14t41 38
l23 -99h-34q-10 -33 -34.5 -57t-61 -37t-84.5 -13q-111 0 -165 54t-54 159v9q0 117 78 180t227 63z" />
    <glyph glyph-name="zero.numr" horiz-adv-x="739" 
d="M369 576q-163 0 -247 83.5t-84 240.5v72q0 156 84 240t247 84q164 0 248 -84t84 -240v-72q0 -157 -84 -240.5t-248 -83.5zM369 767q50 0 72.5 31t22.5 89v97q0 58 -22.5 89t-72.5 31q-49 0 -71.5 -31t-22.5 -89v-97q0 -58 22.5 -89t71.5 -31z" />
    <glyph glyph-name="one.numr" horiz-adv-x="453" 
d="M172 599v452h-10l-144 -61l8 213l178 75h196v-679h-228z" />
    <glyph glyph-name="two.numr" horiz-adv-x="607" 
d="M27 599v193l183 129q36 26 63.5 45t43.5 37.5t16 40.5v2q0 26 -21 41.5t-80 15.5q-52 0 -107 -13.5t-94 -28.5l21 188q40 20 102 34t135 14q140 0 212 -57.5t72 -155.5v-7q0 -48 -16 -86t-49.5 -71t-87.5 -68l-92 -59v-34l-111 28h362v-188h-552z" />
    <glyph glyph-name="three.numr" horiz-adv-x="627" 
d="M274 579q-70 0 -130 9.5t-98 22.5l-20 186q44 -13 97.5 -22.5t111.5 -9.5q67 0 90 12t23 33v3q0 10 -4 17.5t-13 12.5t-24.5 8t-39.5 4l-149 4v162l140 4q49 2 69.5 11.5t20.5 31.5v2q0 21 -22.5 31t-77.5 10q-65 0 -122 -10.5t-95 -20.5l20 178q45 17 106 28t133 11
q153 0 229.5 -47t76.5 -136v-9q0 -61 -35 -100t-112 -49v-28l-17 23q92 -10 130 -51.5t38 -109.5v-10q0 -62 -35.5 -107.5t-108 -69.5t-182.5 -24z" />
    <glyph glyph-name="four.numr" horiz-adv-x="700" 
d="M393 599v344l6 180h-12l-136 -244v-69l-98 62h531v-178h-658v189l235 395h347v-679h-215z" />
    <glyph glyph-name="five.numr" horiz-adv-x="670" 
d="M298 579q-70 0 -134.5 12t-101.5 25l-18 188q41 -15 104 -27.5t127 -12.5q76 0 104 18t28 46v3q0 27 -16 41t-51 14q-31 0 -55 -12.5t-42 -33.5l-197 26v412h564v-183h-354v-56l-2 -82h5q24 43 69 66t117 23q98 0 146.5 -54t48.5 -158v-9q0 -79 -34 -134t-109 -83.5
t-199 -28.5z" />
    <glyph glyph-name="six.numr" horiz-adv-x="703" 
d="M361 576q-159 0 -242.5 78t-83.5 231v86q0 156 91 240t265 84q62 0 117 -9.5t97 -23.5l23 -183q-40 13 -85.5 22t-104.5 9q-58 0 -96 -15.5t-56.5 -48t-18.5 -83.5v-87q0 -58 23.5 -85.5t75.5 -27.5q44 0 62.5 16.5t18.5 46.5v3q0 26 -17.5 43.5t-61.5 17.5
q-38 0 -65.5 -14t-41.5 -38l-23 97h34q11 33 35 57t62 37t87 13q108 0 161.5 -55.5t53.5 -161.5v-9q0 -118 -78.5 -179t-231.5 -61z" />
    <glyph glyph-name="seven.numr" horiz-adv-x="595" 
d="M79 599l245 486h-301v193h545v-196l-233 -483h-256z" />
    <glyph glyph-name="eight.numr" horiz-adv-x="702" 
d="M351 577q-117 0 -187.5 24.5t-102.5 70t-32 107.5v12q0 40 16 72t48 54t81 32v7q-44 10 -74.5 29t-46 48.5t-15.5 67.5v14q0 82 74.5 132.5t238.5 50.5q165 0 239 -50.5t74 -132.5v-11q0 -59 -34.5 -96.5t-100.5 -51.5v-7q74 -16 109.5 -57.5t35.5 -100.5v-12
q0 -59 -30 -105t-100.5 -71.5t-192.5 -25.5zM354 751q49 0 66.5 16t17.5 41v5q0 27 -21.5 42.5t-70.5 22.5q-43 -6 -62 -23t-19 -43v-4q0 -26 19 -41.5t70 -15.5zM355 1017q36 3 56.5 19t20.5 41v4q0 25 -18 39t-63 14q-43 0 -61.5 -13.5t-18.5 -38.5v-5q0 -24 19 -40
t65 -20z" />
    <glyph glyph-name="nine.numr" horiz-adv-x="702" 
d="M336 1296q161 0 246 -78t85 -233v-88q0 -102 -41.5 -173.5t-123 -109t-201.5 -37.5q-68 0 -118 9t-88 23l-24 186q37 -13 80.5 -22.5t102.5 -9.5q93 0 137 35t44 109v95q0 56 -23 83t-73 27q-45 0 -64.5 -16.5t-19.5 -46.5v-3q0 -26 18 -43.5t61 -17.5q38 0 66 14t41 38
l23 -99h-34q-10 -33 -34.5 -57t-61 -37t-84.5 -13q-111 0 -165 54t-54 159v9q0 117 78 180t227 63z" />
    <glyph glyph-name="uni2070" unicode="&#x2070;" horiz-adv-x="739" 
d="M369 703q-163 0 -247 83.5t-84 240.5v72q0 156 84 240t247 84q164 0 248 -84t84 -240v-72q0 -157 -84 -240.5t-248 -83.5zM369 894q50 0 72.5 31t22.5 89v97q0 58 -22.5 89t-72.5 31q-49 0 -71.5 -31t-22.5 -89v-97q0 -58 22.5 -89t71.5 -31z" />
    <glyph glyph-name="uni2074" unicode="&#x2074;" horiz-adv-x="700" 
d="M393 726v344l6 180h-12l-136 -244v-69l-98 62h531v-178h-658v189l235 395h347v-679h-215z" />
    <glyph glyph-name="uni2075" unicode="&#x2075;" horiz-adv-x="670" 
d="M298 706q-70 0 -134.5 12t-101.5 25l-18 188q41 -15 104 -27.5t127 -12.5q76 0 104 18t28 46v3q0 27 -16 41t-51 14q-31 0 -55 -12.5t-42 -33.5l-197 26v412h564v-183h-354v-56l-2 -82h5q24 43 69 66t117 23q98 0 146.5 -54t48.5 -158v-9q0 -79 -34 -134t-109 -83.5
t-199 -28.5z" />
    <glyph glyph-name="uni2076" unicode="&#x2076;" horiz-adv-x="703" 
d="M361 703q-159 0 -242.5 78t-83.5 231v86q0 156 91 240t265 84q62 0 117 -9.5t97 -23.5l23 -183q-40 13 -85.5 22t-104.5 9q-58 0 -96 -15.5t-56.5 -48t-18.5 -83.5v-87q0 -58 23.5 -85.5t75.5 -27.5q44 0 62.5 16.5t18.5 46.5v3q0 26 -17.5 43.5t-61.5 17.5
q-38 0 -65.5 -14t-41.5 -38l-23 97h34q11 33 35 57t62 37t87 13q108 0 161.5 -55.5t53.5 -161.5v-9q0 -118 -78.5 -179t-231.5 -61z" />
    <glyph glyph-name="uni2077" unicode="&#x2077;" horiz-adv-x="595" 
d="M79 726l245 486h-301v193h545v-196l-233 -483h-256z" />
    <glyph glyph-name="uni2078" unicode="&#x2078;" horiz-adv-x="702" 
d="M351 704q-117 0 -187.5 24.5t-102.5 70t-32 107.5v12q0 40 16 72t48 54t81 32v7q-44 10 -74.5 29t-46 48.5t-15.5 67.5v14q0 82 74.5 132.5t238.5 50.5q165 0 239 -50.5t74 -132.5v-11q0 -59 -34.5 -96.5t-100.5 -51.5v-7q74 -16 109.5 -57.5t35.5 -100.5v-12
q0 -59 -30 -105t-100.5 -71.5t-192.5 -25.5zM354 878q49 0 66.5 16t17.5 41v5q0 27 -21.5 42.5t-70.5 22.5q-43 -6 -62 -23t-19 -43v-4q0 -26 19 -41.5t70 -15.5zM355 1144q36 3 56.5 19t20.5 41v4q0 25 -18 39t-63 14q-43 0 -61.5 -13.5t-18.5 -38.5v-5q0 -24 19 -40
t65 -20z" />
    <glyph glyph-name="uni2079" unicode="&#x2079;" horiz-adv-x="702" 
d="M336 1423q161 0 246 -78t85 -233v-88q0 -102 -41.5 -173.5t-123 -109t-201.5 -37.5q-68 0 -118 9t-88 23l-24 186q37 -13 80.5 -22.5t102.5 -9.5q93 0 137 35t44 109v95q0 56 -23 83t-73 27q-45 0 -64.5 -16.5t-19.5 -46.5v-3q0 -26 18 -43.5t61 -17.5q38 0 66 14t41 38
l23 -99h-34q-10 -33 -34.5 -57t-61 -37t-84.5 -13q-111 0 -165 54t-54 159v9q0 117 78 180t227 63z" />
    <glyph glyph-name="uni2007" unicode="&#x2007;" horiz-adv-x="1249" 
 />
    <glyph glyph-name="uni200A" unicode="&#x200a;" horiz-adv-x="286" 
 />
    <glyph glyph-name="uni2008" unicode="&#x2008;" horiz-adv-x="507" 
 />
    <glyph glyph-name="uni00A0" unicode="&#xa0;" horiz-adv-x="531" 
 />
    <glyph glyph-name="uni2009" unicode="&#x2009;" horiz-adv-x="400" 
 />
    <glyph glyph-name="uni200B" unicode="&#x200b;" 
 />
    <glyph glyph-name="question_alt" horiz-adv-x="914" 
d="M191 407v333l103 5q124 8 166.5 40.5t42.5 90.5v24q0 53 -35 79.5t-133 26.5q-75 0 -153.5 -16.5t-156.5 -44.5l38 293q38 17 92.5 32.5t122 25.5t142.5 10q221 0 332.5 -95t111.5 -274v-54q0 -119 -48 -194t-141 -112.5t-230 -46.5l-93 -7l157 98v-214h-318zM348 -32
q-97 0 -142.5 48t-45.5 133v11q0 85 45.5 133.5t142.5 48.5q95 0 142 -48.5t47 -133.5v-11q0 -85 -47 -133t-142 -48z" />
    <glyph glyph-name="uni00AD" unicode="&#xad;" horiz-adv-x="735" 
d="M79 368v280h577v-280h-577z" />
    <glyph glyph-name="guillemotleft" unicode="&#xab;" horiz-adv-x="1061" 
d="M801 489l255 -415h-325l-244 396v51l244 384h325zM342 489l255 -415h-325l-244 396v51l244 384h325z" />
    <glyph glyph-name="guillemotright" unicode="&#xbb;" horiz-adv-x="1061" 
d="M260 489l-255 416h325l244 -384v-51l-244 -396h-325zM719 489l-255 416h325l244 -384v-51l-244 -396h-325z" />
    <glyph glyph-name="Euro" unicode="&#x20ac;" horiz-adv-x="1095" 
d="M710 -32q-280 0 -420.5 148t-140.5 423v208q0 270 140.5 416.5t414.5 146.5q97 0 171 -16.5t127 -41.5l26 -303q-52 20 -114 34.5t-142 14.5q-142 0 -198.5 -69t-56.5 -184v-205q0 -115 58.5 -184t212.5 -69q76 0 137 14.5t113 33.5l-26 -309q-52 -24 -128 -41t-174 -17z
M20 408l16 190h886l-15 -190h-887zM20 688l16 190h886l-15 -190h-887z" />
    <glyph glyph-name="uni20B9" unicode="&#x20b9;" horiz-adv-x="1051" 
d="M994 1278h-937l17 -221h937zM880 13l-152 176q-44 51 -82 94t-81.5 82.5t-104.5 78.5l-2 92l-389 101v-263l128 -19l262 -355h421v13zM420 1086q54 -48 75.5 -98.5t21.5 -114.5v-63q0 -85 -51 -129t-182 -44h-215l229 -257l93 4q243 11 356 111.5t113 281.5v44
q0 81 -22 146.5t-72 118.5h-346zM994 961h-937l17 -221h937z" />
    <glyph glyph-name="uni2219" unicode="&#x2219;" horiz-adv-x="507" 
d="M254 314q-97 0 -143 49.5t-46 137.5v11q0 87 46 137.5t143 50.5q95 0 141.5 -50.5t46.5 -137.5v-11q0 -88 -46.5 -137.5t-141.5 -49.5z" />
    <glyph glyph-name="uni2215" unicode="&#x2215;" horiz-adv-x="945" 
d="M-24 -252l685 1603h308l-685 -1603h-308z" />
    <glyph glyph-name="uni00B5" unicode="&#xb5;" horiz-adv-x="1163" 
d="M1071 985v-985h-334l11 262l-31 27v696h354zM446 421q0 -36 7 -64t22 -48t40.5 -30.5t62.5 -10.5q36 0 64 13t48 35t31 48l66 -152h-54q-11 -77 -31 -129t-54.5 -78t-89.5 -26q-36 0 -62.5 10t-44 28t-30.5 43h-6l22 -344v-60h-345v1329h354v-564z" />
    <glyph glyph-name="uni0308" unicode="&#x308;" 
d="M255 1062q-78 0 -116.5 40.5t-38.5 113.5v8q0 74 38.5 115t116.5 41q80 0 118.5 -41t38.5 -115v-8q0 -73 -38.5 -113.5t-118.5 -40.5zM620 1062q-79 0 -117 40.5t-38 113.5v8q0 74 38 115t117 41q78 0 117 -41t39 -115v-8q0 -73 -39 -113.5t-117 -40.5z" />
    <glyph glyph-name="uni0307" unicode="&#x307;" 
d="M274 1057q-88 0 -131 43t-43 116v7q0 74 43 118t131 44q89 0 132.5 -44t43.5 -118v-7q0 -73 -43.5 -116t-132.5 -43z" />
    <glyph glyph-name="gravecomb" unicode="&#x300;" 
d="M475 1376l169 -298v-3h-287l-244 297v4h362z" />
    <glyph glyph-name="acutecomb" unicode="&#x301;" 
d="M254 1376h362v-4l-244 -297h-287v3z" />
    <glyph glyph-name="uni0302" unicode="&#x302;" 
d="M273 1376h365l173 -297v-4h-257l-94 134h-9l-94 -134h-257v4z" />
    <glyph glyph-name="uni030A" unicode="&#x30a;" 
d="M100 1245v7q0 82 56 134.5t183 52.5t183 -52.5t56 -134.5v-7q0 -81 -56 -134t-183 -53t-183 53t-56 134zM264 1247q0 -28 19 -44t56 -16q36 0 55 16t19 44v4q0 28 -19 43t-55 15q-37 0 -56 -15t-19 -43v-4z" />
    <glyph glyph-name="tildecomb" unicode="&#x303;" 
d="M583 1082q-36 0 -69.5 7.5t-63.5 18t-57 18t-50 7.5q-29 0 -40 -15.5t-12 -47.5v-1h-191v40q0 107 46.5 176.5t164.5 69.5q40 0 74 -7.5t63 -18t55 -18t49 -7.5q28 0 38.5 16t11.5 47v1h192v-43q0 -107 -47 -175t-164 -68z" />
    <glyph glyph-name="uni0304" unicode="&#x304;" 
d="M90 1094v209h657v-209h-657z" />
    <glyph glyph-name="uni0327" unicode="&#x327;" 
d="M440 37l-27 -174l-133 68q24 2 47 2.5t46 0.5q113 0 165 -39.5t52 -113.5v-6q0 -90 -66 -132.5t-195 -42.5q-46 0 -87.5 5t-74.5 12l-29 168q30 -6 63 -9.5t62 -3.5q50 0 72.5 6t22.5 24v2q0 19 -30 27.5t-124 11.5h-2h-2l25 194h215z" />
    <glyph glyph-name="uni0308.case" 
d="M255 1361q-78 0 -116.5 40.5t-38.5 113.5v8q0 74 38.5 115t116.5 41q80 0 118.5 -41t38.5 -115v-8q0 -73 -38.5 -113.5t-118.5 -40.5zM620 1361q-79 0 -117 40.5t-38 113.5v8q0 74 38 115t117 41q78 0 117 -41t39 -115v-8q0 -73 -39 -113.5t-117 -40.5z" />
    <glyph glyph-name="gravecomb.case" 
d="M483 1654l214 -278v-3h-306l-281 278v3h373z" />
    <glyph glyph-name="acutecomb.case" 
d="M296 1654h373v-3l-281 -278h-306v3z" />
    <glyph glyph-name="uni0302.case" 
d="M302 1654h353l200 -276v-5h-268l-104 117h-9l-104 -117h-268v5z" />
    <glyph glyph-name="uni030A.case" 
d="M100 1522v7q0 82 56 134.5t183 52.5t183 -52.5t56 -134.5v-7q0 -81 -56 -134t-183 -53t-183 53t-56 134zM264 1524q0 -28 19 -44t56 -16q36 0 55 16t19 44v4q0 28 -19 43t-55 15q-37 0 -56 -15t-19 -43v-4z" />
    <glyph glyph-name="tildecomb.case" 
d="M583 1380q-36 0 -69.5 7.5t-63.5 17t-57 17t-50 7.5q-29 0 -40 -15t-12 -46v-1h-191v39q0 102 47.5 169t165.5 67q38 0 71.5 -7.5t62.5 -17t55 -17t49 -7.5q29 0 39.5 15t11.5 46v1h192v-34q0 -106 -47 -173.5t-164 -67.5z" />
    <glyph glyph-name="uni0304.case" 
d="M90 1387v209h657v-209h-657z" />
    <glyph glyph-name="uni0327.case" 
d="M440 32l-27 -174l-133 68q24 2 47 2.5t46 0.5q113 0 165 -39.5t52 -113.5v-6q0 -90 -66 -132.5t-195 -42.5q-46 0 -87.5 5t-74.5 12l-29 168q30 -6 63 -9.5t62 -3.5q50 0 72.5 6t22.5 24v2q0 19 -30 27.5t-124 11.5h-2h-2l25 194h215z" />
    <glyph glyph-name="uni0308.narrow" 
d="M275 1062q-73 0 -109.5 40.5t-36.5 113.5v9q0 73 36.5 114t109.5 41q74 0 110.5 -41t36.5 -114v-9q0 -73 -36.5 -113.5t-110.5 -40.5zM601 1062q-74 0 -110 40.5t-36 113.5v9q0 73 36.5 114t109.5 41q72 0 109 -41t37 -114v-9q0 -73 -37 -113.5t-109 -40.5z" />
    <glyph glyph-name="gravecomb.narrow" 
d="M533 1376l91 -298v-3h-275l-160 297v4h344z" />
    <glyph glyph-name="acutecomb.narrow" 
d="M196 1376h344v-4l-160 -297h-275v3z" />
    <glyph glyph-name="uni0302.narrow" 
d="M284 1376h343l146 -297v-4h-244l-70 131h-7l-70 -131h-244v4z" />
    <glyph glyph-name="VowelA.tm" unicode="&#xb85;" horiz-adv-x="2346" 
d="M1108 1222q227 0 369 -68t209 -195.5t67 -306.5v-86q0 -237 -90.5 -392.5t-275.5 -232t-469 -76.5h-6q-262 0 -457 79t-302.5 238t-107.5 399v28q0 27 1.5 52.5t2.5 58.5h578l8 -238h-270v-2.5v-2.5v-2q0 -107 69.5 -185.5t191.5 -120.5t281 -42h3q175 0 291 44
t174 139.5t58 249.5v103q0 102 -31.5 172t-103 106t-193.5 36q-113 0 -183 -34.5t-103 -93t-37 -131.5h12v-153q0 -58 23 -91t77 -33q45 0 66 27t21 77v40q0 50 -21 75t-67 25q-26 0 -47.5 -9t-37 -25t-23.5 -37l-12 104h18q14 81 70 136t162 55q131 0 194 -76.5t63 -218.5
v-73q0 -151 -88.5 -243.5t-287.5 -92.5q-205 0 -306.5 101.5t-101.5 267.5v82q0 174 68 301t204 196t340 69zM1041 715h447v-244h-447v244zM1535 720h358v-254h-358v254zM1881 1162h335v-1250h-335v1250z" />
    <glyph glyph-name="VowelAa.tm" unicode="&#xb86;" horiz-adv-x="2826" 
d="M2479 618q159 0 228 -107.5t69 -319.5v-76q0 -206 -57.5 -339t-185.5 -197t-340 -64q-106 0 -199 13.5t-185 38.5l-45 281q92 -25 188 -39t197 -14q110 0 173.5 32.5t90.5 103t27 185.5v45q0 92 -26 135t-89 43q-48 0 -82 -30t-46 -80h-21v169h51q14 95 76 157.5
t176 62.5zM1108 1222q227 0 369 -68t209 -195.5t67 -306.5v-86q0 -237 -90.5 -392.5t-275.5 -232t-469 -76.5h-6q-262 0 -457 79t-302.5 238t-107.5 399v28q0 27 1.5 52.5t2.5 58.5h578l8 -238h-270v-2.5v-2.5v-2q0 -107 69.5 -185.5t191.5 -120.5t281 -42h3q175 0 291 44
t174 139.5t58 249.5v103q0 102 -31.5 172t-103 106t-193.5 36q-113 0 -183 -34.5t-103 -93t-37 -131.5h12v-153q0 -58 23 -91t77 -33q45 0 66 27t21 77v40q0 50 -21 75t-67 25q-26 0 -47.5 -9t-37 -25t-23.5 -37l-12 104h18q14 81 70 136t162 55q131 0 194 -76.5t63 -218.5
v-73q0 -151 -88.5 -243.5t-287.5 -92.5q-205 0 -306.5 101.5t-101.5 267.5v82q0 174 68 301t204 196t340 69zM1041 715h447v-244h-447v244zM1535 720h358v-254h-358v254zM1881 1162h335v-1250h-335v1250z" />
    <glyph glyph-name="VowelI.tm" unicode="&#xb87;" horiz-adv-x="2360" 
d="M1157 1201q219 0 354.5 -69t198 -198.5t62.5 -310.5l-7 -12q0 -175 -42.5 -309.5t-134.5 -217.5l-56 -56q-86 -79 -234 -120.5t-348 -41.5q-272 0 -468 76t-301 232.5t-105 396.5v27q0 29 1.5 61.5t2.5 66.5h594l8 -247h-281v-5v-4v-4q0 -103 66 -176.5t187 -113
t285 -39.5q181 0 292 46.5t162 148t51 265.5v40q0 106 -29 179t-96 111t-180 38q-109 0 -176.5 -33.5t-99.5 -91.5t-35 -130h12v-145q0 -55 23.5 -87t72.5 -32q47 0 67.5 27t20.5 75v37q0 49 -20 74.5t-66 25.5q-24 0 -45.5 -9t-37 -25t-23.5 -37l-10 96h16
q11 80 63.5 134.5t155.5 54.5q130 0 191.5 -77t61.5 -219v-43q0 -152 -87 -244t-278 -92q-199 0 -296.5 96.5t-97.5 256.5v79q0 168 66.5 290t201.5 188.5t338 66.5zM2283 731q2 -50 4 -107t2 -107v-86q0 -193 -52 -317t-162.5 -183t-284.5 -59q-130 0 -237.5 38.5
t-175.5 110.5l162 201q50 -43 102 -62.5t111 -19.5q114 0 164 62t50 182v25v33.5v33.5h-842v255h1159zM1175 1641q336 0 564.5 -94t344.5 -269t116 -419q0 -19 -0.5 -32.5t-1.5 -30.5h-321v17.5v17.5q0 166 -78.5 283.5t-234.5 180.5t-389 63q-234 0 -397 -62.5
t-248.5 -179.5t-85.5 -282v-6q0 -16 1.5 -33.5t3.5 -31.5l-326 77q-1 10 -1 15v9v0q0 241 122.5 415t358 268t572.5 94z" />
    <glyph glyph-name="VowelIi.tm" unicode="&#xb88;" horiz-adv-x="1551" 
d="M861 0v1088h335v-1088h-335zM663 318q-82 0 -115.5 49.5t-33.5 153.5v17q0 103 34.5 152t114.5 49q82 0 116 -49t34 -152v-17q0 -104 -33 -153.5t-117 -49.5zM1391 318q-82 0 -116 49.5t-34 153.5v17q0 103 34 152t116 49q81 0 115.5 -49t34.5 -152v-17
q0 -104 -33.5 -153.5t-116.5 -49.5zM1220 1163v-273h-755v-890h-335v1163h1090zM1015 890v273h423l29 -273h-452z" />
    <glyph glyph-name="VowelU.tm" unicode="&#xb89;" horiz-adv-x="1888" 
d="M754 1255q321 0 477 -132t156 -368v-7q0 -140 -47 -234t-159 -144.5t-307 -61.5l-477 -26q-12 -1 -16.5 -5t-4.5 -15q0 -4 0.5 -8t1.5 -10h1510l-38 -244h-1713q-23 61 -35.5 124.5t-12.5 123.5q0 114 51 170.5t151 64.5l549 45q89 8 138.5 35t69 74t19.5 113v18
q0 111 -77 175t-245 64q-169 0 -250.5 -64.5t-88.5 -176.5h14v-132q0 -48 22 -75.5t71 -27.5q42 0 62 24t20 68v23q0 44 -19.5 65.5t-62.5 21.5q-24 0 -44.5 -9t-35.5 -25t-23 -36l-13 103h18q13 75 71 126t167 51q122 0 177.5 -69t55.5 -197v-22q0 -88 -36 -159
t-117.5 -113t-219.5 -42q-142 0 -231 44.5t-131 124.5t-42 184v21q0 257 164.5 398.5t480.5 141.5z" />
    <glyph glyph-name="VowelUu.tm" unicode="&#xb8a;" horiz-adv-x="3274" 
d="M1085 0v244h2187l-38 -244h-2149zM2809 1116h295v-782h-295v782zM2005 1198q91 0 161 -16.5t120.5 -48t83 -76t48.5 -100.5h7l4 210h802l32 -245h-645v-588h-296v327q0 146 -66.5 220.5t-222.5 74.5q-136 0 -200 -58.5t-66 -164.5v1v-2h8v-110q0 -47 17.5 -71.5
t60.5 -24.5q38 0 53 21t15 57v14q0 75 -71 75q-20 0 -36.5 -8t-28.5 -20.5t-17 -26.5l-7 94h12q10 68 60 116t144 48q116 0 170 -66.5t54 -191.5v-13q0 -137 -78 -222t-261 -85q-130 0 -211.5 44.5t-120 124.5t-38.5 184v42q0 232 133.5 358.5t379.5 126.5zM754 1255
q321 0 477 -132t156 -368v-7q0 -140 -47 -234t-159 -144.5t-307 -61.5l-477 -26q-12 -1 -16.5 -5t-4.5 -15q0 -4 0.5 -8t1.5 -10h1510l-38 -244h-1713q-23 61 -35.5 124.5t-12.5 123.5q0 114 51 170.5t151 64.5l549 45q89 8 138.5 35t69 74t19.5 113v18q0 111 -77 175
t-245 64q-169 0 -250.5 -64.5t-88.5 -176.5h14v-132q0 -48 22 -75.5t71 -27.5q42 0 62 24t20 68v23q0 44 -19.5 65.5t-62.5 21.5q-24 0 -44.5 -9t-35.5 -25t-23 -36l-13 103h18q13 75 71 126t167 51q122 0 177.5 -69t55.5 -197v-22q0 -88 -36 -159t-117.5 -113t-219.5 -42
q-142 0 -231 44.5t-131 124.5t-42 184v21q0 257 164.5 398.5t480.5 141.5z" />
    <glyph glyph-name="VowelE.tm" unicode="&#xb8e;" horiz-adv-x="1580" 
d="M801 890v273h772l28 -273h-800zM1074 1088h334v-1088h-334v1088zM1002 1163v-273h-225q-199 0 -289 -81t-90 -243v-9v-9h11v-181q0 -64 24 -97.5t82 -33.5q50 0 70.5 30t20.5 82v40q0 54 -21.5 81t-74.5 27q-27 0 -49.5 -11t-38 -27.5t-22.5 -32.5l-9 123h15
q10 86 73.5 147.5t183.5 61.5q136 0 200.5 -85t64.5 -249v-55q0 -117 -40.5 -206t-130 -138.5t-236.5 -49.5q-154 0 -250.5 58t-141.5 161t-45 239v108q0 197 76 336t227.5 213t377.5 74h237z" />
    <glyph glyph-name="VowelEe.tm" unicode="&#xb8f;" horiz-adv-x="1587" 
d="M1080 1087h335v-1394l-815 -114v266l480 88v1154zM809 890v273h770l29 -273h-799zM1002 1163v-273h-225q-199 0 -289 -81t-90 -243v-9v-9h11v-181q0 -64 24 -97.5t82 -33.5q50 0 70.5 30t20.5 82v40q0 54 -21.5 81t-74.5 27q-27 0 -49.5 -11t-38 -27.5t-22.5 -32.5
l-9 123h15q10 86 73.5 147.5t183.5 61.5q136 0 200.5 -85t64.5 -249v-55q0 -117 -40.5 -206t-130 -138.5t-236.5 -49.5q-154 0 -250.5 58t-141.5 161t-45 239v108q0 197 76 336t227.5 213t377.5 74h237z" />
    <glyph glyph-name="VowelAi.tm" unicode="&#xb90;" horiz-adv-x="2039" 
d="M701 1206q163 0 264 -45.5t154 -122.5t71 -173h7q20 155 105.5 244t266.5 89q207 0 297.5 -117.5t90.5 -342.5v-25q0 -151 -27 -259.5t-89 -179t-167.5 -108.5t-263.5 -47l-719 -43q-87 -5 -141 -24t-78.5 -53.5t-24.5 -85.5v-3q0 -73 60 -117t190 -44q86 0 141 24.5
t81 74t26 122.5v70h330v-88q0 -71 20 -115.5t59.5 -65t99.5 -20.5q90 0 128.5 50.5t38.5 144.5q0 41 -2.5 80.5t-7.5 76.5l316 -11q5 -37 8 -76.5t3 -79.5q0 -148 -42.5 -250.5t-136 -155t-248.5 -52.5q-191 0 -286 80.5t-115 224.5h-8q-20 -146 -125.5 -226.5t-320.5 -80.5
q-270 0 -402 114.5t-132 313.5v7q0 148 58.5 240.5t176 139t293.5 55.5l696 35q108 6 171 40.5t90 103.5t27 177v39q0 92 -29.5 138t-96.5 46q-43 0 -74.5 -18t-49 -59.5t-17.5 -111.5v-297h-322v161q0 112 -30.5 187.5t-100.5 114.5t-189 39q-170 0 -252 -80t-81 -211h16
v-172q0 -61 23.5 -93.5t81.5 -32.5q50 0 70 29t20 78v48q0 50 -21.5 76.5t-71.5 26.5q-25 0 -47.5 -9.5t-38.5 -25.5t-24 -36l-14 111h17q9 85 73 143t178 58q140 0 201.5 -81t61.5 -231v-47q0 -187 -96 -285t-304 -98q-221 0 -325 117t-104 323v95q0 269 158 415.5
t455 146.5z" />
    <glyph glyph-name="VowelO.tm" unicode="&#xb92;" horiz-adv-x="1927" 
d="M955 1280q307 0 498 -83t280 -238t89 -370v-9q0 -103 -17.5 -177t-56.5 -122t-102 -77q-55 -27 -120 -41t-142 -14q-139 0 -221.5 44t-118 130t-35.5 211q0 64 5.5 128t11.5 121h303q-7 -68 -10.5 -125.5t-3.5 -125.5q0 -86 22 -128t77 -42q51 0 70 35t19 110v61
q0 148 -53 244.5t-174 144.5t-326 48q-276 0 -424 -99.5t-148 -284.5h12v-172q0 -63 24 -96t84 -33q52 0 72 29t20 78v39q0 53 -21.5 79t-74.5 26q-27 0 -50 -10t-39 -27t-24 -39l-9 126h14q14 87 76.5 145t178.5 58q136 0 200.5 -84t64.5 -248v-38q0 -116 -38.5 -203.5
t-126 -136t-234.5 -48.5q-156 0 -252 56.5t-140 158.5t-44 236v56q0 223 100.5 381t297.5 242t486 84zM1863 292l-29 -260l-273 -1q-54 0 -74.5 -22t-22.5 -74l-1 -23q-6 -147 -54 -247t-148.5 -151t-265.5 -51q-250 0 -370 125.5t-120 351.5q0 16 0.5 29.5t1.5 24.5l324 19
q-1 -18 -2 -37t-1 -37q0 -109 38.5 -161t122.5 -52q78 0 110.5 44.5t39.5 141.5l3 38q8 98 53.5 140.5t141.5 48.5v16l215 137h311z" />
    <glyph glyph-name="VowelOo.tm" unicode="&#xb93;" horiz-adv-x="1928" 
d="M1864 292l-29 -260l-259 -1q-55 0 -73 -24t-23 -80l-3 -33q-14 -154 -71.5 -257t-172.5 -154.5t-303 -51.5q-265 0 -398.5 111t-133.5 304v11q0 161 91.5 242t267.5 81q170 0 246 -69.5t76 -203.5v-6q0 -93 -33 -147.5t-115 -74.5v-18l-170 -7q23 32 35.5 79.5
t12.5 105.5v28q0 44 -14.5 65.5t-46.5 21.5q-33 0 -49 -20.5t-16 -64.5v-19q0 -70 32.5 -114.5t93.5 -54.5h122v-12h5h5q113 1 163.5 55t61.5 181l3 34q9 105 52 150t134 50v16l225 137h284zM955 1280q307 0 498 -83t280 -238t89 -370v-9q0 -103 -17.5 -177t-56.5 -122
t-102 -77q-55 -27 -120 -41t-142 -14q-139 0 -221.5 44t-118 130t-35.5 211q0 64 5.5 128t11.5 121h303q-7 -68 -10.5 -125.5t-3.5 -125.5q0 -86 22 -128t77 -42q51 0 70 35t19 110v61q0 148 -53 244.5t-174 144.5t-326 48q-276 0 -424 -99.5t-148 -284.5h12v-147
q0 -63 24 -96t84 -33q52 0 72 29t20 78v14q0 53 -21.5 79t-74.5 26q-27 0 -50 -10t-39 -27t-24 -39l-9 126h14q14 87 76.5 145t178.5 58q136 0 200.5 -84t64.5 -248v-13q0 -116 -38.5 -203.5t-126 -136t-234.5 -48.5q-156 0 -252 56.5t-140 158.5t-44 236v31
q0 223 100.5 381t297.5 242t486 84z" />
    <glyph glyph-name="VowelAu.tm" unicode="&#xb94;" horiz-adv-x="4111" 
d="M955 1280q307 0 498 -83t280 -238t89 -370v-9q0 -103 -17.5 -177t-56.5 -122t-102 -77q-55 -27 -120 -41t-142 -14q-139 0 -221.5 44t-118 130t-35.5 211q0 64 5.5 128t11.5 121h303q-7 -68 -10.5 -125.5t-3.5 -125.5q0 -86 22 -128t77 -42q51 0 70 35t19 110v61
q0 148 -53 244.5t-174 144.5t-326 48q-276 0 -424 -99.5t-148 -284.5h12v-172q0 -63 24 -96t84 -33q52 0 72 29t20 78v39q0 53 -21.5 79t-74.5 26q-27 0 -50 -10t-39 -27t-24 -39l-9 126h14q14 87 76.5 145t178.5 58q136 0 200.5 -84t64.5 -248v-38q0 -116 -38.5 -203.5
t-126 -136t-234.5 -48.5q-156 0 -252 56.5t-140 158.5t-44 236v56q0 223 100.5 381t297.5 242t486 84zM1863 292l-29 -260l-273 -1q-54 0 -74.5 -22t-22.5 -74l-1 -23q-6 -147 -54 -247t-148.5 -151t-265.5 -51q-250 0 -370 125.5t-120 351.5q0 16 0.5 29.5t1.5 24.5l324 19
q-1 -18 -2 -37t-1 -37q0 -109 38.5 -161t122.5 -52q78 0 110.5 44.5t39.5 141.5l3 38q8 98 53.5 140.5t141.5 48.5v16l215 137h311zM3604 1088h335v-1088h-335v1088zM2651 1198q108 0 189.5 -20.5t139.5 -59t95.5 -92t56.5 -118.5h7v255h749v-273h-530v-890h-335v516
q0 203 -79.5 300t-263.5 97q-181 0 -264 -87t-87 -260v-9v-9h11v-181q0 -64 24 -97.5t82 -33.5q50 0 70.5 30t20.5 82v40q0 54 -21.5 81t-74.5 27q-27 0 -49.5 -11t-38 -27.5t-22.5 -32.5l-9 123h15q10 86 73.5 147.5t183.5 61.5q136 0 200.5 -85t64.5 -249v-55
q0 -117 -40.5 -206t-130 -138.5t-236.5 -49.5q-154 0 -250.5 58t-141.5 161t-45 239v108q0 207 70.5 354.5t211.5 225.5t354 78zM3680 890v273h423l29 -273h-452z" />
    <glyph glyph-name="Ka.tm" unicode="&#xb95;" horiz-adv-x="1692" 
d="M987 469v263h223q231 0 324.5 -86t93.5 -270v-33q0 -123 -37.5 -205t-116.5 -123t-204 -41q-48 0 -99 4.5t-89 13.5l-51 275l4 21q30 -18 66.5 -30t83.5 -12q42 0 66.5 12t34.5 36.5t10 59.5v8q0 59 -29 83t-100 24h-180zM932 725v-254h-481h-61q0 -6 -0.5 -16t-0.5 -20
v-17q0 -83 45.5 -127.5t148.5 -44.5q100 0 141.5 45t41.5 130v191l13 35v434h303v-434v-35v-187q0 -142 -48 -243t-156.5 -154.5t-290.5 -53.5q-273 0 -394 120t-121 341q0 36 2 73t6.5 73.5t11.5 69.5l192 58l247 16h401zM1186 1163v-264h-237l-23 19h-342l-16 -305
l-297 10v540h915zM1130 899v264h269l28 -264h-297z" />
    <glyph glyph-name="Nga.tm" unicode="&#xb99;" horiz-adv-x="2233" 
d="M711 1080h335v-1080h-335v1080zM1336 770q142 0 206 -81t64 -234v-27q0 -83 -13 -136.5t-39 -99.5l-68 76h418v-268h-693v18q39 58 56 123.5t17 160.5v26q0 80 -25 121t-92 41q-46 0 -81 -27t-49 -68h-7v150h25q7 60 37 111.5t89.5 82.5t154.5 31zM1768 1163h335v-1163
h-335v1163zM1130 1163v-273h-665v-890h-335v1163h1000zM1049 890v273h423l29 -273h-452z" />
    <glyph glyph-name="Ca.tm" unicode="&#xb9a;" horiz-adv-x="1426" 
d="M1013 485v267h364l32 -267h-396zM932 725v-254h-481h-61q0 -6 -0.5 -16t-0.5 -20v-17q0 -83 45.5 -127.5t148.5 -44.5q100 0 141.5 45t41.5 130v191l13 35v434h303v-434v-35v-187q0 -142 -48 -243t-156.5 -154.5t-290.5 -53.5q-273 0 -394 120t-121 341q0 36 2 73
t6.5 73.5t11.5 69.5l192 58l247 16h401zM1186 1163v-264h-237l-23 19h-342l-16 -305l-297 10v540h915zM1034 899v264h269l28 -264h-297z" />
    <glyph glyph-name="Ja.tm" unicode="&#xb9c;" horiz-adv-x="2079" 
d="M718 1206q163 0 264 -45.5t154 -123t71 -172.5h7q20 155 105.5 244t266.5 89q207 0 297.5 -116.5t90.5 -349.5v-25q0 -150 -27 -257.5t-89 -177.5t-167.5 -107t-263.5 -46l-741 -41q-73 -4 -118.5 -23t-66 -53t-20.5 -85v-9q0 -65 38 -104.5t126 -39.5q56 0 97 15.5
t78 45.5t80 73l178 177q82 81 148 137t140 84.5t178 28.5q152 0 246.5 -44.5t138.5 -134.5t44 -227v-3q0 -209 -96 -315t-308 -106q-52 0 -105.5 4.5t-103.5 16.5l-64 275q48 -10 92.5 -17t96.5 -7q91 0 126.5 38t35.5 111v18q0 61 -25.5 95t-90.5 34q-64 0 -115 -37.5
t-127 -126.5l-106 -124q-82 -96 -158 -158t-167.5 -92t-222.5 -30q-227 0 -353 103t-126 302v8q0 141 56 232.5t165.5 139t270.5 57.5l715 44q108 7 171 41t90 102.5t27 177.5v39q0 92 -29.5 138t-96.5 46q-43 0 -74.5 -18t-49 -59.5t-17.5 -111.5v-297h-322v161
q0 112 -30.5 187.5t-100.5 114.5t-189 39q-170 0 -252 -80t-81 -211h16v-172q0 -61 23.5 -93.5t81.5 -32.5q50 0 70 29t20 78v48q0 50 -21.5 76.5t-71.5 26.5q-25 0 -47.5 -9.5t-38.5 -25.5t-24 -36l-14 111h17q9 85 73 143t178 58q140 0 201.5 -81t61.5 -231v-47
q0 -187 -96 -285t-304 -98q-221 0 -325 117t-104 323v95q0 269 158 415.5t455 146.5z" />
    <glyph glyph-name="Nya.tm" unicode="&#xb9e;" horiz-adv-x="2635" 
d="M1648 1088h335v-1088h-335v1088zM2256 757q163 0 234 -110.5t71 -325.5v-32q0 -282 -118.5 -474t-371 -290.5t-653.5 -98.5h-10q-451 0 -736.5 131t-420.5 391.5t-135 649.5q0 132 6.5 234.5t18.5 183.5t26 147h343q-18 -86 -30 -166t-18 -173.5t-6 -218.5
q0 -300 92 -497.5t301 -295t559 -97.5h10q292 0 469 64t256.5 190.5t79.5 315.5v5q0 98 -27.5 143.5t-92.5 45.5q-50 0 -86 -30.5t-48 -79.5h-22v172h46q14 94 79.5 155t183.5 61zM2045 1163v-273h-658v273h658zM1575 1163v-273h-225q-199 0 -289 -81t-90 -243v-9v-9h11
v-181q0 -64 24 -97.5t82 -33.5q50 0 70.5 30t20.5 82v40q0 54 -21.5 81t-74.5 27q-27 0 -49.5 -11t-38 -27.5t-22.5 -32.5l-9 123h15q10 86 73.5 147.5t183.5 61.5q136 0 200.5 -85t64.5 -249v-55q0 -117 -40.5 -206t-130 -138.5t-236.5 -49.5q-154 0 -250.5 58t-141.5 161
t-45 239v108q0 197 76 336t227.5 213t377.5 74h237zM1941 890v273h423l29 -273h-452z" />
    <glyph glyph-name="Tta.tm" unicode="&#xb9f;" horiz-adv-x="1444" 
d="M469 1163l-1 -888h976l-33 -275h-1281v1163h339z" />
    <glyph glyph-name="Nna.tm" unicode="&#xba3;" horiz-adv-x="3632" 
d="M2012 1201q237 0 391.5 -41.5t247.5 -103.5l2 -12q104 -48 169.5 -122t96.5 -171t31 -216v-110q0 -136 -43 -237.5t-138 -157.5t-250 -56t-252.5 56.5t-143 158t-45.5 236.5v110q0 119 34.5 221.5t112 175t206.5 101.5l126 -180q-54 -21 -86 -61t-45.5 -98.5
t-13.5 -137.5v-124q0 -58 10.5 -98t33.5 -60t61 -20t60 20t31.5 60t9.5 99v123q0 79 -13.5 137.5t-43.5 98.5t-81 61l-13 7q-46 21 -115 37.5t-155 26t-185 9.5q-151 0 -264 -21t-198 -52l-180 198q97 61 254.5 102t387.5 41zM3125 927l335 -3v-924h-335v927zM3353 1163
v-268h-502h-143.5h-143.5l72 268h127h125h465zM975 1204q241 0 398.5 -42t251.5 -106l2 -12q105 -48 170.5 -122t96.5 -171t31 -216v-110q0 -136 -43 -237.5t-138 -157.5t-250 -56t-252 56.5t-142.5 158t-45.5 236.5v110q0 119 34.5 221.5t111.5 175t206 101.5l125 -180
q-54 -21 -85.5 -61t-45.5 -98.5t-14 -137.5v-124q0 -58 11 -98t34.5 -60t61.5 -20t59.5 20t31 60t9.5 99v123q0 79 -13 137.5t-43.5 98.5t-81.5 61l-13 3q-70 31 -179 51.5t-280 20.5q-296 0 -438 -95.5t-148 -284.5v0v0h11v-181q0 -64 24 -97.5t82 -33.5q50 0 70.5 30
t20.5 82v40q0 54 -21.5 81t-74.5 27q-27 0 -49.5 -11t-38 -27.5t-22.5 -32.5l-9 123h15q10 86 73.5 147.5t183.5 61.5q136 0 200.5 -85t64.5 -249v-55q0 -117 -40.5 -206t-130 -138.5t-236.5 -49.5q-154 0 -250.5 58t-141.5 161t-45 239v96q0 214 100 365t298.5 231
t493.5 80zM3201 890v273h423l29 -273h-452z" />
    <glyph glyph-name="Ta.tm" unicode="&#xba4;" horiz-adv-x="1671" 
d="M984 464v268h111q274 0 393 -114.5t119 -356.5v-48q0 -225 -67 -363.5t-224.5 -202.5t-427.5 -64h-323l-41 279h342q148 0 237.5 34t130 110t40.5 201v41q0 117 -47 166.5t-160 49.5h-83zM571 -138v-279h-174q-97 0 -177.5 -11t-150.5 -32t-137 -50l33 309
q48 22 104 35.5t132 20.5t185 7h185zM932 725v-254h-481h-61q0 -6 -0.5 -16t-0.5 -20v-17q0 -83 45.5 -127.5t148.5 -44.5q100 0 141.5 45t41.5 130v191l13 35v434h303v-434v-35v-187q0 -142 -48 -243t-156.5 -154.5t-290.5 -53.5q-273 0 -394 120t-121 341q0 36 2 73
t6.5 73.5t11.5 69.5l192 58l247 16h401zM1186 1163v-264h-237l-23 19h-342l-16 -305l-297 10v540h915zM1140 899v264h269l28 -264h-297z" />
    <glyph glyph-name="Na.tm" unicode="&#xba8;" horiz-adv-x="1697" 
d="M699 1088h335v-1088h-335v1088zM1312 757q165 0 238 -110t73 -325v-95q0 -226 -66.5 -368t-220 -209t-414.5 -67h-443l-41 279h466q105 0 177 19t116.5 60t64.5 107.5t20 162.5v76q0 99 -28.5 145.5t-95.5 46.5q-51 0 -88 -34t-50 -76h-22v172h47q14 94 80.5 155
t186.5 61zM1114 1163v-273h-649v-890h-335v1163h984zM556 -138v-279h-174q-97 0 -177.5 -11t-150.5 -32t-137 -50l33 309q48 22 104 35.5t132 20.5t185 7h185zM985 890v273h423l29 -273h-452z" />
    <glyph glyph-name="Nnna.tm" unicode="&#xba9;" horiz-adv-x="2607" 
d="M2100 927l335 -3v-924h-335v927zM2336 1163v-268h-510h-144h-144l73 268h126.5h125.5h473zM975 1204q242 0 399 -42t251 -106l2 -12q105 -48 170.5 -122t96.5 -171t31 -216v-110q0 -136 -43 -237.5t-138 -157.5t-250 -56t-252 56.5t-142.5 158t-45.5 236.5v110
q0 119 34.5 221.5t111.5 175t206 101.5l125 -180q-54 -21 -85.5 -61t-45.5 -98.5t-14 -137.5v-124q0 -58 11 -98t34.5 -60t61.5 -20t59.5 20t31 60t9.5 99v123q0 79 -13 137.5t-43.5 98.5t-81.5 61l-13 3q-70 31 -179 51.5t-280 20.5q-296 0 -438 -95.5t-148 -284.5v0v0h11
v-181q0 -64 24 -97.5t82 -33.5q50 0 70.5 30t20.5 82v40q0 54 -21.5 81t-74.5 27q-27 0 -49.5 -11t-38 -27.5t-22.5 -32.5l-9 123h15q10 86 73.5 147.5t183.5 61.5q136 0 200.5 -85t64.5 -249v-55q0 -117 -40.5 -206t-130 -138.5t-236.5 -49.5q-154 0 -250.5 58t-141.5 161
t-45 239v96q0 214 100 365t298.5 231t493.5 80zM2176 890v273h423l29 -273h-452z" />
    <glyph glyph-name="Pa.tm" unicode="&#xbaa;" horiz-adv-x="1502" 
d="M1030 1163h342v-1163h-744v282h402v881zM472 1163v-881h357v-282h-699v1163h342z" />
    <glyph glyph-name="Ma.tm" unicode="&#xbae;" horiz-adv-x="1759" 
d="M130 1163h335v-890h617q103 0 157 26.5t74 85.5t20 157v118q0 81 -20 132.5t-69.5 75.5t-140.5 24h-37v-819h-335v1090h351q215 0 345 -54.5t188 -167t58 -286.5v-106q0 -194 -61 -315.5t-196.5 -177.5t-361.5 -56h-924v1163z" />
    <glyph glyph-name="Ya.tm" unicode="&#xbaf;" horiz-adv-x="2038" 
d="M1566 1163h342v-1163h-657v282h315v881zM1380 0h-546v199h-16q-18 -106 -95.5 -164.5t-222.5 -58.5q-183 0 -278.5 106t-95.5 338v743h335v-738q0 -88 35 -126.5t94 -38.5q65 0 96 42t31 137v724h342v-881h321v-282z" />
    <glyph glyph-name="Ra.tm" unicode="&#xbb0;" horiz-adv-x="1229" 
d="M1057 1088v-1386l-969 -118v277l634 87v1140h335zM967 1163v-273h-497v-890h-335v1163h832zM798 890v273h423l29 -273h-452z" />
    <glyph glyph-name="Rra.tm" unicode="&#xbb1;" horiz-adv-x="1743" 
d="M531 1192q153 0 234.5 -70t97.5 -200h8q23 133 117.5 202.5t274.5 69.5q198 0 292 -96t94 -282v-3q0 -129 -52.5 -215t-183.5 -100v-9q93 -7 149.5 -48t82.5 -112.5t26 -172.5v-45q0 -183 -56 -300t-196.5 -172.5t-393.5 -55.5h-554l-41 279h566q136 0 209.5 27.5
t101.5 86.5t28 155v43q0 89 -37 127.5t-127 44.5l-58 4v265l58 3q84 5 121.5 43t37.5 106v6q0 72 -34.5 106.5t-106.5 34.5q-53 0 -89.5 -18t-55 -56t-18.5 -100v-740h-335v765q0 79 -26.5 113t-86.5 34q-54 0 -86 -34t-32 -113v-765h-335v744q0 236 104 342t302 106z
M551 -138v-279h-174q-97 0 -177.5 -11t-150.5 -32t-137 -50l33 309q48 22 104 35.5t132 20.5t185 7h185z" />
    <glyph glyph-name="La.tm" unicode="&#xbb2;" horiz-adv-x="2082" 
d="M758 1198q235 0 376.5 -71t205.5 -210.5t64 -345.5v-108q0 -105 28 -155.5t101 -50.5q71 0 96.5 54.5t25.5 160.5v197q0 84 -16.5 137.5t-55.5 79t-107 25.5q-20 0 -37.5 -2t-32.5 -4l43 282q22 5 49.5 8t55.5 3q167 0 263.5 -59t137 -174.5t40.5 -284.5v-196
q0 -165 -45 -279t-146.5 -172.5t-270.5 -58.5q-251 0 -357.5 125t-106.5 361v106q0 120 -33.5 196.5t-103.5 113.5t-180 37q-178 0 -262 -87t-88 -260v-9v-9h11v-181q0 -64 24 -97.5t82 -33.5q50 0 70.5 30t20.5 82v40q0 54 -21.5 81t-74.5 27q-27 0 -49.5 -11t-38 -27.5
t-22.5 -32.5l-9 123h15q10 86 73.5 147.5t183.5 61.5q136 0 200.5 -85t64.5 -249v-55q0 -117 -40.5 -206t-130 -138.5t-236.5 -49.5q-154 0 -250.5 58t-141.5 161t-45 239v108q0 207 74.5 354.5t223.5 225.5t372 78z" />
    <glyph glyph-name="Lla.tm" unicode="&#xbb3;" horiz-adv-x="2184" 
d="M1677 1088h335v-1088h-335v1088zM724 1198q108 0 189.5 -20.5t139.5 -59t95.5 -92t56.5 -118.5h7v255h749v-273h-530v-890h-335v516q0 203 -79.5 300t-263.5 97q-181 0 -264 -87t-87 -260v-9v-9h11v-181q0 -64 24 -97.5t82 -33.5q50 0 70.5 30t20.5 82v40q0 54 -21.5 81
t-74.5 27q-27 0 -49.5 -11t-38 -27.5t-22.5 -32.5l-9 123h15q10 86 73.5 147.5t183.5 61.5q136 0 200.5 -85t64.5 -249v-55q0 -117 -40.5 -206t-130 -138.5t-236.5 -49.5q-154 0 -250.5 58t-141.5 161t-45 239v108q0 207 70.5 354.5t211.5 225.5t354 78zM1753 890v273h423
l29 -273h-452z" />
    <glyph glyph-name="Llla.tm" unicode="&#xbb4;" horiz-adv-x="1759" 
d="M812 -719q-237 0 -350 114.5t-113 310.5q0 27 1.5 54t2.5 52h324q-2 -28 -3.5 -56.5t-1.5 -58.5q0 -76 34.5 -116.5t106.5 -40.5q39 0 62.5 11.5t39.5 32.5t31 48l5 9q11 19 19.5 30.5t21.5 15.5v8q-96 10 -152.5 45t-80.5 99t-24 158v163h327v-144q0 -44 11.5 -69.5
t40.5 -36.5t81 -11h278l-39 -257h-78q-34 0 -48 -11t-28 -40l-7 -15q-42 -90 -93.5 -156t-137.5 -102.5t-230 -36.5zM130 1163h335v-890h617q103 0 157 26.5t74 85.5t20 157v118q0 81 -20 132.5t-69.5 75.5t-140.5 24h-37v-819h-335v1090h351q215 0 345 -54.5t188 -167
t58 -286.5v-106q0 -194 -61 -315.5t-196.5 -177.5t-361.5 -56h-924v1163z" />
    <glyph glyph-name="Va.tm" unicode="&#xbb5;" horiz-adv-x="2119" 
d="M1654 1163h335v-1163h-645l-9 273h319v890zM779 1198q242 0 387 -73.5t209 -215t64 -344.5v-45q0 -88 -11.5 -157.5t-37.5 -126t-69 -106.5l-34 143h326v-273h-617v18q38 66 60.5 133.5t32.5 146.5t10 177v56q0 130 -34 214t-108.5 125t-195.5 41q-182 0 -268.5 -87
t-90.5 -260v-8v-8h11v-181q0 -64 24 -97.5t82 -33.5q50 0 70.5 30t20.5 82v40q0 54 -21.5 81t-74.5 27q-27 0 -49.5 -11t-38 -27.5t-22.5 -32.5l-9 123h15q10 86 73.5 147.5t183.5 61.5q136 0 200.5 -85t64.5 -249v-55q0 -117 -40.5 -206t-130 -138.5t-236.5 -49.5
q-154 0 -250.5 58t-141.5 161t-45 239v106q0 208 77 355.5t231 226t383 78.5z" />
    <glyph glyph-name="Sha.tm" unicode="&#xbb6;" horiz-adv-x="2251" 
d="M126 1163h337v-753q0 -82 27 -118.5t88 -36.5q60 0 86.5 36.5t26.5 119.5v752h337v-741q0 -146 -44.5 -246.5t-143 -152t-262.5 -51.5q-163 0 -262.5 52t-144.5 152.5t-45 245.5v741zM1229 1163h337v-752q0 -84 26.5 -120.5t84.5 -36.5q59 0 85 36.5t26 121.5v751h337
v-740q0 -147 -44.5 -247.5t-142.5 -152t-261 -51.5q-162 0 -260.5 52t-143 153t-44.5 246v740zM768 1163h1224v-273h-1224v273z" />
    <glyph glyph-name="Ssa.tm" unicode="&#xbb7;" horiz-adv-x="2726" 
d="M779 1198q242 0 387 -73.5t209 -215t64 -344.5v-45q0 -88 -11.5 -157.5t-37.5 -126t-69 -106.5l-34 143h326v-273h-617v18q38 66 60.5 133.5t32.5 146.5t10 177v56q0 130 -34 214t-108.5 125t-195.5 41q-182 0 -268.5 -87t-90.5 -260v-8v-8h11v-181q0 -64 24 -97.5
t82 -33.5q50 0 70.5 30t20.5 82v40q0 54 -21.5 81t-74.5 27q-27 0 -49.5 -11t-38 -27.5t-22.5 -32.5l-9 123h15q10 86 73.5 147.5t183.5 61.5q136 0 200.5 -85t64.5 -249v-55q0 -117 -40.5 -206t-130 -138.5t-236.5 -49.5q-154 0 -250.5 58t-141.5 161t-45 239v106
q0 208 77 355.5t231 226t383 78.5zM1353 273h663l82 -44l75 44h550l-34 -273h-1336v273zM2098 1197q245 0 359 -127t114 -342v-114q0 -193 -85 -317t-298 -186l-125 109q64 22 100 65.5t51.5 106.5t15.5 143v169q0 98 -28.5 151t-103.5 53q-74 0 -102.5 -53t-28.5 -151v-169
q0 -80 15.5 -143t52 -106.5t99.5 -65.5l-126 -109q-212 62 -297 186t-85 317v114q0 215 114 342t358 127zM2130 -513q-215 0 -312 70t-97 232v12q0 103 56 165t160 96l18 6l188 -52l-22 -14q-34 -22 -54 -50.5t-20 -78.5v-3q0 -52 32 -78.5t116 -26.5q43 0 80 3.5t76.5 11
t89.5 18.5l-43 -279q-64 -15 -130.5 -23.5t-137.5 -8.5z" />
    <glyph glyph-name="Sa.tm" unicode="&#xbb8;" horiz-adv-x="2666" 
d="M728 1198q158 0 264.5 -42t167.5 -119.5t80 -186.5h8v2q0 160 86 252.5t270 92.5q197 0 285.5 -110.5t88.5 -331.5v-287q0 -107 29.5 -159t105.5 -52q74 0 100 55.5t26 161.5v202q0 82 -15 133.5t-51.5 76.5t-101.5 25q-15 0 -27 -1t-23 -3l44 282q20 4 46 6.5t52 2.5
q154 0 245 -58.5t131 -172.5t40 -281v-199q0 -250 -107.5 -381.5t-358.5 -131.5q-253 0 -361.5 128t-108.5 376v271q0 89 -24 127.5t-83 38.5q-53 0 -79.5 -38.5t-26.5 -125.5v-751h-335v545q0 125 -35 206.5t-111 121.5t-198 40q-179 0 -262 -87t-87 -260v-9v-9h11v-181
q0 -64 24 -97.5t82 -33.5q50 0 70.5 30t20.5 82v40q0 54 -21.5 81t-74.5 27q-27 0 -49.5 -11t-38 -27.5t-22.5 -32.5l-9 123h15q10 86 73.5 147.5t183.5 61.5q136 0 200.5 -85t64.5 -249v-55q0 -117 -40.5 -206t-130 -138.5t-236.5 -49.5q-154 0 -250.5 58t-141.5 161
t-45 239v108q0 207 71 354.5t213 225.5t356 78z" />
    <glyph glyph-name="Ha.tm" unicode="&#xbb9;" horiz-adv-x="3254" 
d="M1462 273h353v-273h-353v273zM1929 -138v-279h-1404l-42 279h1446zM771 1198q242 0 387 -73.5t209 -215t64 -344.5v-45q0 -88 -11.5 -157.5t-37.5 -126t-69 -106.5l-34 143h326v-273h-617v18q38 66 60.5 133.5t32.5 146.5t10 177v56q0 130 -34 214t-108.5 125t-195.5 41
q-182 0 -268.5 -87t-90.5 -260v-8v-8h11v-181q0 -64 24 -97.5t82 -33.5q50 0 70.5 30t20.5 82v40q0 54 -21.5 81t-74.5 27q-27 0 -49.5 -11t-38 -27.5t-22.5 -32.5l-9 123h15q10 86 73.5 147.5t183.5 61.5q136 0 200.5 -85t64.5 -249v-55q0 -117 -40.5 -206t-130 -138.5
t-236.5 -49.5q-154 0 -250.5 58t-141.5 161t-45 239v106q0 208 77 355.5t231 226t383 78.5zM615 -138v-279h-174q-97 0 -177.5 -11t-150.5 -32t-137 -50l33 309q48 22 104 35.5t132 20.5t185 7h185zM2042 1192q153 0 234.5 -70t97.5 -200h8q23 133 117.5 202.5t274.5 69.5
q198 0 292 -96t94 -282v-3q0 -129 -52.5 -215t-183.5 -100v-9q93 -7 150 -48t82.5 -112.5t25.5 -172.5v-45q0 -183 -56 -300t-196.5 -172.5t-393.5 -55.5h-970l-41 279h982q136 0 209.5 27.5t101.5 86.5t28 155v43q0 89 -37 127.5t-127 44.5l-58 4v265l58 3q84 5 121.5 43
t37.5 106v6q0 48 -15 79.5t-46.5 46.5t-79.5 15q-53 0 -89.5 -18t-55 -56t-18.5 -100v-740h-335v765q0 79 -26.5 113t-86.5 34q-54 0 -86 -34t-32 -113v-765h-335v744q0 236 104 342t302 106z" />
    <glyph glyph-name="Kssa.tm" horiz-adv-x="3401" 
d="M952 464v268h181q150 0 218 -55.5t86 -186.5h8v0q0 135 89.5 221.5t270.5 86.5q185 0 267.5 -88.5t82.5 -253.5v-28q0 -83 -13 -136.5t-39 -99.5l-68 81h405v-273h-682v18q39 60 56 127.5t17 165.5v43q0 80 -23.5 122t-85.5 42q-40 0 -67 -19.5t-41 -57.5t-14 -94v-347
h-332v278q0 72 -14 112.5t-49 57t-98 16.5h-155zM932 725v-254h-481h-61q0 -6 -0.5 -16t-0.5 -20v-17q0 -83 45.5 -127.5t148.5 -44.5q100 0 141.5 45t41.5 130v191l13 35v434h303v-434v-35v-187q0 -142 -48 -243t-156.5 -154.5t-290.5 -53.5q-273 0 -394 120t-121 341
q0 36 2 73t6.5 73.5t11.5 69.5l192 58l247 16h401zM1186 1163v-264h-237l-23 19h-342l-16 -305l-297 10v540h915zM2028 273h663l82 -44l75 44h550l-34 -273h-1336v273zM2773 1197q245 0 359 -127t114 -342v-114q0 -193 -85 -317t-298 -186l-125 109q64 22 100 65.5
t51.5 106.5t15.5 143v169q0 98 -28.5 151t-103.5 53q-74 0 -102.5 -53t-28.5 -151v-169q0 -80 15.5 -143t52 -106.5t99.5 -65.5l-126 -109q-212 62 -297 186t-85 317v114q0 215 114 342t358 127zM2805 -513q-215 0 -312 70t-97 232v12q0 103 56 165t160 96l18 6l188 -52
l-22 -14q-34 -22 -54 -50.5t-20 -78.5v-3q0 -52 32 -78.5t116 -26.5q43 0 80 3.5t76.5 11t89.5 18.5l-43 -279q-64 -15 -130.5 -23.5t-137.5 -8.5zM1130 899v264h269l28 -264h-297z" />
    <glyph glyph-name="TtaPulli.tm" horiz-adv-x="1444" 
d="M469 1163l-1 -888h976l-33 -275h-1281v1163h339zM920 1278q-97 0 -141 48t-44 136v10q0 86 45 133.5t140 47.5q96 0 141 -47.5t45 -133.5v-10q0 -88 -44 -136t-142 -48z" />
    <glyph glyph-name="RaPulli_Alt.tm" horiz-adv-x="1218" 
d="M711 1088h335v-1088h-335v1088zM977 1163v-273h-512v-890h-335v1163h847zM787 890v273h423l29 -273h-452zM584 1279q-97 0 -141 48t-44 136v10q0 86 45 133.5t140 47.5q96 0 141 -47.5t45 -133.5v-10q0 -88 -44 -136t-142 -48z" />
    <glyph glyph-name="KaMatraI.tm" horiz-adv-x="1716" 
d="M987 469v263h223q231 0 324.5 -86t93.5 -270v-33q0 -123 -37.5 -205t-116.5 -123t-204 -41q-48 0 -99 4.5t-89 13.5l-51 275l4 21q30 -18 66.5 -30t83.5 -12q42 0 66.5 12t34.5 36.5t10 59.5v8q0 59 -29 83t-100 24h-180zM1208 1786q168 0 271 -56t150 -171.5t47 -294.5
v-471h-326v488q0 119 -32 173t-115 54q-76 0 -112 -47t-36 -145v-4q0 -49 7 -91.5t20 -70.5h-311q-19 36 -30.5 96t-11.5 112v4q0 189 121 306.5t358 117.5zM932 725v-254h-481h-61q0 -6 -0.5 -16t-0.5 -20v-17q0 -83 45.5 -127.5t148.5 -44.5q100 0 141.5 45t41.5 130v191
l13 35v434h303v-434v-35v-187q0 -142 -48 -243t-156.5 -154.5t-290.5 -53.5q-273 0 -394 120t-121 341q0 36 2 73t6.5 73.5t11.5 69.5l192 58l247 16h401zM1186 1163v-264h-237l-23 19h-342l-16 -305l-297 10v540h915zM983 899v264h269l28 -264h-297z" />
    <glyph glyph-name="NgaMatraI.tm" horiz-adv-x="2998" 
d="M711 1080h335v-1080h-335v1080zM1336 770q142 0 206 -81t64 -234v-27q0 -83 -13 -136.5t-39 -99.5l-68 76h618v-268h-893v18q39 58 56 123.5t17 160.5v26q0 80 -25 121t-92 41q-46 0 -81 -27t-49 -68h-7v150h25q7 60 37 111.5t89.5 82.5t154.5 31zM1948 1163h335v-1163
h-335v1163zM2154 1786q250 0 407.5 -79t232 -235.5t74.5 -391.5v-1080h-335v1102q0 140 -37 228.5t-120 130t-222 41.5q-122 0 -205 -36t-125 -106t-42 -173v-13q0 -104 49 -166.5t149 -65.5v-287q-170 8 -287.5 68t-178 175.5t-60.5 287.5v4q0 188 80 321t236 204t384 71z
M1130 1163v-273h-665v-890h-335v1163h1000zM929 890v273h423l29 -273h-452z" />
    <glyph glyph-name="CaMatraI.tm" horiz-adv-x="1897" 
d="M1033 485v267h293l32 -267h-325zM1249 1786q184 0 298 -58t167 -176.5t53 -302.5v-1249h-335v1266q0 126 -42 182.5t-146 56.5q-94 0 -141.5 -50t-47.5 -154v-4q0 -44 6.5 -82.5t18.5 -64.5h-311q-19 34 -29.5 89.5t-10.5 103.5v4q0 196 133 317.5t387 121.5zM932 725
v-254h-481h-61q0 -6 -0.5 -16t-0.5 -20v-17q0 -83 45.5 -127.5t148.5 -44.5q100 0 141.5 45t41.5 130v191l13 35v434h303v-434v-35v-187q0 -142 -48 -243t-156.5 -154.5t-290.5 -53.5q-273 0 -394 120t-121 341q0 36 2 73t6.5 73.5t11.5 69.5l192 58l247 16h401zM1186 1163
v-264h-237l-23 19h-342l-16 -305l-297 10v540h915zM1013 899v264h269l28 -264h-297z" />
    <glyph glyph-name="JaMatraI.tm" horiz-adv-x="2664" 
d="M1981 1786q195 0 317 -64.5t179 -197t57 -335.5v-1189h-335v1206q0 155 -50.5 225.5t-172.5 70.5q-110 0 -167 -57t-57 -171v0q0 -36 6 -71.5t19 -58.5h-315q-18 31 -27 81.5t-9 93.5v4q0 137 63 241t186.5 163t305.5 59zM718 1206q163 0 264 -45.5t154 -123t71 -172.5h7
q20 155 105.5 244t266.5 89q207 0 297.5 -116.5t90.5 -349.5v-25q0 -150 -27 -257.5t-89 -177.5t-167.5 -107t-263.5 -46l-741 -41q-73 -4 -118.5 -23t-66 -53t-20.5 -85v-9q0 -65 38 -104.5t126 -39.5q56 0 97 15.5t78 45.5t80 73l178 177q82 81 148 137t140 84.5t178 28.5
q152 0 246.5 -44.5t138.5 -134.5t44 -227v-3q0 -209 -96 -315t-308 -106q-52 0 -105.5 4.5t-103.5 16.5l-64 275q48 -10 92.5 -17t96.5 -7q91 0 126.5 38t35.5 111v18q0 61 -25.5 95t-90.5 34q-64 0 -115 -37.5t-127 -126.5l-106 -124q-82 -96 -158 -158t-167.5 -92
t-222.5 -30q-227 0 -353 103t-126 302v8q0 141 56 232.5t165.5 139t270.5 57.5l715 44q108 7 171 41t90 102.5t27 177.5v39q0 92 -29.5 138t-96.5 46q-43 0 -74.5 -18t-49 -59.5t-17.5 -111.5v-297h-322v161q0 112 -30.5 187.5t-100.5 114.5t-189 39q-170 0 -252 -80
t-81 -211h16v-172q0 -61 23.5 -93.5t81.5 -32.5q50 0 70 29t20 78v48q0 50 -21.5 76.5t-71.5 26.5q-25 0 -47.5 -9.5t-38.5 -25.5t-24 -36l-14 111h17q9 85 73 143t178 58q140 0 201.5 -81t61.5 -231v-47q0 -187 -96 -285t-304 -98q-221 0 -325 117t-104 323v95
q0 269 158 415.5t455 146.5z" />
    <glyph glyph-name="NyaMatraI.tm" horiz-adv-x="2662" 
d="M1648 1088h335v-1088h-335v1088zM2256 757q163 0 234 -110.5t71 -325.5v-32q0 -282 -118.5 -474t-371 -290.5t-653.5 -98.5h-10q-451 0 -736.5 131t-420.5 391.5t-135 649.5q0 132 6.5 234.5t18.5 183.5t26 147h343q-18 -86 -30 -166t-18 -173.5t-6 -218.5
q0 -300 92 -497.5t301 -295t559 -97.5h10q292 0 469 64t256.5 190.5t79.5 315.5v5q0 98 -27.5 143.5t-92.5 45.5q-50 0 -86 -30.5t-48 -79.5h-22v172h46q14 94 79.5 155t183.5 61zM2045 1163v-273h-658v273h658zM2109 1786q168 0 271 -56t150 -171.5t47 -294.5v-449h-326
v466q0 119 -32 173t-115 54q-76 0 -112 -47t-36 -145v-4q0 -49 7 -91.5t20 -70.5h-311q-19 36 -30.5 96t-11.5 112v4q0 189 121 306.5t358 117.5zM1575 1163v-273h-225q-199 0 -289 -81t-90 -243v-9v-9h11v-181q0 -64 24 -97.5t82 -33.5q50 0 70.5 30t20.5 82v40
q0 54 -21.5 81t-74.5 27q-27 0 -49.5 -11t-38 -27.5t-22.5 -32.5l-9 123h15q10 86 73.5 147.5t183.5 61.5q136 0 200.5 -85t64.5 -249v-55q0 -117 -40.5 -206t-130 -138.5t-236.5 -49.5q-154 0 -250.5 58t-141.5 161t-45 239v108q0 197 76 336t227.5 213t377.5 74h237z
M1729 890v273h423l29 -273h-452z" />
    <glyph glyph-name="TtaMatraI.tm" horiz-adv-x="1792" 
d="M565 273v-273h-435v1163h339v-890h96zM419 273h663l82 -44l75 44h550l-34 -273h-1336v273zM1164 1197q245 0 359 -127t114 -342v-114q0 -193 -85 -317t-298 -186l-125 109q64 22 100 65.5t51.5 106.5t15.5 143v169q0 98 -28.5 151t-103.5 53q-74 0 -102.5 -53t-28.5 -151
v-169q0 -80 15.5 -143t52 -106.5t99.5 -65.5l-126 -109q-212 62 -297 186t-85 317v114q0 215 114 342t358 127zM1196 -513q-215 0 -312 70t-97 232v12q0 103 56 165t160 96l18 6l188 -52l-22 -14q-34 -22 -54 -50.5t-20 -78.5v-3q0 -52 32 -78.5t116 -26.5q43 0 80 3.5
t76.5 11t89.5 18.5l-43 -279q-64 -15 -130.5 -23.5t-137.5 -8.5z" />
    <glyph glyph-name="NnaMatraI.tm" horiz-adv-x="4194" 
d="M2012 1201q237 0 391.5 -41.5t247.5 -103.5l2 -12q104 -48 169.5 -122t96.5 -171t31 -216v-110q0 -136 -43 -237.5t-138 -157.5t-250 -56t-252.5 56.5t-143 158t-45.5 236.5v110q0 119 34.5 221.5t112 175t206.5 101.5l126 -180q-54 -21 -86 -61t-45.5 -98.5
t-13.5 -137.5v-124q0 -58 10.5 -98t33.5 -60t61 -20t60 20t31.5 60t9.5 99v123q0 79 -13.5 137.5t-43.5 98.5t-81 61l-13 7q-46 21 -115 37.5t-155 26t-185 9.5q-151 0 -264 -21t-198 -52l-180 198q97 61 254.5 102t387.5 41zM3125 927l335 -3v-924h-335v927zM3353 1163
v-268h-502h-143.5h-143.5l72 268h127h125h465zM975 1204q241 0 398.5 -42t251.5 -106l2 -12q105 -48 170.5 -122t96.5 -171t31 -216v-110q0 -136 -43 -237.5t-138 -157.5t-250 -56t-252 56.5t-142.5 158t-45.5 236.5v110q0 119 34.5 221.5t111.5 175t206 101.5l125 -180
q-54 -21 -85.5 -61t-45.5 -98.5t-14 -137.5v-124q0 -58 11 -98t34.5 -60t61.5 -20t59.5 20t31 60t9.5 99v123q0 79 -13 137.5t-43.5 98.5t-81.5 61l-13 3q-70 31 -179 51.5t-280 20.5q-296 0 -438 -95.5t-148 -284.5v0v0h11v-181q0 -64 24 -97.5t82 -33.5q50 0 70.5 30
t20.5 82v40q0 54 -21.5 81t-74.5 27q-27 0 -49.5 -11t-38 -27.5t-22.5 -32.5l-9 123h15q10 86 73.5 147.5t183.5 61.5q136 0 200.5 -85t64.5 -249v-55q0 -117 -40.5 -206t-130 -138.5t-236.5 -49.5q-154 0 -250.5 58t-141.5 161t-45 239v96q0 214 100 365t298.5 231
t493.5 80zM3189 890v273h423l29 -273h-452zM3587 1786q171 0 276 -56t153 -171.5t48 -294.5v-1264h-335v1281q0 119 -32 173t-115 54q-76 0 -112 -47t-36 -145v-4q0 -49 7 -91.5t20 -70.5h-311q-19 36 -30.5 96t-11.5 112v4q0 189 121 306.5t358 117.5z" />
    <glyph glyph-name="TaMatraI.tm" horiz-adv-x="1718" 
d="M954 464v268h111q274 0 393 -114.5t119 -356.5v-48q0 -225 -67 -363.5t-224.5 -202.5t-427.5 -64h-323l-41 279h342q148 0 237.5 34t130 110t40.5 201v41q0 117 -47 166.5t-160 49.5h-83zM1208 1786q168 0 271 -56t150 -171.5t47 -294.5v-471h-326v488q0 119 -32 173
t-115 54q-76 0 -112 -47t-36 -145v-4q0 -49 7 -91.5t20 -70.5h-311q-19 36 -30.5 96t-11.5 112v4q0 189 121 306.5t358 117.5zM571 -138v-279h-174q-97 0 -177.5 -11t-150.5 -32t-137 -50l33 309q48 22 104 35.5t132 20.5t185 7h185zM932 725v-254h-481h-61q0 -6 -0.5 -16
t-0.5 -20v-17q0 -83 45.5 -127.5t148.5 -44.5q100 0 141.5 45t41.5 130v191l13 35v434h303v-434v-35v-187q0 -142 -48 -243t-156.5 -154.5t-290.5 -53.5q-273 0 -394 120t-121 341q0 36 2 73t6.5 73.5t11.5 69.5l192 58l247 16h401zM1186 1163v-264h-237l-23 19h-342
l-16 -305l-297 10v540h915zM984 899v264h269l28 -264h-297z" />
    <glyph glyph-name="NaMatraI.tm" horiz-adv-x="1714" 
d="M700 1088h335v-1088h-335v1088zM1313 757q165 0 238 -110t73 -325v-95q0 -226 -66.5 -368t-220 -209t-414.5 -67h-443l-41 279h466q105 0 177 19t116.5 60t64.5 107.5t20 162.5v76q0 99 -28.5 145.5t-95.5 46.5q-51 0 -88 -34t-50 -76h-22v172h47q14 94 80.5 155
t186.5 61zM1115 1163v-273h-649v-890h-335v1163h984zM1161 1786q168 0 271 -56t150 -171.5t47 -294.5v-449h-326v466q0 119 -32 173t-115 54q-76 0 -112 -47t-36 -145v-4q0 -49 7 -91.5t20 -70.5h-311q-19 36 -30.5 96t-11.5 112v4q0 189 121 306.5t358 117.5zM556 -138
v-279h-174q-97 0 -177.5 -11t-150.5 -32t-137 -50l33 309q48 22 104 35.5t132 20.5t185 7h185zM779 890v273h423l29 -273h-452z" />
    <glyph glyph-name="NnnaMatraI.tm" horiz-adv-x="3170" 
d="M2100 927l335 -3v-924h-335v927zM2336 1163v-268h-510h-144h-144l73 268h126.5h125.5h473zM975 1204q242 0 399 -42t251 -106l2 -12q105 -48 170.5 -122t96.5 -171t31 -216v-110q0 -136 -43 -237.5t-138 -157.5t-250 -56t-252 56.5t-142.5 158t-45.5 236.5v110
q0 119 34.5 221.5t111.5 175t206 101.5l125 -180q-54 -21 -85.5 -61t-45.5 -98.5t-14 -137.5v-124q0 -58 11 -98t34.5 -60t61.5 -20t59.5 20t31 60t9.5 99v123q0 79 -13 137.5t-43.5 98.5t-81.5 61l-13 3q-70 31 -179 51.5t-280 20.5q-296 0 -438 -95.5t-148 -284.5v0v0h11
v-181q0 -64 24 -97.5t82 -33.5q50 0 70.5 30t20.5 82v40q0 54 -21.5 81t-74.5 27q-27 0 -49.5 -11t-38 -27.5t-22.5 -32.5l-9 123h15q10 86 73.5 147.5t183.5 61.5q136 0 200.5 -85t64.5 -249v-55q0 -117 -40.5 -206t-130 -138.5t-236.5 -49.5q-154 0 -250.5 58t-141.5 161
t-45 239v96q0 214 100 365t298.5 231t493.5 80zM2164 890v273h423l29 -273h-452zM2563 1786q171 0 276 -56t153 -171.5t48 -294.5v-1264h-335v1281q0 119 -32 173t-115 54q-76 0 -112 -47t-36 -145v-4q0 -49 7 -91.5t20 -70.5h-311q-19 36 -30.5 96t-11.5 112v4
q0 189 121 306.5t358 117.5z" />
    <glyph glyph-name="PaMatraI.tm" horiz-adv-x="2196" 
d="M1141 1163h340v-1163h-834v282h494v881zM472 1163v-881h449v-282h-791v1163h342zM1352 1786q250 0 407.5 -79t232 -235.5t74.5 -391.5v-1080h-335v1102q0 140 -37 228.5t-120 130t-222 41.5q-122 0 -205 -36t-125 -106t-42 -173v-13q0 -104 49 -166.5t149 -65.5v-287
q-170 8 -287.5 68t-178 175.5t-60.5 287.5v4q0 188 80 321t236 204t384 71z" />
    <glyph glyph-name="MaMatraI.tm" horiz-adv-x="2344" 
d="M1667 1786q290 0 418.5 -145.5t128.5 -447.5v-1193h-335v1210q0 152 -49 222t-168 70q-106 0 -161.5 -60.5t-55.5 -181.5v0q0 -54 10.5 -108t34.5 -88h-315q-28 43 -42 113.5t-14 131.5v4q0 140 62 246.5t184.5 166.5t301.5 60zM130 1163h335v-890h617q103 0 157 26.5
t74 85.5t20 157v118q0 81 -20 132.5t-69.5 75.5t-140.5 24h-37v-819h-335v1090h351q215 0 345 -54.5t188 -167t58 -286.5v-106q0 -194 -61 -315.5t-196.5 -177.5t-361.5 -56h-924v1163z" />
    <glyph glyph-name="YaMatraI.tm" horiz-adv-x="2738" 
d="M1682 1163h341v-1163h-754v282h413v881zM1380 0h-546v199h-16q-18 -106 -95.5 -164.5t-222.5 -58.5q-183 0 -278.5 106t-95.5 338v743h335v-738q0 -88 35 -126.5t94 -38.5q65 0 96 42t31 137v724h342v-881h321v-282zM1894 1786q250 0 407.5 -79t232 -235.5t74.5 -391.5
v-1080h-335v1102q0 140 -37 228.5t-120 130t-222 41.5q-122 0 -205 -36t-125 -106t-42 -173v-13q0 -104 49 -166.5t149 -65.5v-287q-170 8 -287.5 68t-178 175.5t-60.5 287.5v4q0 188 80 321t236 204t384 71z" />
    <glyph glyph-name="RaMatraI.tm" horiz-adv-x="1780" 
d="M711 1088h335v-1088h-335v1088zM978 1163v-273h-513v-890h-335v1163h848zM775 890v273h423l29 -273h-452zM1173 1786q171 0 276 -56t153 -171.5t48 -294.5v-1264h-335v1281q0 119 -32 173t-115 54q-76 0 -112 -47t-36 -145v-4q0 -49 7 -91.5t20 -70.5h-311
q-19 36 -30.5 96t-11.5 112v4q0 189 121 306.5t358 117.5z" />
    <glyph glyph-name="RraMatraI.tm" horiz-adv-x="2338" 
d="M1664 1786q288 0 416 -144.5t128 -444.5v-1197h-335v1214q0 150 -48.5 219t-165.5 69q-105 0 -159.5 -59.5t-54.5 -178.5v0q0 -55 10.5 -110t34.5 -90h-315q-28 44 -42 116t-14 133v4q0 139 62 244.5t183.5 165t299.5 59.5zM531 1192q153 0 234.5 -70t97.5 -200h8
q23 133 117.5 202.5t274.5 69.5q198 0 292 -96t94 -282v-3q0 -129 -52.5 -215t-183.5 -100v-9q93 -7 149.5 -48t82.5 -112.5t26 -172.5v-45q0 -183 -56 -300t-196.5 -172.5t-393.5 -55.5h-554l-41 279h566q136 0 209.5 27.5t101.5 86.5t28 155v43q0 89 -37 127.5t-127 44.5
l-58 4v265l58 3q84 5 121.5 43t37.5 106v6q0 72 -34.5 106.5t-106.5 34.5q-53 0 -89.5 -18t-55 -56t-18.5 -100v-740h-335v765q0 79 -26.5 113t-86.5 34q-54 0 -86 -34t-32 -113v-765h-335v744q0 236 104 342t302 106zM551 -138v-279h-174q-97 0 -177.5 -11t-150.5 -32
t-137 -50l33 309q48 22 104 35.5t132 20.5t185 7h185z" />
    <glyph glyph-name="LaMatraI.tm" horiz-adv-x="2667" 
d="M758 1198q235 0 376.5 -71t205.5 -210.5t64 -345.5v-108q0 -105 28 -155.5t101 -50.5q71 0 96.5 54.5t25.5 160.5v197q0 84 -16.5 137.5t-57 79t-112.5 25.5q-22 0 -38.5 -1.5t-34.5 -4.5q-10 63 -17 140t-7 150q0 288 150 439.5t433 151.5q302 0 442 -154t140 -466
v-1166h-335v1182q0 168 -57.5 244t-194.5 76q-123 0 -189 -68.5t-66 -210.5q0 -40 3 -71.5t10 -62.5l-255 61q36 14 73.5 20t83.5 6q141 0 225.5 -53.5t122 -163.5t37.5 -279v-196q0 -165 -45 -279t-146.5 -172.5t-270.5 -58.5q-251 0 -357.5 125t-106.5 361v106
q0 120 -33.5 196.5t-103.5 113.5t-180 37q-178 0 -262 -87t-88 -260v-9v-9h11v-181q0 -64 24 -97.5t82 -33.5q50 0 70.5 30t20.5 82v40q0 54 -21.5 81t-74.5 27q-27 0 -49.5 -11t-38 -27.5t-22.5 -32.5l-9 123h15q10 86 73.5 147.5t183.5 61.5q136 0 200.5 -85t64.5 -249
v-55q0 -117 -40.5 -206t-130 -138.5t-236.5 -49.5q-154 0 -250.5 58t-141.5 161t-45 239v108q0 207 74.5 354.5t223.5 225.5t372 78z" />
    <glyph glyph-name="LlaMatraI.tm" horiz-adv-x="2746" 
d="M1677 1088h335v-1088h-335v1088zM724 1198q108 0 189.5 -20.5t139.5 -59t95.5 -92t56.5 -118.5h7v255h748v-273h-529v-890h-335v516q0 203 -79.5 300t-263.5 97q-181 0 -264 -87t-87 -260v-4v-4h11v-191q0 -64 24 -97.5t82 -33.5q50 0 70.5 30t20.5 82v50q0 54 -21.5 81
t-74.5 27q-27 0 -49.5 -11t-38 -27.5t-22.5 -32.5l-9 123h15q10 86 73.5 147.5t183.5 61.5q136 0 200.5 -85t64.5 -249v-65q0 -117 -40.5 -206t-130 -138.5t-236.5 -49.5q-154 0 -250.5 58t-141.5 161t-45 239v108q0 207 70.5 354.5t211.5 225.5t354 78zM1741 890v273h423
l29 -273h-452zM2139 1786q171 0 276 -56t153 -171.5t48 -294.5v-1264h-335v1281q0 119 -32 173t-115 54q-76 0 -112 -47t-36 -145v-4q0 -49 7 -91.5t20 -70.5h-311q-19 36 -30.5 96t-11.5 112v4q0 189 121 306.5t358 117.5z" />
    <glyph glyph-name="LllaMatraI.tm" horiz-adv-x="2344" 
d="M812 -719q-237 0 -350 114.5t-113 310.5q0 27 1.5 54t2.5 52h324q-2 -28 -3.5 -56.5t-1.5 -58.5q0 -76 34.5 -116.5t106.5 -40.5q39 0 62.5 11.5t39.5 32.5t31 48l5 9q11 19 19.5 30.5t21.5 15.5v8q-96 10 -152.5 45t-80.5 99t-24 158v163h327v-144q0 -44 11.5 -69.5
t40.5 -36.5t81 -11h278l-39 -257h-78q-34 0 -48 -11t-28 -40l-7 -15q-42 -90 -93.5 -156t-137.5 -102.5t-230 -36.5zM130 1163h335v-890h617q103 0 157 26.5t74 85.5t20 157v118q0 81 -20 132.5t-69.5 75.5t-140.5 24h-37v-819h-335v1090h351q215 0 345 -54.5t188 -167
t58 -286.5v-106q0 -194 -61 -315.5t-196.5 -177.5t-361.5 -56h-924v1163zM1667 1786q290 0 418.5 -145.5t128.5 -447.5v-1193h-335v1210q0 152 -49 222t-168 70q-106 0 -161.5 -60.5t-55.5 -181.5v0q0 -54 10.5 -108t34.5 -88h-315q-28 43 -42 113.5t-14 131.5v4
q0 140 62 246.5t184.5 166.5t301.5 60z" />
    <glyph glyph-name="VaMatraI.tm" horiz-adv-x="2956" 
d="M1906 1163h335v-1163h-838l-9 273h512v890zM2112 1786q250 0 407.5 -79t232 -235.5t74.5 -391.5v-1080h-335v1102q0 140 -37 228.5t-120 130t-222 41.5q-122 0 -205 -36t-125 -106t-42 -173v-13q0 -104 49 -166.5t149 -65.5v-287q-170 8 -287.5 68t-178 175.5
t-60.5 287.5v4q0 188 80 321t236 204t384 71zM779 1198q242 0 387 -73.5t209 -215t64 -344.5v-45q0 -88 -11.5 -157.5t-37.5 -126t-69 -106.5l-34 143h326v-273h-617v18q38 66 60.5 133.5t32.5 146.5t10 177v56q0 130 -34 214t-108.5 125t-195.5 41q-182 0 -268.5 -87
t-90.5 -260v-8v-8h11v-181q0 -64 24 -97.5t82 -33.5q50 0 70.5 30t20.5 82v40q0 54 -21.5 81t-74.5 27q-27 0 -49.5 -11t-38 -27.5t-22.5 -32.5l-9 123h15q10 86 73.5 147.5t183.5 61.5q136 0 200.5 -85t64.5 -249v-55q0 -117 -40.5 -206t-130 -138.5t-236.5 -49.5
q-154 0 -250.5 58t-141.5 161t-45 239v106q0 208 77 355.5t231 226t383 78.5z" />
    <glyph glyph-name="ShaMatraI.tm" horiz-adv-x="2836" 
d="M2232 1786q252 0 363 -125.5t111 -382.5v-1278h-335v1295q0 109 -32 161t-112 52q-73 0 -109 -47t-36 -137v-4q0 -47 11.5 -88.5t31.5 -68.5h-307q-27 37 -42.5 98.5t-15.5 114.5v4q0 177 120 291.5t352 114.5zM126 1163h337v-753q0 -82 27 -118.5t88 -36.5
q60 0 86.5 36.5t26.5 119.5v752h337v-741q0 -146 -44.5 -246.5t-143 -152t-262.5 -51.5q-163 0 -262.5 52t-144.5 152.5t-45 245.5v741zM1229 1163h337v-752q0 -84 26.5 -120.5t84.5 -36.5q59 0 85 36.5t26 121.5v751h337v-740q0 -147 -44.5 -247.5t-142.5 -152t-261 -51.5
q-162 0 -260.5 52t-143 153t-44.5 246v740zM768 1163h1224v-273h-1224v273z" />
    <glyph glyph-name="SsaMatraI.tm" horiz-adv-x="3300" 
d="M2581 1786q208 0 338 -66.5t190.5 -202t60.5 -344.5v-1173h-335v1190q0 163 -58.5 237.5t-200.5 74.5q-127 0 -193.5 -65.5t-66.5 -196.5v0q0 -27 4.5 -55t14.5 -54l-327 20q-9 34 -13.5 70.5t-4.5 67.5v4q0 146 67 257t199 173.5t325 62.5zM779 1198q242 0 387 -73.5
t209 -215t64 -344.5v-45q0 -88 -11.5 -157.5t-37.5 -126t-69 -106.5l-34 143h326v-273h-617v18q38 66 60.5 133.5t32.5 146.5t10 177v56q0 130 -34 214t-108.5 125t-195.5 41q-182 0 -268.5 -87t-90.5 -260v-8v-8h11v-181q0 -64 24 -97.5t82 -33.5q50 0 70.5 30t20.5 82v40
q0 54 -21.5 81t-74.5 27q-27 0 -49.5 -11t-38 -27.5t-22.5 -32.5l-9 123h15q10 86 73.5 147.5t183.5 61.5q136 0 200.5 -85t64.5 -249v-55q0 -117 -40.5 -206t-130 -138.5t-236.5 -49.5q-154 0 -250.5 58t-141.5 161t-45 239v106q0 208 77 355.5t231 226t383 78.5zM1353 273
h663l82 -44l75 44h550l-34 -273h-1336v273zM2098 1197q245 0 359 -127t114 -342v-114q0 -193 -85 -317t-298 -186l-125 109q64 22 100 65.5t51.5 106.5t15.5 143v169q0 98 -28.5 151t-103.5 53q-74 0 -102.5 -53t-28.5 -151v-169q0 -80 15.5 -143t52 -106.5t99.5 -65.5
l-126 -109q-212 62 -297 186t-85 317v114q0 215 114 342t358 127zM2130 -513q-215 0 -312 70t-97 232v12q0 103 56 165t160 96l18 6l188 -52l-22 -14q-34 -22 -54 -50.5t-20 -78.5v-3q0 -52 32 -78.5t116 -26.5q43 0 80 3.5t76.5 11t89.5 18.5l-43 -279
q-64 -15 -130.5 -23.5t-137.5 -8.5z" />
    <glyph glyph-name="SaMatraI.tm" horiz-adv-x="3247" 
d="M728 1198q158 0 264.5 -42t167.5 -119.5t80 -186.5h8v2q0 160 86 252.5t270 92.5q197 0 285.5 -110.5t88.5 -331.5v-287q0 -107 29.5 -159t105.5 -52q74 0 100 55.5t26 161.5v201q0 84 -17.5 138t-59 79.5t-113.5 25.5q-13 0 -23.5 -1t-19.5 -3q-10 63 -17 140.5
t-7 150.5q0 284 145.5 432.5t421.5 148.5q295 0 431.5 -150t136.5 -455v-1181h-335v1197q0 160 -54.5 232.5t-183.5 72.5q-115 0 -177 -66t-62 -203q0 -43 3 -77t10 -67l-189 75q23 5 44.5 8.5t48.5 3.5q134 0 212 -53.5t111.5 -158t33.5 -258.5v-219q0 -250 -107.5 -381.5
t-358.5 -131.5q-253 0 -361.5 128t-108.5 376v271q0 89 -24 127.5t-83 38.5q-53 0 -79.5 -38.5t-26.5 -125.5v-751h-335v545q0 125 -35 206.5t-111 121.5t-198 40q-179 0 -262 -87t-87 -260v-9v-9h11v-181q0 -64 24 -97.5t82 -33.5q50 0 70.5 30t20.5 82v40q0 54 -21.5 81
t-74.5 27q-27 0 -49.5 -11t-38 -27.5t-22.5 -32.5l-9 123h15q10 86 73.5 147.5t183.5 61.5q136 0 200.5 -85t64.5 -249v-55q0 -117 -40.5 -206t-130 -138.5t-236.5 -49.5q-154 0 -250.5 58t-141.5 161t-45 239v108q0 207 71 354.5t213 225.5t356 78z" />
    <glyph glyph-name="HaMatraI.tm" horiz-adv-x="3848" 
d="M3174 1786q288 0 416 -144.5t128 -444.5v-1197h-335v1214q0 150 -48.5 219t-165.5 69q-105 0 -159.5 -59.5t-54.5 -178.5v0q0 -55 10.5 -110t34.5 -90h-315q-28 44 -42 116t-14 133v4q0 139 62 244.5t183.5 165t299.5 59.5zM1462 273h353v-273h-353v273zM1929 -138v-279
h-1404l-42 279h1446zM771 1198q242 0 387 -73.5t209 -215t64 -344.5v-45q0 -88 -11.5 -157.5t-37.5 -126t-69 -106.5l-34 143h326v-273h-617v18q38 66 60.5 133.5t32.5 146.5t10 177v56q0 130 -34 214t-108.5 125t-195.5 41q-182 0 -268.5 -87t-90.5 -260v-8v-8h11v-181
q0 -64 24 -97.5t82 -33.5q50 0 70.5 30t20.5 82v40q0 54 -21.5 81t-74.5 27q-27 0 -49.5 -11t-38 -27.5t-22.5 -32.5l-9 123h15q10 86 73.5 147.5t183.5 61.5q136 0 200.5 -85t64.5 -249v-55q0 -117 -40.5 -206t-130 -138.5t-236.5 -49.5q-154 0 -250.5 58t-141.5 161
t-45 239v106q0 208 77 355.5t231 226t383 78.5zM615 -138v-279h-174q-97 0 -177.5 -11t-150.5 -32t-137 -50l33 309q48 22 104 35.5t132 20.5t185 7h185zM2042 1192q153 0 234.5 -70t97.5 -200h8q23 133 117.5 202.5t274.5 69.5q198 0 292 -96t94 -282v-3q0 -129 -52.5 -215
t-183.5 -100v-9q93 -7 150 -48t82.5 -112.5t25.5 -172.5v-45q0 -183 -56 -300t-196.5 -172.5t-393.5 -55.5h-970l-41 279h982q136 0 209.5 27.5t101.5 86.5t28 155v43q0 89 -37 127.5t-127 44.5l-58 4v265l58 3q84 5 121.5 43t37.5 106v6q0 48 -15 79.5t-46.5 46.5t-79.5 15
q-53 0 -89.5 -18t-55 -56t-18.5 -100v-740h-335v765q0 79 -26.5 113t-86.5 34q-54 0 -86 -34t-32 -113v-765h-335v744q0 236 104 342t302 106z" />
    <glyph glyph-name="KssaMatraI.tm" horiz-adv-x="3975" 
d="M3256 1786q208 0 338 -66.5t190.5 -202t60.5 -344.5v-1173h-335v1190q0 163 -58.5 237.5t-200.5 74.5q-127 0 -193.5 -65.5t-66.5 -196.5v0q0 -27 4.5 -55t14.5 -54l-327 20q-9 34 -13.5 70.5t-4.5 67.5v4q0 146 67 257t199 173.5t325 62.5zM952 464v268h181
q150 0 218 -55.5t86 -186.5h8v0q0 135 89.5 221.5t270.5 86.5q185 0 267.5 -88.5t82.5 -253.5v-28q0 -83 -13 -136.5t-39 -99.5l-68 81h405v-273h-682v18q39 60 56 127.5t17 165.5v43q0 80 -23.5 122t-85.5 42q-40 0 -67 -19.5t-41 -57.5t-14 -94v-347h-332v278
q0 72 -14 112.5t-49 57t-98 16.5h-155zM932 725v-254h-481h-61q0 -6 -0.5 -16t-0.5 -20v-17q0 -83 45.5 -127.5t148.5 -44.5q100 0 141.5 45t41.5 130v191l13 35v434h303v-434v-35v-187q0 -142 -48 -243t-156.5 -154.5t-290.5 -53.5q-273 0 -394 120t-121 341q0 36 2 73
t6.5 73.5t11.5 69.5l192 58l247 16h401zM1186 1163v-264h-237l-23 19h-342l-16 -305l-297 10v540h915zM2028 273h663l82 -44l75 44h550l-34 -273h-1336v273zM2773 1197q245 0 359 -127t114 -342v-114q0 -193 -85 -317t-298 -186l-125 109q64 22 100 65.5t51.5 106.5
t15.5 143v169q0 98 -28.5 151t-103.5 53q-74 0 -102.5 -53t-28.5 -151v-169q0 -80 15.5 -143t52 -106.5t99.5 -65.5l-126 -109q-212 62 -297 186t-85 317v114q0 215 114 342t358 127zM2805 -513q-215 0 -312 70t-97 232v12q0 103 56 165t160 96l18 6l188 -52l-22 -14
q-34 -22 -54 -50.5t-20 -78.5v-3q0 -52 32 -78.5t116 -26.5q43 0 80 3.5t76.5 11t89.5 18.5l-43 -279q-64 -15 -130.5 -23.5t-137.5 -8.5zM1130 899v264h269l28 -264h-297z" />
    <glyph glyph-name="KaMatraIi.tm" horiz-adv-x="1692" 
d="M987 469v263h223q231 0 324.5 -86t93.5 -270v-33q0 -123 -37.5 -205t-116.5 -123t-204 -41q-48 0 -99 4.5t-89 13.5l-51 275l4 21q30 -18 66.5 -30t83.5 -12q42 0 66.5 12t34.5 36.5t10 59.5v8q0 59 -29 83t-100 24h-180zM932 725v-254h-481h-61q0 -6 -0.5 -16t-0.5 -20
v-17q0 -83 45.5 -127.5t148.5 -44.5q100 0 141.5 45t41.5 130v191l13 35v434h303v-434v-35v-187q0 -142 -48 -243t-156.5 -154.5t-290.5 -53.5q-273 0 -394 120t-121 341q0 36 2 73t6.5 73.5t11.5 69.5l192 58l247 16h401zM1186 1163v-264h-237l-23 19h-342l-16 -305
l-297 10v540h915zM1130 899v264h269l28 -264h-297zM1259 1944q252 0 369 -101.5t117 -272.5v-4q0 -153 -85 -236t-260 -83q-166 0 -241.5 69t-75.5 184v4q0 82 41 126.5t114 65.5v10l113 -1q-13 -25 -19 -53t-6 -66v-21q0 -50 16.5 -77t56.5 -27q65 0 65 96v12
q0 63 -28.5 97.5t-101.5 34.5q-25 0 -49.5 -2.5t-46.5 -7.5v12q-118 -4 -181.5 -68.5t-63.5 -191.5v-10q0 -75 26.5 -154t62.5 -129h-313q-33 46 -59 131.5t-26 173.5v9q0 227 141 353.5t434 126.5z" />
    <glyph glyph-name="NgaMatraIi.tm" horiz-adv-x="2419" 
d="M711 1080h335v-1080h-335v1080zM1336 770q142 0 206 -81t64 -234v-27q0 -83 -13 -136.5t-39 -99.5l-68 76h518v-268h-793v18q39 58 56 123.5t17 160.5v26q0 80 -25 121t-92 41q-46 0 -81 -27t-49 -68h-7v150h25q7 60 37 111.5t89.5 82.5t154.5 31zM1953 1163h335v-1163
h-335v1163zM1130 1163v-273h-665v-890h-335v1163h1000zM2073 1944q252 0 369 -101.5t117 -272.5v-4q0 -153 -85 -236t-260 -83q-166 0 -241.5 69t-75.5 184v4q0 82 41 126.5t114 65.5v10l113 -1q-13 -25 -19 -53t-6 -66v-21q0 -50 16.5 -77t56.5 -27q65 0 65 96v12
q0 63 -28.5 97.5t-101.5 34.5q-25 0 -49.5 -2.5t-46.5 -7.5v12q-138 -6 -212 -96t-74 -267v-47q0 -134 50.5 -226.5t153.5 -118.5v-299q-177 24 -294 104t-175 218t-58 334v37q0 284 154.5 443t475.5 159zM939 890v273h423l29 -273h-452z" />
    <glyph glyph-name="CaMatraIi.tm" horiz-adv-x="1426" 
d="M1013 485v267h364l32 -267h-396zM932 725v-254h-481h-61q0 -6 -0.5 -16t-0.5 -20v-17q0 -83 45.5 -127.5t148.5 -44.5q100 0 141.5 45t41.5 130v191l13 35v434h303v-434v-35v-187q0 -142 -48 -243t-156.5 -154.5t-290.5 -53.5q-273 0 -394 120t-121 341q0 36 2 73
t6.5 73.5t11.5 69.5l192 58l247 16h401zM1186 1163v-264h-237l-23 19h-342l-16 -305l-297 10v540h915zM1034 899v264h269l28 -264h-297zM1259 1944q252 0 369 -101.5t117 -272.5v-4q0 -153 -85 -236t-260 -83q-166 0 -241.5 69t-75.5 184v4q0 82 41 126.5t114 65.5v10
l113 -1q-13 -25 -19 -53t-6 -66v-21q0 -50 16.5 -77t56.5 -27q65 0 65 96v12q0 63 -28.5 97.5t-101.5 34.5q-25 0 -49.5 -2.5t-46.5 -7.5v12q-118 -4 -181.5 -68.5t-63.5 -191.5v-10q0 -75 26.5 -154t62.5 -129h-313q-33 46 -59 131.5t-26 173.5v9q0 227 141 353.5
t434 126.5z" />
    <glyph glyph-name="JaMatraIi.tm" horiz-adv-x="2079" 
d="M1910 1944q252 0 369 -101.5t117 -272.5v-4q0 -153 -85 -236t-260 -83q-166 0 -241.5 69t-75.5 184v4q0 82 41 126.5t114 65.5v10l113 -1q-13 -25 -19 -53t-6 -66v-21q0 -50 16.5 -77t56.5 -27q65 0 65 96v12q0 63 -28.5 97.5t-101.5 34.5q-25 0 -49.5 -2.5t-46.5 -7.5
v12q-118 -4 -181.5 -68.5t-63.5 -191.5v-10q0 -75 29.5 -154t69.5 -129h-313q-37 46 -66 131.5t-29 173.5v9q0 227 141 353.5t434 126.5zM718 1206q163 0 264 -45.5t154 -123t71 -172.5h7q20 155 105.5 244t266.5 89q207 0 297.5 -116.5t90.5 -349.5v-25q0 -150 -27 -257.5
t-89 -177.5t-167.5 -107t-263.5 -46l-741 -41q-73 -4 -118.5 -23t-66 -53t-20.5 -85v-9q0 -65 38 -104.5t126 -39.5q56 0 97 15.5t78 45.5t80 73l178 177q82 81 148 137t140 84.5t178 28.5q152 0 246.5 -44.5t138.5 -134.5t44 -227v-3q0 -209 -96 -315t-308 -106
q-52 0 -105.5 4.5t-103.5 16.5l-64 275q48 -10 92.5 -17t96.5 -7q91 0 126.5 38t35.5 111v18q0 61 -25.5 95t-90.5 34q-64 0 -115 -37.5t-127 -126.5l-106 -124q-82 -96 -158 -158t-167.5 -92t-222.5 -30q-227 0 -353 103t-126 302v8q0 141 56 232.5t165.5 139t270.5 57.5
l715 44q108 7 171 41t90 102.5t27 177.5v39q0 92 -29.5 138t-96.5 46q-43 0 -74.5 -18t-49 -59.5t-17.5 -111.5v-297h-322v161q0 112 -30.5 187.5t-100.5 114.5t-189 39q-170 0 -252 -80t-81 -211h16v-172q0 -61 23.5 -93.5t81.5 -32.5q50 0 70 29t20 78v48q0 50 -21.5 76.5
t-71.5 26.5q-25 0 -47.5 -9.5t-38.5 -25.5t-24 -36l-14 111h17q9 85 73 143t178 58q140 0 201.5 -81t61.5 -231v-47q0 -187 -96 -285t-304 -98q-221 0 -325 117t-104 323v95q0 269 158 415.5t455 146.5z" />
    <glyph glyph-name="NyaMatraIi.tm" horiz-adv-x="2635" 
d="M1648 1088h335v-1088h-335v1088zM2256 757q163 0 234 -110.5t71 -325.5v-32q0 -282 -118.5 -474t-371 -290.5t-653.5 -98.5h-10q-451 0 -736.5 131t-420.5 391.5t-135 649.5q0 132 6.5 234.5t18.5 183.5t26 147h343q-18 -86 -30 -166t-18 -173.5t-6 -218.5
q0 -300 92 -497.5t301 -295t559 -97.5h10q292 0 469 64t256.5 190.5t79.5 315.5v5q0 98 -27.5 143.5t-92.5 45.5q-50 0 -86 -30.5t-48 -79.5h-22v172h46q14 94 79.5 155t183.5 61zM2045 1163v-273h-658v273h658zM1575 1163v-273h-225q-199 0 -289 -81t-90 -243v-9v-9h11
v-181q0 -64 24 -97.5t82 -33.5q50 0 70.5 30t20.5 82v40q0 54 -21.5 81t-74.5 27q-27 0 -49.5 -11t-38 -27.5t-22.5 -32.5l-9 123h15q10 86 73.5 147.5t183.5 61.5q136 0 200.5 -85t64.5 -249v-55q0 -117 -40.5 -206t-130 -138.5t-236.5 -49.5q-154 0 -250.5 58t-141.5 161
t-45 239v108q0 197 76 336t227.5 213t377.5 74h237zM1941 890v273h423l29 -273h-452zM2140 1944q252 0 369 -101.5t117 -272.5v-4q0 -153 -85 -236t-260 -83q-166 0 -241.5 69t-75.5 184v4q0 82 41 126.5t114 65.5v10l113 -1q-13 -25 -19 -53t-6 -66v-21q0 -50 16.5 -77
t56.5 -27q65 0 65 96v12q0 63 -28.5 97.5t-101.5 34.5q-25 0 -49.5 -2.5t-46.5 -7.5v12q-118 -4 -181.5 -68.5t-63.5 -191.5v-10q0 -75 26.5 -154t62.5 -129h-313q-33 46 -59 131.5t-26 173.5v9q0 227 141 353.5t434 126.5z" />
    <glyph glyph-name="TtaMatraIi.tm" horiz-adv-x="1880" 
d="M469 1163l-1 -888h1409l-33 -275h-1714v1163h339zM1235 1056q252 0 369 -101.5t117 -272.5v-4q0 -153 -85 -236t-260 -83q-166 0 -241.5 69t-75.5 184v4q0 82 41 126.5t114 65.5v10l113 -1q-13 -25 -19 -53t-6 -66v-21q0 -50 16.5 -77t56.5 -27q65 0 65 96v12
q0 63 -28.5 97.5t-101.5 34.5q-25 0 -49.5 -2.5t-46.5 -7.5v12q-118 -4 -181.5 -68.5t-63.5 -191.5v-10q0 -75 26.5 -154t62.5 -129h-313q-33 46 -59 131.5t-26 173.5v9q0 227 141 353.5t434 126.5z" />
    <glyph glyph-name="NnaMatraIi.tm" horiz-adv-x="3632" 
d="M2012 1201q237 0 391.5 -41.5t247.5 -103.5l2 -12q104 -48 169.5 -122t96.5 -171t31 -216v-110q0 -136 -43 -237.5t-138 -157.5t-250 -56t-252.5 56.5t-143 158t-45.5 236.5v110q0 119 34.5 221.5t112 175t206.5 101.5l126 -180q-54 -21 -86 -61t-45.5 -98.5
t-13.5 -137.5v-124q0 -58 10.5 -98t33.5 -60t61 -20t60 20t31.5 60t9.5 99v123q0 79 -13.5 137.5t-43.5 98.5t-81 61l-13 7q-46 21 -115 37.5t-155 26t-185 9.5q-151 0 -264 -21t-198 -52l-180 198q97 61 254.5 102t387.5 41zM3125 927l335 -3v-924h-335v927zM3353 1163
v-268h-502h-143.5h-143.5l72 268h127h125h465zM975 1204q241 0 398.5 -42t251.5 -106l2 -12q105 -48 170.5 -122t96.5 -171t31 -216v-110q0 -136 -43 -237.5t-138 -157.5t-250 -56t-252 56.5t-142.5 158t-45.5 236.5v110q0 119 34.5 221.5t111.5 175t206 101.5l125 -180
q-54 -21 -85.5 -61t-45.5 -98.5t-14 -137.5v-124q0 -58 11 -98t34.5 -60t61.5 -20t59.5 20t31 60t9.5 99v123q0 79 -13 137.5t-43.5 98.5t-81.5 61l-13 3q-70 31 -179 51.5t-280 20.5q-296 0 -438 -95.5t-148 -284.5v0v0h11v-181q0 -64 24 -97.5t82 -33.5q50 0 70.5 30
t20.5 82v40q0 54 -21.5 81t-74.5 27q-27 0 -49.5 -11t-38 -27.5t-22.5 -32.5l-9 123h15q10 86 73.5 147.5t183.5 61.5q136 0 200.5 -85t64.5 -249v-55q0 -117 -40.5 -206t-130 -138.5t-236.5 -49.5q-154 0 -250.5 58t-141.5 161t-45 239v96q0 214 100 365t298.5 231
t493.5 80zM3201 890v273h423l29 -273h-452zM3617 1944q252 0 369 -101.5t117 -272.5v-4q0 -153 -85 -236t-260 -83q-166 0 -241.5 69t-75.5 184v4q0 82 41 126.5t114 65.5v10l113 -1q-13 -25 -19 -53t-6 -66v-21q0 -50 16.5 -77t56.5 -27q65 0 65 96v12q0 63 -28.5 97.5
t-101.5 34.5q-25 0 -49.5 -2.5t-46.5 -7.5v12q-118 -4 -181.5 -68.5t-63.5 -191.5v-10q0 -75 26.5 -154t62.5 -129h-313q-33 46 -59 131.5t-26 173.5v9q0 227 141 353.5t434 126.5z" />
    <glyph glyph-name="TaMatraIi.tm" horiz-adv-x="1671" 
d="M984 464v268h111q274 0 393 -114.5t119 -356.5v-48q0 -225 -67 -363.5t-224.5 -202.5t-427.5 -64h-323l-41 279h342q148 0 237.5 34t130 110t40.5 201v41q0 117 -47 166.5t-160 49.5h-83zM571 -138v-279h-174q-97 0 -177.5 -11t-150.5 -32t-137 -50l33 309
q48 22 104 35.5t132 20.5t185 7h185zM932 725v-254h-481h-61q0 -6 -0.5 -16t-0.5 -20v-17q0 -83 45.5 -127.5t148.5 -44.5q100 0 141.5 45t41.5 130v191l13 35v434h303v-434v-35v-187q0 -142 -48 -243t-156.5 -154.5t-290.5 -53.5q-273 0 -394 120t-121 341q0 36 2 73
t6.5 73.5t11.5 69.5l192 58l247 16h401zM1186 1163v-264h-237l-23 19h-342l-16 -305l-297 10v540h915zM1140 899v264h269l28 -264h-297zM1238 1944q252 0 369 -101.5t117 -272.5v-4q0 -153 -85 -236t-260 -83q-166 0 -241.5 69t-75.5 184v4q0 82 41 126.5t114 65.5v10
l113 -1q-13 -25 -19 -53t-6 -66v-21q0 -50 16.5 -77t56.5 -27q65 0 65 96v12q0 63 -28.5 97.5t-101.5 34.5q-25 0 -49.5 -2.5t-46.5 -7.5v12q-118 -4 -181.5 -68.5t-63.5 -191.5v-10q0 -75 26.5 -154t62.5 -129h-313q-33 46 -59 131.5t-26 173.5v9q0 227 141 353.5
t434 126.5z" />
    <glyph glyph-name="NaMatraIi.tm" horiz-adv-x="1697" 
d="M699 1088h335v-1088h-335v1088zM1312 757q165 0 238 -110t73 -325v-95q0 -226 -66.5 -368t-220 -209t-414.5 -67h-443l-41 279h466q105 0 177 19t116.5 60t64.5 107.5t20 162.5v76q0 99 -28.5 145.5t-95.5 46.5q-51 0 -88 -34t-50 -76h-22v172h47q14 94 80.5 155
t186.5 61zM1114 1163v-273h-649v-890h-335v1163h984zM556 -138v-279h-174q-97 0 -177.5 -11t-150.5 -32t-137 -50l33 309q48 22 104 35.5t132 20.5t185 7h185zM985 890v273h423l29 -273h-452zM1191 1944q252 0 369 -101.5t117 -272.5v-4q0 -153 -85 -236t-260 -83
q-166 0 -241.5 69t-75.5 184v4q0 82 41 126.5t114 65.5v10l113 -1q-13 -25 -19 -53t-6 -66v-21q0 -50 16.5 -77t56.5 -27q65 0 65 96v12q0 63 -28.5 97.5t-101.5 34.5q-25 0 -49.5 -2.5t-46.5 -7.5v12q-118 -4 -181.5 -68.5t-63.5 -191.5v-10q0 -75 26.5 -154t62.5 -129
h-313q-33 46 -59 131.5t-26 173.5v9q0 227 141 353.5t434 126.5z" />
    <glyph glyph-name="NnnaMatraIi.tm" horiz-adv-x="2607" 
d="M2100 927l335 -3v-924h-335v927zM2336 1163v-268h-510h-144h-144l73 268h126.5h125.5h473zM975 1204q242 0 399 -42t251 -106l2 -12q105 -48 170.5 -122t96.5 -171t31 -216v-110q0 -136 -43 -237.5t-138 -157.5t-250 -56t-252 56.5t-142.5 158t-45.5 236.5v110
q0 119 34.5 221.5t111.5 175t206 101.5l125 -180q-54 -21 -85.5 -61t-45.5 -98.5t-14 -137.5v-124q0 -58 11 -98t34.5 -60t61.5 -20t59.5 20t31 60t9.5 99v123q0 79 -13 137.5t-43.5 98.5t-81.5 61l-13 3q-70 31 -179 51.5t-280 20.5q-296 0 -438 -95.5t-148 -284.5v0v0h11
v-181q0 -64 24 -97.5t82 -33.5q50 0 70.5 30t20.5 82v40q0 54 -21.5 81t-74.5 27q-27 0 -49.5 -11t-38 -27.5t-22.5 -32.5l-9 123h15q10 86 73.5 147.5t183.5 61.5q136 0 200.5 -85t64.5 -249v-55q0 -117 -40.5 -206t-130 -138.5t-236.5 -49.5q-154 0 -250.5 58t-141.5 161
t-45 239v96q0 214 100 365t298.5 231t493.5 80zM2176 890v273h423l29 -273h-452zM2592 1944q252 0 369 -101.5t117 -272.5v-4q0 -153 -85 -236t-260 -83q-166 0 -241.5 69t-75.5 184v4q0 82 41 126.5t114 65.5v10l113 -1q-13 -25 -19 -53t-6 -66v-21q0 -50 16.5 -77
t56.5 -27q65 0 65 96v12q0 63 -28.5 97.5t-101.5 34.5q-25 0 -49.5 -2.5t-46.5 -7.5v12q-118 -4 -181.5 -68.5t-63.5 -191.5v-10q0 -75 26.5 -154t62.5 -129h-313q-33 46 -59 131.5t-26 173.5v9q0 227 141 353.5t434 126.5z" />
    <glyph glyph-name="PaMatraIi.tm" horiz-adv-x="1602" 
d="M472 1163v-881h459v-282h-801v1163h342zM1132 1163h340v-1163h-853v282h513v881zM1256 1944q252 0 369 -101.5t117 -272.5v-4q0 -153 -85 -236t-260 -83q-166 0 -241.5 69t-75.5 184v4q0 82 41 126.5t114 65.5v10l113 -1q-13 -25 -19 -53t-6 -66v-21q0 -50 16.5 -77
t56.5 -27q65 0 65 96v12q0 63 -28.5 97.5t-101.5 34.5q-25 0 -49.5 -2.5t-46.5 -7.5v12q-138 -6 -212 -96t-74 -267v-47q0 -134 50.5 -226.5t153.5 -118.5v-299q-177 24 -294 104t-175 218t-58 334v37q0 284 154.5 443t475.5 159z" />
    <glyph glyph-name="MaMatraIi.tm" horiz-adv-x="1759" 
d="M1505 1944q252 0 369 -101.5t117 -272.5v-4q0 -153 -85 -236t-260 -83q-166 0 -241.5 69t-75.5 184v4q0 82 41 126.5t114 65.5v10l113 -1q-13 -25 -19 -53t-6 -66v-21q0 -50 16.5 -77t56.5 -27q65 0 65 96v12q0 63 -28.5 97.5t-101.5 34.5q-25 0 -49.5 -2.5t-46.5 -7.5
v12q-118 -4 -181.5 -68.5t-63.5 -191.5v-10q0 -83 36 -170t85 -143h-313q-49 50 -83 144t-34 191v9q0 227 141 353.5t434 126.5zM130 1163h335v-890h617q103 0 157 26.5t74 85.5t20 157v118q0 81 -20 132.5t-69.5 75.5t-140.5 24h-37v-819h-335v1090h351q215 0 345 -54.5
t188 -167t58 -286.5v-106q0 -194 -61 -315.5t-196.5 -177.5t-361.5 -56h-924v1163z" />
    <glyph glyph-name="YaMatraIi.tm" horiz-adv-x="2147" 
d="M1681 1163h340v-1163h-754v282h414v881zM1380 0h-546v199h-16q-18 -106 -95.5 -164.5t-222.5 -58.5q-183 0 -278.5 106t-95.5 338v743h335v-738q0 -88 35 -126.5t94 -38.5q65 0 96 42t31 137v724h342v-881h321v-282zM1801 1944q252 0 369 -101.5t117 -272.5v-4
q0 -153 -85 -236t-260 -83q-166 0 -241.5 69t-75.5 184v4q0 82 41 126.5t114 65.5v10l113 -1q-13 -25 -19 -53t-6 -66v-21q0 -50 16.5 -77t56.5 -27q65 0 65 96v12q0 63 -28.5 97.5t-101.5 34.5q-25 0 -49.5 -2.5t-46.5 -7.5v12q-138 -6 -212 -96t-74 -267v-47
q0 -134 50.5 -226.5t153.5 -118.5v-299q-177 24 -294 104t-175 218t-58 334v37q0 284 154.5 443t475.5 159z" />
    <glyph glyph-name="RaMatraIi.tm" horiz-adv-x="1218" 
d="M711 1088h335v-1088h-335v1088zM977 1163v-273h-512v-890h-335v1163h847zM787 890v273h423l29 -273h-452zM1203 1944q252 0 369 -101.5t117 -272.5v-4q0 -153 -85 -236t-260 -83q-166 0 -241.5 69t-75.5 184v4q0 82 41 126.5t114 65.5v10l113 -1q-13 -25 -19 -53t-6 -66
v-21q0 -50 16.5 -77t56.5 -27q65 0 65 96v12q0 63 -28.5 97.5t-101.5 34.5q-25 0 -49.5 -2.5t-46.5 -7.5v12q-118 -4 -181.5 -68.5t-63.5 -191.5v-10q0 -75 26.5 -154t62.5 -129h-313q-33 46 -59 131.5t-26 173.5v9q0 227 141 353.5t434 126.5z" />
    <glyph glyph-name="RraMatraIi.tm" horiz-adv-x="1743" 
d="M1609 1944q252 0 369 -101.5t117 -272.5v-4q0 -153 -85 -236t-260 -83q-166 0 -241.5 69t-75.5 184v4q0 82 41 126.5t114 65.5v10l113 -1q-13 -25 -19 -53t-6 -66v-21q0 -50 16.5 -77t56.5 -27q65 0 65 96v12q0 63 -28.5 97.5t-101.5 34.5q-25 0 -49.5 -2.5t-46.5 -7.5
v12q-118 -4 -181.5 -68.5t-63.5 -191.5v-10q0 -75 29.5 -154t69.5 -129h-313q-37 46 -66 131.5t-29 173.5v9q0 227 141 353.5t434 126.5zM531 1192q153 0 234.5 -70t97.5 -200h8q23 133 117.5 202.5t274.5 69.5q198 0 292 -96t94 -282v-3q0 -129 -52.5 -215t-183.5 -100v-9
q93 -7 149.5 -48t82.5 -112.5t26 -172.5v-45q0 -183 -56 -300t-196.5 -172.5t-393.5 -55.5h-554l-41 279h566q136 0 209.5 27.5t101.5 86.5t28 155v43q0 89 -37 127.5t-127 44.5l-58 4v265l58 3q84 5 121.5 43t37.5 106v6q0 72 -34.5 106.5t-106.5 34.5q-53 0 -89.5 -18
t-55 -56t-18.5 -100v-740h-335v765q0 79 -26.5 113t-86.5 34q-54 0 -86 -34t-32 -113v-765h-335v744q0 236 104 342t302 106zM551 -138v-279h-174q-97 0 -177.5 -11t-150.5 -32t-137 -50l33 309q48 22 104 35.5t132 20.5t185 7h185z" />
    <glyph glyph-name="LaMatraIi.tm" horiz-adv-x="2082" 
d="M1602 1388v-10q0 -56 15 -134.5t49 -131.5l-218 38q37 13 75.5 19.5t86.5 6.5q141 0 225.5 -53.5t122 -163t37.5 -279.5v-196q0 -165 -45 -279t-146.5 -172.5t-270.5 -58.5q-251 0 -357.5 125t-106.5 361v106q0 120 -33.5 196.5t-103.5 113.5t-180 37q-178 0 -262 -87
t-88 -260v-9v-9h11v-181q0 -64 24 -97.5t82 -33.5q50 0 70.5 30t20.5 82v40q0 54 -21.5 81t-74.5 27q-27 0 -49.5 -11t-38 -27.5t-22.5 -32.5l-9 123h15q10 86 73.5 147.5t183.5 61.5q136 0 200.5 -85t64.5 -249v-55q0 -117 -40.5 -206t-130 -138.5t-236.5 -49.5
q-154 0 -250.5 58t-141.5 161t-45 239v108q0 207 74.5 354.5t223.5 225.5t372 78q235 0 376.5 -71t205.5 -210.5t64 -345.5v-108q0 -105 28 -155.5t101 -50.5q71 0 96.5 54.5t25.5 160.5v197q0 84 -16.5 137.5t-57 79t-112.5 25.5q-17 0 -33 -2l-32 -4q-51 89 -83 223
t-32 272v9q0 252 139.5 393.5t446.5 141.5q252 0 369 -101.5t117 -272.5v-4q0 -153 -85 -236t-260 -83q-166 0 -241.5 69t-75.5 184v4q0 82 41 126.5t114 65.5v10l113 -1q-13 -25 -19 -53t-6 -66v-21q0 -50 16.5 -77t56.5 -27q65 0 65 96v12q0 63 -28.5 97.5t-101.5 34.5
q-25 0 -49.5 -2.5t-46.5 -7.5v12q-130 -5 -191 -79t-61 -236z" />
    <glyph glyph-name="LlaMatraIi.tm" horiz-adv-x="2184" 
d="M1677 1088h335v-1088h-335v1088zM724 1198q108 0 189.5 -20.5t139.5 -59t95.5 -92t56.5 -118.5h7v255h749v-273h-530v-890h-335v516q0 203 -79.5 300t-263.5 97q-181 0 -264 -87t-87 -260v-9v-9h11v-181q0 -64 24 -97.5t82 -33.5q50 0 70.5 30t20.5 82v40q0 54 -21.5 81
t-74.5 27q-27 0 -49.5 -11t-38 -27.5t-22.5 -32.5l-9 123h15q10 86 73.5 147.5t183.5 61.5q136 0 200.5 -85t64.5 -249v-55q0 -117 -40.5 -206t-130 -138.5t-236.5 -49.5q-154 0 -250.5 58t-141.5 161t-45 239v108q0 207 70.5 354.5t211.5 225.5t354 78zM1753 890v273h423
l29 -273h-452zM2169 1944q252 0 369 -101.5t117 -272.5v-4q0 -153 -85 -236t-260 -83q-166 0 -241.5 69t-75.5 184v4q0 82 41 126.5t114 65.5v10l113 -1q-13 -25 -19 -53t-6 -66v-21q0 -50 16.5 -77t56.5 -27q65 0 65 96v12q0 63 -28.5 97.5t-101.5 34.5q-25 0 -49.5 -2.5
t-46.5 -7.5v12q-118 -4 -181.5 -68.5t-63.5 -191.5v-10q0 -75 26.5 -154t62.5 -129h-313q-33 46 -59 131.5t-26 173.5v9q0 227 141 353.5t434 126.5z" />
    <glyph glyph-name="LllaMatraIi.tm" horiz-adv-x="1759" 
d="M812 -719q-237 0 -350 114.5t-113 310.5q0 27 1.5 54t2.5 52h324q-2 -28 -3.5 -56.5t-1.5 -58.5q0 -76 34.5 -116.5t106.5 -40.5q39 0 62.5 11.5t39.5 32.5t31 48l5 9q11 19 19.5 30.5t21.5 15.5v8q-96 10 -152.5 45t-80.5 99t-24 158v163h327v-144q0 -44 11.5 -69.5
t40.5 -36.5t81 -11h278l-39 -257h-78q-34 0 -48 -11t-28 -40l-7 -15q-42 -90 -93.5 -156t-137.5 -102.5t-230 -36.5zM130 1163h335v-890h617q103 0 157 26.5t74 85.5t20 157v118q0 81 -20 132.5t-69.5 75.5t-140.5 24h-37v-819h-335v1090h351q215 0 345 -54.5t188 -167
t58 -286.5v-106q0 -194 -61 -315.5t-196.5 -177.5t-361.5 -56h-924v1163zM1505 1944q252 0 369 -101.5t117 -272.5v-4q0 -153 -85 -236t-260 -83q-166 0 -241.5 69t-75.5 184v4q0 82 41 126.5t114 65.5v10l113 -1q-13 -25 -19 -53t-6 -66v-21q0 -50 16.5 -77t56.5 -27
q65 0 65 96v12q0 63 -28.5 97.5t-101.5 34.5q-25 0 -49.5 -2.5t-46.5 -7.5v12q-118 -4 -181.5 -68.5t-63.5 -191.5v-10q0 -83 36 -170t85 -143h-313q-49 50 -83 144t-34 191v9q0 227 141 353.5t434 126.5z" />
    <glyph glyph-name="VaMatraIi.tm" horiz-adv-x="2366" 
d="M1905 1163h335v-1163h-863l-9 275h537v888zM2020 1944q252 0 369 -101.5t117 -272.5v-4q0 -153 -85 -236t-260 -83q-166 0 -241.5 69t-75.5 184v4q0 82 41 126.5t114 65.5v10l113 -1q-13 -25 -19 -53t-6 -66v-21q0 -50 16.5 -77t56.5 -27q65 0 65 96v12q0 63 -28.5 97.5
t-101.5 34.5q-25 0 -49.5 -2.5t-46.5 -7.5v12q-138 -6 -212 -96t-74 -267v-47q0 -134 50.5 -226.5t153.5 -118.5v-299q-177 24 -294 104t-175 218t-58 334v37q0 284 154.5 443t475.5 159zM779 1198q242 0 387 -73.5t209 -215t64 -344.5v-45q0 -88 -11.5 -157.5t-37.5 -126
t-69 -106.5l-34 143h326v-273h-617v18q38 66 60.5 133.5t32.5 146.5t10 177v56q0 130 -34 214t-108.5 125t-195.5 41q-182 0 -268.5 -87t-90.5 -260v-8v-8h11v-181q0 -64 24 -97.5t82 -33.5q50 0 70.5 30t20.5 82v40q0 54 -21.5 81t-74.5 27q-27 0 -49.5 -11t-38 -27.5
t-22.5 -32.5l-9 123h15q10 86 73.5 147.5t183.5 61.5q136 0 200.5 -85t64.5 -249v-55q0 -117 -40.5 -206t-130 -138.5t-236.5 -49.5q-154 0 -250.5 58t-141.5 161t-45 239v106q0 208 77 355.5t231 226t383 78.5z" />
    <glyph glyph-name="ShaMatraIi.tm" horiz-adv-x="2251" 
d="M2036 1449v-10q0 -73 26.5 -150t62.5 -126h-313q-33 45 -59 129t-26 169v9q0 224 141 349t434 125q252 0 369 -101.5t117 -272.5v-4q0 -153 -85 -236t-260 -83q-166 0 -241.5 69t-75.5 184v4q0 82 41 126.5t114 65.5v10l113 -1q-13 -25 -19 -53t-6 -66v-21
q0 -50 16.5 -77t56.5 -27q65 0 65 96v12q0 63 -28.5 97.5t-101.5 34.5q-25 0 -49.5 -2.5t-46.5 -7.5v12q-118 -4 -181.5 -67t-63.5 -187zM126 1163h337v-753q0 -82 27 -118.5t88 -36.5q60 0 86.5 36.5t26.5 119.5v752h337v-741q0 -146 -44.5 -246.5t-143 -152t-262.5 -51.5
q-163 0 -262.5 52t-144.5 152.5t-45 245.5v741zM1229 1163h337v-752q0 -84 26.5 -120.5t84.5 -36.5q59 0 85 36.5t26 121.5v751h337v-740q0 -147 -44.5 -247.5t-142.5 -152t-261 -51.5q-162 0 -260.5 52t-143 153t-44.5 246v740zM768 1163h1224v-273h-1224v273z" />
    <glyph glyph-name="SsaMatraIi.tm" horiz-adv-x="2716" 
d="M2445 1944q252 0 369 -101.5t117 -272.5v-4q0 -153 -85 -236t-260 -83q-166 0 -241.5 69t-75.5 184v4q0 82 41 126.5t114 65.5v10l113 -1q-13 -25 -19 -53t-6 -66v-21q0 -50 16.5 -77t56.5 -27q65 0 65 96v12q0 63 -28.5 97.5t-101.5 34.5q-25 0 -49.5 -2.5t-46.5 -7.5
v12q-118 -4 -181.5 -68.5t-63.5 -191.5v-10q0 -75 29.5 -154t69.5 -129h-313q-37 46 -66 131.5t-29 173.5v9q0 227 141 353.5t434 126.5zM779 1198q242 0 387 -73.5t209 -215t64 -344.5v-45q0 -88 -11.5 -157.5t-37.5 -126t-69 -106.5l-34 143h326v-273h-617v18
q38 66 60.5 133.5t32.5 146.5t10 177v56q0 130 -34 214t-108.5 125t-195.5 41q-182 0 -268.5 -87t-90.5 -260v-8v-8h11v-181q0 -64 24 -97.5t82 -33.5q50 0 70.5 30t20.5 82v40q0 54 -21.5 81t-74.5 27q-27 0 -49.5 -11t-38 -27.5t-22.5 -32.5l-9 123h15q10 86 73.5 147.5
t183.5 61.5q136 0 200.5 -85t64.5 -249v-55q0 -117 -40.5 -206t-130 -138.5t-236.5 -49.5q-154 0 -250.5 58t-141.5 161t-45 239v106q0 208 77 355.5t231 226t383 78.5zM1353 273h663l82 -44l75 44h550l-34 -273h-1336v273zM2098 1197q245 0 359 -127t114 -342v-114
q0 -193 -85 -317t-298 -186l-125 109q64 22 100 65.5t51.5 106.5t15.5 143v169q0 98 -28.5 151t-103.5 53q-74 0 -102.5 -53t-28.5 -151v-169q0 -80 15.5 -143t52 -106.5t99.5 -65.5l-126 -109q-212 62 -297 186t-85 317v114q0 215 114 342t358 127zM2130 -513
q-215 0 -312 70t-97 232v12q0 103 56 165t160 96l18 6l188 -52l-22 -14q-34 -22 -54 -50.5t-20 -78.5v-3q0 -52 32 -78.5t116 -26.5q43 0 80 3.5t76.5 11t89.5 18.5l-43 -279q-64 -15 -130.5 -23.5t-137.5 -8.5z" />
    <glyph glyph-name="SaMatraIi.tm" horiz-adv-x="2666" 
d="M2235 1388v-10q0 -40 6.5 -93t20.5 -104t37 -87l-234 48q31 16 75 25t88 9q131 0 208 -53.5t110 -158t33 -258.5v-219q0 -250 -107.5 -381.5t-358.5 -131.5q-253 0 -361.5 128t-108.5 376v271q0 89 -24 127.5t-83 38.5q-53 0 -79.5 -38.5t-26.5 -125.5v-751h-335v545
q0 125 -35 206.5t-111 121.5t-198 40q-179 0 -262 -87t-87 -260v-9v-9h11v-181q0 -64 24 -97.5t82 -33.5q50 0 70.5 30t20.5 82v40q0 54 -21.5 81t-74.5 27q-27 0 -49.5 -11t-38 -27.5t-22.5 -32.5l-9 123h15q10 86 73.5 147.5t183.5 61.5q136 0 200.5 -85t64.5 -249v-55
q0 -117 -40.5 -206t-130 -138.5t-236.5 -49.5q-154 0 -250.5 58t-141.5 161t-45 239v108q0 207 71 354.5t213 225.5t356 78q158 0 264.5 -42t167.5 -119.5t80 -186.5h8v2q0 160 86 252.5t270 92.5q197 0 285.5 -110.5t88.5 -331.5v-287q0 -107 29.5 -159t105.5 -52
q74 0 100 55.5t26 161.5v201q0 84 -15.5 137.5t-54 79.5t-107.5 26q-7 0 -14.5 -0.5t-12.5 -1.5q-50 88 -81.5 219t-31.5 265v9q0 252 139.5 393.5t446.5 141.5q252 0 369 -101.5t117 -272.5v-4q0 -153 -85 -236t-260 -83q-166 0 -241.5 69t-75.5 184v4q0 82 41 126.5
t114 65.5v10l113 -1q-13 -25 -19 -53t-6 -66v-21q0 -50 16.5 -77t56.5 -27q65 0 65 96v12q0 63 -28.5 97.5t-101.5 34.5q-25 0 -49.5 -2.5t-46.5 -7.5v12q-130 -5 -191 -79t-61 -236z" />
    <glyph glyph-name="HaMatraIi.tm" horiz-adv-x="3254" 
d="M3120 1944q252 0 369 -101.5t117 -272.5v-4q0 -153 -85 -236t-260 -83q-166 0 -241.5 69t-75.5 184v4q0 82 41 126.5t114 65.5v10l113 -1q-13 -25 -19 -53t-6 -66v-21q0 -50 16.5 -77t56.5 -27q65 0 65 96v12q0 63 -28.5 97.5t-101.5 34.5q-25 0 -49.5 -2.5t-46.5 -7.5
v12q-118 -4 -181.5 -68.5t-63.5 -191.5v-10q0 -75 29.5 -154t69.5 -129h-313q-37 46 -66 131.5t-29 173.5v9q0 227 141 353.5t434 126.5zM1462 273h353v-273h-353v273zM1929 -138v-279h-1404l-42 279h1446zM771 1198q242 0 387 -73.5t209 -215t64 -344.5v-45
q0 -88 -11.5 -157.5t-37.5 -126t-69 -106.5l-34 143h326v-273h-617v18q38 66 60.5 133.5t32.5 146.5t10 177v56q0 130 -34 214t-108.5 125t-195.5 41q-182 0 -268.5 -87t-90.5 -260v-8v-8h11v-181q0 -64 24 -97.5t82 -33.5q50 0 70.5 30t20.5 82v40q0 54 -21.5 81t-74.5 27
q-27 0 -49.5 -11t-38 -27.5t-22.5 -32.5l-9 123h15q10 86 73.5 147.5t183.5 61.5q136 0 200.5 -85t64.5 -249v-55q0 -117 -40.5 -206t-130 -138.5t-236.5 -49.5q-154 0 -250.5 58t-141.5 161t-45 239v106q0 208 77 355.5t231 226t383 78.5zM615 -138v-279h-174
q-97 0 -177.5 -11t-150.5 -32t-137 -50l33 309q48 22 104 35.5t132 20.5t185 7h185zM2042 1192q153 0 234.5 -70t97.5 -200h8q23 133 117.5 202.5t274.5 69.5q198 0 292 -96t94 -282v-3q0 -129 -52.5 -215t-183.5 -100v-9q93 -7 150 -48t82.5 -112.5t25.5 -172.5v-45
q0 -183 -56 -300t-196.5 -172.5t-393.5 -55.5h-970l-41 279h982q136 0 209.5 27.5t101.5 86.5t28 155v43q0 89 -37 127.5t-127 44.5l-58 4v265l58 3q84 5 121.5 43t37.5 106v6q0 48 -15 79.5t-46.5 46.5t-79.5 15q-53 0 -89.5 -18t-55 -56t-18.5 -100v-740h-335v765
q0 79 -26.5 113t-86.5 34q-54 0 -86 -34t-32 -113v-765h-335v744q0 236 104 342t302 106z" />
    <glyph glyph-name="KssaMatraIi.tm" horiz-adv-x="3391" 
d="M3120 1944q252 0 369 -101.5t117 -272.5v-4q0 -153 -85 -236t-260 -83q-166 0 -241.5 69t-75.5 184v4q0 82 41 126.5t114 65.5v10l113 -1q-13 -25 -19 -53t-6 -66v-21q0 -50 16.5 -77t56.5 -27q65 0 65 96v12q0 63 -28.5 97.5t-101.5 34.5q-25 0 -49.5 -2.5t-46.5 -7.5
v12q-118 -4 -181.5 -68.5t-63.5 -191.5v-10q0 -75 29.5 -154t69.5 -129h-313q-37 46 -66 131.5t-29 173.5v9q0 227 141 353.5t434 126.5zM952 464v268h181q150 0 218 -55.5t86 -186.5h8v0q0 135 89.5 221.5t270.5 86.5q185 0 267.5 -88.5t82.5 -253.5v-28q0 -83 -13 -136.5
t-39 -99.5l-68 81h405v-273h-682v18q39 60 56 127.5t17 165.5v43q0 80 -23.5 122t-85.5 42q-40 0 -67 -19.5t-41 -57.5t-14 -94v-347h-332v278q0 72 -14 112.5t-49 57t-98 16.5h-155zM932 725v-254h-481h-61q0 -6 -0.5 -16t-0.5 -20v-17q0 -83 45.5 -127.5t148.5 -44.5
q100 0 141.5 45t41.5 130v191l13 35v434h303v-434v-35v-187q0 -142 -48 -243t-156.5 -154.5t-290.5 -53.5q-273 0 -394 120t-121 341q0 36 2 73t6.5 73.5t11.5 69.5l192 58l247 16h401zM1186 1163v-264h-237l-23 19h-342l-16 -305l-297 10v540h915zM2028 273h663l82 -44
l75 44h550l-34 -273h-1336v273zM2773 1197q245 0 359 -127t114 -342v-114q0 -193 -85 -317t-298 -186l-125 109q64 22 100 65.5t51.5 106.5t15.5 143v169q0 98 -28.5 151t-103.5 53q-74 0 -102.5 -53t-28.5 -151v-169q0 -80 15.5 -143t52 -106.5t99.5 -65.5l-126 -109
q-212 62 -297 186t-85 317v114q0 215 114 342t358 127zM2805 -513q-215 0 -312 70t-97 232v12q0 103 56 165t160 96l18 6l188 -52l-22 -14q-34 -22 -54 -50.5t-20 -78.5v-3q0 -52 32 -78.5t116 -26.5q43 0 80 3.5t76.5 11t89.5 18.5l-43 -279q-64 -15 -130.5 -23.5
t-137.5 -8.5zM1130 899v264h269l28 -264h-297z" />
    <glyph glyph-name="KaMatraU.tm" horiz-adv-x="2245" 
d="M1515 469v263h171q181 0 289.5 -52t157 -153.5t48.5 -252.5v-11q0 -243 -99.5 -418.5t-307.5 -269.5t-535 -94h-7q-380 0 -628.5 117.5t-370 345.5t-121.5 560q0 148 14.5 268.5t38 217.5t49.5 173h345q-25 -75 -45 -148.5t-34 -151t-21.5 -164t-7.5 -187.5
q0 -242 80.5 -407.5t252.5 -250t448 -84.5h6q222 0 356 58t193.5 167.5t59.5 263.5v11q0 102 -41.5 150.5t-137.5 48.5h-153zM1525 725v-254h-481h-61q0 -6 -0.5 -16t-0.5 -20v-17q0 -83 45.5 -127.5t148.5 -44.5q100 0 141.5 45t41.5 130v191l13 35v434h303v-434v-35v-187
q0 -142 -48 -243t-156.5 -154.5t-290.5 -53.5q-273 0 -394 120t-121 341q0 36 2 73t6.5 73.5t11.5 69.5l192 58l247 16h401zM1779 1163v-264h-237l-23 19h-342l-16 -305l-297 10v540h915zM1715 899v264h269l28 -264h-297z" />
    <glyph glyph-name="NgaMatraU.tm" horiz-adv-x="2233" 
d="M1769 198h334v-576h-334v576zM711 1080h335v-1080h-335v1080zM1336 770q142 0 206 -81t64 -234v-27q0 -83 -13 -136.5t-39 -99.5l-68 76h418v-268h-693v18q39 58 56 123.5t17 160.5v26q0 80 -25 121t-92 41q-46 0 -81 -27t-49 -68h-7v150h25q7 60 37 111.5t89.5 82.5
t154.5 31zM1768 1163h335v-1163h-335v1163zM1130 1163v-273h-665v-890h-335v1163h1000zM1049 890v273h423l29 -273h-452z" />
    <glyph glyph-name="CaMatraU.tm" horiz-adv-x="1803" 
d="M960 464v268h790l33 -268h-823zM1265 548h333v-548h-333v548zM932 725v-254h-481h-61q0 -6 -0.5 -16t-0.5 -20v-17q0 -83 45.5 -127.5t148.5 -44.5q100 0 141.5 45t41.5 130v191l13 35v434h303v-434v-35v-187q0 -142 -48 -243t-156.5 -154.5t-290.5 -53.5
q-273 0 -394 120t-121 341q0 36 2 73t6.5 73.5t11.5 69.5l192 58l247 16h401zM1186 1163v-264h-237l-23 19h-342l-16 -305l-297 10v540h915zM1097 899v264h269l28 -264h-297z" />
    <glyph glyph-name="JaMatraU.tm" horiz-adv-x="2989" 
d="M1970 1163v-272h-282v272h282zM718 1206q163 0 264 -45.5t154 -123t71 -172.5h7q20 155 105.5 244t266.5 89q117 0 192 -35t119 -106v-55q41 -50 59 -122t18 -152v-21q0 -150 -27 -257.5t-89 -177.5t-167.5 -107t-263.5 -46l-741 -41q-73 -4 -118.5 -23t-66 -53
t-20.5 -85v-9q0 -65 38 -104.5t126 -39.5q56 0 97 15.5t78 45.5t80 73l178 177q82 81 148 137t140 84.5t178 28.5q152 0 246.5 -44.5t138.5 -134.5t44 -227v-3q0 -209 -96 -315t-308 -106q-52 0 -105.5 4.5t-103.5 16.5l-64 275q48 -10 92.5 -17t96.5 -7q91 0 126.5 38
t35.5 111v18q0 61 -25.5 95t-90.5 34q-64 0 -115 -37.5t-127 -126.5l-106 -124q-82 -96 -158 -158t-167.5 -92t-222.5 -30q-227 0 -353 103t-126 302v8q0 141 56 232.5t165.5 139t270.5 57.5l715 44q108 7 171 41t90 102.5t27 177.5v39q0 61 -13 102t-40.5 61.5t-72.5 20.5
q-43 0 -74.5 -18t-49 -59.5t-17.5 -111.5v-297h-322v161q0 112 -30.5 187.5t-100.5 114.5t-189 39q-170 0 -252 -80t-81 -211h16v-172q0 -61 23.5 -93.5t81.5 -32.5q50 0 70 29t20 78v48q0 50 -21.5 76.5t-71.5 26.5q-25 0 -47.5 -9.5t-38.5 -25.5t-24 -36l-14 111h17
q9 85 73 143t178 58q140 0 201.5 -81t61.5 -231v-47q0 -187 -96 -285t-304 -98q-221 0 -325 117t-104 323v95q0 269 158 415.5t455 146.5zM1842 891v272h585q277 0 393 -114t116 -316v-59q0 -183 -94.5 -286.5t-300.5 -103.5q-139 0 -227 47.5t-129 132t-41 195.5v62
q0 35 2 69.5t8 60.5l278 43l35 3q-8 -28 -11.5 -63.5t-3.5 -79.5v-81q0 -65 19 -99.5t68 -34.5q44 0 62.5 32.5t18.5 93.5v80q0 73 -31 109.5t-112 36.5h-635z" />
    <glyph glyph-name="NyaMatraU.tm" horiz-adv-x="2679" 
d="M1076 1088h335v-1088h-335v1088zM1679 757q170 0 240 -119t70 -351v-103q0 -95 -2.5 -167.5t-7.5 -131t-13 -111.5l-5 -52q-21 -131 -85.5 -239t-177.5 -186.5t-278.5 -121t-388.5 -42.5q-234 0 -416 49.5t-307.5 146t-191.5 236t-70 319.5h2503v-255h-2100
q14 -44 55 -84.5t112 -73t174 -51t241 -18.5q144 0 250 24t177.5 68.5t111 105.5t49.5 135l7 65q8 45 13.5 102t8.5 125.5t3 145.5v83q0 116 -26.5 169.5t-98.5 53.5q-45 0 -81.5 -28t-47.5 -72h-23v172h47q14 89 80 147.5t178 58.5zM2214 1162h335v-1465h-335v1465z
M977 1163h453v-273h-453v273zM1002 1163v-273h-225q-199 0 -289 -81t-90 -243v-9v-9h11v-181q0 -64 24 -97.5t82 -33.5q50 0 70.5 30t20.5 82v40q0 54 -21.5 81t-74.5 27q-27 0 -49.5 -11t-38 -27.5t-22.5 -32.5l-9 123h15q10 86 73.5 147.5t183.5 61.5q136 0 200.5 -85
t64.5 -249v-55q0 -117 -40.5 -206t-130 -138.5t-236.5 -49.5q-154 0 -250.5 58t-141.5 161t-45 239v108q0 197 76 336t227.5 213t377.5 74h237zM1369 890v273h423l29 -273h-452z" />
    <glyph glyph-name="TtaMatraU.tm" horiz-adv-x="1726" 
d="M710 1163h335v-1163h-335v1163zM1641 936q0 -19 -0.5 -37.5t-1.5 -35.5h-338q1 18 1.5 34.5t0.5 35.5q0 242 -87.5 359.5t-293.5 117.5q-167 0 -270.5 -67.5t-151 -207.5t-47.5 -358v-374q0 -328 104 -480.5t343 -152.5q203 0 289.5 111t86.5 340v87q0 94 -27 137.5
t-89 43.5q-49 0 -83.5 -30.5t-45.5 -79.5h-23v172h47q14 94 78.5 155t180.5 61q160 0 230.5 -108.5t70.5 -320.5v-111q0 -370 -173 -558t-542 -188q-394 0 -590 225.5t-196 709.5v348q0 484 201 709.5t607 225.5q372 0 545.5 -193t173.5 -570z" />
    <glyph glyph-name="NnaMatraU.tm" horiz-adv-x="4306" 
d="M2012 1201q237 0 391.5 -41.5t247.5 -103.5l2 -12q104 -48 169.5 -122t96.5 -171t31 -216v-110q0 -136 -43 -237.5t-138 -157.5t-250 -56t-252.5 56.5t-143 158t-45.5 236.5v110q0 119 34.5 221.5t112 175t206.5 101.5l126 -180q-54 -21 -86 -61t-45.5 -98.5
t-13.5 -137.5v-124q0 -58 10.5 -98t33.5 -60t61 -20t60 20t31.5 60t9.5 99v123q0 79 -13.5 137.5t-43.5 98.5t-81 61l-13 7q-46 21 -115 37.5t-155 26t-185 9.5q-151 0 -264 -21t-198 -52l-180 198q97 61 254.5 102t387.5 41zM3033 1202q199 0 322.5 -44t181.5 -131t58 -217
v0q0 -124 -52 -207.5t-184 -95.5v-9q90 -6 145 -48t80.5 -116.5t25.5 -181.5v-9q0 -124 -13 -215t-36 -166l-9 -90q-54 -130 -185 -237.5t-338.5 -185.5t-492.5 -120.5t-648 -42.5q-443 0 -774.5 54t-556.5 157.5t-348 251.5t-150 335h4117v-255h-3615q39 -52 148 -101
t280 -88t397.5 -62t500.5 -23q278 0 501.5 25t391.5 72.5t276.5 115.5t155.5 155l12 61q24 60 37 153.5t13 200.5v5q0 110 -37.5 159t-129.5 55l-47 3v263l59 4q84 6 120 46t36 107v0q0 57 -28 94.5t-85.5 55.5t-147.5 18q-129 0 -231.5 -18t-203.5 -53l-171 194
q101 56 256.5 93.5t368.5 37.5zM3841 1163h335v-1466h-335v1466zM975 1204q241 0 398.5 -42t251.5 -106l2 -12q105 -48 170.5 -122t96.5 -171t31 -216v-110q0 -136 -43 -237.5t-138 -157.5t-250 -56t-252 56.5t-142.5 158t-45.5 236.5v110q0 119 34.5 221.5t111.5 175
t206 101.5l125 -180q-54 -21 -85.5 -61t-45.5 -98.5t-14 -137.5v-124q0 -58 11 -98t34.5 -60t61.5 -20t59.5 20t31 60t9.5 99v123q0 79 -13 137.5t-43.5 98.5t-81.5 61l-13 3q-70 31 -179 51.5t-280 20.5q-296 0 -438 -95.5t-148 -284.5v0v0h11v-181q0 -64 24 -97.5
t82 -33.5q50 0 70.5 30t20.5 82v40q0 54 -21.5 81t-74.5 27q-27 0 -49.5 -11t-38 -27.5t-22.5 -32.5l-9 123h15q10 86 73.5 147.5t183.5 61.5q136 0 200.5 -85t64.5 -249v-55q0 -117 -40.5 -206t-130 -138.5t-236.5 -49.5q-154 0 -250.5 58t-141.5 161t-45 239v96
q0 214 100 365t298.5 231t493.5 80z" />
    <glyph glyph-name="TaMatraU.tm" horiz-adv-x="2271" 
d="M1805 1163h336v-1459h-336v1459zM977 484v268h111q270 0 385.5 -125.5t115.5 -397.5v-110q0 -83 -2.5 -144.5t-7 -110t-10.5 -92.5l-13 -76q-24 -148 -109 -262.5t-239.5 -179.5t-389.5 -65q-264 0 -442.5 80t-272 235.5t-103.5 379.5h2141v-255h-1745q11 -38 42 -71
t83 -57.5t126 -38t171 -13.5q126 0 211 32t132 92t58 143l15 84q6 36 10 83.5t6.5 105t2.5 121.5v94q0 103 -20.5 164.5t-65 88.5t-117.5 27h-73zM932 725v-254h-481h-61q0 -6 -0.5 -16t-0.5 -20v-17q0 -83 45.5 -127.5t148.5 -44.5q100 0 141.5 45t41.5 130v191l13 35v434
h303v-434v-35v-187q0 -142 -48 -243t-156.5 -154.5t-290.5 -53.5q-273 0 -394 120t-121 341q0 36 2 73t6.5 73.5t11.5 69.5l192 58l247 16h401zM1186 1163v-264h-237l-23 19h-342l-16 -305l-297 10v540h915zM1130 899v264h269l28 -264h-297z" />
    <glyph glyph-name="NaMatraU.tm" horiz-adv-x="2284" 
d="M699 1088h335v-1088h-335v1088zM1302 757q170 0 240 -119t70 -351v-123q0 -91 -3 -161t-8.5 -125.5t-12.5 -105.5l-6 -76q-23 -150 -109.5 -265.5t-244.5 -181t-397 -65.5q-194 0 -341 45.5t-247.5 135t-153.5 220t-60 299.5h2125v-255h-1730q11 -39 40.5 -72.5
t79.5 -58.5t121.5 -39t165.5 -14q130 0 217 32.5t135 93.5t60 145l9 74q6 43 11 99.5t8 123t3 140.5v103q0 115 -26.5 169t-98.5 54q-45 0 -81.5 -28t-47.5 -72h-23v172h47q9 60 41.5 106.5t87.5 73t129 26.5zM1817 1163h337v-1466h-337v1466zM1089 1163v-273h-624v-890
h-335v1163h959zM981 890v273h423l29 -273h-452z" />
    <glyph glyph-name="NnnaMatraU.tm" horiz-adv-x="3261" 
d="M2008 1202q199 0 322.5 -44t181.5 -131t58 -217v0q0 -124 -52 -207.5t-184 -95.5v-9q90 -6 145 -48t80.5 -116.5t25.5 -181.5v-9q0 -83 -4 -150.5t-11.5 -124t-18.5 -106.5l-5 -71q-45 -172 -191 -299.5t-399 -197.5t-620 -70q-310 0 -543.5 51t-391.5 148.5t-243 239
t-99 321.5h3072v-255h-2640q23 -43 88.5 -84t172 -74.5t253 -53.5t331.5 -20q198 0 349.5 23t259.5 66.5t172.5 103.5t88.5 135l6 61q18 60 27.5 153t9.5 199v5q0 110 -37.5 159t-129.5 55l-47 3v263l59 4q84 6 120 46t36 107v0q0 57 -28 94.5t-85.5 55.5t-147.5 18
q-129 0 -231.5 -18t-203.5 -53l-171 194q101 56 256.5 93.5t368.5 37.5zM2796 1163h335v-1466h-335v1466zM975 1204q242 0 399 -42t251 -106l2 -12q105 -48 170.5 -122t96.5 -171t31 -216v-110q0 -136 -43 -237.5t-138 -157.5t-250 -56t-252 56.5t-142.5 158t-45.5 236.5
v110q0 119 34.5 221.5t111.5 175t206 101.5l125 -180q-54 -21 -85.5 -61t-45.5 -98.5t-14 -137.5v-124q0 -58 11 -98t34.5 -60t61.5 -20t59.5 20t31 60t9.5 99v123q0 79 -13 137.5t-43.5 98.5t-81.5 61l-13 3q-70 31 -179 51.5t-280 20.5q-296 0 -438 -95.5t-148 -284.5v0v0
h11v-181q0 -64 24 -97.5t82 -33.5q50 0 70.5 30t20.5 82v40q0 54 -21.5 81t-74.5 27q-27 0 -49.5 -11t-38 -27.5t-22.5 -32.5l-9 123h15q10 86 73.5 147.5t183.5 61.5q136 0 200.5 -85t64.5 -249v-55q0 -117 -40.5 -206t-130 -138.5t-236.5 -49.5q-154 0 -250.5 58
t-141.5 161t-45 239v96q0 214 100 365t298.5 231t493.5 80z" />
    <glyph glyph-name="PaMatraU.tm" horiz-adv-x="1502" 
d="M1037 198h335v-576h-335v576zM1030 1163h342v-1163h-744v282h402v881zM472 1163v-881h357v-282h-699v1163h342z" />
    <glyph glyph-name="MaMatraU.tm" horiz-adv-x="2387" 
d="M215 1163h344q-25 -81 -44.5 -166.5t-33 -179.5t-20.5 -201t-7 -231q0 -215 48.5 -360.5t156.5 -218.5t286 -73h3q215 0 308.5 90.5t98.5 256.5l3 94l337 -4l-3 -100q-6 -198 -88 -337t-244.5 -212t-410.5 -73h-4q-281 0 -465.5 104t-274.5 314.5t-90 529.5
q0 128 8 239.5t21.5 206.5t31.5 175t39 146zM758 1163h335v-890h617q103 0 157 26.5t74 85.5t20 157v118q0 81 -20 132.5t-69.5 75.5t-140.5 24h-37v-819h-335v1090h351q215 0 345 -54.5t188 -167t58 -286.5v-106q0 -194 -61 -315.5t-196.5 -177.5t-361.5 -56h-924v1163z
" />
    <glyph glyph-name="YaMatraU.tm" horiz-adv-x="2038" 
d="M1573 198h335v-576h-335v576zM1566 1163h342v-1163h-657v282h315v881zM1380 0h-546v199h-16q-18 -106 -95.5 -164.5t-222.5 -58.5q-183 0 -278.5 106t-95.5 338v743h335v-738q0 -88 35 -126.5t94 -38.5q65 0 96 42t31 137v724h342v-881h321v-282z" />
    <glyph glyph-name="RaMatraU.tm" horiz-adv-x="2286" 
d="M1300 1088h335v-1088h-335v1088zM1907 757q163 0 234 -110.5t71 -325.5v-32q0 -272 -102.5 -457.5t-321 -280t-566.5 -94.5h-7q-371 0 -615 110.5t-364.5 340t-120.5 585.5q0 109 7.5 206.5t20.5 182t29 155t33 126.5h343q-23 -72 -40.5 -147.5t-29.5 -157.5t-18 -172.5
t-6 -192.5q0 -257 76 -422.5t243.5 -245t441.5 -79.5h7q237 0 380 60.5t207.5 180.5t64.5 298v5q0 98 -27.5 143.5t-92.5 45.5q-50 0 -86 -30.5t-48 -79.5h-22v172h46q14 94 79.5 155t183.5 61zM1696 1163v-273h-630v-890h-334v1163h964zM1590 890v273h423l29 -273h-452z
" />
    <glyph glyph-name="RraMatraU.tm" horiz-adv-x="2340" 
d="M1875 1163h335v-1466h-335v1466zM1263 1194q198 0 292 -94.5t94 -278.5v-3q0 -127 -52.5 -212t-183.5 -99v-9q92 -8 147.5 -53.5t81 -124.5t25.5 -191v-29q0 -81 -2.5 -142.5t-7 -110t-10.5 -91.5l-2 -55q-23 -155 -111.5 -275.5t-252 -189t-411.5 -68.5
q-273 0 -457.5 82t-280 241.5t-103.5 392.5h2181v-255h-1791q9 -41 40 -77t86.5 -63t136 -42.5t188.5 -15.5q139 0 233 35t145.5 98.5t61.5 147.5l5 75q5 34 9 81.5t6.5 105t2.5 121.5v37q0 115 -36.5 166t-125.5 57l-58 4v264l58 4q84 6 121.5 42t37.5 103v6q0 47 -15 77
t-46.5 44.5t-79.5 14.5q-53 0 -89.5 -18t-55 -56t-18.5 -100v-740h-335v765q0 79 -26.5 113t-86.5 34q-54 0 -86 -34t-32 -113v-765h-335v744q0 236 104 342t302 106q153 0 234.5 -70t97.5 -200h8q23 133 117.5 202.5t274.5 69.5z" />
    <glyph glyph-name="LaMatraU.tm" horiz-adv-x="2687" 
d="M2222 1163h335v-1466h-335v1466zM884 -842q-204 0 -360 47.5t-262.5 140t-161.5 228t-58 310.5h2515v-255h-2119q8 -40 38.5 -77t85.5 -66t135.5 -46t186.5 -17q148 0 246.5 37t150 102.5t58.5 150.5l10 82q4 32 7 70.5t5 82.5t2 92h339q0 -55 -3 -102.5t-7 -88.5t-9 -80
l-2 -67q-18 -164 -110.5 -286.5t-263 -190t-423.5 -67.5zM758 1198q235 0 376.5 -71t205.5 -210.5t64 -345.5v-108q0 -105 28 -155.5t101 -50.5q71 0 96.5 54.5t25.5 160.5v197q0 84 -16.5 137.5t-55.5 79t-107 25.5q-20 0 -37.5 -2t-32.5 -4l43 282q22 5 49.5 8t55.5 3
q167 0 263.5 -59t137 -174.5t40.5 -284.5v-196q0 -165 -45 -279t-146.5 -172.5t-270.5 -58.5q-251 0 -357.5 125t-106.5 361v106q0 120 -33.5 196.5t-103.5 113.5t-180 37q-178 0 -262 -87t-88 -260v-9v-9h11v-181q0 -64 24 -97.5t82 -33.5q50 0 70.5 30t20.5 82v40
q0 54 -21.5 81t-74.5 27q-27 0 -49.5 -11t-38 -27.5t-22.5 -32.5l-9 123h15q10 86 73.5 147.5t183.5 61.5q136 0 200.5 -85t64.5 -249v-55q0 -117 -40.5 -206t-130 -138.5t-236.5 -49.5q-154 0 -250.5 58t-141.5 161t-45 239v108q0 207 74.5 354.5t223.5 225.5t372 78z" />
    <glyph glyph-name="LlaMatraU.tm" horiz-adv-x="3232" 
d="M2852 757q163 0 234 -110.5t71 -325.5v-32q0 -292 -140 -491t-445.5 -301t-803.5 -102h-43q-429 0 -734.5 76.5t-499 228.5t-284.5 379t-91 529q0 122 6.5 223t18.5 184t26 148h343q-27 -127 -40.5 -251t-13.5 -297q0 -236 64.5 -411.5t210 -291t387.5 -173t596 -57.5h54
q294 0 495.5 38t323.5 113.5t177 188.5t55 263v5q0 98 -27.5 143.5t-92.5 45.5q-50 0 -86 -30.5t-48 -79.5h-22v172h46q14 94 79.5 155t183.5 61zM2241 1087h336v-1087h-336v1087zM1304 1198q107 0 188 -20.5t138.5 -59t94.5 -92t56 -118.5h7v255h757v-273h-538v-890h-335
v516q0 203 -78.5 300t-260.5 97q-181 0 -264 -87t-87 -260v-9v-9h11v-181q0 -64 24 -97.5t82 -33.5q50 0 70.5 30t20.5 82v40q0 54 -21.5 81t-74.5 27q-27 0 -49.5 -11t-38 -27.5t-22.5 -32.5l-9 123h15q10 86 73.5 147.5t183.5 61.5q136 0 200.5 -85t64.5 -249v-55
q0 -117 -40.5 -206t-130 -138.5t-236.5 -49.5q-154 0 -250.5 58t-141.5 161t-45 239v108q0 207 70.5 354.5t211.5 225.5t354 78zM2534 890v273h423l29 -273h-452z" />
    <glyph glyph-name="LllaMatraU.tm" horiz-adv-x="2384" 
d="M212 1163h344q-25 -81 -44.5 -166.5t-33 -179.5t-20.5 -201t-7 -231q0 -256 64.5 -428.5t211.5 -259.5t395 -87q140 0 240 28t160 64l10 6q15 9 30.5 16t28.5 11v6q-83 12 -134.5 50t-74.5 94.5t-23 123.5v151h327v-133q0 -52 11.5 -82.5t40.5 -43.5t81 -13h278l-38 -255
h-81q-28 0 -48.5 -9.5t-43.5 -28.5l-15 -12q-86 -69 -191 -128t-241.5 -94.5t-319.5 -35.5q-346 0 -569 117.5t-330.5 355.5t-107.5 598q0 128 8 239.5t21.5 206.5t31.5 175t39 146zM755 1163h335v-890h617q103 0 157 26.5t74 85.5t20 157v118q0 81 -20 132.5t-69.5 75.5
t-140.5 24h-37v-819h-335v1090h351q215 0 345 -54.5t188 -167t58 -286.5v-106q0 -194 -61 -315.5t-196.5 -177.5t-361.5 -56h-924v1163z" />
    <glyph glyph-name="VaMatraU.tm" horiz-adv-x="2119" 
d="M1655 198h334v-576h-334v576zM1654 1163h335v-1163h-645l-9 273h319v890zM779 1198q242 0 387 -73.5t209 -215t64 -344.5v-45q0 -88 -11.5 -157.5t-37.5 -126t-69 -106.5l-34 143h326v-273h-617v18q38 66 60.5 133.5t32.5 146.5t10 177v56q0 130 -34 214t-108.5 125
t-195.5 41q-182 0 -268.5 -87t-90.5 -260v-8v-8h11v-181q0 -64 24 -97.5t82 -33.5q50 0 70.5 30t20.5 82v40q0 54 -21.5 81t-74.5 27q-27 0 -49.5 -11t-38 -27.5t-22.5 -32.5l-9 123h15q10 86 73.5 147.5t183.5 61.5q136 0 200.5 -85t64.5 -249v-55q0 -117 -40.5 -206
t-130 -138.5t-236.5 -49.5q-154 0 -250.5 58t-141.5 161t-45 239v106q0 208 77 355.5t231 226t383 78.5z" />
    <glyph glyph-name="ShaMatraU.tm" horiz-adv-x="3151" 
d="M2238 1163v-272h-295v272h295zM126 1163h337v-753q0 -82 27 -118.5t88 -36.5q60 0 86.5 36.5t26.5 119.5v752h337v-741q0 -146 -44.5 -246.5t-143 -152t-262.5 -51.5q-163 0 -262.5 52t-144.5 152.5t-45 245.5v741zM1229 1163h337v-752q0 -84 26.5 -120.5t84.5 -36.5
q59 0 85 36.5t26 121.5v751h337v-740q0 -147 -44.5 -247.5t-142.5 -152t-261 -51.5q-162 0 -260.5 52t-143 153t-44.5 246v740zM768 1163h1224v-273h-1224v273zM2004 891v272h585q277 0 393 -114t116 -316v-59q0 -183 -94.5 -286.5t-300.5 -103.5q-139 0 -227 47.5t-129 132
t-41 195.5v62q0 35 2 69.5t8 60.5l278 43l35 3q-8 -28 -11.5 -63.5t-3.5 -79.5v-81q0 -65 19 -99.5t68 -34.5q44 0 62.5 32.5t18.5 93.5v80q0 73 -31 109.5t-112 36.5h-635z" />
    <glyph glyph-name="SsaMatraU.tm" horiz-adv-x="3601" 
d="M1353 273h663l82 -47l75 47h550l-34 -273h-1336v273zM2098 1197q140 0 232 -38.5t147 -112.5l-9 -55q59 -49 81 -115t22 -156v-106q0 -193 -85 -317t-298 -186l-125 109q64 22 100 65.5t51.5 106.5t15.5 143v169q0 98 -28.5 151t-103.5 53q-74 0 -102.5 -53t-28.5 -151
v-169q0 -80 15.5 -143t52 -106.5t99.5 -65.5l-126 -109q-212 62 -297 186t-85 317v114q0 215 114 342t358 127zM2590 1163v-272h-336v272h336zM779 1198q242 0 387 -73.5t209 -215t64 -344.5v-45q0 -88 -11.5 -157.5t-37.5 -126t-69 -106.5l-34 143h326v-273h-617v18
q38 66 60.5 133.5t32.5 146.5t10 177v56q0 130 -34 214t-108.5 125t-195.5 41q-182 0 -268.5 -87t-90.5 -260v-8v-8h11v-181q0 -64 24 -97.5t82 -33.5q50 0 70.5 30t20.5 82v40q0 54 -21.5 81t-74.5 27q-27 0 -49.5 -11t-38 -27.5t-22.5 -32.5l-9 123h15q10 86 73.5 147.5
t183.5 61.5q136 0 200.5 -85t64.5 -249v-55q0 -117 -40.5 -206t-130 -138.5t-236.5 -49.5q-154 0 -250.5 58t-141.5 161t-45 239v106q0 208 77 355.5t231 226t383 78.5zM2130 -513q-215 0 -312 70t-97 232v12q0 103 56 165t160 96l18 6l188 -52l-22 -14q-34 -22 -54 -50.5
t-20 -78.5v-3q0 -52 32 -78.5t116 -26.5q43 0 80 3.5t76.5 11t89.5 18.5l-43 -279q-64 -15 -130.5 -23.5t-137.5 -8.5zM2454 891v272h585q277 0 393 -114t116 -316v-59q0 -183 -94.5 -286.5t-300.5 -103.5q-139 0 -227 47.5t-129 132t-41 195.5v62q0 35 2 69.5t8 60.5
l278 43l35 3q-8 -28 -11.5 -63.5t-3.5 -79.5v-81q0 -65 19 -99.5t68 -34.5q44 0 62.5 32.5t18.5 93.5v80q0 73 -31 109.5t-112 36.5h-635z" />
    <glyph glyph-name="SaMatraU.tm" horiz-adv-x="3602" 
d="M2590 1163v-272h-299v272h299zM728 1198q158 0 264.5 -42t167.5 -119.5t80 -186.5h8v2q0 160 86 252.5t270 92.5q197 0 285.5 -110.5t88.5 -331.5v-287q0 -107 29.5 -159t105.5 -52q74 0 100 55.5t26 161.5v202q0 82 -15 133.5t-51.5 76.5t-101.5 25q-15 0 -27 -1t-23 -3
l44 282q20 4 46 6.5t52 2.5q118 0 195 -34.5t123 -102.5l1 -67q55 -56 76 -131.5t21 -176.5v-199q0 -250 -107.5 -381.5t-358.5 -131.5q-253 0 -361.5 128t-108.5 376v271q0 89 -24 127.5t-83 38.5q-53 0 -79.5 -38.5t-26.5 -125.5v-751h-335v545q0 125 -35 206.5
t-111 121.5t-198 40q-179 0 -262 -87t-87 -260v-9v-9h11v-181q0 -64 24 -97.5t82 -33.5q50 0 70.5 30t20.5 82v40q0 54 -21.5 81t-74.5 27q-27 0 -49.5 -11t-38 -27.5t-22.5 -32.5l-9 123h15q10 86 73.5 147.5t183.5 61.5q136 0 200.5 -85t64.5 -249v-55q0 -117 -40.5 -206
t-130 -138.5t-236.5 -49.5q-154 0 -250.5 58t-141.5 161t-45 239v108q0 207 71 354.5t213 225.5t356 78zM2455 891v272h585q277 0 393 -114t116 -316v-59q0 -183 -94.5 -286.5t-300.5 -103.5q-139 0 -227 47.5t-129 132t-41 195.5v62q0 35 2 69.5t8 60.5l278 43l35 3
q-8 -28 -11.5 -63.5t-3.5 -79.5v-81q0 -65 19 -99.5t68 -34.5q44 0 62.5 32.5t18.5 93.5v80q0 73 -31 109.5t-112 36.5h-635z" />
    <glyph glyph-name="HaMatraU.tm" horiz-adv-x="4182" 
d="M1462 273h353v-273h-353v273zM2042 1192q153 0 234.5 -70t97.5 -200h8q23 133 117.5 202.5t274.5 69.5q127 0 207.5 -34.5t124.5 -103.5l-1 -67q30 -32 42.5 -77.5t12.5 -95.5v-3q0 -129 -52.5 -215t-183.5 -100v-9q93 -7 150 -48t82.5 -112.5t25.5 -172.5v-45
q0 -183 -56 -300t-196.5 -172.5t-393.5 -55.5h-1970l-41 279h1982q136 0 209.5 27.5t101.5 86.5t28 155v43q0 89 -37 127.5t-127 44.5l-58 4v265l58 3q84 5 121.5 43t37.5 106v6q0 48 -15 79.5t-46.5 46.5t-79.5 15q-53 0 -89.5 -18t-55 -56t-18.5 -100v-740h-335v765
q0 79 -26.5 113t-86.5 34q-54 0 -86 -34t-32 -113v-765h-335v744q0 236 104 342t302 106zM3192 1163v-272h-313v272h313zM771 1198q242 0 387 -73.5t209 -215t64 -344.5v-45q0 -88 -11.5 -157.5t-37.5 -126t-69 -106.5l-34 143h326v-273h-617v18q38 66 60.5 133.5
t32.5 146.5t10 177v56q0 130 -34 214t-108.5 125t-195.5 41q-182 0 -268.5 -87t-90.5 -260v-8v-8h11v-181q0 -64 24 -97.5t82 -33.5q50 0 70.5 30t20.5 82v40q0 54 -21.5 81t-74.5 27q-27 0 -49.5 -11t-38 -27.5t-22.5 -32.5l-9 123h15q10 86 73.5 147.5t183.5 61.5
q136 0 200.5 -85t64.5 -249v-55q0 -117 -40.5 -206t-130 -138.5t-236.5 -49.5q-154 0 -250.5 58t-141.5 161t-45 239v106q0 208 77 355.5t231 226t383 78.5zM615 -138v-279h-174q-97 0 -177.5 -11t-150.5 -32t-137 -50l33 309q48 22 104 35.5t132 20.5t185 7h185zM3035 891
v272h585q277 0 393 -114t116 -316v-59q0 -183 -94.5 -286.5t-300.5 -103.5q-139 0 -227 47.5t-129 132t-41 195.5v62q0 35 2 69.5t8 60.5l278 43l35 3q-8 -28 -11.5 -63.5t-3.5 -79.5v-81q0 -65 19 -99.5t68 -34.5q44 0 62.5 32.5t18.5 93.5v80q0 73 -31 109.5t-112 36.5
h-635z" />
    <glyph glyph-name="KssaMatraU.tm" horiz-adv-x="4277" 
d="M952 464v268h181q150 0 218 -55.5t86 -186.5h8v0q0 135 89.5 221.5t270.5 86.5q185 0 267.5 -88.5t82.5 -253.5v-28q0 -83 -13 -136.5t-39 -99.5l-68 78h405v-270h-682v18q39 60 56 127.5t17 165.5v43q0 80 -23.5 122t-85.5 42q-40 0 -67 -19.5t-41 -57.5t-14 -94v-347
h-332v278q0 72 -14 112.5t-49 57t-98 16.5h-155zM2029 273h663l82 -44l75 44h550l-34 -273h-1336v273zM2774 1197q140 0 232 -38.5t147 -112.5l-9 -55q59 -49 81 -115t22 -156v-106q0 -193 -85 -317t-298 -186l-125 109q64 22 100 65.5t51.5 106.5t15.5 143v169
q0 98 -28.5 151t-103.5 53q-74 0 -102.5 -53t-28.5 -151v-169q0 -80 15.5 -143t52 -106.5t99.5 -65.5l-126 -109q-212 62 -297 186t-85 317v114q0 215 114 342t358 127zM3266 1163v-272h-336v272h336zM932 725v-254h-481h-61q0 -6 -0.5 -16t-0.5 -20v-17q0 -83 45.5 -127.5
t148.5 -44.5q100 0 141.5 45t41.5 130v191l13 35v434h303v-434v-35v-187q0 -142 -48 -243t-156.5 -154.5t-290.5 -53.5q-273 0 -394 120t-121 341q0 36 2 73t6.5 73.5t11.5 69.5l192 58l247 16h401zM1186 1163v-264h-237l-23 19h-342l-16 -305l-297 10v540h915zM1130 899
v264h269l28 -264h-297zM2805 -513q-215 0 -312 70t-97 232v12q0 103 56 165t160 96l18 6l188 -52l-22 -14q-34 -22 -54 -50.5t-20 -78.5v-3q0 -52 32 -78.5t116 -26.5q43 0 80 3.5t76.5 11t89.5 18.5l-43 -279q-64 -15 -130.5 -23.5t-137.5 -8.5zM3130 891v272h585
q277 0 393 -114t116 -316v-59q0 -183 -94.5 -286.5t-300.5 -103.5q-139 0 -227 47.5t-129 132t-41 195.5v62q0 35 2 69.5t8 60.5l278 43l35 3q-8 -28 -11.5 -63.5t-3.5 -79.5v-81q0 -65 19 -99.5t68 -34.5q44 0 62.5 32.5t18.5 93.5v80q0 73 -31 109.5t-112 36.5h-635z" />
    <glyph glyph-name="KaMatraUu.tm" horiz-adv-x="2532" 
d="M976 464v268h157q150 0 218 -55.5t86 -186.5h8v0q0 135 89.5 221.5t270.5 86.5q185 0 267.5 -88.5t82.5 -253.5v-28q0 -83 -13 -136.5t-39 -99.5l-68 83h497l-34 -275h-740v18q39 60 56 127.5t17 165.5v43q0 80 -23.5 122t-85.5 42q-40 0 -67 -19.5t-41 -57.5t-14 -94
v-347h-332v278q0 72 -14 112.5t-49 57t-98 16.5h-131zM932 725v-254h-481h-61q0 -6 -0.5 -16t-0.5 -20v-17q0 -83 45.5 -127.5t148.5 -44.5q100 0 141.5 45t41.5 130v191l13 35v434h303v-434v-35v-187q0 -142 -48 -243t-156.5 -154.5t-290.5 -53.5q-273 0 -394 120t-121 341
q0 36 2 73t6.5 73.5t11.5 69.5l192 58l247 16h401zM1186 1163v-264h-237l-23 19h-342l-16 -305l-297 10v540h915zM1130 899v264h269l28 -264h-297z" />
    <glyph glyph-name="NgaMatraUu.tm" horiz-adv-x="2639" 
d="M1769 292h334v-563h-334v563zM2376 346q149 0 214 -99t65 -292v-35q0 -274 -148 -455t-444.5 -271t-742.5 -90q-278 0 -513 35t-408.5 103t-269.5 168.5t-96 231.5q0 159 111 225t321 66q114 0 232 -13.5t224.5 -37t185.5 -53.5l35 -283q-114 38 -232.5 66t-229.5 43
t-203 15q-59 0 -86.5 -14t-27.5 -46q0 -37 51 -71t142 -63.5t212 -51t262 -34t290 -12.5q325 0 548 53.5t338 170t115 306.5v15q0 77 -24.5 115.5t-81.5 38.5q-47 0 -80 -27t-47 -72h-22v152h47q15 95 80 155.5t183 60.5zM711 1080h335v-1080h-335v1080zM1336 770
q142 0 206 -81t64 -234v-27q0 -83 -13 -136.5t-39 -99.5l-68 76h418v-268h-693v18q39 58 56 123.5t17 160.5v26q0 80 -25 121t-92 41q-46 0 -81 -27t-49 -68h-7v150h25q7 60 37 111.5t89.5 82.5t154.5 31zM1768 1163h335v-1163h-335v1163zM1130 1163v-273h-665v-890h-335
v1163h1000zM1049 890v273h423l29 -273h-452z" />
    <glyph glyph-name="CaMatraUu.tm" horiz-adv-x="2725" 
d="M1582 464v268h884l30 -254h-457l-92 -14h-365zM1835 527h333v-527h-333v527zM214 1163h345q-33 -101 -57.5 -201t-37.5 -212t-13 -248q0 -274 106.5 -454t342.5 -268.5t624 -88.5h18q272 0 453 42t271.5 120t90.5 185v0q0 59 -20.5 86.5t-69.5 27.5q-41 0 -71 -22.5
t-43 -58.5h-22v146h46q14 85 76.5 139.5t176.5 54.5q140 0 201 -87.5t61 -259.5v-13q0 -204 -129.5 -349t-385 -222.5t-635.5 -77.5h-18q-489 0 -801 121t-461.5 364t-149.5 607q0 150 14.5 272.5t38 221t49.5 175.5zM1525 725v-254h-481h-61q0 -6 -0.5 -16t-0.5 -20v-17
q0 -83 45.5 -127.5t148.5 -44.5q100 0 141.5 45t41.5 130v191l13 35v434h303v-434v-35v-187q0 -142 -48 -243t-156.5 -154.5t-290.5 -53.5q-273 0 -394 120t-121 341q0 36 2 73t6.5 73.5t11.5 69.5l192 58l247 16h401zM1779 1163v-264h-237l-23 19h-342l-16 -305l-297 10
v540h915zM1734 899v264h269l28 -264h-297z" />
    <glyph glyph-name="JaMatraUu.tm" horiz-adv-x="3518" 
d="M1970 1163v-272h-282v272h282zM718 1206q163 0 264 -45.5t154 -123t71 -172.5h7q20 155 105.5 244t266.5 89q117 0 192 -35t119 -106v-55q41 -50 59 -122t18 -152v-21q0 -150 -27 -257.5t-89 -177.5t-167.5 -107t-263.5 -46l-741 -41q-73 -4 -118.5 -23t-66 -53
t-20.5 -85v-9q0 -65 38 -104.5t126 -39.5q56 0 97 15.5t78 45.5t80 73l178 177q82 81 148 137t140 84.5t178 28.5q152 0 246.5 -44.5t138.5 -134.5t44 -227v-3q0 -209 -96 -315t-308 -106q-52 0 -105.5 4.5t-103.5 16.5l-64 275q48 -10 92.5 -17t96.5 -7q91 0 126.5 38
t35.5 111v18q0 61 -25.5 95t-90.5 34q-64 0 -115 -37.5t-127 -126.5l-106 -124q-82 -96 -158 -158t-167.5 -92t-222.5 -30q-227 0 -353 103t-126 302v8q0 141 56 232.5t165.5 139t270.5 57.5l715 44q108 7 171 41t90 102.5t27 177.5v39q0 61 -13 102t-40.5 61.5t-72.5 20.5
q-43 0 -74.5 -18t-49 -59.5t-17.5 -111.5v-297h-322v161q0 112 -30.5 187.5t-100.5 114.5t-189 39q-170 0 -252 -80t-81 -211h16v-172q0 -61 23.5 -93.5t81.5 -32.5q50 0 70 29t20 78v48q0 50 -21.5 76.5t-71.5 26.5q-25 0 -47.5 -9.5t-38.5 -25.5t-24 -36l-14 111h17
q9 85 73 143t178 58q140 0 201.5 -81t61.5 -231v-47q0 -187 -96 -285t-304 -98q-221 0 -325 117t-104 323v95q0 269 158 415.5t455 146.5zM1829 1163h480l104 -14h93q235 0 335.5 -101.5t100.5 -294.5v-89q0 -173 -92.5 -272t-293.5 -99q-146 0 -235 51.5t-128.5 145
t-39.5 219.5q0 55 2 109.5t8 102.5l310 -21q-6 -49 -7 -100.5t-1 -105.5q0 -72 19 -110t67 -38q44 0 62.5 28.5t18.5 80.5v109q0 62 -30 94t-107 32l-666 1v272zM2812 1560q227 0 366.5 -88t203.5 -255t64 -403q0 -139 -8 -277t-25 -277l-337 -1q17 141 26 280t9 285
q0 148 -31 249.5t-101 154t-187 52.5q-90 0 -153.5 -26.5t-100 -78t-46.5 -127.5l-312 18q21 149 100 260t213.5 172.5t318.5 61.5z" />
    <glyph glyph-name="NyaMatraUu.tm" horiz-adv-x="3302" 
d="M2795 1088h335v-1088h-335v1088zM3061 1163v-273h-512v-890h-335v1163h847zM2871 890v273h423l29 -273h-452zM1076 1088h335v-1088h-335v1088zM1679 757q170 0 240 -119t70 -351v-103q0 -95 -2.5 -167.5t-7.5 -131t-13 -111.5l-5 -52q-21 -131 -85.5 -239t-177.5 -186.5
t-278.5 -121t-388.5 -42.5q-234 0 -416 49.5t-307.5 146t-191.5 236t-70 319.5h2503v-255h-2100q14 -44 55 -84.5t112 -73t174 -51t241 -18.5q144 0 250 24t177.5 68.5t111 105.5t49.5 135l7 65q8 45 13.5 102t8.5 125.5t3 145.5v83q0 116 -26.5 169.5t-98.5 53.5
q-45 0 -81.5 -28t-47.5 -72h-23v172h47q14 89 80 147.5t178 58.5zM2214 1162h335v-1465h-335v1465zM977 1163h453v-273h-453v273zM1002 1163v-273h-225q-199 0 -289 -81t-90 -243v-9v-9h11v-181q0 -64 24 -97.5t82 -33.5q50 0 70.5 30t20.5 82v40q0 54 -21.5 81t-74.5 27
q-27 0 -49.5 -11t-38 -27.5t-22.5 -32.5l-9 123h15q10 86 73.5 147.5t183.5 61.5q136 0 200.5 -85t64.5 -249v-55q0 -117 -40.5 -206t-130 -138.5t-236.5 -49.5q-154 0 -250.5 58t-141.5 161t-45 239v108q0 197 76 336t227.5 213t377.5 74h237zM1369 890v273h423l29 -273
h-452z" />
    <glyph glyph-name="TtaMatraUu.tm" horiz-adv-x="1911" 
d="M700 1163h335v-1163h-335v1163zM1304 716q160 0 230.5 -109.5t70.5 -324.5v-64q0 -374 -174.5 -555.5t-533.5 -181.5q-398 0 -595.5 231.5t-197.5 729.5v325q0 574 246.5 856t737.5 282q268 0 453 -89t281 -250t96 -378v-15q0 -133 -41 -228.5t-126.5 -147t-219.5 -51.5
q-140 0 -224.5 47t-122 130.5t-37.5 194.5v20q0 154 66.5 236.5t206.5 82.5q86 0 136.5 -47t64.5 -124h21v-140h-9q-10 26 -36 45.5t-64 19.5q-47 0 -67.5 -25t-20.5 -79v-1q0 -47 20 -75.5t68 -28.5q53 0 75 34t22 93v35v34l2 79q-8 96 -72.5 172.5t-180.5 121.5t-282 45
q-337 0 -495.5 -203t-158.5 -633v-351q0 -228 45.5 -373.5t145.5 -215.5t262 -70q195 0 282.5 104t87.5 338v40q0 96 -27 141t-89 45q-49 0 -83.5 -30t-45.5 -80h-23v172h47q14 94 78.5 155t180.5 61z" />
    <glyph glyph-name="NnaMatraUu.tm" horiz-adv-x="4929" 
d="M4422 1088h335v-1088h-335v1088zM4688 1163v-273h-512v-890h-335v1163h847zM4498 890v273h423l29 -273h-452zM2012 1201q237 0 391.5 -41.5t247.5 -103.5l2 -12q104 -48 169.5 -122t96.5 -171t31 -216v-110q0 -136 -43 -237.5t-138 -157.5t-250 -56t-252.5 56.5t-143 158
t-45.5 236.5v110q0 119 34.5 221.5t112 175t206.5 101.5l126 -180q-54 -21 -86 -61t-45.5 -98.5t-13.5 -137.5v-124q0 -58 10.5 -98t33.5 -60t61 -20t60 20t31.5 60t9.5 99v123q0 79 -13.5 137.5t-43.5 98.5t-81 61l-13 7q-46 21 -115 37.5t-155 26t-185 9.5
q-151 0 -264 -21t-198 -52l-180 198q97 61 254.5 102t387.5 41zM3033 1202q199 0 322.5 -44t181.5 -131t58 -217v0q0 -124 -52 -207.5t-184 -95.5v-9q90 -6 145 -48t80.5 -116.5t25.5 -181.5v-9q0 -124 -13 -215t-36 -166l-9 -90q-54 -130 -185 -237.5t-338.5 -185.5
t-492.5 -120.5t-648 -42.5q-443 0 -774.5 54t-556.5 157.5t-348 251.5t-150 335h4117v-255h-3615q39 -52 148 -101t280 -88t397.5 -62t500.5 -23q278 0 501.5 25t391.5 72.5t276.5 115.5t155.5 155l12 61q24 60 37 153.5t13 200.5v5q0 110 -37.5 159t-129.5 55l-47 3v263
l59 4q84 6 120 46t36 107v0q0 57 -28 94.5t-85.5 55.5t-147.5 18q-129 0 -231.5 -18t-203.5 -53l-171 194q101 56 256.5 93.5t368.5 37.5zM3841 1163h335v-1466h-335v1466zM975 1204q241 0 398.5 -42t251.5 -106l2 -12q105 -48 170.5 -122t96.5 -171t31 -216v-110
q0 -136 -43 -237.5t-138 -157.5t-250 -56t-252 56.5t-142.5 158t-45.5 236.5v110q0 119 34.5 221.5t111.5 175t206 101.5l125 -180q-54 -21 -85.5 -61t-45.5 -98.5t-14 -137.5v-124q0 -58 11 -98t34.5 -60t61.5 -20t59.5 20t31 60t9.5 99v123q0 79 -13 137.5t-43.5 98.5
t-81.5 61l-13 3q-70 31 -179 51.5t-280 20.5q-296 0 -438 -95.5t-148 -284.5v0v0h11v-181q0 -64 24 -97.5t82 -33.5q50 0 70.5 30t20.5 82v40q0 54 -21.5 81t-74.5 27q-27 0 -49.5 -11t-38 -27.5t-22.5 -32.5l-9 123h15q10 86 73.5 147.5t183.5 61.5q136 0 200.5 -85
t64.5 -249v-55q0 -117 -40.5 -206t-130 -138.5t-236.5 -49.5q-154 0 -250.5 58t-141.5 161t-45 239v96q0 214 100 365t298.5 231t493.5 80z" />
    <glyph glyph-name="TaMatraUu.tm" horiz-adv-x="2894" 
d="M1805 1163h336v-1459h-336v1459zM977 484v268h111q270 0 385.5 -125.5t115.5 -397.5v-110q0 -83 -2.5 -144.5t-7 -110t-10.5 -92.5l-13 -76q-24 -148 -109 -262.5t-239.5 -179.5t-389.5 -65q-264 0 -442.5 80t-272 235.5t-103.5 379.5h2141v-255h-1745q11 -38 42 -71
t83 -57.5t126 -38t171 -13.5q126 0 211 32t132 92t58 143l15 84q6 36 10 83.5t6.5 105t2.5 121.5v94q0 103 -20.5 164.5t-65 88.5t-117.5 27h-73zM932 725v-254h-481h-61q0 -6 -0.5 -16t-0.5 -20v-17q0 -83 45.5 -127.5t148.5 -44.5q100 0 141.5 45t41.5 130v191l13 35v434
h303v-434v-35v-187q0 -142 -48 -243t-156.5 -154.5t-290.5 -53.5q-273 0 -394 120t-121 341q0 36 2 73t6.5 73.5t11.5 69.5l192 58l247 16h401zM1186 1163v-264h-237l-23 19h-342l-16 -305l-297 10v540h915zM1130 899v264h269l28 -264h-297zM2387 1088h335v-1088h-335v1088z
M2653 1163v-273h-512v-890h-335v1163h847zM2463 890v273h423l29 -273h-452z" />
    <glyph glyph-name="NaMatraUu.tm" horiz-adv-x="2905" 
d="M699 1088h335v-1088h-335v1088zM1302 757q170 0 240 -119t70 -351v-123q0 -91 -3 -161t-8.5 -125.5t-12.5 -105.5l-6 -76q-23 -150 -109.5 -265.5t-244.5 -181t-397 -65.5q-194 0 -341 45.5t-247.5 135t-153.5 220t-60 299.5h2125v-255h-1730q11 -39 40.5 -72.5
t79.5 -58.5t121.5 -39t165.5 -14q130 0 217 32.5t135 93.5t60 145l9 74q6 43 11 99.5t8 123t3 140.5v103q0 115 -26.5 169t-98.5 54q-45 0 -81.5 -28t-47.5 -72h-23v172h47q9 60 41.5 106.5t87.5 73t129 26.5zM1817 1163h337v-1466h-337v1466zM1089 1163v-273h-624v-890
h-335v1163h959zM981 890v273h423l29 -273h-452zM2398 1088h335v-1088h-335v1088zM2664 1163v-273h-512v-890h-335v1163h847zM2474 890v273h423l29 -273h-452z" />
    <glyph glyph-name="NnnaMatraUu.tm" horiz-adv-x="3884" 
d="M3377 1088h335v-1088h-335v1088zM3643 1163v-273h-512v-890h-335v1163h847zM3453 890v273h423l29 -273h-452zM2008 1202q199 0 322.5 -44t181.5 -131t58 -217v0q0 -124 -52 -207.5t-184 -95.5v-9q90 -6 145 -48t80.5 -116.5t25.5 -181.5v-9q0 -83 -4 -150.5t-11.5 -124
t-18.5 -106.5l-5 -71q-45 -172 -191 -299.5t-399 -197.5t-620 -70q-310 0 -543.5 51t-391.5 148.5t-243 239t-99 321.5h3072v-255h-2640q23 -43 88.5 -84t172 -74.5t253 -53.5t331.5 -20q198 0 349.5 23t259.5 66.5t172.5 103.5t88.5 135l6 61q18 60 27.5 153t9.5 199v5
q0 110 -37.5 159t-129.5 55l-47 3v263l59 4q84 6 120 46t36 107v0q0 57 -28 94.5t-85.5 55.5t-147.5 18q-129 0 -231.5 -18t-203.5 -53l-171 194q101 56 256.5 93.5t368.5 37.5zM2796 1163h335v-1466h-335v1466zM975 1204q242 0 399 -42t251 -106l2 -12q105 -48 170.5 -122
t96.5 -171t31 -216v-110q0 -136 -43 -237.5t-138 -157.5t-250 -56t-252 56.5t-142.5 158t-45.5 236.5v110q0 119 34.5 221.5t111.5 175t206 101.5l125 -180q-54 -21 -85.5 -61t-45.5 -98.5t-14 -137.5v-124q0 -58 11 -98t34.5 -60t61.5 -20t59.5 20t31 60t9.5 99v123
q0 79 -13 137.5t-43.5 98.5t-81.5 61l-13 3q-70 31 -179 51.5t-280 20.5q-296 0 -438 -95.5t-148 -284.5v0v0h11v-181q0 -64 24 -97.5t82 -33.5q50 0 70.5 30t20.5 82v40q0 54 -21.5 81t-74.5 27q-27 0 -49.5 -11t-38 -27.5t-22.5 -32.5l-9 123h15q10 86 73.5 147.5
t183.5 61.5q136 0 200.5 -85t64.5 -249v-55q0 -117 -40.5 -206t-130 -138.5t-236.5 -49.5q-154 0 -250.5 58t-141.5 161t-45 239v96q0 214 100 365t298.5 231t493.5 80z" />
    <glyph glyph-name="PaMatraUu.tm" horiz-adv-x="1908" 
d="M1037 292h335v-581h-335v581zM1645 340q149 0 214 -101t65 -298v-48q0 -236 -103 -400t-321.5 -248.5t-567.5 -84.5q-202 0 -366 30t-282 89.5t-181.5 148.5t-63.5 207q0 158 102.5 227.5t294.5 69.5q55 0 111.5 -5.5t107 -15t86.5 -22.5l33 -264q-74 21 -154 32.5
t-144 11.5q-39 0 -64 -7t-36.5 -20.5t-11.5 -35.5q0 -35 43.5 -66t121.5 -54t181 -36t222 -13q230 0 375 48.5t213.5 149t68.5 255.5v18q0 82 -24.5 123t-80.5 41q-48 0 -81 -27.5t-47 -71.5h-21v151h46q15 95 80.5 155.5t183.5 60.5zM1030 1163h342v-1163h-744v282h402v881
zM472 1163v-881h357v-282h-699v1163h342z" />
    <glyph glyph-name="MaMatraUu.tm" horiz-adv-x="2735" 
d="M556 1198q218 0 311.5 -114.5t93.5 -302.5v-54q0 -186 -79 -293t-256 -107q-37 0 -68 4t-57 11l-65 215h-27v80h8q13 -20 43 -36t67 -16q61 0 85 34.5t24 106.5v62q0 65 -21.5 100t-71.5 35q-65 0 -91 -53t-26 -161v-152v-48v-50q0 -270 72.5 -445t226.5 -260t398 -85h10
q294 0 427.5 105t141.5 301l4 99l338 -4l-4 -105q-8 -218 -109 -370t-299 -231.5t-500 -79.5h-7q-341 0 -570 112t-344 345.5t-115 597.5v226q0 270 114 401.5t346 131.5zM1106 1163h335v-890h617q103 0 157 26.5t74 85.5t20 157v118q0 81 -20 132.5t-69.5 75.5t-140.5 24
h-37v-819h-335v1090h351q215 0 345 -54.5t188 -167t58 -286.5v-106q0 -194 -61 -315.5t-196.5 -177.5t-361.5 -56h-924v1163z" />
    </font>
</defs>
</svg>
